<?xml version="1.0" encoding="UTF-8" standalone="no"?>
<!DOCTYPE svg PUBLIC "-//W3C//DTD SVG 1.1//EN"
 "http://www.w3.org/Graphics/SVG/1.1/DTD/svg11.dtd">
<!-- Generated by graphviz version 2.49.0 (0)
 -->
<!-- Title: snakemake_dag Pages: 1 -->
<svg width="318pt" height="188pt"
 viewBox="0.00 0.00 318.49 188.00" xmlns="http://www.w3.org/2000/svg" xmlns:xlink="http://www.w3.org/1999/xlink">
<g id="graph0" class="graph" transform="scale(1 1) rotate(0) translate(4 184)">
<title>snakemake_dag</title>
<polygon fill="white" stroke="transparent" points="-4,4 -4,-184 314.49,-184 314.49,4 -4,4"/>
<!-- 0 -->
<g id="node1" class="node">
<title>0</title>
<path fill="none" stroke="#56d863" stroke-width="2" stroke-dasharray="5,2" d="M195.33,-36C195.33,-36 109.61,-36 109.61,-36 103.61,-36 97.61,-30 97.61,-24 97.61,-24 97.61,-12 97.61,-12 97.61,-6 103.61,0 109.61,0 109.61,0 195.33,0 195.33,0 201.33,0 207.33,-6 207.33,-12 207.33,-12 207.33,-24 207.33,-24 207.33,-30 201.33,-36 195.33,-36"/>
<text text-anchor="middle" x="152.47" y="-15" font-family="sans" font-size="10.00">orientation_field_ccfv3</text>
</g>
<!-- 1 -->
<g id="node2" class="node">
<title>1</title>
<path fill="none" stroke="#d8a456" stroke-width="2" stroke-dasharray="5,2" d="M217.75,-108C217.75,-108 87.19,-108 87.19,-108 81.19,-108 75.19,-102 75.19,-96 75.19,-96 75.19,-84 75.19,-84 75.19,-78 81.19,-72 87.19,-72 87.19,-72 217.75,-72 217.75,-72 223.75,-72 229.75,-78 229.75,-84 229.75,-84 229.75,-96 229.75,-96 229.75,-102 223.75,-108 217.75,-108"/>
<text text-anchor="middle" x="152.47" y="-87" font-family="sans" font-size="10.00">direction_vectors_isocortex_ccfv3</text>
</g>
<!-- 1&#45;&gt;0 -->
<g id="edge1" class="edge">
<title>1&#45;&gt;0</title>
<path fill="none" stroke="grey" stroke-width="2" d="M152.47,-71.7C152.47,-63.98 152.47,-54.71 152.47,-46.11"/>
<polygon fill="grey" stroke="grey" stroke-width="2" points="155.97,-46.1 152.47,-36.1 148.97,-46.1 155.97,-46.1"/>
</g>
<!-- 2 -->
<g id="node3" class="node">
<title>2</title>
<path fill="none" stroke="#569ad8" stroke-width="2" stroke-dasharray="5,2" d="M128.91,-180C128.91,-180 12.03,-180 12.03,-180 6.03,-180 0.03,-174 0.03,-168 0.03,-168 0.03,-156 0.03,-156 0.03,-150 6.03,-144 12.03,-144 12.03,-144 128.91,-144 128.91,-144 134.91,-144 140.91,-150 140.91,-156 140.91,-156 140.91,-168 140.91,-168 140.91,-174 134.91,-180 128.91,-180"/>
<text text-anchor="middle" x="70.47" y="-159" font-family="sans" font-size="10.00">fetch_brain_parcellation_ccfv3</text>
</g>
<!-- 2&#45;&gt;1 -->
<g id="edge2" class="edge">
<title>2&#45;&gt;1</title>
<path fill="none" stroke="grey" stroke-width="2" d="M90.74,-143.7C100.97,-134.97 113.53,-124.24 124.65,-114.75"/>
<polygon fill="grey" stroke="grey" stroke-width="2" points="127.1,-117.26 132.43,-108.1 122.56,-111.94 127.1,-117.26"/>
</g>
<!-- 3 -->
<g id="node4" class="node">
<title>3</title>
<path fill="none" stroke="#d86656" stroke-width="2" stroke-dasharray="5,2" d="M298.51,-180C298.51,-180 170.43,-180 170.43,-180 164.43,-180 158.43,-174 158.43,-168 158.43,-168 158.43,-156 158.43,-156 158.43,-150 164.43,-144 170.43,-144 170.43,-144 298.51,-144 298.51,-144 304.51,-144 310.51,-150 310.51,-156 310.51,-156 310.51,-168 310.51,-168 310.51,-174 304.51,-180 298.51,-180"/>
<text text-anchor="middle" x="234.47" y="-159" font-family="sans" font-size="10.00">fetch_ccf_brain_region_hierarchy</text>
</g>
<!-- 3&#45;&gt;1 -->
<g id="edge3" class="edge">
<title>3&#45;&gt;1</title>
<path fill="none" stroke="grey" stroke-width="2" d="M214.2,-143.7C203.97,-134.97 191.41,-124.24 180.29,-114.75"/>
<polygon fill="grey" stroke="grey" stroke-width="2" points="182.39,-111.94 172.51,-108.1 177.84,-117.26 182.39,-111.94"/>
</g>
</g>
</svg>
