<?xml version="1.0" encoding="UTF-8" standalone="no"?>
<!DOCTYPE svg PUBLIC "-//W3C//DTD SVG 1.1//EN"
 "http://www.w3.org/Graphics/SVG/1.1/DTD/svg11.dtd">
<!-- Generated by graphviz version 2.49.0 (0)
 -->
<!-- Title: snakemake_dag Pages: 1 -->
<svg width="2181pt" height="1124pt"
 viewBox="0.00 0.00 2180.94 1124.00" xmlns="http://www.w3.org/2000/svg" xmlns:xlink="http://www.w3.org/1999/xlink">
<g id="graph0" class="graph" transform="scale(1 1) rotate(0) translate(4 1120)">
<title>snakemake_dag</title>
<polygon fill="white" stroke="transparent" points="-4,4 -4,-1120 2176.94,-1120 2176.94,4 -4,4"/>
<!-- 0 -->
<g id="node1" class="node">
<title>0</title>
<path fill="none" stroke="#56b9d8" stroke-width="2" d="M243.71,-36C243.71,-36 164.17,-36 164.17,-36 158.17,-36 152.17,-30 152.17,-24 152.17,-24 152.17,-12 152.17,-12 152.17,-6 158.17,0 164.17,0 164.17,0 243.71,0 243.71,0 249.71,0 255.71,-6 255.71,-12 255.71,-12 255.71,-24 255.71,-24 255.71,-30 249.71,-36 243.71,-36"/>
<text text-anchor="middle" x="203.94" y="-15" font-family="sans" font-size="10.00">push_cellcomposition</text>
</g>
<!-- 1 -->
<g id="node2" class="node">
<title>1</title>
<path fill="none" stroke="#567bd8" stroke-width="2" d="M222.79,-180C222.79,-180 67.09,-180 67.09,-180 61.09,-180 55.09,-174 55.09,-168 55.09,-168 55.09,-156 55.09,-156 55.09,-150 61.09,-144 67.09,-144 67.09,-144 222.79,-144 222.79,-144 228.79,-144 234.79,-150 234.79,-156 234.79,-156 234.79,-168 234.79,-168 234.79,-174 228.79,-180 222.79,-180"/>
<text text-anchor="middle" x="144.94" y="-159" font-family="sans" font-size="10.00">create_cellCompositionVolume_payload</text>
</g>
<!-- 1&#45;&gt;0 -->
<g id="edge1" class="edge">
<title>1&#45;&gt;0</title>
<path fill="none" stroke="grey" stroke-width="2" d="M146.08,-143.89C147.82,-125.42 152.19,-95.51 162.94,-72 167.44,-62.16 174.08,-52.48 180.71,-44.13"/>
<polygon fill="grey" stroke="grey" stroke-width="2" points="183.55,-46.2 187.26,-36.28 178.17,-41.72 183.55,-46.2"/>
</g>
<!-- 40 -->
<g id="node41" class="node">
<title>40</title>
<path fill="none" stroke="#56c1d8" stroke-width="2" d="M345.96,-108C345.96,-108 183.92,-108 183.92,-108 177.92,-108 171.92,-102 171.92,-96 171.92,-96 171.92,-84 171.92,-84 171.92,-78 177.92,-72 183.92,-72 183.92,-72 345.96,-72 345.96,-72 351.96,-72 357.96,-78 357.96,-84 357.96,-84 357.96,-96 357.96,-96 357.96,-102 351.96,-108 345.96,-108"/>
<text text-anchor="middle" x="264.94" y="-87" font-family="sans" font-size="10.00">create_cellCompositionSummary_payload</text>
</g>
<!-- 1&#45;&gt;40 -->
<g id="edge72" class="edge">
<title>1&#45;&gt;40</title>
<path fill="none" stroke="grey" stroke-width="2" d="M174.29,-143.88C189.98,-134.72 209.5,-123.34 226.39,-113.48"/>
<polygon fill="grey" stroke="grey" stroke-width="2" points="228.6,-116.25 235.47,-108.19 225.07,-110.21 228.6,-116.25"/>
</g>
<!-- 2 -->
<g id="node3" class="node">
<title>2</title>
<path fill="none" stroke="#61d856" stroke-width="2" d="M551.45,-252C551.45,-252 374.43,-252 374.43,-252 368.43,-252 362.43,-246 362.43,-240 362.43,-240 362.43,-228 362.43,-228 362.43,-222 368.43,-216 374.43,-216 374.43,-216 551.45,-216 551.45,-216 557.45,-216 563.45,-222 563.45,-228 563.45,-228 563.45,-240 563.45,-240 563.45,-246 557.45,-252 551.45,-252"/>
<text text-anchor="middle" x="462.94" y="-231" font-family="sans" font-size="10.00">push_celldensity_transplant_pipeline_datasets</text>
</g>
<!-- 2&#45;&gt;1 -->
<g id="edge3" class="edge">
<title>2&#45;&gt;1</title>
<path fill="none" stroke="grey" stroke-width="2" d="M385.55,-215.97C339.3,-205.78 280.4,-192.82 232.45,-182.26"/>
<polygon fill="grey" stroke="grey" stroke-width="2" points="232.91,-178.78 222.39,-180.05 231.41,-185.62 232.91,-178.78"/>
</g>
<!-- 3 -->
<g id="node4" class="node">
<title>3</title>
<path fill="none" stroke="#d8cb56" stroke-width="2" d="M814.83,-468C814.83,-468 643.05,-468 643.05,-468 637.05,-468 631.05,-462 631.05,-456 631.05,-456 631.05,-444 631.05,-444 631.05,-438 637.05,-432 643.05,-432 643.05,-432 814.83,-432 814.83,-432 820.83,-432 826.83,-438 826.83,-444 826.83,-444 826.83,-456 826.83,-456 826.83,-462 820.83,-468 814.83,-468"/>
<text text-anchor="middle" x="728.94" y="-447" font-family="sans" font-size="10.00">transplant_glia_cell_densities_correctednissl</text>
</g>
<!-- 3&#45;&gt;2 -->
<g id="edge4" class="edge">
<title>3&#45;&gt;2</title>
<path fill="none" stroke="grey" stroke-width="2" d="M711.27,-431.84C669.16,-390.97 566.08,-291.01 561.94,-288 545.85,-276.28 526.85,-265.48 509.81,-256.73"/>
<polygon fill="grey" stroke="grey" stroke-width="2" points="511.09,-253.46 500.59,-252.09 507.94,-259.71 511.09,-253.46"/>
</g>
<!-- 4 -->
<g id="node5" class="node">
<title>4</title>
<path fill="none" stroke="#c6d856" stroke-width="2" d="M839.01,-828C839.01,-828 720.87,-828 720.87,-828 714.87,-828 708.87,-822 708.87,-816 708.87,-816 708.87,-804 708.87,-804 708.87,-798 714.87,-792 720.87,-792 720.87,-792 839.01,-792 839.01,-792 845.01,-792 851.01,-798 851.01,-804 851.01,-804 851.01,-816 851.01,-816 851.01,-822 845.01,-828 839.01,-828"/>
<text text-anchor="middle" x="779.94" y="-807" font-family="sans" font-size="10.00">split_isocortex_layer_23_ccfv2</text>
</g>
<!-- 4&#45;&gt;3 -->
<g id="edge9" class="edge">
<title>4&#45;&gt;3</title>
<path fill="none" stroke="grey" stroke-width="2" d="M767.27,-791.57C760.46,-781.56 752.38,-768.52 746.94,-756 730.6,-718.43 722.94,-707.97 722.94,-667 722.94,-667 722.94,-667 722.94,-593 722.94,-552.96 725.35,-506.63 727.11,-478.07"/>
<polygon fill="grey" stroke="grey" stroke-width="2" points="730.61,-478.24 727.75,-468.04 723.62,-477.8 730.61,-478.24"/>
</g>
<!-- 13 -->
<g id="node14" class="node">
<title>13</title>
<path fill="none" stroke="#d89556" stroke-width="2" d="M1917.39,-684C1917.39,-684 1790.48,-684 1790.48,-684 1784.48,-684 1778.48,-678 1778.48,-672 1778.48,-672 1778.48,-660 1778.48,-660 1778.48,-654 1784.48,-648 1790.48,-648 1790.48,-648 1917.39,-648 1917.39,-648 1923.39,-648 1929.39,-654 1929.39,-660 1929.39,-660 1929.39,-672 1929.39,-672 1929.39,-678 1923.39,-684 1917.39,-684"/>
<text text-anchor="middle" x="1853.94" y="-663" font-family="sans" font-size="10.00">glia_cell_densities_correctednissl</text>
</g>
<!-- 4&#45;&gt;13 -->
<g id="edge24" class="edge">
<title>4&#45;&gt;13</title>
<path fill="none" stroke="grey" stroke-width="2" d="M851.35,-806.98C1075.23,-800.41 1750.92,-778.8 1791.94,-756 1816.52,-742.34 1833.52,-714.32 1843.42,-693.36"/>
<polygon fill="grey" stroke="grey" stroke-width="2" points="1846.71,-694.57 1847.59,-684.01 1840.32,-691.71 1846.71,-694.57"/>
</g>
<!-- 14 -->
<g id="node15" class="node">
<title>14</title>
<path fill="none" stroke="#566bd8" stroke-width="2" d="M1771.29,-756C1771.29,-756 1670.59,-756 1670.59,-756 1664.59,-756 1658.59,-750 1658.59,-744 1658.59,-744 1658.59,-732 1658.59,-732 1658.59,-726 1664.59,-720 1670.59,-720 1670.59,-720 1771.29,-720 1771.29,-720 1777.29,-720 1783.29,-726 1783.29,-732 1783.29,-732 1783.29,-744 1783.29,-744 1783.29,-750 1777.29,-756 1771.29,-756"/>
<text text-anchor="middle" x="1720.94" y="-735" font-family="sans" font-size="10.00">cell_density_correctednissl</text>
</g>
<!-- 4&#45;&gt;14 -->
<g id="edge27" class="edge">
<title>4&#45;&gt;14</title>
<path fill="none" stroke="grey" stroke-width="2" d="M851.24,-808.45C999.68,-806.48 1352.4,-797.41 1644.94,-756 1646.04,-755.84 1647.16,-755.68 1648.27,-755.51"/>
<polygon fill="grey" stroke="grey" stroke-width="2" points="1649.17,-758.91 1658.46,-753.8 1648.02,-752 1649.17,-758.91"/>
</g>
<!-- 16 -->
<g id="node17" class="node">
<title>16</title>
<path fill="none" stroke="#569ad8" stroke-width="2" d="M1914.58,-756C1914.58,-756 1851.3,-756 1851.3,-756 1845.3,-756 1839.3,-750 1839.3,-744 1839.3,-744 1839.3,-732 1839.3,-732 1839.3,-726 1845.3,-720 1851.3,-720 1851.3,-720 1914.58,-720 1914.58,-720 1920.58,-720 1926.58,-726 1926.58,-732 1926.58,-732 1926.58,-744 1926.58,-744 1926.58,-750 1920.58,-756 1914.58,-756"/>
<text text-anchor="middle" x="1882.94" y="-735" font-family="sans" font-size="10.00">combine_markers</text>
</g>
<!-- 4&#45;&gt;16 -->
<g id="edge35" class="edge">
<title>4&#45;&gt;16</title>
<path fill="none" stroke="grey" stroke-width="2" d="M851.18,-806.36C1071.02,-798.06 1729.68,-772.15 1824.94,-756 1826.39,-755.75 1827.86,-755.48 1829.34,-755.19"/>
<polygon fill="grey" stroke="grey" stroke-width="2" points="1830.17,-758.59 1839.17,-753 1828.65,-751.76 1830.17,-758.59"/>
</g>
<!-- 23 -->
<g id="node24" class="node">
<title>23</title>
<path fill="none" stroke="#56d88a" stroke-width="2" d="M1138.49,-396C1138.49,-396 895.38,-396 895.38,-396 889.38,-396 883.38,-390 883.38,-384 883.38,-384 883.38,-372 883.38,-372 883.38,-366 889.38,-360 895.38,-360 895.38,-360 1138.49,-360 1138.49,-360 1144.49,-360 1150.49,-366 1150.49,-372 1150.49,-372 1150.49,-384 1150.49,-384 1150.49,-390 1144.49,-396 1138.49,-396"/>
<text text-anchor="middle" x="1016.94" y="-375" font-family="sans" font-size="10.00">transplant_inhibitory_neuron_densities_linprog_correctednissl</text>
</g>
<!-- 4&#45;&gt;23 -->
<g id="edge36" class="edge">
<title>4&#45;&gt;23</title>
<path fill="none" stroke="grey" stroke-width="2" d="M783.78,-791.61C789.34,-764.94 798.94,-712.27 798.94,-667 798.94,-667 798.94,-667 798.94,-593 798.94,-549.29 877.84,-459.34 911.94,-432 927.46,-419.55 946.38,-408.9 963.87,-400.48"/>
<polygon fill="grey" stroke="grey" stroke-width="2" points="965.82,-403.43 973.4,-396.04 962.86,-397.09 965.82,-403.43"/>
</g>
<!-- 24 -->
<g id="node25" class="node">
<title>24</title>
<path fill="none" stroke="#56d8c9" stroke-width="2" d="M1131.06,-468C1131.06,-468 932.82,-468 932.82,-468 926.82,-468 920.82,-462 920.82,-456 920.82,-456 920.82,-444 920.82,-444 920.82,-438 926.82,-432 932.82,-432 932.82,-432 1131.06,-432 1131.06,-432 1137.06,-432 1143.06,-438 1143.06,-444 1143.06,-444 1143.06,-456 1143.06,-456 1143.06,-462 1137.06,-468 1131.06,-468"/>
<text text-anchor="middle" x="1031.94" y="-447" font-family="sans" font-size="10.00">inhibitory_neuron_densities_linprog_correctednissl</text>
</g>
<!-- 4&#45;&gt;24 -->
<g id="edge40" class="edge">
<title>4&#45;&gt;24</title>
<path fill="none" stroke="grey" stroke-width="2" d="M792.61,-791.57C799.41,-781.56 807.49,-768.52 812.94,-756 829.27,-718.43 836.94,-707.97 836.94,-667 836.94,-667 836.94,-667 836.94,-593 836.94,-530.05 904.16,-492.07 959.67,-471.44"/>
<polygon fill="grey" stroke="grey" stroke-width="2" points="960.94,-474.7 969.17,-468.03 958.57,-468.11 960.94,-474.7"/>
</g>
<!-- 25 -->
<g id="node26" class="node">
<title>25</title>
<path fill="none" stroke="#56d882" stroke-width="2" d="M1444.93,-540C1444.93,-540 1306.94,-540 1306.94,-540 1300.94,-540 1294.94,-534 1294.94,-528 1294.94,-528 1294.94,-516 1294.94,-516 1294.94,-510 1300.94,-504 1306.94,-504 1306.94,-504 1444.93,-504 1444.93,-504 1450.93,-504 1456.93,-510 1456.93,-516 1456.93,-516 1456.93,-528 1456.93,-528 1456.93,-534 1450.93,-540 1444.93,-540"/>
<text text-anchor="middle" x="1375.94" y="-519" font-family="sans" font-size="10.00">fit_average_densities_correctednissl</text>
</g>
<!-- 4&#45;&gt;25 -->
<g id="edge44" class="edge">
<title>4&#45;&gt;25</title>
<path fill="none" stroke="grey" stroke-width="2" d="M809.96,-791.96C823.95,-782.79 839.89,-770.4 850.94,-756 882.38,-715 855.19,-682.18 893.94,-648 951.64,-597.11 1162.12,-556.55 1285.03,-536.57"/>
<polygon fill="grey" stroke="grey" stroke-width="2" points="1285.87,-539.98 1295.18,-534.93 1284.75,-533.07 1285.87,-539.98"/>
</g>
<!-- 31 -->
<g id="node32" class="node">
<title>31</title>
<path fill="none" stroke="#d8b456" stroke-width="2" d="M1737.55,-612C1737.55,-612 1614.33,-612 1614.33,-612 1608.33,-612 1602.33,-606 1602.33,-600 1602.33,-600 1602.33,-588 1602.33,-588 1602.33,-582 1608.33,-576 1614.33,-576 1614.33,-576 1737.55,-576 1737.55,-576 1743.55,-576 1749.55,-582 1749.55,-588 1749.55,-588 1749.55,-600 1749.55,-600 1749.55,-606 1743.55,-612 1737.55,-612"/>
<text text-anchor="middle" x="1675.94" y="-591" font-family="sans" font-size="10.00">average_densities_correctednissl</text>
</g>
<!-- 4&#45;&gt;31 -->
<g id="edge52" class="edge">
<title>4&#45;&gt;31</title>
<path fill="none" stroke="grey" stroke-width="2" d="M851.04,-804.58C1056.27,-791.09 1638.53,-747.51 1693.94,-684 1708.9,-666.85 1701.26,-640.74 1691.76,-621.23"/>
<polygon fill="grey" stroke="grey" stroke-width="2" points="1694.78,-619.46 1687.03,-612.25 1688.59,-622.72 1694.78,-619.46"/>
</g>
<!-- 33 -->
<g id="node34" class="node">
<title>33</title>
<path fill="none" stroke="#56d892" stroke-width="2" d="M541.29,-324C541.29,-324 340.59,-324 340.59,-324 334.59,-324 328.59,-318 328.59,-312 328.59,-312 328.59,-300 328.59,-300 328.59,-294 334.59,-288 340.59,-288 340.59,-288 541.29,-288 541.29,-288 547.29,-288 553.29,-294 553.29,-300 553.29,-300 553.29,-312 553.29,-312 553.29,-318 547.29,-324 541.29,-324"/>
<text text-anchor="middle" x="440.94" y="-303" font-family="sans" font-size="10.00">transplant_mtypes_densities_from_probability_map</text>
</g>
<!-- 4&#45;&gt;33 -->
<g id="edge56" class="edge">
<title>4&#45;&gt;33</title>
<path fill="none" stroke="grey" stroke-width="2" d="M748.29,-791.93C675.09,-751.89 489.53,-647.19 347.94,-540 310.06,-511.33 288.13,-511.46 268.94,-468 240.98,-404.69 325.11,-354.74 385.38,-328.14"/>
<polygon fill="grey" stroke="grey" stroke-width="2" points="387.03,-331.24 394.83,-324.08 384.26,-324.82 387.03,-331.24"/>
</g>
<!-- 36 -->
<g id="node37" class="node">
<title>36</title>
<path fill="none" stroke="#a7d856" stroke-width="2" d="M540.72,-396C540.72,-396 355.16,-396 355.16,-396 349.16,-396 343.16,-390 343.16,-384 343.16,-384 343.16,-372 343.16,-372 343.16,-366 349.16,-360 355.16,-360 355.16,-360 540.72,-360 540.72,-360 546.72,-360 552.72,-366 552.72,-372 552.72,-372 552.72,-384 552.72,-384 552.72,-390 546.72,-396 540.72,-396"/>
<text text-anchor="middle" x="447.94" y="-375" font-family="sans" font-size="10.00">create_mtypes_densities_from_probability_map</text>
</g>
<!-- 4&#45;&gt;36 -->
<g id="edge66" class="edge">
<title>4&#45;&gt;36</title>
<path fill="none" stroke="grey" stroke-width="2" d="M759.43,-791.9C748.73,-782.2 736.01,-769.34 726.94,-756 677.91,-683.9 691.88,-651.88 648.94,-576 610.19,-507.52 604.95,-484.05 545.94,-432 531.99,-419.7 514.7,-409.16 498.55,-400.8"/>
<polygon fill="grey" stroke="grey" stroke-width="2" points="499.71,-397.47 489.2,-396.13 496.58,-403.73 499.71,-397.47"/>
</g>
<!-- 39 -->
<g id="node40" class="node">
<title>39</title>
<path fill="none" stroke="#56d8a9" stroke-width="2" d="M694.58,-324C694.58,-324 621.3,-324 621.3,-324 615.3,-324 609.3,-318 609.3,-312 609.3,-312 609.3,-300 609.3,-300 609.3,-294 615.3,-288 621.3,-288 621.3,-288 694.58,-288 694.58,-288 700.58,-288 706.58,-294 706.58,-300 706.58,-300 706.58,-312 706.58,-312 706.58,-318 700.58,-324 694.58,-324"/>
<text text-anchor="middle" x="657.94" y="-303" font-family="sans" font-size="10.00">export_brain_region</text>
</g>
<!-- 4&#45;&gt;39 -->
<g id="edge68" class="edge">
<title>4&#45;&gt;39</title>
<path fill="none" stroke="grey" stroke-width="2" d="M776.09,-791.61C770.54,-764.94 760.94,-712.27 760.94,-667 760.94,-667 760.94,-667 760.94,-593 760.94,-560.61 827.29,-499.22 835.94,-468 840.21,-452.58 843.32,-446.2 835.94,-432 810.12,-382.31 754.49,-348.25 712.24,-328.38"/>
<polygon fill="grey" stroke="grey" stroke-width="2" points="713.46,-325.08 702.91,-324.11 710.55,-331.45 713.46,-325.08"/>
</g>
<!-- 5 -->
<g id="node6" class="node">
<title>5</title>
<path fill="none" stroke="#56d86b" stroke-width="2" d="M237.98,-1044C237.98,-1044 109.9,-1044 109.9,-1044 103.9,-1044 97.9,-1038 97.9,-1032 97.9,-1032 97.9,-1020 97.9,-1020 97.9,-1014 103.9,-1008 109.9,-1008 109.9,-1008 237.98,-1008 237.98,-1008 243.98,-1008 249.98,-1014 249.98,-1020 249.98,-1020 249.98,-1032 249.98,-1032 249.98,-1038 243.98,-1044 237.98,-1044"/>
<text text-anchor="middle" x="173.94" y="-1023" font-family="sans" font-size="10.00">fetch_ccf_brain_region_hierarchy</text>
</g>
<!-- 5&#45;&gt;4 -->
<g id="edge13" class="edge">
<title>5&#45;&gt;4</title>
<path fill="none" stroke="grey" stroke-width="2" d="M173.77,-1007.71C174.47,-988.25 178.35,-956.68 194.94,-936 240.97,-878.63 273.37,-884.72 343.94,-864 464.23,-828.69 609.85,-816.87 698.64,-812.94"/>
<polygon fill="grey" stroke="grey" stroke-width="2" points="698.81,-816.43 708.65,-812.52 698.51,-809.44 698.81,-816.43"/>
</g>
<!-- 9 -->
<g id="node10" class="node">
<title>9</title>
<path fill="none" stroke="#88d856" stroke-width="2" d="M542.98,-900C542.98,-900 364.9,-900 364.9,-900 358.9,-900 352.9,-894 352.9,-888 352.9,-888 352.9,-876 352.9,-876 352.9,-870 358.9,-864 364.9,-864 364.9,-864 542.98,-864 542.98,-864 548.98,-864 554.98,-870 554.98,-876 554.98,-876 554.98,-888 554.98,-888 554.98,-894 548.98,-900 542.98,-900"/>
<text text-anchor="middle" x="453.94" y="-879" font-family="sans" font-size="10.00">interpolate_direction_vectors_isocortex_ccfv2</text>
</g>
<!-- 5&#45;&gt;9 -->
<g id="edge19" class="edge">
<title>5&#45;&gt;9</title>
<path fill="none" stroke="grey" stroke-width="2" d="M180.3,-1007.73C188.71,-987.38 205.5,-954.05 230.94,-936 263.41,-912.95 304.56,-899.83 342.65,-892.39"/>
<polygon fill="grey" stroke="grey" stroke-width="2" points="343.58,-895.77 352.78,-890.52 342.32,-888.89 343.58,-895.77"/>
</g>
<!-- 10 -->
<g id="node11" class="node">
<title>10</title>
<path fill="none" stroke="#568ad8" stroke-width="2" d="M519.22,-972C519.22,-972 388.66,-972 388.66,-972 382.66,-972 376.66,-966 376.66,-960 376.66,-960 376.66,-948 376.66,-948 376.66,-942 382.66,-936 388.66,-936 388.66,-936 519.22,-936 519.22,-936 525.22,-936 531.22,-942 531.22,-948 531.22,-948 531.22,-960 531.22,-960 531.22,-966 525.22,-972 519.22,-972"/>
<text text-anchor="middle" x="453.94" y="-951" font-family="sans" font-size="10.00">direction_vectors_isocortex_ccfv2</text>
</g>
<!-- 5&#45;&gt;10 -->
<g id="edge23" class="edge">
<title>5&#45;&gt;10</title>
<path fill="none" stroke="grey" stroke-width="2" d="M242.08,-1007.97C282.39,-997.89 333.61,-985.08 375.59,-974.59"/>
<polygon fill="grey" stroke="grey" stroke-width="2" points="376.64,-977.93 385.5,-972.11 374.95,-971.14 376.64,-977.93"/>
</g>
<!-- 34 -->
<g id="node35" class="node">
<title>34</title>
<path fill="none" stroke="#56d8d8" stroke-width="2" d="M232.01,-396C232.01,-396 113.87,-396 113.87,-396 107.87,-396 101.87,-390 101.87,-384 101.87,-384 101.87,-372 101.87,-372 101.87,-366 107.87,-360 113.87,-360 113.87,-360 232.01,-360 232.01,-360 238.01,-360 244.01,-366 244.01,-372 244.01,-372 244.01,-384 244.01,-384 244.01,-390 238.01,-396 232.01,-396"/>
<text text-anchor="middle" x="172.94" y="-375" font-family="sans" font-size="10.00">split_isocortex_layer_23_ccfv3</text>
</g>
<!-- 5&#45;&gt;34 -->
<g id="edge59" class="edge">
<title>5&#45;&gt;34</title>
<path fill="none" stroke="grey" stroke-width="2" d="M123.73,-1007.96C72.96,-987.17 1.94,-946.7 1.94,-883 1.94,-883 1.94,-883 1.94,-521 1.94,-480.55 -5.82,-462.33 20.94,-432 39.13,-411.37 65.81,-398.77 91.75,-391.07"/>
<polygon fill="grey" stroke="grey" stroke-width="2" points="92.92,-394.38 101.64,-388.36 91.07,-387.63 92.92,-394.38"/>
</g>
<!-- 35 -->
<g id="node36" class="node">
<title>35</title>
<path fill="none" stroke="#d88556" stroke-width="2" d="M172.22,-468C172.22,-468 41.66,-468 41.66,-468 35.66,-468 29.66,-462 29.66,-456 29.66,-456 29.66,-444 29.66,-444 29.66,-438 35.66,-432 41.66,-432 41.66,-432 172.22,-432 172.22,-432 178.22,-432 184.22,-438 184.22,-444 184.22,-444 184.22,-456 184.22,-456 184.22,-462 178.22,-468 172.22,-468"/>
<text text-anchor="middle" x="106.94" y="-447" font-family="sans" font-size="10.00">direction_vectors_isocortex_ccfv3</text>
</g>
<!-- 5&#45;&gt;35 -->
<g id="edge63" class="edge">
<title>5&#45;&gt;35</title>
<path fill="none" stroke="grey" stroke-width="2" d="M161,-1007.66C143.1,-981.88 112.94,-931.3 112.94,-883 112.94,-883 112.94,-883 112.94,-593 112.94,-552.96 110.53,-506.63 108.76,-478.07"/>
<polygon fill="grey" stroke="grey" stroke-width="2" points="112.25,-477.8 108.12,-468.04 105.27,-478.24 112.25,-477.8"/>
</g>
<!-- 6 -->
<g id="node7" class="node">
<title>6</title>
<path fill="none" stroke="#5663d8" stroke-width="2" d="M642.98,-1044C642.98,-1044 550.9,-1044 550.9,-1044 544.9,-1044 538.9,-1038 538.9,-1032 538.9,-1032 538.9,-1020 538.9,-1020 538.9,-1014 544.9,-1008 550.9,-1008 550.9,-1008 642.98,-1008 642.98,-1008 648.98,-1008 654.98,-1014 654.98,-1020 654.98,-1020 654.98,-1032 654.98,-1032 654.98,-1038 648.98,-1044 642.98,-1044"/>
<text text-anchor="middle" x="596.94" y="-1023" font-family="sans" font-size="10.00">combine_v2_annotations</text>
</g>
<!-- 6&#45;&gt;3 -->
<g id="edge10" class="edge">
<title>6&#45;&gt;3</title>
<path fill="none" stroke="grey" stroke-width="2" d="M596.94,-1007.95C596.94,-981.29 596.94,-928.11 596.94,-883 596.94,-883 596.94,-883 596.94,-665 596.94,-586.02 662.88,-511.78 701.55,-475.03"/>
<polygon fill="grey" stroke="grey" stroke-width="2" points="703.96,-477.57 708.89,-468.2 699.19,-472.45 703.96,-477.57"/>
</g>
<!-- 6&#45;&gt;4 -->
<g id="edge14" class="edge">
<title>6&#45;&gt;4</title>
<path fill="none" stroke="grey" stroke-width="2" d="M611.61,-1007.85C643.86,-970.13 721.08,-879.83 758.67,-835.88"/>
<polygon fill="grey" stroke="grey" stroke-width="2" points="761.36,-838.11 765.2,-828.23 756.04,-833.56 761.36,-838.11"/>
</g>
<!-- 6&#45;&gt;9 -->
<g id="edge18" class="edge">
<title>6&#45;&gt;9</title>
<path fill="none" stroke="grey" stroke-width="2" d="M588.99,-1008C579.39,-988.81 561.79,-957.48 539.94,-936 527.82,-924.09 512.55,-913.6 498.26,-905.17"/>
<polygon fill="grey" stroke="grey" stroke-width="2" points="499.95,-902.1 489.52,-900.19 496.48,-908.18 499.95,-902.1"/>
</g>
<!-- 6&#45;&gt;10 -->
<g id="edge22" class="edge">
<title>6&#45;&gt;10</title>
<path fill="none" stroke="grey" stroke-width="2" d="M561.96,-1007.88C542.74,-998.47 518.71,-986.71 498.2,-976.67"/>
<polygon fill="grey" stroke="grey" stroke-width="2" points="499.58,-973.44 489.06,-972.19 496.5,-979.73 499.58,-973.44"/>
</g>
<!-- 6&#45;&gt;23 -->
<g id="edge37" class="edge">
<title>6&#45;&gt;23</title>
<path fill="none" stroke="grey" stroke-width="2" d="M655.37,-1022.86C940.59,-1012.03 2172.94,-960.74 2172.94,-883 2172.94,-883 2172.94,-883 2172.94,-521 2172.94,-420.16 1471.01,-390.25 1161.08,-381.96"/>
<polygon fill="grey" stroke="grey" stroke-width="2" points="1160.76,-378.45 1150.68,-381.69 1160.58,-385.45 1160.76,-378.45"/>
</g>
<!-- 7 -->
<g id="node8" class="node">
<title>7</title>
<path fill="none" stroke="#97d856" stroke-width="2" d="M576.38,-1116C576.38,-1116 459.5,-1116 459.5,-1116 453.5,-1116 447.5,-1110 447.5,-1104 447.5,-1104 447.5,-1092 447.5,-1092 447.5,-1086 453.5,-1080 459.5,-1080 459.5,-1080 576.38,-1080 576.38,-1080 582.38,-1080 588.38,-1086 588.38,-1092 588.38,-1092 588.38,-1104 588.38,-1104 588.38,-1110 582.38,-1116 576.38,-1116"/>
<text text-anchor="middle" x="517.94" y="-1095" font-family="sans" font-size="10.00">fetch_brain_parcellation_ccfv2</text>
</g>
<!-- 7&#45;&gt;6 -->
<g id="edge16" class="edge">
<title>7&#45;&gt;6</title>
<path fill="none" stroke="grey" stroke-width="2" d="M537.47,-1079.7C547.32,-1070.97 559.42,-1060.24 570.13,-1050.75"/>
<polygon fill="grey" stroke="grey" stroke-width="2" points="572.47,-1053.36 577.64,-1044.1 567.83,-1048.12 572.47,-1053.36"/>
</g>
<!-- 8 -->
<g id="node9" class="node">
<title>8</title>
<path fill="none" stroke="#80d856" stroke-width="2" d="M733.71,-1116C733.71,-1116 618.17,-1116 618.17,-1116 612.17,-1116 606.17,-1110 606.17,-1104 606.17,-1104 606.17,-1092 606.17,-1092 606.17,-1086 612.17,-1080 618.17,-1080 618.17,-1080 733.71,-1080 733.71,-1080 739.71,-1080 745.71,-1086 745.71,-1092 745.71,-1092 745.71,-1104 745.71,-1104 745.71,-1110 739.71,-1116 733.71,-1116"/>
<text text-anchor="middle" x="675.94" y="-1095" font-family="sans" font-size="10.00">fetch_fiber_parcellation_ccfv2</text>
</g>
<!-- 8&#45;&gt;6 -->
<g id="edge17" class="edge">
<title>8&#45;&gt;6</title>
<path fill="none" stroke="grey" stroke-width="2" d="M656.41,-1079.7C646.56,-1070.97 634.45,-1060.24 623.74,-1050.75"/>
<polygon fill="grey" stroke="grey" stroke-width="2" points="626.05,-1048.12 616.24,-1044.1 621.41,-1053.36 626.05,-1048.12"/>
</g>
<!-- 9&#45;&gt;4 -->
<g id="edge15" class="edge">
<title>9&#45;&gt;4</title>
<path fill="none" stroke="grey" stroke-width="2" d="M533.27,-863.97C583.54,-853.17 648.37,-839.25 698.96,-828.39"/>
<polygon fill="grey" stroke="grey" stroke-width="2" points="699.83,-831.78 708.87,-826.26 698.36,-824.94 699.83,-831.78"/>
</g>
<!-- 10&#45;&gt;9 -->
<g id="edge20" class="edge">
<title>10&#45;&gt;9</title>
<path fill="none" stroke="grey" stroke-width="2" d="M453.94,-935.7C453.94,-927.98 453.94,-918.71 453.94,-910.11"/>
<polygon fill="grey" stroke="grey" stroke-width="2" points="457.44,-910.1 453.94,-900.1 450.44,-910.1 457.44,-910.1"/>
</g>
<!-- 11 -->
<g id="node12" class="node">
<title>11</title>
<path fill="none" stroke="#d85656" stroke-width="2" d="M346.17,-972C346.17,-972 251.71,-972 251.71,-972 245.71,-972 239.71,-966 239.71,-960 239.71,-960 239.71,-948 239.71,-948 239.71,-942 245.71,-936 251.71,-936 251.71,-936 346.17,-936 346.17,-936 352.17,-936 358.17,-942 358.17,-948 358.17,-948 358.17,-960 358.17,-960 358.17,-966 352.17,-972 346.17,-972"/>
<text text-anchor="middle" x="298.94" y="-951" font-family="sans" font-size="10.00">fetch_isocortex_metadata</text>
</g>
<!-- 11&#45;&gt;9 -->
<g id="edge21" class="edge">
<title>11&#45;&gt;9</title>
<path fill="none" stroke="grey" stroke-width="2" d="M336.86,-935.88C357.95,-926.35 384.4,-914.41 406.81,-904.28"/>
<polygon fill="grey" stroke="grey" stroke-width="2" points="408.47,-907.37 416.14,-900.07 405.59,-900.99 408.47,-907.37"/>
</g>
<!-- 12 -->
<g id="node13" class="node">
<title>12</title>
<path fill="none" stroke="#d87556" stroke-width="2" d="M485.38,-540C485.38,-540 368.5,-540 368.5,-540 362.5,-540 356.5,-534 356.5,-528 356.5,-528 356.5,-516 356.5,-516 356.5,-510 362.5,-504 368.5,-504 368.5,-504 485.38,-504 485.38,-504 491.38,-504 497.38,-510 497.38,-516 497.38,-516 497.38,-528 497.38,-528 497.38,-534 491.38,-540 485.38,-540"/>
<text text-anchor="middle" x="426.94" y="-519" font-family="sans" font-size="10.00">fetch_brain_parcellation_ccfv3</text>
</g>
<!-- 12&#45;&gt;3 -->
<g id="edge11" class="edge">
<title>12&#45;&gt;3</title>
<path fill="none" stroke="grey" stroke-width="2" d="M497.74,-504.59C541.92,-494.35 599,-481.12 645.39,-470.36"/>
<polygon fill="grey" stroke="grey" stroke-width="2" points="646.47,-473.71 655.42,-468.04 644.89,-466.89 646.47,-473.71"/>
</g>
<!-- 12&#45;&gt;23 -->
<g id="edge38" class="edge">
<title>12&#45;&gt;23</title>
<path fill="none" stroke="grey" stroke-width="2" d="M465.9,-503.92C489.19,-493.65 519.33,-480.23 545.94,-468 579.9,-452.4 586.1,-442.61 621.94,-432 703.21,-407.94 797.15,-394.77 873.02,-387.57"/>
<polygon fill="grey" stroke="grey" stroke-width="2" points="873.49,-391.05 883.13,-386.64 872.85,-384.08 873.49,-391.05"/>
</g>
<!-- 12&#45;&gt;34 -->
<g id="edge60" class="edge">
<title>12&#45;&gt;34</title>
<path fill="none" stroke="grey" stroke-width="2" d="M356.12,-504.21C327.83,-495.76 295.69,-483.87 268.94,-468 239.78,-450.69 212,-423.33 193.9,-403.51"/>
<polygon fill="grey" stroke="grey" stroke-width="2" points="196.5,-401.17 187.22,-396.06 191.29,-405.84 196.5,-401.17"/>
</g>
<!-- 12&#45;&gt;35 -->
<g id="edge62" class="edge">
<title>12&#45;&gt;35</title>
<path fill="none" stroke="grey" stroke-width="2" d="M356.32,-505.55C308.52,-495.1 245.06,-481.21 194.11,-470.07"/>
<polygon fill="grey" stroke="grey" stroke-width="2" points="194.62,-466.6 184.1,-467.88 193.12,-473.43 194.62,-466.6"/>
</g>
<!-- 13&#45;&gt;3 -->
<g id="edge12" class="edge">
<title>13&#45;&gt;3</title>
<path fill="none" stroke="grey" stroke-width="2" d="M1846.66,-647.64C1837.15,-627.21 1818.54,-593.81 1791.94,-576 1628.21,-466.41 1108.35,-483.5 911.94,-468 887.62,-466.08 861.5,-463.79 836.82,-461.52"/>
<polygon fill="grey" stroke="grey" stroke-width="2" points="837,-458.02 826.72,-460.59 836.35,-464.99 837,-458.02"/>
</g>
<!-- 13&#45;&gt;24 -->
<g id="edge41" class="edge">
<title>13&#45;&gt;24</title>
<path fill="none" stroke="grey" stroke-width="2" d="M1857.49,-647.78C1863.25,-614.45 1870.26,-541.15 1829.94,-504 1781.4,-459.28 1364.76,-451.75 1153.59,-450.84"/>
<polygon fill="grey" stroke="grey" stroke-width="2" points="1153.39,-447.34 1143.38,-450.8 1153.37,-454.34 1153.39,-447.34"/>
</g>
<!-- 13&#45;&gt;25 -->
<g id="edge45" class="edge">
<title>13&#45;&gt;25</title>
<path fill="none" stroke="grey" stroke-width="2" d="M1836.63,-647.69C1811.84,-623.07 1768.17,-580.4 1758.94,-576 1708.84,-552.1 1563.6,-536.96 1467.08,-529.23"/>
<polygon fill="grey" stroke="grey" stroke-width="2" points="1467.26,-525.74 1457.02,-528.44 1466.71,-532.72 1467.26,-525.74"/>
</g>
<!-- 13&#45;&gt;31 -->
<g id="edge54" class="edge">
<title>13&#45;&gt;31</title>
<path fill="none" stroke="grey" stroke-width="2" d="M1810.4,-647.88C1785.74,-638.18 1754.72,-625.98 1728.68,-615.74"/>
<polygon fill="grey" stroke="grey" stroke-width="2" points="1729.93,-612.47 1719.34,-612.07 1727.37,-618.99 1729.93,-612.47"/>
</g>
<!-- 14&#45;&gt;13 -->
<g id="edge25" class="edge">
<title>14&#45;&gt;13</title>
<path fill="none" stroke="grey" stroke-width="2" d="M1753.47,-719.88C1771.19,-710.55 1793.29,-698.92 1812.25,-688.94"/>
<polygon fill="grey" stroke="grey" stroke-width="2" points="1814.06,-691.94 1821.28,-684.19 1810.8,-685.75 1814.06,-691.94"/>
</g>
<!-- 14&#45;&gt;31 -->
<g id="edge53" class="edge">
<title>14&#45;&gt;31</title>
<path fill="none" stroke="grey" stroke-width="2" d="M1726.38,-719.91C1731.3,-701.46 1736.43,-671.56 1726.94,-648 1722.59,-637.21 1714.88,-627.39 1706.75,-619.21"/>
<polygon fill="grey" stroke="grey" stroke-width="2" points="1708.93,-616.46 1699.24,-612.18 1704.15,-621.57 1708.93,-616.46"/>
</g>
<!-- 15 -->
<g id="node16" class="node">
<title>15</title>
<path fill="none" stroke="#d86656" stroke-width="2" d="M1492.78,-828C1492.78,-828 1347.1,-828 1347.1,-828 1341.1,-828 1335.1,-822 1335.1,-816 1335.1,-816 1335.1,-804 1335.1,-804 1335.1,-798 1341.1,-792 1347.1,-792 1347.1,-792 1492.78,-792 1492.78,-792 1498.78,-792 1504.78,-798 1504.78,-804 1504.78,-804 1504.78,-816 1504.78,-816 1504.78,-822 1498.78,-828 1492.78,-828"/>
<text text-anchor="middle" x="1419.94" y="-807" font-family="sans" font-size="10.00">fetch_corrected_nissl_stained_volume</text>
</g>
<!-- 15&#45;&gt;14 -->
<g id="edge28" class="edge">
<title>15&#45;&gt;14</title>
<path fill="none" stroke="grey" stroke-width="2" d="M1493.19,-791.97C1540.46,-780.97 1601.69,-766.73 1648.76,-755.79"/>
<polygon fill="grey" stroke="grey" stroke-width="2" points="1649.63,-759.18 1658.58,-753.5 1648.04,-752.36 1649.63,-759.18"/>
</g>
<!-- 16&#45;&gt;13 -->
<g id="edge26" class="edge">
<title>16&#45;&gt;13</title>
<path fill="none" stroke="grey" stroke-width="2" d="M1875.77,-719.7C1872.5,-711.81 1868.56,-702.3 1864.94,-693.55"/>
<polygon fill="grey" stroke="grey" stroke-width="2" points="1868.09,-692 1861.02,-684.1 1861.62,-694.68 1868.09,-692"/>
</g>
<!-- 17 -->
<g id="node18" class="node">
<title>17</title>
<path fill="none" stroke="#d85e56" stroke-width="2" d="M2035.3,-828C2035.3,-828 1964.58,-828 1964.58,-828 1958.58,-828 1952.58,-822 1952.58,-816 1952.58,-816 1952.58,-804 1952.58,-804 1952.58,-798 1958.58,-792 1964.58,-792 1964.58,-792 2035.3,-792 2035.3,-792 2041.3,-792 2047.3,-798 2047.3,-804 2047.3,-804 2047.3,-816 2047.3,-816 2047.3,-822 2041.3,-828 2035.3,-828"/>
<text text-anchor="middle" x="1999.94" y="-807" font-family="sans" font-size="10.00">fetch_gene_aldh1l1</text>
</g>
<!-- 17&#45;&gt;16 -->
<g id="edge29" class="edge">
<title>17&#45;&gt;16</title>
<path fill="none" stroke="grey" stroke-width="2" d="M1971.32,-791.88C1956.02,-782.72 1937,-771.34 1920.52,-761.48"/>
<polygon fill="grey" stroke="grey" stroke-width="2" points="1922.05,-758.32 1911.67,-756.19 1918.45,-764.33 1922.05,-758.32"/>
</g>
<!-- 18 -->
<g id="node19" class="node">
<title>18</title>
<path fill="none" stroke="#56d0d8" stroke-width="2" d="M2132.74,-828C2132.74,-828 2077.14,-828 2077.14,-828 2071.14,-828 2065.14,-822 2065.14,-816 2065.14,-816 2065.14,-804 2065.14,-804 2065.14,-798 2071.14,-792 2077.14,-792 2077.14,-792 2132.74,-792 2132.74,-792 2138.74,-792 2144.74,-798 2144.74,-804 2144.74,-804 2144.74,-816 2144.74,-816 2144.74,-822 2138.74,-828 2132.74,-828"/>
<text text-anchor="middle" x="2104.94" y="-807" font-family="sans" font-size="10.00">fetch_gene_cnp</text>
</g>
<!-- 18&#45;&gt;16 -->
<g id="edge30" class="edge">
<title>18&#45;&gt;16</title>
<path fill="none" stroke="grey" stroke-width="2" d="M2065.13,-795.05C2062.03,-794.01 2058.93,-792.98 2055.94,-792 2016.12,-779 1970.85,-765.16 1936.61,-754.89"/>
<polygon fill="grey" stroke="grey" stroke-width="2" points="1937.39,-751.47 1926.81,-751.95 1935.38,-758.18 1937.39,-751.47"/>
</g>
<!-- 19 -->
<g id="node20" class="node">
<title>19</title>
<path fill="none" stroke="#d8c356" stroke-width="2" d="M1593.08,-828C1593.08,-828 1534.8,-828 1534.8,-828 1528.8,-828 1522.8,-822 1522.8,-816 1522.8,-816 1522.8,-804 1522.8,-804 1522.8,-798 1528.8,-792 1534.8,-792 1534.8,-792 1593.08,-792 1593.08,-792 1599.08,-792 1605.08,-798 1605.08,-804 1605.08,-804 1605.08,-816 1605.08,-816 1605.08,-822 1599.08,-828 1593.08,-828"/>
<text text-anchor="middle" x="1563.94" y="-807" font-family="sans" font-size="10.00">fetch_gene_mbp</text>
</g>
<!-- 19&#45;&gt;16 -->
<g id="edge31" class="edge">
<title>19&#45;&gt;16</title>
<path fill="none" stroke="grey" stroke-width="2" d="M1605.26,-794.64C1608.52,-793.69 1611.77,-792.79 1614.94,-792 1706.79,-768.96 1732.68,-777.35 1824.94,-756 1826.38,-755.67 1827.83,-755.32 1829.3,-754.96"/>
<polygon fill="grey" stroke="grey" stroke-width="2" points="1830.25,-758.33 1839.06,-752.44 1828.5,-751.55 1830.25,-758.33"/>
</g>
<!-- 20 -->
<g id="node21" class="node">
<title>20</title>
<path fill="none" stroke="#56d85b" stroke-width="2" d="M1694.07,-828C1694.07,-828 1635.81,-828 1635.81,-828 1629.81,-828 1623.81,-822 1623.81,-816 1623.81,-816 1623.81,-804 1623.81,-804 1623.81,-798 1629.81,-792 1635.81,-792 1635.81,-792 1694.07,-792 1694.07,-792 1700.07,-792 1706.07,-798 1706.07,-804 1706.07,-804 1706.07,-816 1706.07,-816 1706.07,-822 1700.07,-828 1694.07,-828"/>
<text text-anchor="middle" x="1664.94" y="-807" font-family="sans" font-size="10.00">fetch_gene_gfap</text>
</g>
<!-- 20&#45;&gt;16 -->
<g id="edge32" class="edge">
<title>20&#45;&gt;16</title>
<path fill="none" stroke="grey" stroke-width="2" d="M1706.12,-795.22C1709.44,-794.12 1712.74,-793.04 1715.94,-792 1753.82,-779.68 1796.64,-766.09 1829.44,-755.76"/>
<polygon fill="grey" stroke="grey" stroke-width="2" points="1830.79,-759.01 1839.28,-752.67 1828.69,-752.33 1830.79,-759.01"/>
</g>
<!-- 21 -->
<g id="node22" class="node">
<title>21</title>
<path fill="none" stroke="#bed856" stroke-width="2" d="M1801.19,-828C1801.19,-828 1736.69,-828 1736.69,-828 1730.69,-828 1724.69,-822 1724.69,-816 1724.69,-816 1724.69,-804 1724.69,-804 1724.69,-798 1730.69,-792 1736.69,-792 1736.69,-792 1801.19,-792 1801.19,-792 1807.19,-792 1813.19,-798 1813.19,-804 1813.19,-804 1813.19,-816 1813.19,-816 1813.19,-822 1807.19,-828 1801.19,-828"/>
<text text-anchor="middle" x="1768.94" y="-807" font-family="sans" font-size="10.00">fetch_gene_s100b</text>
</g>
<!-- 21&#45;&gt;16 -->
<g id="edge33" class="edge">
<title>21&#45;&gt;16</title>
<path fill="none" stroke="grey" stroke-width="2" d="M1796.83,-791.88C1811.73,-782.72 1830.27,-771.34 1846.32,-761.48"/>
<polygon fill="grey" stroke="grey" stroke-width="2" points="1848.25,-764.41 1854.94,-756.19 1844.59,-758.44 1848.25,-764.41"/>
</g>
<!-- 22 -->
<g id="node23" class="node">
<title>22</title>
<path fill="none" stroke="#78d856" stroke-width="2" d="M1922.08,-828C1922.08,-828 1843.8,-828 1843.8,-828 1837.8,-828 1831.8,-822 1831.8,-816 1831.8,-816 1831.8,-804 1831.8,-804 1831.8,-798 1837.8,-792 1843.8,-792 1843.8,-792 1922.08,-792 1922.08,-792 1928.08,-792 1934.08,-798 1934.08,-804 1934.08,-804 1934.08,-816 1934.08,-816 1934.08,-822 1928.08,-828 1922.08,-828"/>
<text text-anchor="middle" x="1882.94" y="-807" font-family="sans" font-size="10.00">fetch_gene_tmem119</text>
</g>
<!-- 22&#45;&gt;16 -->
<g id="edge34" class="edge">
<title>22&#45;&gt;16</title>
<path fill="none" stroke="grey" stroke-width="2" d="M1882.94,-791.7C1882.94,-783.98 1882.94,-774.71 1882.94,-766.11"/>
<polygon fill="grey" stroke="grey" stroke-width="2" points="1886.44,-766.1 1882.94,-756.1 1879.44,-766.1 1886.44,-766.1"/>
</g>
<!-- 23&#45;&gt;2 -->
<g id="edge5" class="edge">
<title>23&#45;&gt;2</title>
<path fill="none" stroke="grey" stroke-width="2" d="M964.01,-359.93C904.17,-340.97 803.65,-310.12 715.94,-288 665.77,-275.35 609.47,-263.34 562.74,-253.97"/>
<polygon fill="grey" stroke="grey" stroke-width="2" points="563.41,-250.53 552.92,-252.01 562.04,-257.4 563.41,-250.53"/>
</g>
<!-- 24&#45;&gt;23 -->
<g id="edge39" class="edge">
<title>24&#45;&gt;23</title>
<path fill="none" stroke="grey" stroke-width="2" d="M1028.23,-431.7C1026.58,-423.98 1024.59,-414.71 1022.75,-406.11"/>
<polygon fill="grey" stroke="grey" stroke-width="2" points="1026.12,-405.15 1020.6,-396.1 1019.28,-406.62 1026.12,-405.15"/>
</g>
<!-- 24&#45;&gt;36 -->
<g id="edge65" class="edge">
<title>24&#45;&gt;36</title>
<path fill="none" stroke="grey" stroke-width="2" d="M920.72,-435.67C818.23,-423.38 666.76,-405.23 563.05,-392.8"/>
<polygon fill="grey" stroke="grey" stroke-width="2" points="563.2,-389.29 552.85,-391.58 562.36,-396.24 563.2,-389.29"/>
</g>
<!-- 25&#45;&gt;24 -->
<g id="edge42" class="edge">
<title>25&#45;&gt;24</title>
<path fill="none" stroke="grey" stroke-width="2" d="M1294.85,-504.5C1244.19,-494.19 1178.75,-480.88 1125.84,-470.11"/>
<polygon fill="grey" stroke="grey" stroke-width="2" points="1126.27,-466.62 1115.77,-468.06 1124.87,-473.48 1126.27,-466.62"/>
</g>
<!-- 26 -->
<g id="node27" class="node">
<title>26</title>
<path fill="none" stroke="#56b1d8" stroke-width="2" d="M1330.22,-612C1330.22,-612 1229.66,-612 1229.66,-612 1223.66,-612 1217.66,-606 1217.66,-600 1217.66,-600 1217.66,-588 1217.66,-588 1217.66,-582 1223.66,-576 1229.66,-576 1229.66,-576 1330.22,-576 1330.22,-576 1336.22,-576 1342.22,-582 1342.22,-588 1342.22,-588 1342.22,-600 1342.22,-600 1342.22,-606 1336.22,-612 1330.22,-612"/>
<text text-anchor="middle" x="1279.94" y="-591" font-family="sans" font-size="10.00">fetch_genes_correctednissl</text>
</g>
<!-- 26&#45;&gt;25 -->
<g id="edge43" class="edge">
<title>26&#45;&gt;25</title>
<path fill="none" stroke="grey" stroke-width="2" d="M1303.67,-575.7C1315.88,-566.8 1330.92,-555.82 1344.12,-546.2"/>
<polygon fill="grey" stroke="grey" stroke-width="2" points="1346.46,-548.82 1352.48,-540.1 1342.34,-543.17 1346.46,-548.82"/>
</g>
<!-- 27 -->
<g id="node28" class="node">
<title>27</title>
<path fill="none" stroke="#d8ac56" stroke-width="2" d="M1026.83,-684C1026.83,-684 915.05,-684 915.05,-684 909.05,-684 903.05,-678 903.05,-672 903.05,-672 903.05,-660 903.05,-660 903.05,-654 909.05,-648 915.05,-648 915.05,-648 1026.83,-648 1026.83,-648 1032.83,-648 1038.83,-654 1038.83,-660 1038.83,-660 1038.83,-672 1038.83,-672 1038.83,-678 1032.83,-684 1026.83,-684"/>
<text text-anchor="middle" x="970.94" y="-663" font-family="sans" font-size="10.00">fetch_gene_pv_correctednissl</text>
</g>
<!-- 27&#45;&gt;26 -->
<g id="edge48" class="edge">
<title>27&#45;&gt;26</title>
<path fill="none" stroke="grey" stroke-width="2" d="M1038.75,-649.64C1088.72,-638.32 1156.57,-622.95 1207.57,-611.39"/>
<polygon fill="grey" stroke="grey" stroke-width="2" points="1208.56,-614.76 1217.54,-609.14 1207.02,-607.93 1208.56,-614.76"/>
</g>
<!-- 28 -->
<g id="node29" class="node">
<title>28</title>
<path fill="none" stroke="#56d873" stroke-width="2" d="M1180.89,-684C1180.89,-684 1068.99,-684 1068.99,-684 1062.99,-684 1056.99,-678 1056.99,-672 1056.99,-672 1056.99,-660 1056.99,-660 1056.99,-654 1062.99,-648 1068.99,-648 1068.99,-648 1180.89,-648 1180.89,-648 1186.89,-648 1192.89,-654 1192.89,-660 1192.89,-660 1192.89,-672 1192.89,-672 1192.89,-678 1186.89,-684 1180.89,-684"/>
<text text-anchor="middle" x="1124.94" y="-663" font-family="sans" font-size="10.00">fetch_gene_sst_correctednissl</text>
</g>
<!-- 28&#45;&gt;26 -->
<g id="edge49" class="edge">
<title>28&#45;&gt;26</title>
<path fill="none" stroke="grey" stroke-width="2" d="M1162.86,-647.88C1183.95,-638.35 1210.4,-626.41 1232.81,-616.28"/>
<polygon fill="grey" stroke="grey" stroke-width="2" points="1234.47,-619.37 1242.14,-612.07 1231.59,-612.99 1234.47,-619.37"/>
</g>
<!-- 29 -->
<g id="node30" class="node">
<title>29</title>
<path fill="none" stroke="#d88d56" stroke-width="2" d="M1337.11,-684C1337.11,-684 1222.77,-684 1222.77,-684 1216.77,-684 1210.77,-678 1210.77,-672 1210.77,-672 1210.77,-660 1210.77,-660 1210.77,-654 1216.77,-648 1222.77,-648 1222.77,-648 1337.11,-648 1337.11,-648 1343.11,-648 1349.11,-654 1349.11,-660 1349.11,-660 1349.11,-672 1349.11,-672 1349.11,-678 1343.11,-684 1337.11,-684"/>
<text text-anchor="middle" x="1279.94" y="-663" font-family="sans" font-size="10.00">fetch_gene_vip_correctednissl</text>
</g>
<!-- 29&#45;&gt;26 -->
<g id="edge50" class="edge">
<title>29&#45;&gt;26</title>
<path fill="none" stroke="grey" stroke-width="2" d="M1279.94,-647.7C1279.94,-639.98 1279.94,-630.71 1279.94,-622.11"/>
<polygon fill="grey" stroke="grey" stroke-width="2" points="1283.44,-622.1 1279.94,-612.1 1276.44,-622.1 1283.44,-622.1"/>
</g>
<!-- 30 -->
<g id="node31" class="node">
<title>30</title>
<path fill="none" stroke="#8fd856" stroke-width="2" d="M1504.77,-684C1504.77,-684 1379.11,-684 1379.11,-684 1373.11,-684 1367.11,-678 1367.11,-672 1367.11,-672 1367.11,-660 1367.11,-660 1367.11,-654 1373.11,-648 1379.11,-648 1379.11,-648 1504.77,-648 1504.77,-648 1510.77,-648 1516.77,-654 1516.77,-660 1516.77,-660 1516.77,-672 1516.77,-672 1516.77,-678 1510.77,-684 1504.77,-684"/>
<text text-anchor="middle" x="1441.94" y="-663" font-family="sans" font-size="10.00">fetch_gene_gad67_correctednissl</text>
</g>
<!-- 30&#45;&gt;26 -->
<g id="edge51" class="edge">
<title>30&#45;&gt;26</title>
<path fill="none" stroke="grey" stroke-width="2" d="M1402.31,-647.88C1380.16,-638.31 1352.38,-626.3 1328.88,-616.15"/>
<polygon fill="grey" stroke="grey" stroke-width="2" points="1330.01,-612.82 1319.44,-612.07 1327.23,-619.25 1330.01,-612.82"/>
</g>
<!-- 31&#45;&gt;25 -->
<g id="edge46" class="edge">
<title>31&#45;&gt;25</title>
<path fill="none" stroke="grey" stroke-width="2" d="M1602.93,-575.97C1559.39,-565.8 1503.96,-552.87 1458.78,-542.33"/>
<polygon fill="grey" stroke="grey" stroke-width="2" points="1459.54,-538.91 1449.01,-540.05 1457.95,-545.73 1459.54,-538.91"/>
</g>
<!-- 32 -->
<g id="node33" class="node">
<title>32</title>
<path fill="none" stroke="#56d8b9" stroke-width="2" d="M1673.35,-684C1673.35,-684 1546.53,-684 1546.53,-684 1540.53,-684 1534.53,-678 1534.53,-672 1534.53,-672 1534.53,-660 1534.53,-660 1534.53,-654 1540.53,-648 1546.53,-648 1546.53,-648 1673.35,-648 1673.35,-648 1679.35,-648 1685.35,-654 1685.35,-660 1685.35,-660 1685.35,-672 1685.35,-672 1685.35,-678 1679.35,-684 1673.35,-684"/>
<text text-anchor="middle" x="1609.94" y="-663" font-family="sans" font-size="10.00">compile_densities_measurements</text>
</g>
<!-- 32&#45;&gt;25 -->
<g id="edge47" class="edge">
<title>32&#45;&gt;25</title>
<path fill="none" stroke="grey" stroke-width="2" d="M1581.71,-647.87C1539.46,-622.23 1459.74,-573.85 1412.89,-545.43"/>
<polygon fill="grey" stroke="grey" stroke-width="2" points="1414.63,-542.39 1404.26,-540.19 1411,-548.37 1414.63,-542.39"/>
</g>
<!-- 32&#45;&gt;31 -->
<g id="edge55" class="edge">
<title>32&#45;&gt;31</title>
<path fill="none" stroke="grey" stroke-width="2" d="M1626.25,-647.7C1634.25,-639.22 1644.01,-628.86 1652.76,-619.58"/>
<polygon fill="grey" stroke="grey" stroke-width="2" points="1655.5,-621.78 1659.81,-612.1 1650.41,-616.98 1655.5,-621.78"/>
</g>
<!-- 33&#45;&gt;2 -->
<g id="edge6" class="edge">
<title>33&#45;&gt;2</title>
<path fill="none" stroke="grey" stroke-width="2" d="M446.38,-287.7C448.83,-279.9 451.78,-270.51 454.51,-261.83"/>
<polygon fill="grey" stroke="grey" stroke-width="2" points="457.9,-262.69 457.56,-252.1 451.23,-260.59 457.9,-262.69"/>
</g>
<!-- 34&#45;&gt;2 -->
<g id="edge7" class="edge">
<title>34&#45;&gt;2</title>
<path fill="none" stroke="grey" stroke-width="2" d="M211.64,-359.85C231.73,-350.31 256.32,-337.63 276.94,-324 297.73,-310.25 298.38,-300.51 319.94,-288 342.78,-274.74 369.54,-263.77 393.68,-255.31"/>
<polygon fill="grey" stroke="grey" stroke-width="2" points="394.82,-258.62 403.15,-252.08 392.55,-252 394.82,-258.62"/>
</g>
<!-- 34&#45;&gt;33 -->
<g id="edge57" class="edge">
<title>34&#45;&gt;33</title>
<path fill="none" stroke="grey" stroke-width="2" d="M238.16,-359.97C276.66,-349.91 325.56,-337.14 365.69,-326.65"/>
<polygon fill="grey" stroke="grey" stroke-width="2" points="366.64,-330.02 375.43,-324.11 364.87,-323.25 366.64,-330.02"/>
</g>
<!-- 34&#45;&gt;39 -->
<g id="edge69" class="edge">
<title>34&#45;&gt;39</title>
<path fill="none" stroke="grey" stroke-width="2" d="M244.05,-368.18C322.13,-358.28 451.17,-341.35 561.94,-324 573.96,-322.12 586.8,-319.95 599.04,-317.81"/>
<polygon fill="grey" stroke="grey" stroke-width="2" points="599.92,-321.21 609.16,-316.03 598.71,-314.32 599.92,-321.21"/>
</g>
<!-- 34&#45;&gt;40 -->
<g id="edge71" class="edge">
<title>34&#45;&gt;40</title>
<path fill="none" stroke="grey" stroke-width="2" d="M179.88,-359.83C193.43,-325.88 223.85,-247.61 243.94,-180 250,-159.58 255.48,-136.12 259.32,-118.42"/>
<polygon fill="grey" stroke="grey" stroke-width="2" points="262.83,-118.72 261.49,-108.21 255.98,-117.27 262.83,-118.72"/>
</g>
<!-- 35&#45;&gt;34 -->
<g id="edge61" class="edge">
<title>35&#45;&gt;34</title>
<path fill="none" stroke="grey" stroke-width="2" d="M123.25,-431.7C131.25,-423.22 141.01,-412.86 149.76,-403.58"/>
<polygon fill="grey" stroke="grey" stroke-width="2" points="152.5,-405.78 156.81,-396.1 147.41,-400.98 152.5,-405.78"/>
</g>
<!-- 36&#45;&gt;33 -->
<g id="edge58" class="edge">
<title>36&#45;&gt;33</title>
<path fill="none" stroke="grey" stroke-width="2" d="M446.21,-359.7C445.44,-351.98 444.51,-342.71 443.65,-334.11"/>
<polygon fill="grey" stroke="grey" stroke-width="2" points="447.13,-333.71 442.65,-324.1 440.16,-334.4 447.13,-333.71"/>
</g>
<!-- 37 -->
<g id="node38" class="node">
<title>37</title>
<path fill="none" stroke="#b6d856" stroke-width="2" d="M373.53,-468C373.53,-468 290.35,-468 290.35,-468 284.35,-468 278.35,-462 278.35,-456 278.35,-456 278.35,-444 278.35,-444 278.35,-438 284.35,-432 290.35,-432 290.35,-432 373.53,-432 373.53,-432 379.53,-432 385.53,-438 385.53,-444 385.53,-444 385.53,-456 385.53,-456 385.53,-462 379.53,-468 373.53,-468"/>
<text text-anchor="middle" x="331.94" y="-447" font-family="sans" font-size="10.00">fetch_probability_map</text>
</g>
<!-- 37&#45;&gt;36 -->
<g id="edge64" class="edge">
<title>37&#45;&gt;36</title>
<path fill="none" stroke="grey" stroke-width="2" d="M360.32,-431.88C375.48,-422.72 394.34,-411.34 410.68,-401.48"/>
<polygon fill="grey" stroke="grey" stroke-width="2" points="412.7,-404.35 419.45,-396.19 409.08,-398.36 412.7,-404.35"/>
</g>
<!-- 38 -->
<g id="node39" class="node">
<title>38</title>
<path fill="none" stroke="#56a2d8" stroke-width="2" d="M524.67,-468C524.67,-468 415.21,-468 415.21,-468 409.21,-468 403.21,-462 403.21,-456 403.21,-456 403.21,-444 403.21,-444 403.21,-438 409.21,-432 415.21,-432 415.21,-432 524.67,-432 524.67,-432 530.67,-432 536.67,-438 536.67,-444 536.67,-444 536.67,-456 536.67,-456 536.67,-462 530.67,-468 524.67,-468"/>
<text text-anchor="middle" x="469.94" y="-447" font-family="sans" font-size="10.00">fetch_isocortex_23_metadata</text>
</g>
<!-- 38&#45;&gt;36 -->
<g id="edge67" class="edge">
<title>38&#45;&gt;36</title>
<path fill="none" stroke="grey" stroke-width="2" d="M464.5,-431.7C462.05,-423.9 459.1,-414.51 456.37,-405.83"/>
<polygon fill="grey" stroke="grey" stroke-width="2" points="459.65,-404.59 453.31,-396.1 452.97,-406.69 459.65,-404.59"/>
</g>
<!-- 39&#45;&gt;2 -->
<g id="edge8" class="edge">
<title>39&#45;&gt;2</title>
<path fill="none" stroke="grey" stroke-width="2" d="M610.24,-287.88C582.99,-278.09 548.64,-265.77 519.97,-255.47"/>
<polygon fill="grey" stroke="grey" stroke-width="2" points="521.08,-252.15 510.49,-252.07 518.72,-258.74 521.08,-252.15"/>
</g>
<!-- 39&#45;&gt;40 -->
<g id="edge70" class="edge">
<title>39&#45;&gt;40</title>
<path fill="none" stroke="grey" stroke-width="2" d="M645.24,-287.83C629.96,-268.2 602.63,-236.18 572.94,-216 499.51,-166.09 403.1,-131.02 337.85,-110.98"/>
<polygon fill="grey" stroke="grey" stroke-width="2" points="338.64,-107.57 328.05,-108.02 336.61,-114.27 338.64,-107.57"/>
</g>
<!-- 40&#45;&gt;0 -->
<g id="edge2" class="edge">
<title>40&#45;&gt;0</title>
<path fill="none" stroke="grey" stroke-width="2" d="M249.86,-71.7C242.55,-63.3 233.63,-53.07 225.6,-43.86"/>
<polygon fill="grey" stroke="grey" stroke-width="2" points="228.05,-41.34 218.84,-36.1 222.78,-45.94 228.05,-41.34"/>
</g>
</g>
</svg>
