<?xml version="1.0" encoding="UTF-8" standalone="no"?>
<!DOCTYPE svg PUBLIC "-//W3C//DTD SVG 1.1//EN"
 "http://www.w3.org/Graphics/SVG/1.1/DTD/svg11.dtd">
<!-- Generated by graphviz version 8.0.5 (20230430.1635)
 -->
<!-- Title: snakemake_dag Pages: 1 -->
<svg width="2007pt" height="1412pt"
 viewBox="0.00 0.00 2007.12 1412.00" xmlns="http://www.w3.org/2000/svg" xmlns:xlink="http://www.w3.org/1999/xlink">
<g id="graph0" class="graph" transform="scale(1 1) rotate(0) translate(4 1408)">
<title>snakemake_dag</title>
<polygon fill="white" stroke="none" points="-4,4 -4,-1408 2003.12,-1408 2003.12,4 -4,4"/>
<!-- 0 -->
<g id="node1" class="node">
<title>0</title>
<path fill="none" stroke="#56a9d8" stroke-width="2" d="M642.12,-36C642.12,-36 560.12,-36 560.12,-36 554.12,-36 548.12,-30 548.12,-24 548.12,-24 548.12,-12 548.12,-12 548.12,-6 554.12,0 560.12,0 560.12,0 642.12,0 642.12,0 648.12,0 654.12,-6 654.12,-12 654.12,-12 654.12,-24 654.12,-24 654.12,-30 648.12,-36 642.12,-36"/>
<text text-anchor="middle" x="601.12" y="-14.12" font-family="sans" font-size="10.00">push_atlas_datasets</text>
</g>
<!-- 1 -->
<g id="node2" class="node">
<title>1</title>
<path fill="none" stroke="#56d89a" stroke-width="2" d="M309.12,-396C309.12,-396 233.12,-396 233.12,-396 227.12,-396 221.12,-390 221.12,-384 221.12,-384 221.12,-372 221.12,-372 221.12,-366 227.12,-360 233.12,-360 233.12,-360 309.12,-360 309.12,-360 315.12,-360 321.12,-366 321.12,-372 321.12,-372 321.12,-384 321.12,-384 321.12,-390 315.12,-396 309.12,-396"/>
<text text-anchor="middle" x="271.12" y="-374.12" font-family="sans" font-size="10.00">push_atlas_release</text>
</g>
<!-- 1&#45;&gt;0 -->
<g id="edge1" class="edge">
<title>1&#45;&gt;0</title>
<path fill="none" stroke="grey" stroke-width="2" d="M304.09,-359.2C342.01,-336.05 399.12,-291.76 399.12,-235 399.12,-235 399.12,-235 399.12,-161 399.12,-93.26 476.08,-55.05 534.99,-35.72"/>
<polygon fill="grey" stroke="grey" stroke-width="2" points="536.76,-38.2 545.26,-31.87 534.67,-31.52 536.76,-38.2"/>
</g>
<!-- 2 -->
<g id="node3" class="node">
<title>2</title>
<path fill="none" stroke="#568ad8" stroke-width="2" d="M539.5,-468C539.5,-468 462.75,-468 462.75,-468 456.75,-468 450.75,-462 450.75,-456 450.75,-456 450.75,-444 450.75,-444 450.75,-438 456.75,-432 462.75,-432 462.75,-432 539.5,-432 539.5,-432 545.5,-432 551.5,-438 551.5,-444 551.5,-444 551.5,-456 551.5,-456 551.5,-462 545.5,-468 539.5,-468"/>
<text text-anchor="middle" x="501.12" y="-446.12" font-family="sans" font-size="10.00">export_brain_region</text>
</g>
<!-- 2&#45;&gt;1 -->
<g id="edge5" class="edge">
<title>2&#45;&gt;1</title>
<path fill="none" stroke="grey" stroke-width="2" d="M449.79,-433.38C415.54,-422.95 370.27,-409.18 333.88,-398.1"/>
<polygon fill="grey" stroke="grey" stroke-width="2" points="334.49,-394.02 323.9,-394.45 332.45,-400.71 334.49,-394.02"/>
</g>
<!-- 14 -->
<g id="node15" class="node">
<title>14</title>
<path fill="none" stroke="#bed856" stroke-width="2" d="M515.5,-180C515.5,-180 462.75,-180 462.75,-180 456.75,-180 450.75,-174 450.75,-168 450.75,-168 450.75,-156 450.75,-156 450.75,-150 456.75,-144 462.75,-144 462.75,-144 515.5,-144 515.5,-144 521.5,-144 527.5,-150 527.5,-156 527.5,-156 527.5,-168 527.5,-168 527.5,-174 521.5,-180 515.5,-180"/>
<text text-anchor="middle" x="489.12" y="-158.12" font-family="sans" font-size="10.00">push_meshes</text>
</g>
<!-- 2&#45;&gt;14 -->
<g id="edge26" class="edge">
<title>2&#45;&gt;14</title>
<path fill="none" stroke="grey" stroke-width="2" d="M495.2,-431.04C487.61,-406.99 474.87,-362.84 470.12,-324 464.57,-278.53 473.76,-225.8 481.19,-193.42"/>
<polygon fill="grey" stroke="grey" stroke-width="2" points="485.27,-193.42 484.22,-182.87 478.47,-191.77 485.27,-193.42"/>
</g>
<!-- 16 -->
<g id="node17" class="node">
<title>16</title>
<path fill="none" stroke="#d86e56" stroke-width="2" d="M538.88,-324C538.88,-324 491.38,-324 491.38,-324 485.38,-324 479.38,-318 479.38,-312 479.38,-312 479.38,-300 479.38,-300 479.38,-294 485.38,-288 491.38,-288 491.38,-288 538.88,-288 538.88,-288 544.88,-288 550.88,-294 550.88,-300 550.88,-300 550.88,-312 550.88,-312 550.88,-318 544.88,-324 538.88,-324"/>
<text text-anchor="middle" x="515.12" y="-302.12" font-family="sans" font-size="10.00">push_masks</text>
</g>
<!-- 2&#45;&gt;16 -->
<g id="edge31" class="edge">
<title>2&#45;&gt;16</title>
<path fill="none" stroke="grey" stroke-width="2" d="M502.9,-431.02C505.21,-407.54 509.3,-366.11 512.1,-337.64"/>
<polygon fill="grey" stroke="grey" stroke-width="2" points="515.87,-338.13 513.37,-327.84 508.9,-337.45 515.87,-338.13"/>
</g>
<!-- 3 -->
<g id="node4" class="node">
<title>3</title>
<path fill="none" stroke="#8fd856" stroke-width="2" d="M599.38,-540C599.38,-540 494.88,-540 494.88,-540 488.88,-540 482.88,-534 482.88,-528 482.88,-528 482.88,-516 482.88,-516 482.88,-510 488.88,-504 494.88,-504 494.88,-504 599.38,-504 599.38,-504 605.38,-504 611.38,-510 611.38,-516 611.38,-516 611.38,-528 611.38,-528 611.38,-534 605.38,-540 599.38,-540"/>
<text text-anchor="middle" x="547.12" y="-518.12" font-family="sans" font-size="10.00">split_barrel_ccfv3_l23split</text>
</g>
<!-- 3&#45;&gt;1 -->
<g id="edge6" class="edge">
<title>3&#45;&gt;1</title>
<path fill="none" stroke="grey" stroke-width="2" d="M481.98,-515.62C414.95,-508.71 316.67,-494.36 290.12,-468 274.9,-452.88 270.48,-428.74 269.69,-409.42"/>
<polygon fill="grey" stroke="grey" stroke-width="2" points="273.18,-409.68 269.64,-399.69 266.18,-409.7 273.18,-409.68"/>
</g>
<!-- 3&#45;&gt;2 -->
<g id="edge11" class="edge">
<title>3&#45;&gt;2</title>
<path fill="none" stroke="grey" stroke-width="2" d="M535.52,-503.34C530.81,-496.18 525.26,-487.73 520,-479.73"/>
<polygon fill="grey" stroke="grey" stroke-width="2" points="522.31,-477.34 513.89,-470.9 516.46,-481.18 522.31,-477.34"/>
</g>
<!-- 10 -->
<g id="node11" class="node">
<title>10</title>
<path fill="none" stroke="#56d8a9" stroke-width="2" d="M420.62,-468C420.62,-468 311.62,-468 311.62,-468 305.62,-468 299.62,-462 299.62,-456 299.62,-456 299.62,-444 299.62,-444 299.62,-438 305.62,-432 311.62,-432 311.62,-432 420.62,-432 420.62,-432 426.62,-432 432.62,-438 432.62,-444 432.62,-444 432.62,-456 432.62,-456 432.62,-462 426.62,-468 420.62,-468"/>
<text text-anchor="middle" x="366.12" y="-446.12" font-family="sans" font-size="10.00">create_hemispheres_ccfv3</text>
</g>
<!-- 3&#45;&gt;10 -->
<g id="edge20" class="edge">
<title>3&#45;&gt;10</title>
<path fill="none" stroke="grey" stroke-width="2" d="M500.98,-503.15C477.67,-494.14 449.14,-483.11 424.34,-473.51"/>
<polygon fill="grey" stroke="grey" stroke-width="2" points="425.09,-470.28 414.5,-469.93 422.56,-476.81 425.09,-470.28"/>
</g>
<!-- 11 -->
<g id="node12" class="node">
<title>11</title>
<path fill="none" stroke="#5663d8" stroke-width="2" d="M230.75,-468C230.75,-468 167.5,-468 167.5,-468 161.5,-468 155.5,-462 155.5,-456 155.5,-456 155.5,-444 155.5,-444 155.5,-438 161.5,-432 167.5,-432 167.5,-432 230.75,-432 230.75,-432 236.75,-432 242.75,-438 242.75,-444 242.75,-444 242.75,-456 242.75,-456 242.75,-462 236.75,-468 230.75,-468"/>
<text text-anchor="middle" x="199.12" y="-446.12" font-family="sans" font-size="10.00">placement_hints</text>
</g>
<!-- 3&#45;&gt;11 -->
<g id="edge21" class="edge">
<title>3&#45;&gt;11</title>
<path fill="none" stroke="grey" stroke-width="2" d="M481.93,-511.08C422.89,-501.63 333.69,-486.17 257.12,-468 256.71,-467.9 256.3,-467.8 255.89,-467.7"/>
<polygon fill="grey" stroke="grey" stroke-width="2" points="256.2,-463.66 245.65,-464.56 254.46,-470.44 256.2,-463.66"/>
</g>
<!-- 17 -->
<g id="node18" class="node">
<title>17</title>
<path fill="none" stroke="#56d882" stroke-width="2" d="M1089.88,-396C1089.88,-396 1012.38,-396 1012.38,-396 1006.38,-396 1000.38,-390 1000.38,-384 1000.38,-384 1000.38,-372 1000.38,-372 1000.38,-366 1006.38,-360 1012.38,-360 1012.38,-360 1089.88,-360 1089.88,-360 1095.88,-360 1101.88,-366 1101.88,-372 1101.88,-372 1101.88,-384 1101.88,-384 1101.88,-390 1095.88,-396 1089.88,-396"/>
<text text-anchor="middle" x="1051.12" y="-374.12" font-family="sans" font-size="10.00">push_glia_densities</text>
</g>
<!-- 3&#45;&gt;17 -->
<g id="edge33" class="edge">
<title>3&#45;&gt;17</title>
<path fill="none" stroke="grey" stroke-width="2" d="M612.13,-504.66C641.99,-495.87 677.3,-483.59 707.12,-468 730.76,-455.65 730.54,-442.32 755.12,-432 849.23,-392.5 884.72,-416.5 987.04,-396.64"/>
<polygon fill="grey" stroke="grey" stroke-width="2" points="988.43,-399.51 997.52,-394.06 987.02,-392.66 988.43,-399.51"/>
</g>
<!-- 18 -->
<g id="node19" class="node">
<title>18</title>
<path fill="none" stroke="#56d873" stroke-width="2" d="M1396.88,-468C1396.88,-468 1211.38,-468 1211.38,-468 1205.38,-468 1199.38,-462 1199.38,-456 1199.38,-456 1199.38,-444 1199.38,-444 1199.38,-438 1205.38,-432 1211.38,-432 1211.38,-432 1396.88,-432 1396.88,-432 1402.88,-432 1408.88,-438 1408.88,-444 1408.88,-444 1408.88,-456 1408.88,-456 1408.88,-462 1402.88,-468 1396.88,-468"/>
<text text-anchor="middle" x="1304.12" y="-446.12" font-family="sans" font-size="10.00">transplant_glia_cell_densities_correctednissl</text>
</g>
<!-- 3&#45;&gt;18 -->
<g id="edge34" class="edge">
<title>3&#45;&gt;18</title>
<path fill="none" stroke="grey" stroke-width="2" d="M611.93,-516.71C726.66,-508.85 972.95,-490.86 1180.12,-468 1182.01,-467.79 1183.92,-467.58 1185.84,-467.36"/>
<polygon fill="grey" stroke="grey" stroke-width="2" points="1186.12,-470.5 1195.64,-465.85 1185.3,-463.54 1186.12,-470.5"/>
</g>
<!-- 38 -->
<g id="node39" class="node">
<title>38</title>
<path fill="none" stroke="#d6d856" stroke-width="2" d="M1224,-396C1224,-396 1132.25,-396 1132.25,-396 1126.25,-396 1120.25,-390 1120.25,-384 1120.25,-384 1120.25,-372 1120.25,-372 1120.25,-366 1126.25,-360 1132.25,-360 1132.25,-360 1224,-360 1224,-360 1230,-360 1236,-366 1236,-372 1236,-372 1236,-384 1236,-384 1236,-390 1230,-396 1224,-396"/>
<text text-anchor="middle" x="1178.12" y="-374.12" font-family="sans" font-size="10.00">push_neuron_densities</text>
</g>
<!-- 3&#45;&gt;38 -->
<g id="edge64" class="edge">
<title>3&#45;&gt;38</title>
<path fill="none" stroke="grey" stroke-width="2" d="M612.12,-506.8C660.5,-495.64 722,-480.02 745.12,-468 767.24,-456.51 765.21,-441.8 788.12,-432 917.18,-376.83 966.22,-419.27 1106.86,-396.54"/>
<polygon fill="grey" stroke="grey" stroke-width="2" points="1108.14,-399.53 1117.4,-394.39 1106.95,-392.63 1108.14,-399.53"/>
</g>
<!-- 39 -->
<g id="node40" class="node">
<title>39</title>
<path fill="none" stroke="#56b9d8" stroke-width="2" d="M1827.88,-468C1827.88,-468 1570.38,-468 1570.38,-468 1564.38,-468 1558.38,-462 1558.38,-456 1558.38,-456 1558.38,-444 1558.38,-444 1558.38,-438 1564.38,-432 1570.38,-432 1570.38,-432 1827.88,-432 1827.88,-432 1833.88,-432 1839.88,-438 1839.88,-444 1839.88,-444 1839.88,-456 1839.88,-456 1839.88,-462 1833.88,-468 1827.88,-468"/>
<text text-anchor="middle" x="1699.12" y="-446.12" font-family="sans" font-size="10.00">transplant_inhibitory_neuron_densities_linprog_correctednissl</text>
</g>
<!-- 3&#45;&gt;39 -->
<g id="edge65" class="edge">
<title>3&#45;&gt;39</title>
<path fill="none" stroke="grey" stroke-width="2" d="M612.25,-516.89C667.35,-513.42 748.4,-508.34 819.12,-504 1085.33,-487.68 1151.91,-484.05 1418.12,-468 1459.15,-465.53 1503.55,-462.84 1544.68,-460.35"/>
<polygon fill="grey" stroke="grey" stroke-width="2" points="1544.84,-463.67 1554.62,-459.57 1544.42,-456.68 1544.84,-463.67"/>
</g>
<!-- 52 -->
<g id="node53" class="node">
<title>52</title>
<path fill="none" stroke="#70d856" stroke-width="2" d="M805.88,-324C805.88,-324 674.38,-324 674.38,-324 668.38,-324 662.38,-318 662.38,-312 662.38,-312 662.38,-300 662.38,-300 662.38,-294 668.38,-288 674.38,-288 674.38,-288 805.88,-288 805.88,-288 811.88,-288 817.88,-294 817.88,-300 817.88,-300 817.88,-312 817.88,-312 817.88,-318 811.88,-324 805.88,-324"/>
<text text-anchor="middle" x="740.12" y="-302.12" font-family="sans" font-size="10.00">push_metype_pipeline_datasets</text>
</g>
<!-- 3&#45;&gt;52 -->
<g id="edge88" class="edge">
<title>3&#45;&gt;52</title>
<path fill="none" stroke="grey" stroke-width="2" d="M582.54,-503.03C598.48,-493.89 616.88,-481.79 631.12,-468 672.23,-428.2 706.69,-370.51 725.28,-336.08"/>
<polygon fill="grey" stroke="grey" stroke-width="2" points="728.6,-337.42 730.18,-326.94 722.41,-334.14 728.6,-337.42"/>
</g>
<!-- 53 -->
<g id="node54" class="node">
<title>53</title>
<path fill="none" stroke="#56d8d8" stroke-width="2" d="M915.12,-468C915.12,-468 809.12,-468 809.12,-468 803.12,-468 797.12,-462 797.12,-456 797.12,-456 797.12,-444 797.12,-444 797.12,-438 803.12,-432 809.12,-432 809.12,-432 915.12,-432 915.12,-432 921.12,-432 927.12,-438 927.12,-444 927.12,-444 927.12,-456 927.12,-456 927.12,-462 921.12,-468 915.12,-468"/>
<text text-anchor="middle" x="862.12" y="-446.12" font-family="sans" font-size="10.00">transplant_excitatory_split</text>
</g>
<!-- 3&#45;&gt;53 -->
<g id="edge89" class="edge">
<title>3&#45;&gt;53</title>
<path fill="none" stroke="grey" stroke-width="2" d="M612.01,-506.58C661.86,-495.5 730.92,-480.16 783.84,-468.4"/>
<polygon fill="grey" stroke="grey" stroke-width="2" points="785.24,-471.23 794.24,-465.64 783.72,-464.39 785.24,-471.23"/>
</g>
<!-- 56 -->
<g id="node57" class="node">
<title>56</title>
<path fill="none" stroke="#5692d8" stroke-width="2" d="M970.5,-396C970.5,-396 755.75,-396 755.75,-396 749.75,-396 743.75,-390 743.75,-384 743.75,-384 743.75,-372 743.75,-372 743.75,-366 749.75,-360 755.75,-360 755.75,-360 970.5,-360 970.5,-360 976.5,-360 982.5,-366 982.5,-372 982.5,-372 982.5,-384 982.5,-384 982.5,-390 976.5,-396 970.5,-396"/>
<text text-anchor="middle" x="863.12" y="-374.12" font-family="sans" font-size="10.00">transplant_mtypes_densities_from_probability_map</text>
</g>
<!-- 3&#45;&gt;56 -->
<g id="edge96" class="edge">
<title>3&#45;&gt;56</title>
<path fill="none" stroke="grey" stroke-width="2" d="M595.31,-503.1C618.28,-493.82 645.77,-481.58 669.12,-468 692.18,-454.6 693.67,-444.69 717.12,-432 739.64,-419.82 765.54,-409.38 789.22,-401.07"/>
<polygon fill="grey" stroke="grey" stroke-width="2" points="791.03,-403.47 799.37,-396.92 788.77,-396.84 791.03,-403.47"/>
</g>
<!-- 60 -->
<g id="node61" class="node">
<title>60</title>
<path fill="none" stroke="#56d8b1" stroke-width="2" d="M686,-108C686,-108 600.25,-108 600.25,-108 594.25,-108 588.25,-102 588.25,-96 588.25,-96 588.25,-84 588.25,-84 588.25,-78 594.25,-72 600.25,-72 600.25,-72 686,-72 686,-72 692,-72 698,-78 698,-84 698,-84 698,-96 698,-96 698,-102 692,-108 686,-108"/>
<text text-anchor="middle" x="643.12" y="-86.12" font-family="sans" font-size="10.00">push_cellcomposition</text>
</g>
<!-- 3&#45;&gt;60 -->
<g id="edge104" class="edge">
<title>3&#45;&gt;60</title>
<path fill="none" stroke="grey" stroke-width="2" d="M553.76,-503.36C563.13,-476.79 579.12,-424.74 579.12,-379 579.12,-379 579.12,-379 579.12,-233 579.12,-192.46 581.24,-180.38 599.12,-144 603.6,-134.9 609.94,-126.01 616.42,-118.19"/>
<polygon fill="grey" stroke="grey" stroke-width="2" points="618.88,-120.42 622.87,-110.6 613.63,-115.79 618.88,-120.42"/>
</g>
<!-- 62 -->
<g id="node63" class="node">
<title>62</title>
<path fill="none" stroke="#566bd8" stroke-width="2" d="M794.62,-180C794.62,-180 619.62,-180 619.62,-180 613.62,-180 607.62,-174 607.62,-168 607.62,-168 607.62,-156 607.62,-156 607.62,-150 613.62,-144 619.62,-144 619.62,-144 794.62,-144 794.62,-144 800.62,-144 806.62,-150 806.62,-156 806.62,-156 806.62,-168 806.62,-168 806.62,-174 800.62,-180 794.62,-180"/>
<text text-anchor="middle" x="707.12" y="-158.12" font-family="sans" font-size="10.00">create_cellCompositionSummary_payload</text>
</g>
<!-- 3&#45;&gt;62 -->
<g id="edge108" class="edge">
<title>3&#45;&gt;62</title>
<path fill="none" stroke="grey" stroke-width="2" d="M566,-503.42C575.37,-493.77 586.14,-481.12 593.12,-468 612.37,-431.83 617.12,-419.97 617.12,-379 617.12,-379 617.12,-379 617.12,-305 617.12,-264.55 614.3,-250.05 636.12,-216 642.96,-205.33 652.75,-196.04 662.89,-188.34"/>
<polygon fill="grey" stroke="grey" stroke-width="2" points="665.29,-190.53 671.46,-181.91 661.27,-184.8 665.29,-190.53"/>
</g>
<!-- 4 -->
<g id="node5" class="node">
<title>4</title>
<path fill="none" stroke="#97d856" stroke-width="2" d="M327.38,-612C327.38,-612 126.88,-612 126.88,-612 120.88,-612 114.88,-606 114.88,-600 114.88,-600 114.88,-588 114.88,-588 114.88,-582 120.88,-576 126.88,-576 126.88,-576 327.38,-576 327.38,-576 333.38,-576 339.38,-582 339.38,-588 339.38,-588 339.38,-600 339.38,-600 339.38,-606 333.38,-612 327.38,-612"/>
<text text-anchor="middle" x="227.12" y="-590.12" font-family="sans" font-size="10.00">create_leaves_only_hierarchy_annotation_ccfv3</text>
</g>
<!-- 4&#45;&gt;3 -->
<g id="edge12" class="edge">
<title>4&#45;&gt;3</title>
<path fill="none" stroke="grey" stroke-width="2" d="M309.12,-575.06C358.41,-564.28 420.79,-550.64 469.32,-540.02"/>
<polygon fill="grey" stroke="grey" stroke-width="2" points="470.96,-542.81 479.98,-537.25 469.46,-535.97 470.96,-542.81"/>
</g>
<!-- 5 -->
<g id="node6" class="node">
<title>5</title>
<path fill="none" stroke="#59d856" stroke-width="2" d="M271.25,-684C271.25,-684 145,-684 145,-684 139,-684 133,-678 133,-672 133,-672 133,-660 133,-660 133,-654 139,-648 145,-648 145,-648 271.25,-648 271.25,-648 277.25,-648 283.25,-654 283.25,-660 283.25,-660 283.25,-672 283.25,-672 283.25,-678 277.25,-684 271.25,-684"/>
<text text-anchor="middle" x="208.12" y="-662.12" font-family="sans" font-size="10.00">split_isocortex_layer_23_ccfv3</text>
</g>
<!-- 5&#45;&gt;4 -->
<g id="edge14" class="edge">
<title>5&#45;&gt;4</title>
<path fill="none" stroke="grey" stroke-width="2" d="M212.92,-647.34C214.73,-640.67 216.84,-632.89 218.88,-625.39"/>
<polygon fill="grey" stroke="grey" stroke-width="2" points="223.02,-625.47 222.27,-614.9 216.27,-623.64 223.02,-625.47"/>
</g>
<!-- 6 -->
<g id="node7" class="node">
<title>6</title>
<path fill="none" stroke="#d8c356" stroke-width="2" d="M339.75,-1332C339.75,-1332 204.5,-1332 204.5,-1332 198.5,-1332 192.5,-1326 192.5,-1320 192.5,-1320 192.5,-1308 192.5,-1308 192.5,-1302 198.5,-1296 204.5,-1296 204.5,-1296 339.75,-1296 339.75,-1296 345.75,-1296 351.75,-1302 351.75,-1308 351.75,-1308 351.75,-1320 351.75,-1320 351.75,-1326 345.75,-1332 339.75,-1332"/>
<text text-anchor="middle" x="272.12" y="-1310.12" font-family="sans" font-size="10.00">fetch_ccf_brain_region_hierarchy</text>
</g>
<!-- 6&#45;&gt;5 -->
<g id="edge15" class="edge">
<title>6&#45;&gt;5</title>
<path fill="none" stroke="grey" stroke-width="2" d="M191.62,-1296.28C127.74,-1277.74 49.12,-1240.77 49.12,-1171 49.12,-1171 49.12,-1171 49.12,-809 49.12,-752.82 105.02,-713.34 150.53,-690.51"/>
<polygon fill="grey" stroke="grey" stroke-width="2" points="152.64,-693.41 160.14,-685.92 149.61,-687.11 152.64,-693.41"/>
</g>
<!-- 8 -->
<g id="node9" class="node">
<title>8</title>
<path fill="none" stroke="#56d892" stroke-width="2" d="M323.38,-756C323.38,-756 182.88,-756 182.88,-756 176.88,-756 170.88,-750 170.88,-744 170.88,-744 170.88,-732 170.88,-732 170.88,-726 176.88,-720 182.88,-720 182.88,-720 323.38,-720 323.38,-720 329.38,-720 335.38,-726 335.38,-732 335.38,-732 335.38,-744 335.38,-744 335.38,-750 329.38,-756 323.38,-756"/>
<text text-anchor="middle" x="253.12" y="-734.12" font-family="sans" font-size="10.00">direction_vectors_isocortex_ccfv3</text>
</g>
<!-- 6&#45;&gt;8 -->
<g id="edge19" class="edge">
<title>6&#45;&gt;8</title>
<path fill="none" stroke="grey" stroke-width="2" d="M268.19,-1295.17C262.62,-1268.36 253.12,-1216.02 253.12,-1171 253.12,-1171 253.12,-1171 253.12,-881 253.12,-842.65 253.12,-798.48 253.12,-769.72"/>
<polygon fill="grey" stroke="grey" stroke-width="2" points="256.63,-769.93 253.12,-759.93 249.63,-769.93 256.63,-769.93"/>
</g>
<!-- 12 -->
<g id="node13" class="node">
<title>12</title>
<path fill="none" stroke="#d85656" stroke-width="2" d="M162.25,-540C162.25,-540 12,-540 12,-540 6,-540 0,-534 0,-528 0,-528 0,-516 0,-516 0,-510 6,-504 12,-504 12,-504 162.25,-504 162.25,-504 168.25,-504 174.25,-510 174.25,-516 174.25,-516 174.25,-528 174.25,-528 174.25,-534 168.25,-540 162.25,-540"/>
<text text-anchor="middle" x="87.12" y="-518.12" font-family="sans" font-size="10.00">direction_vectors_placeholder_ccfv3</text>
</g>
<!-- 6&#45;&gt;12 -->
<g id="edge23" class="edge">
<title>6&#45;&gt;12</title>
<path fill="none" stroke="grey" stroke-width="2" d="M191.74,-1306.88C150.59,-1300.37 101.63,-1287.07 65.12,-1260 27.96,-1232.44 11.12,-1217.27 11.12,-1171 11.12,-1171 11.12,-1171 11.12,-665 11.12,-621.06 39.76,-577.56 61.88,-550.52"/>
<polygon fill="grey" stroke="grey" stroke-width="2" points="65.45,-552.54 69.26,-542.65 60.12,-548.01 65.45,-552.54"/>
</g>
<!-- 21 -->
<g id="node22" class="node">
<title>21</title>
<path fill="none" stroke="#567bd8" stroke-width="2" d="M723.25,-1116C723.25,-1116 597,-1116 597,-1116 591,-1116 585,-1110 585,-1104 585,-1104 585,-1092 585,-1092 585,-1086 591,-1080 597,-1080 597,-1080 723.25,-1080 723.25,-1080 729.25,-1080 735.25,-1086 735.25,-1092 735.25,-1092 735.25,-1104 735.25,-1104 735.25,-1110 729.25,-1116 723.25,-1116"/>
<text text-anchor="middle" x="660.12" y="-1094.12" font-family="sans" font-size="10.00">split_isocortex_layer_23_ccfv2</text>
</g>
<!-- 6&#45;&gt;21 -->
<g id="edge40" class="edge">
<title>6&#45;&gt;21</title>
<path fill="none" stroke="grey" stroke-width="2" d="M274.53,-1295.11C278.04,-1275.4 286.33,-1243.88 305.12,-1224 374.99,-1150.08 491.16,-1119.84 571.48,-1107.49"/>
<polygon fill="grey" stroke="grey" stroke-width="2" points="572.66,-1110.56 582.05,-1105.65 571.65,-1103.63 572.66,-1110.56"/>
</g>
<!-- 25 -->
<g id="node26" class="node">
<title>25</title>
<path fill="none" stroke="#d89556" stroke-width="2" d="M681.5,-1188C681.5,-1188 490.75,-1188 490.75,-1188 484.75,-1188 478.75,-1182 478.75,-1176 478.75,-1176 478.75,-1164 478.75,-1164 478.75,-1158 484.75,-1152 490.75,-1152 490.75,-1152 681.5,-1152 681.5,-1152 687.5,-1152 693.5,-1158 693.5,-1164 693.5,-1164 693.5,-1176 693.5,-1176 693.5,-1182 687.5,-1188 681.5,-1188"/>
<text text-anchor="middle" x="586.12" y="-1166.12" font-family="sans" font-size="10.00">interpolate_direction_vectors_isocortex_ccfv2</text>
</g>
<!-- 6&#45;&gt;25 -->
<g id="edge46" class="edge">
<title>6&#45;&gt;25</title>
<path fill="none" stroke="grey" stroke-width="2" d="M282.3,-1295.28C295,-1274.82 318.7,-1241.7 348.12,-1224 383.23,-1202.88 425.81,-1190.16 465.19,-1182.5"/>
<polygon fill="grey" stroke="grey" stroke-width="2" points="466.64,-1185.42 475.85,-1180.18 465.38,-1178.54 466.64,-1185.42"/>
</g>
<!-- 26 -->
<g id="node27" class="node">
<title>26</title>
<path fill="none" stroke="#56d85b" stroke-width="2" d="M656.38,-1260C656.38,-1260 515.88,-1260 515.88,-1260 509.88,-1260 503.88,-1254 503.88,-1248 503.88,-1248 503.88,-1236 503.88,-1236 503.88,-1230 509.88,-1224 515.88,-1224 515.88,-1224 656.38,-1224 656.38,-1224 662.38,-1224 668.38,-1230 668.38,-1236 668.38,-1236 668.38,-1248 668.38,-1248 668.38,-1254 662.38,-1260 656.38,-1260"/>
<text text-anchor="middle" x="586.12" y="-1238.12" font-family="sans" font-size="10.00">direction_vectors_isocortex_ccfv2</text>
</g>
<!-- 6&#45;&gt;26 -->
<g id="edge50" class="edge">
<title>6&#45;&gt;26</title>
<path fill="none" stroke="grey" stroke-width="2" d="M352.58,-1295.06C395.42,-1285.51 448.33,-1273.72 492.96,-1263.77"/>
<polygon fill="grey" stroke="grey" stroke-width="2" points="494.61,-1266.54 503.61,-1260.95 493.08,-1259.71 494.61,-1266.54"/>
</g>
<!-- 7 -->
<g id="node8" class="node">
<title>7</title>
<path fill="none" stroke="#56d0d8" stroke-width="2" d="M213.12,-828C213.12,-828 89.12,-828 89.12,-828 83.12,-828 77.12,-822 77.12,-816 77.12,-816 77.12,-804 77.12,-804 77.12,-798 83.12,-792 89.12,-792 89.12,-792 213.12,-792 213.12,-792 219.12,-792 225.12,-798 225.12,-804 225.12,-804 225.12,-816 225.12,-816 225.12,-822 219.12,-828 213.12,-828"/>
<text text-anchor="middle" x="151.12" y="-806.12" font-family="sans" font-size="10.00">fetch_brain_parcellation_ccfv3</text>
</g>
<!-- 7&#45;&gt;5 -->
<g id="edge16" class="edge">
<title>7&#45;&gt;5</title>
<path fill="none" stroke="grey" stroke-width="2" d="M150.34,-791.13C150.19,-772.56 151.87,-743.04 162.12,-720 166.26,-710.71 172.59,-701.85 179.24,-694.12"/>
<polygon fill="grey" stroke="grey" stroke-width="2" points="181.77,-696.38 186.01,-686.67 176.64,-691.62 181.77,-696.38"/>
</g>
<!-- 7&#45;&gt;8 -->
<g id="edge18" class="edge">
<title>7&#45;&gt;8</title>
<path fill="none" stroke="grey" stroke-width="2" d="M177.13,-791.15C189.12,-782.93 203.55,-773.02 216.61,-764.06"/>
<polygon fill="grey" stroke="grey" stroke-width="2" points="218.9,-766.36 225.17,-757.81 214.94,-760.59 218.9,-766.36"/>
</g>
<!-- 7&#45;&gt;12 -->
<g id="edge24" class="edge">
<title>7&#45;&gt;12</title>
<path fill="none" stroke="grey" stroke-width="2" d="M146.94,-791.09C138.89,-756.51 120.73,-678.11 106.12,-612 101.82,-592.52 97.14,-570.61 93.5,-553.4"/>
<polygon fill="grey" stroke="grey" stroke-width="2" points="96.32,-551.81 90.84,-542.75 89.47,-553.25 96.32,-551.81"/>
</g>
<!-- 8&#45;&gt;5 -->
<g id="edge17" class="edge">
<title>8&#45;&gt;5</title>
<path fill="none" stroke="grey" stroke-width="2" d="M241.77,-719.34C237.17,-712.18 231.74,-703.73 226.59,-695.73"/>
<polygon fill="grey" stroke="grey" stroke-width="2" points="228.99,-693.42 220.63,-686.9 223.1,-697.21 228.99,-693.42"/>
</g>
<!-- 9 -->
<g id="node10" class="node">
<title>9</title>
<path fill="none" stroke="#56d8d0" stroke-width="2" d="M562.75,-1044C562.75,-1044 475.5,-1044 475.5,-1044 469.5,-1044 463.5,-1038 463.5,-1032 463.5,-1032 463.5,-1020 463.5,-1020 463.5,-1014 469.5,-1008 475.5,-1008 475.5,-1008 562.75,-1008 562.75,-1008 568.75,-1008 574.75,-1014 574.75,-1020 574.75,-1020 574.75,-1032 574.75,-1032 574.75,-1038 568.75,-1044 562.75,-1044"/>
<text text-anchor="middle" x="519.12" y="-1022.12" font-family="sans" font-size="10.00">fetch_barrel_positions</text>
</g>
<!-- 9&#45;&gt;3 -->
<g id="edge13" class="edge">
<title>9&#45;&gt;3</title>
<path fill="none" stroke="grey" stroke-width="2" d="M462.57,-1017.04C412.06,-1008.64 343.57,-993.6 327.12,-972 317.43,-959.27 323.25,-951.52 327.12,-936 366.48,-778.41 478.55,-615.07 525.75,-551.08"/>
<polygon fill="grey" stroke="grey" stroke-width="2" points="529.1,-553.1 532.27,-542.99 523.49,-548.92 529.1,-553.1"/>
</g>
<!-- 19 -->
<g id="node20" class="node">
<title>19</title>
<path fill="none" stroke="#56a2d8" stroke-width="2" d="M1329.38,-972C1329.38,-972 1224.88,-972 1224.88,-972 1218.88,-972 1212.88,-966 1212.88,-960 1212.88,-960 1212.88,-948 1212.88,-948 1212.88,-942 1218.88,-936 1224.88,-936 1224.88,-936 1329.38,-936 1329.38,-936 1335.38,-936 1341.38,-942 1341.38,-948 1341.38,-948 1341.38,-960 1341.38,-960 1341.38,-966 1335.38,-972 1329.38,-972"/>
<text text-anchor="middle" x="1277.12" y="-950.12" font-family="sans" font-size="10.00">split_barrel_ccfv2_l23split</text>
</g>
<!-- 9&#45;&gt;19 -->
<g id="edge38" class="edge">
<title>9&#45;&gt;19</title>
<path fill="none" stroke="grey" stroke-width="2" d="M575.3,-1023.47C690.52,-1019.72 962,-1007.77 1199.54,-972.4"/>
<polygon fill="grey" stroke="grey" stroke-width="2" points="1200.89,-975.43 1210.26,-970.48 1199.85,-968.51 1200.89,-975.43"/>
</g>
<!-- 10&#45;&gt;1 -->
<g id="edge7" class="edge">
<title>10&#45;&gt;1</title>
<path fill="none" stroke="grey" stroke-width="2" d="M342.15,-431.34C331.1,-423.19 317.77,-413.37 305.66,-404.45"/>
<polygon fill="grey" stroke="grey" stroke-width="2" points="307.55,-401.02 297.42,-397.9 303.39,-406.65 307.55,-401.02"/>
</g>
<!-- 11&#45;&gt;1 -->
<g id="edge8" class="edge">
<title>11&#45;&gt;1</title>
<path fill="none" stroke="grey" stroke-width="2" d="M217.29,-431.34C225.25,-423.6 234.76,-414.36 243.55,-405.81"/>
<polygon fill="grey" stroke="grey" stroke-width="2" points="245.98,-408.38 250.71,-398.9 241.1,-403.36 245.98,-408.38"/>
</g>
<!-- 12&#45;&gt;1 -->
<g id="edge9" class="edge">
<title>12&#45;&gt;1</title>
<path fill="none" stroke="grey" stroke-width="2" d="M67.68,-503.32C49.2,-484.37 26.63,-454.05 44.12,-432 64.22,-406.67 147.66,-392.32 207.54,-385.1"/>
<polygon fill="grey" stroke="grey" stroke-width="2" points="207.77,-388.25 217.31,-383.63 206.97,-381.3 207.77,-388.25"/>
</g>
<!-- 12&#45;&gt;11 -->
<g id="edge22" class="edge">
<title>12&#45;&gt;11</title>
<path fill="none" stroke="grey" stroke-width="2" d="M115.68,-503.15C129.1,-494.76 145.33,-484.62 159.89,-475.52"/>
<polygon fill="grey" stroke="grey" stroke-width="2" points="162,-478.08 168.63,-469.81 158.29,-472.14 162,-478.08"/>
</g>
<!-- 13 -->
<g id="node14" class="node">
<title>13</title>
<path fill="none" stroke="#56a9d8" stroke-width="2" d="M125.25,-468C125.25,-468 65,-468 65,-468 59,-468 53,-462 53,-456 53,-456 53,-444 53,-444 53,-438 59,-432 65,-432 65,-432 125.25,-432 125.25,-432 131.25,-432 137.25,-438 137.25,-444 137.25,-444 137.25,-456 137.25,-456 137.25,-462 131.25,-468 125.25,-468"/>
<text text-anchor="middle" x="95.12" y="-446.12" font-family="sans" font-size="10.00">orientation_field</text>
</g>
<!-- 12&#45;&gt;13 -->
<g id="edge25" class="edge">
<title>12&#45;&gt;13</title>
<path fill="none" stroke="grey" stroke-width="2" d="M89.14,-503.34C89.9,-496.75 90.77,-489.08 91.62,-481.67"/>
<polygon fill="grey" stroke="grey" stroke-width="2" points="95.42,-482.23 93.08,-471.9 88.47,-481.44 95.42,-482.23"/>
</g>
<!-- 13&#45;&gt;1 -->
<g id="edge10" class="edge">
<title>13&#45;&gt;1</title>
<path fill="none" stroke="grey" stroke-width="2" d="M138.18,-431.88C161.09,-422.76 189.56,-411.44 214.27,-401.61"/>
<polygon fill="grey" stroke="grey" stroke-width="2" points="216.06,-404.87 224.06,-397.92 213.47,-398.37 216.06,-404.87"/>
</g>
<!-- 14&#45;&gt;0 -->
<g id="edge2" class="edge">
<title>14&#45;&gt;0</title>
<path fill="none" stroke="grey" stroke-width="2" d="M503.31,-143.02C522.41,-118.8 556.6,-75.45 579.07,-46.96"/>
<polygon fill="grey" stroke="grey" stroke-width="2" points="582.61,-48.86 586.06,-38.84 577.11,-44.52 582.61,-48.86"/>
</g>
<!-- 15 -->
<g id="node16" class="node">
<title>15</title>
<path fill="none" stroke="#b6d856" stroke-width="2" d="M971.12,-252C971.12,-252 865.12,-252 865.12,-252 859.12,-252 853.12,-246 853.12,-240 853.12,-240 853.12,-228 853.12,-228 853.12,-222 859.12,-216 865.12,-216 865.12,-216 971.12,-216 971.12,-216 977.12,-216 983.12,-222 983.12,-228 983.12,-228 983.12,-240 983.12,-240 983.12,-246 977.12,-252 971.12,-252"/>
<text text-anchor="middle" x="918.12" y="-230.12" font-family="sans" font-size="10.00">push_volumetric_datasets</text>
</g>
<!-- 15&#45;&gt;0 -->
<g id="edge3" class="edge">
<title>15&#45;&gt;0</title>
<path fill="none" stroke="grey" stroke-width="2" d="M903.78,-215.14C887.85,-196.04 860.73,-165.59 833.12,-144 777.69,-100.64 705.12,-64.26 656.01,-42.12"/>
<polygon fill="grey" stroke="grey" stroke-width="2" points="656.92,-38.81 646.37,-37.94 654.08,-45.21 656.92,-38.81"/>
</g>
<!-- 16&#45;&gt;15 -->
<g id="edge27" class="edge">
<title>16&#45;&gt;15</title>
<path fill="none" stroke="grey" stroke-width="2" d="M551.78,-299.9C610.43,-291.57 729.26,-273.98 839.68,-252.8"/>
<polygon fill="grey" stroke="grey" stroke-width="2" points="841.25,-255.67 850.41,-250.33 839.92,-248.8 841.25,-255.67"/>
</g>
<!-- 17&#45;&gt;15 -->
<g id="edge28" class="edge">
<title>17&#45;&gt;15</title>
<path fill="none" stroke="grey" stroke-width="2" d="M1034.28,-359.02C1011.4,-334.58 970.28,-290.69 943.61,-262.21"/>
<polygon fill="grey" stroke="grey" stroke-width="2" points="946.22,-259.74 936.83,-254.84 941.11,-264.53 946.22,-259.74"/>
</g>
<!-- 18&#45;&gt;17 -->
<g id="edge32" class="edge">
<title>18&#45;&gt;17</title>
<path fill="none" stroke="grey" stroke-width="2" d="M1238.43,-431.1C1204.15,-421.73 1161.21,-409.94 1115.22,-397.13"/>
<polygon fill="grey" stroke="grey" stroke-width="2" points="1115.4,-392.99 1104.83,-393.68 1113.52,-399.73 1115.4,-392.99"/>
</g>
<!-- 19&#45;&gt;18 -->
<g id="edge35" class="edge">
<title>19&#45;&gt;18</title>
<path fill="none" stroke="grey" stroke-width="2" d="M1342.31,-951.62C1493.24,-947.84 1857.08,-935.14 1899.12,-900 1930.56,-873.73 1923.12,-851.97 1923.12,-811 1923.12,-811 1923.12,-811 1923.12,-737 1923.12,-518.9 1602.53,-466.59 1422.79,-454.41"/>
<polygon fill="grey" stroke="grey" stroke-width="2" points="1423.03,-450.72 1412.83,-453.58 1422.59,-457.71 1423.03,-450.72"/>
</g>
<!-- 28 -->
<g id="node29" class="node">
<title>28</title>
<path fill="none" stroke="#68d856" stroke-width="2" d="M890.88,-828C890.88,-828 753.38,-828 753.38,-828 747.38,-828 741.38,-822 741.38,-816 741.38,-816 741.38,-804 741.38,-804 741.38,-798 747.38,-792 753.38,-792 753.38,-792 890.88,-792 890.88,-792 896.88,-792 902.88,-798 902.88,-804 902.88,-804 902.88,-816 902.88,-816 902.88,-822 896.88,-828 890.88,-828"/>
<text text-anchor="middle" x="822.12" y="-806.12" font-family="sans" font-size="10.00">glia_cell_densities_correctednissl</text>
</g>
<!-- 19&#45;&gt;28 -->
<g id="edge51" class="edge">
<title>19&#45;&gt;28</title>
<path fill="none" stroke="grey" stroke-width="2" d="M1211.91,-937.12C1164.57,-925.26 1104.84,-909.52 1081.12,-900 1050.12,-887.55 1046.11,-876.51 1015.12,-864 983.69,-851.31 948.19,-840.6 916.29,-832.2"/>
<polygon fill="grey" stroke="grey" stroke-width="2" points="916.34,-828.08 905.79,-828.97 914.6,-834.86 916.34,-828.08"/>
</g>
<!-- 29 -->
<g id="node30" class="node">
<title>29</title>
<path fill="none" stroke="#d8cb56" stroke-width="2" d="M994,-900C994,-900 884.25,-900 884.25,-900 878.25,-900 872.25,-894 872.25,-888 872.25,-888 872.25,-876 872.25,-876 872.25,-870 878.25,-864 884.25,-864 884.25,-864 994,-864 994,-864 1000,-864 1006,-870 1006,-876 1006,-876 1006,-888 1006,-888 1006,-894 1000,-900 994,-900"/>
<text text-anchor="middle" x="939.12" y="-878.12" font-family="sans" font-size="10.00">cell_density_correctednissl</text>
</g>
<!-- 19&#45;&gt;29 -->
<g id="edge54" class="edge">
<title>19&#45;&gt;29</title>
<path fill="none" stroke="grey" stroke-width="2" d="M1212.18,-937.97C1209.12,-937.3 1206.09,-936.64 1203.12,-936 1141.59,-922.76 1071.75,-908.78 1019.37,-898.51"/>
<polygon fill="grey" stroke="grey" stroke-width="2" points="1019.27,-894.53 1008.78,-896.05 1017.92,-901.4 1019.27,-894.53"/>
</g>
<!-- 31 -->
<g id="node32" class="node">
<title>31</title>
<path fill="none" stroke="#56d8b9" stroke-width="2" d="M634.75,-900C634.75,-900 565.5,-900 565.5,-900 559.5,-900 553.5,-894 553.5,-888 553.5,-888 553.5,-876 553.5,-876 553.5,-870 559.5,-864 565.5,-864 565.5,-864 634.75,-864 634.75,-864 640.75,-864 646.75,-870 646.75,-876 646.75,-876 646.75,-888 646.75,-888 646.75,-894 640.75,-900 634.75,-900"/>
<text text-anchor="middle" x="600.12" y="-878.12" font-family="sans" font-size="10.00">combine_markers</text>
</g>
<!-- 19&#45;&gt;31 -->
<g id="edge62" class="edge">
<title>19&#45;&gt;31</title>
<path fill="none" stroke="grey" stroke-width="2" d="M1212.26,-937.48C1209.18,-936.94 1206.12,-936.44 1203.12,-936 964.28,-900.86 899.1,-940.62 661.12,-900 660.71,-899.93 660.29,-899.86 659.87,-899.78"/>
<polygon fill="grey" stroke="grey" stroke-width="2" points="660.03,-895.83 649.53,-897.23 658.61,-902.68 660.03,-895.83"/>
</g>
<!-- 19&#45;&gt;39 -->
<g id="edge66" class="edge">
<title>19&#45;&gt;39</title>
<path fill="none" stroke="grey" stroke-width="2" d="M1342.32,-951.47C1497.21,-947.3 1877.83,-933.7 1924.12,-900 1958.76,-874.79 1961.12,-853.84 1961.12,-811 1961.12,-811 1961.12,-811 1961.12,-593 1961.12,-526.76 1895.59,-491.26 1830.08,-472.32"/>
<polygon fill="grey" stroke="grey" stroke-width="2" points="1830.43,-468.24 1819.86,-468.97 1828.58,-474.99 1830.43,-468.24"/>
</g>
<!-- 40 -->
<g id="node41" class="node">
<title>40</title>
<path fill="none" stroke="#c6d856" stroke-width="2" d="M1163.88,-612C1163.88,-612 954.38,-612 954.38,-612 948.38,-612 942.38,-606 942.38,-600 942.38,-600 942.38,-588 942.38,-588 942.38,-582 948.38,-576 954.38,-576 954.38,-576 1163.88,-576 1163.88,-576 1169.88,-576 1175.88,-582 1175.88,-588 1175.88,-588 1175.88,-600 1175.88,-600 1175.88,-606 1169.88,-612 1163.88,-612"/>
<text text-anchor="middle" x="1059.12" y="-590.12" font-family="sans" font-size="10.00">inhibitory_neuron_densities_linprog_correctednissl</text>
</g>
<!-- 19&#45;&gt;40 -->
<g id="edge68" class="edge">
<title>19&#45;&gt;40</title>
<path fill="none" stroke="grey" stroke-width="2" d="M1342.23,-950.47C1491.79,-942.9 1847.12,-914.07 1847.12,-811 1847.12,-811 1847.12,-811 1847.12,-737 1847.12,-670.99 1413.35,-624.76 1189.47,-605.3"/>
<polygon fill="grey" stroke="grey" stroke-width="2" points="1189.93,-601.57 1179.67,-604.2 1189.33,-608.54 1189.93,-601.57"/>
</g>
<!-- 41 -->
<g id="node42" class="node">
<title>41</title>
<path fill="none" stroke="#5682d8" stroke-width="2" d="M1222.25,-684C1222.25,-684 1072,-684 1072,-684 1066,-684 1060,-678 1060,-672 1060,-672 1060,-660 1060,-660 1060,-654 1066,-648 1072,-648 1072,-648 1222.25,-648 1222.25,-648 1228.25,-648 1234.25,-654 1234.25,-660 1234.25,-660 1234.25,-672 1234.25,-672 1234.25,-678 1228.25,-684 1222.25,-684"/>
<text text-anchor="middle" x="1147.12" y="-662.12" font-family="sans" font-size="10.00">fit_average_densities_correctednissl</text>
</g>
<!-- 19&#45;&gt;41 -->
<g id="edge74" class="edge">
<title>19&#45;&gt;41</title>
<path fill="none" stroke="grey" stroke-width="2" d="M1342.18,-946.96C1467.54,-933.84 1735.05,-898.1 1790.12,-828 1800.01,-815.42 1798.08,-805.88 1790.12,-792 1758.62,-737.05 1727.34,-739.66 1667.12,-720 1591.7,-695.37 1376.68,-679.66 1247.98,-672.18"/>
<polygon fill="grey" stroke="grey" stroke-width="2" points="1248.21,-668.51 1238.03,-671.43 1247.81,-675.5 1248.21,-668.51"/>
</g>
<!-- 49 -->
<g id="node50" class="node">
<title>49</title>
<path fill="none" stroke="#9fd856" stroke-width="2" d="M1492.5,-756C1492.5,-756 1355.75,-756 1355.75,-756 1349.75,-756 1343.75,-750 1343.75,-744 1343.75,-744 1343.75,-732 1343.75,-732 1343.75,-726 1349.75,-720 1355.75,-720 1355.75,-720 1492.5,-720 1492.5,-720 1498.5,-720 1504.5,-726 1504.5,-732 1504.5,-732 1504.5,-744 1504.5,-744 1504.5,-750 1498.5,-756 1492.5,-756"/>
<text text-anchor="middle" x="1424.12" y="-734.12" font-family="sans" font-size="10.00">average_densities_correctednissl</text>
</g>
<!-- 19&#45;&gt;49 -->
<g id="edge82" class="edge">
<title>19&#45;&gt;49</title>
<path fill="none" stroke="grey" stroke-width="2" d="M1234.21,-935.09C1171.44,-906.42 1066.88,-847.77 1114.12,-792 1143.55,-757.26 1265.01,-763.3 1330.24,-755.58"/>
<polygon fill="grey" stroke="grey" stroke-width="2" points="1331.47,-758.65 1340.87,-753.77 1330.48,-751.72 1331.47,-758.65"/>
</g>
<!-- 19&#45;&gt;53 -->
<g id="edge90" class="edge">
<title>19&#45;&gt;53</title>
<path fill="none" stroke="grey" stroke-width="2" d="M1212.26,-937.54C1209.18,-936.98 1206.12,-936.46 1203.12,-936 1105.08,-920.85 842.09,-952.84 758.12,-900 627.5,-817.79 554.36,-708.73 633.12,-576 665.61,-521.25 731.46,-488.94 784.23,-470.93"/>
<polygon fill="grey" stroke="grey" stroke-width="2" points="785.89,-473.42 794.31,-466.98 783.72,-466.77 785.89,-473.42"/>
</g>
<!-- 54 -->
<g id="node55" class="node">
<title>54</title>
<path fill="none" stroke="#8fd856" stroke-width="2" d="M898.12,-540C898.12,-540 840.12,-540 840.12,-540 834.12,-540 828.12,-534 828.12,-528 828.12,-528 828.12,-516 828.12,-516 828.12,-510 834.12,-504 840.12,-504 840.12,-504 898.12,-504 898.12,-504 904.12,-504 910.12,-510 910.12,-516 910.12,-516 910.12,-528 910.12,-528 910.12,-534 904.12,-540 898.12,-540"/>
<text text-anchor="middle" x="869.12" y="-518.12" font-family="sans" font-size="10.00">excitatory_split</text>
</g>
<!-- 19&#45;&gt;54 -->
<g id="edge93" class="edge">
<title>19&#45;&gt;54</title>
<path fill="none" stroke="grey" stroke-width="2" d="M1212.24,-937.63C1209.17,-937.05 1206.12,-936.5 1203.12,-936 1053.25,-910.94 1008.11,-945.49 863.12,-900 799.74,-880.11 765.95,-885.18 732.12,-828 691.06,-758.56 770.69,-802.36 850.12,-612 857.89,-593.38 862.64,-571.2 865.44,-553.64"/>
<polygon fill="grey" stroke="grey" stroke-width="2" points="869.31,-553.37 867.26,-542.97 862.38,-552.37 869.31,-553.37"/>
</g>
<!-- 19&#45;&gt;56 -->
<g id="edge97" class="edge">
<title>19&#45;&gt;56</title>
<path fill="none" stroke="grey" stroke-width="2" d="M1342.1,-951.47C1501.58,-947.21 1902.98,-933.28 1953.12,-900 1990.22,-875.38 1999.12,-855.53 1999.12,-811 1999.12,-811 1999.12,-811 1999.12,-521 1999.12,-443.48 1923.43,-454.07 1849.12,-432 1670.03,-378.81 1201.47,-411.15 996.18,-396.31"/>
<polygon fill="grey" stroke="grey" stroke-width="2" points="996.59,-392.59 986.35,-395.29 996.04,-399.57 996.59,-392.59"/>
</g>
<!-- 57 -->
<g id="node58" class="node">
<title>57</title>
<path fill="none" stroke="#565bd8" stroke-width="2" d="M1158.62,-468C1158.62,-468 959.62,-468 959.62,-468 953.62,-468 947.62,-462 947.62,-456 947.62,-456 947.62,-444 947.62,-444 947.62,-438 953.62,-432 959.62,-432 959.62,-432 1158.62,-432 1158.62,-432 1164.62,-432 1170.62,-438 1170.62,-444 1170.62,-444 1170.62,-456 1170.62,-456 1170.62,-462 1164.62,-468 1158.62,-468"/>
<text text-anchor="middle" x="1059.12" y="-446.12" font-family="sans" font-size="10.00">create_mtypes_densities_from_probability_map</text>
</g>
<!-- 19&#45;&gt;57 -->
<g id="edge100" class="edge">
<title>19&#45;&gt;57</title>
<path fill="none" stroke="grey" stroke-width="2" d="M1341.96,-950.85C1459.3,-946.19 1701.9,-932.82 1779.12,-900 1835.74,-875.94 1885.12,-872.52 1885.12,-811 1885.12,-811 1885.12,-811 1885.12,-737 1885.12,-590.48 1415.16,-502.28 1184.22,-467.78"/>
<polygon fill="grey" stroke="grey" stroke-width="2" points="1183.79,-463.88 1173.38,-465.88 1182.76,-470.8 1183.79,-463.88"/>
</g>
<!-- 20 -->
<g id="node21" class="node">
<title>20</title>
<path fill="none" stroke="#61d856" stroke-width="2" d="M1133.38,-1044C1133.38,-1044 932.88,-1044 932.88,-1044 926.88,-1044 920.88,-1038 920.88,-1032 920.88,-1032 920.88,-1020 920.88,-1020 920.88,-1014 926.88,-1008 932.88,-1008 932.88,-1008 1133.38,-1008 1133.38,-1008 1139.38,-1008 1145.38,-1014 1145.38,-1020 1145.38,-1020 1145.38,-1032 1145.38,-1032 1145.38,-1038 1139.38,-1044 1133.38,-1044"/>
<text text-anchor="middle" x="1033.12" y="-1022.12" font-family="sans" font-size="10.00">create_leaves_only_hierarchy_annotation_ccfv2</text>
</g>
<!-- 20&#45;&gt;19 -->
<g id="edge37" class="edge">
<title>20&#45;&gt;19</title>
<path fill="none" stroke="grey" stroke-width="2" d="M1095.64,-1007.06C1128.21,-997.72 1168.27,-986.23 1202.46,-976.42"/>
<polygon fill="grey" stroke="grey" stroke-width="2" points="1204.12,-979.01 1212.77,-972.89 1202.19,-972.28 1204.12,-979.01"/>
</g>
<!-- 21&#45;&gt;20 -->
<g id="edge39" class="edge">
<title>21&#45;&gt;20</title>
<path fill="none" stroke="grey" stroke-width="2" d="M736.06,-1082.75C790.35,-1072.56 864.2,-1058.7 924.69,-1047.35"/>
<polygon fill="grey" stroke="grey" stroke-width="2" points="926.19,-1050.25 935.38,-1044.97 924.9,-1043.37 926.19,-1050.25"/>
</g>
<!-- 22 -->
<g id="node23" class="node">
<title>22</title>
<path fill="none" stroke="#d85e56" stroke-width="2" d="M746.12,-1332C746.12,-1332 646.12,-1332 646.12,-1332 640.12,-1332 634.12,-1326 634.12,-1320 634.12,-1320 634.12,-1308 634.12,-1308 634.12,-1302 640.12,-1296 646.12,-1296 646.12,-1296 746.12,-1296 746.12,-1296 752.12,-1296 758.12,-1302 758.12,-1308 758.12,-1308 758.12,-1320 758.12,-1320 758.12,-1326 752.12,-1332 746.12,-1332"/>
<text text-anchor="middle" x="696.12" y="-1310.12" font-family="sans" font-size="10.00">combine_v2_annotations</text>
</g>
<!-- 22&#45;&gt;21 -->
<g id="edge41" class="edge">
<title>22&#45;&gt;21</title>
<path fill="none" stroke="grey" stroke-width="2" d="M700.83,-1295.47C708.08,-1265.21 719.42,-1201.66 702.12,-1152 698.94,-1142.85 693.45,-1134.1 687.46,-1126.43"/>
<polygon fill="grey" stroke="grey" stroke-width="2" points="689.32,-1124.05 680.17,-1118.72 684,-1128.59 689.32,-1124.05"/>
</g>
<!-- 22&#45;&gt;25 -->
<g id="edge45" class="edge">
<title>22&#45;&gt;25</title>
<path fill="none" stroke="grey" stroke-width="2" d="M696.43,-1295.26C695.89,-1275.98 692.42,-1245.11 677.12,-1224 668.58,-1212.2 656.54,-1202.62 644.01,-1195.01"/>
<polygon fill="grey" stroke="grey" stroke-width="2" points="645.38,-1191.65 634.95,-1189.82 641.97,-1197.76 645.38,-1191.65"/>
</g>
<!-- 22&#45;&gt;26 -->
<g id="edge49" class="edge">
<title>22&#45;&gt;26</title>
<path fill="none" stroke="grey" stroke-width="2" d="M668.08,-1295.15C655.02,-1286.84 639.27,-1276.82 625.08,-1267.79"/>
<polygon fill="grey" stroke="grey" stroke-width="2" points="626.43,-1264.23 616.12,-1261.81 622.67,-1270.13 626.43,-1264.23"/>
</g>
<!-- 23 -->
<g id="node24" class="node">
<title>23</title>
<path fill="none" stroke="#56d8c9" stroke-width="2" d="M675.12,-1404C675.12,-1404 551.12,-1404 551.12,-1404 545.12,-1404 539.12,-1398 539.12,-1392 539.12,-1392 539.12,-1380 539.12,-1380 539.12,-1374 545.12,-1368 551.12,-1368 551.12,-1368 675.12,-1368 675.12,-1368 681.12,-1368 687.12,-1374 687.12,-1380 687.12,-1380 687.12,-1392 687.12,-1392 687.12,-1398 681.12,-1404 675.12,-1404"/>
<text text-anchor="middle" x="613.12" y="-1382.12" font-family="sans" font-size="10.00">fetch_brain_parcellation_ccfv2</text>
</g>
<!-- 23&#45;&gt;22 -->
<g id="edge43" class="edge">
<title>23&#45;&gt;22</title>
<path fill="none" stroke="grey" stroke-width="2" d="M634.07,-1367.34C643.43,-1359.44 654.67,-1349.96 664.99,-1341.26"/>
<polygon fill="grey" stroke="grey" stroke-width="2" points="667.51,-1343.02 672.9,-1333.9 663,-1337.67 667.51,-1343.02"/>
</g>
<!-- 24 -->
<g id="node25" class="node">
<title>24</title>
<path fill="none" stroke="#d89c56" stroke-width="2" d="M839,-1404C839,-1404 717.25,-1404 717.25,-1404 711.25,-1404 705.25,-1398 705.25,-1392 705.25,-1392 705.25,-1380 705.25,-1380 705.25,-1374 711.25,-1368 717.25,-1368 717.25,-1368 839,-1368 839,-1368 845,-1368 851,-1374 851,-1380 851,-1380 851,-1392 851,-1392 851,-1398 845,-1404 839,-1404"/>
<text text-anchor="middle" x="778.12" y="-1382.12" font-family="sans" font-size="10.00">fetch_fiber_parcellation_ccfv2</text>
</g>
<!-- 24&#45;&gt;22 -->
<g id="edge44" class="edge">
<title>24&#45;&gt;22</title>
<path fill="none" stroke="grey" stroke-width="2" d="M757.43,-1367.34C748.18,-1359.44 737.08,-1349.96 726.89,-1341.26"/>
<polygon fill="grey" stroke="grey" stroke-width="2" points="728.97,-1337.73 719.1,-1333.9 724.43,-1343.06 728.97,-1337.73"/>
</g>
<!-- 25&#45;&gt;21 -->
<g id="edge42" class="edge">
<title>25&#45;&gt;21</title>
<path fill="none" stroke="grey" stroke-width="2" d="M604.8,-1151.34C612.97,-1143.6 622.75,-1134.36 631.79,-1125.81"/>
<polygon fill="grey" stroke="grey" stroke-width="2" points="634.34,-1128.32 639.2,-1118.9 629.53,-1123.23 634.34,-1128.32"/>
</g>
<!-- 26&#45;&gt;25 -->
<g id="edge47" class="edge">
<title>26&#45;&gt;25</title>
<path fill="none" stroke="grey" stroke-width="2" d="M586.12,-1223.34C586.12,-1216.75 586.12,-1209.08 586.12,-1201.67"/>
<polygon fill="grey" stroke="grey" stroke-width="2" points="589.63,-1201.9 586.12,-1191.9 582.63,-1201.9 589.63,-1201.9"/>
</g>
<!-- 27 -->
<g id="node28" class="node">
<title>27</title>
<path fill="none" stroke="#56b1d8" stroke-width="2" d="M473.38,-1260C473.38,-1260 368.88,-1260 368.88,-1260 362.88,-1260 356.88,-1254 356.88,-1248 356.88,-1248 356.88,-1236 356.88,-1236 356.88,-1230 362.88,-1224 368.88,-1224 368.88,-1224 473.38,-1224 473.38,-1224 479.38,-1224 485.38,-1230 485.38,-1236 485.38,-1236 485.38,-1248 485.38,-1248 485.38,-1254 479.38,-1260 473.38,-1260"/>
<text text-anchor="middle" x="421.12" y="-1238.12" font-family="sans" font-size="10.00">fetch_isocortex_metadata</text>
</g>
<!-- 27&#45;&gt;25 -->
<g id="edge48" class="edge">
<title>27&#45;&gt;25</title>
<path fill="none" stroke="grey" stroke-width="2" d="M463.19,-1223.15C484.15,-1214.26 509.74,-1203.41 532.13,-1193.91"/>
<polygon fill="grey" stroke="grey" stroke-width="2" points="534.01,-1197.06 541.85,-1189.93 531.28,-1190.62 534.01,-1197.06"/>
</g>
<!-- 28&#45;&gt;18 -->
<g id="edge36" class="edge">
<title>28&#45;&gt;18</title>
<path fill="none" stroke="grey" stroke-width="2" d="M903.73,-795.64C912.62,-794.34 921.56,-793.09 930.12,-792 1011.41,-781.62 1236.01,-810.59 1297.12,-756 1327.29,-729.05 1316.12,-707.45 1316.12,-667 1316.12,-667 1316.12,-667 1316.12,-593 1316.12,-554.52 1311.69,-510.37 1308.22,-481.66"/>
<polygon fill="grey" stroke="grey" stroke-width="2" points="1311.33,-481.38 1306.61,-471.89 1304.39,-482.25 1311.33,-481.38"/>
</g>
<!-- 28&#45;&gt;40 -->
<g id="edge69" class="edge">
<title>28&#45;&gt;40</title>
<path fill="none" stroke="grey" stroke-width="2" d="M828.74,-791.01C836.46,-771.8 850.7,-741.25 870.12,-720 910.07,-676.3 968.37,-640.78 1009.64,-618.93"/>
<polygon fill="grey" stroke="grey" stroke-width="2" points="1011.8,-621.71 1019.06,-613.99 1008.57,-615.5 1011.8,-621.71"/>
</g>
<!-- 28&#45;&gt;41 -->
<g id="edge75" class="edge">
<title>28&#45;&gt;41</title>
<path fill="none" stroke="grey" stroke-width="2" d="M838.23,-791.08C859.44,-767.88 896.05,-729.3 913.12,-720 953.83,-697.84 1003.35,-684.93 1046.33,-677.42"/>
<polygon fill="grey" stroke="grey" stroke-width="2" points="1047.86,-680.39 1057.15,-675.3 1046.71,-673.48 1047.86,-680.39"/>
</g>
<!-- 28&#45;&gt;49 -->
<g id="edge84" class="edge">
<title>28&#45;&gt;49</title>
<path fill="none" stroke="grey" stroke-width="2" d="M903.67,-793.92C908.22,-793.23 912.72,-792.58 917.12,-792 1095.76,-768.28 1145.34,-779.88 1330.26,-755.84"/>
<polygon fill="grey" stroke="grey" stroke-width="2" points="1330.48,-758.94 1339.93,-754.16 1329.56,-752.01 1330.48,-758.94"/>
</g>
<!-- 28&#45;&gt;54 -->
<g id="edge94" class="edge">
<title>28&#45;&gt;54</title>
<path fill="none" stroke="grey" stroke-width="2" d="M825.08,-791.06C828.27,-772.93 833.88,-744.22 841.12,-720 855.88,-670.66 873.63,-662.62 883.12,-612 886.78,-592.5 883.38,-570.46 879.01,-553.2"/>
<polygon fill="grey" stroke="grey" stroke-width="2" points="881.59,-551.45 875.5,-542.78 874.85,-553.36 881.59,-551.45"/>
</g>
<!-- 29&#45;&gt;28 -->
<g id="edge52" class="edge">
<title>29&#45;&gt;28</title>
<path fill="none" stroke="grey" stroke-width="2" d="M909.3,-863.15C895.13,-854.68 877.99,-844.42 862.67,-835.25"/>
<polygon fill="grey" stroke="grey" stroke-width="2" points="864.28,-831.94 853.9,-829.81 860.68,-837.95 864.28,-831.94"/>
</g>
<!-- 29&#45;&gt;49 -->
<g id="edge83" class="edge">
<title>29&#45;&gt;49</title>
<path fill="none" stroke="grey" stroke-width="2" d="M935.48,-863.14C932.49,-842.86 931.37,-810.23 950.12,-792 1008.4,-735.37 1226.65,-764.81 1330.02,-755.57"/>
<polygon fill="grey" stroke="grey" stroke-width="2" points="1330.38,-758.72 1339.93,-754.13 1329.6,-751.76 1330.38,-758.72"/>
</g>
<!-- 30 -->
<g id="node31" class="node">
<title>30</title>
<path fill="none" stroke="#78d856" stroke-width="2" d="M1182.38,-972C1182.38,-972 1023.88,-972 1023.88,-972 1017.88,-972 1011.88,-966 1011.88,-960 1011.88,-960 1011.88,-948 1011.88,-948 1011.88,-942 1017.88,-936 1023.88,-936 1023.88,-936 1182.38,-936 1182.38,-936 1188.38,-936 1194.38,-942 1194.38,-948 1194.38,-948 1194.38,-960 1194.38,-960 1194.38,-966 1188.38,-972 1182.38,-972"/>
<text text-anchor="middle" x="1103.12" y="-950.12" font-family="sans" font-size="10.00">fetch_corrected_nissl_stained_volume</text>
</g>
<!-- 30&#45;&gt;29 -->
<g id="edge55" class="edge">
<title>30&#45;&gt;29</title>
<path fill="none" stroke="grey" stroke-width="2" d="M1061.32,-935.15C1040.58,-926.3 1015.28,-915.51 993.1,-906.04"/>
<polygon fill="grey" stroke="grey" stroke-width="2" points="993.71,-902.64 983.14,-901.93 990.97,-909.08 993.71,-902.64"/>
</g>
<!-- 31&#45;&gt;28 -->
<g id="edge53" class="edge">
<title>31&#45;&gt;28</title>
<path fill="none" stroke="grey" stroke-width="2" d="M647.75,-865.98C678.39,-856.32 718.71,-843.61 752.86,-832.84"/>
<polygon fill="grey" stroke="grey" stroke-width="2" points="754.65,-835.31 763.14,-828.97 752.55,-828.64 754.65,-835.31"/>
</g>
<!-- 32 -->
<g id="node33" class="node">
<title>32</title>
<path fill="none" stroke="#56d863" stroke-width="2" d="M424.12,-972C424.12,-972 348.12,-972 348.12,-972 342.12,-972 336.12,-966 336.12,-960 336.12,-960 336.12,-948 336.12,-948 336.12,-942 342.12,-936 348.12,-936 348.12,-936 424.12,-936 424.12,-936 430.12,-936 436.12,-942 436.12,-948 436.12,-948 436.12,-960 436.12,-960 436.12,-966 430.12,-972 424.12,-972"/>
<text text-anchor="middle" x="386.12" y="-950.12" font-family="sans" font-size="10.00">fetch_gene_aldh1l1</text>
</g>
<!-- 32&#45;&gt;31 -->
<g id="edge56" class="edge">
<title>32&#45;&gt;31</title>
<path fill="none" stroke="grey" stroke-width="2" d="M437.11,-936.32C468.24,-926.14 508.19,-913.07 540.74,-902.42"/>
<polygon fill="grey" stroke="grey" stroke-width="2" points="542.41,-904.91 550.82,-898.47 540.23,-898.25 542.41,-904.91"/>
</g>
<!-- 33 -->
<g id="node34" class="node">
<title>33</title>
<path fill="none" stroke="#afd856" stroke-width="2" d="M527.62,-972C527.62,-972 466.62,-972 466.62,-972 460.62,-972 454.62,-966 454.62,-960 454.62,-960 454.62,-948 454.62,-948 454.62,-942 460.62,-936 466.62,-936 466.62,-936 527.62,-936 527.62,-936 533.62,-936 539.62,-942 539.62,-948 539.62,-948 539.62,-960 539.62,-960 539.62,-966 533.62,-972 527.62,-972"/>
<text text-anchor="middle" x="497.12" y="-950.12" font-family="sans" font-size="10.00">fetch_gene_cnp</text>
</g>
<!-- 33&#45;&gt;31 -->
<g id="edge57" class="edge">
<title>33&#45;&gt;31</title>
<path fill="none" stroke="grey" stroke-width="2" d="M523.38,-935.15C535.49,-926.93 550.07,-917.02 563.25,-908.06"/>
<polygon fill="grey" stroke="grey" stroke-width="2" points="565.61,-910.33 571.92,-901.81 561.68,-904.54 565.61,-910.33"/>
</g>
<!-- 34 -->
<g id="node35" class="node">
<title>34</title>
<path fill="none" stroke="#61d856" stroke-width="2" d="M634.12,-972C634.12,-972 570.12,-972 570.12,-972 564.12,-972 558.12,-966 558.12,-960 558.12,-960 558.12,-948 558.12,-948 558.12,-942 564.12,-936 570.12,-936 570.12,-936 634.12,-936 634.12,-936 640.12,-936 646.12,-942 646.12,-948 646.12,-948 646.12,-960 646.12,-960 646.12,-966 640.12,-972 634.12,-972"/>
<text text-anchor="middle" x="602.12" y="-950.12" font-family="sans" font-size="10.00">fetch_gene_mbp</text>
</g>
<!-- 34&#45;&gt;31 -->
<g id="edge58" class="edge">
<title>34&#45;&gt;31</title>
<path fill="none" stroke="grey" stroke-width="2" d="M601.62,-935.34C601.43,-928.75 601.21,-921.08 601,-913.67"/>
<polygon fill="grey" stroke="grey" stroke-width="2" points="604.42,-913.8 600.64,-903.9 597.42,-914 604.42,-913.8"/>
</g>
<!-- 35 -->
<g id="node36" class="node">
<title>35</title>
<path fill="none" stroke="#d8ac56" stroke-width="2" d="M740.12,-972C740.12,-972 676.12,-972 676.12,-972 670.12,-972 664.12,-966 664.12,-960 664.12,-960 664.12,-948 664.12,-948 664.12,-942 670.12,-936 676.12,-936 676.12,-936 740.12,-936 740.12,-936 746.12,-936 752.12,-942 752.12,-948 752.12,-948 752.12,-960 752.12,-960 752.12,-966 746.12,-972 740.12,-972"/>
<text text-anchor="middle" x="708.12" y="-950.12" font-family="sans" font-size="10.00">fetch_gene_gfap</text>
</g>
<!-- 35&#45;&gt;31 -->
<g id="edge59" class="edge">
<title>35&#45;&gt;31</title>
<path fill="none" stroke="grey" stroke-width="2" d="M680.59,-935.15C667.77,-926.84 652.31,-916.82 638.37,-907.79"/>
<polygon fill="grey" stroke="grey" stroke-width="2" points="639.9,-904.31 629.61,-901.81 636.1,-910.19 639.9,-904.31"/>
</g>
<!-- 36 -->
<g id="node37" class="node">
<title>36</title>
<path fill="none" stroke="#56d8c1" stroke-width="2" d="M853.88,-972C853.88,-972 782.38,-972 782.38,-972 776.38,-972 770.38,-966 770.38,-960 770.38,-960 770.38,-948 770.38,-948 770.38,-942 776.38,-936 782.38,-936 782.38,-936 853.88,-936 853.88,-936 859.88,-936 865.88,-942 865.88,-948 865.88,-948 865.88,-960 865.88,-960 865.88,-966 859.88,-972 853.88,-972"/>
<text text-anchor="middle" x="818.12" y="-950.12" font-family="sans" font-size="10.00">fetch_gene_s100b</text>
</g>
<!-- 36&#45;&gt;31 -->
<g id="edge60" class="edge">
<title>36&#45;&gt;31</title>
<path fill="none" stroke="grey" stroke-width="2" d="M769.47,-937.38C737.06,-926.97 694.26,-913.23 659.79,-902.16"/>
<polygon fill="grey" stroke="grey" stroke-width="2" points="660.1,-897.94 649.5,-898.21 657.96,-904.6 660.1,-897.94"/>
</g>
<!-- 37 -->
<g id="node38" class="node">
<title>37</title>
<path fill="none" stroke="#d8d356" stroke-width="2" d="M982,-972C982,-972 896.25,-972 896.25,-972 890.25,-972 884.25,-966 884.25,-960 884.25,-960 884.25,-948 884.25,-948 884.25,-942 890.25,-936 896.25,-936 896.25,-936 982,-936 982,-936 988,-936 994,-942 994,-948 994,-948 994,-960 994,-960 994,-966 988,-972 982,-972"/>
<text text-anchor="middle" x="939.12" y="-950.12" font-family="sans" font-size="10.00">fetch_gene_tmem119</text>
</g>
<!-- 37&#45;&gt;31 -->
<g id="edge61" class="edge">
<title>37&#45;&gt;31</title>
<path fill="none" stroke="grey" stroke-width="2" d="M883.35,-937.86C880.58,-937.21 877.82,-936.58 875.12,-936 780.86,-915.6 755.26,-920.98 661.12,-900 660.71,-899.91 660.3,-899.82 659.88,-899.72"/>
<polygon fill="grey" stroke="grey" stroke-width="2" points="660.17,-895.7 649.62,-896.76 658.52,-902.51 660.17,-895.7"/>
</g>
<!-- 38&#45;&gt;15 -->
<g id="edge29" class="edge">
<title>38&#45;&gt;15</title>
<path fill="none" stroke="grey" stroke-width="2" d="M1145.2,-359.02C1098.7,-333.62 1013.71,-287.21 961.93,-258.93"/>
<polygon fill="grey" stroke="grey" stroke-width="2" points="963.24,-255.56 952.79,-253.84 959.89,-261.7 963.24,-255.56"/>
</g>
<!-- 39&#45;&gt;38 -->
<g id="edge63" class="edge">
<title>39&#45;&gt;38</title>
<path fill="none" stroke="grey" stroke-width="2" d="M1565.29,-431.02C1464.66,-417.5 1330.69,-399.5 1249.62,-388.61"/>
<polygon fill="grey" stroke="grey" stroke-width="2" points="1250.21,-384.75 1239.83,-386.89 1249.28,-391.69 1250.21,-384.75"/>
</g>
<!-- 40&#45;&gt;39 -->
<g id="edge67" class="edge">
<title>40&#45;&gt;39</title>
<path fill="none" stroke="grey" stroke-width="2" d="M1140.18,-575.02C1259.04,-548.64 1480.07,-499.6 1605.63,-471.74"/>
<polygon fill="grey" stroke="grey" stroke-width="2" points="1607.22,-474.53 1616.22,-468.95 1605.7,-467.7 1607.22,-474.53"/>
</g>
<!-- 40&#45;&gt;54 -->
<g id="edge92" class="edge">
<title>40&#45;&gt;54</title>
<path fill="none" stroke="grey" stroke-width="2" d="M1010.69,-575.15C983.87,-565.28 950.48,-552.97 922.86,-542.8"/>
<polygon fill="grey" stroke="grey" stroke-width="2" points="923.61,-539.61 913.02,-539.43 921.19,-546.18 923.61,-539.61"/>
</g>
<!-- 40&#45;&gt;57 -->
<g id="edge99" class="edge">
<title>40&#45;&gt;57</title>
<path fill="none" stroke="grey" stroke-width="2" d="M1023.34,-575.12C1010.06,-566.48 996.45,-554.74 989.12,-540 982,-525.67 982,-518.33 989.12,-504 994.51,-493.17 1003.27,-483.97 1012.81,-476.42"/>
<polygon fill="grey" stroke="grey" stroke-width="2" points="1015.25,-478.55 1021.34,-469.88 1011.17,-472.86 1015.25,-478.55"/>
</g>
<!-- 59 -->
<g id="node60" class="node">
<title>59</title>
<path fill="none" stroke="#d8cb56" stroke-width="2" d="M1108,-540C1108,-540 1010.25,-540 1010.25,-540 1004.25,-540 998.25,-534 998.25,-528 998.25,-528 998.25,-516 998.25,-516 998.25,-510 1004.25,-504 1010.25,-504 1010.25,-504 1108,-504 1108,-504 1114,-504 1120,-510 1120,-516 1120,-516 1120,-528 1120,-528 1120,-534 1114,-540 1108,-540"/>
<text text-anchor="middle" x="1059.12" y="-518.12" font-family="sans" font-size="10.00">compute_lamp5_density</text>
</g>
<!-- 40&#45;&gt;59 -->
<g id="edge103" class="edge">
<title>40&#45;&gt;59</title>
<path fill="none" stroke="grey" stroke-width="2" d="M1059.12,-575.34C1059.12,-568.75 1059.12,-561.08 1059.12,-553.67"/>
<polygon fill="grey" stroke="grey" stroke-width="2" points="1062.63,-553.9 1059.12,-543.9 1055.63,-553.9 1062.63,-553.9"/>
</g>
<!-- 41&#45;&gt;40 -->
<g id="edge70" class="edge">
<title>41&#45;&gt;40</title>
<path fill="none" stroke="grey" stroke-width="2" d="M1124.92,-647.34C1114.89,-639.36 1102.83,-629.77 1091.8,-620.99"/>
<polygon fill="grey" stroke="grey" stroke-width="2" points="1093.63,-617.39 1083.63,-613.9 1089.28,-622.87 1093.63,-617.39"/>
</g>
<!-- 42 -->
<g id="node43" class="node">
<title>42</title>
<path fill="none" stroke="#56d87b" stroke-width="2" d="M1645.75,-756C1645.75,-756 1534.5,-756 1534.5,-756 1528.5,-756 1522.5,-750 1522.5,-744 1522.5,-744 1522.5,-732 1522.5,-732 1522.5,-726 1528.5,-720 1534.5,-720 1534.5,-720 1645.75,-720 1645.75,-720 1651.75,-720 1657.75,-726 1657.75,-732 1657.75,-732 1657.75,-744 1657.75,-744 1657.75,-750 1651.75,-756 1645.75,-756"/>
<text text-anchor="middle" x="1590.12" y="-734.12" font-family="sans" font-size="10.00">fetch_genes_correctednissl</text>
</g>
<!-- 42&#45;&gt;41 -->
<g id="edge71" class="edge">
<title>42&#45;&gt;41</title>
<path fill="none" stroke="grey" stroke-width="2" d="M1521.74,-721.63C1518.84,-721.06 1515.95,-720.52 1513.12,-720 1423.71,-703.68 1321.27,-689.2 1247.55,-679.52"/>
<polygon fill="grey" stroke="grey" stroke-width="2" points="1248.42,-675.71 1238.05,-677.89 1247.52,-682.65 1248.42,-675.71"/>
</g>
<!-- 43 -->
<g id="node44" class="node">
<title>43</title>
<path fill="none" stroke="#d87556" stroke-width="2" d="M1257,-828C1257,-828 1135.25,-828 1135.25,-828 1129.25,-828 1123.25,-822 1123.25,-816 1123.25,-816 1123.25,-804 1123.25,-804 1123.25,-798 1129.25,-792 1135.25,-792 1135.25,-792 1257,-792 1257,-792 1263,-792 1269,-798 1269,-804 1269,-804 1269,-816 1269,-816 1269,-822 1263,-828 1257,-828"/>
<text text-anchor="middle" x="1196.12" y="-806.12" font-family="sans" font-size="10.00">fetch_gene_pv_correctednissl</text>
</g>
<!-- 43&#45;&gt;42 -->
<g id="edge78" class="edge">
<title>43&#45;&gt;42</title>
<path fill="none" stroke="grey" stroke-width="2" d="M1269.85,-793.53C1272.64,-793 1275.41,-792.49 1278.12,-792 1378.15,-773.98 1407.08,-775.27 1509.25,-756.65"/>
<polygon fill="grey" stroke="grey" stroke-width="2" points="1510.54,-759.6 1519.74,-754.34 1509.27,-752.72 1510.54,-759.6"/>
</g>
<!-- 44 -->
<g id="node45" class="node">
<title>44</title>
<path fill="none" stroke="#88d856" stroke-width="2" d="M1423.5,-828C1423.5,-828 1298.75,-828 1298.75,-828 1292.75,-828 1286.75,-822 1286.75,-816 1286.75,-816 1286.75,-804 1286.75,-804 1286.75,-798 1292.75,-792 1298.75,-792 1298.75,-792 1423.5,-792 1423.5,-792 1429.5,-792 1435.5,-798 1435.5,-804 1435.5,-804 1435.5,-816 1435.5,-816 1435.5,-822 1429.5,-828 1423.5,-828"/>
<text text-anchor="middle" x="1361.12" y="-806.12" font-family="sans" font-size="10.00">fetch_gene_sst_correctednissl</text>
</g>
<!-- 44&#45;&gt;42 -->
<g id="edge79" class="edge">
<title>44&#45;&gt;42</title>
<path fill="none" stroke="grey" stroke-width="2" d="M1419.8,-791.06C1450.1,-781.8 1487.31,-770.43 1519.21,-760.68"/>
<polygon fill="grey" stroke="grey" stroke-width="2" points="1521.06,-763.16 1529.6,-756.89 1519.02,-756.47 1521.06,-763.16"/>
</g>
<!-- 45 -->
<g id="node46" class="node">
<title>45</title>
<path fill="none" stroke="#56d8a9" stroke-width="2" d="M1589.12,-828C1589.12,-828 1465.12,-828 1465.12,-828 1459.12,-828 1453.12,-822 1453.12,-816 1453.12,-816 1453.12,-804 1453.12,-804 1453.12,-798 1459.12,-792 1465.12,-792 1465.12,-792 1589.12,-792 1589.12,-792 1595.12,-792 1601.12,-798 1601.12,-804 1601.12,-804 1601.12,-816 1601.12,-816 1601.12,-822 1595.12,-828 1589.12,-828"/>
<text text-anchor="middle" x="1527.12" y="-806.12" font-family="sans" font-size="10.00">fetch_gene_vip_correctednissl</text>
</g>
<!-- 45&#45;&gt;42 -->
<g id="edge80" class="edge">
<title>45&#45;&gt;42</title>
<path fill="none" stroke="grey" stroke-width="2" d="M1543.02,-791.34C1549.83,-783.77 1557.95,-774.75 1565.51,-766.35"/>
<polygon fill="grey" stroke="grey" stroke-width="2" points="1567.93,-768.68 1572.01,-758.9 1562.72,-763.99 1567.93,-768.68"/>
</g>
<!-- 46 -->
<g id="node47" class="node">
<title>46</title>
<path fill="none" stroke="#56c9d8" stroke-width="2" d="M1768.88,-828C1768.88,-828 1631.38,-828 1631.38,-828 1625.38,-828 1619.38,-822 1619.38,-816 1619.38,-816 1619.38,-804 1619.38,-804 1619.38,-798 1625.38,-792 1631.38,-792 1631.38,-792 1768.88,-792 1768.88,-792 1774.88,-792 1780.88,-798 1780.88,-804 1780.88,-804 1780.88,-816 1780.88,-816 1780.88,-822 1774.88,-828 1768.88,-828"/>
<text text-anchor="middle" x="1700.12" y="-806.12" font-family="sans" font-size="10.00">fetch_gene_gad67_correctednissl</text>
</g>
<!-- 46&#45;&gt;42 -->
<g id="edge81" class="edge">
<title>46&#45;&gt;42</title>
<path fill="none" stroke="grey" stroke-width="2" d="M1672.08,-791.15C1659.02,-782.84 1643.27,-772.82 1629.08,-763.79"/>
<polygon fill="grey" stroke="grey" stroke-width="2" points="1630.43,-760.23 1620.12,-757.81 1626.67,-766.13 1630.43,-760.23"/>
</g>
<!-- 47 -->
<g id="node48" class="node">
<title>47</title>
<path fill="none" stroke="#56d8d8" stroke-width="2" d="M1022.5,-756C1022.5,-756 933.75,-756 933.75,-756 927.75,-756 921.75,-750 921.75,-744 921.75,-744 921.75,-732 921.75,-732 921.75,-726 927.75,-720 933.75,-720 933.75,-720 1022.5,-720 1022.5,-720 1028.5,-720 1034.5,-726 1034.5,-732 1034.5,-732 1034.5,-744 1034.5,-744 1034.5,-750 1028.5,-756 1022.5,-756"/>
<text text-anchor="middle" x="978.12" y="-734.12" font-family="sans" font-size="10.00">fetch_realigned_slices</text>
</g>
<!-- 47&#45;&gt;41 -->
<g id="edge72" class="edge">
<title>47&#45;&gt;41</title>
<path fill="none" stroke="grey" stroke-width="2" d="M1021.21,-719.15C1042.68,-710.26 1068.89,-699.41 1091.82,-689.91"/>
<polygon fill="grey" stroke="grey" stroke-width="2" points="1093.93,-692.99 1101.83,-685.93 1091.25,-686.53 1093.93,-692.99"/>
</g>
<!-- 48 -->
<g id="node49" class="node">
<title>48</title>
<path fill="none" stroke="#80d856" stroke-width="2" d="M1122.12,-756C1122.12,-756 1064.12,-756 1064.12,-756 1058.12,-756 1052.12,-750 1052.12,-744 1052.12,-744 1052.12,-732 1052.12,-732 1052.12,-726 1058.12,-720 1064.12,-720 1064.12,-720 1122.12,-720 1122.12,-720 1128.12,-720 1134.12,-726 1134.12,-732 1134.12,-732 1134.12,-744 1134.12,-744 1134.12,-750 1128.12,-756 1122.12,-756"/>
<text text-anchor="middle" x="1093.12" y="-734.12" font-family="sans" font-size="10.00">fetch_std_cells</text>
</g>
<!-- 48&#45;&gt;41 -->
<g id="edge73" class="edge">
<title>48&#45;&gt;41</title>
<path fill="none" stroke="grey" stroke-width="2" d="M1106.75,-719.34C1112.4,-712.01 1119.09,-703.34 1125.39,-695.18"/>
<polygon fill="grey" stroke="grey" stroke-width="2" points="1128.98,-696.96 1132.32,-686.9 1123.44,-692.68 1128.98,-696.96"/>
</g>
<!-- 49&#45;&gt;41 -->
<g id="edge76" class="edge">
<title>49&#45;&gt;41</title>
<path fill="none" stroke="grey" stroke-width="2" d="M1353.15,-719.06C1315.69,-709.6 1269.5,-697.92 1230.36,-688.03"/>
<polygon fill="grey" stroke="grey" stroke-width="2" points="1230.47,-683.95 1219.92,-684.89 1228.75,-690.73 1230.47,-683.95"/>
</g>
<!-- 50 -->
<g id="node51" class="node">
<title>50</title>
<path fill="none" stroke="#56d8a2" stroke-width="2" d="M1054.88,-828C1054.88,-828 971.38,-828 971.38,-828 965.38,-828 959.38,-822 959.38,-816 959.38,-816 959.38,-804 959.38,-804 959.38,-798 965.38,-792 971.38,-792 971.38,-792 1054.88,-792 1054.88,-792 1060.88,-792 1066.88,-798 1066.88,-804 1066.88,-804 1066.88,-816 1066.88,-816 1066.88,-822 1060.88,-828 1054.88,-828"/>
<text text-anchor="middle" x="1013.12" y="-806.12" font-family="sans" font-size="10.00">fetch_measurements</text>
</g>
<!-- 50&#45;&gt;49 -->
<g id="edge85" class="edge">
<title>50&#45;&gt;49</title>
<path fill="none" stroke="grey" stroke-width="2" d="M1067.58,-794.87C1072.15,-793.84 1076.71,-792.87 1081.12,-792 1186.98,-771.17 1217.62,-773.73 1330.24,-755.91"/>
<polygon fill="grey" stroke="grey" stroke-width="2" points="1331.57,-758.92 1340.89,-753.88 1330.46,-752.01 1331.57,-758.92"/>
</g>
<!-- 51 -->
<g id="node52" class="node">
<title>51</title>
<path fill="none" stroke="#d88556" stroke-width="2" d="M1275.75,-756C1275.75,-756 1164.5,-756 1164.5,-756 1158.5,-756 1152.5,-750 1152.5,-744 1152.5,-744 1152.5,-732 1152.5,-732 1152.5,-726 1158.5,-720 1164.5,-720 1164.5,-720 1275.75,-720 1275.75,-720 1281.75,-720 1287.75,-726 1287.75,-732 1287.75,-732 1287.75,-744 1287.75,-744 1287.75,-750 1281.75,-756 1275.75,-756"/>
<text text-anchor="middle" x="1220.12" y="-734.12" font-family="sans" font-size="10.00">fetch_homogenous_regions</text>
</g>
<!-- 51&#45;&gt;41 -->
<g id="edge77" class="edge">
<title>51&#45;&gt;41</title>
<path fill="none" stroke="grey" stroke-width="2" d="M1201.7,-719.34C1193.64,-711.6 1184,-702.36 1175.08,-693.81"/>
<polygon fill="grey" stroke="grey" stroke-width="2" points="1177.43,-691.3 1167.79,-686.9 1172.59,-696.35 1177.43,-691.3"/>
</g>
<!-- 52&#45;&gt;15 -->
<g id="edge30" class="edge">
<title>52&#45;&gt;15</title>
<path fill="none" stroke="grey" stroke-width="2" d="M785.5,-287.15C808.32,-278.18 836.23,-267.21 860.55,-257.64"/>
<polygon fill="grey" stroke="grey" stroke-width="2" points="862.5,-260.85 870.52,-253.93 859.93,-254.34 862.5,-260.85"/>
</g>
<!-- 61 -->
<g id="node62" class="node">
<title>61</title>
<path fill="none" stroke="#d8b456" stroke-width="2" d="M823.12,-252C823.12,-252 657.12,-252 657.12,-252 651.12,-252 645.12,-246 645.12,-240 645.12,-240 645.12,-228 645.12,-228 645.12,-222 651.12,-216 657.12,-216 657.12,-216 823.12,-216 823.12,-216 829.12,-216 835.12,-222 835.12,-228 835.12,-228 835.12,-240 835.12,-240 835.12,-246 829.12,-252 823.12,-252"/>
<text text-anchor="middle" x="740.12" y="-230.12" font-family="sans" font-size="10.00">create_cellCompositionVolume_payload</text>
</g>
<!-- 52&#45;&gt;61 -->
<g id="edge107" class="edge">
<title>52&#45;&gt;61</title>
<path fill="none" stroke="grey" stroke-width="2" d="M740.12,-287.34C740.12,-280.75 740.12,-273.08 740.12,-265.67"/>
<polygon fill="grey" stroke="grey" stroke-width="2" points="743.63,-265.9 740.12,-255.9 736.63,-265.9 743.63,-265.9"/>
</g>
<!-- 53&#45;&gt;52 -->
<g id="edge86" class="edge">
<title>53&#45;&gt;52</title>
<path fill="none" stroke="grey" stroke-width="2" d="M796.21,-437.22C772.9,-429.54 749.03,-416.88 735.12,-396 723.73,-378.9 725.5,-355.6 729.85,-337.13"/>
<polygon fill="grey" stroke="grey" stroke-width="2" points="734,-337.26 733.31,-326.69 727.26,-335.38 734,-337.26"/>
</g>
<!-- 54&#45;&gt;53 -->
<g id="edge91" class="edge">
<title>54&#45;&gt;53</title>
<path fill="none" stroke="grey" stroke-width="2" d="M867.36,-503.34C866.7,-496.75 865.93,-489.08 865.19,-481.67"/>
<polygon fill="grey" stroke="grey" stroke-width="2" points="868.39,-481.5 863.92,-471.9 861.43,-482.2 868.39,-481.5"/>
</g>
<!-- 55 -->
<g id="node56" class="node">
<title>55</title>
<path fill="none" stroke="#56c1d8" stroke-width="2" d="M828.62,-612C828.62,-612 653.62,-612 653.62,-612 647.62,-612 641.62,-606 641.62,-600 641.62,-600 641.62,-588 641.62,-588 641.62,-582 647.62,-576 653.62,-576 653.62,-576 828.62,-576 828.62,-576 834.62,-576 840.62,-582 840.62,-588 840.62,-588 840.62,-600 840.62,-600 840.62,-606 834.62,-612 828.62,-612"/>
<text text-anchor="middle" x="741.12" y="-590.12" font-family="sans" font-size="10.00">fetch_mapping_cortex_all_to_exc_mtypes</text>
</g>
<!-- 55&#45;&gt;54 -->
<g id="edge95" class="edge">
<title>55&#45;&gt;54</title>
<path fill="none" stroke="grey" stroke-width="2" d="M773.76,-575.15C789.4,-566.6 808.37,-556.22 825.26,-546.99"/>
<polygon fill="grey" stroke="grey" stroke-width="2" points="827.46,-549.68 834.55,-541.81 824.1,-543.54 827.46,-549.68"/>
</g>
<!-- 56&#45;&gt;52 -->
<g id="edge87" class="edge">
<title>56&#45;&gt;52</title>
<path fill="none" stroke="grey" stroke-width="2" d="M831.77,-359.15C816.73,-350.6 798.5,-340.22 782.28,-330.99"/>
<polygon fill="grey" stroke="grey" stroke-width="2" points="783.85,-327.72 773.42,-325.81 780.38,-333.8 783.85,-327.72"/>
</g>
<!-- 57&#45;&gt;56 -->
<g id="edge98" class="edge">
<title>57&#45;&gt;56</title>
<path fill="none" stroke="grey" stroke-width="2" d="M1008.9,-431.06C983.43,-421.97 952.25,-410.83 925.28,-401.2"/>
<polygon fill="grey" stroke="grey" stroke-width="2" points="925.81,-397.96 915.21,-397.89 923.45,-404.55 925.81,-397.96"/>
</g>
<!-- 58 -->
<g id="node59" class="node">
<title>58</title>
<path fill="none" stroke="#d87d56" stroke-width="2" d="M1237.75,-540C1237.75,-540 1150.5,-540 1150.5,-540 1144.5,-540 1138.5,-534 1138.5,-528 1138.5,-528 1138.5,-516 1138.5,-516 1138.5,-510 1144.5,-504 1150.5,-504 1150.5,-504 1237.75,-504 1237.75,-504 1243.75,-504 1249.75,-510 1249.75,-516 1249.75,-516 1249.75,-528 1249.75,-528 1249.75,-534 1243.75,-540 1237.75,-540"/>
<text text-anchor="middle" x="1194.12" y="-518.12" font-family="sans" font-size="10.00">fetch_probability_map</text>
</g>
<!-- 58&#45;&gt;57 -->
<g id="edge101" class="edge">
<title>58&#45;&gt;57</title>
<path fill="none" stroke="grey" stroke-width="2" d="M1159.71,-503.15C1143.05,-494.52 1122.81,-484.02 1104.87,-474.72"/>
<polygon fill="grey" stroke="grey" stroke-width="2" points="1105.97,-471.31 1095.48,-469.81 1102.74,-477.52 1105.97,-471.31"/>
</g>
<!-- 59&#45;&gt;57 -->
<g id="edge102" class="edge">
<title>59&#45;&gt;57</title>
<path fill="none" stroke="grey" stroke-width="2" d="M1059.12,-503.34C1059.12,-496.75 1059.12,-489.08 1059.12,-481.67"/>
<polygon fill="grey" stroke="grey" stroke-width="2" points="1062.63,-481.9 1059.12,-471.9 1055.63,-481.9 1062.63,-481.9"/>
</g>
<!-- 60&#45;&gt;0 -->
<g id="edge4" class="edge">
<title>60&#45;&gt;0</title>
<path fill="none" stroke="grey" stroke-width="2" d="M632.53,-71.34C628.28,-64.26 623.28,-55.92 618.53,-48"/>
<polygon fill="grey" stroke="grey" stroke-width="2" points="621.01,-45.68 612.87,-38.9 615.01,-49.28 621.01,-45.68"/>
</g>
<!-- 61&#45;&gt;60 -->
<g id="edge105" class="edge">
<title>61&#45;&gt;60</title>
<path fill="none" stroke="grey" stroke-width="2" d="M780.1,-215.06C794.12,-206.58 808.31,-194.97 816.12,-180 823.53,-165.81 825.64,-156.86 816.12,-144 792.23,-111.69 749.02,-98.44 711.77,-93.26"/>
<polygon fill="grey" stroke="grey" stroke-width="2" points="712.22,-89.44 701.88,-91.75 711.4,-96.39 712.22,-89.44"/>
</g>
<!-- 61&#45;&gt;62 -->
<g id="edge109" class="edge">
<title>61&#45;&gt;62</title>
<path fill="none" stroke="grey" stroke-width="2" d="M731.8,-215.34C728.54,-208.43 724.71,-200.31 721.06,-192.56"/>
<polygon fill="grey" stroke="grey" stroke-width="2" points="723.99,-190.45 716.56,-182.9 717.66,-193.44 723.99,-190.45"/>
</g>
<!-- 62&#45;&gt;60 -->
<g id="edge106" class="edge">
<title>62&#45;&gt;60</title>
<path fill="none" stroke="grey" stroke-width="2" d="M690.98,-143.34C684.06,-135.77 675.81,-126.75 668.13,-118.35"/>
<polygon fill="grey" stroke="grey" stroke-width="2" points="670.82,-115.92 661.49,-110.9 665.66,-120.64 670.82,-115.92"/>
</g>
</g>
</svg>
