<?xml version="1.0" encoding="UTF-8" standalone="no"?>
<!DOCTYPE svg PUBLIC "-//W3C//DTD SVG 1.1//EN"
 "http://www.w3.org/Graphics/SVG/1.1/DTD/svg11.dtd">
<!-- Generated by graphviz version 2.43.0 (0)
 -->
<!-- Title: snakemake_dag Pages: 1 -->
<svg width="1336pt" height="413pt"
 viewBox="0.00 0.00 1336.00 413.00" xmlns="http://www.w3.org/2000/svg" xmlns:xlink="http://www.w3.org/1999/xlink">
<g id="graph0" class="graph" transform="scale(1 1) rotate(0) translate(4 409)">
<title>snakemake_dag</title>
<polygon fill="white" stroke="transparent" points="-4,4 -4,-409 1332,-409 1332,4 -4,4"/>
<!-- 0 -->
<g id="node1" class="node">
<title>0</title>
<path fill="none" stroke="#56d8b9" stroke-width="2" d="M651,-36C651,-36 505,-36 505,-36 499,-36 493,-30 493,-24 493,-24 493,-12 493,-12 493,-6 499,0 505,0 505,0 651,0 651,0 657,0 663,-6 663,-12 663,-12 663,-24 663,-24 663,-30 657,-36 651,-36"/>
<text text-anchor="middle" x="578" y="-15.5" font-family="sans" font-size="10.00">push_volumetric_ccfv3_l23split</text>
</g>
<!-- 1 -->
<g id="node2" class="node">
<title>1</title>
<path fill="none" stroke="#56d873" stroke-width="2" d="M314,-123C314,-123 224,-123 224,-123 218,-123 212,-117 212,-111 212,-111 212,-99 212,-99 212,-93 218,-87 224,-87 224,-87 314,-87 314,-87 320,-87 326,-93 326,-99 326,-99 326,-111 326,-111 326,-117 320,-123 314,-123"/>
<text text-anchor="middle" x="269" y="-102.5" font-family="sans" font-size="10.00">export_brain_region</text>
</g>
<!-- 1&#45;&gt;0 -->
<g id="edge1" class="edge">
<title>1&#45;&gt;0</title>
<path fill="none" stroke="grey" stroke-width="2" d="M247.95,-86.69C238.06,-76.51 230.19,-63.77 239,-54 255.16,-36.09 388.26,-26.8 482.78,-22.41"/>
<polygon fill="grey" stroke="grey" stroke-width="2" points="483.12,-25.9 492.96,-21.95 482.81,-18.9 483.12,-25.9"/>
<text text-anchor="middle" x="329.5" y="-57.8" font-family="Times,serif" font-size="14.00">hierarchy_mba, mesh_dir</text>
</g>
<!-- 2 -->
<g id="node3" class="node">
<title>2</title>
<path fill="none" stroke="#afd856" stroke-width="2" d="M505.5,-231C505.5,-231 362.5,-231 362.5,-231 356.5,-231 350.5,-225 350.5,-219 350.5,-219 350.5,-207 350.5,-207 350.5,-201 356.5,-195 362.5,-195 362.5,-195 505.5,-195 505.5,-195 511.5,-195 517.5,-201 517.5,-207 517.5,-207 517.5,-219 517.5,-219 517.5,-225 511.5,-231 505.5,-231"/>
<text text-anchor="middle" x="434" y="-210.5" font-family="sans" font-size="10.00">split_isocortex_layer_23_ccfv3</text>
</g>
<!-- 2&#45;&gt;0 -->
<g id="edge3" class="edge">
<title>2&#45;&gt;0</title>
<path fill="none" stroke="grey" stroke-width="2" d="M430.31,-194.96C425.75,-169.23 421.03,-119.95 443,-87 457.39,-65.41 480.81,-50.35 504.13,-40.01"/>
<polygon fill="grey" stroke="grey" stroke-width="2" points="505.51,-43.22 513.39,-36.13 502.81,-36.76 505.51,-43.22"/>
<text text-anchor="middle" x="493.5" y="-101.3" font-family="Times,serif" font-size="14.00">annotation_v3</text>
</g>
<!-- 2&#45;&gt;1 -->
<g id="edge8" class="edge">
<title>2&#45;&gt;1</title>
<path fill="none" stroke="grey" stroke-width="2" d="M350.33,-206.98C305.98,-202.38 257.84,-193.63 244,-177 233.27,-164.11 239.58,-146.3 248.55,-131.74"/>
<polygon fill="grey" stroke="grey" stroke-width="2" points="251.64,-133.41 254.34,-123.17 245.84,-129.49 251.64,-133.41"/>
<text text-anchor="middle" x="332" y="-155.3" font-family="Times,serif" font-size="14.00">hierarchy, annotation_v3</text>
</g>
<!-- 7 -->
<g id="node8" class="node">
<title>7</title>
<path fill="none" stroke="#568ad8" stroke-width="2" d="M182,-123C182,-123 12,-123 12,-123 6,-123 0,-117 0,-111 0,-111 0,-99 0,-99 0,-93 6,-87 12,-87 12,-87 182,-87 182,-87 188,-87 194,-93 194,-99 194,-99 194,-111 194,-111 194,-117 188,-123 182,-123"/>
<text text-anchor="middle" x="97" y="-102.5" font-family="sans" font-size="10.00">create_hemispheres_layer_23_ccfv3</text>
</g>
<!-- 2&#45;&gt;7 -->
<g id="edge14" class="edge">
<title>2&#45;&gt;7</title>
<path fill="none" stroke="grey" stroke-width="2" d="M350.36,-207.98C281.57,-203.47 190.33,-194.39 158,-177 138.86,-166.7 123.07,-147.78 112.35,-132.06"/>
<polygon fill="grey" stroke="grey" stroke-width="2" points="115.02,-129.75 106.64,-123.27 109.15,-133.56 115.02,-129.75"/>
<text text-anchor="middle" x="196.5" y="-155.3" font-family="Times,serif" font-size="14.00">annotation</text>
</g>
<!-- 8 -->
<g id="node9" class="node">
<title>8</title>
<path fill="none" stroke="#56b1d8" stroke-width="2" d="M639,-123C639,-123 565,-123 565,-123 559,-123 553,-117 553,-111 553,-111 553,-99 553,-99 553,-93 559,-87 565,-87 565,-87 639,-87 639,-87 645,-87 651,-93 651,-99 651,-99 651,-111 651,-111 651,-117 645,-123 639,-123"/>
<text text-anchor="middle" x="602" y="-102.5" font-family="sans" font-size="10.00">placement_hints</text>
</g>
<!-- 2&#45;&gt;8 -->
<g id="edge15" class="edge">
<title>2&#45;&gt;8</title>
<path fill="none" stroke="grey" stroke-width="2" d="M440.27,-194.84C447.39,-176.24 459.17,-148.23 468,-141 493.18,-120.37 507.51,-131.24 539,-123 540.26,-122.67 541.54,-122.33 542.83,-121.99"/>
<polygon fill="grey" stroke="grey" stroke-width="2" points="544.07,-125.29 552.84,-119.34 542.28,-118.52 544.07,-125.29"/>
<text text-anchor="middle" x="577.5" y="-155.3" font-family="Times,serif" font-size="14.00">hierarchy, parcellation_volume</text>
</g>
<!-- 3 -->
<g id="node4" class="node">
<title>3</title>
<path fill="none" stroke="#d8cb56" stroke-width="2" stroke-dasharray="5,2" d="M830,-405C830,-405 676,-405 676,-405 670,-405 664,-399 664,-393 664,-393 664,-381 664,-381 664,-375 670,-369 676,-369 676,-369 830,-369 830,-369 836,-369 842,-375 842,-381 842,-381 842,-393 842,-393 842,-399 836,-405 830,-405"/>
<text text-anchor="middle" x="753" y="-384.5" font-family="sans" font-size="10.00">fetch_ccf_brain_region_hierarchy</text>
</g>
<!-- 3&#45;&gt;2 -->
<g id="edge9" class="edge">
<title>3&#45;&gt;2</title>
<path fill="none" stroke="grey" stroke-width="2" d="M663.84,-370.2C619.55,-362.14 574.48,-353.51 570,-351 533.76,-330.73 536.22,-311.51 507,-282 492.09,-266.94 474.76,-250.75 460.73,-237.94"/>
<polygon fill="grey" stroke="grey" stroke-width="2" points="463.06,-235.33 453.31,-231.2 458.36,-240.51 463.06,-235.33"/>
<text text-anchor="middle" x="568.5" y="-296.3" font-family="Times,serif" font-size="14.00">hierarchy</text>
</g>
<!-- 5 -->
<g id="node6" class="node">
<title>5</title>
<path fill="none" stroke="#78d856" stroke-width="2" d="M799,-318C799,-318 641,-318 641,-318 635,-318 629,-312 629,-306 629,-306 629,-294 629,-294 629,-288 635,-282 641,-282 641,-282 799,-282 799,-282 805,-282 811,-288 811,-294 811,-294 811,-306 811,-306 811,-312 805,-318 799,-318"/>
<text text-anchor="middle" x="720" y="-297.5" font-family="sans" font-size="10.00">direction_vectors_isocortex_ccfv3</text>
</g>
<!-- 3&#45;&gt;5 -->
<g id="edge13" class="edge">
<title>3&#45;&gt;5</title>
<path fill="none" stroke="grey" stroke-width="2" d="M746.32,-368.8C741.76,-357.05 735.62,-341.24 730.42,-327.84"/>
<polygon fill="grey" stroke="grey" stroke-width="2" points="733.55,-326.23 726.67,-318.18 727.02,-328.76 733.55,-326.23"/>
<text text-anchor="middle" x="772.5" y="-339.8" font-family="Times,serif" font-size="14.00">hierarchy</text>
</g>
<!-- 9 -->
<g id="node10" class="node">
<title>9</title>
<path fill="none" stroke="#d8b456" stroke-width="2" d="M1128.5,-231C1128.5,-231 911.5,-231 911.5,-231 905.5,-231 899.5,-225 899.5,-219 899.5,-219 899.5,-207 899.5,-207 899.5,-201 905.5,-195 911.5,-195 911.5,-195 1128.5,-195 1128.5,-195 1134.5,-195 1140.5,-201 1140.5,-207 1140.5,-207 1140.5,-219 1140.5,-219 1140.5,-225 1134.5,-231 1128.5,-231"/>
<text text-anchor="middle" x="1020" y="-210.5" font-family="sans" font-size="10.00">interpolate_direction_vectors_isocortex_ccfv3</text>
</g>
<!-- 3&#45;&gt;9 -->
<g id="edge18" class="edge">
<title>3&#45;&gt;9</title>
<path fill="none" stroke="grey" stroke-width="2" d="M842.22,-380.03C977.53,-370.05 1221.77,-348.07 1248,-318 1286.57,-273.76 1221.18,-247.27 1150.68,-232.1"/>
<polygon fill="grey" stroke="grey" stroke-width="2" points="1151.21,-228.64 1140.71,-230.04 1149.79,-235.49 1151.21,-228.64"/>
<text text-anchor="middle" x="1293.5" y="-296.3" font-family="Times,serif" font-size="14.00">hierarchy</text>
</g>
<!-- 4 -->
<g id="node5" class="node">
<title>4</title>
<path fill="none" stroke="#d86656" stroke-width="2" stroke-dasharray="5,2" d="M634,-405C634,-405 492,-405 492,-405 486,-405 480,-399 480,-393 480,-393 480,-381 480,-381 480,-375 486,-369 492,-369 492,-369 634,-369 634,-369 640,-369 646,-375 646,-381 646,-381 646,-393 646,-393 646,-399 640,-405 634,-405"/>
<text text-anchor="middle" x="563" y="-384.5" font-family="sans" font-size="10.00">fetch_brain_parcellation_ccfv3</text>
</g>
<!-- 4&#45;&gt;2 -->
<g id="edge10" class="edge">
<title>4&#45;&gt;2</title>
<path fill="none" stroke="grey" stroke-width="2" d="M479.94,-379.99C437.62,-372.22 389.59,-355.12 363,-318 343.39,-290.62 373.1,-258.53 399.86,-237.31"/>
<polygon fill="grey" stroke="grey" stroke-width="2" points="402.19,-239.94 408.02,-231.1 397.94,-234.37 402.19,-239.94"/>
<text text-anchor="middle" x="435" y="-296.3" font-family="Times,serif" font-size="14.00">parcellation_volume</text>
</g>
<!-- 4&#45;&gt;5 -->
<g id="edge12" class="edge">
<title>4&#45;&gt;5</title>
<path fill="none" stroke="grey" stroke-width="2" d="M566.86,-368.84C570.17,-357.94 576.04,-344.35 586,-336 595.74,-327.83 607.18,-321.55 619.19,-316.72"/>
<polygon fill="grey" stroke="grey" stroke-width="2" points="620.74,-319.87 628.92,-313.14 618.33,-313.3 620.74,-319.87"/>
<text text-anchor="middle" x="658" y="-339.8" font-family="Times,serif" font-size="14.00">parcellation_volume</text>
</g>
<!-- 4&#45;&gt;9 -->
<g id="edge17" class="edge">
<title>4&#45;&gt;9</title>
<path fill="none" stroke="grey" stroke-width="2" d="M646.2,-370.36C649.17,-369.89 652.11,-369.43 655,-369 724.02,-358.65 744.32,-371.61 811,-351 873.87,-331.56 880.88,-306.38 942,-282 969.45,-271.05 985.12,-284.91 1006,-264 1012,-257.99 1015.48,-249.63 1017.48,-241.47"/>
<polygon fill="grey" stroke="grey" stroke-width="2" points="1020.97,-241.88 1019.31,-231.42 1014.08,-240.63 1020.97,-241.88"/>
<text text-anchor="middle" x="1014" y="-296.3" font-family="Times,serif" font-size="14.00">parcellation_volume</text>
</g>
<!-- 5&#45;&gt;2 -->
<g id="edge11" class="edge">
<title>5&#45;&gt;2</title>
<path fill="none" stroke="grey" stroke-width="2" d="M628.61,-284.41C606.64,-279.34 583.59,-272.67 563,-264 551.75,-259.26 551,-254.29 540,-249 528.77,-243.6 516.49,-238.7 504.4,-234.4"/>
<polygon fill="grey" stroke="grey" stroke-width="2" points="505.37,-231.03 494.77,-231.07 503.08,-237.64 505.37,-231.03"/>
<text text-anchor="middle" x="625" y="-252.8" font-family="Times,serif" font-size="14.00">direction_vectors</text>
</g>
<!-- 5&#45;&gt;8 -->
<g id="edge16" class="edge">
<title>5&#45;&gt;8</title>
<path fill="none" stroke="grey" stroke-width="2" d="M714.59,-281.81C710.44,-268.15 704.79,-248.49 701,-231 692.43,-191.44 712.05,-172.8 687,-141 680.12,-132.27 670.69,-125.69 660.6,-120.75"/>
<polygon fill="grey" stroke="grey" stroke-width="2" points="661.78,-117.45 651.21,-116.66 658.98,-123.86 661.78,-117.45"/>
<text text-anchor="middle" x="763" y="-209.3" font-family="Times,serif" font-size="14.00">direction_vectors</text>
</g>
<!-- 5&#45;&gt;9 -->
<g id="edge19" class="edge">
<title>5&#45;&gt;9</title>
<path fill="none" stroke="grey" stroke-width="2" d="M806.39,-281.97C824.15,-277.17 842.47,-271.23 859,-264 870.18,-259.11 870.82,-253.9 882,-249 895.33,-243.15 909.84,-238.15 924.27,-233.9"/>
<polygon fill="grey" stroke="grey" stroke-width="2" points="925.56,-237.17 934.23,-231.08 923.66,-230.43 925.56,-237.17"/>
<text text-anchor="middle" x="944" y="-252.8" font-family="Times,serif" font-size="14.00">direction_vectors</text>
</g>
<!-- 11 -->
<g id="node12" class="node">
<title>11</title>
<path fill="none" stroke="#5663d8" stroke-width="2" d="M831,-177C831,-177 759,-177 759,-177 753,-177 747,-171 747,-165 747,-165 747,-153 747,-153 747,-147 753,-141 759,-141 759,-141 831,-141 831,-141 837,-141 843,-147 843,-153 843,-153 843,-165 843,-165 843,-171 837,-177 831,-177"/>
<text text-anchor="middle" x="795" y="-156.5" font-family="sans" font-size="10.00">orientation_field</text>
</g>
<!-- 5&#45;&gt;11 -->
<g id="edge21" class="edge">
<title>5&#45;&gt;11</title>
<path fill="none" stroke="grey" stroke-width="2" d="M719.25,-281.88C719.74,-270.98 722.3,-257.4 731,-249 762.86,-218.24 800.66,-265.02 829,-231 839.24,-218.71 835.02,-209.83 829,-195 827.58,-191.5 825.62,-188.15 823.35,-185.02"/>
<polygon fill="grey" stroke="grey" stroke-width="2" points="825.92,-182.63 816.8,-177.24 820.57,-187.14 825.92,-182.63"/>
<text text-anchor="middle" x="793" y="-252.8" font-family="Times,serif" font-size="14.00">direction_vectors</text>
</g>
<!-- 6 -->
<g id="node7" class="node">
<title>6</title>
<path fill="none" stroke="#56d0d8" stroke-width="2" d="M1116.5,-123C1116.5,-123 1019.5,-123 1019.5,-123 1013.5,-123 1007.5,-117 1007.5,-111 1007.5,-111 1007.5,-99 1007.5,-99 1007.5,-93 1013.5,-87 1019.5,-87 1019.5,-87 1116.5,-87 1116.5,-87 1122.5,-87 1128.5,-93 1128.5,-99 1128.5,-99 1128.5,-111 1128.5,-111 1128.5,-117 1122.5,-123 1116.5,-123"/>
<text text-anchor="middle" x="1068" y="-102.5" font-family="sans" font-size="10.00">fetch_brain_template</text>
</g>
<!-- 6&#45;&gt;0 -->
<g id="edge2" class="edge">
<title>6&#45;&gt;0</title>
<path fill="none" stroke="grey" stroke-width="2" d="M1011.83,-86.88C974.49,-76.07 924.19,-62.56 879,-54 810.71,-41.07 732.75,-32.16 673.28,-26.57"/>
<polygon fill="grey" stroke="grey" stroke-width="2" points="673.43,-23.07 663.15,-25.63 672.78,-30.04 673.43,-23.07"/>
<text text-anchor="middle" x="995.5" y="-57.8" font-family="Times,serif" font-size="14.00">brain_template</text>
</g>
<!-- 7&#45;&gt;0 -->
<g id="edge4" class="edge">
<title>7&#45;&gt;0</title>
<path fill="none" stroke="grey" stroke-width="2" d="M106.68,-86.98C114.19,-75.53 125.71,-61.26 140,-54 197.79,-24.64 371.87,-18.83 482.38,-18.25"/>
<polygon fill="grey" stroke="grey" stroke-width="2" points="482.56,-21.75 492.54,-18.21 482.53,-14.75 482.56,-21.75"/>
<text text-anchor="middle" x="186" y="-57.8" font-family="Times,serif" font-size="14.00">hemispheres</text>
</g>
<!-- 8&#45;&gt;0 -->
<g id="edge5" class="edge">
<title>8&#45;&gt;0</title>
<path fill="none" stroke="grey" stroke-width="2" d="M587.97,-86.82C584.36,-81.43 580.94,-75.25 579,-69 576.76,-61.79 575.93,-53.7 575.81,-46.17"/>
<polygon fill="grey" stroke="grey" stroke-width="2" points="579.31,-46.11 576.03,-36.04 572.31,-45.96 579.31,-46.11"/>
<text text-anchor="middle" x="638" y="-57.8" font-family="Times,serif" font-size="14.00">placement_hints</text>
</g>
<!-- 9&#45;&gt;0 -->
<g id="edge6" class="edge">
<title>9&#45;&gt;0</title>
<path fill="none" stroke="grey" stroke-width="2" d="M986.19,-194.94C955.55,-178.66 909.98,-152.31 875,-123 858.59,-109.25 861.26,-98.17 843,-87 793.26,-56.56 772.49,-68.5 716,-54 696.34,-48.95 675.09,-43.54 655.3,-38.52"/>
<polygon fill="grey" stroke="grey" stroke-width="2" points="655.96,-35.08 645.4,-36.01 654.24,-41.86 655.96,-35.08"/>
<text text-anchor="middle" x="937" y="-101.3" font-family="Times,serif" font-size="14.00">direction_vectors</text>
</g>
<!-- 10 -->
<g id="node11" class="node">
<title>10</title>
<path fill="none" stroke="#d88556" stroke-width="2" d="M1227,-318C1227,-318 1107,-318 1107,-318 1101,-318 1095,-312 1095,-306 1095,-306 1095,-294 1095,-294 1095,-288 1101,-282 1107,-282 1107,-282 1227,-282 1227,-282 1233,-282 1239,-288 1239,-294 1239,-294 1239,-306 1239,-306 1239,-312 1233,-318 1227,-318"/>
<text text-anchor="middle" x="1167" y="-297.5" font-family="sans" font-size="10.00">fetch_isocortex_metadata</text>
</g>
<!-- 10&#45;&gt;9 -->
<g id="edge20" class="edge">
<title>10&#45;&gt;9</title>
<path fill="none" stroke="grey" stroke-width="2" d="M1137.25,-281.8C1114.54,-268.66 1083.06,-250.46 1058.44,-236.22"/>
<polygon fill="grey" stroke="grey" stroke-width="2" points="1060.11,-233.15 1049.7,-231.18 1056.61,-239.21 1060.11,-233.15"/>
<text text-anchor="middle" x="1136" y="-252.8" font-family="Times,serif" font-size="14.00">metadata</text>
</g>
<!-- 11&#45;&gt;0 -->
<g id="edge7" class="edge">
<title>11&#45;&gt;0</title>
<path fill="none" stroke="grey" stroke-width="2" d="M748.79,-140.88C740.08,-136.09 731.64,-130.18 725,-123 702.53,-98.7 721.54,-76.21 697,-54 689.83,-47.51 681.52,-42.22 672.68,-37.91"/>
<polygon fill="grey" stroke="grey" stroke-width="2" points="673.86,-34.61 663.3,-33.76 671.03,-41.01 673.86,-34.61"/>
<text text-anchor="middle" x="784" y="-101.3" font-family="Times,serif" font-size="14.00">orientation_field</text>
</g>
</g>
</svg>
