<?xml version="1.0" encoding="UTF-8" standalone="no"?>
<!DOCTYPE svg PUBLIC "-//W3C//DTD SVG 1.1//EN"
 "http://www.w3.org/Graphics/SVG/1.1/DTD/svg11.dtd">
<!-- Generated by graphviz version 8.0.5 (20230430.1635)
 -->
<!-- Title: snakemake_dag Pages: 1 -->
<svg width="965pt" height="506pt"
 viewBox="0.00 0.00 964.88 506.00" xmlns="http://www.w3.org/2000/svg" xmlns:xlink="http://www.w3.org/1999/xlink">
<g id="graph0" class="graph" transform="scale(1 1) rotate(0) translate(4 502)">
<title>snakemake_dag</title>
<polygon fill="white" stroke="none" points="-4,4 -4,-502 960.88,-502 960.88,4 -4,4"/>
<!-- 0 -->
<g id="node1" class="node">
<title>0</title>
<path fill="none" stroke="#9fd856" stroke-width="2" d="M461.38,-36C461.38,-36 332.88,-36 332.88,-36 326.88,-36 320.88,-30 320.88,-24 320.88,-24 320.88,-12 320.88,-12 320.88,-6 326.88,0 332.88,0 332.88,0 461.38,0 461.38,0 467.38,0 473.38,-6 473.38,-12 473.38,-12 473.38,-24 473.38,-24 473.38,-30 467.38,-36 461.38,-36"/>
<text text-anchor="middle" x="397.12" y="-14.12" font-family="sans" font-size="10.00">push_volumetric_ccfv3_l23split</text>
</g>
<!-- 1 -->
<g id="node2" class="node">
<title>1</title>
<path fill="none" stroke="#5663d8" stroke-width="2" d="M560.5,-124.5C560.5,-124.5 483.75,-124.5 483.75,-124.5 477.75,-124.5 471.75,-118.5 471.75,-112.5 471.75,-112.5 471.75,-100.5 471.75,-100.5 471.75,-94.5 477.75,-88.5 483.75,-88.5 483.75,-88.5 560.5,-88.5 560.5,-88.5 566.5,-88.5 572.5,-94.5 572.5,-100.5 572.5,-100.5 572.5,-112.5 572.5,-112.5 572.5,-118.5 566.5,-124.5 560.5,-124.5"/>
<text text-anchor="middle" x="522.12" y="-102.62" font-family="sans" font-size="10.00">export_brain_region</text>
</g>
<!-- 1&#45;&gt;0 -->
<g id="edge1" class="edge">
<title>1&#45;&gt;0</title>
<path fill="none" stroke="grey" stroke-width="2" d="M476.46,-87.54C466.32,-82.67 455.91,-76.94 446.88,-70.5 437.27,-63.66 427.95,-54.81 420.02,-46.39"/>
<polygon fill="grey" stroke="grey" stroke-width="2" points="422.72,-43.93 413.43,-38.84 417.52,-48.62 422.72,-43.93"/>
<text text-anchor="middle" x="516.25" y="-57.2" font-family="Times,serif" font-size="14.00">hierarchy_mba, mesh_dir</text>
</g>
<!-- 2 -->
<g id="node3" class="node">
<title>2</title>
<path fill="none" stroke="#56d87b" stroke-width="2" d="M402.38,-213C402.38,-213 297.88,-213 297.88,-213 291.88,-213 285.88,-207 285.88,-201 285.88,-201 285.88,-189 285.88,-189 285.88,-183 291.88,-177 297.88,-177 297.88,-177 402.38,-177 402.38,-177 408.38,-177 414.38,-183 414.38,-189 414.38,-189 414.38,-201 414.38,-201 414.38,-207 408.38,-213 402.38,-213"/>
<text text-anchor="middle" x="350.12" y="-191.12" font-family="sans" font-size="10.00">split_barrel_ccfv3_l23split</text>
</g>
<!-- 2&#45;&gt;0 -->
<g id="edge3" class="edge">
<title>2&#45;&gt;0</title>
<path fill="none" stroke="grey" stroke-width="2" d="M371.2,-176.11C375.88,-171.06 380.28,-165.23 383.12,-159 399.14,-123.89 400.72,-78.8 399.58,-49.41"/>
<polygon fill="grey" stroke="grey" stroke-width="2" points="402.93,-49.53 398.88,-39.74 395.94,-49.92 402.93,-49.53"/>
<text text-anchor="middle" x="426.62" y="-101.45" font-family="Times,serif" font-size="14.00">annotation</text>
</g>
<!-- 2&#45;&gt;1 -->
<g id="edge8" class="edge">
<title>2&#45;&gt;1</title>
<path fill="none" stroke="grey" stroke-width="2" d="M385.76,-176.08C411.59,-163.09 446.78,-145.39 474.94,-131.23"/>
<polygon fill="grey" stroke="grey" stroke-width="2" points="477.17,-134.02 484.53,-126.4 474.03,-127.77 477.17,-134.02"/>
<text text-anchor="middle" x="508.5" y="-145.7" font-family="Times,serif" font-size="14.00">hierarchy, annotation</text>
</g>
<!-- 9 -->
<g id="node10" class="node">
<title>9</title>
<path fill="none" stroke="#d8a456" stroke-width="2" d="M348.62,-124.5C348.62,-124.5 239.62,-124.5 239.62,-124.5 233.62,-124.5 227.62,-118.5 227.62,-112.5 227.62,-112.5 227.62,-100.5 227.62,-100.5 227.62,-94.5 233.62,-88.5 239.62,-88.5 239.62,-88.5 348.62,-88.5 348.62,-88.5 354.62,-88.5 360.62,-94.5 360.62,-100.5 360.62,-100.5 360.62,-112.5 360.62,-112.5 360.62,-118.5 354.62,-124.5 348.62,-124.5"/>
<text text-anchor="middle" x="294.12" y="-102.62" font-family="sans" font-size="10.00">create_hemispheres_ccfv3</text>
</g>
<!-- 2&#45;&gt;9 -->
<g id="edge16" class="edge">
<title>2&#45;&gt;9</title>
<path fill="none" stroke="grey" stroke-width="2" d="M337.76,-176.3C333.97,-170.79 329.83,-164.68 326.12,-159 321.31,-151.63 316.22,-143.57 311.56,-136.07"/>
<polygon fill="grey" stroke="grey" stroke-width="2" points="314.12,-133.93 305.89,-127.26 308.16,-137.61 314.12,-133.93"/>
<text text-anchor="middle" x="354.62" y="-145.7" font-family="Times,serif" font-size="14.00">annotation</text>
</g>
<!-- 10 -->
<g id="node11" class="node">
<title>10</title>
<path fill="none" stroke="#a7d856" stroke-width="2" d="M197.75,-124.5C197.75,-124.5 134.5,-124.5 134.5,-124.5 128.5,-124.5 122.5,-118.5 122.5,-112.5 122.5,-112.5 122.5,-100.5 122.5,-100.5 122.5,-94.5 128.5,-88.5 134.5,-88.5 134.5,-88.5 197.75,-88.5 197.75,-88.5 203.75,-88.5 209.75,-94.5 209.75,-100.5 209.75,-100.5 209.75,-112.5 209.75,-112.5 209.75,-118.5 203.75,-124.5 197.75,-124.5"/>
<text text-anchor="middle" x="166.12" y="-102.62" font-family="sans" font-size="10.00">placement_hints</text>
</g>
<!-- 2&#45;&gt;10 -->
<g id="edge17" class="edge">
<title>2&#45;&gt;10</title>
<path fill="none" stroke="grey" stroke-width="2" d="M285.24,-190.51C256.14,-186.24 222.74,-177.31 197.38,-159 189.54,-153.34 183.28,-145.05 178.5,-136.78"/>
<polygon fill="grey" stroke="grey" stroke-width="2" points="181.34,-134.68 173.69,-127.35 175.1,-137.85 181.34,-134.68"/>
<text text-anchor="middle" x="255.5" y="-145.7" font-family="Times,serif" font-size="14.00">hierarchy, annotation</text>
</g>
<!-- 3 -->
<g id="node4" class="node">
<title>3</title>
<path fill="none" stroke="#56d0d8" stroke-width="2" d="M460.25,-321C460.25,-321 334,-321 334,-321 328,-321 322,-315 322,-309 322,-309 322,-297 322,-297 322,-291 328,-285 334,-285 334,-285 460.25,-285 460.25,-285 466.25,-285 472.25,-291 472.25,-297 472.25,-297 472.25,-309 472.25,-309 472.25,-315 466.25,-321 460.25,-321"/>
<text text-anchor="middle" x="397.12" y="-299.12" font-family="sans" font-size="10.00">split_isocortex_layer_23_ccfv3</text>
</g>
<!-- 3&#45;&gt;2 -->
<g id="edge9" class="edge">
<title>3&#45;&gt;2</title>
<path fill="none" stroke="grey" stroke-width="2" d="M386.2,-284.12C383.09,-278.71 379.82,-272.7 377.12,-267 370.87,-253.76 364.97,-238.66 360.28,-225.79"/>
<polygon fill="grey" stroke="grey" stroke-width="2" points="363.68,-224.08 357.04,-215.82 357.08,-226.42 363.68,-224.08"/>
<text text-anchor="middle" x="482.12" y="-243.95" font-family="Times,serif" font-size="14.00">hierarchy_l23split, annotation_l23split</text>
</g>
<!-- 4 -->
<g id="node5" class="node">
<title>4</title>
<path fill="none" stroke="#97d856" stroke-width="2" d="M327.75,-498C327.75,-498 192.5,-498 192.5,-498 186.5,-498 180.5,-492 180.5,-486 180.5,-486 180.5,-474 180.5,-474 180.5,-468 186.5,-462 192.5,-462 192.5,-462 327.75,-462 327.75,-462 333.75,-462 339.75,-468 339.75,-474 339.75,-474 339.75,-486 339.75,-486 339.75,-492 333.75,-498 327.75,-498"/>
<text text-anchor="middle" x="260.12" y="-476.12" font-family="sans" font-size="10.00">fetch_ccf_brain_region_hierarchy</text>
</g>
<!-- 4&#45;&gt;3 -->
<g id="edge11" class="edge">
<title>4&#45;&gt;3</title>
<path fill="none" stroke="grey" stroke-width="2" d="M231.23,-461.09C201.05,-440.1 161.01,-404.29 183.38,-373.5 191.69,-362.05 259.25,-341.25 316.23,-325.38"/>
<polygon fill="grey" stroke="grey" stroke-width="2" points="317.86,-328.01 326.57,-321.97 316,-321.26 317.86,-328.01"/>
<text text-anchor="middle" x="228" y="-386.45" font-family="Times,serif" font-size="14.00">hierarchy_Allen</text>
</g>
<!-- 6 -->
<g id="node7" class="node">
<title>6</title>
<path fill="none" stroke="#56d873" stroke-width="2" d="M432.38,-409.5C432.38,-409.5 291.88,-409.5 291.88,-409.5 285.88,-409.5 279.88,-403.5 279.88,-397.5 279.88,-397.5 279.88,-385.5 279.88,-385.5 279.88,-379.5 285.88,-373.5 291.88,-373.5 291.88,-373.5 432.38,-373.5 432.38,-373.5 438.38,-373.5 444.38,-379.5 444.38,-385.5 444.38,-385.5 444.38,-397.5 444.38,-397.5 444.38,-403.5 438.38,-409.5 432.38,-409.5"/>
<text text-anchor="middle" x="362.12" y="-387.62" font-family="sans" font-size="10.00">direction_vectors_isocortex_ccfv3</text>
</g>
<!-- 4&#45;&gt;6 -->
<g id="edge15" class="edge">
<title>4&#45;&gt;6</title>
<path fill="none" stroke="grey" stroke-width="2" d="M255.82,-461.17C254.3,-450.43 254.42,-437.04 261.38,-427.5 263.94,-423.98 266.88,-420.82 270.11,-417.97"/>
<polygon fill="grey" stroke="grey" stroke-width="2" points="272.56,-420.06 278.57,-411.34 268.43,-414.4 272.56,-420.06"/>
<text text-anchor="middle" x="305" y="-430.7" font-family="Times,serif" font-size="14.00">hierarchy_Allen</text>
</g>
<!-- 11 -->
<g id="node12" class="node">
<title>11</title>
<path fill="none" stroke="#d86e56" stroke-width="2" d="M708.5,-321C708.5,-321 517.75,-321 517.75,-321 511.75,-321 505.75,-315 505.75,-309 505.75,-309 505.75,-297 505.75,-297 505.75,-291 511.75,-285 517.75,-285 517.75,-285 708.5,-285 708.5,-285 714.5,-285 720.5,-291 720.5,-297 720.5,-297 720.5,-309 720.5,-309 720.5,-315 714.5,-321 708.5,-321"/>
<text text-anchor="middle" x="613.12" y="-299.12" font-family="sans" font-size="10.00">interpolate_direction_vectors_isocortex_ccfv3</text>
</g>
<!-- 4&#45;&gt;11 -->
<g id="edge20" class="edge">
<title>4&#45;&gt;11</title>
<path fill="none" stroke="grey" stroke-width="2" d="M340.53,-472.57C389.39,-467.3 446.1,-458.33 466.12,-444 495.12,-423.26 475.59,-394.52 504.38,-373.5 538.99,-348.22 567.66,-384.61 599.12,-355.5 605.01,-350.06 608.51,-342.42 610.58,-334.68"/>
<polygon fill="grey" stroke="grey" stroke-width="2" points="614.54,-334.41 612.85,-323.95 607.65,-333.17 614.54,-334.41"/>
<text text-anchor="middle" x="548" y="-386.45" font-family="Times,serif" font-size="14.00">hierarchy_Allen</text>
</g>
<!-- 5 -->
<g id="node6" class="node">
<title>5</title>
<path fill="none" stroke="#567bd8" stroke-width="2" d="M666.12,-498C666.12,-498 542.12,-498 542.12,-498 536.12,-498 530.12,-492 530.12,-486 530.12,-486 530.12,-474 530.12,-474 530.12,-468 536.12,-462 542.12,-462 542.12,-462 666.12,-462 666.12,-462 672.12,-462 678.12,-468 678.12,-474 678.12,-474 678.12,-486 678.12,-486 678.12,-492 672.12,-498 666.12,-498"/>
<text text-anchor="middle" x="604.12" y="-476.12" font-family="sans" font-size="10.00">fetch_brain_parcellation_ccfv3</text>
</g>
<!-- 5&#45;&gt;3 -->
<g id="edge12" class="edge">
<title>5&#45;&gt;3</title>
<path fill="none" stroke="grey" stroke-width="2" d="M605.98,-461.08C607.99,-431.28 607.25,-371.61 574.12,-339 570.63,-335.56 528.1,-327.09 485.62,-319.35"/>
<polygon fill="grey" stroke="grey" stroke-width="2" points="485.54,-315.42 475.07,-317.08 484.29,-322.3 485.54,-315.42"/>
<text text-anchor="middle" x="651" y="-386.45" font-family="Times,serif" font-size="14.00">annotation_Allen</text>
</g>
<!-- 5&#45;&gt;6 -->
<g id="edge14" class="edge">
<title>5&#45;&gt;6</title>
<path fill="none" stroke="grey" stroke-width="2" d="M546.9,-461.03C530.52,-455.72 512.69,-449.78 496.38,-444 470.92,-434.99 443.02,-424.4 419.27,-415.18"/>
<polygon fill="grey" stroke="grey" stroke-width="2" points="419.86,-411.87 409.27,-411.49 417.31,-418.39 419.86,-411.87"/>
<text text-anchor="middle" x="543" y="-430.7" font-family="Times,serif" font-size="14.00">annotation_Allen</text>
</g>
<!-- 5&#45;&gt;11 -->
<g id="edge19" class="edge">
<title>5&#45;&gt;11</title>
<path fill="none" stroke="grey" stroke-width="2" d="M679.05,-468.18C744.41,-457.03 831.99,-437.34 853.12,-409.5 892.7,-357.37 812.08,-330.51 733.81,-316.99"/>
<polygon fill="grey" stroke="grey" stroke-width="2" points="733.73,-313.1 723.29,-314.93 732.59,-320.01 733.73,-313.1"/>
<text text-anchor="middle" x="910" y="-386.45" font-family="Times,serif" font-size="14.00">annotation_Allen</text>
</g>
<!-- 6&#45;&gt;3 -->
<g id="edge13" class="edge">
<title>6&#45;&gt;3</title>
<path fill="none" stroke="grey" stroke-width="2" d="M359.44,-372.67C358.65,-362.44 358.96,-349.56 363.38,-339 364.42,-336.51 365.73,-334.09 367.22,-331.76"/>
<polygon fill="grey" stroke="grey" stroke-width="2" points="370.76,-333.68 374.24,-323.68 365.28,-329.32 370.76,-333.68"/>
<text text-anchor="middle" x="410" y="-342.2" font-family="Times,serif" font-size="14.00">direction_vectors</text>
</g>
<!-- 6&#45;&gt;10 -->
<g id="edge18" class="edge">
<title>6&#45;&gt;10</title>
<path fill="none" stroke="grey" stroke-width="2" d="M280.91,-372.56C247.59,-361.97 210.5,-345.65 183.12,-321 132.22,-275.15 145.78,-184.71 157.39,-137.61"/>
<polygon fill="grey" stroke="grey" stroke-width="2" points="161.47,-137.84 160.63,-127.28 154.7,-136.06 161.47,-137.84"/>
<text text-anchor="middle" x="199" y="-243.95" font-family="Times,serif" font-size="14.00">direction_vectors</text>
</g>
<!-- 6&#45;&gt;11 -->
<g id="edge21" class="edge">
<title>6&#45;&gt;11</title>
<path fill="none" stroke="grey" stroke-width="2" d="M410.73,-372.6C438.39,-362.52 473.74,-349.82 505.38,-339 518,-334.68 531.49,-330.2 544.52,-325.93"/>
<polygon fill="grey" stroke="grey" stroke-width="2" points="546.39,-328.35 554.81,-321.93 544.22,-321.7 546.39,-328.35"/>
<text text-anchor="middle" x="552" y="-342.2" font-family="Times,serif" font-size="14.00">direction_vectors</text>
</g>
<!-- 13 -->
<g id="node14" class="node">
<title>13</title>
<path fill="none" stroke="#d89c56" stroke-width="2" d="M72.25,-267C72.25,-267 12,-267 12,-267 6,-267 0,-261 0,-255 0,-255 0,-243 0,-243 0,-237 6,-231 12,-231 12,-231 72.25,-231 72.25,-231 78.25,-231 84.25,-237 84.25,-243 84.25,-243 84.25,-255 84.25,-255 84.25,-261 78.25,-267 72.25,-267"/>
<text text-anchor="middle" x="42.12" y="-245.12" font-family="sans" font-size="10.00">orientation_field</text>
</g>
<!-- 6&#45;&gt;13 -->
<g id="edge23" class="edge">
<title>6&#45;&gt;13</title>
<path fill="none" stroke="grey" stroke-width="2" d="M278.94,-375.27C274.61,-374.63 270.32,-374.04 266.12,-373.5 241.28,-370.31 58.37,-373.91 41.38,-355.5 23.12,-335.72 26.07,-303.88 31.9,-280.34"/>
<polygon fill="grey" stroke="grey" stroke-width="2" points="36.06,-280.5 35.42,-269.93 29.32,-278.59 36.06,-280.5"/>
<text text-anchor="middle" x="89" y="-342.2" font-family="Times,serif" font-size="14.00">direction_vectors</text>
</g>
<!-- 7 -->
<g id="node8" class="node">
<title>7</title>
<path fill="none" stroke="#569ad8" stroke-width="2" d="M291.75,-321C291.75,-321 204.5,-321 204.5,-321 198.5,-321 192.5,-315 192.5,-309 192.5,-309 192.5,-297 192.5,-297 192.5,-291 198.5,-285 204.5,-285 204.5,-285 291.75,-285 291.75,-285 297.75,-285 303.75,-291 303.75,-297 303.75,-297 303.75,-309 303.75,-309 303.75,-315 297.75,-321 291.75,-321"/>
<text text-anchor="middle" x="248.12" y="-299.12" font-family="sans" font-size="10.00">fetch_barrel_positions</text>
</g>
<!-- 7&#45;&gt;2 -->
<g id="edge10" class="edge">
<title>7&#45;&gt;2</title>
<path fill="none" stroke="grey" stroke-width="2" d="M249.81,-284.23C252.16,-268.5 257.77,-245.82 271.12,-231 274.53,-227.22 278.42,-223.83 282.6,-220.79"/>
<polygon fill="grey" stroke="grey" stroke-width="2" points="284.91,-223.22 291.51,-214.93 281.18,-217.29 284.91,-223.22"/>
<text text-anchor="middle" x="314.62" y="-243.95" font-family="Times,serif" font-size="14.00">barrel_positions</text>
</g>
<!-- 8 -->
<g id="node9" class="node">
<title>8</title>
<path fill="none" stroke="#d87d56" stroke-width="2" d="M723.5,-124.5C723.5,-124.5 640.75,-124.5 640.75,-124.5 634.75,-124.5 628.75,-118.5 628.75,-112.5 628.75,-112.5 628.75,-100.5 628.75,-100.5 628.75,-94.5 634.75,-88.5 640.75,-88.5 640.75,-88.5 723.5,-88.5 723.5,-88.5 729.5,-88.5 735.5,-94.5 735.5,-100.5 735.5,-100.5 735.5,-112.5 735.5,-112.5 735.5,-118.5 729.5,-124.5 723.5,-124.5"/>
<text text-anchor="middle" x="682.12" y="-102.62" font-family="sans" font-size="10.00">fetch_brain_template</text>
</g>
<!-- 8&#45;&gt;0 -->
<g id="edge2" class="edge">
<title>8&#45;&gt;0</title>
<path fill="none" stroke="grey" stroke-width="2" d="M664.12,-87.62C651.47,-76.15 633.58,-61.96 615.12,-54 575.11,-36.74 527.64,-27.9 487.23,-23.42"/>
<polygon fill="grey" stroke="grey" stroke-width="2" points="487.67,-19.64 477.37,-22.11 486.97,-26.61 487.67,-19.64"/>
<text text-anchor="middle" x="683" y="-57.2" font-family="Times,serif" font-size="14.00">brain_template</text>
</g>
<!-- 9&#45;&gt;0 -->
<g id="edge4" class="edge">
<title>9&#45;&gt;0</title>
<path fill="none" stroke="grey" stroke-width="2" d="M297.61,-87.84C300.57,-76.9 305.83,-63.22 314.88,-54 318.83,-49.96 323.33,-46.37 328.13,-43.17"/>
<polygon fill="grey" stroke="grey" stroke-width="2" points="330.18,-45.86 337.04,-37.78 326.64,-39.82 330.18,-45.86"/>
<text text-anchor="middle" x="348.25" y="-57.2" font-family="Times,serif" font-size="14.00">hemispheres</text>
</g>
<!-- 10&#45;&gt;0 -->
<g id="edge5" class="edge">
<title>10&#45;&gt;0</title>
<path fill="none" stroke="grey" stroke-width="2" d="M176.52,-87.94C184.25,-76.45 195.87,-62.12 209.88,-54 239.17,-37.01 274.99,-28.01 307.43,-23.33"/>
<polygon fill="grey" stroke="grey" stroke-width="2" points="307.68,-26.44 317.15,-21.68 306.78,-19.49 307.68,-26.44"/>
<text text-anchor="middle" x="254.75" y="-57.2" font-family="Times,serif" font-size="14.00">placement_hints</text>
</g>
<!-- 11&#45;&gt;0 -->
<g id="edge6" class="edge">
<title>11&#45;&gt;0</title>
<path fill="none" stroke="grey" stroke-width="2" d="M613.9,-284.09C615.71,-232.87 617.99,-87.37 587.12,-54 573.19,-38.93 529.15,-30.27 486.99,-25.34"/>
<polygon fill="grey" stroke="grey" stroke-width="2" points="487.61,-21.56 477.29,-23.95 486.85,-28.52 487.61,-21.56"/>
<text text-anchor="middle" x="694.62" y="-145.7" font-family="Times,serif" font-size="14.00">direction_vectors_interpolated</text>
</g>
<!-- 12 -->
<g id="node13" class="node">
<title>12</title>
<path fill="none" stroke="#56b9d8" stroke-width="2" d="M832.38,-409.5C832.38,-409.5 727.88,-409.5 727.88,-409.5 721.88,-409.5 715.88,-403.5 715.88,-397.5 715.88,-397.5 715.88,-385.5 715.88,-385.5 715.88,-379.5 721.88,-373.5 727.88,-373.5 727.88,-373.5 832.38,-373.5 832.38,-373.5 838.38,-373.5 844.38,-379.5 844.38,-385.5 844.38,-385.5 844.38,-397.5 844.38,-397.5 844.38,-403.5 838.38,-409.5 832.38,-409.5"/>
<text text-anchor="middle" x="780.12" y="-387.62" font-family="sans" font-size="10.00">fetch_isocortex_metadata</text>
</g>
<!-- 12&#45;&gt;11 -->
<g id="edge22" class="edge">
<title>12&#45;&gt;11</title>
<path fill="none" stroke="grey" stroke-width="2" d="M745.52,-372.58C720.44,-359.59 686.28,-341.89 658.94,-327.73"/>
<polygon fill="grey" stroke="grey" stroke-width="2" points="660.17,-324.39 649.68,-322.9 656.95,-330.61 660.17,-324.39"/>
<text text-anchor="middle" x="735.88" y="-342.2" font-family="Times,serif" font-size="14.00">metadata</text>
</g>
<!-- 13&#45;&gt;0 -->
<g id="edge7" class="edge">
<title>13&#45;&gt;0</title>
<path fill="none" stroke="grey" stroke-width="2" d="M38.26,-230.1C34.47,-208.18 31.1,-170.52 45.12,-142.5 62.4,-107.99 80.3,-108.79 113.12,-88.5 143.99,-69.42 152.47,-64.75 187.12,-54 225.82,-42 269.88,-33.86 307.61,-28.47"/>
<polygon fill="grey" stroke="grey" stroke-width="2" points="308.72,-31.58 318.15,-26.75 307.77,-24.65 308.72,-31.58"/>
<text text-anchor="middle" x="90.12" y="-145.7" font-family="Times,serif" font-size="14.00">orientation_field</text>
</g>
</g>
</svg>
