<?xml version="1.0" encoding="UTF-8" standalone="no"?>
<!DOCTYPE svg PUBLIC "-//W3C//DTD SVG 1.1//EN"
 "http://www.w3.org/Graphics/SVG/1.1/DTD/svg11.dtd">
<!-- Generated by graphviz version 2.43.0 (0)
 -->
<!-- Title: snakemake_dag Pages: 1 -->
<svg width="2614pt" height="1556pt"
 viewBox="0.00 0.00 2613.50 1556.00" xmlns="http://www.w3.org/2000/svg" xmlns:xlink="http://www.w3.org/1999/xlink">
<g id="graph0" class="graph" transform="scale(1 1) rotate(0) translate(4 1552)">
<title>snakemake_dag</title>
<polygon fill="white" stroke="transparent" points="-4,4 -4,-1552 2609.5,-1552 2609.5,4 -4,4"/>
<!-- 0 -->
<g id="node1" class="node">
<title>0</title>
<path fill="none" stroke="#afd856" stroke-width="2" d="M406.5,-36C406.5,-36 314.5,-36 314.5,-36 308.5,-36 302.5,-30 302.5,-24 302.5,-24 302.5,-12 302.5,-12 302.5,-6 308.5,0 314.5,0 314.5,0 406.5,0 406.5,0 412.5,0 418.5,-6 418.5,-12 418.5,-12 418.5,-24 418.5,-24 418.5,-30 412.5,-36 406.5,-36"/>
<text text-anchor="middle" x="360.5" y="-15.5" font-family="sans" font-size="10.00">push_atlas_datasets</text>
</g>
<!-- 1 -->
<g id="node2" class="node">
<title>1</title>
<path fill="none" stroke="#56d85b" stroke-width="2" d="M384.5,-1044C384.5,-1044 298.5,-1044 298.5,-1044 292.5,-1044 286.5,-1038 286.5,-1032 286.5,-1032 286.5,-1020 286.5,-1020 286.5,-1014 292.5,-1008 298.5,-1008 298.5,-1008 384.5,-1008 384.5,-1008 390.5,-1008 396.5,-1014 396.5,-1020 396.5,-1020 396.5,-1032 396.5,-1032 396.5,-1038 390.5,-1044 384.5,-1044"/>
<text text-anchor="middle" x="341.5" y="-1023.5" font-family="sans" font-size="10.00">push_atlas_release</text>
</g>
<!-- 1&#45;&gt;0 -->
<g id="edge1" class="edge">
<title>1&#45;&gt;0</title>
<path fill="none" stroke="grey" stroke-width="2" d="M341.5,-1007.95C341.5,-981.29 341.5,-928.11 341.5,-883 341.5,-883 341.5,-883 341.5,-161 341.5,-120.86 349.05,-74.9 354.63,-46.4"/>
<polygon fill="grey" stroke="grey" stroke-width="2" points="358.11,-46.88 356.66,-36.39 351.24,-45.5 358.11,-46.88"/>
</g>
<!-- 2 -->
<g id="node3" class="node">
<title>2</title>
<path fill="none" stroke="#c6d856" stroke-width="2" d="M218.5,-1116C218.5,-1116 128.5,-1116 128.5,-1116 122.5,-1116 116.5,-1110 116.5,-1104 116.5,-1104 116.5,-1092 116.5,-1092 116.5,-1086 122.5,-1080 128.5,-1080 128.5,-1080 218.5,-1080 218.5,-1080 224.5,-1080 230.5,-1086 230.5,-1092 230.5,-1092 230.5,-1104 230.5,-1104 230.5,-1110 224.5,-1116 218.5,-1116"/>
<text text-anchor="middle" x="173.5" y="-1095.5" font-family="sans" font-size="10.00">export_brain_region</text>
</g>
<!-- 2&#45;&gt;1 -->
<g id="edge5" class="edge">
<title>2&#45;&gt;1</title>
<path fill="none" stroke="grey" stroke-width="2" d="M214.6,-1079.88C237.67,-1070.26 266.64,-1058.19 291.07,-1048.01"/>
<polygon fill="grey" stroke="grey" stroke-width="2" points="292.65,-1051.15 300.54,-1044.07 289.96,-1044.68 292.65,-1051.15"/>
</g>
<!-- 17 -->
<g id="node18" class="node">
<title>17</title>
<path fill="none" stroke="#567bd8" stroke-width="2" d="M207,-972C207,-972 148,-972 148,-972 142,-972 136,-966 136,-960 136,-960 136,-948 136,-948 136,-942 142,-936 148,-936 148,-936 207,-936 207,-936 213,-936 219,-942 219,-948 219,-948 219,-960 219,-960 219,-966 213,-972 207,-972"/>
<text text-anchor="middle" x="177.5" y="-951.5" font-family="sans" font-size="10.00">push_meshes</text>
</g>
<!-- 2&#45;&gt;17 -->
<g id="edge31" class="edge">
<title>2&#45;&gt;17</title>
<path fill="none" stroke="grey" stroke-width="2" d="M173.98,-1079.87C174.66,-1055.67 175.92,-1011.21 176.73,-982.39"/>
<polygon fill="grey" stroke="grey" stroke-width="2" points="180.23,-982.28 177.02,-972.19 173.24,-982.09 180.23,-982.28"/>
</g>
<!-- 19 -->
<g id="node20" class="node">
<title>19</title>
<path fill="none" stroke="#b6d856" stroke-width="2" d="M435,-756C435,-756 382,-756 382,-756 376,-756 370,-750 370,-744 370,-744 370,-732 370,-732 370,-726 376,-720 382,-720 382,-720 435,-720 435,-720 441,-720 447,-726 447,-732 447,-732 447,-744 447,-744 447,-750 441,-756 435,-756"/>
<text text-anchor="middle" x="408.5" y="-735.5" font-family="sans" font-size="10.00">push_masks</text>
</g>
<!-- 2&#45;&gt;19 -->
<g id="edge36" class="edge">
<title>2&#45;&gt;19</title>
<path fill="none" stroke="grey" stroke-width="2" d="M191.08,-1079.98C214.9,-1054.99 254.5,-1005.8 254.5,-955 254.5,-955 254.5,-955 254.5,-881 254.5,-822.48 315.35,-781.42 360.55,-759"/>
<polygon fill="grey" stroke="grey" stroke-width="2" points="362.14,-762.11 369.64,-754.63 359.11,-755.8 362.14,-762.11"/>
</g>
<!-- 3 -->
<g id="node4" class="node">
<title>3</title>
<path fill="none" stroke="#56c9d8" stroke-width="2" d="M1762.5,-1260C1762.5,-1260 1642.5,-1260 1642.5,-1260 1636.5,-1260 1630.5,-1254 1630.5,-1248 1630.5,-1248 1630.5,-1236 1630.5,-1236 1630.5,-1230 1636.5,-1224 1642.5,-1224 1642.5,-1224 1762.5,-1224 1762.5,-1224 1768.5,-1224 1774.5,-1230 1774.5,-1236 1774.5,-1236 1774.5,-1248 1774.5,-1248 1774.5,-1254 1768.5,-1260 1762.5,-1260"/>
<text text-anchor="middle" x="1702.5" y="-1239.5" font-family="sans" font-size="10.00">split_barrel_ccfv3_l23split</text>
</g>
<!-- 3&#45;&gt;2 -->
<g id="edge11" class="edge">
<title>3&#45;&gt;2</title>
<path fill="none" stroke="grey" stroke-width="2" d="M1630.15,-1240.91C1336.7,-1240.25 248.12,-1234.64 192.5,-1188 174.95,-1173.29 171.18,-1146.7 171.22,-1126.41"/>
<polygon fill="grey" stroke="grey" stroke-width="2" points="174.72,-1126.29 171.55,-1116.18 167.73,-1126.06 174.72,-1126.29"/>
</g>
<!-- 10 -->
<g id="node11" class="node">
<title>10</title>
<path fill="none" stroke="#56d892" stroke-width="2" d="M1051,-1188C1051,-1188 944,-1188 944,-1188 938,-1188 932,-1182 932,-1176 932,-1176 932,-1164 932,-1164 932,-1158 938,-1152 944,-1152 944,-1152 1051,-1152 1051,-1152 1057,-1152 1063,-1158 1063,-1164 1063,-1164 1063,-1176 1063,-1176 1063,-1182 1057,-1188 1051,-1188"/>
<text text-anchor="middle" x="997.5" y="-1167.5" font-family="sans" font-size="10.00">validate_annotation_v3</text>
</g>
<!-- 3&#45;&gt;10 -->
<g id="edge22" class="edge">
<title>3&#45;&gt;10</title>
<path fill="none" stroke="grey" stroke-width="2" d="M1630.46,-1237.82C1513.79,-1232.01 1276.52,-1217.47 1077.5,-1188 1076.2,-1187.81 1074.88,-1187.61 1073.56,-1187.4"/>
<polygon fill="grey" stroke="grey" stroke-width="2" points="1073.75,-1183.88 1063.3,-1185.66 1072.58,-1190.78 1073.75,-1183.88"/>
</g>
<!-- 13 -->
<g id="node14" class="node">
<title>13</title>
<path fill="none" stroke="#d87556" stroke-width="2" d="M486.5,-1116C486.5,-1116 412.5,-1116 412.5,-1116 406.5,-1116 400.5,-1110 400.5,-1104 400.5,-1104 400.5,-1092 400.5,-1092 400.5,-1086 406.5,-1080 412.5,-1080 412.5,-1080 486.5,-1080 486.5,-1080 492.5,-1080 498.5,-1086 498.5,-1092 498.5,-1092 498.5,-1104 498.5,-1104 498.5,-1110 492.5,-1116 486.5,-1116"/>
<text text-anchor="middle" x="449.5" y="-1095.5" font-family="sans" font-size="10.00">placement_hints</text>
</g>
<!-- 3&#45;&gt;13 -->
<g id="edge25" class="edge">
<title>3&#45;&gt;13</title>
<path fill="none" stroke="grey" stroke-width="2" d="M1630.11,-1240.23C1398.34,-1237.41 684.08,-1225.71 587.5,-1188 564.28,-1178.93 565.03,-1166.13 544.5,-1152 528.22,-1140.79 509.38,-1129.9 492.8,-1120.92"/>
<polygon fill="grey" stroke="grey" stroke-width="2" points="494.31,-1117.77 483.84,-1116.15 491.02,-1123.94 494.31,-1117.77"/>
</g>
<!-- 20 -->
<g id="node21" class="node">
<title>20</title>
<path fill="none" stroke="#d8c356" stroke-width="2" d="M753.5,-828C753.5,-828 625.5,-828 625.5,-828 619.5,-828 613.5,-822 613.5,-816 613.5,-816 613.5,-804 613.5,-804 613.5,-798 619.5,-792 625.5,-792 625.5,-792 753.5,-792 753.5,-792 759.5,-792 765.5,-798 765.5,-804 765.5,-804 765.5,-816 765.5,-816 765.5,-822 759.5,-828 753.5,-828"/>
<text text-anchor="middle" x="689.5" y="-807.5" font-family="sans" font-size="10.00">push_neuron_glia_densities</text>
</g>
<!-- 3&#45;&gt;20 -->
<g id="edge38" class="edge">
<title>3&#45;&gt;20</title>
<path fill="none" stroke="grey" stroke-width="2" d="M1630.44,-1241.55C1426.69,-1242.46 856.97,-1240.25 792.5,-1188 764.54,-1165.34 712.16,-921.22 695.06,-838.34"/>
<polygon fill="grey" stroke="grey" stroke-width="2" points="698.46,-837.5 693.02,-828.41 691.6,-838.91 698.46,-837.5"/>
</g>
<!-- 22 -->
<g id="node23" class="node">
<title>22</title>
<path fill="none" stroke="#56d85b" stroke-width="2" d="M1414.5,-972C1414.5,-972 1258.5,-972 1258.5,-972 1252.5,-972 1246.5,-966 1246.5,-960 1246.5,-960 1246.5,-948 1246.5,-948 1246.5,-942 1252.5,-936 1258.5,-936 1258.5,-936 1414.5,-936 1414.5,-936 1420.5,-936 1426.5,-942 1426.5,-948 1426.5,-948 1426.5,-960 1426.5,-960 1426.5,-966 1420.5,-972 1414.5,-972"/>
<text text-anchor="middle" x="1336.5" y="-951.5" font-family="sans" font-size="10.00">glia_cell_densities_correctednissl</text>
</g>
<!-- 3&#45;&gt;22 -->
<g id="edge41" class="edge">
<title>3&#45;&gt;22</title>
<path fill="none" stroke="grey" stroke-width="2" d="M1630.41,-1229.96C1581.62,-1220.96 1523.13,-1206.7 1506.5,-1188 1474.25,-1151.74 1506.33,-1125.87 1490.5,-1080 1478.48,-1045.19 1476.55,-1032.99 1449.5,-1008 1435.07,-994.66 1416.68,-984.13 1398.95,-976.08"/>
<polygon fill="grey" stroke="grey" stroke-width="2" points="1400.33,-972.86 1389.76,-972.09 1397.54,-979.28 1400.33,-972.86"/>
</g>
<!-- 24 -->
<g id="node25" class="node">
<title>24</title>
<path fill="none" stroke="#5692d8" stroke-width="2" d="M1453,-1116C1453,-1116 1328,-1116 1328,-1116 1322,-1116 1316,-1110 1316,-1104 1316,-1104 1316,-1092 1316,-1092 1316,-1086 1322,-1080 1328,-1080 1328,-1080 1453,-1080 1453,-1080 1459,-1080 1465,-1086 1465,-1092 1465,-1092 1465,-1104 1465,-1104 1465,-1110 1459,-1116 1453,-1116"/>
<text text-anchor="middle" x="1390.5" y="-1095.5" font-family="sans" font-size="10.00">cell_density_correctednissl</text>
</g>
<!-- 3&#45;&gt;24 -->
<g id="edge48" class="edge">
<title>3&#45;&gt;24</title>
<path fill="none" stroke="grey" stroke-width="2" d="M1630.25,-1239.86C1480.21,-1236.74 1145.89,-1225.61 1111.5,-1188 1006.79,-1073.48 1007.57,-1172.28 1302.5,-1116 1303.57,-1115.8 1304.65,-1115.59 1305.73,-1115.38"/>
<polygon fill="grey" stroke="grey" stroke-width="2" points="1306.45,-1118.81 1315.61,-1113.49 1305.13,-1111.93 1306.45,-1118.81"/>
</g>
<!-- 27 -->
<g id="node28" class="node">
<title>27</title>
<path fill="none" stroke="#d8cb56" stroke-width="2" d="M1875.5,-1116C1875.5,-1116 1795.5,-1116 1795.5,-1116 1789.5,-1116 1783.5,-1110 1783.5,-1104 1783.5,-1104 1783.5,-1092 1783.5,-1092 1783.5,-1086 1789.5,-1080 1795.5,-1080 1795.5,-1080 1875.5,-1080 1875.5,-1080 1881.5,-1080 1887.5,-1086 1887.5,-1092 1887.5,-1092 1887.5,-1104 1887.5,-1104 1887.5,-1110 1881.5,-1116 1875.5,-1116"/>
<text text-anchor="middle" x="1835.5" y="-1095.5" font-family="sans" font-size="10.00">combine_markers</text>
</g>
<!-- 3&#45;&gt;27 -->
<g id="edge58" class="edge">
<title>3&#45;&gt;27</title>
<path fill="none" stroke="grey" stroke-width="2" d="M1774.6,-1231.02C1824.62,-1222.45 1884.95,-1208.25 1900.5,-1188 1910.24,-1175.31 1907.36,-1166.45 1900.5,-1152 1894.93,-1140.27 1885.36,-1130.28 1875.24,-1122.25"/>
<polygon fill="grey" stroke="grey" stroke-width="2" points="1877.2,-1119.35 1867.08,-1116.22 1873.05,-1124.98 1877.2,-1119.35"/>
</g>
<!-- 34 -->
<g id="node35" class="node">
<title>34</title>
<path fill="none" stroke="#d86e56" stroke-width="2" d="M604.5,-540C604.5,-540 448.5,-540 448.5,-540 442.5,-540 436.5,-534 436.5,-528 436.5,-528 436.5,-516 436.5,-516 436.5,-510 442.5,-504 448.5,-504 448.5,-504 604.5,-504 604.5,-504 610.5,-504 616.5,-510 616.5,-516 616.5,-516 616.5,-528 616.5,-528 616.5,-534 610.5,-540 604.5,-540"/>
<text text-anchor="middle" x="526.5" y="-519.5" font-family="sans" font-size="10.00">push_inhibitory_neuron_densities</text>
</g>
<!-- 3&#45;&gt;34 -->
<g id="edge61" class="edge">
<title>3&#45;&gt;34</title>
<path fill="none" stroke="grey" stroke-width="2" d="M1630.39,-1239.82C1441.11,-1236.27 933.39,-1223.61 769.5,-1188 642.9,-1160.49 526.5,-1156.55 526.5,-1027 526.5,-1027 526.5,-1027 526.5,-665 526.5,-625 526.5,-578.65 526.5,-550.08"/>
<polygon fill="grey" stroke="grey" stroke-width="2" points="530,-550.05 526.5,-540.05 523,-550.05 530,-550.05"/>
</g>
<!-- 35 -->
<g id="node36" class="node">
<title>35</title>
<path fill="none" stroke="#61d856" stroke-width="2" d="M1359.5,-612C1359.5,-612 1225.5,-612 1225.5,-612 1219.5,-612 1213.5,-606 1213.5,-600 1213.5,-600 1213.5,-588 1213.5,-588 1213.5,-582 1219.5,-576 1225.5,-576 1225.5,-576 1359.5,-576 1359.5,-576 1365.5,-576 1371.5,-582 1371.5,-588 1371.5,-588 1371.5,-600 1371.5,-600 1371.5,-606 1365.5,-612 1359.5,-612"/>
<text text-anchor="middle" x="1292.5" y="-591.5" font-family="sans" font-size="10.00">validate_inhibitory_densities</text>
</g>
<!-- 3&#45;&gt;35 -->
<g id="edge64" class="edge">
<title>3&#45;&gt;35</title>
<path fill="none" stroke="grey" stroke-width="2" d="M1774.63,-1238.35C1937.13,-1231.95 2321.82,-1214.22 2374.5,-1188 2421.85,-1164.43 2453.5,-1151.89 2453.5,-1099 2453.5,-1099 2453.5,-1099 2453.5,-737 2453.5,-629.18 1654.34,-602.52 1382.08,-596.57"/>
<polygon fill="grey" stroke="grey" stroke-width="2" points="1381.92,-593.07 1371.84,-596.35 1381.77,-600.07 1381.92,-593.07"/>
</g>
<!-- 36 -->
<g id="node37" class="node">
<title>36</title>
<path fill="none" stroke="#56d873" stroke-width="2" d="M1751.5,-684C1751.5,-684 1511.5,-684 1511.5,-684 1505.5,-684 1499.5,-678 1499.5,-672 1499.5,-672 1499.5,-660 1499.5,-660 1499.5,-654 1505.5,-648 1511.5,-648 1511.5,-648 1751.5,-648 1751.5,-648 1757.5,-648 1763.5,-654 1763.5,-660 1763.5,-660 1763.5,-672 1763.5,-672 1763.5,-678 1757.5,-684 1751.5,-684"/>
<text text-anchor="middle" x="1631.5" y="-663.5" font-family="sans" font-size="10.00">inhibitory_neuron_densities_linprog_correctednissl</text>
</g>
<!-- 3&#45;&gt;36 -->
<g id="edge67" class="edge">
<title>3&#45;&gt;36</title>
<path fill="none" stroke="grey" stroke-width="2" d="M1774.71,-1241.14C1917.84,-1240.4 2232.07,-1233.47 2328.5,-1188 2378.53,-1164.41 2415.5,-1154.32 2415.5,-1099 2415.5,-1099 2415.5,-1099 2415.5,-809 2415.5,-711.3 2309.07,-744.53 2214.5,-720 2067.41,-681.85 1893.26,-670.19 1773.84,-667.08"/>
<polygon fill="grey" stroke="grey" stroke-width="2" points="1773.62,-663.57 1763.54,-666.83 1773.45,-670.57 1773.62,-663.57"/>
</g>
<!-- 37 -->
<g id="node38" class="node">
<title>37</title>
<path fill="none" stroke="#56d8d8" stroke-width="2" d="M1716.5,-756C1716.5,-756 1546.5,-756 1546.5,-756 1540.5,-756 1534.5,-750 1534.5,-744 1534.5,-744 1534.5,-732 1534.5,-732 1534.5,-726 1540.5,-720 1546.5,-720 1546.5,-720 1716.5,-720 1716.5,-720 1722.5,-720 1728.5,-726 1728.5,-732 1728.5,-732 1728.5,-744 1728.5,-744 1728.5,-750 1722.5,-756 1716.5,-756"/>
<text text-anchor="middle" x="1631.5" y="-735.5" font-family="sans" font-size="10.00">fit_average_densities_correctednissl</text>
</g>
<!-- 3&#45;&gt;37 -->
<g id="edge74" class="edge">
<title>3&#45;&gt;37</title>
<path fill="none" stroke="grey" stroke-width="2" d="M1774.65,-1238.65C1924.2,-1233.2 2257.59,-1217.83 2299.5,-1188 2334.83,-1162.86 2339.5,-1142.37 2339.5,-1099 2339.5,-1099 2339.5,-1099 2339.5,-953 2339.5,-906.03 2320.39,-891.76 2282.5,-864 2197.42,-801.67 1900.46,-764.52 1738.63,-748.44"/>
<polygon fill="grey" stroke="grey" stroke-width="2" points="1738.94,-744.95 1728.65,-747.46 1738.26,-751.92 1738.94,-744.95"/>
</g>
<!-- 45 -->
<g id="node46" class="node">
<title>45</title>
<path fill="none" stroke="#56d8a9" stroke-width="2" d="M1293,-828C1293,-828 1138,-828 1138,-828 1132,-828 1126,-822 1126,-816 1126,-816 1126,-804 1126,-804 1126,-798 1132,-792 1138,-792 1138,-792 1293,-792 1293,-792 1299,-792 1305,-798 1305,-804 1305,-804 1305,-816 1305,-816 1305,-822 1299,-828 1293,-828"/>
<text text-anchor="middle" x="1215.5" y="-807.5" font-family="sans" font-size="10.00">average_densities_correctednissl</text>
</g>
<!-- 3&#45;&gt;45 -->
<g id="edge84" class="edge">
<title>3&#45;&gt;45</title>
<path fill="none" stroke="grey" stroke-width="2" d="M1774.53,-1239.73C1922.32,-1236.38 2248.86,-1224.85 2282.5,-1188 2293.29,-1176.18 2291.88,-1164.96 2282.5,-1152 2222.42,-1069 1504.56,-893.71 1406.5,-864 1368.12,-852.37 1325.1,-840.35 1289.62,-830.7"/>
<polygon fill="grey" stroke="grey" stroke-width="2" points="1290.39,-827.28 1279.82,-828.04 1288.55,-834.04 1290.39,-827.28"/>
</g>
<!-- 48 -->
<g id="node49" class="node">
<title>48</title>
<path fill="none" stroke="#56d8d0" stroke-width="2" d="M834.5,-324C834.5,-324 684.5,-324 684.5,-324 678.5,-324 672.5,-318 672.5,-312 672.5,-312 672.5,-300 672.5,-300 672.5,-294 678.5,-288 684.5,-288 684.5,-288 834.5,-288 834.5,-288 840.5,-288 846.5,-294 846.5,-300 846.5,-300 846.5,-312 846.5,-312 846.5,-318 840.5,-324 834.5,-324"/>
<text text-anchor="middle" x="759.5" y="-303.5" font-family="sans" font-size="10.00">push_metype_pipeline_datasets</text>
</g>
<!-- 3&#45;&gt;48 -->
<g id="edge90" class="edge">
<title>3&#45;&gt;48</title>
<path fill="none" stroke="grey" stroke-width="2" d="M1774.75,-1239.23C1952.12,-1234.41 2398.95,-1219.28 2458.5,-1188 2503.3,-1164.47 2529.5,-1149.6 2529.5,-1099 2529.5,-1099 2529.5,-1099 2529.5,-449 2529.5,-364.39 1227.43,-320.46 856.83,-309.67"/>
<polygon fill="grey" stroke="grey" stroke-width="2" points="856.77,-306.16 846.67,-309.37 856.57,-313.16 856.77,-306.16"/>
</g>
<!-- 50 -->
<g id="node51" class="node">
<title>50</title>
<path fill="none" stroke="#70d856" stroke-width="2" d="M1889.5,-468C1889.5,-468 1661.5,-468 1661.5,-468 1655.5,-468 1649.5,-462 1649.5,-456 1649.5,-456 1649.5,-444 1649.5,-444 1649.5,-438 1655.5,-432 1661.5,-432 1661.5,-432 1889.5,-432 1889.5,-432 1895.5,-432 1901.5,-438 1901.5,-444 1901.5,-444 1901.5,-456 1901.5,-456 1901.5,-462 1895.5,-468 1889.5,-468"/>
<text text-anchor="middle" x="1775.5" y="-447.5" font-family="sans" font-size="10.00">create_mtypes_densities_from_probability_map</text>
</g>
<!-- 3&#45;&gt;50 -->
<g id="edge95" class="edge">
<title>3&#45;&gt;50</title>
<path fill="none" stroke="grey" stroke-width="2" d="M1774.53,-1238.84C1944.65,-1233.3 2361.34,-1216.92 2417.5,-1188 2463.23,-1164.45 2491.5,-1150.44 2491.5,-1099 2491.5,-1099 2491.5,-1099 2491.5,-593 2491.5,-476.11 2119.69,-453.95 1911.93,-450.69"/>
<polygon fill="grey" stroke="grey" stroke-width="2" points="1911.91,-447.19 1901.86,-450.54 1911.81,-454.18 1911.91,-447.19"/>
</g>
<!-- 58 -->
<g id="node59" class="node">
<title>58</title>
<path fill="none" stroke="#565bd8" stroke-width="2" d="M976.5,-540C976.5,-540 908.5,-540 908.5,-540 902.5,-540 896.5,-534 896.5,-528 896.5,-528 896.5,-516 896.5,-516 896.5,-510 902.5,-504 908.5,-504 908.5,-504 976.5,-504 976.5,-504 982.5,-504 988.5,-510 988.5,-516 988.5,-516 988.5,-528 988.5,-528 988.5,-534 982.5,-540 976.5,-540"/>
<text text-anchor="middle" x="942.5" y="-519.5" font-family="sans" font-size="10.00">excitatory_split</text>
</g>
<!-- 3&#45;&gt;58 -->
<g id="edge106" class="edge">
<title>3&#45;&gt;58</title>
<path fill="none" stroke="grey" stroke-width="2" d="M1630.24,-1241.06C1447.06,-1240.53 975.38,-1234.59 923.5,-1188 821.08,-1096.02 869.5,-1020.66 869.5,-883 869.5,-883 869.5,-883 869.5,-665 869.5,-620.03 898.81,-575.04 920.29,-548.1"/>
<polygon fill="grey" stroke="grey" stroke-width="2" points="923.02,-550.29 926.66,-540.35 917.61,-545.85 923.02,-550.29"/>
</g>
<!-- 60 -->
<g id="node61" class="node">
<title>60</title>
<path fill="none" stroke="#56d8b9" stroke-width="2" d="M857.5,-108C857.5,-108 757.5,-108 757.5,-108 751.5,-108 745.5,-102 745.5,-96 745.5,-96 745.5,-84 745.5,-84 745.5,-78 751.5,-72 757.5,-72 757.5,-72 857.5,-72 857.5,-72 863.5,-72 869.5,-78 869.5,-84 869.5,-84 869.5,-96 869.5,-96 869.5,-102 863.5,-108 857.5,-108"/>
<text text-anchor="middle" x="807.5" y="-87.5" font-family="sans" font-size="10.00">push_cellComposition</text>
</g>
<!-- 3&#45;&gt;60 -->
<g id="edge110" class="edge">
<title>3&#45;&gt;60</title>
<path fill="none" stroke="grey" stroke-width="2" d="M1774.59,-1239.83C1964.96,-1236.25 2471.13,-1223.48 2537.5,-1188 2581.4,-1164.53 2605.5,-1148.78 2605.5,-1099 2605.5,-1099 2605.5,-1099 2605.5,-233 2605.5,-144.89 1215.29,-101.94 879.74,-92.86"/>
<polygon fill="grey" stroke="grey" stroke-width="2" points="879.74,-89.35 869.65,-92.58 879.55,-96.35 879.74,-89.35"/>
</g>
<!-- 62 -->
<g id="node63" class="node">
<title>62</title>
<path fill="none" stroke="#56d89a" stroke-width="2" d="M977,-180C977,-180 778,-180 778,-180 772,-180 766,-174 766,-168 766,-168 766,-156 766,-156 766,-150 772,-144 778,-144 778,-144 977,-144 977,-144 983,-144 989,-150 989,-156 989,-156 989,-168 989,-168 989,-174 983,-180 977,-180"/>
<text text-anchor="middle" x="877.5" y="-159.5" font-family="sans" font-size="10.00">create_cellCompositionSummary_payload</text>
</g>
<!-- 3&#45;&gt;62 -->
<g id="edge114" class="edge">
<title>3&#45;&gt;62</title>
<path fill="none" stroke="grey" stroke-width="2" d="M1774.53,-1239.56C1958.47,-1235.4 2435.53,-1221.5 2498.5,-1188 2542.69,-1164.49 2567.5,-1149.05 2567.5,-1099 2567.5,-1099 2567.5,-1099 2567.5,-305 2567.5,-226.25 1386.79,-179.94 999.16,-166.86"/>
<polygon fill="grey" stroke="grey" stroke-width="2" points="999.15,-163.35 989.04,-166.52 998.92,-170.35 999.15,-163.35"/>
</g>
<!-- 4 -->
<g id="node5" class="node">
<title>4</title>
<path fill="none" stroke="#5663d8" stroke-width="2" d="M1348,-1332C1348,-1332 1121,-1332 1121,-1332 1115,-1332 1109,-1326 1109,-1320 1109,-1320 1109,-1308 1109,-1308 1109,-1302 1115,-1296 1121,-1296 1121,-1296 1348,-1296 1348,-1296 1354,-1296 1360,-1302 1360,-1308 1360,-1308 1360,-1320 1360,-1320 1360,-1326 1354,-1332 1348,-1332"/>
<text text-anchor="middle" x="1234.5" y="-1311.5" font-family="sans" font-size="10.00">create_leaves_only_hierarchy_annotation_ccfv3</text>
</g>
<!-- 4&#45;&gt;3 -->
<g id="edge14" class="edge">
<title>4&#45;&gt;3</title>
<path fill="none" stroke="grey" stroke-width="2" d="M1348.39,-1295.97C1432.54,-1283.38 1545.13,-1266.54 1620.56,-1255.26"/>
<polygon fill="grey" stroke="grey" stroke-width="2" points="1621.11,-1258.71 1630.48,-1253.77 1620.08,-1251.79 1621.11,-1258.71"/>
</g>
<!-- 5 -->
<g id="node6" class="node">
<title>5</title>
<path fill="none" stroke="#56d8c1" stroke-width="2" d="M539,-1404C539,-1404 396,-1404 396,-1404 390,-1404 384,-1398 384,-1392 384,-1392 384,-1380 384,-1380 384,-1374 390,-1368 396,-1368 396,-1368 539,-1368 539,-1368 545,-1368 551,-1374 551,-1380 551,-1380 551,-1392 551,-1392 551,-1398 545,-1404 539,-1404"/>
<text text-anchor="middle" x="467.5" y="-1383.5" font-family="sans" font-size="10.00">split_isocortex_layer_23_ccfv3</text>
</g>
<!-- 5&#45;&gt;4 -->
<g id="edge16" class="edge">
<title>5&#45;&gt;4</title>
<path fill="none" stroke="grey" stroke-width="2" d="M551.04,-1377.38C682.78,-1365.35 940.06,-1341.87 1098.64,-1327.4"/>
<polygon fill="grey" stroke="grey" stroke-width="2" points="1099.3,-1330.85 1108.94,-1326.46 1098.67,-1323.88 1099.3,-1330.85"/>
</g>
<!-- 6 -->
<g id="node7" class="node">
<title>6</title>
<path fill="none" stroke="#8fd856" stroke-width="2" d="M402.5,-1548C402.5,-1548 248.5,-1548 248.5,-1548 242.5,-1548 236.5,-1542 236.5,-1536 236.5,-1536 236.5,-1524 236.5,-1524 236.5,-1518 242.5,-1512 248.5,-1512 248.5,-1512 402.5,-1512 402.5,-1512 408.5,-1512 414.5,-1518 414.5,-1524 414.5,-1524 414.5,-1536 414.5,-1536 414.5,-1542 408.5,-1548 402.5,-1548"/>
<text text-anchor="middle" x="325.5" y="-1527.5" font-family="sans" font-size="10.00">fetch_ccf_brain_region_hierarchy</text>
</g>
<!-- 6&#45;&gt;5 -->
<g id="edge17" class="edge">
<title>6&#45;&gt;5</title>
<path fill="none" stroke="grey" stroke-width="2" d="M324.72,-1511.95C324.74,-1492.44 327.66,-1460.52 344.5,-1440 355.95,-1426.05 371.76,-1415.68 388.24,-1408.01"/>
<polygon fill="grey" stroke="grey" stroke-width="2" points="389.66,-1411.21 397.45,-1404.02 386.88,-1404.79 389.66,-1411.21"/>
</g>
<!-- 8 -->
<g id="node9" class="node">
<title>8</title>
<path fill="none" stroke="#d87d56" stroke-width="2" d="M523.5,-1476C523.5,-1476 365.5,-1476 365.5,-1476 359.5,-1476 353.5,-1470 353.5,-1464 353.5,-1464 353.5,-1452 353.5,-1452 353.5,-1446 359.5,-1440 365.5,-1440 365.5,-1440 523.5,-1440 523.5,-1440 529.5,-1440 535.5,-1446 535.5,-1452 535.5,-1452 535.5,-1464 535.5,-1464 535.5,-1470 529.5,-1476 523.5,-1476"/>
<text text-anchor="middle" x="444.5" y="-1455.5" font-family="sans" font-size="10.00">direction_vectors_isocortex_ccfv3</text>
</g>
<!-- 6&#45;&gt;8 -->
<g id="edge21" class="edge">
<title>6&#45;&gt;8</title>
<path fill="none" stroke="grey" stroke-width="2" d="M354.61,-1511.88C370.17,-1502.72 389.52,-1491.34 406.28,-1481.48"/>
<polygon fill="grey" stroke="grey" stroke-width="2" points="408.43,-1484.28 415.28,-1476.19 404.88,-1478.24 408.43,-1484.28"/>
</g>
<!-- 15 -->
<g id="node16" class="node">
<title>15</title>
<path fill="none" stroke="#d86656" stroke-width="2" d="M361.5,-1188C361.5,-1188 213.5,-1188 213.5,-1188 207.5,-1188 201.5,-1182 201.5,-1176 201.5,-1176 201.5,-1164 201.5,-1164 201.5,-1158 207.5,-1152 213.5,-1152 213.5,-1152 361.5,-1152 361.5,-1152 367.5,-1152 373.5,-1158 373.5,-1164 373.5,-1164 373.5,-1176 373.5,-1176 373.5,-1182 367.5,-1188 361.5,-1188"/>
<text text-anchor="middle" x="287.5" y="-1167.5" font-family="sans" font-size="10.00">direction_vectors_default_ccfv3</text>
</g>
<!-- 6&#45;&gt;15 -->
<g id="edge28" class="edge">
<title>6&#45;&gt;15</title>
<path fill="none" stroke="grey" stroke-width="2" d="M317.81,-1511.91C306.71,-1485.62 287.5,-1433.45 287.5,-1387 287.5,-1387 287.5,-1387 287.5,-1313 287.5,-1273 287.5,-1226.65 287.5,-1198.08"/>
<polygon fill="grey" stroke="grey" stroke-width="2" points="291,-1198.05 287.5,-1188.05 284,-1198.05 291,-1198.05"/>
</g>
<!-- 7 -->
<g id="node8" class="node">
<title>7</title>
<path fill="none" stroke="#d85e56" stroke-width="2" d="M634.5,-1548C634.5,-1548 492.5,-1548 492.5,-1548 486.5,-1548 480.5,-1542 480.5,-1536 480.5,-1536 480.5,-1524 480.5,-1524 480.5,-1518 486.5,-1512 492.5,-1512 492.5,-1512 634.5,-1512 634.5,-1512 640.5,-1512 646.5,-1518 646.5,-1524 646.5,-1524 646.5,-1536 646.5,-1536 646.5,-1542 640.5,-1548 634.5,-1548"/>
<text text-anchor="middle" x="563.5" y="-1527.5" font-family="sans" font-size="10.00">fetch_brain_parcellation_ccfv3</text>
</g>
<!-- 7&#45;&gt;5 -->
<g id="edge18" class="edge">
<title>7&#45;&gt;5</title>
<path fill="none" stroke="grey" stroke-width="2" d="M563.51,-1511.82C562.74,-1492.75 559.07,-1461.81 544.5,-1440 536.37,-1427.84 524.42,-1417.67 512.35,-1409.6"/>
<polygon fill="grey" stroke="grey" stroke-width="2" points="513.92,-1406.46 503.59,-1404.1 510.2,-1412.38 513.92,-1406.46"/>
</g>
<!-- 7&#45;&gt;8 -->
<g id="edge20" class="edge">
<title>7&#45;&gt;8</title>
<path fill="none" stroke="grey" stroke-width="2" d="M534.39,-1511.88C518.83,-1502.72 499.48,-1491.34 482.72,-1481.48"/>
<polygon fill="grey" stroke="grey" stroke-width="2" points="484.12,-1478.24 473.72,-1476.19 480.57,-1484.28 484.12,-1478.24"/>
</g>
<!-- 7&#45;&gt;15 -->
<g id="edge29" class="edge">
<title>7&#45;&gt;15</title>
<path fill="none" stroke="grey" stroke-width="2" d="M571.19,-1511.91C582.29,-1485.62 601.5,-1433.45 601.5,-1387 601.5,-1387 601.5,-1387 601.5,-1313 601.5,-1261.86 461.48,-1215.7 368.44,-1190.67"/>
<polygon fill="grey" stroke="grey" stroke-width="2" points="369.32,-1187.28 358.75,-1188.1 367.52,-1194.05 369.32,-1187.28"/>
</g>
<!-- 8&#45;&gt;5 -->
<g id="edge19" class="edge">
<title>8&#45;&gt;5</title>
<path fill="none" stroke="grey" stroke-width="2" d="M450.19,-1439.7C452.75,-1431.9 455.83,-1422.51 458.68,-1413.83"/>
<polygon fill="grey" stroke="grey" stroke-width="2" points="462.08,-1414.7 461.88,-1404.1 455.43,-1412.51 462.08,-1414.7"/>
</g>
<!-- 9 -->
<g id="node10" class="node">
<title>9</title>
<path fill="none" stroke="#56a2d8" stroke-width="2" d="M1753,-1332C1753,-1332 1652,-1332 1652,-1332 1646,-1332 1640,-1326 1640,-1320 1640,-1320 1640,-1308 1640,-1308 1640,-1302 1646,-1296 1652,-1296 1652,-1296 1753,-1296 1753,-1296 1759,-1296 1765,-1302 1765,-1308 1765,-1308 1765,-1320 1765,-1320 1765,-1326 1759,-1332 1753,-1332"/>
<text text-anchor="middle" x="1702.5" y="-1311.5" font-family="sans" font-size="10.00">fetch_barrel_positions</text>
</g>
<!-- 9&#45;&gt;3 -->
<g id="edge15" class="edge">
<title>9&#45;&gt;3</title>
<path fill="none" stroke="grey" stroke-width="2" d="M1702.5,-1295.7C1702.5,-1287.98 1702.5,-1278.71 1702.5,-1270.11"/>
<polygon fill="grey" stroke="grey" stroke-width="2" points="1706,-1270.1 1702.5,-1260.1 1699,-1270.1 1706,-1270.1"/>
</g>
<!-- 10&#45;&gt;1 -->
<g id="edge6" class="edge">
<title>10&#45;&gt;1</title>
<path fill="none" stroke="grey" stroke-width="2" d="M931.85,-1166.82C849.3,-1162.67 703.91,-1150.66 584.5,-1116 548.22,-1105.47 542.68,-1093.77 507.5,-1080 474.71,-1067.16 437.42,-1055.04 406.5,-1045.64"/>
<polygon fill="grey" stroke="grey" stroke-width="2" points="407.28,-1042.22 396.7,-1042.68 405.26,-1048.92 407.28,-1042.22"/>
</g>
<!-- 10&#45;&gt;2 -->
<g id="edge12" class="edge">
<title>10&#45;&gt;2</title>
<path fill="none" stroke="grey" stroke-width="2" d="M931.79,-1166.11C804.97,-1160.11 517.73,-1144.42 277.5,-1116 265.58,-1114.59 252.93,-1112.79 240.72,-1110.88"/>
<polygon fill="grey" stroke="grey" stroke-width="2" points="241.02,-1107.38 230.59,-1109.27 239.91,-1114.3 241.02,-1107.38"/>
</g>
<!-- 12 -->
<g id="node13" class="node">
<title>12</title>
<path fill="none" stroke="#d8c356" stroke-width="2" d="M728,-1116C728,-1116 605,-1116 605,-1116 599,-1116 593,-1110 593,-1104 593,-1104 593,-1092 593,-1092 593,-1086 599,-1080 605,-1080 605,-1080 728,-1080 728,-1080 734,-1080 740,-1086 740,-1092 740,-1092 740,-1104 740,-1104 740,-1110 734,-1116 728,-1116"/>
<text text-anchor="middle" x="666.5" y="-1095.5" font-family="sans" font-size="10.00">create_hemispheres_ccfv3</text>
</g>
<!-- 10&#45;&gt;12 -->
<g id="edge23" class="edge">
<title>10&#45;&gt;12</title>
<path fill="none" stroke="grey" stroke-width="2" d="M931.71,-1155.09C879.6,-1144.07 806.46,-1128.6 750.18,-1116.7"/>
<polygon fill="grey" stroke="grey" stroke-width="2" points="750.74,-1113.24 740.24,-1114.59 749.3,-1120.09 750.74,-1113.24"/>
</g>
<!-- 10&#45;&gt;13 -->
<g id="edge24" class="edge">
<title>10&#45;&gt;13</title>
<path fill="none" stroke="grey" stroke-width="2" d="M931.85,-1162.23C844.6,-1153 685.68,-1135.38 550.5,-1116 537.03,-1114.07 522.6,-1111.77 508.97,-1109.51"/>
<polygon fill="grey" stroke="grey" stroke-width="2" points="509.18,-1105.99 498.74,-1107.78 508.02,-1112.9 509.18,-1105.99"/>
</g>
<!-- 21 -->
<g id="node22" class="node">
<title>21</title>
<path fill="none" stroke="#d89c56" stroke-width="2" d="M1191,-900C1191,-900 1024,-900 1024,-900 1018,-900 1012,-894 1012,-888 1012,-888 1012,-876 1012,-876 1012,-870 1018,-864 1024,-864 1024,-864 1191,-864 1191,-864 1197,-864 1203,-870 1203,-876 1203,-876 1203,-888 1203,-888 1203,-894 1197,-900 1191,-900"/>
<text text-anchor="middle" x="1107.5" y="-879.5" font-family="sans" font-size="10.00">validate_neuron_glia_cell_densities</text>
</g>
<!-- 10&#45;&gt;21 -->
<g id="edge39" class="edge">
<title>10&#45;&gt;21</title>
<path fill="none" stroke="grey" stroke-width="2" d="M994.36,-1151.86C987.8,-1110.92 976.71,-1005.69 1020.5,-936 1028.53,-923.22 1040.87,-913.08 1053.75,-905.23"/>
<polygon fill="grey" stroke="grey" stroke-width="2" points="1055.74,-908.13 1062.71,-900.15 1052.29,-902.03 1055.74,-908.13"/>
</g>
<!-- 10&#45;&gt;22 -->
<g id="edge42" class="edge">
<title>10&#45;&gt;22</title>
<path fill="none" stroke="grey" stroke-width="2" d="M1063.21,-1152.66C1114.02,-1139.72 1177.51,-1122.72 1188.5,-1116 1246.27,-1080.65 1295.39,-1016.39 1319.87,-980.68"/>
<polygon fill="grey" stroke="grey" stroke-width="2" points="1322.86,-982.5 1325.55,-972.25 1317.06,-978.58 1322.86,-982.5"/>
</g>
<!-- 23 -->
<g id="node24" class="node">
<title>23</title>
<path fill="none" stroke="#bed856" stroke-width="2" d="M1170.5,-1044C1170.5,-1044 1074.5,-1044 1074.5,-1044 1068.5,-1044 1062.5,-1038 1062.5,-1032 1062.5,-1032 1062.5,-1020 1062.5,-1020 1062.5,-1014 1068.5,-1008 1074.5,-1008 1074.5,-1008 1170.5,-1008 1170.5,-1008 1176.5,-1008 1182.5,-1014 1182.5,-1020 1182.5,-1020 1182.5,-1032 1182.5,-1032 1182.5,-1038 1176.5,-1044 1170.5,-1044"/>
<text text-anchor="middle" x="1122.5" y="-1023.5" font-family="sans" font-size="10.00">validate_cell_density</text>
</g>
<!-- 10&#45;&gt;23 -->
<g id="edge46" class="edge">
<title>10&#45;&gt;23</title>
<path fill="none" stroke="grey" stroke-width="2" d="M1014.83,-1151.64C1024.85,-1141.43 1037.6,-1128.18 1048.5,-1116 1067.44,-1094.83 1088.02,-1069.91 1102.66,-1051.83"/>
<polygon fill="grey" stroke="grey" stroke-width="2" points="1105.39,-1054.02 1108.94,-1044.04 1099.94,-1049.63 1105.39,-1054.02"/>
</g>
<!-- 10&#45;&gt;24 -->
<g id="edge49" class="edge">
<title>10&#45;&gt;24</title>
<path fill="none" stroke="grey" stroke-width="2" d="M1063.37,-1154.73C1068.15,-1153.78 1072.89,-1152.86 1077.5,-1152 1177.06,-1133.47 1202.77,-1133.61 1302.5,-1116 1303.57,-1115.81 1304.65,-1115.62 1305.74,-1115.43"/>
<polygon fill="grey" stroke="grey" stroke-width="2" points="1306.42,-1118.86 1315.64,-1113.63 1305.17,-1111.97 1306.42,-1118.86"/>
</g>
<!-- 10&#45;&gt;27 -->
<g id="edge59" class="edge">
<title>10&#45;&gt;27</title>
<path fill="none" stroke="grey" stroke-width="2" d="M1063.1,-1158.36C1078.92,-1156.03 1095.79,-1153.74 1111.5,-1152 1355.48,-1124.92 1647.3,-1108.37 1772.94,-1102"/>
<polygon fill="grey" stroke="grey" stroke-width="2" points="1773.32,-1105.48 1783.14,-1101.48 1772.97,-1098.49 1773.32,-1105.48"/>
</g>
<!-- 10&#45;&gt;35 -->
<g id="edge62" class="edge">
<title>10&#45;&gt;35</title>
<path fill="none" stroke="grey" stroke-width="2" d="M991.68,-1151.56C988.57,-1141.33 985.07,-1128.08 983.5,-1116 981.44,-1100.13 983.39,-1096 983.5,-1080 984.39,-951.36 967.33,-912.46 1012.5,-792 1040.78,-716.59 1053.58,-689.67 1122.5,-648 1147.12,-633.11 1176.31,-622.05 1203.49,-613.99"/>
<polygon fill="grey" stroke="grey" stroke-width="2" points="1204.75,-617.27 1213.4,-611.15 1202.82,-610.54 1204.75,-617.27"/>
</g>
<!-- 10&#45;&gt;36 -->
<g id="edge68" class="edge">
<title>10&#45;&gt;36</title>
<path fill="none" stroke="grey" stroke-width="2" d="M1063.23,-1154.32C1127.57,-1139.84 1217.02,-1119.4 1224.5,-1116 1249.43,-1104.67 1249.39,-1090.93 1274.5,-1080 1424.52,-1014.72 1474.57,-1037.47 1635.5,-1008 1778.88,-981.74 2188.29,-1011.24 2282.5,-900 2428.7,-727.37 2006.89,-682.64 1774.1,-671.05"/>
<polygon fill="grey" stroke="grey" stroke-width="2" points="1774.01,-667.54 1763.85,-670.55 1773.67,-674.53 1774.01,-667.54"/>
</g>
<!-- 10&#45;&gt;37 -->
<g id="edge75" class="edge">
<title>10&#45;&gt;37</title>
<path fill="none" stroke="grey" stroke-width="2" d="M1037.85,-1151.82C1081.02,-1131.63 1149.01,-1094.39 1191.5,-1044 1225.13,-1004.11 1197.23,-969.17 1237.5,-936 1296.78,-887.17 1335.49,-929.24 1406.5,-900 1461.22,-877.47 1471.03,-863.34 1518.5,-828 1538.22,-813.32 1541.3,-807.36 1560.5,-792 1573.09,-781.93 1587.27,-771.22 1599.63,-762.08"/>
<polygon fill="grey" stroke="grey" stroke-width="2" points="1601.87,-764.78 1607.85,-756.04 1597.72,-759.14 1601.87,-764.78"/>
</g>
<!-- 10&#45;&gt;45 -->
<g id="edge85" class="edge">
<title>10&#45;&gt;45</title>
<path fill="none" stroke="grey" stroke-width="2" d="M999.9,-1151.85C1005.01,-1120.51 1019.39,-1053.08 1053.5,-1008 1087.2,-963.46 1110.11,-967.11 1156.5,-936 1181.07,-919.52 1197.89,-925.73 1212.5,-900 1223.08,-881.37 1223.09,-856.83 1220.86,-838.24"/>
<polygon fill="grey" stroke="grey" stroke-width="2" points="1224.33,-837.72 1219.41,-828.33 1217.4,-838.74 1224.33,-837.72"/>
</g>
<!-- 49 -->
<g id="node50" class="node">
<title>49</title>
<path fill="none" stroke="#d89556" stroke-width="2" d="M970,-396C970,-396 851,-396 851,-396 845,-396 839,-390 839,-384 839,-384 839,-372 839,-372 839,-366 845,-360 851,-360 851,-360 970,-360 970,-360 976,-360 982,-366 982,-372 982,-372 982,-384 982,-384 982,-390 976,-396 970,-396"/>
<text text-anchor="middle" x="910.5" y="-375.5" font-family="sans" font-size="10.00">validate_all_ME_densities</text>
</g>
<!-- 10&#45;&gt;49 -->
<g id="edge91" class="edge">
<title>10&#45;&gt;49</title>
<path fill="none" stroke="grey" stroke-width="2" d="M978.78,-1151.98C935.37,-1110.54 831.5,-999.26 831.5,-883 831.5,-883 831.5,-883 831.5,-521 831.5,-475.24 863.22,-430.45 886.46,-403.78"/>
<polygon fill="grey" stroke="grey" stroke-width="2" points="889.28,-405.88 893.36,-396.11 884.07,-401.21 889.28,-405.88"/>
</g>
<!-- 10&#45;&gt;50 -->
<g id="edge96" class="edge">
<title>10&#45;&gt;50</title>
<path fill="none" stroke="grey" stroke-width="2" d="M1063,-1154.4C1066.89,-1153.58 1070.75,-1152.77 1074.5,-1152 1158.26,-1134.78 1186.02,-1152.19 1263.5,-1116 1286.39,-1105.31 1284.27,-1089.94 1307.5,-1080 1529.77,-984.87 2377.5,-1124.77 2377.5,-883 2377.5,-883 2377.5,-883 2377.5,-593 2377.5,-552.55 2388.76,-530.84 2358.5,-504 2325.78,-474.98 2073.44,-461.02 1911.64,-454.99"/>
<polygon fill="grey" stroke="grey" stroke-width="2" points="1911.72,-451.49 1901.6,-454.62 1911.47,-458.49 1911.72,-451.49"/>
</g>
<!-- 10&#45;&gt;58 -->
<g id="edge107" class="edge">
<title>10&#45;&gt;58</title>
<path fill="none" stroke="grey" stroke-width="2" d="M989.98,-1151.88C968.35,-1101 907.5,-945.9 907.5,-811 907.5,-811 907.5,-811 907.5,-665 907.5,-623.84 921.53,-577.88 931.83,-549.69"/>
<polygon fill="grey" stroke="grey" stroke-width="2" points="935.17,-550.74 935.42,-540.15 928.62,-548.28 935.17,-550.74"/>
</g>
<!-- 10&#45;&gt;62 -->
<g id="edge115" class="edge">
<title>10&#45;&gt;62</title>
<path fill="none" stroke="grey" stroke-width="2" d="M961.61,-1151.77C944.88,-1142.63 925.43,-1130.33 910.5,-1116 826.91,-1035.75 793.5,-998.88 793.5,-883 793.5,-883 793.5,-883 793.5,-521 793.5,-447.58 800.8,-427.15 830.5,-360 838.38,-342.19 848.43,-342.15 855.5,-324 872.89,-279.36 876.89,-223.11 877.61,-190.28"/>
<polygon fill="grey" stroke="grey" stroke-width="2" points="881.11,-190.15 877.74,-180.1 874.11,-190.05 881.11,-190.15"/>
</g>
<!-- 11 -->
<g id="node12" class="node">
<title>11</title>
<path fill="none" stroke="#56b9d8" stroke-width="2" d="M133,-1188C133,-1188 12,-1188 12,-1188 6,-1188 0,-1182 0,-1176 0,-1176 0,-1164 0,-1164 0,-1158 6,-1152 12,-1152 12,-1152 133,-1152 133,-1152 139,-1152 145,-1158 145,-1164 145,-1164 145,-1176 145,-1176 145,-1182 139,-1188 133,-1188"/>
<text text-anchor="middle" x="72.5" y="-1167.5" font-family="sans" font-size="10.00">fetch_regions_layers_map</text>
</g>
<!-- 11&#45;&gt;2 -->
<g id="edge13" class="edge">
<title>11&#45;&gt;2</title>
<path fill="none" stroke="grey" stroke-width="2" d="M97.21,-1151.88C110.17,-1142.89 126.23,-1131.76 140.27,-1122.03"/>
<polygon fill="grey" stroke="grey" stroke-width="2" points="142.47,-1124.76 148.7,-1116.19 138.48,-1119.01 142.47,-1124.76"/>
</g>
<!-- 12&#45;&gt;1 -->
<g id="edge7" class="edge">
<title>12&#45;&gt;1</title>
<path fill="none" stroke="grey" stroke-width="2" d="M592.75,-1081.12C536.8,-1069.07 460.6,-1052.65 406.83,-1041.07"/>
<polygon fill="grey" stroke="grey" stroke-width="2" points="407.24,-1037.58 396.73,-1038.9 405.77,-1044.42 407.24,-1037.58"/>
</g>
<!-- 13&#45;&gt;1 -->
<g id="edge8" class="edge">
<title>13&#45;&gt;1</title>
<path fill="none" stroke="grey" stroke-width="2" d="M423.08,-1079.88C409.09,-1070.81 391.72,-1059.55 376.61,-1049.76"/>
<polygon fill="grey" stroke="grey" stroke-width="2" points="378.32,-1046.69 368.02,-1044.19 374.51,-1052.57 378.32,-1046.69"/>
</g>
<!-- 14 -->
<g id="node15" class="node">
<title>14</title>
<path fill="none" stroke="#5673d8" stroke-width="2" d="M523.5,-1188C523.5,-1188 403.5,-1188 403.5,-1188 397.5,-1188 391.5,-1182 391.5,-1176 391.5,-1176 391.5,-1164 391.5,-1164 391.5,-1158 397.5,-1152 403.5,-1152 403.5,-1152 523.5,-1152 523.5,-1152 529.5,-1152 535.5,-1158 535.5,-1164 535.5,-1164 535.5,-1176 535.5,-1176 535.5,-1182 529.5,-1188 523.5,-1188"/>
<text text-anchor="middle" x="463.5" y="-1167.5" font-family="sans" font-size="10.00">fetch_isocortex_metadata</text>
</g>
<!-- 14&#45;&gt;13 -->
<g id="edge26" class="edge">
<title>14&#45;&gt;13</title>
<path fill="none" stroke="grey" stroke-width="2" d="M460.04,-1151.7C458.5,-1143.98 456.64,-1134.71 454.92,-1126.11"/>
<polygon fill="grey" stroke="grey" stroke-width="2" points="458.31,-1125.22 452.92,-1116.1 451.45,-1126.6 458.31,-1125.22"/>
</g>
<!-- 15&#45;&gt;1 -->
<g id="edge9" class="edge">
<title>15&#45;&gt;1</title>
<path fill="none" stroke="grey" stroke-width="2" d="M280.35,-1151.72C273.8,-1133.11 266.65,-1103.08 277.5,-1080 283.02,-1068.26 292.57,-1058.22 302.62,-1050.15"/>
<polygon fill="grey" stroke="grey" stroke-width="2" points="304.81,-1052.88 310.73,-1044.09 300.62,-1047.27 304.81,-1052.88"/>
</g>
<!-- 15&#45;&gt;13 -->
<g id="edge27" class="edge">
<title>15&#45;&gt;13</title>
<path fill="none" stroke="grey" stroke-width="2" d="M327.13,-1151.88C349.28,-1142.31 377.06,-1130.3 400.56,-1120.15"/>
<polygon fill="grey" stroke="grey" stroke-width="2" points="402.21,-1123.25 410,-1116.07 399.43,-1116.82 402.21,-1123.25"/>
</g>
<!-- 16 -->
<g id="node17" class="node">
<title>16</title>
<path fill="none" stroke="#d85656" stroke-width="2" d="M370.5,-1116C370.5,-1116 298.5,-1116 298.5,-1116 292.5,-1116 286.5,-1110 286.5,-1104 286.5,-1104 286.5,-1092 286.5,-1092 286.5,-1086 292.5,-1080 298.5,-1080 298.5,-1080 370.5,-1080 370.5,-1080 376.5,-1080 382.5,-1086 382.5,-1092 382.5,-1092 382.5,-1104 382.5,-1104 382.5,-1110 376.5,-1116 370.5,-1116"/>
<text text-anchor="middle" x="334.5" y="-1095.5" font-family="sans" font-size="10.00">orientation_field</text>
</g>
<!-- 15&#45;&gt;16 -->
<g id="edge30" class="edge">
<title>15&#45;&gt;16</title>
<path fill="none" stroke="grey" stroke-width="2" d="M299.12,-1151.7C304.64,-1143.47 311.35,-1133.48 317.43,-1124.42"/>
<polygon fill="grey" stroke="grey" stroke-width="2" points="320.35,-1126.36 323.02,-1116.1 314.54,-1122.46 320.35,-1126.36"/>
</g>
<!-- 16&#45;&gt;1 -->
<g id="edge10" class="edge">
<title>16&#45;&gt;1</title>
<path fill="none" stroke="grey" stroke-width="2" d="M336.23,-1079.7C337,-1071.98 337.93,-1062.71 338.79,-1054.11"/>
<polygon fill="grey" stroke="grey" stroke-width="2" points="342.28,-1054.4 339.79,-1044.1 335.31,-1053.71 342.28,-1054.4"/>
</g>
<!-- 17&#45;&gt;0 -->
<g id="edge2" class="edge">
<title>17&#45;&gt;0</title>
<path fill="none" stroke="grey" stroke-width="2" d="M182.15,-935.66C188.88,-909.05 200.5,-856.45 200.5,-811 200.5,-811 200.5,-811 200.5,-161 200.5,-102.85 260.34,-62.72 306.83,-40.31"/>
<polygon fill="grey" stroke="grey" stroke-width="2" points="308.35,-43.47 315.93,-36.07 305.39,-37.12 308.35,-43.47"/>
</g>
<!-- 18 -->
<g id="node19" class="node">
<title>18</title>
<path fill="none" stroke="#56d86b" stroke-width="2" d="M587,-252C587,-252 466,-252 466,-252 460,-252 454,-246 454,-240 454,-240 454,-228 454,-228 454,-222 460,-216 466,-216 466,-216 587,-216 587,-216 593,-216 599,-222 599,-228 599,-228 599,-240 599,-240 599,-246 593,-252 587,-252"/>
<text text-anchor="middle" x="526.5" y="-231.5" font-family="sans" font-size="10.00">push_volumetric_datasets</text>
</g>
<!-- 18&#45;&gt;0 -->
<g id="edge3" class="edge">
<title>18&#45;&gt;0</title>
<path fill="none" stroke="grey" stroke-width="2" d="M513.2,-215.85C484,-178.21 414.18,-88.2 380.01,-44.15"/>
<polygon fill="grey" stroke="grey" stroke-width="2" points="382.76,-41.99 373.87,-36.23 377.23,-46.28 382.76,-41.99"/>
</g>
<!-- 19&#45;&gt;18 -->
<g id="edge32" class="edge">
<title>19&#45;&gt;18</title>
<path fill="none" stroke="grey" stroke-width="2" d="M408.5,-719.95C408.5,-693.29 408.5,-640.11 408.5,-595 408.5,-595 408.5,-595 408.5,-377 408.5,-325.44 455.09,-282.6 489.73,-257.89"/>
<polygon fill="grey" stroke="grey" stroke-width="2" points="492,-260.57 498.24,-252.01 488.02,-254.82 492,-260.57"/>
</g>
<!-- 20&#45;&gt;18 -->
<g id="edge33" class="edge">
<title>20&#45;&gt;18</title>
<path fill="none" stroke="grey" stroke-width="2" d="M680.18,-791.63C667,-765.41 644.5,-713.81 644.5,-667 644.5,-667 644.5,-667 644.5,-377 644.5,-325.44 597.91,-282.6 563.27,-257.89"/>
<polygon fill="grey" stroke="grey" stroke-width="2" points="564.98,-254.82 554.76,-252.01 561,-260.57 564.98,-254.82"/>
</g>
<!-- 21&#45;&gt;20 -->
<g id="edge37" class="edge">
<title>21&#45;&gt;20</title>
<path fill="none" stroke="grey" stroke-width="2" d="M1011.86,-864.98C940.66,-853.06 844.28,-836.92 775.5,-825.4"/>
<polygon fill="grey" stroke="grey" stroke-width="2" points="775.99,-821.94 765.55,-823.74 774.84,-828.84 775.99,-821.94"/>
</g>
<!-- 21&#45;&gt;35 -->
<g id="edge66" class="edge">
<title>21&#45;&gt;35</title>
<path fill="none" stroke="grey" stroke-width="2" d="M1101.11,-863.91C1095.25,-845.47 1088.84,-815.57 1098.5,-792 1130.54,-713.81 1210.25,-650 1256.92,-617.76"/>
<polygon fill="grey" stroke="grey" stroke-width="2" points="1258.93,-620.63 1265.23,-612.12 1255,-614.84 1258.93,-620.63"/>
</g>
<!-- 21&#45;&gt;36 -->
<g id="edge69" class="edge">
<title>21&#45;&gt;36</title>
<path fill="none" stroke="grey" stroke-width="2" d="M1104.16,-863.98C1101.34,-844.19 1100.13,-811.72 1117.5,-792 1166.06,-736.87 1354.69,-701.82 1489.34,-683.29"/>
<polygon fill="grey" stroke="grey" stroke-width="2" points="1489.91,-686.75 1499.35,-681.93 1488.97,-679.81 1489.91,-686.75"/>
</g>
<!-- 21&#45;&gt;37 -->
<g id="edge76" class="edge">
<title>21&#45;&gt;37</title>
<path fill="none" stroke="grey" stroke-width="2" d="M1203.38,-868.82C1310.52,-855.01 1470.76,-833.67 1483.5,-828 1506.27,-817.87 1505.68,-805.71 1526.5,-792 1544.3,-780.28 1565.04,-769.31 1583.36,-760.42"/>
<polygon fill="grey" stroke="grey" stroke-width="2" points="1584.9,-763.57 1592.41,-756.1 1581.88,-757.25 1584.9,-763.57"/>
</g>
<!-- 21&#45;&gt;45 -->
<g id="edge87" class="edge">
<title>21&#45;&gt;45</title>
<path fill="none" stroke="grey" stroke-width="2" d="M1133.92,-863.88C1147.91,-854.81 1165.28,-843.55 1180.39,-833.76"/>
<polygon fill="grey" stroke="grey" stroke-width="2" points="1182.49,-836.57 1188.98,-828.19 1178.68,-830.69 1182.49,-836.57"/>
</g>
<!-- 21&#45;&gt;58 -->
<g id="edge108" class="edge">
<title>21&#45;&gt;58</title>
<path fill="none" stroke="grey" stroke-width="2" d="M1096.39,-863.77C1069.97,-822.12 1002.78,-712.03 964.5,-612 956.79,-591.84 951.07,-568.06 947.4,-550.16"/>
<polygon fill="grey" stroke="grey" stroke-width="2" points="950.79,-549.25 945.43,-540.11 943.92,-550.6 950.79,-549.25"/>
</g>
<!-- 22&#45;&gt;21 -->
<g id="edge40" class="edge">
<title>22&#45;&gt;21</title>
<path fill="none" stroke="grey" stroke-width="2" d="M1280.77,-935.97C1248.36,-926.06 1207.32,-913.51 1173.32,-903.12"/>
<polygon fill="grey" stroke="grey" stroke-width="2" points="1174.06,-899.69 1163.48,-900.11 1172.02,-906.38 1174.06,-899.69"/>
</g>
<!-- 23&#45;&gt;22 -->
<g id="edge43" class="edge">
<title>23&#45;&gt;22</title>
<path fill="none" stroke="grey" stroke-width="2" d="M1174.58,-1007.97C1204.74,-998.1 1242.89,-985.62 1274.58,-975.25"/>
<polygon fill="grey" stroke="grey" stroke-width="2" points="1275.77,-978.55 1284.19,-972.11 1273.6,-971.89 1275.77,-978.55"/>
</g>
<!-- 23&#45;&gt;35 -->
<g id="edge65" class="edge">
<title>23&#45;&gt;35</title>
<path fill="none" stroke="grey" stroke-width="2" d="M1094.05,-1007.9C1052.76,-980.66 983.25,-924.3 1003.5,-864 1042.39,-748.19 1075.76,-721.3 1173.5,-648 1190.91,-634.94 1212.06,-624.21 1231.66,-615.9"/>
<polygon fill="grey" stroke="grey" stroke-width="2" points="1233.21,-619.05 1241.14,-612.02 1230.56,-612.57 1233.21,-619.05"/>
</g>
<!-- 23&#45;&gt;45 -->
<g id="edge86" class="edge">
<title>23&#45;&gt;45</title>
<path fill="none" stroke="grey" stroke-width="2" d="M1133.25,-1007.88C1147.09,-987.35 1173.14,-953.53 1204.5,-936 1277.23,-895.34 1335.54,-964.33 1388.5,-900 1417.35,-864.96 1368.24,-842.18 1315.06,-828.45"/>
<polygon fill="grey" stroke="grey" stroke-width="2" points="1315.65,-824.99 1305.11,-825.99 1313.98,-831.78 1315.65,-824.99"/>
</g>
<!-- 24&#45;&gt;23 -->
<g id="edge47" class="edge">
<title>24&#45;&gt;23</title>
<path fill="none" stroke="grey" stroke-width="2" d="M1325.28,-1079.97C1285.2,-1069.5 1233.86,-1056.09 1192.87,-1045.38"/>
<polygon fill="grey" stroke="grey" stroke-width="2" points="1193.51,-1041.93 1182.95,-1042.79 1191.74,-1048.7 1193.51,-1041.93"/>
</g>
<!-- 25 -->
<g id="node26" class="node">
<title>25</title>
<path fill="none" stroke="#59d856" stroke-width="2" d="M1311,-1188C1311,-1188 1132,-1188 1132,-1188 1126,-1188 1120,-1182 1120,-1176 1120,-1176 1120,-1164 1120,-1164 1120,-1158 1126,-1152 1132,-1152 1132,-1152 1311,-1152 1311,-1152 1317,-1152 1323,-1158 1323,-1164 1323,-1164 1323,-1176 1323,-1176 1323,-1182 1317,-1188 1311,-1188"/>
<text text-anchor="middle" x="1221.5" y="-1167.5" font-family="sans" font-size="10.00">fetch_corrected_nissl_stained_volume</text>
</g>
<!-- 25&#45;&gt;24 -->
<g id="edge50" class="edge">
<title>25&#45;&gt;24</title>
<path fill="none" stroke="grey" stroke-width="2" d="M1262.84,-1151.88C1286.05,-1142.26 1315.19,-1130.19 1339.77,-1120.01"/>
<polygon fill="grey" stroke="grey" stroke-width="2" points="1341.39,-1123.13 1349.29,-1116.07 1338.71,-1116.66 1341.39,-1123.13"/>
</g>
<!-- 26 -->
<g id="node27" class="node">
<title>26</title>
<path fill="none" stroke="#68d856" stroke-width="2" d="M1446,-1188C1446,-1188 1353,-1188 1353,-1188 1347,-1188 1341,-1182 1341,-1176 1341,-1176 1341,-1164 1341,-1164 1341,-1158 1347,-1152 1353,-1152 1353,-1152 1446,-1152 1446,-1152 1452,-1152 1458,-1158 1458,-1164 1458,-1164 1458,-1176 1458,-1176 1458,-1182 1452,-1188 1446,-1188"/>
<text text-anchor="middle" x="1399.5" y="-1167.5" font-family="sans" font-size="10.00">fetch_regions_config</text>
</g>
<!-- 26&#45;&gt;22 -->
<g id="edge45" class="edge">
<title>26&#45;&gt;22</title>
<path fill="none" stroke="grey" stroke-width="2" d="M1437.38,-1151.91C1451.73,-1143.33 1466.51,-1131.43 1474.5,-1116 1481.86,-1101.79 1480.99,-1094.63 1474.5,-1080 1454.47,-1034.83 1409.17,-999.04 1375.91,-977.53"/>
<polygon fill="grey" stroke="grey" stroke-width="2" points="1377.63,-974.48 1367.31,-972.11 1373.9,-980.4 1377.63,-974.48"/>
</g>
<!-- 26&#45;&gt;24 -->
<g id="edge51" class="edge">
<title>26&#45;&gt;24</title>
<path fill="none" stroke="grey" stroke-width="2" d="M1397.28,-1151.7C1396.28,-1143.98 1395.09,-1134.71 1393.99,-1126.11"/>
<polygon fill="grey" stroke="grey" stroke-width="2" points="1397.45,-1125.58 1392.7,-1116.1 1390.5,-1126.47 1397.45,-1125.58"/>
</g>
<!-- 26&#45;&gt;37 -->
<g id="edge79" class="edge">
<title>26&#45;&gt;37</title>
<path fill="none" stroke="grey" stroke-width="2" d="M1444.99,-1151.96C1461.67,-1143.55 1479.22,-1131.76 1490.5,-1116 1557.04,-1023.1 1458.05,-942.06 1541.5,-864 1629.59,-781.6 1731.07,-918.77 1810.5,-828 1840.58,-793.63 1792.43,-771.08 1738.53,-757.28"/>
<polygon fill="grey" stroke="grey" stroke-width="2" points="1739.33,-753.87 1728.78,-754.88 1737.66,-760.66 1739.33,-753.87"/>
</g>
<!-- 27&#45;&gt;22 -->
<g id="edge44" class="edge">
<title>27&#45;&gt;22</title>
<path fill="none" stroke="grey" stroke-width="2" d="M1792.16,-1079.87C1742.2,-1060.57 1657.33,-1029.13 1582.5,-1008 1535.01,-994.59 1481.53,-982.69 1436.6,-973.59"/>
<polygon fill="grey" stroke="grey" stroke-width="2" points="1437.05,-970.11 1426.56,-971.57 1435.67,-976.97 1437.05,-970.11"/>
</g>
<!-- 28 -->
<g id="node29" class="node">
<title>28</title>
<path fill="none" stroke="#ced856" stroke-width="2" d="M1879.5,-1188C1879.5,-1188 1791.5,-1188 1791.5,-1188 1785.5,-1188 1779.5,-1182 1779.5,-1176 1779.5,-1176 1779.5,-1164 1779.5,-1164 1779.5,-1158 1785.5,-1152 1791.5,-1152 1791.5,-1152 1879.5,-1152 1879.5,-1152 1885.5,-1152 1891.5,-1158 1891.5,-1164 1891.5,-1164 1891.5,-1176 1891.5,-1176 1891.5,-1182 1885.5,-1188 1879.5,-1188"/>
<text text-anchor="middle" x="1835.5" y="-1167.5" font-family="sans" font-size="10.00">fetch_gene_aldh1l1</text>
</g>
<!-- 28&#45;&gt;27 -->
<g id="edge52" class="edge">
<title>28&#45;&gt;27</title>
<path fill="none" stroke="grey" stroke-width="2" d="M1835.5,-1151.7C1835.5,-1143.98 1835.5,-1134.71 1835.5,-1126.11"/>
<polygon fill="grey" stroke="grey" stroke-width="2" points="1839,-1126.1 1835.5,-1116.1 1832,-1126.1 1839,-1126.1"/>
</g>
<!-- 29 -->
<g id="node30" class="node">
<title>29</title>
<path fill="none" stroke="#88d856" stroke-width="2" d="M2029,-1188C2029,-1188 1960,-1188 1960,-1188 1954,-1188 1948,-1182 1948,-1176 1948,-1176 1948,-1164 1948,-1164 1948,-1158 1954,-1152 1960,-1152 1960,-1152 2029,-1152 2029,-1152 2035,-1152 2041,-1158 2041,-1164 2041,-1164 2041,-1176 2041,-1176 2041,-1182 2035,-1188 2029,-1188"/>
<text text-anchor="middle" x="1994.5" y="-1167.5" font-family="sans" font-size="10.00">fetch_gene_cnp</text>
</g>
<!-- 29&#45;&gt;27 -->
<g id="edge53" class="edge">
<title>29&#45;&gt;27</title>
<path fill="none" stroke="grey" stroke-width="2" d="M1955.6,-1151.88C1933.87,-1142.31 1906.6,-1130.3 1883.54,-1120.15"/>
<polygon fill="grey" stroke="grey" stroke-width="2" points="1884.83,-1116.89 1874.27,-1116.07 1882.01,-1123.3 1884.83,-1116.89"/>
</g>
<!-- 30 -->
<g id="node31" class="node">
<title>30</title>
<path fill="none" stroke="#a7d856" stroke-width="2" d="M2145.5,-1188C2145.5,-1188 2071.5,-1188 2071.5,-1188 2065.5,-1188 2059.5,-1182 2059.5,-1176 2059.5,-1176 2059.5,-1164 2059.5,-1164 2059.5,-1158 2065.5,-1152 2071.5,-1152 2071.5,-1152 2145.5,-1152 2145.5,-1152 2151.5,-1152 2157.5,-1158 2157.5,-1164 2157.5,-1164 2157.5,-1176 2157.5,-1176 2157.5,-1182 2151.5,-1188 2145.5,-1188"/>
<text text-anchor="middle" x="2108.5" y="-1167.5" font-family="sans" font-size="10.00">fetch_gene_mbp</text>
</g>
<!-- 30&#45;&gt;27 -->
<g id="edge54" class="edge">
<title>30&#45;&gt;27</title>
<path fill="none" stroke="grey" stroke-width="2" d="M2059.49,-1154.47C2056.45,-1153.62 2053.44,-1152.79 2050.5,-1152 1999.19,-1138.16 1940.61,-1123.82 1897.56,-1113.54"/>
<polygon fill="grey" stroke="grey" stroke-width="2" points="1898.34,-1110.13 1887.8,-1111.22 1896.71,-1116.94 1898.34,-1110.13"/>
</g>
<!-- 31 -->
<g id="node32" class="node">
<title>31</title>
<path fill="none" stroke="#c6d856" stroke-width="2" d="M2261.5,-1188C2261.5,-1188 2187.5,-1188 2187.5,-1188 2181.5,-1188 2175.5,-1182 2175.5,-1176 2175.5,-1176 2175.5,-1164 2175.5,-1164 2175.5,-1158 2181.5,-1152 2187.5,-1152 2187.5,-1152 2261.5,-1152 2261.5,-1152 2267.5,-1152 2273.5,-1158 2273.5,-1164 2273.5,-1164 2273.5,-1176 2273.5,-1176 2273.5,-1182 2267.5,-1188 2261.5,-1188"/>
<text text-anchor="middle" x="2224.5" y="-1167.5" font-family="sans" font-size="10.00">fetch_gene_gfap</text>
</g>
<!-- 31&#45;&gt;27 -->
<g id="edge55" class="edge">
<title>31&#45;&gt;27</title>
<path fill="none" stroke="grey" stroke-width="2" d="M2175.25,-1154.1C2172.3,-1153.36 2169.37,-1152.65 2166.5,-1152 2073.76,-1131.07 1964.59,-1115.27 1897.73,-1106.58"/>
<polygon fill="grey" stroke="grey" stroke-width="2" points="1898.14,-1103.1 1887.77,-1105.29 1897.24,-1110.04 1898.14,-1103.1"/>
</g>
<!-- 32 -->
<g id="node33" class="node">
<title>32</title>
<path fill="none" stroke="#56d8d0" stroke-width="2" d="M1608,-1188C1608,-1188 1527,-1188 1527,-1188 1521,-1188 1515,-1182 1515,-1176 1515,-1176 1515,-1164 1515,-1164 1515,-1158 1521,-1152 1527,-1152 1527,-1152 1608,-1152 1608,-1152 1614,-1152 1620,-1158 1620,-1164 1620,-1164 1620,-1176 1620,-1176 1620,-1182 1614,-1188 1608,-1188"/>
<text text-anchor="middle" x="1567.5" y="-1167.5" font-family="sans" font-size="10.00">fetch_gene_s100b</text>
</g>
<!-- 32&#45;&gt;27 -->
<g id="edge56" class="edge">
<title>32&#45;&gt;27</title>
<path fill="none" stroke="grey" stroke-width="2" d="M1620.25,-1154.48C1623.38,-1153.63 1626.48,-1152.8 1629.5,-1152 1677.8,-1139.16 1732.61,-1125.09 1773.54,-1114.67"/>
<polygon fill="grey" stroke="grey" stroke-width="2" points="1774.54,-1118.03 1783.37,-1112.17 1772.82,-1111.24 1774.54,-1118.03"/>
</g>
<!-- 33 -->
<g id="node34" class="node">
<title>33</title>
<path fill="none" stroke="#56a2d8" stroke-width="2" d="M1749,-1188C1749,-1188 1650,-1188 1650,-1188 1644,-1188 1638,-1182 1638,-1176 1638,-1176 1638,-1164 1638,-1164 1638,-1158 1644,-1152 1650,-1152 1650,-1152 1749,-1152 1749,-1152 1755,-1152 1761,-1158 1761,-1164 1761,-1164 1761,-1176 1761,-1176 1761,-1182 1755,-1188 1749,-1188"/>
<text text-anchor="middle" x="1699.5" y="-1167.5" font-family="sans" font-size="10.00">fetch_gene_tmem119</text>
</g>
<!-- 33&#45;&gt;27 -->
<g id="edge57" class="edge">
<title>33&#45;&gt;27</title>
<path fill="none" stroke="grey" stroke-width="2" d="M1732.77,-1151.88C1750.96,-1142.51 1773.69,-1130.81 1793.14,-1120.8"/>
<polygon fill="grey" stroke="grey" stroke-width="2" points="1794.81,-1123.88 1802.1,-1116.19 1791.61,-1117.65 1794.81,-1123.88"/>
</g>
<!-- 34&#45;&gt;18 -->
<g id="edge34" class="edge">
<title>34&#45;&gt;18</title>
<path fill="none" stroke="grey" stroke-width="2" d="M526.5,-503.97C526.5,-456.29 526.5,-321.18 526.5,-262.63"/>
<polygon fill="grey" stroke="grey" stroke-width="2" points="530,-262.31 526.5,-252.31 523,-262.31 530,-262.31"/>
</g>
<!-- 35&#45;&gt;34 -->
<g id="edge60" class="edge">
<title>35&#45;&gt;34</title>
<path fill="none" stroke="grey" stroke-width="2" d="M1213.42,-577.29C1210.41,-576.83 1207.43,-576.4 1204.5,-576 1000.24,-548.38 759.27,-533.78 626.64,-527.29"/>
<polygon fill="grey" stroke="grey" stroke-width="2" points="626.66,-523.79 616.5,-526.8 626.32,-530.78 626.66,-523.79"/>
</g>
<!-- 35&#45;&gt;50 -->
<g id="edge94" class="edge">
<title>35&#45;&gt;50</title>
<path fill="none" stroke="grey" stroke-width="2" d="M1245.98,-575.85C1230.25,-567.56 1214.42,-555.88 1205.5,-540 1197.66,-526.05 1194.72,-515.83 1205.5,-504 1234.16,-472.55 1479.52,-459.46 1638.85,-454.24"/>
<polygon fill="grey" stroke="grey" stroke-width="2" points="1639.33,-457.73 1649.21,-453.91 1639.11,-450.73 1639.33,-457.73"/>
</g>
<!-- 57 -->
<g id="node58" class="node">
<title>57</title>
<path fill="none" stroke="#d8d356" stroke-width="2" d="M1500,-540C1500,-540 1387,-540 1387,-540 1381,-540 1375,-534 1375,-528 1375,-528 1375,-516 1375,-516 1375,-510 1381,-504 1387,-504 1387,-504 1500,-504 1500,-504 1506,-504 1512,-510 1512,-516 1512,-516 1512,-528 1512,-528 1512,-534 1506,-540 1500,-540"/>
<text text-anchor="middle" x="1443.5" y="-519.5" font-family="sans" font-size="10.00">compute_lamp5_density</text>
</g>
<!-- 35&#45;&gt;57 -->
<g id="edge104" class="edge">
<title>35&#45;&gt;57</title>
<path fill="none" stroke="grey" stroke-width="2" d="M1329.44,-575.88C1349.99,-566.35 1375.75,-554.41 1397.59,-544.28"/>
<polygon fill="grey" stroke="grey" stroke-width="2" points="1399.08,-547.45 1406.68,-540.07 1396.14,-541.1 1399.08,-547.45"/>
</g>
<!-- 35&#45;&gt;58 -->
<g id="edge105" class="edge">
<title>35&#45;&gt;58</title>
<path fill="none" stroke="grey" stroke-width="2" d="M1213.08,-577.12C1147.72,-564.04 1056.71,-545.84 998.7,-534.24"/>
<polygon fill="grey" stroke="grey" stroke-width="2" points="999.11,-530.75 988.62,-532.22 997.74,-537.62 999.11,-530.75"/>
</g>
<!-- 36&#45;&gt;35 -->
<g id="edge63" class="edge">
<title>36&#45;&gt;35</title>
<path fill="none" stroke="grey" stroke-width="2" d="M1549,-647.97C1498.28,-637.49 1433.29,-624.07 1381.42,-613.36"/>
<polygon fill="grey" stroke="grey" stroke-width="2" points="1382.07,-609.92 1371.57,-611.33 1380.65,-616.78 1382.07,-609.92"/>
</g>
<!-- 37&#45;&gt;36 -->
<g id="edge70" class="edge">
<title>37&#45;&gt;36</title>
<path fill="none" stroke="grey" stroke-width="2" d="M1631.5,-719.7C1631.5,-711.98 1631.5,-702.71 1631.5,-694.11"/>
<polygon fill="grey" stroke="grey" stroke-width="2" points="1635,-694.1 1631.5,-684.1 1628,-694.1 1635,-694.1"/>
</g>
<!-- 38 -->
<g id="node39" class="node">
<title>38</title>
<path fill="none" stroke="#88d856" stroke-width="2" d="M1994,-828C1994,-828 1869,-828 1869,-828 1863,-828 1857,-822 1857,-816 1857,-816 1857,-804 1857,-804 1857,-798 1863,-792 1869,-792 1869,-792 1994,-792 1994,-792 2000,-792 2006,-798 2006,-804 2006,-804 2006,-816 2006,-816 2006,-822 2000,-828 1994,-828"/>
<text text-anchor="middle" x="1931.5" y="-807.5" font-family="sans" font-size="10.00">fetch_genes_correctednissl</text>
</g>
<!-- 38&#45;&gt;37 -->
<g id="edge71" class="edge">
<title>38&#45;&gt;37</title>
<path fill="none" stroke="grey" stroke-width="2" d="M1858.5,-791.97C1814.95,-781.8 1759.52,-768.87 1714.34,-758.33"/>
<polygon fill="grey" stroke="grey" stroke-width="2" points="1715.11,-754.91 1704.57,-756.05 1713.51,-761.73 1715.11,-754.91"/>
</g>
<!-- 39 -->
<g id="node40" class="node">
<title>39</title>
<path fill="none" stroke="#56d8a9" stroke-width="2" d="M1699,-900C1699,-900 1562,-900 1562,-900 1556,-900 1550,-894 1550,-888 1550,-888 1550,-876 1550,-876 1550,-870 1556,-864 1562,-864 1562,-864 1699,-864 1699,-864 1705,-864 1711,-870 1711,-876 1711,-876 1711,-888 1711,-888 1711,-894 1705,-900 1699,-900"/>
<text text-anchor="middle" x="1630.5" y="-879.5" font-family="sans" font-size="10.00">fetch_gene_pv_correctednissl</text>
</g>
<!-- 39&#45;&gt;38 -->
<g id="edge80" class="edge">
<title>39&#45;&gt;38</title>
<path fill="none" stroke="grey" stroke-width="2" d="M1703.75,-863.97C1747.44,-853.8 1803.05,-840.87 1848.38,-830.33"/>
<polygon fill="grey" stroke="grey" stroke-width="2" points="1849.24,-833.72 1858.18,-828.05 1847.65,-826.91 1849.24,-833.72"/>
</g>
<!-- 40 -->
<g id="node41" class="node">
<title>40</title>
<path fill="none" stroke="#9fd856" stroke-width="2" d="M1881.5,-900C1881.5,-900 1741.5,-900 1741.5,-900 1735.5,-900 1729.5,-894 1729.5,-888 1729.5,-888 1729.5,-876 1729.5,-876 1729.5,-870 1735.5,-864 1741.5,-864 1741.5,-864 1881.5,-864 1881.5,-864 1887.5,-864 1893.5,-870 1893.5,-876 1893.5,-876 1893.5,-888 1893.5,-888 1893.5,-894 1887.5,-900 1881.5,-900"/>
<text text-anchor="middle" x="1811.5" y="-879.5" font-family="sans" font-size="10.00">fetch_gene_sst_correctednissl</text>
</g>
<!-- 40&#45;&gt;38 -->
<g id="edge81" class="edge">
<title>40&#45;&gt;38</title>
<path fill="none" stroke="grey" stroke-width="2" d="M1840.86,-863.88C1856.55,-854.72 1876.06,-843.34 1892.95,-833.48"/>
<polygon fill="grey" stroke="grey" stroke-width="2" points="1895.16,-836.25 1902.03,-828.19 1891.63,-830.21 1895.16,-836.25"/>
</g>
<!-- 41 -->
<g id="node42" class="node">
<title>41</title>
<path fill="none" stroke="#56d89a" stroke-width="2" d="M2063.5,-900C2063.5,-900 1923.5,-900 1923.5,-900 1917.5,-900 1911.5,-894 1911.5,-888 1911.5,-888 1911.5,-876 1911.5,-876 1911.5,-870 1917.5,-864 1923.5,-864 1923.5,-864 2063.5,-864 2063.5,-864 2069.5,-864 2075.5,-870 2075.5,-876 2075.5,-876 2075.5,-888 2075.5,-888 2075.5,-894 2069.5,-900 2063.5,-900"/>
<text text-anchor="middle" x="1993.5" y="-879.5" font-family="sans" font-size="10.00">fetch_gene_vip_correctednissl</text>
</g>
<!-- 41&#45;&gt;38 -->
<g id="edge82" class="edge">
<title>41&#45;&gt;38</title>
<path fill="none" stroke="grey" stroke-width="2" d="M1978.17,-863.7C1970.74,-855.3 1961.68,-845.07 1953.52,-835.86"/>
<polygon fill="grey" stroke="grey" stroke-width="2" points="1955.9,-833.27 1946.65,-828.1 1950.66,-837.91 1955.9,-833.27"/>
</g>
<!-- 42 -->
<g id="node43" class="node">
<title>42</title>
<path fill="none" stroke="#97d856" stroke-width="2" d="M2261,-900C2261,-900 2106,-900 2106,-900 2100,-900 2094,-894 2094,-888 2094,-888 2094,-876 2094,-876 2094,-870 2100,-864 2106,-864 2106,-864 2261,-864 2261,-864 2267,-864 2273,-870 2273,-876 2273,-876 2273,-888 2273,-888 2273,-894 2267,-900 2261,-900"/>
<text text-anchor="middle" x="2183.5" y="-879.5" font-family="sans" font-size="10.00">fetch_gene_gad67_correctednissl</text>
</g>
<!-- 42&#45;&gt;38 -->
<g id="edge83" class="edge">
<title>42&#45;&gt;38</title>
<path fill="none" stroke="grey" stroke-width="2" d="M2122.18,-863.97C2086.2,-853.97 2040.57,-841.3 2002.97,-830.85"/>
<polygon fill="grey" stroke="grey" stroke-width="2" points="2003.67,-827.42 1993.1,-828.11 2001.8,-834.16 2003.67,-827.42"/>
</g>
<!-- 43 -->
<g id="node44" class="node">
<title>43</title>
<path fill="none" stroke="#5682d8" stroke-width="2" d="M1682,-828C1682,-828 1581,-828 1581,-828 1575,-828 1569,-822 1569,-816 1569,-816 1569,-804 1569,-804 1569,-798 1575,-792 1581,-792 1581,-792 1682,-792 1682,-792 1688,-792 1694,-798 1694,-804 1694,-804 1694,-816 1694,-816 1694,-822 1688,-828 1682,-828"/>
<text text-anchor="middle" x="1631.5" y="-807.5" font-family="sans" font-size="10.00">fetch_realigned_slices</text>
</g>
<!-- 43&#45;&gt;37 -->
<g id="edge72" class="edge">
<title>43&#45;&gt;37</title>
<path fill="none" stroke="grey" stroke-width="2" d="M1631.5,-791.7C1631.5,-783.98 1631.5,-774.71 1631.5,-766.11"/>
<polygon fill="grey" stroke="grey" stroke-width="2" points="1635,-766.1 1631.5,-756.1 1628,-766.1 1635,-766.1"/>
</g>
<!-- 44 -->
<g id="node45" class="node">
<title>44</title>
<path fill="none" stroke="#566bd8" stroke-width="2" d="M1789,-828C1789,-828 1724,-828 1724,-828 1718,-828 1712,-822 1712,-816 1712,-816 1712,-804 1712,-804 1712,-798 1718,-792 1724,-792 1724,-792 1789,-792 1789,-792 1795,-792 1801,-798 1801,-804 1801,-804 1801,-816 1801,-816 1801,-822 1795,-828 1789,-828"/>
<text text-anchor="middle" x="1756.5" y="-807.5" font-family="sans" font-size="10.00">fetch_std_cells</text>
</g>
<!-- 44&#45;&gt;37 -->
<g id="edge73" class="edge">
<title>44&#45;&gt;37</title>
<path fill="none" stroke="grey" stroke-width="2" d="M1725.92,-791.88C1709.43,-782.64 1688.88,-771.13 1671.16,-761.21"/>
<polygon fill="grey" stroke="grey" stroke-width="2" points="1672.63,-758.02 1662.2,-756.19 1669.21,-764.13 1672.63,-758.02"/>
</g>
<!-- 45&#45;&gt;37 -->
<g id="edge77" class="edge">
<title>45&#45;&gt;37</title>
<path fill="none" stroke="grey" stroke-width="2" d="M1305.08,-793.6C1308.26,-793.06 1311.41,-792.52 1314.5,-792 1384.33,-780.17 1462.85,-767.04 1524.27,-756.81"/>
<polygon fill="grey" stroke="grey" stroke-width="2" points="1525.07,-760.22 1534.36,-755.13 1523.92,-753.32 1525.07,-760.22"/>
</g>
<!-- 46 -->
<g id="node47" class="node">
<title>46</title>
<path fill="none" stroke="#d8bc56" stroke-width="2" d="M1367.5,-900C1367.5,-900 1271.5,-900 1271.5,-900 1265.5,-900 1259.5,-894 1259.5,-888 1259.5,-888 1259.5,-876 1259.5,-876 1259.5,-870 1265.5,-864 1271.5,-864 1271.5,-864 1367.5,-864 1367.5,-864 1373.5,-864 1379.5,-870 1379.5,-876 1379.5,-876 1379.5,-888 1379.5,-888 1379.5,-894 1373.5,-900 1367.5,-900"/>
<text text-anchor="middle" x="1319.5" y="-879.5" font-family="sans" font-size="10.00">fetch_measurements</text>
</g>
<!-- 46&#45;&gt;45 -->
<g id="edge88" class="edge">
<title>46&#45;&gt;45</title>
<path fill="none" stroke="grey" stroke-width="2" d="M1294.06,-863.88C1280.71,-854.89 1264.18,-843.76 1249.72,-834.03"/>
<polygon fill="grey" stroke="grey" stroke-width="2" points="1251.29,-830.87 1241.04,-828.19 1247.38,-836.68 1251.29,-830.87"/>
</g>
<!-- 47 -->
<g id="node48" class="node">
<title>47</title>
<path fill="none" stroke="#80d856" stroke-width="2" d="M1462,-828C1462,-828 1335,-828 1335,-828 1329,-828 1323,-822 1323,-816 1323,-816 1323,-804 1323,-804 1323,-798 1329,-792 1335,-792 1335,-792 1462,-792 1462,-792 1468,-792 1474,-798 1474,-804 1474,-804 1474,-816 1474,-816 1474,-822 1468,-828 1462,-828"/>
<text text-anchor="middle" x="1398.5" y="-807.5" font-family="sans" font-size="10.00">fetch_homogenous_regions</text>
</g>
<!-- 47&#45;&gt;37 -->
<g id="edge78" class="edge">
<title>47&#45;&gt;37</title>
<path fill="none" stroke="grey" stroke-width="2" d="M1455.2,-791.97C1488.18,-782.06 1529.93,-769.51 1564.53,-759.12"/>
<polygon fill="grey" stroke="grey" stroke-width="2" points="1565.98,-762.34 1574.55,-756.11 1563.96,-755.64 1565.98,-762.34"/>
</g>
<!-- 48&#45;&gt;18 -->
<g id="edge35" class="edge">
<title>48&#45;&gt;18</title>
<path fill="none" stroke="grey" stroke-width="2" d="M702.8,-287.97C669.82,-278.06 628.07,-265.51 593.47,-255.12"/>
<polygon fill="grey" stroke="grey" stroke-width="2" points="594.04,-251.64 583.45,-252.11 592.02,-258.34 594.04,-251.64"/>
</g>
<!-- 61 -->
<g id="node62" class="node">
<title>61</title>
<path fill="none" stroke="#afd856" stroke-width="2" d="M834.5,-252C834.5,-252 646.5,-252 646.5,-252 640.5,-252 634.5,-246 634.5,-240 634.5,-240 634.5,-228 634.5,-228 634.5,-222 640.5,-216 646.5,-216 646.5,-216 834.5,-216 834.5,-216 840.5,-216 846.5,-222 846.5,-228 846.5,-228 846.5,-240 846.5,-240 846.5,-246 840.5,-252 834.5,-252"/>
<text text-anchor="middle" x="740.5" y="-231.5" font-family="sans" font-size="10.00">create_cellCompositionVolume_payload</text>
</g>
<!-- 48&#45;&gt;61 -->
<g id="edge113" class="edge">
<title>48&#45;&gt;61</title>
<path fill="none" stroke="grey" stroke-width="2" d="M754.8,-287.7C752.69,-279.9 750.14,-270.51 747.78,-261.83"/>
<polygon fill="grey" stroke="grey" stroke-width="2" points="751.14,-260.84 745.14,-252.1 744.38,-262.67 751.14,-260.84"/>
</g>
<!-- 49&#45;&gt;48 -->
<g id="edge89" class="edge">
<title>49&#45;&gt;48</title>
<path fill="none" stroke="grey" stroke-width="2" d="M873.56,-359.88C853.01,-350.35 827.25,-338.41 805.41,-328.28"/>
<polygon fill="grey" stroke="grey" stroke-width="2" points="806.86,-325.1 796.32,-324.07 803.92,-331.45 806.86,-325.1"/>
</g>
<!-- 50&#45;&gt;49 -->
<g id="edge92" class="edge">
<title>50&#45;&gt;49</title>
<path fill="none" stroke="grey" stroke-width="2" d="M1649.26,-438.78C1469.23,-424.22 1143.8,-397.88 992.25,-385.62"/>
<polygon fill="grey" stroke="grey" stroke-width="2" points="992.34,-382.11 982.09,-384.79 991.77,-389.09 992.34,-382.11"/>
</g>
<!-- 51 -->
<g id="node52" class="node">
<title>51</title>
<path fill="none" stroke="#d6d856" stroke-width="2" d="M2009,-540C2009,-540 1890,-540 1890,-540 1884,-540 1878,-534 1878,-528 1878,-528 1878,-516 1878,-516 1878,-510 1884,-504 1890,-504 1890,-504 2009,-504 2009,-504 2015,-504 2021,-510 2021,-516 2021,-516 2021,-528 2021,-528 2021,-534 2015,-540 2009,-540"/>
<text text-anchor="middle" x="1949.5" y="-519.5" font-family="sans" font-size="10.00">fetch_probability_map_L1</text>
</g>
<!-- 51&#45;&gt;50 -->
<g id="edge97" class="edge">
<title>51&#45;&gt;50</title>
<path fill="none" stroke="grey" stroke-width="2" d="M1906.93,-503.88C1882.94,-494.22 1852.77,-482.09 1827.4,-471.88"/>
<polygon fill="grey" stroke="grey" stroke-width="2" points="1828.51,-468.55 1817.93,-468.07 1825.9,-475.05 1828.51,-468.55"/>
</g>
<!-- 52 -->
<g id="node53" class="node">
<title>52</title>
<path fill="none" stroke="#56c1d8" stroke-width="2" d="M2176,-540C2176,-540 2051,-540 2051,-540 2045,-540 2039,-534 2039,-528 2039,-528 2039,-516 2039,-516 2039,-510 2045,-504 2051,-504 2051,-504 2176,-504 2176,-504 2182,-504 2188,-510 2188,-516 2188,-516 2188,-528 2188,-528 2188,-534 2182,-540 2176,-540"/>
<text text-anchor="middle" x="2113.5" y="-519.5" font-family="sans" font-size="10.00">fetch_probability_map_L23</text>
</g>
<!-- 52&#45;&gt;50 -->
<g id="edge98" class="edge">
<title>52&#45;&gt;50</title>
<path fill="none" stroke="grey" stroke-width="2" d="M2038.91,-505.55C1988.39,-495.09 1921.31,-481.2 1867.49,-470.05"/>
<polygon fill="grey" stroke="grey" stroke-width="2" points="1868.1,-466.6 1857.6,-468 1866.68,-473.46 1868.1,-466.6"/>
</g>
<!-- 53 -->
<g id="node54" class="node">
<title>53</title>
<path fill="none" stroke="#d89c56" stroke-width="2" d="M2337,-540C2337,-540 2218,-540 2218,-540 2212,-540 2206,-534 2206,-528 2206,-528 2206,-516 2206,-516 2206,-510 2212,-504 2218,-504 2218,-504 2337,-504 2337,-504 2343,-504 2349,-510 2349,-516 2349,-516 2349,-528 2349,-528 2349,-534 2343,-540 2337,-540"/>
<text text-anchor="middle" x="2277.5" y="-519.5" font-family="sans" font-size="10.00">fetch_probability_map_L4</text>
</g>
<!-- 53&#45;&gt;50 -->
<g id="edge99" class="edge">
<title>53&#45;&gt;50</title>
<path fill="none" stroke="grey" stroke-width="2" d="M2205.6,-505.42C2202.87,-504.92 2200.16,-504.45 2197.5,-504 2102.52,-487.97 1994.76,-474.52 1911.91,-465.18"/>
<polygon fill="grey" stroke="grey" stroke-width="2" points="1912.26,-461.69 1901.94,-464.06 1911.48,-468.65 1912.26,-461.69"/>
</g>
<!-- 54 -->
<g id="node55" class="node">
<title>54</title>
<path fill="none" stroke="#d8d356" stroke-width="2" d="M1345,-540C1345,-540 1226,-540 1226,-540 1220,-540 1214,-534 1214,-528 1214,-528 1214,-516 1214,-516 1214,-510 1220,-504 1226,-504 1226,-504 1345,-504 1345,-504 1351,-504 1357,-510 1357,-516 1357,-516 1357,-528 1357,-528 1357,-534 1351,-540 1345,-540"/>
<text text-anchor="middle" x="1285.5" y="-519.5" font-family="sans" font-size="10.00">fetch_probability_map_L5</text>
</g>
<!-- 54&#45;&gt;50 -->
<g id="edge100" class="edge">
<title>54&#45;&gt;50</title>
<path fill="none" stroke="grey" stroke-width="2" d="M1357.43,-505.6C1360.49,-505.04 1363.52,-504.5 1366.5,-504 1457.05,-488.66 1559.53,-475.38 1639.26,-465.96"/>
<polygon fill="grey" stroke="grey" stroke-width="2" points="1639.84,-469.41 1649.37,-464.77 1639.03,-462.46 1639.84,-469.41"/>
</g>
<!-- 55 -->
<g id="node56" class="node">
<title>55</title>
<path fill="none" stroke="#d88556" stroke-width="2" d="M1661,-540C1661,-540 1542,-540 1542,-540 1536,-540 1530,-534 1530,-528 1530,-528 1530,-516 1530,-516 1530,-510 1536,-504 1542,-504 1542,-504 1661,-504 1661,-504 1667,-504 1673,-510 1673,-516 1673,-516 1673,-528 1673,-528 1673,-534 1667,-540 1661,-540"/>
<text text-anchor="middle" x="1601.5" y="-519.5" font-family="sans" font-size="10.00">fetch_probability_map_L6</text>
</g>
<!-- 55&#45;&gt;50 -->
<g id="edge101" class="edge">
<title>55&#45;&gt;50</title>
<path fill="none" stroke="grey" stroke-width="2" d="M1644.07,-503.88C1668.06,-494.22 1698.23,-482.09 1723.6,-471.88"/>
<polygon fill="grey" stroke="grey" stroke-width="2" points="1725.1,-475.05 1733.07,-468.07 1722.49,-468.55 1725.1,-475.05"/>
</g>
<!-- 56 -->
<g id="node57" class="node">
<title>56</title>
<path fill="none" stroke="#56d88a" stroke-width="2" d="M1847.5,-540C1847.5,-540 1703.5,-540 1703.5,-540 1697.5,-540 1691.5,-534 1691.5,-528 1691.5,-528 1691.5,-516 1691.5,-516 1691.5,-510 1697.5,-504 1703.5,-504 1703.5,-504 1847.5,-504 1847.5,-504 1853.5,-504 1859.5,-510 1859.5,-516 1859.5,-516 1859.5,-528 1859.5,-528 1859.5,-534 1853.5,-540 1847.5,-540"/>
<text text-anchor="middle" x="1775.5" y="-519.5" font-family="sans" font-size="10.00">fetch_probability_map_TH_INH</text>
</g>
<!-- 56&#45;&gt;50 -->
<g id="edge102" class="edge">
<title>56&#45;&gt;50</title>
<path fill="none" stroke="grey" stroke-width="2" d="M1775.5,-503.7C1775.5,-495.98 1775.5,-486.71 1775.5,-478.11"/>
<polygon fill="grey" stroke="grey" stroke-width="2" points="1779,-478.1 1775.5,-468.1 1772,-478.1 1779,-478.1"/>
</g>
<!-- 57&#45;&gt;50 -->
<g id="edge103" class="edge">
<title>57&#45;&gt;50</title>
<path fill="none" stroke="grey" stroke-width="2" d="M1512.4,-505.95C1515.47,-505.29 1518.52,-504.64 1521.5,-504 1575.08,-492.57 1635.08,-480.04 1683.31,-470.03"/>
<polygon fill="grey" stroke="grey" stroke-width="2" points="1684.02,-473.46 1693.1,-468 1682.6,-466.6 1684.02,-473.46"/>
</g>
<!-- 58&#45;&gt;49 -->
<g id="edge93" class="edge">
<title>58&#45;&gt;49</title>
<path fill="none" stroke="grey" stroke-width="2" d="M938.64,-503.87C933.16,-479.56 923.08,-434.82 916.59,-406.01"/>
<polygon fill="grey" stroke="grey" stroke-width="2" points="919.99,-405.18 914.37,-396.19 913.16,-406.71 919.99,-405.18"/>
</g>
<!-- 59 -->
<g id="node60" class="node">
<title>59</title>
<path fill="none" stroke="#d8ac56" stroke-width="2" d="M1183.5,-612C1183.5,-612 985.5,-612 985.5,-612 979.5,-612 973.5,-606 973.5,-600 973.5,-600 973.5,-588 973.5,-588 973.5,-582 979.5,-576 985.5,-576 985.5,-576 1183.5,-576 1183.5,-576 1189.5,-576 1195.5,-582 1195.5,-588 1195.5,-588 1195.5,-600 1195.5,-600 1195.5,-606 1189.5,-612 1183.5,-612"/>
<text text-anchor="middle" x="1084.5" y="-591.5" font-family="sans" font-size="10.00">fetch_mapping_cortex_all_to_exc_mtypes</text>
</g>
<!-- 59&#45;&gt;58 -->
<g id="edge109" class="edge">
<title>59&#45;&gt;58</title>
<path fill="none" stroke="grey" stroke-width="2" d="M1049.76,-575.88C1030.68,-566.47 1006.82,-554.71 986.45,-544.67"/>
<polygon fill="grey" stroke="grey" stroke-width="2" points="987.89,-541.47 977.37,-540.19 984.79,-547.75 987.89,-541.47"/>
</g>
<!-- 60&#45;&gt;0 -->
<g id="edge4" class="edge">
<title>60&#45;&gt;0</title>
<path fill="none" stroke="grey" stroke-width="2" d="M745.35,-79.27C662.04,-66.22 514.71,-43.15 428.52,-29.65"/>
<polygon fill="grey" stroke="grey" stroke-width="2" points="429,-26.18 418.58,-28.1 427.92,-33.1 429,-26.18"/>
</g>
<!-- 61&#45;&gt;60 -->
<g id="edge111" class="edge">
<title>61&#45;&gt;60</title>
<path fill="none" stroke="grey" stroke-width="2" d="M740.96,-215.68C742.08,-197.04 745.76,-166.97 757.5,-144 762.88,-133.48 770.99,-123.58 779.12,-115.25"/>
<polygon fill="grey" stroke="grey" stroke-width="2" points="781.78,-117.54 786.52,-108.07 776.9,-112.52 781.78,-117.54"/>
</g>
<!-- 61&#45;&gt;62 -->
<g id="edge116" class="edge">
<title>61&#45;&gt;62</title>
<path fill="none" stroke="grey" stroke-width="2" d="M774.01,-215.88C792.34,-206.51 815.24,-194.81 834.83,-184.8"/>
<polygon fill="grey" stroke="grey" stroke-width="2" points="836.54,-187.86 843.86,-180.19 833.36,-181.62 836.54,-187.86"/>
</g>
<!-- 62&#45;&gt;60 -->
<g id="edge112" class="edge">
<title>62&#45;&gt;60</title>
<path fill="none" stroke="grey" stroke-width="2" d="M860.2,-143.7C851.64,-135.14 841.16,-124.66 831.8,-115.3"/>
<polygon fill="grey" stroke="grey" stroke-width="2" points="834.15,-112.7 824.6,-108.1 829.2,-117.65 834.15,-112.7"/>
</g>
</g>
</svg>
