<?xml version="1.0" encoding="UTF-8" standalone="no"?>
<!DOCTYPE svg PUBLIC "-//W3C//DTD SVG 1.1//EN"
 "http://www.w3.org/Graphics/SVG/1.1/DTD/svg11.dtd">
<!-- Generated by graphviz version 2.49.0 (0)
 -->
<!-- Title: snakemake_dag Pages: 1 -->
<svg width="2177pt" height="1124pt"
 viewBox="0.00 0.00 2177.27 1124.00" xmlns="http://www.w3.org/2000/svg" xmlns:xlink="http://www.w3.org/1999/xlink">
<g id="graph0" class="graph" transform="scale(1 1) rotate(0) translate(4 1120)">
<title>snakemake_dag</title>
<polygon fill="white" stroke="transparent" points="-4,4 -4,-1120 2173.27,-1120 2173.27,4 -4,4"/>
<!-- 0 -->
<g id="node1" class="node">
<title>0</title>
<path fill="none" stroke="#567bd8" stroke-width="2" d="M420.72,-36C420.72,-36 341.18,-36 341.18,-36 335.18,-36 329.18,-30 329.18,-24 329.18,-24 329.18,-12 329.18,-12 329.18,-6 335.18,0 341.18,0 341.18,0 420.72,0 420.72,0 426.72,0 432.72,-6 432.72,-12 432.72,-12 432.72,-24 432.72,-24 432.72,-30 426.72,-36 420.72,-36"/>
<text text-anchor="middle" x="380.95" y="-15" font-family="sans" font-size="10.00">push_cellcomposition</text>
</g>
<!-- 1 -->
<g id="node2" class="node">
<title>1</title>
<path fill="none" stroke="#d85656" stroke-width="2" d="M398.8,-180C398.8,-180 243.11,-180 243.11,-180 237.11,-180 231.11,-174 231.11,-168 231.11,-168 231.11,-156 231.11,-156 231.11,-150 237.11,-144 243.11,-144 243.11,-144 398.8,-144 398.8,-144 404.8,-144 410.8,-150 410.8,-156 410.8,-156 410.8,-168 410.8,-168 410.8,-174 404.8,-180 398.8,-180"/>
<text text-anchor="middle" x="320.95" y="-159" font-family="sans" font-size="10.00">create_cellCompositionVolume_payload</text>
</g>
<!-- 1&#45;&gt;0 -->
<g id="edge1" class="edge">
<title>1&#45;&gt;0</title>
<path fill="none" stroke="grey" stroke-width="2" d="M322.33,-143.89C324.32,-125.42 329.05,-95.5 339.95,-72 344.51,-62.19 351.16,-52.51 357.79,-44.16"/>
<polygon fill="grey" stroke="grey" stroke-width="2" points="360.63,-46.23 364.34,-36.3 355.25,-41.75 360.63,-46.23"/>
</g>
<!-- 42 -->
<g id="node43" class="node">
<title>42</title>
<path fill="none" stroke="#56d86b" stroke-width="2" d="M522.97,-108C522.97,-108 360.94,-108 360.94,-108 354.94,-108 348.94,-102 348.94,-96 348.94,-96 348.94,-84 348.94,-84 348.94,-78 354.94,-72 360.94,-72 360.94,-72 522.97,-72 522.97,-72 528.97,-72 534.97,-78 534.97,-84 534.97,-84 534.97,-96 534.97,-96 534.97,-102 528.97,-108 522.97,-108"/>
<text text-anchor="middle" x="441.95" y="-87" font-family="sans" font-size="10.00">create_cellCompositionSummary_payload</text>
</g>
<!-- 1&#45;&gt;42 -->
<g id="edge75" class="edge">
<title>1&#45;&gt;42</title>
<path fill="none" stroke="grey" stroke-width="2" d="M350.55,-143.88C366.52,-134.64 386.41,-123.13 403.56,-113.21"/>
<polygon fill="grey" stroke="grey" stroke-width="2" points="405.34,-116.23 412.24,-108.19 401.83,-110.17 405.34,-116.23"/>
</g>
<!-- 2 -->
<g id="node3" class="node">
<title>2</title>
<path fill="none" stroke="#d89556" stroke-width="2" d="M405.47,-252C405.47,-252 228.44,-252 228.44,-252 222.44,-252 216.44,-246 216.44,-240 216.44,-240 216.44,-228 216.44,-228 216.44,-222 222.44,-216 228.44,-216 228.44,-216 405.47,-216 405.47,-216 411.47,-216 417.47,-222 417.47,-228 417.47,-228 417.47,-240 417.47,-240 417.47,-246 411.47,-252 405.47,-252"/>
<text text-anchor="middle" x="316.95" y="-231" font-family="sans" font-size="10.00">push_celldensity_transplant_pipeline_datasets</text>
</g>
<!-- 2&#45;&gt;1 -->
<g id="edge3" class="edge">
<title>2&#45;&gt;1</title>
<path fill="none" stroke="grey" stroke-width="2" d="M317.94,-215.7C318.38,-207.98 318.91,-198.71 319.4,-190.11"/>
<polygon fill="grey" stroke="grey" stroke-width="2" points="322.9,-190.29 319.98,-180.1 315.91,-189.89 322.9,-190.29"/>
</g>
<!-- 3 -->
<g id="node4" class="node">
<title>3</title>
<path fill="none" stroke="#c6d856" stroke-width="2" d="M1083.84,-324C1083.84,-324 912.07,-324 912.07,-324 906.07,-324 900.07,-318 900.07,-312 900.07,-312 900.07,-300 900.07,-300 900.07,-294 906.07,-288 912.07,-288 912.07,-288 1083.84,-288 1083.84,-288 1089.84,-288 1095.84,-294 1095.84,-300 1095.84,-300 1095.84,-312 1095.84,-312 1095.84,-318 1089.84,-324 1083.84,-324"/>
<text text-anchor="middle" x="997.95" y="-303" font-family="sans" font-size="10.00">transplant_glia_cell_densities_correctednissl</text>
</g>
<!-- 3&#45;&gt;2 -->
<g id="edge4" class="edge">
<title>3&#45;&gt;2</title>
<path fill="none" stroke="grey" stroke-width="2" d="M900.03,-289.18C896.97,-288.77 893.94,-288.37 890.95,-288 730.35,-267.85 543.55,-252 427.78,-243.07"/>
<polygon fill="grey" stroke="grey" stroke-width="2" points="427.73,-239.55 417.49,-242.28 427.19,-246.53 427.73,-239.55"/>
</g>
<!-- 4 -->
<g id="node5" class="node">
<title>4</title>
<path fill="none" stroke="#97d856" stroke-width="2" d="M762.03,-828C762.03,-828 643.88,-828 643.88,-828 637.88,-828 631.88,-822 631.88,-816 631.88,-816 631.88,-804 631.88,-804 631.88,-798 637.88,-792 643.88,-792 643.88,-792 762.03,-792 762.03,-792 768.03,-792 774.03,-798 774.03,-804 774.03,-804 774.03,-816 774.03,-816 774.03,-822 768.03,-828 762.03,-828"/>
<text text-anchor="middle" x="702.95" y="-807" font-family="sans" font-size="10.00">split_isocortex_layer_23_ccfv2</text>
</g>
<!-- 4&#45;&gt;3 -->
<g id="edge10" class="edge">
<title>4&#45;&gt;3</title>
<path fill="none" stroke="grey" stroke-width="2" d="M695.26,-791.91C684.16,-765.62 664.95,-713.45 664.95,-667 664.95,-667 664.95,-667 664.95,-449 664.95,-395.76 810.82,-350.79 909.47,-326.47"/>
<polygon fill="grey" stroke="grey" stroke-width="2" points="910.57,-329.8 919.46,-324.03 908.92,-323 910.57,-329.8"/>
</g>
<!-- 15 -->
<g id="node16" class="node">
<title>15</title>
<path fill="none" stroke="#d8d356" stroke-width="2" d="M1821.41,-684C1821.41,-684 1694.5,-684 1694.5,-684 1688.5,-684 1682.5,-678 1682.5,-672 1682.5,-672 1682.5,-660 1682.5,-660 1682.5,-654 1688.5,-648 1694.5,-648 1694.5,-648 1821.41,-648 1821.41,-648 1827.41,-648 1833.41,-654 1833.41,-660 1833.41,-660 1833.41,-672 1833.41,-672 1833.41,-678 1827.41,-684 1821.41,-684"/>
<text text-anchor="middle" x="1757.95" y="-663" font-family="sans" font-size="10.00">glia_cell_densities_correctednissl</text>
</g>
<!-- 4&#45;&gt;15 -->
<g id="edge29" class="edge">
<title>4&#45;&gt;15</title>
<path fill="none" stroke="grey" stroke-width="2" d="M774.32,-807.58C1001.39,-802.75 1694.44,-785.66 1731.95,-756 1750.34,-741.46 1756.22,-714.67 1757.88,-694.26"/>
<polygon fill="grey" stroke="grey" stroke-width="2" points="1761.37,-694.44 1758.4,-684.27 1754.38,-694.08 1761.37,-694.44"/>
</g>
<!-- 16 -->
<g id="node17" class="node">
<title>16</title>
<path fill="none" stroke="#56b1d8" stroke-width="2" d="M1711.31,-756C1711.31,-756 1610.6,-756 1610.6,-756 1604.6,-756 1598.6,-750 1598.6,-744 1598.6,-744 1598.6,-732 1598.6,-732 1598.6,-726 1604.6,-720 1610.6,-720 1610.6,-720 1711.31,-720 1711.31,-720 1717.31,-720 1723.31,-726 1723.31,-732 1723.31,-732 1723.31,-744 1723.31,-744 1723.31,-750 1717.31,-756 1711.31,-756"/>
<text text-anchor="middle" x="1660.95" y="-735" font-family="sans" font-size="10.00">cell_density_correctednissl</text>
</g>
<!-- 4&#45;&gt;16 -->
<g id="edge32" class="edge">
<title>4&#45;&gt;16</title>
<path fill="none" stroke="grey" stroke-width="2" d="M774.22,-808.57C924.72,-806.83 1285.71,-798.18 1584.95,-756 1586.06,-755.84 1587.17,-755.68 1588.29,-755.51"/>
<polygon fill="grey" stroke="grey" stroke-width="2" points="1589.19,-758.91 1598.47,-753.81 1588.03,-752 1589.19,-758.91"/>
</g>
<!-- 18 -->
<g id="node19" class="node">
<title>18</title>
<path fill="none" stroke="#56d8a9" stroke-width="2" d="M1854.59,-756C1854.59,-756 1791.31,-756 1791.31,-756 1785.31,-756 1779.31,-750 1779.31,-744 1779.31,-744 1779.31,-732 1779.31,-732 1779.31,-726 1785.31,-720 1791.31,-720 1791.31,-720 1854.59,-720 1854.59,-720 1860.59,-720 1866.59,-726 1866.59,-732 1866.59,-732 1866.59,-744 1866.59,-744 1866.59,-750 1860.59,-756 1854.59,-756"/>
<text text-anchor="middle" x="1822.95" y="-735" font-family="sans" font-size="10.00">combine_markers</text>
</g>
<!-- 4&#45;&gt;18 -->
<g id="edge40" class="edge">
<title>4&#45;&gt;18</title>
<path fill="none" stroke="grey" stroke-width="2" d="M774.25,-807.63C980.23,-803.31 1573.6,-788.35 1764.95,-756 1766.41,-755.75 1767.88,-755.48 1769.36,-755.19"/>
<polygon fill="grey" stroke="grey" stroke-width="2" points="1770.19,-758.59 1779.19,-753 1768.67,-751.76 1770.19,-758.59"/>
</g>
<!-- 25 -->
<g id="node26" class="node">
<title>25</title>
<path fill="none" stroke="#56d863" stroke-width="2" d="M729.51,-324C729.51,-324 486.4,-324 486.4,-324 480.4,-324 474.4,-318 474.4,-312 474.4,-312 474.4,-300 474.4,-300 474.4,-294 480.4,-288 486.4,-288 486.4,-288 729.51,-288 729.51,-288 735.51,-288 741.51,-294 741.51,-300 741.51,-300 741.51,-312 741.51,-312 741.51,-318 735.51,-324 729.51,-324"/>
<text text-anchor="middle" x="607.95" y="-303" font-family="sans" font-size="10.00">transplant_inhibitory_neuron_densities_linprog_correctednissl</text>
</g>
<!-- 4&#45;&gt;25 -->
<g id="edge41" class="edge">
<title>4&#45;&gt;25</title>
<path fill="none" stroke="grey" stroke-width="2" d="M659.39,-791.96C642.69,-783.45 624.82,-771.58 612.95,-756 588.13,-723.41 588.95,-707.97 588.95,-667 588.95,-667 588.95,-667 588.95,-449 588.95,-408.86 596.5,-362.9 602.09,-334.4"/>
<polygon fill="grey" stroke="grey" stroke-width="2" points="605.56,-334.88 604.11,-324.39 598.7,-333.5 605.56,-334.88"/>
</g>
<!-- 26 -->
<g id="node27" class="node">
<title>26</title>
<path fill="none" stroke="#5673d8" stroke-width="2" d="M903.08,-468C903.08,-468 704.83,-468 704.83,-468 698.83,-468 692.83,-462 692.83,-456 692.83,-456 692.83,-444 692.83,-444 692.83,-438 698.83,-432 704.83,-432 704.83,-432 903.08,-432 903.08,-432 909.08,-432 915.08,-438 915.08,-444 915.08,-444 915.08,-456 915.08,-456 915.08,-462 909.08,-468 903.08,-468"/>
<text text-anchor="middle" x="803.95" y="-447" font-family="sans" font-size="10.00">inhibitory_neuron_densities_linprog_correctednissl</text>
</g>
<!-- 4&#45;&gt;26 -->
<g id="edge44" class="edge">
<title>4&#45;&gt;26</title>
<path fill="none" stroke="grey" stroke-width="2" d="M702.95,-791.95C702.95,-765.29 702.95,-712.11 702.95,-667 702.95,-667 702.95,-667 702.95,-593 702.95,-544.19 743.07,-500.51 772.73,-474.87"/>
<polygon fill="grey" stroke="grey" stroke-width="2" points="775.36,-477.23 780.78,-468.13 770.87,-471.87 775.36,-477.23"/>
</g>
<!-- 27 -->
<g id="node28" class="node">
<title>27</title>
<path fill="none" stroke="#56d85b" stroke-width="2" d="M1350.95,-540C1350.95,-540 1212.96,-540 1212.96,-540 1206.96,-540 1200.96,-534 1200.96,-528 1200.96,-528 1200.96,-516 1200.96,-516 1200.96,-510 1206.96,-504 1212.96,-504 1212.96,-504 1350.95,-504 1350.95,-504 1356.95,-504 1362.95,-510 1362.95,-516 1362.95,-516 1362.95,-528 1362.95,-528 1362.95,-534 1356.95,-540 1350.95,-540"/>
<text text-anchor="middle" x="1281.95" y="-519" font-family="sans" font-size="10.00">fit_average_densities_correctednissl</text>
</g>
<!-- 4&#45;&gt;27 -->
<g id="edge48" class="edge">
<title>4&#45;&gt;27</title>
<path fill="none" stroke="grey" stroke-width="2" d="M723.21,-791.94C733.76,-782.25 746.23,-769.39 754.95,-756 783.15,-712.71 759.19,-682.16 797.95,-648 855.9,-596.94 1067.25,-556.45 1190.67,-536.52"/>
<polygon fill="grey" stroke="grey" stroke-width="2" points="1191.54,-539.93 1200.86,-534.89 1190.44,-533.01 1191.54,-539.93"/>
</g>
<!-- 33 -->
<g id="node34" class="node">
<title>33</title>
<path fill="none" stroke="#5692d8" stroke-width="2" d="M1603.56,-612C1603.56,-612 1480.35,-612 1480.35,-612 1474.35,-612 1468.35,-606 1468.35,-600 1468.35,-600 1468.35,-588 1468.35,-588 1468.35,-582 1474.35,-576 1480.35,-576 1480.35,-576 1603.56,-576 1603.56,-576 1609.56,-576 1615.56,-582 1615.56,-588 1615.56,-588 1615.56,-600 1615.56,-600 1615.56,-606 1609.56,-612 1603.56,-612"/>
<text text-anchor="middle" x="1541.95" y="-591" font-family="sans" font-size="10.00">average_densities_correctednissl</text>
</g>
<!-- 4&#45;&gt;33 -->
<g id="edge56" class="edge">
<title>4&#45;&gt;33</title>
<path fill="none" stroke="grey" stroke-width="2" d="M774.02,-804.36C976.27,-790.45 1543.89,-746.14 1597.95,-684 1615.56,-663.76 1594.5,-637.43 1573.37,-618.67"/>
<polygon fill="grey" stroke="grey" stroke-width="2" points="1575.54,-615.92 1565.65,-612.13 1571.01,-621.26 1575.54,-615.92"/>
</g>
<!-- 35 -->
<g id="node36" class="node">
<title>35</title>
<path fill="none" stroke="#56d8b9" stroke-width="2" d="M870.1,-324C870.1,-324 771.81,-324 771.81,-324 765.81,-324 759.81,-318 759.81,-312 759.81,-312 759.81,-300 759.81,-300 759.81,-294 765.81,-288 771.81,-288 771.81,-288 870.1,-288 870.1,-288 876.1,-288 882.1,-294 882.1,-300 882.1,-300 882.1,-312 882.1,-312 882.1,-318 876.1,-324 870.1,-324"/>
<text text-anchor="middle" x="820.95" y="-303" font-family="sans" font-size="10.00">transplant_excitatory_split</text>
</g>
<!-- 4&#45;&gt;35 -->
<g id="edge60" class="edge">
<title>4&#45;&gt;35</title>
<path fill="none" stroke="grey" stroke-width="2" d="M681.55,-791.86C670.94,-782.33 658.76,-769.65 650.95,-756 630.61,-720.44 626.95,-707.97 626.95,-667 626.95,-667 626.95,-667 626.95,-449 626.95,-408.03 622.55,-389.53 650.95,-360 658.3,-352.36 706.56,-337.7 749.78,-325.73"/>
<polygon fill="grey" stroke="grey" stroke-width="2" points="750.77,-329.09 759.49,-323.06 748.92,-322.34 750.77,-329.09"/>
</g>
<!-- 36 -->
<g id="node37" class="node">
<title>36</title>
<path fill="none" stroke="#56b9d8" stroke-width="2" d="M934.16,-396C934.16,-396 879.74,-396 879.74,-396 873.74,-396 867.74,-390 867.74,-384 867.74,-384 867.74,-372 867.74,-372 867.74,-366 873.74,-360 879.74,-360 879.74,-360 934.16,-360 934.16,-360 940.16,-360 946.16,-366 946.16,-372 946.16,-372 946.16,-384 946.16,-384 946.16,-390 940.16,-396 934.16,-396"/>
<text text-anchor="middle" x="906.95" y="-375" font-family="sans" font-size="10.00">excitatory_split</text>
</g>
<!-- 4&#45;&gt;36 -->
<g id="edge63" class="edge">
<title>4&#45;&gt;36</title>
<path fill="none" stroke="grey" stroke-width="2" d="M708.31,-791.72C718.15,-761.31 740.88,-696.83 770.95,-648 826.02,-558.6 887.73,-566.55 923.95,-468 931.42,-447.69 925.96,-423.52 919.3,-405.49"/>
<polygon fill="grey" stroke="grey" stroke-width="2" points="922.53,-404.15 915.56,-396.17 916.04,-406.76 922.53,-404.15"/>
</g>
<!-- 37 -->
<g id="node38" class="node">
<title>37</title>
<path fill="none" stroke="#56d8b1" stroke-width="2" d="M252.31,-324C252.31,-324 51.6,-324 51.6,-324 45.6,-324 39.6,-318 39.6,-312 39.6,-312 39.6,-300 39.6,-300 39.6,-294 45.6,-288 51.6,-288 51.6,-288 252.31,-288 252.31,-288 258.31,-288 264.31,-294 264.31,-300 264.31,-300 264.31,-312 264.31,-312 264.31,-318 258.31,-324 252.31,-324"/>
<text text-anchor="middle" x="151.95" y="-303" font-family="sans" font-size="10.00">transplant_mtypes_densities_from_probability_map</text>
</g>
<!-- 4&#45;&gt;37 -->
<g id="edge66" class="edge">
<title>4&#45;&gt;37</title>
<path fill="none" stroke="grey" stroke-width="2" d="M631.71,-805.63C568.82,-800.56 475.77,-787.85 400.95,-756 201.38,-671.04 105.15,-661.41 6.95,-468 -22.42,-410.14 53.65,-357.14 106.38,-328.74"/>
<polygon fill="grey" stroke="grey" stroke-width="2" points="108.05,-331.81 115.27,-324.06 104.79,-325.62 108.05,-331.81"/>
</g>
<!-- 38 -->
<g id="node39" class="node">
<title>38</title>
<path fill="none" stroke="#68d856" stroke-width="2" d="M300.74,-396C300.74,-396 115.17,-396 115.17,-396 109.17,-396 103.17,-390 103.17,-384 103.17,-384 103.17,-372 103.17,-372 103.17,-366 109.17,-360 115.17,-360 115.17,-360 300.74,-360 300.74,-360 306.74,-360 312.74,-366 312.74,-372 312.74,-372 312.74,-384 312.74,-384 312.74,-390 306.74,-396 300.74,-396"/>
<text text-anchor="middle" x="207.95" y="-375" font-family="sans" font-size="10.00">create_mtypes_densities_from_probability_map</text>
</g>
<!-- 4&#45;&gt;38 -->
<g id="edge71" class="edge">
<title>4&#45;&gt;38</title>
<path fill="none" stroke="grey" stroke-width="2" d="M631.91,-795.09C529.87,-773.06 353.95,-726.44 353.95,-667 353.95,-667 353.95,-667 353.95,-593 353.95,-514.97 333.38,-492.38 283.95,-432 274.27,-420.17 261.3,-409.81 248.81,-401.47"/>
<polygon fill="grey" stroke="grey" stroke-width="2" points="250.61,-398.47 240.3,-396.03 246.84,-404.36 250.61,-398.47"/>
</g>
<!-- 5 -->
<g id="node6" class="node">
<title>5</title>
<path fill="none" stroke="#80d856" stroke-width="2" d="M380,-1044C380,-1044 251.91,-1044 251.91,-1044 245.91,-1044 239.91,-1038 239.91,-1032 239.91,-1032 239.91,-1020 239.91,-1020 239.91,-1014 245.91,-1008 251.91,-1008 251.91,-1008 380,-1008 380,-1008 386,-1008 392,-1014 392,-1020 392,-1020 392,-1032 392,-1032 392,-1038 386,-1044 380,-1044"/>
<text text-anchor="middle" x="315.95" y="-1023" font-family="sans" font-size="10.00">fetch_ccf_brain_region_hierarchy</text>
</g>
<!-- 5&#45;&gt;4 -->
<g id="edge13" class="edge">
<title>5&#45;&gt;4</title>
<path fill="none" stroke="grey" stroke-width="2" d="M316.68,-1007.66C318.28,-988.45 323.3,-957.37 338.95,-936 374.59,-887.35 398.06,-886.62 453.95,-864 507.81,-842.21 572,-828.82 621.72,-820.95"/>
<polygon fill="grey" stroke="grey" stroke-width="2" points="622.43,-824.38 631.79,-819.4 621.37,-817.47 622.43,-824.38"/>
</g>
<!-- 9 -->
<g id="node10" class="node">
<title>9</title>
<path fill="none" stroke="#d88d56" stroke-width="2" d="M653,-900C653,-900 474.91,-900 474.91,-900 468.91,-900 462.91,-894 462.91,-888 462.91,-888 462.91,-876 462.91,-876 462.91,-870 468.91,-864 474.91,-864 474.91,-864 653,-864 653,-864 659,-864 665,-870 665,-876 665,-876 665,-888 665,-888 665,-894 659,-900 653,-900"/>
<text text-anchor="middle" x="563.95" y="-879" font-family="sans" font-size="10.00">interpolate_direction_vectors_isocortex_ccfv2</text>
</g>
<!-- 5&#45;&gt;9 -->
<g id="edge19" class="edge">
<title>5&#45;&gt;9</title>
<path fill="none" stroke="grey" stroke-width="2" d="M322.43,-1007.89C330.96,-987.69 347.86,-954.53 372.95,-936 396.23,-918.81 424.83,-907.2 452.73,-899.35"/>
<polygon fill="grey" stroke="grey" stroke-width="2" points="453.8,-902.69 462.56,-896.73 452,-895.92 453.8,-902.69"/>
</g>
<!-- 10 -->
<g id="node11" class="node">
<title>10</title>
<path fill="none" stroke="#56d0d8" stroke-width="2" d="M524.23,-972C524.23,-972 393.67,-972 393.67,-972 387.67,-972 381.67,-966 381.67,-960 381.67,-960 381.67,-948 381.67,-948 381.67,-942 387.67,-936 393.67,-936 393.67,-936 524.23,-936 524.23,-936 530.23,-936 536.23,-942 536.23,-948 536.23,-948 536.23,-960 536.23,-960 536.23,-966 530.23,-972 524.23,-972"/>
<text text-anchor="middle" x="458.95" y="-951" font-family="sans" font-size="10.00">direction_vectors_isocortex_ccfv2</text>
</g>
<!-- 5&#45;&gt;10 -->
<g id="edge23" class="edge">
<title>5&#45;&gt;10</title>
<path fill="none" stroke="grey" stroke-width="2" d="M350.94,-1007.88C370.15,-998.47 394.18,-986.71 414.69,-976.67"/>
<polygon fill="grey" stroke="grey" stroke-width="2" points="416.4,-979.73 423.84,-972.19 413.32,-973.44 416.4,-979.73"/>
</g>
<!-- 12 -->
<g id="node13" class="node">
<title>12</title>
<path fill="none" stroke="#59d856" stroke-width="2" d="M505.03,-396C505.03,-396 386.88,-396 386.88,-396 380.88,-396 374.88,-390 374.88,-384 374.88,-384 374.88,-372 374.88,-372 374.88,-366 380.88,-360 386.88,-360 386.88,-360 505.03,-360 505.03,-360 511.03,-360 517.03,-366 517.03,-372 517.03,-372 517.03,-384 517.03,-384 517.03,-390 511.03,-396 505.03,-396"/>
<text text-anchor="middle" x="445.95" y="-375" font-family="sans" font-size="10.00">split_isocortex_layer_23_ccfv3</text>
</g>
<!-- 5&#45;&gt;12 -->
<g id="edge24" class="edge">
<title>5&#45;&gt;12</title>
<path fill="none" stroke="grey" stroke-width="2" d="M299.46,-1007.77C277.11,-982.53 239.95,-933.05 239.95,-883 239.95,-883 239.95,-883 239.95,-665 239.95,-548.52 280.81,-517.46 359.95,-432 371.2,-419.86 385.83,-409.47 399.83,-401.19"/>
<polygon fill="grey" stroke="grey" stroke-width="2" points="401.92,-404.03 408.9,-396.06 398.47,-397.94 401.92,-404.03"/>
</g>
<!-- 14 -->
<g id="node15" class="node">
<title>14</title>
<path fill="none" stroke="#566bd8" stroke-width="2" d="M511.23,-468C511.23,-468 380.67,-468 380.67,-468 374.67,-468 368.67,-462 368.67,-456 368.67,-456 368.67,-444 368.67,-444 368.67,-438 374.67,-432 380.67,-432 380.67,-432 511.23,-432 511.23,-432 517.23,-432 523.23,-438 523.23,-444 523.23,-444 523.23,-456 523.23,-456 523.23,-462 517.23,-468 511.23,-468"/>
<text text-anchor="middle" x="445.95" y="-447" font-family="sans" font-size="10.00">direction_vectors_isocortex_ccfv3</text>
</g>
<!-- 5&#45;&gt;14 -->
<g id="edge28" class="edge">
<title>5&#45;&gt;14</title>
<path fill="none" stroke="grey" stroke-width="2" d="M308.26,-1007.91C297.16,-981.62 277.95,-929.45 277.95,-883 277.95,-883 277.95,-883 277.95,-737 277.95,-626.81 371.81,-521.56 419.22,-475.43"/>
<polygon fill="grey" stroke="grey" stroke-width="2" points="421.88,-477.73 426.68,-468.28 417.04,-472.67 421.88,-477.73"/>
</g>
<!-- 6 -->
<g id="node7" class="node">
<title>6</title>
<path fill="none" stroke="#56d873" stroke-width="2" d="M610,-1044C610,-1044 517.91,-1044 517.91,-1044 511.91,-1044 505.91,-1038 505.91,-1032 505.91,-1032 505.91,-1020 505.91,-1020 505.91,-1014 511.91,-1008 517.91,-1008 517.91,-1008 610,-1008 610,-1008 616,-1008 622,-1014 622,-1020 622,-1020 622,-1032 622,-1032 622,-1038 616,-1044 610,-1044"/>
<text text-anchor="middle" x="563.95" y="-1023" font-family="sans" font-size="10.00">combine_v2_annotations</text>
</g>
<!-- 6&#45;&gt;4 -->
<g id="edge14" class="edge">
<title>6&#45;&gt;4</title>
<path fill="none" stroke="grey" stroke-width="2" d="M622.07,-1021.3C656.29,-1015.77 697.04,-1002.65 718.95,-972 747.43,-932.17 729.71,-871.95 715.5,-837.56"/>
<polygon fill="grey" stroke="grey" stroke-width="2" points="718.63,-835.97 711.45,-828.18 712.2,-838.75 718.63,-835.97"/>
</g>
<!-- 6&#45;&gt;9 -->
<g id="edge18" class="edge">
<title>6&#45;&gt;9</title>
<path fill="none" stroke="grey" stroke-width="2" d="M563.95,-1007.87C563.95,-983.67 563.95,-939.21 563.95,-910.39"/>
<polygon fill="grey" stroke="grey" stroke-width="2" points="567.45,-910.19 563.95,-900.19 560.45,-910.19 567.45,-910.19"/>
</g>
<!-- 6&#45;&gt;10 -->
<g id="edge22" class="edge">
<title>6&#45;&gt;10</title>
<path fill="none" stroke="grey" stroke-width="2" d="M538.27,-1007.88C524.67,-998.81 507.78,-987.55 493.09,-977.76"/>
<polygon fill="grey" stroke="grey" stroke-width="2" points="495,-974.82 484.74,-972.19 491.12,-980.65 495,-974.82"/>
</g>
<!-- 7 -->
<g id="node8" class="node">
<title>7</title>
<path fill="none" stroke="#56d8d8" stroke-width="2" d="M543.4,-1116C543.4,-1116 426.51,-1116 426.51,-1116 420.51,-1116 414.51,-1110 414.51,-1104 414.51,-1104 414.51,-1092 414.51,-1092 414.51,-1086 420.51,-1080 426.51,-1080 426.51,-1080 543.4,-1080 543.4,-1080 549.4,-1080 555.4,-1086 555.4,-1092 555.4,-1092 555.4,-1104 555.4,-1104 555.4,-1110 549.4,-1116 543.4,-1116"/>
<text text-anchor="middle" x="484.95" y="-1095" font-family="sans" font-size="10.00">fetch_brain_parcellation_ccfv2</text>
</g>
<!-- 7&#45;&gt;6 -->
<g id="edge16" class="edge">
<title>7&#45;&gt;6</title>
<path fill="none" stroke="grey" stroke-width="2" d="M504.48,-1079.7C514.34,-1070.97 526.44,-1060.24 537.15,-1050.75"/>
<polygon fill="grey" stroke="grey" stroke-width="2" points="539.49,-1053.36 544.65,-1044.1 534.84,-1048.12 539.49,-1053.36"/>
</g>
<!-- 8 -->
<g id="node9" class="node">
<title>8</title>
<path fill="none" stroke="#61d856" stroke-width="2" d="M700.72,-1116C700.72,-1116 585.18,-1116 585.18,-1116 579.18,-1116 573.18,-1110 573.18,-1104 573.18,-1104 573.18,-1092 573.18,-1092 573.18,-1086 579.18,-1080 585.18,-1080 585.18,-1080 700.72,-1080 700.72,-1080 706.72,-1080 712.72,-1086 712.72,-1092 712.72,-1092 712.72,-1104 712.72,-1104 712.72,-1110 706.72,-1116 700.72,-1116"/>
<text text-anchor="middle" x="642.95" y="-1095" font-family="sans" font-size="10.00">fetch_fiber_parcellation_ccfv2</text>
</g>
<!-- 8&#45;&gt;6 -->
<g id="edge17" class="edge">
<title>8&#45;&gt;6</title>
<path fill="none" stroke="grey" stroke-width="2" d="M623.43,-1079.7C613.57,-1070.97 601.47,-1060.24 590.76,-1050.75"/>
<polygon fill="grey" stroke="grey" stroke-width="2" points="593.06,-1048.12 583.26,-1044.1 588.42,-1053.36 593.06,-1048.12"/>
</g>
<!-- 9&#45;&gt;4 -->
<g id="edge15" class="edge">
<title>9&#45;&gt;4</title>
<path fill="none" stroke="grey" stroke-width="2" d="M597.96,-863.88C616.55,-854.51 639.78,-842.81 659.66,-832.8"/>
<polygon fill="grey" stroke="grey" stroke-width="2" points="661.46,-835.81 668.82,-828.19 658.31,-829.56 661.46,-835.81"/>
</g>
<!-- 10&#45;&gt;9 -->
<g id="edge20" class="edge">
<title>10&#45;&gt;9</title>
<path fill="none" stroke="grey" stroke-width="2" d="M484.64,-935.88C498.24,-926.81 515.13,-915.55 529.82,-905.76"/>
<polygon fill="grey" stroke="grey" stroke-width="2" points="531.79,-908.65 538.17,-900.19 527.91,-902.82 531.79,-908.65"/>
</g>
<!-- 11 -->
<g id="node12" class="node">
<title>11</title>
<path fill="none" stroke="#b6d856" stroke-width="2" d="M698.19,-972C698.19,-972 603.72,-972 603.72,-972 597.72,-972 591.72,-966 591.72,-960 591.72,-960 591.72,-948 591.72,-948 591.72,-942 597.72,-936 603.72,-936 603.72,-936 698.19,-936 698.19,-936 704.19,-936 710.19,-942 710.19,-948 710.19,-948 710.19,-960 710.19,-960 710.19,-966 704.19,-972 698.19,-972"/>
<text text-anchor="middle" x="650.95" y="-951" font-family="sans" font-size="10.00">fetch_isocortex_metadata</text>
</g>
<!-- 11&#45;&gt;9 -->
<g id="edge21" class="edge">
<title>11&#45;&gt;9</title>
<path fill="none" stroke="grey" stroke-width="2" d="M629.45,-935.7C618.49,-926.88 605.01,-916.03 593.13,-906.47"/>
<polygon fill="grey" stroke="grey" stroke-width="2" points="595.2,-903.65 585.21,-900.1 590.81,-909.1 595.2,-903.65"/>
</g>
<!-- 12&#45;&gt;2 -->
<g id="edge8" class="edge">
<title>12&#45;&gt;2</title>
<path fill="none" stroke="grey" stroke-width="2" d="M374.58,-365.8C350.27,-358.19 325.56,-345.43 310.95,-324 298.61,-305.89 301.75,-280.59 307.03,-261.6"/>
<polygon fill="grey" stroke="grey" stroke-width="2" points="310.37,-262.63 310,-252.04 303.69,-260.55 310.37,-262.63"/>
</g>
<!-- 12&#45;&gt;3 -->
<g id="edge11" class="edge">
<title>12&#45;&gt;3</title>
<path fill="none" stroke="grey" stroke-width="2" d="M517.36,-369.36C603.28,-359.98 752.19,-343.1 890.11,-324.09"/>
<polygon fill="grey" stroke="grey" stroke-width="2" points="890.59,-327.56 900.02,-322.72 889.63,-320.62 890.59,-327.56"/>
</g>
<!-- 12&#45;&gt;25 -->
<g id="edge42" class="edge">
<title>12&#45;&gt;25</title>
<path fill="none" stroke="grey" stroke-width="2" d="M485.58,-359.88C507.73,-350.31 535.52,-338.3 559.01,-328.15"/>
<polygon fill="grey" stroke="grey" stroke-width="2" points="560.66,-331.25 568.45,-324.07 557.89,-324.82 560.66,-331.25"/>
</g>
<!-- 12&#45;&gt;35 -->
<g id="edge61" class="edge">
<title>12&#45;&gt;35</title>
<path fill="none" stroke="grey" stroke-width="2" d="M517.08,-366.01C576.76,-356.47 664.44,-341.73 749.7,-324.2"/>
<polygon fill="grey" stroke="grey" stroke-width="2" points="750.46,-327.61 759.55,-322.16 749.04,-320.76 750.46,-327.61"/>
</g>
<!-- 12&#45;&gt;37 -->
<g id="edge67" class="edge">
<title>12&#45;&gt;37</title>
<path fill="none" stroke="grey" stroke-width="2" d="M374.78,-360.05C332.13,-349.9 277.74,-336.95 233.37,-326.39"/>
<polygon fill="grey" stroke="grey" stroke-width="2" points="234.03,-322.94 223.49,-324.03 232.4,-329.75 234.03,-322.94"/>
</g>
<!-- 41 -->
<g id="node42" class="node">
<title>41</title>
<path fill="none" stroke="#d8c356" stroke-width="2" d="M405.6,-324C405.6,-324 332.31,-324 332.31,-324 326.31,-324 320.31,-318 320.31,-312 320.31,-312 320.31,-300 320.31,-300 320.31,-294 326.31,-288 332.31,-288 332.31,-288 405.6,-288 405.6,-288 411.6,-288 417.6,-294 417.6,-300 417.6,-300 417.6,-312 417.6,-312 417.6,-318 411.6,-324 405.6,-324"/>
<text text-anchor="middle" x="368.95" y="-303" font-family="sans" font-size="10.00">export_brain_region</text>
</g>
<!-- 12&#45;&gt;41 -->
<g id="edge73" class="edge">
<title>12&#45;&gt;41</title>
<path fill="none" stroke="grey" stroke-width="2" d="M426.92,-359.7C417.41,-351.05 405.75,-340.45 395.38,-331.03"/>
<polygon fill="grey" stroke="grey" stroke-width="2" points="397.52,-328.24 387.77,-324.1 392.81,-333.42 397.52,-328.24"/>
</g>
<!-- 12&#45;&gt;42 -->
<g id="edge74" class="edge">
<title>12&#45;&gt;42</title>
<path fill="none" stroke="grey" stroke-width="2" d="M445.72,-359.97C445.05,-312.29 443.16,-177.18 442.34,-118.63"/>
<polygon fill="grey" stroke="grey" stroke-width="2" points="445.84,-118.26 442.2,-108.31 438.84,-118.35 445.84,-118.26"/>
</g>
<!-- 13 -->
<g id="node14" class="node">
<title>13</title>
<path fill="none" stroke="#88d856" stroke-width="2" d="M536.4,-540C536.4,-540 419.51,-540 419.51,-540 413.51,-540 407.51,-534 407.51,-528 407.51,-528 407.51,-516 407.51,-516 407.51,-510 413.51,-504 419.51,-504 419.51,-504 536.4,-504 536.4,-504 542.4,-504 548.4,-510 548.4,-516 548.4,-516 548.4,-528 548.4,-528 548.4,-534 542.4,-540 536.4,-540"/>
<text text-anchor="middle" x="477.95" y="-519" font-family="sans" font-size="10.00">fetch_brain_parcellation_ccfv3</text>
</g>
<!-- 13&#45;&gt;12 -->
<g id="edge25" class="edge">
<title>13&#45;&gt;12</title>
<path fill="none" stroke="grey" stroke-width="2" d="M502.88,-503.86C514.01,-494.67 525.96,-482.29 531.95,-468 538.15,-453.25 539.75,-445.97 531.95,-432 524.73,-419.06 512.9,-408.89 500.3,-401.07"/>
<polygon fill="grey" stroke="grey" stroke-width="2" points="501.92,-397.96 491.5,-396.02 498.44,-404.03 501.92,-397.96"/>
</g>
<!-- 13&#45;&gt;14 -->
<g id="edge27" class="edge">
<title>13&#45;&gt;14</title>
<path fill="none" stroke="grey" stroke-width="2" d="M470.04,-503.7C466.4,-495.73 462,-486.1 457.96,-477.26"/>
<polygon fill="grey" stroke="grey" stroke-width="2" points="461.11,-475.74 453.77,-468.1 454.75,-478.65 461.11,-475.74"/>
</g>
<!-- 14&#45;&gt;12 -->
<g id="edge26" class="edge">
<title>14&#45;&gt;12</title>
<path fill="none" stroke="grey" stroke-width="2" d="M445.95,-431.7C445.95,-423.98 445.95,-414.71 445.95,-406.11"/>
<polygon fill="grey" stroke="grey" stroke-width="2" points="449.45,-406.1 445.95,-396.1 442.45,-406.1 449.45,-406.1"/>
</g>
<!-- 15&#45;&gt;3 -->
<g id="edge12" class="edge">
<title>15&#45;&gt;3</title>
<path fill="none" stroke="grey" stroke-width="2" d="M1757.95,-647.95C1757.95,-621.29 1757.95,-568.11 1757.95,-523 1757.95,-523 1757.95,-523 1757.95,-449 1757.95,-383.46 1315.63,-335.28 1105.87,-316.11"/>
<polygon fill="grey" stroke="grey" stroke-width="2" points="1106.03,-312.61 1095.75,-315.19 1105.4,-319.58 1106.03,-312.61"/>
</g>
<!-- 15&#45;&gt;26 -->
<g id="edge45" class="edge">
<title>15&#45;&gt;26</title>
<path fill="none" stroke="grey" stroke-width="2" d="M1741.23,-647.93C1718.32,-624.91 1677.99,-585.65 1659.95,-576 1543.61,-513.77 1502.01,-526.19 1371.95,-504 1219.14,-477.92 1040.85,-463.92 925.37,-456.98"/>
<polygon fill="grey" stroke="grey" stroke-width="2" points="925.28,-453.47 915.09,-456.37 924.86,-460.45 925.28,-453.47"/>
</g>
<!-- 15&#45;&gt;27 -->
<g id="edge49" class="edge">
<title>15&#45;&gt;27</title>
<path fill="none" stroke="grey" stroke-width="2" d="M1725.92,-647.84C1708.36,-638.01 1686.47,-625.07 1667.95,-612 1647.59,-597.63 1647.66,-586.28 1624.95,-576 1544.78,-539.7 1444.43,-527.57 1373.03,-523.84"/>
<polygon fill="grey" stroke="grey" stroke-width="2" points="1372.87,-520.33 1362.71,-523.35 1372.53,-527.32 1372.87,-520.33"/>
</g>
<!-- 15&#45;&gt;33 -->
<g id="edge58" class="edge">
<title>15&#45;&gt;33</title>
<path fill="none" stroke="grey" stroke-width="2" d="M1705.39,-647.97C1674.95,-638.1 1636.44,-625.62 1604.46,-615.25"/>
<polygon fill="grey" stroke="grey" stroke-width="2" points="1605.35,-611.86 1594.75,-612.11 1603.19,-618.52 1605.35,-611.86"/>
</g>
<!-- 15&#45;&gt;36 -->
<g id="edge64" class="edge">
<title>15&#45;&gt;36</title>
<path fill="none" stroke="grey" stroke-width="2" d="M1749.93,-647.82C1739.78,-627.87 1720.51,-595.25 1694.95,-576 1461.63,-400.27 1089.98,-379.94 956.61,-378.58"/>
<polygon fill="grey" stroke="grey" stroke-width="2" points="956.33,-375.08 946.31,-378.51 956.28,-382.08 956.33,-375.08"/>
</g>
<!-- 16&#45;&gt;15 -->
<g id="edge30" class="edge">
<title>16&#45;&gt;15</title>
<path fill="none" stroke="grey" stroke-width="2" d="M1684.93,-719.7C1697.27,-710.8 1712.47,-699.82 1725.81,-690.2"/>
<polygon fill="grey" stroke="grey" stroke-width="2" points="1728.19,-692.79 1734.25,-684.1 1724.1,-687.12 1728.19,-692.79"/>
</g>
<!-- 16&#45;&gt;33 -->
<g id="edge57" class="edge">
<title>16&#45;&gt;33</title>
<path fill="none" stroke="grey" stroke-width="2" d="M1658.8,-719.89C1655.62,-700.6 1648.06,-669.18 1630.95,-648 1620.76,-635.38 1606.69,-625.07 1592.75,-617.01"/>
<polygon fill="grey" stroke="grey" stroke-width="2" points="1594.1,-613.76 1583.65,-612.04 1590.75,-619.9 1594.1,-613.76"/>
</g>
<!-- 17 -->
<g id="node18" class="node">
<title>17</title>
<path fill="none" stroke="#56d8c1" stroke-width="2" d="M1517.79,-828C1517.79,-828 1372.12,-828 1372.12,-828 1366.12,-828 1360.12,-822 1360.12,-816 1360.12,-816 1360.12,-804 1360.12,-804 1360.12,-798 1366.12,-792 1372.12,-792 1372.12,-792 1517.79,-792 1517.79,-792 1523.79,-792 1529.79,-798 1529.79,-804 1529.79,-804 1529.79,-816 1529.79,-816 1529.79,-822 1523.79,-828 1517.79,-828"/>
<text text-anchor="middle" x="1444.95" y="-807" font-family="sans" font-size="10.00">fetch_corrected_nissl_stained_volume</text>
</g>
<!-- 17&#45;&gt;16 -->
<g id="edge33" class="edge">
<title>17&#45;&gt;16</title>
<path fill="none" stroke="grey" stroke-width="2" d="M1497.52,-791.97C1527.96,-782.1 1566.46,-769.62 1598.45,-759.25"/>
<polygon fill="grey" stroke="grey" stroke-width="2" points="1599.72,-762.52 1608.16,-756.11 1597.56,-755.86 1599.72,-762.52"/>
</g>
<!-- 18&#45;&gt;15 -->
<g id="edge31" class="edge">
<title>18&#45;&gt;15</title>
<path fill="none" stroke="grey" stroke-width="2" d="M1806.89,-719.7C1799.02,-711.22 1789.4,-700.86 1780.78,-691.58"/>
<polygon fill="grey" stroke="grey" stroke-width="2" points="1783.21,-689.05 1773.84,-684.1 1778.08,-693.81 1783.21,-689.05"/>
</g>
<!-- 19 -->
<g id="node20" class="node">
<title>19</title>
<path fill="none" stroke="#56d892" stroke-width="2" d="M1858.32,-828C1858.32,-828 1787.59,-828 1787.59,-828 1781.59,-828 1775.59,-822 1775.59,-816 1775.59,-816 1775.59,-804 1775.59,-804 1775.59,-798 1781.59,-792 1787.59,-792 1787.59,-792 1858.32,-792 1858.32,-792 1864.32,-792 1870.32,-798 1870.32,-804 1870.32,-804 1870.32,-816 1870.32,-816 1870.32,-822 1864.32,-828 1858.32,-828"/>
<text text-anchor="middle" x="1822.95" y="-807" font-family="sans" font-size="10.00">fetch_gene_aldh1l1</text>
</g>
<!-- 19&#45;&gt;18 -->
<g id="edge34" class="edge">
<title>19&#45;&gt;18</title>
<path fill="none" stroke="grey" stroke-width="2" d="M1822.95,-791.7C1822.95,-783.98 1822.95,-774.71 1822.95,-766.11"/>
<polygon fill="grey" stroke="grey" stroke-width="2" points="1826.45,-766.1 1822.95,-756.1 1819.45,-766.1 1826.45,-766.1"/>
</g>
<!-- 20 -->
<g id="node21" class="node">
<title>20</title>
<path fill="none" stroke="#56a9d8" stroke-width="2" d="M1955.76,-828C1955.76,-828 1900.15,-828 1900.15,-828 1894.15,-828 1888.15,-822 1888.15,-816 1888.15,-816 1888.15,-804 1888.15,-804 1888.15,-798 1894.15,-792 1900.15,-792 1900.15,-792 1955.76,-792 1955.76,-792 1961.76,-792 1967.76,-798 1967.76,-804 1967.76,-804 1967.76,-816 1967.76,-816 1967.76,-822 1961.76,-828 1955.76,-828"/>
<text text-anchor="middle" x="1927.95" y="-807" font-family="sans" font-size="10.00">fetch_gene_cnp</text>
</g>
<!-- 20&#45;&gt;18 -->
<g id="edge35" class="edge">
<title>20&#45;&gt;18</title>
<path fill="none" stroke="grey" stroke-width="2" d="M1902.27,-791.88C1888.67,-782.81 1871.78,-771.55 1857.09,-761.76"/>
<polygon fill="grey" stroke="grey" stroke-width="2" points="1859,-758.82 1848.74,-756.19 1855.12,-764.65 1859,-758.82"/>
</g>
<!-- 21 -->
<g id="node22" class="node">
<title>21</title>
<path fill="none" stroke="#a7d856" stroke-width="2" d="M2056.1,-828C2056.1,-828 1997.81,-828 1997.81,-828 1991.81,-828 1985.81,-822 1985.81,-816 1985.81,-816 1985.81,-804 1985.81,-804 1985.81,-798 1991.81,-792 1997.81,-792 1997.81,-792 2056.1,-792 2056.1,-792 2062.1,-792 2068.1,-798 2068.1,-804 2068.1,-804 2068.1,-816 2068.1,-816 2068.1,-822 2062.1,-828 2056.1,-828"/>
<text text-anchor="middle" x="2026.95" y="-807" font-family="sans" font-size="10.00">fetch_gene_mbp</text>
</g>
<!-- 21&#45;&gt;18 -->
<g id="edge36" class="edge">
<title>21&#45;&gt;18</title>
<path fill="none" stroke="grey" stroke-width="2" d="M1985.67,-794.83C1954.2,-784.04 1910.6,-769.08 1876.46,-757.36"/>
<polygon fill="grey" stroke="grey" stroke-width="2" points="1877.24,-753.93 1866.64,-753.99 1874.97,-760.55 1877.24,-753.93"/>
</g>
<!-- 22 -->
<g id="node23" class="node">
<title>22</title>
<path fill="none" stroke="#568ad8" stroke-width="2" d="M2157.09,-828C2157.09,-828 2098.82,-828 2098.82,-828 2092.82,-828 2086.82,-822 2086.82,-816 2086.82,-816 2086.82,-804 2086.82,-804 2086.82,-798 2092.82,-792 2098.82,-792 2098.82,-792 2157.09,-792 2157.09,-792 2163.09,-792 2169.09,-798 2169.09,-804 2169.09,-804 2169.09,-816 2169.09,-816 2169.09,-822 2163.09,-828 2157.09,-828"/>
<text text-anchor="middle" x="2127.95" y="-807" font-family="sans" font-size="10.00">fetch_gene_gfap</text>
</g>
<!-- 22&#45;&gt;18 -->
<g id="edge37" class="edge">
<title>22&#45;&gt;18</title>
<path fill="none" stroke="grey" stroke-width="2" d="M2086.6,-794.77C2083.35,-793.79 2080.11,-792.85 2076.95,-792 2008.66,-773.56 1928.58,-757.8 1876.87,-748.37"/>
<polygon fill="grey" stroke="grey" stroke-width="2" points="1877.38,-744.91 1866.92,-746.57 1876.13,-751.79 1877.38,-744.91"/>
</g>
<!-- 23 -->
<g id="node24" class="node">
<title>23</title>
<path fill="none" stroke="#56d89a" stroke-width="2" d="M1624.21,-828C1624.21,-828 1559.7,-828 1559.7,-828 1553.7,-828 1547.7,-822 1547.7,-816 1547.7,-816 1547.7,-804 1547.7,-804 1547.7,-798 1553.7,-792 1559.7,-792 1559.7,-792 1624.21,-792 1624.21,-792 1630.21,-792 1636.21,-798 1636.21,-804 1636.21,-804 1636.21,-816 1636.21,-816 1636.21,-822 1630.21,-828 1624.21,-828"/>
<text text-anchor="middle" x="1591.95" y="-807" font-family="sans" font-size="10.00">fetch_gene_s100b</text>
</g>
<!-- 23&#45;&gt;18 -->
<g id="edge38" class="edge">
<title>23&#45;&gt;18</title>
<path fill="none" stroke="grey" stroke-width="2" d="M1636.44,-794.94C1639.66,-793.94 1642.85,-792.95 1645.95,-792 1687.44,-779.26 1734.5,-765.18 1769.67,-754.74"/>
<polygon fill="grey" stroke="grey" stroke-width="2" points="1770.67,-758.1 1779.26,-751.9 1768.68,-751.39 1770.67,-758.1"/>
</g>
<!-- 24 -->
<g id="node25" class="node">
<title>24</title>
<path fill="none" stroke="#d8ac56" stroke-width="2" d="M1745.09,-828C1745.09,-828 1666.81,-828 1666.81,-828 1660.81,-828 1654.81,-822 1654.81,-816 1654.81,-816 1654.81,-804 1654.81,-804 1654.81,-798 1660.81,-792 1666.81,-792 1666.81,-792 1745.09,-792 1745.09,-792 1751.09,-792 1757.09,-798 1757.09,-804 1757.09,-804 1757.09,-816 1757.09,-816 1757.09,-822 1751.09,-828 1745.09,-828"/>
<text text-anchor="middle" x="1705.95" y="-807" font-family="sans" font-size="10.00">fetch_gene_tmem119</text>
</g>
<!-- 24&#45;&gt;18 -->
<g id="edge39" class="edge">
<title>24&#45;&gt;18</title>
<path fill="none" stroke="grey" stroke-width="2" d="M1734.58,-791.88C1749.87,-782.72 1768.9,-771.34 1785.37,-761.48"/>
<polygon fill="grey" stroke="grey" stroke-width="2" points="1787.44,-764.33 1794.22,-756.19 1783.84,-758.32 1787.44,-764.33"/>
</g>
<!-- 25&#45;&gt;2 -->
<g id="edge5" class="edge">
<title>25&#45;&gt;2</title>
<path fill="none" stroke="grey" stroke-width="2" d="M537.14,-287.97C494.99,-277.83 441.36,-264.93 397.59,-254.4"/>
<polygon fill="grey" stroke="grey" stroke-width="2" points="398.37,-250.99 387.83,-252.05 396.74,-257.79 398.37,-250.99"/>
</g>
<!-- 26&#45;&gt;25 -->
<g id="edge43" class="edge">
<title>26&#45;&gt;25</title>
<path fill="none" stroke="grey" stroke-width="2" d="M780.31,-431.87C745.29,-406.5 679.53,-358.85 640.14,-330.32"/>
<polygon fill="grey" stroke="grey" stroke-width="2" points="641.83,-327.22 631.68,-324.19 637.72,-332.89 641.83,-327.22"/>
</g>
<!-- 26&#45;&gt;36 -->
<g id="edge65" class="edge">
<title>26&#45;&gt;36</title>
<path fill="none" stroke="grey" stroke-width="2" d="M829.15,-431.88C842.37,-422.89 858.75,-411.76 873.06,-402.03"/>
<polygon fill="grey" stroke="grey" stroke-width="2" points="875.36,-404.71 881.66,-396.19 871.42,-398.92 875.36,-404.71"/>
</g>
<!-- 26&#45;&gt;38 -->
<g id="edge70" class="edge">
<title>26&#45;&gt;38</title>
<path fill="none" stroke="grey" stroke-width="2" d="M692.55,-435.92C587.13,-423.53 429.56,-405.03 322.97,-392.51"/>
<polygon fill="grey" stroke="grey" stroke-width="2" points="323.16,-389.01 312.82,-391.32 322.34,-395.96 323.16,-389.01"/>
</g>
<!-- 27&#45;&gt;26 -->
<g id="edge46" class="edge">
<title>27&#45;&gt;26</title>
<path fill="none" stroke="grey" stroke-width="2" d="M1201.14,-509.17C1125.6,-498.1 1011.79,-481.44 925.33,-468.77"/>
<polygon fill="grey" stroke="grey" stroke-width="2" points="925.6,-465.28 915.2,-467.29 924.58,-472.2 925.6,-465.28"/>
</g>
<!-- 28 -->
<g id="node29" class="node">
<title>28</title>
<path fill="none" stroke="#56d87b" stroke-width="2" d="M1249.24,-612C1249.24,-612 1148.67,-612 1148.67,-612 1142.67,-612 1136.67,-606 1136.67,-600 1136.67,-600 1136.67,-588 1136.67,-588 1136.67,-582 1142.67,-576 1148.67,-576 1148.67,-576 1249.24,-576 1249.24,-576 1255.24,-576 1261.24,-582 1261.24,-588 1261.24,-588 1261.24,-600 1261.24,-600 1261.24,-606 1255.24,-612 1249.24,-612"/>
<text text-anchor="middle" x="1198.95" y="-591" font-family="sans" font-size="10.00">fetch_genes_correctednissl</text>
</g>
<!-- 28&#45;&gt;27 -->
<g id="edge47" class="edge">
<title>28&#45;&gt;27</title>
<path fill="none" stroke="grey" stroke-width="2" d="M1219.47,-575.7C1229.82,-566.97 1242.54,-556.24 1253.79,-546.75"/>
<polygon fill="grey" stroke="grey" stroke-width="2" points="1256.29,-549.23 1261.67,-540.1 1251.77,-543.88 1256.29,-549.23"/>
</g>
<!-- 29 -->
<g id="node30" class="node">
<title>29</title>
<path fill="none" stroke="#d86e56" stroke-width="2" d="M1254.85,-684C1254.85,-684 1143.06,-684 1143.06,-684 1137.06,-684 1131.06,-678 1131.06,-672 1131.06,-672 1131.06,-660 1131.06,-660 1131.06,-654 1137.06,-648 1143.06,-648 1143.06,-648 1254.85,-648 1254.85,-648 1260.85,-648 1266.85,-654 1266.85,-660 1266.85,-660 1266.85,-672 1266.85,-672 1266.85,-678 1260.85,-684 1254.85,-684"/>
<text text-anchor="middle" x="1198.95" y="-663" font-family="sans" font-size="10.00">fetch_gene_pv_correctednissl</text>
</g>
<!-- 29&#45;&gt;28 -->
<g id="edge52" class="edge">
<title>29&#45;&gt;28</title>
<path fill="none" stroke="grey" stroke-width="2" d="M1198.95,-647.7C1198.95,-639.98 1198.95,-630.71 1198.95,-622.11"/>
<polygon fill="grey" stroke="grey" stroke-width="2" points="1202.45,-622.1 1198.95,-612.1 1195.45,-622.1 1202.45,-622.1"/>
</g>
<!-- 30 -->
<g id="node31" class="node">
<title>30</title>
<path fill="none" stroke="#56d8a2" stroke-width="2" d="M1408.9,-684C1408.9,-684 1297,-684 1297,-684 1291,-684 1285,-678 1285,-672 1285,-672 1285,-660 1285,-660 1285,-654 1291,-648 1297,-648 1297,-648 1408.9,-648 1408.9,-648 1414.9,-648 1420.9,-654 1420.9,-660 1420.9,-660 1420.9,-672 1420.9,-672 1420.9,-678 1414.9,-684 1408.9,-684"/>
<text text-anchor="middle" x="1352.95" y="-663" font-family="sans" font-size="10.00">fetch_gene_sst_correctednissl</text>
</g>
<!-- 30&#45;&gt;28 -->
<g id="edge53" class="edge">
<title>30&#45;&gt;28</title>
<path fill="none" stroke="grey" stroke-width="2" d="M1315.28,-647.88C1294.32,-638.35 1268.05,-626.41 1245.78,-616.28"/>
<polygon fill="grey" stroke="grey" stroke-width="2" points="1247.06,-613.02 1236.5,-612.07 1244.16,-619.39 1247.06,-613.02"/>
</g>
<!-- 31 -->
<g id="node32" class="node">
<title>31</title>
<path fill="none" stroke="#d88556" stroke-width="2" d="M933.13,-684C933.13,-684 818.78,-684 818.78,-684 812.78,-684 806.78,-678 806.78,-672 806.78,-672 806.78,-660 806.78,-660 806.78,-654 812.78,-648 818.78,-648 818.78,-648 933.13,-648 933.13,-648 939.13,-648 945.13,-654 945.13,-660 945.13,-660 945.13,-672 945.13,-672 945.13,-678 939.13,-684 933.13,-684"/>
<text text-anchor="middle" x="875.95" y="-663" font-family="sans" font-size="10.00">fetch_gene_vip_correctednissl</text>
</g>
<!-- 31&#45;&gt;28 -->
<g id="edge54" class="edge">
<title>31&#45;&gt;28</title>
<path fill="none" stroke="grey" stroke-width="2" d="M945.28,-649.89C948.21,-649.25 951.11,-648.62 953.95,-648 1012.14,-635.37 1078.12,-621.1 1126.93,-610.55"/>
<polygon fill="grey" stroke="grey" stroke-width="2" points="1127.73,-613.96 1136.77,-608.42 1126.26,-607.12 1127.73,-613.96"/>
</g>
<!-- 32 -->
<g id="node33" class="node">
<title>32</title>
<path fill="none" stroke="#9fd856" stroke-width="2" d="M1100.79,-684C1100.79,-684 975.12,-684 975.12,-684 969.12,-684 963.12,-678 963.12,-672 963.12,-672 963.12,-660 963.12,-660 963.12,-654 969.12,-648 975.12,-648 975.12,-648 1100.79,-648 1100.79,-648 1106.79,-648 1112.79,-654 1112.79,-660 1112.79,-660 1112.79,-672 1112.79,-672 1112.79,-678 1106.79,-684 1100.79,-684"/>
<text text-anchor="middle" x="1037.95" y="-663" font-family="sans" font-size="10.00">fetch_gene_gad67_correctednissl</text>
</g>
<!-- 32&#45;&gt;28 -->
<g id="edge55" class="edge">
<title>32&#45;&gt;28</title>
<path fill="none" stroke="grey" stroke-width="2" d="M1077.34,-647.88C1099.35,-638.31 1126.96,-626.3 1150.31,-616.15"/>
<polygon fill="grey" stroke="grey" stroke-width="2" points="1151.92,-619.27 1159.7,-612.07 1149.13,-612.85 1151.92,-619.27"/>
</g>
<!-- 33&#45;&gt;27 -->
<g id="edge50" class="edge">
<title>33&#45;&gt;27</title>
<path fill="none" stroke="grey" stroke-width="2" d="M1478.68,-575.97C1441.41,-565.93 1394.09,-553.19 1355.2,-542.72"/>
<polygon fill="grey" stroke="grey" stroke-width="2" points="1356.07,-539.33 1345.51,-540.11 1354.25,-546.09 1356.07,-539.33"/>
</g>
<!-- 34 -->
<g id="node35" class="node">
<title>34</title>
<path fill="none" stroke="#78d856" stroke-width="2" d="M1577.36,-684C1577.36,-684 1450.55,-684 1450.55,-684 1444.55,-684 1438.55,-678 1438.55,-672 1438.55,-672 1438.55,-660 1438.55,-660 1438.55,-654 1444.55,-648 1450.55,-648 1450.55,-648 1577.36,-648 1577.36,-648 1583.36,-648 1589.36,-654 1589.36,-660 1589.36,-660 1589.36,-672 1589.36,-672 1589.36,-678 1583.36,-684 1577.36,-684"/>
<text text-anchor="middle" x="1513.95" y="-663" font-family="sans" font-size="10.00">compile_densities_measurements</text>
</g>
<!-- 34&#45;&gt;27 -->
<g id="edge51" class="edge">
<title>34&#45;&gt;27</title>
<path fill="none" stroke="grey" stroke-width="2" d="M1485.97,-647.87C1444.08,-622.23 1365.03,-573.85 1318.59,-545.43"/>
<polygon fill="grey" stroke="grey" stroke-width="2" points="1320.39,-542.42 1310.04,-540.19 1316.74,-548.39 1320.39,-542.42"/>
</g>
<!-- 34&#45;&gt;33 -->
<g id="edge59" class="edge">
<title>34&#45;&gt;33</title>
<path fill="none" stroke="grey" stroke-width="2" d="M1520.88,-647.7C1524.03,-639.81 1527.83,-630.3 1531.34,-621.55"/>
<polygon fill="grey" stroke="grey" stroke-width="2" points="1534.65,-622.69 1535.11,-612.1 1528.15,-620.09 1534.65,-622.69"/>
</g>
<!-- 35&#45;&gt;2 -->
<g id="edge6" class="edge">
<title>35&#45;&gt;2</title>
<path fill="none" stroke="grey" stroke-width="2" d="M759.58,-289.67C756.67,-289.07 753.78,-288.51 750.95,-288 641.83,-268.16 515.89,-253.7 427.87,-244.94"/>
<polygon fill="grey" stroke="grey" stroke-width="2" points="428.17,-241.45 417.87,-243.96 427.48,-248.42 428.17,-241.45"/>
</g>
<!-- 36&#45;&gt;35 -->
<g id="edge62" class="edge">
<title>36&#45;&gt;35</title>
<path fill="none" stroke="grey" stroke-width="2" d="M885.7,-359.7C874.86,-350.88 861.54,-340.03 849.79,-330.47"/>
<polygon fill="grey" stroke="grey" stroke-width="2" points="851.93,-327.7 841.97,-324.1 847.51,-333.13 851.93,-327.7"/>
</g>
<!-- 37&#45;&gt;2 -->
<g id="edge7" class="edge">
<title>37&#45;&gt;2</title>
<path fill="none" stroke="grey" stroke-width="2" d="M192.32,-287.88C214.97,-278.26 243.43,-266.19 267.42,-256.01"/>
<polygon fill="grey" stroke="grey" stroke-width="2" points="268.88,-259.2 276.72,-252.07 266.15,-252.75 268.88,-259.2"/>
</g>
<!-- 38&#45;&gt;37 -->
<g id="edge68" class="edge">
<title>38&#45;&gt;37</title>
<path fill="none" stroke="grey" stroke-width="2" d="M194.11,-359.7C187.47,-351.39 179.38,-341.28 172.07,-332.14"/>
<polygon fill="grey" stroke="grey" stroke-width="2" points="174.62,-329.73 165.64,-324.1 169.15,-334.1 174.62,-329.73"/>
</g>
<!-- 39 -->
<g id="node40" class="node">
<title>39</title>
<path fill="none" stroke="#56c1d8" stroke-width="2" d="M111.54,-468C111.54,-468 28.37,-468 28.37,-468 22.37,-468 16.37,-462 16.37,-456 16.37,-456 16.37,-444 16.37,-444 16.37,-438 22.37,-432 28.37,-432 28.37,-432 111.54,-432 111.54,-432 117.54,-432 123.54,-438 123.54,-444 123.54,-444 123.54,-456 123.54,-456 123.54,-462 117.54,-468 111.54,-468"/>
<text text-anchor="middle" x="69.95" y="-447" font-family="sans" font-size="10.00">fetch_probability_map</text>
</g>
<!-- 39&#45;&gt;38 -->
<g id="edge69" class="edge">
<title>39&#45;&gt;38</title>
<path fill="none" stroke="grey" stroke-width="2" d="M103.71,-431.88C122.17,-422.51 145.24,-410.81 164.97,-400.8"/>
<polygon fill="grey" stroke="grey" stroke-width="2" points="166.73,-403.83 174.07,-396.19 163.56,-397.59 166.73,-403.83"/>
</g>
<!-- 40 -->
<g id="node41" class="node">
<title>40</title>
<path fill="none" stroke="#ced856" stroke-width="2" d="M262.69,-468C262.69,-468 153.22,-468 153.22,-468 147.22,-468 141.22,-462 141.22,-456 141.22,-456 141.22,-444 141.22,-444 141.22,-438 147.22,-432 153.22,-432 153.22,-432 262.69,-432 262.69,-432 268.69,-432 274.69,-438 274.69,-444 274.69,-444 274.69,-456 274.69,-456 274.69,-462 268.69,-468 262.69,-468"/>
<text text-anchor="middle" x="207.95" y="-447" font-family="sans" font-size="10.00">fetch_isocortex_23_metadata</text>
</g>
<!-- 40&#45;&gt;38 -->
<g id="edge72" class="edge">
<title>40&#45;&gt;38</title>
<path fill="none" stroke="grey" stroke-width="2" d="M207.95,-431.7C207.95,-423.98 207.95,-414.71 207.95,-406.11"/>
<polygon fill="grey" stroke="grey" stroke-width="2" points="211.45,-406.1 207.95,-396.1 204.45,-406.1 211.45,-406.1"/>
</g>
<!-- 41&#45;&gt;2 -->
<g id="edge9" class="edge">
<title>41&#45;&gt;2</title>
<path fill="none" stroke="grey" stroke-width="2" d="M356.1,-287.7C349.93,-279.39 342.42,-269.28 335.63,-260.14"/>
<polygon fill="grey" stroke="grey" stroke-width="2" points="338.43,-258.04 329.66,-252.1 332.81,-262.22 338.43,-258.04"/>
</g>
<!-- 42&#45;&gt;0 -->
<g id="edge2" class="edge">
<title>42&#45;&gt;0</title>
<path fill="none" stroke="grey" stroke-width="2" d="M426.88,-71.7C419.56,-63.3 410.64,-53.07 402.62,-43.86"/>
<polygon fill="grey" stroke="grey" stroke-width="2" points="405.07,-41.34 395.86,-36.1 399.79,-45.94 405.07,-41.34"/>
</g>
</g>
</svg>
