<?xml version="1.0" encoding="UTF-8" standalone="no"?>
<!DOCTYPE svg PUBLIC "-//W3C//DTD SVG 1.1//EN"
 "http://www.w3.org/Graphics/SVG/1.1/DTD/svg11.dtd">
<!-- Generated by graphviz version 2.49.0 (0)
 -->
<!-- Title: snakemake_dag Pages: 1 -->
<svg width="1826pt" height="1196pt"
 viewBox="0.00 0.00 1826.00 1196.00" xmlns="http://www.w3.org/2000/svg" xmlns:xlink="http://www.w3.org/1999/xlink">
<g id="graph0" class="graph" transform="scale(1 1) rotate(0) translate(4 1192)">
<title>snakemake_dag</title>
<polygon fill="white" stroke="transparent" points="-4,4 -4,-1192 1822,-1192 1822,4 -4,4"/>
<!-- 0 -->
<g id="node1" class="node">
<title>0</title>
<path fill="none" stroke="#56d8c1" stroke-width="2" d="M1437.77,-36C1437.77,-36 1358.23,-36 1358.23,-36 1352.23,-36 1346.23,-30 1346.23,-24 1346.23,-24 1346.23,-12 1346.23,-12 1346.23,-6 1352.23,0 1358.23,0 1358.23,0 1437.77,0 1437.77,0 1443.77,0 1449.77,-6 1449.77,-12 1449.77,-12 1449.77,-24 1449.77,-24 1449.77,-30 1443.77,-36 1437.77,-36"/>
<text text-anchor="middle" x="1398" y="-15" font-family="sans" font-size="10.00">push_cellcomposition</text>
</g>
<!-- 1 -->
<g id="node2" class="node">
<title>1</title>
<path fill="none" stroke="#88d856" stroke-width="2" d="M1415.85,-180C1415.85,-180 1260.15,-180 1260.15,-180 1254.15,-180 1248.15,-174 1248.15,-168 1248.15,-168 1248.15,-156 1248.15,-156 1248.15,-150 1254.15,-144 1260.15,-144 1260.15,-144 1415.85,-144 1415.85,-144 1421.85,-144 1427.85,-150 1427.85,-156 1427.85,-156 1427.85,-168 1427.85,-168 1427.85,-174 1421.85,-180 1415.85,-180"/>
<text text-anchor="middle" x="1338" y="-159" font-family="sans" font-size="10.00">create_cellCompositionVolume_payload</text>
</g>
<!-- 1&#45;&gt;0 -->
<g id="edge1" class="edge">
<title>1&#45;&gt;0</title>
<path fill="none" stroke="grey" stroke-width="2" d="M1339.37,-143.89C1341.36,-125.42 1346.1,-95.5 1357,-72 1361.55,-62.19 1368.21,-52.51 1374.84,-44.16"/>
<polygon fill="grey" stroke="grey" stroke-width="2" points="1377.67,-46.23 1381.38,-36.3 1372.29,-41.75 1377.67,-46.23"/>
</g>
<!-- 45 -->
<g id="node46" class="node">
<title>45</title>
<path fill="none" stroke="#565bd8" stroke-width="2" d="M1540.02,-108C1540.02,-108 1377.98,-108 1377.98,-108 1371.98,-108 1365.98,-102 1365.98,-96 1365.98,-96 1365.98,-84 1365.98,-84 1365.98,-78 1371.98,-72 1377.98,-72 1377.98,-72 1540.02,-72 1540.02,-72 1546.02,-72 1552.02,-78 1552.02,-84 1552.02,-84 1552.02,-96 1552.02,-96 1552.02,-102 1546.02,-108 1540.02,-108"/>
<text text-anchor="middle" x="1459" y="-87" font-family="sans" font-size="10.00">create_cellCompositionSummary_payload</text>
</g>
<!-- 1&#45;&gt;45 -->
<g id="edge79" class="edge">
<title>1&#45;&gt;45</title>
<path fill="none" stroke="grey" stroke-width="2" d="M1367.6,-143.88C1383.57,-134.64 1403.46,-123.13 1420.61,-113.21"/>
<polygon fill="grey" stroke="grey" stroke-width="2" points="1422.38,-116.23 1429.29,-108.19 1418.88,-110.17 1422.38,-116.23"/>
</g>
<!-- 2 -->
<g id="node3" class="node">
<title>2</title>
<path fill="none" stroke="#56a2d8" stroke-width="2" d="M1347.51,-252C1347.51,-252 1170.49,-252 1170.49,-252 1164.49,-252 1158.49,-246 1158.49,-240 1158.49,-240 1158.49,-228 1158.49,-228 1158.49,-222 1164.49,-216 1170.49,-216 1170.49,-216 1347.51,-216 1347.51,-216 1353.51,-216 1359.51,-222 1359.51,-228 1359.51,-228 1359.51,-240 1359.51,-240 1359.51,-246 1353.51,-252 1347.51,-252"/>
<text text-anchor="middle" x="1259" y="-231" font-family="sans" font-size="10.00">push_celldensity_transplant_pipeline_datasets</text>
</g>
<!-- 2&#45;&gt;1 -->
<g id="edge3" class="edge">
<title>2&#45;&gt;1</title>
<path fill="none" stroke="grey" stroke-width="2" d="M1278.53,-215.7C1288.38,-206.97 1300.49,-196.24 1311.2,-186.75"/>
<polygon fill="grey" stroke="grey" stroke-width="2" points="1313.53,-189.36 1318.7,-180.1 1308.89,-184.12 1313.53,-189.36"/>
</g>
<!-- 3 -->
<g id="node4" class="node">
<title>3</title>
<path fill="none" stroke="#56d8d0" stroke-width="2" d="M1344.89,-324C1344.89,-324 1173.11,-324 1173.11,-324 1167.11,-324 1161.11,-318 1161.11,-312 1161.11,-312 1161.11,-300 1161.11,-300 1161.11,-294 1167.11,-288 1173.11,-288 1173.11,-288 1344.89,-288 1344.89,-288 1350.89,-288 1356.89,-294 1356.89,-300 1356.89,-300 1356.89,-312 1356.89,-312 1356.89,-318 1350.89,-324 1344.89,-324"/>
<text text-anchor="middle" x="1259" y="-303" font-family="sans" font-size="10.00">transplant_glia_cell_densities_correctednissl</text>
</g>
<!-- 3&#45;&gt;2 -->
<g id="edge4" class="edge">
<title>3&#45;&gt;2</title>
<path fill="none" stroke="grey" stroke-width="2" d="M1259,-287.7C1259,-279.98 1259,-270.71 1259,-262.11"/>
<polygon fill="grey" stroke="grey" stroke-width="2" points="1262.5,-262.1 1259,-252.1 1255.5,-262.1 1262.5,-262.1"/>
</g>
<!-- 4 -->
<g id="node5" class="node">
<title>4</title>
<path fill="none" stroke="#9fd856" stroke-width="2" d="M912.75,-828C912.75,-828 813.25,-828 813.25,-828 807.25,-828 801.25,-822 801.25,-816 801.25,-816 801.25,-804 801.25,-804 801.25,-798 807.25,-792 813.25,-792 813.25,-792 912.75,-792 912.75,-792 918.75,-792 924.75,-798 924.75,-804 924.75,-804 924.75,-816 924.75,-816 924.75,-822 918.75,-828 912.75,-828"/>
<text text-anchor="middle" x="863" y="-807" font-family="sans" font-size="10.00">split_barrel_ccfv2_l23split</text>
</g>
<!-- 4&#45;&gt;3 -->
<g id="edge10" class="edge">
<title>4&#45;&gt;3</title>
<path fill="none" stroke="grey" stroke-width="2" d="M924.86,-793.69C927.94,-793.08 931,-792.52 934,-792 1008.88,-779.13 1213.33,-801.74 1274,-756 1308.07,-730.31 1310,-709.67 1310,-667 1310,-667 1310,-667 1310,-449 1310,-406.59 1289.6,-361.02 1274.6,-333.26"/>
<polygon fill="grey" stroke="grey" stroke-width="2" points="1277.49,-331.25 1269.57,-324.21 1271.37,-334.65 1277.49,-331.25"/>
</g>
<!-- 18 -->
<g id="node19" class="node">
<title>18</title>
<path fill="none" stroke="#56d882" stroke-width="2" d="M1194.46,-684C1194.46,-684 1067.54,-684 1067.54,-684 1061.54,-684 1055.54,-678 1055.54,-672 1055.54,-672 1055.54,-660 1055.54,-660 1055.54,-654 1061.54,-648 1067.54,-648 1067.54,-648 1194.46,-648 1194.46,-648 1200.46,-648 1206.46,-654 1206.46,-660 1206.46,-660 1206.46,-672 1206.46,-672 1206.46,-678 1200.46,-684 1194.46,-684"/>
<text text-anchor="middle" x="1131" y="-663" font-family="sans" font-size="10.00">glia_cell_densities_correctednissl</text>
</g>
<!-- 4&#45;&gt;18 -->
<g id="edge33" class="edge">
<title>4&#45;&gt;18</title>
<path fill="none" stroke="grey" stroke-width="2" d="M921.6,-791.92C947.74,-783.07 978.36,-770.96 1004,-756 1025.53,-743.44 1026.86,-734.68 1047,-720 1061.54,-709.4 1078.18,-698.64 1092.8,-689.6"/>
<polygon fill="grey" stroke="grey" stroke-width="2" points="1094.89,-692.42 1101.6,-684.22 1091.24,-686.45 1094.89,-692.42"/>
</g>
<!-- 19 -->
<g id="node20" class="node">
<title>19</title>
<path fill="none" stroke="#d8c356" stroke-width="2" d="M1168.35,-756C1168.35,-756 1067.65,-756 1067.65,-756 1061.65,-756 1055.65,-750 1055.65,-744 1055.65,-744 1055.65,-732 1055.65,-732 1055.65,-726 1061.65,-720 1067.65,-720 1067.65,-720 1168.35,-720 1168.35,-720 1174.35,-720 1180.35,-726 1180.35,-732 1180.35,-732 1180.35,-744 1180.35,-744 1180.35,-750 1174.35,-756 1168.35,-756"/>
<text text-anchor="middle" x="1118" y="-735" font-family="sans" font-size="10.00">cell_density_correctednissl</text>
</g>
<!-- 4&#45;&gt;19 -->
<g id="edge36" class="edge">
<title>4&#45;&gt;19</title>
<path fill="none" stroke="grey" stroke-width="2" d="M925.05,-791.97C961.46,-781.97 1007.63,-769.3 1045.68,-758.85"/>
<polygon fill="grey" stroke="grey" stroke-width="2" points="1046.95,-762.13 1055.67,-756.11 1045.1,-755.38 1046.95,-762.13"/>
</g>
<!-- 21 -->
<g id="node22" class="node">
<title>21</title>
<path fill="none" stroke="#d6d856" stroke-width="2" d="M1413.64,-756C1413.64,-756 1350.36,-756 1350.36,-756 1344.36,-756 1338.36,-750 1338.36,-744 1338.36,-744 1338.36,-732 1338.36,-732 1338.36,-726 1344.36,-720 1350.36,-720 1350.36,-720 1413.64,-720 1413.64,-720 1419.64,-720 1425.64,-726 1425.64,-732 1425.64,-732 1425.64,-744 1425.64,-744 1425.64,-750 1419.64,-756 1413.64,-756"/>
<text text-anchor="middle" x="1382" y="-735" font-family="sans" font-size="10.00">combine_markers</text>
</g>
<!-- 4&#45;&gt;21 -->
<g id="edge44" class="edge">
<title>4&#45;&gt;21</title>
<path fill="none" stroke="grey" stroke-width="2" d="M924.85,-793.64C927.94,-793.05 931,-792.5 934,-792 1105.75,-763.66 1153.02,-788.63 1324,-756 1325.45,-755.72 1326.91,-755.43 1328.39,-755.11"/>
<polygon fill="grey" stroke="grey" stroke-width="2" points="1329.27,-758.5 1338.2,-752.8 1327.66,-751.69 1329.27,-758.5"/>
</g>
<!-- 28 -->
<g id="node29" class="node">
<title>28</title>
<path fill="none" stroke="#8fd856" stroke-width="2" d="M981.56,-324C981.56,-324 738.44,-324 738.44,-324 732.44,-324 726.44,-318 726.44,-312 726.44,-312 726.44,-300 726.44,-300 726.44,-294 732.44,-288 738.44,-288 738.44,-288 981.56,-288 981.56,-288 987.56,-288 993.56,-294 993.56,-300 993.56,-300 993.56,-312 993.56,-312 993.56,-318 987.56,-324 981.56,-324"/>
<text text-anchor="middle" x="860" y="-303" font-family="sans" font-size="10.00">transplant_inhibitory_neuron_densities_linprog_correctednissl</text>
</g>
<!-- 4&#45;&gt;28 -->
<g id="edge45" class="edge">
<title>4&#45;&gt;28</title>
<path fill="none" stroke="grey" stroke-width="2" d="M801.12,-807.63C635.5,-803.53 190.77,-789.48 134,-756 93.33,-732.01 76,-714.21 76,-667 76,-667 76,-667 76,-593 76,-577.52 0.46,-601.88 218,-504 221.41,-502.47 631.36,-376.96 794.31,-327.1"/>
<polygon fill="grey" stroke="grey" stroke-width="2" points="795.68,-330.34 804.22,-324.07 793.63,-323.65 795.68,-330.34"/>
</g>
<!-- 29 -->
<g id="node30" class="node">
<title>29</title>
<path fill="none" stroke="#56c9d8" stroke-width="2" d="M952.12,-468C952.12,-468 753.88,-468 753.88,-468 747.88,-468 741.88,-462 741.88,-456 741.88,-456 741.88,-444 741.88,-444 741.88,-438 747.88,-432 753.88,-432 753.88,-432 952.12,-432 952.12,-432 958.12,-432 964.12,-438 964.12,-444 964.12,-444 964.12,-456 964.12,-456 964.12,-462 958.12,-468 952.12,-468"/>
<text text-anchor="middle" x="853" y="-447" font-family="sans" font-size="10.00">inhibitory_neuron_densities_linprog_correctednissl</text>
</g>
<!-- 4&#45;&gt;29 -->
<g id="edge48" class="edge">
<title>4&#45;&gt;29</title>
<path fill="none" stroke="grey" stroke-width="2" d="M801.05,-808.47C661.71,-806.55 327.7,-797.6 224,-756 165.63,-732.59 114,-729.89 114,-667 114,-667 114,-667 114,-593 114,-530.9 521.66,-482.71 731.42,-462.03"/>
<polygon fill="grey" stroke="grey" stroke-width="2" points="731.95,-465.49 741.56,-461.04 731.27,-458.53 731.95,-465.49"/>
</g>
<!-- 30 -->
<g id="node31" class="node">
<title>30</title>
<path fill="none" stroke="#5682d8" stroke-width="2" d="M920.99,-540C920.99,-540 783.01,-540 783.01,-540 777.01,-540 771.01,-534 771.01,-528 771.01,-528 771.01,-516 771.01,-516 771.01,-510 777.01,-504 783.01,-504 783.01,-504 920.99,-504 920.99,-504 926.99,-504 932.99,-510 932.99,-516 932.99,-516 932.99,-528 932.99,-528 932.99,-534 926.99,-540 920.99,-540"/>
<text text-anchor="middle" x="852" y="-519" font-family="sans" font-size="10.00">fit_average_densities_correctednissl</text>
</g>
<!-- 4&#45;&gt;30 -->
<g id="edge52" class="edge">
<title>4&#45;&gt;30</title>
<path fill="none" stroke="grey" stroke-width="2" d="M801.1,-807.53C646.71,-802.42 251.24,-780.03 171,-684 92.63,-590.2 558.23,-544.39 761.06,-529.07"/>
<polygon fill="grey" stroke="grey" stroke-width="2" points="761.39,-532.56 771.1,-528.33 760.87,-525.58 761.39,-532.56"/>
</g>
<!-- 36 -->
<g id="node37" class="node">
<title>36</title>
<path fill="none" stroke="#56d8b9" stroke-width="2" d="M1014.61,-612C1014.61,-612 891.39,-612 891.39,-612 885.39,-612 879.39,-606 879.39,-600 879.39,-600 879.39,-588 879.39,-588 879.39,-582 885.39,-576 891.39,-576 891.39,-576 1014.61,-576 1014.61,-576 1020.61,-576 1026.61,-582 1026.61,-588 1026.61,-588 1026.61,-600 1026.61,-600 1026.61,-606 1020.61,-612 1014.61,-612"/>
<text text-anchor="middle" x="953" y="-591" font-family="sans" font-size="10.00">average_densities_correctednissl</text>
</g>
<!-- 4&#45;&gt;36 -->
<g id="edge60" class="edge">
<title>4&#45;&gt;36</title>
<path fill="none" stroke="grey" stroke-width="2" d="M885.62,-791.63C911.95,-769.82 953.99,-729.69 971,-684 978.56,-663.68 972.8,-639.51 965.85,-621.48"/>
<polygon fill="grey" stroke="grey" stroke-width="2" points="969.04,-620.04 961.95,-612.17 962.59,-622.74 969.04,-620.04"/>
</g>
<!-- 38 -->
<g id="node39" class="node">
<title>38</title>
<path fill="none" stroke="#56b1d8" stroke-width="2" d="M1131.14,-324C1131.14,-324 1032.86,-324 1032.86,-324 1026.86,-324 1020.86,-318 1020.86,-312 1020.86,-312 1020.86,-300 1020.86,-300 1020.86,-294 1026.86,-288 1032.86,-288 1032.86,-288 1131.14,-288 1131.14,-288 1137.14,-288 1143.14,-294 1143.14,-300 1143.14,-300 1143.14,-312 1143.14,-312 1143.14,-318 1137.14,-324 1131.14,-324"/>
<text text-anchor="middle" x="1082" y="-303" font-family="sans" font-size="10.00">transplant_excitatory_split</text>
</g>
<!-- 4&#45;&gt;38 -->
<g id="edge64" class="edge">
<title>4&#45;&gt;38</title>
<path fill="none" stroke="grey" stroke-width="2" d="M924.88,-793.82C927.96,-793.18 931.01,-792.57 934,-792 1046.45,-770.65 1095.94,-822.64 1189,-756 1225.04,-730.19 1234,-711.32 1234,-667 1234,-667 1234,-667 1234,-593 1234,-479.78 1193.16,-454.63 1131,-360 1124.47,-350.06 1116.04,-340.2 1108.02,-331.73"/>
<polygon fill="grey" stroke="grey" stroke-width="2" points="1110.34,-329.09 1100.84,-324.38 1105.33,-333.98 1110.34,-329.09"/>
</g>
<!-- 39 -->
<g id="node40" class="node">
<title>39</title>
<path fill="none" stroke="#56d863" stroke-width="2" d="M1110.21,-396C1110.21,-396 1055.79,-396 1055.79,-396 1049.79,-396 1043.79,-390 1043.79,-384 1043.79,-384 1043.79,-372 1043.79,-372 1043.79,-366 1049.79,-360 1055.79,-360 1055.79,-360 1110.21,-360 1110.21,-360 1116.21,-360 1122.21,-366 1122.21,-372 1122.21,-372 1122.21,-384 1122.21,-384 1122.21,-390 1116.21,-396 1110.21,-396"/>
<text text-anchor="middle" x="1083" y="-375" font-family="sans" font-size="10.00">excitatory_split</text>
</g>
<!-- 4&#45;&gt;39 -->
<g id="edge67" class="edge">
<title>4&#45;&gt;39</title>
<path fill="none" stroke="grey" stroke-width="2" d="M924.86,-793.72C927.95,-793.11 931,-792.53 934,-792 1003.17,-779.8 1194.77,-801.82 1248,-756 1279.05,-729.27 1272,-707.97 1272,-667 1272,-667 1272,-667 1272,-593 1272,-504.26 1179.56,-434.97 1123.98,-401.33"/>
<polygon fill="grey" stroke="grey" stroke-width="2" points="1125.45,-398.14 1115.06,-396.05 1121.88,-404.16 1125.45,-398.14"/>
</g>
<!-- 40 -->
<g id="node41" class="node">
<title>40</title>
<path fill="none" stroke="#59d856" stroke-width="2" d="M522.35,-324C522.35,-324 321.65,-324 321.65,-324 315.65,-324 309.65,-318 309.65,-312 309.65,-312 309.65,-300 309.65,-300 309.65,-294 315.65,-288 321.65,-288 321.65,-288 522.35,-288 522.35,-288 528.35,-288 534.35,-294 534.35,-300 534.35,-300 534.35,-312 534.35,-312 534.35,-318 528.35,-324 522.35,-324"/>
<text text-anchor="middle" x="422" y="-303" font-family="sans" font-size="10.00">transplant_mtypes_densities_from_probability_map</text>
</g>
<!-- 4&#45;&gt;40 -->
<g id="edge70" class="edge">
<title>4&#45;&gt;40</title>
<path fill="none" stroke="grey" stroke-width="2" d="M800.93,-808.81C619.08,-807.74 96.4,-800.77 35,-756 0.66,-730.96 0,-709.5 0,-667 0,-667 0,-667 0,-449 0,-387.48 50.14,-385.77 106,-360 166.29,-332.18 239.05,-318.78 299.55,-312.4"/>
<polygon fill="grey" stroke="grey" stroke-width="2" points="299.93,-315.88 309.53,-311.4 299.23,-308.92 299.93,-315.88"/>
</g>
<!-- 41 -->
<g id="node42" class="node">
<title>41</title>
<path fill="none" stroke="#56d892" stroke-width="2" d="M312.78,-396C312.78,-396 127.22,-396 127.22,-396 121.22,-396 115.22,-390 115.22,-384 115.22,-384 115.22,-372 115.22,-372 115.22,-366 121.22,-360 127.22,-360 127.22,-360 312.78,-360 312.78,-360 318.78,-360 324.78,-366 324.78,-372 324.78,-372 324.78,-384 324.78,-384 324.78,-390 318.78,-396 312.78,-396"/>
<text text-anchor="middle" x="220" y="-375" font-family="sans" font-size="10.00">create_mtypes_densities_from_probability_map</text>
</g>
<!-- 4&#45;&gt;41 -->
<g id="edge75" class="edge">
<title>4&#45;&gt;41</title>
<path fill="none" stroke="grey" stroke-width="2" d="M801.14,-808.98C623.13,-808.36 118.68,-802.47 62,-756 30.32,-730.03 38,-707.97 38,-667 38,-667 38,-667 38,-521 38,-480.55 29.93,-462.05 57,-432 70.21,-417.34 87.5,-406.72 105.89,-399.03"/>
<polygon fill="grey" stroke="grey" stroke-width="2" points="107.23,-402.27 115.29,-395.38 104.7,-395.74 107.23,-402.27"/>
</g>
<!-- 5 -->
<g id="node6" class="node">
<title>5</title>
<path fill="none" stroke="#bed856" stroke-width="2" d="M1116.07,-900C1116.07,-900 997.93,-900 997.93,-900 991.93,-900 985.93,-894 985.93,-888 985.93,-888 985.93,-876 985.93,-876 985.93,-870 991.93,-864 997.93,-864 997.93,-864 1116.07,-864 1116.07,-864 1122.07,-864 1128.07,-870 1128.07,-876 1128.07,-876 1128.07,-888 1128.07,-888 1128.07,-894 1122.07,-900 1116.07,-900"/>
<text text-anchor="middle" x="1057" y="-879" font-family="sans" font-size="10.00">split_isocortex_layer_23_ccfv2</text>
</g>
<!-- 5&#45;&gt;4 -->
<g id="edge13" class="edge">
<title>5&#45;&gt;4</title>
<path fill="none" stroke="grey" stroke-width="2" d="M1009.54,-863.88C982.43,-854.09 948.26,-841.77 919.74,-831.47"/>
<polygon fill="grey" stroke="grey" stroke-width="2" points="920.9,-828.17 910.3,-828.07 918.52,-834.75 920.9,-828.17"/>
</g>
<!-- 6 -->
<g id="node7" class="node">
<title>6</title>
<path fill="none" stroke="#d89c56" stroke-width="2" d="M1480.04,-1116C1480.04,-1116 1351.96,-1116 1351.96,-1116 1345.96,-1116 1339.96,-1110 1339.96,-1104 1339.96,-1104 1339.96,-1092 1339.96,-1092 1339.96,-1086 1345.96,-1080 1351.96,-1080 1351.96,-1080 1480.04,-1080 1480.04,-1080 1486.04,-1080 1492.04,-1086 1492.04,-1092 1492.04,-1092 1492.04,-1104 1492.04,-1104 1492.04,-1110 1486.04,-1116 1480.04,-1116"/>
<text text-anchor="middle" x="1416" y="-1095" font-family="sans" font-size="10.00">fetch_ccf_brain_region_hierarchy</text>
</g>
<!-- 6&#45;&gt;5 -->
<g id="edge15" class="edge">
<title>6&#45;&gt;5</title>
<path fill="none" stroke="grey" stroke-width="2" d="M1415.17,-1079.93C1413.37,-1060.38 1407.7,-1028.44 1390,-1008 1326.26,-934.4 1214.72,-904.04 1138.43,-891.58"/>
<polygon fill="grey" stroke="grey" stroke-width="2" points="1138.8,-888.1 1128.38,-890.01 1137.72,-895.01 1138.8,-888.1"/>
</g>
<!-- 10 -->
<g id="node11" class="node">
<title>10</title>
<path fill="none" stroke="#56d8b1" stroke-width="2" d="M1211.04,-972C1211.04,-972 1032.96,-972 1032.96,-972 1026.96,-972 1020.96,-966 1020.96,-960 1020.96,-960 1020.96,-948 1020.96,-948 1020.96,-942 1026.96,-936 1032.96,-936 1032.96,-936 1211.04,-936 1211.04,-936 1217.04,-936 1223.04,-942 1223.04,-948 1223.04,-948 1223.04,-960 1223.04,-960 1223.04,-966 1217.04,-972 1211.04,-972"/>
<text text-anchor="middle" x="1122" y="-951" font-family="sans" font-size="10.00">interpolate_direction_vectors_isocortex_ccfv2</text>
</g>
<!-- 6&#45;&gt;10 -->
<g id="edge21" class="edge">
<title>6&#45;&gt;10</title>
<path fill="none" stroke="grey" stroke-width="2" d="M1409.68,-1079.67C1401.31,-1059.26 1384.56,-1025.88 1359,-1008 1322.46,-982.43 1275.66,-968.94 1233.31,-961.92"/>
<polygon fill="grey" stroke="grey" stroke-width="2" points="1233.64,-958.43 1223.22,-960.35 1232.56,-965.34 1233.64,-958.43"/>
</g>
<!-- 11 -->
<g id="node12" class="node">
<title>11</title>
<path fill="none" stroke="#d86e56" stroke-width="2" d="M1338.28,-1044C1338.28,-1044 1207.72,-1044 1207.72,-1044 1201.72,-1044 1195.72,-1038 1195.72,-1032 1195.72,-1032 1195.72,-1020 1195.72,-1020 1195.72,-1014 1201.72,-1008 1207.72,-1008 1207.72,-1008 1338.28,-1008 1338.28,-1008 1344.28,-1008 1350.28,-1014 1350.28,-1020 1350.28,-1020 1350.28,-1032 1350.28,-1032 1350.28,-1038 1344.28,-1044 1338.28,-1044"/>
<text text-anchor="middle" x="1273" y="-1023" font-family="sans" font-size="10.00">direction_vectors_isocortex_ccfv2</text>
</g>
<!-- 6&#45;&gt;11 -->
<g id="edge25" class="edge">
<title>6&#45;&gt;11</title>
<path fill="none" stroke="grey" stroke-width="2" d="M1381.02,-1079.88C1361.8,-1070.47 1337.77,-1058.71 1317.26,-1048.67"/>
<polygon fill="grey" stroke="grey" stroke-width="2" points="1318.64,-1045.44 1308.12,-1044.19 1315.56,-1051.73 1318.64,-1045.44"/>
</g>
<!-- 15 -->
<g id="node16" class="node">
<title>15</title>
<path fill="none" stroke="#569ad8" stroke-width="2" d="M1670.07,-972C1670.07,-972 1551.93,-972 1551.93,-972 1545.93,-972 1539.93,-966 1539.93,-960 1539.93,-960 1539.93,-948 1539.93,-948 1539.93,-942 1545.93,-936 1551.93,-936 1551.93,-936 1670.07,-936 1670.07,-936 1676.07,-936 1682.07,-942 1682.07,-948 1682.07,-948 1682.07,-960 1682.07,-960 1682.07,-966 1676.07,-972 1670.07,-972"/>
<text text-anchor="middle" x="1611" y="-951" font-family="sans" font-size="10.00">split_isocortex_layer_23_ccfv3</text>
</g>
<!-- 6&#45;&gt;15 -->
<g id="edge28" class="edge">
<title>6&#45;&gt;15</title>
<path fill="none" stroke="grey" stroke-width="2" d="M1422.95,-1079.94C1431.82,-1060.1 1448.96,-1027.59 1473,-1008 1490.16,-994.01 1511.44,-983.43 1532.09,-975.55"/>
<polygon fill="grey" stroke="grey" stroke-width="2" points="1533.33,-978.82 1541.53,-972.11 1530.93,-972.25 1533.33,-978.82"/>
</g>
<!-- 17 -->
<g id="node18" class="node">
<title>17</title>
<path fill="none" stroke="#d8b456" stroke-width="2" d="M1624.28,-1044C1624.28,-1044 1493.72,-1044 1493.72,-1044 1487.72,-1044 1481.72,-1038 1481.72,-1032 1481.72,-1032 1481.72,-1020 1481.72,-1020 1481.72,-1014 1487.72,-1008 1493.72,-1008 1493.72,-1008 1624.28,-1008 1624.28,-1008 1630.28,-1008 1636.28,-1014 1636.28,-1020 1636.28,-1020 1636.28,-1032 1636.28,-1032 1636.28,-1038 1630.28,-1044 1624.28,-1044"/>
<text text-anchor="middle" x="1559" y="-1023" font-family="sans" font-size="10.00">direction_vectors_isocortex_ccfv3</text>
</g>
<!-- 6&#45;&gt;17 -->
<g id="edge32" class="edge">
<title>6&#45;&gt;17</title>
<path fill="none" stroke="grey" stroke-width="2" d="M1450.98,-1079.88C1470.2,-1070.47 1494.23,-1058.71 1514.74,-1048.67"/>
<polygon fill="grey" stroke="grey" stroke-width="2" points="1516.44,-1051.73 1523.88,-1044.19 1513.36,-1045.44 1516.44,-1051.73"/>
</g>
<!-- 7 -->
<g id="node8" class="node">
<title>7</title>
<path fill="none" stroke="#5663d8" stroke-width="2" d="M1077.04,-1116C1077.04,-1116 984.96,-1116 984.96,-1116 978.96,-1116 972.96,-1110 972.96,-1104 972.96,-1104 972.96,-1092 972.96,-1092 972.96,-1086 978.96,-1080 984.96,-1080 984.96,-1080 1077.04,-1080 1077.04,-1080 1083.04,-1080 1089.04,-1086 1089.04,-1092 1089.04,-1092 1089.04,-1104 1089.04,-1104 1089.04,-1110 1083.04,-1116 1077.04,-1116"/>
<text text-anchor="middle" x="1031" y="-1095" font-family="sans" font-size="10.00">combine_v2_annotations</text>
</g>
<!-- 7&#45;&gt;5 -->
<g id="edge16" class="edge">
<title>7&#45;&gt;5</title>
<path fill="none" stroke="grey" stroke-width="2" d="M1024.01,-1079.95C1012.76,-1049.89 993.66,-985.93 1012,-936 1015.78,-925.7 1022.56,-916.02 1029.72,-907.84"/>
<polygon fill="grey" stroke="grey" stroke-width="2" points="1032.34,-910.16 1036.62,-900.47 1027.23,-905.38 1032.34,-910.16"/>
</g>
<!-- 7&#45;&gt;10 -->
<g id="edge20" class="edge">
<title>7&#45;&gt;10</title>
<path fill="none" stroke="grey" stroke-width="2" d="M1031.12,-1079.9C1032.01,-1060.91 1035.77,-1030.03 1050,-1008 1057.72,-996.04 1069.16,-985.84 1080.65,-977.69"/>
<polygon fill="grey" stroke="grey" stroke-width="2" points="1082.61,-980.58 1088.98,-972.11 1078.72,-974.77 1082.61,-980.58"/>
</g>
<!-- 7&#45;&gt;11 -->
<g id="edge24" class="edge">
<title>7&#45;&gt;11</title>
<path fill="none" stroke="grey" stroke-width="2" d="M1089.27,-1080.14C1123.79,-1070.16 1167.72,-1057.45 1203.97,-1046.97"/>
<polygon fill="grey" stroke="grey" stroke-width="2" points="1205.34,-1050.21 1213.97,-1044.07 1203.39,-1043.49 1205.34,-1050.21"/>
</g>
<!-- 8 -->
<g id="node9" class="node">
<title>8</title>
<path fill="none" stroke="#567bd8" stroke-width="2" d="M1010.44,-1188C1010.44,-1188 893.56,-1188 893.56,-1188 887.56,-1188 881.56,-1182 881.56,-1176 881.56,-1176 881.56,-1164 881.56,-1164 881.56,-1158 887.56,-1152 893.56,-1152 893.56,-1152 1010.44,-1152 1010.44,-1152 1016.44,-1152 1022.44,-1158 1022.44,-1164 1022.44,-1164 1022.44,-1176 1022.44,-1176 1022.44,-1182 1016.44,-1188 1010.44,-1188"/>
<text text-anchor="middle" x="952" y="-1167" font-family="sans" font-size="10.00">fetch_brain_parcellation_ccfv2</text>
</g>
<!-- 8&#45;&gt;7 -->
<g id="edge18" class="edge">
<title>8&#45;&gt;7</title>
<path fill="none" stroke="grey" stroke-width="2" d="M971.53,-1151.7C981.38,-1142.97 993.49,-1132.24 1004.2,-1122.75"/>
<polygon fill="grey" stroke="grey" stroke-width="2" points="1006.53,-1125.36 1011.7,-1116.1 1001.89,-1120.12 1006.53,-1125.36"/>
</g>
<!-- 9 -->
<g id="node10" class="node">
<title>9</title>
<path fill="none" stroke="#56d8a2" stroke-width="2" d="M1167.77,-1188C1167.77,-1188 1052.23,-1188 1052.23,-1188 1046.23,-1188 1040.23,-1182 1040.23,-1176 1040.23,-1176 1040.23,-1164 1040.23,-1164 1040.23,-1158 1046.23,-1152 1052.23,-1152 1052.23,-1152 1167.77,-1152 1167.77,-1152 1173.77,-1152 1179.77,-1158 1179.77,-1164 1179.77,-1164 1179.77,-1176 1179.77,-1176 1179.77,-1182 1173.77,-1188 1167.77,-1188"/>
<text text-anchor="middle" x="1110" y="-1167" font-family="sans" font-size="10.00">fetch_fiber_parcellation_ccfv2</text>
</g>
<!-- 9&#45;&gt;7 -->
<g id="edge19" class="edge">
<title>9&#45;&gt;7</title>
<path fill="none" stroke="grey" stroke-width="2" d="M1090.47,-1151.7C1080.62,-1142.97 1068.51,-1132.24 1057.8,-1122.75"/>
<polygon fill="grey" stroke="grey" stroke-width="2" points="1060.11,-1120.12 1050.3,-1116.1 1055.47,-1125.36 1060.11,-1120.12"/>
</g>
<!-- 10&#45;&gt;5 -->
<g id="edge17" class="edge">
<title>10&#45;&gt;5</title>
<path fill="none" stroke="grey" stroke-width="2" d="M1105.93,-935.7C1098.06,-927.22 1088.44,-916.86 1079.83,-907.58"/>
<polygon fill="grey" stroke="grey" stroke-width="2" points="1082.25,-905.05 1072.88,-900.1 1077.12,-909.81 1082.25,-905.05"/>
</g>
<!-- 11&#45;&gt;10 -->
<g id="edge22" class="edge">
<title>11&#45;&gt;10</title>
<path fill="none" stroke="grey" stroke-width="2" d="M1236.06,-1007.88C1215.51,-998.35 1189.75,-986.41 1167.91,-976.28"/>
<polygon fill="grey" stroke="grey" stroke-width="2" points="1169.36,-973.1 1158.82,-972.07 1166.42,-979.45 1169.36,-973.1"/>
</g>
<!-- 12 -->
<g id="node13" class="node">
<title>12</title>
<path fill="none" stroke="#d88556" stroke-width="2" d="M1165.23,-1044C1165.23,-1044 1070.77,-1044 1070.77,-1044 1064.77,-1044 1058.77,-1038 1058.77,-1032 1058.77,-1032 1058.77,-1020 1058.77,-1020 1058.77,-1014 1064.77,-1008 1070.77,-1008 1070.77,-1008 1165.23,-1008 1165.23,-1008 1171.23,-1008 1177.23,-1014 1177.23,-1020 1177.23,-1020 1177.23,-1032 1177.23,-1032 1177.23,-1038 1171.23,-1044 1165.23,-1044"/>
<text text-anchor="middle" x="1118" y="-1023" font-family="sans" font-size="10.00">fetch_isocortex_metadata</text>
</g>
<!-- 12&#45;&gt;10 -->
<g id="edge23" class="edge">
<title>12&#45;&gt;10</title>
<path fill="none" stroke="grey" stroke-width="2" d="M1118.99,-1007.7C1119.43,-999.98 1119.96,-990.71 1120.45,-982.11"/>
<polygon fill="grey" stroke="grey" stroke-width="2" points="1123.95,-982.29 1121.02,-972.1 1116.96,-981.89 1123.95,-982.29"/>
</g>
<!-- 13 -->
<g id="node14" class="node">
<title>13</title>
<path fill="none" stroke="#d86656" stroke-width="2" d="M1508.92,-900C1508.92,-900 1427.08,-900 1427.08,-900 1421.08,-900 1415.08,-894 1415.08,-888 1415.08,-888 1415.08,-876 1415.08,-876 1415.08,-870 1421.08,-864 1427.08,-864 1427.08,-864 1508.92,-864 1508.92,-864 1514.92,-864 1520.92,-870 1520.92,-876 1520.92,-876 1520.92,-888 1520.92,-888 1520.92,-894 1514.92,-900 1508.92,-900"/>
<text text-anchor="middle" x="1468" y="-879" font-family="sans" font-size="10.00">fetch_barrel_positions</text>
</g>
<!-- 13&#45;&gt;4 -->
<g id="edge14" class="edge">
<title>13&#45;&gt;4</title>
<path fill="none" stroke="grey" stroke-width="2" d="M1415.01,-878.14C1320.44,-872.51 1116.33,-857.99 934.85,-828.01"/>
<polygon fill="grey" stroke="grey" stroke-width="2" points="935.29,-824.53 924.85,-826.33 934.14,-831.44 935.29,-824.53"/>
</g>
<!-- 14 -->
<g id="node15" class="node">
<title>14</title>
<path fill="none" stroke="#56d89a" stroke-width="2" d="M1473.75,-396C1473.75,-396 1374.25,-396 1374.25,-396 1368.25,-396 1362.25,-390 1362.25,-384 1362.25,-384 1362.25,-372 1362.25,-372 1362.25,-366 1368.25,-360 1374.25,-360 1374.25,-360 1473.75,-360 1473.75,-360 1479.75,-360 1485.75,-366 1485.75,-372 1485.75,-372 1485.75,-384 1485.75,-384 1485.75,-390 1479.75,-396 1473.75,-396"/>
<text text-anchor="middle" x="1424" y="-375" font-family="sans" font-size="10.00">split_barrel_ccfv3_l23split</text>
</g>
<!-- 13&#45;&gt;14 -->
<g id="edge27" class="edge">
<title>13&#45;&gt;14</title>
<path fill="none" stroke="grey" stroke-width="2" d="M1520.99,-878.34C1595.94,-873.46 1727.54,-860.42 1761,-828 1790.05,-799.85 1780,-779.45 1780,-739 1780,-739 1780,-739 1780,-521 1780,-460.41 1599.82,-414.16 1495.83,-392.51"/>
<polygon fill="grey" stroke="grey" stroke-width="2" points="1496.51,-389.08 1486.01,-390.49 1495.1,-395.94 1496.51,-389.08"/>
</g>
<!-- 14&#45;&gt;2 -->
<g id="edge8" class="edge">
<title>14&#45;&gt;2</title>
<path fill="none" stroke="grey" stroke-width="2" d="M1448.35,-359.97C1471.68,-341.58 1500.75,-311.73 1482,-288 1467.31,-269.42 1418.06,-256.65 1369.57,-248.32"/>
<polygon fill="grey" stroke="grey" stroke-width="2" points="1370.01,-244.84 1359.57,-246.66 1368.86,-251.75 1370.01,-244.84"/>
</g>
<!-- 14&#45;&gt;3 -->
<g id="edge11" class="edge">
<title>14&#45;&gt;3</title>
<path fill="none" stroke="grey" stroke-width="2" d="M1383.64,-359.88C1360.98,-350.26 1332.53,-338.19 1308.53,-328.01"/>
<polygon fill="grey" stroke="grey" stroke-width="2" points="1309.81,-324.75 1299.23,-324.07 1307.07,-331.2 1309.81,-324.75"/>
</g>
<!-- 14&#45;&gt;28 -->
<g id="edge46" class="edge">
<title>14&#45;&gt;28</title>
<path fill="none" stroke="grey" stroke-width="2" d="M1362.03,-369.31C1276.39,-358.68 1119.34,-339.19 1003.62,-324.83"/>
<polygon fill="grey" stroke="grey" stroke-width="2" points="1003.96,-321.34 993.61,-323.58 1003.1,-328.29 1003.96,-321.34"/>
</g>
<!-- 14&#45;&gt;38 -->
<g id="edge65" class="edge">
<title>14&#45;&gt;38</title>
<path fill="none" stroke="grey" stroke-width="2" d="M1361.99,-365.75C1309.01,-355.96 1230.55,-340.99 1153.32,-324.24"/>
<polygon fill="grey" stroke="grey" stroke-width="2" points="1153.94,-320.8 1143.42,-322.09 1152.45,-327.64 1153.94,-320.8"/>
</g>
<!-- 14&#45;&gt;40 -->
<g id="edge71" class="edge">
<title>14&#45;&gt;40</title>
<path fill="none" stroke="grey" stroke-width="2" d="M1362.08,-372.67C1199.85,-361.34 760.14,-330.62 544.54,-315.56"/>
<polygon fill="grey" stroke="grey" stroke-width="2" points="544.66,-312.06 534.44,-314.86 544.17,-319.04 544.66,-312.06"/>
</g>
<!-- 44 -->
<g id="node45" class="node">
<title>44</title>
<path fill="none" stroke="#56a9d8" stroke-width="2" d="M1460.64,-324C1460.64,-324 1387.36,-324 1387.36,-324 1381.36,-324 1375.36,-318 1375.36,-312 1375.36,-312 1375.36,-300 1375.36,-300 1375.36,-294 1381.36,-288 1387.36,-288 1387.36,-288 1460.64,-288 1460.64,-288 1466.64,-288 1472.64,-294 1472.64,-300 1472.64,-300 1472.64,-312 1472.64,-312 1472.64,-318 1466.64,-324 1460.64,-324"/>
<text text-anchor="middle" x="1424" y="-303" font-family="sans" font-size="10.00">export_brain_region</text>
</g>
<!-- 14&#45;&gt;44 -->
<g id="edge77" class="edge">
<title>14&#45;&gt;44</title>
<path fill="none" stroke="grey" stroke-width="2" d="M1424,-359.7C1424,-351.98 1424,-342.71 1424,-334.11"/>
<polygon fill="grey" stroke="grey" stroke-width="2" points="1427.5,-334.1 1424,-324.1 1420.5,-334.1 1427.5,-334.1"/>
</g>
<!-- 14&#45;&gt;45 -->
<g id="edge78" class="edge">
<title>14&#45;&gt;45</title>
<path fill="none" stroke="grey" stroke-width="2" d="M1462.78,-359.78C1477.18,-351.24 1491.96,-339.4 1500,-324 1535.67,-255.64 1496.98,-162.25 1473.8,-117.29"/>
<polygon fill="grey" stroke="grey" stroke-width="2" points="1476.76,-115.4 1468.99,-108.21 1470.58,-118.68 1476.76,-115.4"/>
</g>
<!-- 15&#45;&gt;14 -->
<g id="edge26" class="edge">
<title>15&#45;&gt;14</title>
<path fill="none" stroke="grey" stroke-width="2" d="M1681.37,-935.95C1741.38,-916.72 1818,-878.88 1818,-811 1818,-811 1818,-811 1818,-521 1818,-457.42 1763.83,-458.43 1706,-432 1638.89,-401.34 1555.05,-388.41 1496.29,-382.97"/>
<polygon fill="grey" stroke="grey" stroke-width="2" points="1496.25,-379.45 1485.99,-382.06 1495.64,-386.42 1496.25,-379.45"/>
</g>
<!-- 16 -->
<g id="node17" class="node">
<title>16</title>
<path fill="none" stroke="#78d856" stroke-width="2" d="M1680.44,-1116C1680.44,-1116 1563.56,-1116 1563.56,-1116 1557.56,-1116 1551.56,-1110 1551.56,-1104 1551.56,-1104 1551.56,-1092 1551.56,-1092 1551.56,-1086 1557.56,-1080 1563.56,-1080 1563.56,-1080 1680.44,-1080 1680.44,-1080 1686.44,-1080 1692.44,-1086 1692.44,-1092 1692.44,-1092 1692.44,-1104 1692.44,-1104 1692.44,-1110 1686.44,-1116 1680.44,-1116"/>
<text text-anchor="middle" x="1622" y="-1095" font-family="sans" font-size="10.00">fetch_brain_parcellation_ccfv3</text>
</g>
<!-- 16&#45;&gt;15 -->
<g id="edge29" class="edge">
<title>16&#45;&gt;15</title>
<path fill="none" stroke="grey" stroke-width="2" d="M1631.97,-1079.85C1641.13,-1061.86 1652.27,-1032.81 1645,-1008 1642.2,-998.45 1637.09,-988.98 1631.67,-980.76"/>
<polygon fill="grey" stroke="grey" stroke-width="2" points="1634.38,-978.52 1625.75,-972.37 1628.65,-982.56 1634.38,-978.52"/>
</g>
<!-- 16&#45;&gt;17 -->
<g id="edge31" class="edge">
<title>16&#45;&gt;17</title>
<path fill="none" stroke="grey" stroke-width="2" d="M1606.43,-1079.7C1598.8,-1071.22 1589.48,-1060.86 1581.12,-1051.58"/>
<polygon fill="grey" stroke="grey" stroke-width="2" points="1583.69,-1049.2 1574.39,-1044.1 1578.48,-1053.88 1583.69,-1049.2"/>
</g>
<!-- 17&#45;&gt;15 -->
<g id="edge30" class="edge">
<title>17&#45;&gt;15</title>
<path fill="none" stroke="grey" stroke-width="2" d="M1571.85,-1007.7C1578.03,-999.39 1585.54,-989.28 1592.32,-980.14"/>
<polygon fill="grey" stroke="grey" stroke-width="2" points="1595.14,-982.22 1598.29,-972.1 1589.52,-978.04 1595.14,-982.22"/>
</g>
<!-- 18&#45;&gt;3 -->
<g id="edge12" class="edge">
<title>18&#45;&gt;3</title>
<path fill="none" stroke="grey" stroke-width="2" d="M1138.69,-647.91C1149.79,-621.62 1169,-569.45 1169,-523 1169,-523 1169,-523 1169,-449 1169,-401.71 1205.04,-357.41 1231.51,-331.25"/>
<polygon fill="grey" stroke="grey" stroke-width="2" points="1234.23,-333.49 1239.03,-324.05 1229.38,-328.44 1234.23,-333.49"/>
</g>
<!-- 18&#45;&gt;29 -->
<g id="edge49" class="edge">
<title>18&#45;&gt;29</title>
<path fill="none" stroke="grey" stroke-width="2" d="M1122.55,-647.89C1112.38,-628.61 1093.79,-597.19 1071,-576 1021.24,-529.72 951.32,-493.48 904.2,-472.2"/>
<polygon fill="grey" stroke="grey" stroke-width="2" points="905.36,-468.88 894.8,-468.01 902.51,-475.28 905.36,-468.88"/>
</g>
<!-- 18&#45;&gt;30 -->
<g id="edge53" class="edge">
<title>18&#45;&gt;30</title>
<path fill="none" stroke="grey" stroke-width="2" d="M1114.41,-647.63C1092.15,-624.64 1053.39,-585.88 1036,-576 1007.57,-559.85 973.83,-548.29 943.05,-540.17"/>
<polygon fill="grey" stroke="grey" stroke-width="2" points="943.72,-536.73 933.17,-537.65 942,-543.51 943.72,-536.73"/>
</g>
<!-- 18&#45;&gt;36 -->
<g id="edge62" class="edge">
<title>18&#45;&gt;36</title>
<path fill="none" stroke="grey" stroke-width="2" d="M1087.46,-647.88C1062.8,-638.18 1031.78,-625.98 1005.75,-615.74"/>
<polygon fill="grey" stroke="grey" stroke-width="2" points="1006.99,-612.47 996.4,-612.07 1004.43,-618.99 1006.99,-612.47"/>
</g>
<!-- 18&#45;&gt;39 -->
<g id="edge68" class="edge">
<title>18&#45;&gt;39</title>
<path fill="none" stroke="grey" stroke-width="2" d="M1128.14,-647.97C1120.12,-600.19 1097.37,-464.62 1087.58,-406.27"/>
<polygon fill="grey" stroke="grey" stroke-width="2" points="1091.01,-405.59 1085.9,-396.31 1084.11,-406.75 1091.01,-405.59"/>
</g>
<!-- 19&#45;&gt;18 -->
<g id="edge34" class="edge">
<title>19&#45;&gt;18</title>
<path fill="none" stroke="grey" stroke-width="2" d="M1121.21,-719.7C1122.65,-711.98 1124.37,-702.71 1125.96,-694.11"/>
<polygon fill="grey" stroke="grey" stroke-width="2" points="1129.44,-694.58 1127.82,-684.1 1122.56,-693.3 1129.44,-694.58"/>
</g>
<!-- 19&#45;&gt;36 -->
<g id="edge61" class="edge">
<title>19&#45;&gt;36</title>
<path fill="none" stroke="grey" stroke-width="2" d="M1093.47,-719.77C1079.54,-709.72 1061.95,-696.58 1047,-684 1022.33,-663.23 995.78,-637.78 977.21,-619.42"/>
<polygon fill="grey" stroke="grey" stroke-width="2" points="979.33,-616.6 969.77,-612.03 974.39,-621.56 979.33,-616.6"/>
</g>
<!-- 20 -->
<g id="node21" class="node">
<title>20</title>
<path fill="none" stroke="#d8a456" stroke-width="2" d="M1100.84,-828C1100.84,-828 955.16,-828 955.16,-828 949.16,-828 943.16,-822 943.16,-816 943.16,-816 943.16,-804 943.16,-804 943.16,-798 949.16,-792 955.16,-792 955.16,-792 1100.84,-792 1100.84,-792 1106.84,-792 1112.84,-798 1112.84,-804 1112.84,-804 1112.84,-816 1112.84,-816 1112.84,-822 1106.84,-828 1100.84,-828"/>
<text text-anchor="middle" x="1028" y="-807" font-family="sans" font-size="10.00">fetch_corrected_nissl_stained_volume</text>
</g>
<!-- 20&#45;&gt;19 -->
<g id="edge37" class="edge">
<title>20&#45;&gt;19</title>
<path fill="none" stroke="grey" stroke-width="2" d="M1050.25,-791.7C1061.58,-782.88 1075.53,-772.03 1087.82,-762.47"/>
<polygon fill="grey" stroke="grey" stroke-width="2" points="1090.26,-765.01 1096.01,-756.1 1085.97,-759.48 1090.26,-765.01"/>
</g>
<!-- 21&#45;&gt;18 -->
<g id="edge35" class="edge">
<title>21&#45;&gt;18</title>
<path fill="none" stroke="grey" stroke-width="2" d="M1338.28,-724.81C1300.67,-714.32 1245.71,-698.99 1201.83,-686.75"/>
<polygon fill="grey" stroke="grey" stroke-width="2" points="1202.65,-683.35 1192.08,-684.03 1200.77,-690.09 1202.65,-683.35"/>
</g>
<!-- 22 -->
<g id="node23" class="node">
<title>22</title>
<path fill="none" stroke="#80d856" stroke-width="2" d="M1213.36,-828C1213.36,-828 1142.64,-828 1142.64,-828 1136.64,-828 1130.64,-822 1130.64,-816 1130.64,-816 1130.64,-804 1130.64,-804 1130.64,-798 1136.64,-792 1142.64,-792 1142.64,-792 1213.36,-792 1213.36,-792 1219.36,-792 1225.36,-798 1225.36,-804 1225.36,-804 1225.36,-816 1225.36,-816 1225.36,-822 1219.36,-828 1213.36,-828"/>
<text text-anchor="middle" x="1178" y="-807" font-family="sans" font-size="10.00">fetch_gene_aldh1l1</text>
</g>
<!-- 22&#45;&gt;21 -->
<g id="edge38" class="edge">
<title>22&#45;&gt;21</title>
<path fill="none" stroke="grey" stroke-width="2" d="M1225.57,-792.68C1256.41,-782.1 1296.63,-768.29 1328.56,-757.34"/>
<polygon fill="grey" stroke="grey" stroke-width="2" points="1329.87,-760.59 1338.19,-754.03 1327.59,-753.97 1329.87,-760.59"/>
</g>
<!-- 23 -->
<g id="node24" class="node">
<title>23</title>
<path fill="none" stroke="#56d88a" stroke-width="2" d="M1310.8,-828C1310.8,-828 1255.2,-828 1255.2,-828 1249.2,-828 1243.2,-822 1243.2,-816 1243.2,-816 1243.2,-804 1243.2,-804 1243.2,-798 1249.2,-792 1255.2,-792 1255.2,-792 1310.8,-792 1310.8,-792 1316.8,-792 1322.8,-798 1322.8,-804 1322.8,-804 1322.8,-816 1322.8,-816 1322.8,-822 1316.8,-828 1310.8,-828"/>
<text text-anchor="middle" x="1283" y="-807" font-family="sans" font-size="10.00">fetch_gene_cnp</text>
</g>
<!-- 23&#45;&gt;21 -->
<g id="edge39" class="edge">
<title>23&#45;&gt;21</title>
<path fill="none" stroke="grey" stroke-width="2" d="M1307.22,-791.88C1319.92,-782.89 1335.66,-771.76 1349.42,-762.03"/>
<polygon fill="grey" stroke="grey" stroke-width="2" points="1351.54,-764.82 1357.69,-756.19 1347.5,-759.11 1351.54,-764.82"/>
</g>
<!-- 24 -->
<g id="node25" class="node">
<title>24</title>
<path fill="none" stroke="#56d0d8" stroke-width="2" d="M1411.14,-828C1411.14,-828 1352.86,-828 1352.86,-828 1346.86,-828 1340.86,-822 1340.86,-816 1340.86,-816 1340.86,-804 1340.86,-804 1340.86,-798 1346.86,-792 1352.86,-792 1352.86,-792 1411.14,-792 1411.14,-792 1417.14,-792 1423.14,-798 1423.14,-804 1423.14,-804 1423.14,-816 1423.14,-816 1423.14,-822 1417.14,-828 1411.14,-828"/>
<text text-anchor="middle" x="1382" y="-807" font-family="sans" font-size="10.00">fetch_gene_mbp</text>
</g>
<!-- 24&#45;&gt;21 -->
<g id="edge40" class="edge">
<title>24&#45;&gt;21</title>
<path fill="none" stroke="grey" stroke-width="2" d="M1382,-791.7C1382,-783.98 1382,-774.71 1382,-766.11"/>
<polygon fill="grey" stroke="grey" stroke-width="2" points="1385.5,-766.1 1382,-756.1 1378.5,-766.1 1385.5,-766.1"/>
</g>
<!-- 25 -->
<g id="node26" class="node">
<title>25</title>
<path fill="none" stroke="#d85656" stroke-width="2" d="M1512.13,-828C1512.13,-828 1453.87,-828 1453.87,-828 1447.87,-828 1441.87,-822 1441.87,-816 1441.87,-816 1441.87,-804 1441.87,-804 1441.87,-798 1447.87,-792 1453.87,-792 1453.87,-792 1512.13,-792 1512.13,-792 1518.13,-792 1524.13,-798 1524.13,-804 1524.13,-804 1524.13,-816 1524.13,-816 1524.13,-822 1518.13,-828 1512.13,-828"/>
<text text-anchor="middle" x="1483" y="-807" font-family="sans" font-size="10.00">fetch_gene_gfap</text>
</g>
<!-- 25&#45;&gt;21 -->
<g id="edge41" class="edge">
<title>25&#45;&gt;21</title>
<path fill="none" stroke="grey" stroke-width="2" d="M1458.29,-791.88C1445.33,-782.89 1429.27,-771.76 1415.23,-762.03"/>
<polygon fill="grey" stroke="grey" stroke-width="2" points="1417.02,-759.01 1406.8,-756.19 1413.03,-764.76 1417.02,-759.01"/>
</g>
<!-- 26 -->
<g id="node27" class="node">
<title>26</title>
<path fill="none" stroke="#70d856" stroke-width="2" d="M1619.25,-828C1619.25,-828 1554.75,-828 1554.75,-828 1548.75,-828 1542.75,-822 1542.75,-816 1542.75,-816 1542.75,-804 1542.75,-804 1542.75,-798 1548.75,-792 1554.75,-792 1554.75,-792 1619.25,-792 1619.25,-792 1625.25,-792 1631.25,-798 1631.25,-804 1631.25,-804 1631.25,-816 1631.25,-816 1631.25,-822 1625.25,-828 1619.25,-828"/>
<text text-anchor="middle" x="1587" y="-807" font-family="sans" font-size="10.00">fetch_gene_s100b</text>
</g>
<!-- 26&#45;&gt;21 -->
<g id="edge42" class="edge">
<title>26&#45;&gt;21</title>
<path fill="none" stroke="grey" stroke-width="2" d="M1542.52,-793.81C1511.01,-783.05 1468.59,-768.57 1435.27,-757.19"/>
<polygon fill="grey" stroke="grey" stroke-width="2" points="1436.29,-753.84 1425.69,-753.92 1434.02,-760.46 1436.29,-753.84"/>
</g>
<!-- 27 -->
<g id="node28" class="node">
<title>27</title>
<path fill="none" stroke="#d8ac56" stroke-width="2" d="M1740.14,-828C1740.14,-828 1661.86,-828 1661.86,-828 1655.86,-828 1649.86,-822 1649.86,-816 1649.86,-816 1649.86,-804 1649.86,-804 1649.86,-798 1655.86,-792 1661.86,-792 1661.86,-792 1740.14,-792 1740.14,-792 1746.14,-792 1752.14,-798 1752.14,-804 1752.14,-804 1752.14,-816 1752.14,-816 1752.14,-822 1746.14,-828 1740.14,-828"/>
<text text-anchor="middle" x="1701" y="-807" font-family="sans" font-size="10.00">fetch_gene_tmem119</text>
</g>
<!-- 27&#45;&gt;21 -->
<g id="edge43" class="edge">
<title>27&#45;&gt;21</title>
<path fill="none" stroke="grey" stroke-width="2" d="M1649.81,-794.46C1646.5,-793.6 1643.21,-792.78 1640,-792 1570,-775.08 1488.47,-758.92 1436.1,-748.98"/>
<polygon fill="grey" stroke="grey" stroke-width="2" points="1436.51,-745.5 1426.03,-747.08 1435.21,-752.38 1436.51,-745.5"/>
</g>
<!-- 28&#45;&gt;2 -->
<g id="edge5" class="edge">
<title>28&#45;&gt;2</title>
<path fill="none" stroke="grey" stroke-width="2" d="M957.1,-287.97C1015.98,-277.63 1091.21,-264.44 1151.83,-253.8"/>
<polygon fill="grey" stroke="grey" stroke-width="2" points="1152.57,-257.23 1161.81,-252.05 1151.36,-250.33 1152.57,-257.23"/>
</g>
<!-- 29&#45;&gt;28 -->
<g id="edge47" class="edge">
<title>29&#45;&gt;28</title>
<path fill="none" stroke="grey" stroke-width="2" d="M853.84,-431.87C855.04,-407.67 857.23,-363.21 858.65,-334.39"/>
<polygon fill="grey" stroke="grey" stroke-width="2" points="862.16,-334.35 859.15,-324.19 855.16,-334 862.16,-334.35"/>
</g>
<!-- 29&#45;&gt;39 -->
<g id="edge69" class="edge">
<title>29&#45;&gt;39</title>
<path fill="none" stroke="grey" stroke-width="2" d="M908.97,-431.97C947.13,-420.35 997.2,-405.11 1033.83,-393.97"/>
<polygon fill="grey" stroke="grey" stroke-width="2" points="1035.24,-397.2 1043.78,-390.94 1033.2,-390.5 1035.24,-397.2"/>
</g>
<!-- 29&#45;&gt;41 -->
<g id="edge74" class="edge">
<title>29&#45;&gt;41</title>
<path fill="none" stroke="grey" stroke-width="2" d="M741.65,-436.69C627.3,-424.04 450.16,-404.45 334.62,-391.68"/>
<polygon fill="grey" stroke="grey" stroke-width="2" points="335,-388.2 324.68,-390.58 334.23,-395.15 335,-388.2"/>
</g>
<!-- 30&#45;&gt;29 -->
<g id="edge50" class="edge">
<title>30&#45;&gt;29</title>
<path fill="none" stroke="grey" stroke-width="2" d="M852.25,-503.7C852.36,-495.98 852.49,-486.71 852.61,-478.11"/>
<polygon fill="grey" stroke="grey" stroke-width="2" points="856.11,-478.15 852.76,-468.1 849.11,-478.05 856.11,-478.15"/>
</g>
<!-- 31 -->
<g id="node32" class="node">
<title>31</title>
<path fill="none" stroke="#56d8c9" stroke-width="2" d="M622.28,-612C622.28,-612 521.72,-612 521.72,-612 515.72,-612 509.72,-606 509.72,-600 509.72,-600 509.72,-588 509.72,-588 509.72,-582 515.72,-576 521.72,-576 521.72,-576 622.28,-576 622.28,-576 628.28,-576 634.28,-582 634.28,-588 634.28,-588 634.28,-600 634.28,-600 634.28,-606 628.28,-612 622.28,-612"/>
<text text-anchor="middle" x="572" y="-591" font-family="sans" font-size="10.00">fetch_genes_correctednissl</text>
</g>
<!-- 31&#45;&gt;30 -->
<g id="edge51" class="edge">
<title>31&#45;&gt;30</title>
<path fill="none" stroke="grey" stroke-width="2" d="M634.14,-577.46C675.33,-567.17 729.71,-553.57 773.83,-542.54"/>
<polygon fill="grey" stroke="grey" stroke-width="2" points="774.8,-545.91 783.66,-540.09 773.11,-539.12 774.8,-545.91"/>
</g>
<!-- 32 -->
<g id="node33" class="node">
<title>32</title>
<path fill="none" stroke="#d89556" stroke-width="2" d="M627.89,-684C627.89,-684 516.11,-684 516.11,-684 510.11,-684 504.11,-678 504.11,-672 504.11,-672 504.11,-660 504.11,-660 504.11,-654 510.11,-648 516.11,-648 516.11,-648 627.89,-648 627.89,-648 633.89,-648 639.89,-654 639.89,-660 639.89,-660 639.89,-672 639.89,-672 639.89,-678 633.89,-684 627.89,-684"/>
<text text-anchor="middle" x="572" y="-663" font-family="sans" font-size="10.00">fetch_gene_pv_correctednissl</text>
</g>
<!-- 32&#45;&gt;31 -->
<g id="edge56" class="edge">
<title>32&#45;&gt;31</title>
<path fill="none" stroke="grey" stroke-width="2" d="M572,-647.7C572,-639.98 572,-630.71 572,-622.11"/>
<polygon fill="grey" stroke="grey" stroke-width="2" points="575.5,-622.1 572,-612.1 568.5,-622.1 575.5,-622.1"/>
</g>
<!-- 33 -->
<g id="node34" class="node">
<title>33</title>
<path fill="none" stroke="#56b9d8" stroke-width="2" d="M781.95,-684C781.95,-684 670.05,-684 670.05,-684 664.05,-684 658.05,-678 658.05,-672 658.05,-672 658.05,-660 658.05,-660 658.05,-654 664.05,-648 670.05,-648 670.05,-648 781.95,-648 781.95,-648 787.95,-648 793.95,-654 793.95,-660 793.95,-660 793.95,-672 793.95,-672 793.95,-678 787.95,-684 781.95,-684"/>
<text text-anchor="middle" x="726" y="-663" font-family="sans" font-size="10.00">fetch_gene_sst_correctednissl</text>
</g>
<!-- 33&#45;&gt;31 -->
<g id="edge57" class="edge">
<title>33&#45;&gt;31</title>
<path fill="none" stroke="grey" stroke-width="2" d="M688.33,-647.88C667.37,-638.35 641.1,-626.41 618.82,-616.28"/>
<polygon fill="grey" stroke="grey" stroke-width="2" points="620.1,-613.02 609.55,-612.07 617.21,-619.39 620.1,-613.02"/>
</g>
<!-- 34 -->
<g id="node35" class="node">
<title>34</title>
<path fill="none" stroke="#56d87b" stroke-width="2" d="M306.17,-684C306.17,-684 191.83,-684 191.83,-684 185.83,-684 179.83,-678 179.83,-672 179.83,-672 179.83,-660 179.83,-660 179.83,-654 185.83,-648 191.83,-648 191.83,-648 306.17,-648 306.17,-648 312.17,-648 318.17,-654 318.17,-660 318.17,-660 318.17,-672 318.17,-672 318.17,-678 312.17,-684 306.17,-684"/>
<text text-anchor="middle" x="249" y="-663" font-family="sans" font-size="10.00">fetch_gene_vip_correctednissl</text>
</g>
<!-- 34&#45;&gt;31 -->
<g id="edge58" class="edge">
<title>34&#45;&gt;31</title>
<path fill="none" stroke="grey" stroke-width="2" d="M318.32,-649.89C321.25,-649.25 324.16,-648.62 327,-648 385.19,-635.37 451.16,-621.1 499.98,-610.55"/>
<polygon fill="grey" stroke="grey" stroke-width="2" points="500.78,-613.96 509.82,-608.42 499.3,-607.12 500.78,-613.96"/>
</g>
<!-- 35 -->
<g id="node36" class="node">
<title>35</title>
<path fill="none" stroke="#68d856" stroke-width="2" d="M473.83,-684C473.83,-684 348.17,-684 348.17,-684 342.17,-684 336.17,-678 336.17,-672 336.17,-672 336.17,-660 336.17,-660 336.17,-654 342.17,-648 348.17,-648 348.17,-648 473.83,-648 473.83,-648 479.83,-648 485.83,-654 485.83,-660 485.83,-660 485.83,-672 485.83,-672 485.83,-678 479.83,-684 473.83,-684"/>
<text text-anchor="middle" x="411" y="-663" font-family="sans" font-size="10.00">fetch_gene_gad67_correctednissl</text>
</g>
<!-- 35&#45;&gt;31 -->
<g id="edge59" class="edge">
<title>35&#45;&gt;31</title>
<path fill="none" stroke="grey" stroke-width="2" d="M450.39,-647.88C472.39,-638.31 500.01,-626.3 523.36,-616.15"/>
<polygon fill="grey" stroke="grey" stroke-width="2" points="524.97,-619.27 532.74,-612.07 522.18,-612.85 524.97,-619.27"/>
</g>
<!-- 36&#45;&gt;30 -->
<g id="edge54" class="edge">
<title>36&#45;&gt;30</title>
<path fill="none" stroke="grey" stroke-width="2" d="M928.29,-575.88C915.33,-566.89 899.27,-555.76 885.23,-546.03"/>
<polygon fill="grey" stroke="grey" stroke-width="2" points="887.02,-543.01 876.8,-540.19 883.03,-548.76 887.02,-543.01"/>
</g>
<!-- 37 -->
<g id="node38" class="node">
<title>37</title>
<path fill="none" stroke="#568ad8" stroke-width="2" d="M950.41,-684C950.41,-684 823.59,-684 823.59,-684 817.59,-684 811.59,-678 811.59,-672 811.59,-672 811.59,-660 811.59,-660 811.59,-654 817.59,-648 823.59,-648 823.59,-648 950.41,-648 950.41,-648 956.41,-648 962.41,-654 962.41,-660 962.41,-660 962.41,-672 962.41,-672 962.41,-678 956.41,-684 950.41,-684"/>
<text text-anchor="middle" x="887" y="-663" font-family="sans" font-size="10.00">compile_densities_measurements</text>
</g>
<!-- 37&#45;&gt;30 -->
<g id="edge55" class="edge">
<title>37&#45;&gt;30</title>
<path fill="none" stroke="grey" stroke-width="2" d="M881,-647.96C877.5,-637.63 873.17,-624.16 870,-612 864.67,-591.54 859.98,-568.08 856.73,-550.38"/>
<polygon fill="grey" stroke="grey" stroke-width="2" points="860.11,-549.41 854.89,-540.19 853.22,-550.65 860.11,-549.41"/>
</g>
<!-- 37&#45;&gt;36 -->
<g id="edge63" class="edge">
<title>37&#45;&gt;36</title>
<path fill="none" stroke="grey" stroke-width="2" d="M903.31,-647.7C911.31,-639.22 921.07,-628.86 929.82,-619.58"/>
<polygon fill="grey" stroke="grey" stroke-width="2" points="932.56,-621.78 936.87,-612.1 927.47,-616.98 932.56,-621.78"/>
</g>
<!-- 38&#45;&gt;2 -->
<g id="edge6" class="edge">
<title>38&#45;&gt;2</title>
<path fill="none" stroke="grey" stroke-width="2" d="M1125.3,-287.88C1149.71,-278.22 1180.4,-266.09 1206.21,-255.88"/>
<polygon fill="grey" stroke="grey" stroke-width="2" points="1207.83,-259 1215.84,-252.07 1205.26,-252.49 1207.83,-259"/>
</g>
<!-- 39&#45;&gt;38 -->
<g id="edge66" class="edge">
<title>39&#45;&gt;38</title>
<path fill="none" stroke="grey" stroke-width="2" d="M1082.75,-359.7C1082.64,-351.98 1082.51,-342.71 1082.39,-334.11"/>
<polygon fill="grey" stroke="grey" stroke-width="2" points="1085.89,-334.05 1082.24,-324.1 1078.89,-334.15 1085.89,-334.05"/>
</g>
<!-- 40&#45;&gt;2 -->
<g id="edge7" class="edge">
<title>40&#45;&gt;2</title>
<path fill="none" stroke="grey" stroke-width="2" d="M534.45,-295.6C694.99,-282.17 988.11,-257.66 1147.9,-244.29"/>
<polygon fill="grey" stroke="grey" stroke-width="2" points="1148.56,-247.75 1158.23,-243.43 1147.98,-240.77 1148.56,-247.75"/>
</g>
<!-- 41&#45;&gt;40 -->
<g id="edge72" class="edge">
<title>41&#45;&gt;40</title>
<path fill="none" stroke="grey" stroke-width="2" d="M269.16,-359.97C297.5,-350.14 333.32,-337.73 363.16,-327.39"/>
<polygon fill="grey" stroke="grey" stroke-width="2" points="364.32,-330.69 372.62,-324.11 362.03,-324.08 364.32,-330.69"/>
</g>
<!-- 42 -->
<g id="node43" class="node">
<title>42</title>
<path fill="none" stroke="#d8cb56" stroke-width="2" d="M312.59,-468C312.59,-468 229.41,-468 229.41,-468 223.41,-468 217.41,-462 217.41,-456 217.41,-456 217.41,-444 217.41,-444 217.41,-438 223.41,-432 229.41,-432 229.41,-432 312.59,-432 312.59,-432 318.59,-432 324.59,-438 324.59,-444 324.59,-444 324.59,-456 324.59,-456 324.59,-462 318.59,-468 312.59,-468"/>
<text text-anchor="middle" x="271" y="-447" font-family="sans" font-size="10.00">fetch_probability_map</text>
</g>
<!-- 42&#45;&gt;41 -->
<g id="edge73" class="edge">
<title>42&#45;&gt;41</title>
<path fill="none" stroke="grey" stroke-width="2" d="M258.39,-431.7C252.4,-423.47 245.12,-413.48 238.52,-404.42"/>
<polygon fill="grey" stroke="grey" stroke-width="2" points="241.18,-402.13 232.46,-396.1 235.52,-406.25 241.18,-402.13"/>
</g>
<!-- 43 -->
<g id="node44" class="node">
<title>43</title>
<path fill="none" stroke="#5673d8" stroke-width="2" d="M187.73,-468C187.73,-468 78.27,-468 78.27,-468 72.27,-468 66.27,-462 66.27,-456 66.27,-456 66.27,-444 66.27,-444 66.27,-438 72.27,-432 78.27,-432 78.27,-432 187.73,-432 187.73,-432 193.73,-432 199.73,-438 199.73,-444 199.73,-444 199.73,-456 199.73,-456 199.73,-462 193.73,-468 187.73,-468"/>
<text text-anchor="middle" x="133" y="-447" font-family="sans" font-size="10.00">fetch_isocortex_23_metadata</text>
</g>
<!-- 43&#45;&gt;41 -->
<g id="edge76" class="edge">
<title>43&#45;&gt;41</title>
<path fill="none" stroke="grey" stroke-width="2" d="M154.51,-431.7C165.46,-422.88 178.95,-412.03 190.82,-402.47"/>
<polygon fill="grey" stroke="grey" stroke-width="2" points="193.14,-405.1 198.74,-396.1 188.76,-399.65 193.14,-405.1"/>
</g>
<!-- 44&#45;&gt;2 -->
<g id="edge9" class="edge">
<title>44&#45;&gt;2</title>
<path fill="none" stroke="grey" stroke-width="2" d="M1383.64,-287.88C1360.98,-278.26 1332.53,-266.19 1308.53,-256.01"/>
<polygon fill="grey" stroke="grey" stroke-width="2" points="1309.81,-252.75 1299.23,-252.07 1307.07,-259.2 1309.81,-252.75"/>
</g>
<!-- 45&#45;&gt;0 -->
<g id="edge2" class="edge">
<title>45&#45;&gt;0</title>
<path fill="none" stroke="grey" stroke-width="2" d="M1443.92,-71.7C1436.61,-63.3 1427.69,-53.07 1419.66,-43.86"/>
<polygon fill="grey" stroke="grey" stroke-width="2" points="1422.11,-41.34 1412.91,-36.1 1416.84,-45.94 1422.11,-41.34"/>
</g>
</g>
</svg>
