<?xml version="1.0" encoding="UTF-8" standalone="no"?>
<!DOCTYPE svg PUBLIC "-//W3C//DTD SVG 1.1//EN"
 "http://www.w3.org/Graphics/SVG/1.1/DTD/svg11.dtd">
<!-- Generated by graphviz version 2.43.0 (0)
 -->
<!-- Title: snakemake_dag Pages: 1 -->
<svg width="2883pt" height="1772pt"
 viewBox="0.00 0.00 2883.00 1772.00" xmlns="http://www.w3.org/2000/svg" xmlns:xlink="http://www.w3.org/1999/xlink">
<g id="graph0" class="graph" transform="scale(1 1) rotate(0) translate(4 1768)">
<title>snakemake_dag</title>
<polygon fill="white" stroke="transparent" points="-4,4 -4,-1768 2879,-1768 2879,4 -4,4"/>
<!-- 0 -->
<g id="node1" class="node">
<title>0</title>
<path fill="none" stroke="#9fd856" stroke-width="2" d="M818,-36C818,-36 726,-36 726,-36 720,-36 714,-30 714,-24 714,-24 714,-12 714,-12 714,-6 720,0 726,0 726,0 818,0 818,0 824,0 830,-6 830,-12 830,-12 830,-24 830,-24 830,-30 824,-36 818,-36"/>
<text text-anchor="middle" x="772" y="-15.5" font-family="sans" font-size="10.00">push_atlas_datasets</text>
</g>
<!-- 1 -->
<g id="node2" class="node">
<title>1</title>
<path fill="none" stroke="#56d8d0" stroke-width="2" d="M562,-324C562,-324 476,-324 476,-324 470,-324 464,-318 464,-312 464,-312 464,-300 464,-300 464,-294 470,-288 476,-288 476,-288 562,-288 562,-288 568,-288 574,-294 574,-300 574,-300 574,-312 574,-312 574,-318 568,-324 562,-324"/>
<text text-anchor="middle" x="519" y="-303.5" font-family="sans" font-size="10.00">push_atlas_release</text>
</g>
<!-- 1&#45;&gt;0 -->
<g id="edge1" class="edge">
<title>1&#45;&gt;0</title>
<path fill="none" stroke="grey" stroke-width="2" d="M528.12,-287.93C544.94,-257.29 582.97,-191.71 625,-144 657.5,-107.1 671.52,-103.83 709,-72 720.29,-62.42 732.75,-51.91 743.6,-42.8"/>
<polygon fill="grey" stroke="grey" stroke-width="2" points="746.12,-45.25 751.53,-36.14 741.62,-39.89 746.12,-45.25"/>
</g>
<!-- 2 -->
<g id="node3" class="node">
<title>2</title>
<path fill="none" stroke="#56d863" stroke-width="2" d="M866,-396C866,-396 776,-396 776,-396 770,-396 764,-390 764,-384 764,-384 764,-372 764,-372 764,-366 770,-360 776,-360 776,-360 866,-360 866,-360 872,-360 878,-366 878,-372 878,-372 878,-384 878,-384 878,-390 872,-396 866,-396"/>
<text text-anchor="middle" x="821" y="-375.5" font-family="sans" font-size="10.00">export_brain_region</text>
</g>
<!-- 2&#45;&gt;1 -->
<g id="edge5" class="edge">
<title>2&#45;&gt;1</title>
<path fill="none" stroke="grey" stroke-width="2" d="M763.67,-363.19C759.05,-362.1 754.45,-361.03 750,-360 678.13,-343.41 659.81,-340.82 588,-324 586.75,-323.71 585.49,-323.41 584.22,-323.11"/>
<polygon fill="grey" stroke="grey" stroke-width="2" points="584.87,-319.67 574.33,-320.75 583.25,-326.48 584.87,-319.67"/>
</g>
<!-- 15 -->
<g id="node16" class="node">
<title>15</title>
<path fill="none" stroke="#b6d856" stroke-width="2" d="M705.5,-180C705.5,-180 646.5,-180 646.5,-180 640.5,-180 634.5,-174 634.5,-168 634.5,-168 634.5,-156 634.5,-156 634.5,-150 640.5,-144 646.5,-144 646.5,-144 705.5,-144 705.5,-144 711.5,-144 717.5,-150 717.5,-156 717.5,-156 717.5,-168 717.5,-168 717.5,-174 711.5,-180 705.5,-180"/>
<text text-anchor="middle" x="676" y="-159.5" font-family="sans" font-size="10.00">push_meshes</text>
</g>
<!-- 2&#45;&gt;15 -->
<g id="edge29" class="edge">
<title>2&#45;&gt;15</title>
<path fill="none" stroke="grey" stroke-width="2" d="M763.74,-362.72C705.44,-348.04 623.26,-326.93 621,-324 589.28,-282.78 627.21,-222.1 653.99,-188.23"/>
<polygon fill="grey" stroke="grey" stroke-width="2" points="656.91,-190.18 660.51,-180.22 651.48,-185.77 656.91,-190.18"/>
</g>
<!-- 17 -->
<g id="node18" class="node">
<title>17</title>
<path fill="none" stroke="#a7d856" stroke-width="2" d="M865.5,-324C865.5,-324 812.5,-324 812.5,-324 806.5,-324 800.5,-318 800.5,-312 800.5,-312 800.5,-300 800.5,-300 800.5,-294 806.5,-288 812.5,-288 812.5,-288 865.5,-288 865.5,-288 871.5,-288 877.5,-294 877.5,-300 877.5,-300 877.5,-312 877.5,-312 877.5,-318 871.5,-324 865.5,-324"/>
<text text-anchor="middle" x="839" y="-303.5" font-family="sans" font-size="10.00">push_masks</text>
</g>
<!-- 2&#45;&gt;17 -->
<g id="edge34" class="edge">
<title>2&#45;&gt;17</title>
<path fill="none" stroke="grey" stroke-width="2" d="M825.45,-359.7C827.45,-351.9 829.87,-342.51 832.1,-333.83"/>
<polygon fill="grey" stroke="grey" stroke-width="2" points="835.5,-334.66 834.6,-324.1 828.72,-332.92 835.5,-334.66"/>
</g>
<!-- 3 -->
<g id="node4" class="node">
<title>3</title>
<path fill="none" stroke="#d85e56" stroke-width="2" d="M1029,-540C1029,-540 909,-540 909,-540 903,-540 897,-534 897,-528 897,-528 897,-516 897,-516 897,-510 903,-504 909,-504 909,-504 1029,-504 1029,-504 1035,-504 1041,-510 1041,-516 1041,-516 1041,-528 1041,-528 1041,-534 1035,-540 1029,-540"/>
<text text-anchor="middle" x="969" y="-519.5" font-family="sans" font-size="10.00">split_barrel_ccfv3_l23split</text>
</g>
<!-- 3&#45;&gt;2 -->
<g id="edge11" class="edge">
<title>3&#45;&gt;2</title>
<path fill="none" stroke="grey" stroke-width="2" d="M896.8,-510.55C848.09,-501.86 790.04,-487.7 775,-468 759.76,-448.04 776.34,-422.29 793.7,-403.62"/>
<polygon fill="grey" stroke="grey" stroke-width="2" points="796.58,-405.68 801.09,-396.1 791.59,-400.78 796.58,-405.68"/>
</g>
<!-- 10 -->
<g id="node11" class="node">
<title>10</title>
<path fill="none" stroke="#c6d856" stroke-width="2" d="M903.5,-468C903.5,-468 796.5,-468 796.5,-468 790.5,-468 784.5,-462 784.5,-456 784.5,-456 784.5,-444 784.5,-444 784.5,-438 790.5,-432 796.5,-432 796.5,-432 903.5,-432 903.5,-432 909.5,-432 915.5,-438 915.5,-444 915.5,-444 915.5,-456 915.5,-456 915.5,-462 909.5,-468 903.5,-468"/>
<text text-anchor="middle" x="850" y="-447.5" font-family="sans" font-size="10.00">validate_annotation_v3</text>
</g>
<!-- 3&#45;&gt;10 -->
<g id="edge21" class="edge">
<title>3&#45;&gt;10</title>
<path fill="none" stroke="grey" stroke-width="2" d="M939.89,-503.88C924.33,-494.72 904.98,-483.34 888.22,-473.48"/>
<polygon fill="grey" stroke="grey" stroke-width="2" points="889.62,-470.24 879.22,-468.19 886.07,-476.28 889.62,-470.24"/>
</g>
<!-- 12 -->
<g id="node13" class="node">
<title>12</title>
<path fill="none" stroke="#97d856" stroke-width="2" d="M238,-396C238,-396 164,-396 164,-396 158,-396 152,-390 152,-384 152,-384 152,-372 152,-372 152,-366 158,-360 164,-360 164,-360 238,-360 238,-360 244,-360 250,-366 250,-372 250,-372 250,-384 250,-384 250,-390 244,-396 238,-396"/>
<text text-anchor="middle" x="201" y="-375.5" font-family="sans" font-size="10.00">placement_hints</text>
</g>
<!-- 3&#45;&gt;12 -->
<g id="edge24" class="edge">
<title>3&#45;&gt;12</title>
<path fill="none" stroke="grey" stroke-width="2" d="M896.91,-511.01C769.79,-492.8 497.52,-451.16 260.11,-396.14"/>
<polygon fill="grey" stroke="grey" stroke-width="2" points="260.8,-392.7 250.26,-393.84 259.21,-399.52 260.8,-392.7"/>
</g>
<!-- 18 -->
<g id="node19" class="node">
<title>18</title>
<path fill="none" stroke="#d8ac56" stroke-width="2" d="M770,-324C770,-324 642,-324 642,-324 636,-324 630,-318 630,-312 630,-312 630,-300 630,-300 630,-294 636,-288 642,-288 642,-288 770,-288 770,-288 776,-288 782,-294 782,-300 782,-300 782,-312 782,-312 782,-318 776,-324 770,-324"/>
<text text-anchor="middle" x="706" y="-303.5" font-family="sans" font-size="10.00">push_neuron_glia_densities</text>
</g>
<!-- 3&#45;&gt;18 -->
<g id="edge36" class="edge">
<title>3&#45;&gt;18</title>
<path fill="none" stroke="grey" stroke-width="2" d="M965.09,-503.81C956.7,-470.86 933.79,-398.66 887,-360 871.87,-347.5 831.24,-335.09 792.3,-325.42"/>
<polygon fill="grey" stroke="grey" stroke-width="2" points="793,-321.99 782.45,-323.03 791.34,-328.79 793,-321.99"/>
</g>
<!-- 19 -->
<g id="node20" class="node">
<title>19</title>
<path fill="none" stroke="#56d8a9" stroke-width="2" d="M530,-396C530,-396 280,-396 280,-396 274,-396 268,-390 268,-384 268,-384 268,-372 268,-372 268,-366 274,-360 280,-360 280,-360 530,-360 530,-360 536,-360 542,-366 542,-372 542,-372 542,-384 542,-384 542,-390 536,-396 530,-396"/>
<text text-anchor="middle" x="405" y="-375.5" font-family="sans" font-size="10.00">transplant_neuron_glia_cell_densities_correctednissl</text>
</g>
<!-- 3&#45;&gt;19 -->
<g id="edge37" class="edge">
<title>3&#45;&gt;19</title>
<path fill="none" stroke="grey" stroke-width="2" d="M896.94,-506.04C857.62,-496.93 808.45,-483.95 766,-468 732.51,-455.41 727.93,-443.34 694,-432 648.93,-416.94 598.38,-405.82 552.32,-397.77"/>
<polygon fill="grey" stroke="grey" stroke-width="2" points="552.71,-394.28 542.26,-396.05 551.53,-401.18 552.71,-394.28"/>
</g>
<!-- 43 -->
<g id="node44" class="node">
<title>43</title>
<path fill="none" stroke="#5692d8" stroke-width="2" d="M1102,-324C1102,-324 946,-324 946,-324 940,-324 934,-318 934,-312 934,-312 934,-300 934,-300 934,-294 940,-288 946,-288 946,-288 1102,-288 1102,-288 1108,-288 1114,-294 1114,-300 1114,-300 1114,-312 1114,-312 1114,-318 1108,-324 1102,-324"/>
<text text-anchor="middle" x="1024" y="-303.5" font-family="sans" font-size="10.00">push_inhibitory_neuron_densities</text>
</g>
<!-- 3&#45;&gt;43 -->
<g id="edge78" class="edge">
<title>3&#45;&gt;43</title>
<path fill="none" stroke="grey" stroke-width="2" d="M971.42,-503.81C975.84,-474.07 986.26,-411.28 1002,-360 1004.69,-351.24 1008.29,-341.93 1011.79,-333.6"/>
<polygon fill="grey" stroke="grey" stroke-width="2" points="1015.03,-334.92 1015.81,-324.36 1008.61,-332.13 1015.03,-334.92"/>
</g>
<!-- 44 -->
<g id="node45" class="node">
<title>44</title>
<path fill="none" stroke="#56d8b1" stroke-width="2" d="M1317.5,-396C1317.5,-396 1022.5,-396 1022.5,-396 1016.5,-396 1010.5,-390 1010.5,-384 1010.5,-384 1010.5,-372 1010.5,-372 1010.5,-366 1016.5,-360 1022.5,-360 1022.5,-360 1317.5,-360 1317.5,-360 1323.5,-360 1329.5,-366 1329.5,-372 1329.5,-372 1329.5,-384 1329.5,-384 1329.5,-390 1323.5,-396 1317.5,-396"/>
<text text-anchor="middle" x="1170" y="-375.5" font-family="sans" font-size="10.00">transplant_inhibitory_neuron_densities_linprog_correctednissl</text>
</g>
<!-- 3&#45;&gt;44 -->
<g id="edge79" class="edge">
<title>3&#45;&gt;44</title>
<path fill="none" stroke="grey" stroke-width="2" d="M979.8,-503.81C992.9,-484.16 1016.66,-452.12 1044,-432 1062.07,-418.7 1083.97,-408 1104.42,-399.79"/>
<polygon fill="grey" stroke="grey" stroke-width="2" points="1105.94,-402.95 1114,-396.07 1103.41,-396.43 1105.94,-402.95"/>
</g>
<!-- 58 -->
<g id="node59" class="node">
<title>58</title>
<path fill="none" stroke="#80d856" stroke-width="2" d="M1570,-324C1570,-324 1420,-324 1420,-324 1414,-324 1408,-318 1408,-312 1408,-312 1408,-300 1408,-300 1408,-294 1414,-288 1420,-288 1420,-288 1570,-288 1570,-288 1576,-288 1582,-294 1582,-300 1582,-300 1582,-312 1582,-312 1582,-318 1576,-324 1570,-324"/>
<text text-anchor="middle" x="1495" y="-303.5" font-family="sans" font-size="10.00">push_metype_pipeline_datasets</text>
</g>
<!-- 3&#45;&gt;58 -->
<g id="edge112" class="edge">
<title>3&#45;&gt;58</title>
<path fill="none" stroke="grey" stroke-width="2" d="M1008.65,-503.84C1028.45,-494.48 1052.31,-481.96 1072,-468 1090.98,-454.54 1089.03,-442.07 1110,-432 1215.97,-381.14 1264.26,-442.97 1372,-396 1395.16,-385.9 1395.71,-375.06 1416,-360 1429.93,-349.67 1445.72,-338.89 1459.5,-329.78"/>
<polygon fill="grey" stroke="grey" stroke-width="2" points="1461.79,-332.47 1468.23,-324.05 1457.95,-326.61 1461.79,-332.47"/>
</g>
<!-- 59 -->
<g id="node60" class="node">
<title>59</title>
<path fill="none" stroke="#d85656" stroke-width="2" d="M1559.5,-396C1559.5,-396 1436.5,-396 1436.5,-396 1430.5,-396 1424.5,-390 1424.5,-384 1424.5,-384 1424.5,-372 1424.5,-372 1424.5,-366 1430.5,-360 1436.5,-360 1436.5,-360 1559.5,-360 1559.5,-360 1565.5,-360 1571.5,-366 1571.5,-372 1571.5,-372 1571.5,-384 1571.5,-384 1571.5,-390 1565.5,-396 1559.5,-396"/>
<text text-anchor="middle" x="1498" y="-375.5" font-family="sans" font-size="10.00">transplant_excitatory_split</text>
</g>
<!-- 3&#45;&gt;59 -->
<g id="edge113" class="edge">
<title>3&#45;&gt;59</title>
<path fill="none" stroke="grey" stroke-width="2" d="M1015.85,-503.88C1043.36,-493.71 1078.77,-480.4 1110,-468 1148.51,-452.71 1156.2,-443.51 1196,-432 1288.65,-405.2 1315.09,-413.15 1410,-396 1411.29,-395.77 1412.59,-395.53 1413.91,-395.29"/>
<polygon fill="grey" stroke="grey" stroke-width="2" points="1414.88,-398.67 1424.08,-393.41 1413.61,-391.79 1414.88,-398.67"/>
</g>
<!-- 71 -->
<g id="node72" class="node">
<title>71</title>
<path fill="none" stroke="#56d892" stroke-width="2" d="M1848.5,-396C1848.5,-396 1601.5,-396 1601.5,-396 1595.5,-396 1589.5,-390 1589.5,-384 1589.5,-384 1589.5,-372 1589.5,-372 1589.5,-366 1595.5,-360 1601.5,-360 1601.5,-360 1848.5,-360 1848.5,-360 1854.5,-360 1860.5,-366 1860.5,-372 1860.5,-372 1860.5,-384 1860.5,-384 1860.5,-390 1854.5,-396 1848.5,-396"/>
<text text-anchor="middle" x="1725" y="-375.5" font-family="sans" font-size="10.00">transplant_mtypes_densities_from_probability_map</text>
</g>
<!-- 3&#45;&gt;71 -->
<g id="edge136" class="edge">
<title>3&#45;&gt;71</title>
<path fill="none" stroke="grey" stroke-width="2" d="M1041.15,-507.45C1176.67,-481.99 1469.53,-426.99 1624.35,-397.9"/>
<polygon fill="grey" stroke="grey" stroke-width="2" points="1625.16,-401.31 1634.35,-396.03 1623.87,-394.43 1625.16,-401.31"/>
</g>
<!-- 72 -->
<g id="node73" class="node">
<title>72</title>
<path fill="none" stroke="#56d8a2" stroke-width="2" d="M1426,-108C1426,-108 1328,-108 1328,-108 1322,-108 1316,-102 1316,-96 1316,-96 1316,-84 1316,-84 1316,-78 1322,-72 1328,-72 1328,-72 1426,-72 1426,-72 1432,-72 1438,-78 1438,-84 1438,-84 1438,-96 1438,-96 1438,-102 1432,-108 1426,-108"/>
<text text-anchor="middle" x="1377" y="-87.5" font-family="sans" font-size="10.00">push_cellcomposition</text>
</g>
<!-- 3&#45;&gt;72 -->
<g id="edge140" class="edge">
<title>3&#45;&gt;72</title>
<path fill="none" stroke="grey" stroke-width="2" d="M993.83,-503.88C1007.62,-493.97 1024.8,-480.93 1039,-468 1055.05,-453.39 1052.76,-442.05 1072,-432 1178.13,-376.55 1251.16,-477.38 1339,-396 1368.67,-368.51 1358,-347.45 1358,-307 1358,-307 1358,-307 1358,-233 1358,-192.86 1365.55,-146.9 1371.13,-118.4"/>
<polygon fill="grey" stroke="grey" stroke-width="2" points="1374.61,-118.88 1373.16,-108.39 1367.74,-117.5 1374.61,-118.88"/>
</g>
<!-- 74 -->
<g id="node75" class="node">
<title>74</title>
<path fill="none" stroke="#70d856" stroke-width="2" d="M1635.5,-180C1635.5,-180 1436.5,-180 1436.5,-180 1430.5,-180 1424.5,-174 1424.5,-168 1424.5,-168 1424.5,-156 1424.5,-156 1424.5,-150 1430.5,-144 1436.5,-144 1436.5,-144 1635.5,-144 1635.5,-144 1641.5,-144 1647.5,-150 1647.5,-156 1647.5,-156 1647.5,-168 1647.5,-168 1647.5,-174 1641.5,-180 1635.5,-180"/>
<text text-anchor="middle" x="1536" y="-159.5" font-family="sans" font-size="10.00">create_cellCompositionSummary_payload</text>
</g>
<!-- 3&#45;&gt;74 -->
<g id="edge144" class="edge">
<title>3&#45;&gt;74</title>
<path fill="none" stroke="grey" stroke-width="2" d="M1041.19,-517.45C1258.07,-505.83 1889,-464.66 1889,-379 1889,-379 1889,-379 1889,-305 1889,-249.65 1737.71,-205.91 1633.22,-182.3"/>
<polygon fill="grey" stroke="grey" stroke-width="2" points="1633.78,-178.84 1623.26,-180.08 1632.26,-185.68 1633.78,-178.84"/>
</g>
<!-- 4 -->
<g id="node5" class="node">
<title>4</title>
<path fill="none" stroke="#d8d356" stroke-width="2" d="M912.5,-612C912.5,-612 685.5,-612 685.5,-612 679.5,-612 673.5,-606 673.5,-600 673.5,-600 673.5,-588 673.5,-588 673.5,-582 679.5,-576 685.5,-576 685.5,-576 912.5,-576 912.5,-576 918.5,-576 924.5,-582 924.5,-588 924.5,-588 924.5,-600 924.5,-600 924.5,-606 918.5,-612 912.5,-612"/>
<text text-anchor="middle" x="799" y="-591.5" font-family="sans" font-size="10.00">create_leaves_only_hierarchy_annotation_ccfv3</text>
</g>
<!-- 4&#45;&gt;3 -->
<g id="edge13" class="edge">
<title>4&#45;&gt;3</title>
<path fill="none" stroke="grey" stroke-width="2" d="M840.59,-575.88C864.03,-566.22 893.5,-554.09 918.3,-543.88"/>
<polygon fill="grey" stroke="grey" stroke-width="2" points="919.63,-547.11 927.55,-540.07 916.97,-540.64 919.63,-547.11"/>
</g>
<!-- 5 -->
<g id="node6" class="node">
<title>5</title>
<path fill="none" stroke="#8fd856" stroke-width="2" d="M851.5,-684C851.5,-684 708.5,-684 708.5,-684 702.5,-684 696.5,-678 696.5,-672 696.5,-672 696.5,-660 696.5,-660 696.5,-654 702.5,-648 708.5,-648 708.5,-648 851.5,-648 851.5,-648 857.5,-648 863.5,-654 863.5,-660 863.5,-660 863.5,-672 863.5,-672 863.5,-678 857.5,-684 851.5,-684"/>
<text text-anchor="middle" x="780" y="-663.5" font-family="sans" font-size="10.00">split_isocortex_layer_23_ccfv3</text>
</g>
<!-- 5&#45;&gt;4 -->
<g id="edge15" class="edge">
<title>5&#45;&gt;4</title>
<path fill="none" stroke="grey" stroke-width="2" d="M784.7,-647.7C786.81,-639.9 789.36,-630.51 791.72,-621.83"/>
<polygon fill="grey" stroke="grey" stroke-width="2" points="795.12,-622.67 794.36,-612.1 788.36,-620.84 795.12,-622.67"/>
</g>
<!-- 6 -->
<g id="node7" class="node">
<title>6</title>
<path fill="none" stroke="#56d89a" stroke-width="2" d="M772,-1692C772,-1692 618,-1692 618,-1692 612,-1692 606,-1686 606,-1680 606,-1680 606,-1668 606,-1668 606,-1662 612,-1656 618,-1656 618,-1656 772,-1656 772,-1656 778,-1656 784,-1662 784,-1668 784,-1668 784,-1680 784,-1680 784,-1686 778,-1692 772,-1692"/>
<text text-anchor="middle" x="695" y="-1671.5" font-family="sans" font-size="10.00">fetch_ccf_brain_region_hierarchy</text>
</g>
<!-- 6&#45;&gt;5 -->
<g id="edge16" class="edge">
<title>6&#45;&gt;5</title>
<path fill="none" stroke="grey" stroke-width="2" d="M662.78,-1655.87C624.57,-1632.95 566,-1588.45 566,-1531 566,-1531 566,-1531 566,-809 566,-744.06 635.26,-707.05 694.98,-687.21"/>
<polygon fill="grey" stroke="grey" stroke-width="2" points="696.39,-690.43 704.85,-684.05 694.26,-683.77 696.39,-690.43"/>
</g>
<!-- 8 -->
<g id="node9" class="node">
<title>8</title>
<path fill="none" stroke="#56d0d8" stroke-width="2" d="M840,-756C840,-756 682,-756 682,-756 676,-756 670,-750 670,-744 670,-744 670,-732 670,-732 670,-726 676,-720 682,-720 682,-720 840,-720 840,-720 846,-720 852,-726 852,-732 852,-732 852,-744 852,-744 852,-750 846,-756 840,-756"/>
<text text-anchor="middle" x="761" y="-735.5" font-family="sans" font-size="10.00">direction_vectors_isocortex_ccfv3</text>
</g>
<!-- 6&#45;&gt;8 -->
<g id="edge20" class="edge">
<title>6&#45;&gt;8</title>
<path fill="none" stroke="grey" stroke-width="2" d="M691.16,-1655.61C685.6,-1628.94 676,-1576.27 676,-1531 676,-1531 676,-1531 676,-881 676,-834.45 710.04,-789.95 735.04,-763.55"/>
<polygon fill="grey" stroke="grey" stroke-width="2" points="737.66,-765.87 742.14,-756.27 732.65,-760.98 737.66,-765.87"/>
</g>
<!-- 13 -->
<g id="node14" class="node">
<title>13</title>
<path fill="none" stroke="#56a2d8" stroke-width="2" d="M286,-468C286,-468 116,-468 116,-468 110,-468 104,-462 104,-456 104,-456 104,-444 104,-444 104,-438 110,-432 116,-432 116,-432 286,-432 286,-432 292,-432 298,-438 298,-444 298,-444 298,-456 298,-456 298,-462 292,-468 286,-468"/>
<text text-anchor="middle" x="201" y="-447.5" font-family="sans" font-size="10.00">direction_vectors_placeholder_ccfv3</text>
</g>
<!-- 6&#45;&gt;13 -->
<g id="edge26" class="edge">
<title>6&#45;&gt;13</title>
<path fill="none" stroke="grey" stroke-width="2" d="M605.7,-1671.41C507.97,-1664.36 365,-1636.09 365,-1531 365,-1531 365,-1531 365,-593 365,-534.39 304.39,-494.56 256.87,-472.34"/>
<polygon fill="grey" stroke="grey" stroke-width="2" points="258.11,-469.06 247.56,-468.13 255.23,-475.44 258.11,-469.06"/>
</g>
<!-- 23 -->
<g id="node24" class="node">
<title>23</title>
<path fill="none" stroke="#97d856" stroke-width="2" d="M1182.5,-1476C1182.5,-1476 1039.5,-1476 1039.5,-1476 1033.5,-1476 1027.5,-1470 1027.5,-1464 1027.5,-1464 1027.5,-1452 1027.5,-1452 1027.5,-1446 1033.5,-1440 1039.5,-1440 1039.5,-1440 1182.5,-1440 1182.5,-1440 1188.5,-1440 1194.5,-1446 1194.5,-1452 1194.5,-1452 1194.5,-1464 1194.5,-1464 1194.5,-1470 1188.5,-1476 1182.5,-1476"/>
<text text-anchor="middle" x="1111" y="-1455.5" font-family="sans" font-size="10.00">split_isocortex_layer_23_ccfv2</text>
</g>
<!-- 6&#45;&gt;23 -->
<g id="edge45" class="edge">
<title>6&#45;&gt;23</title>
<path fill="none" stroke="grey" stroke-width="2" d="M698.29,-1655.74C702.88,-1636.02 712.99,-1603.91 733,-1584 809.16,-1508.22 932.18,-1478.38 1017.09,-1466.63"/>
<polygon fill="grey" stroke="grey" stroke-width="2" points="1017.79,-1470.07 1027.25,-1465.29 1016.87,-1463.13 1017.79,-1470.07"/>
</g>
<!-- 27 -->
<g id="node28" class="node">
<title>27</title>
<path fill="none" stroke="#d87556" stroke-width="2" d="M1141.5,-1548C1141.5,-1548 924.5,-1548 924.5,-1548 918.5,-1548 912.5,-1542 912.5,-1536 912.5,-1536 912.5,-1524 912.5,-1524 912.5,-1518 918.5,-1512 924.5,-1512 924.5,-1512 1141.5,-1512 1141.5,-1512 1147.5,-1512 1153.5,-1518 1153.5,-1524 1153.5,-1524 1153.5,-1536 1153.5,-1536 1153.5,-1542 1147.5,-1548 1141.5,-1548"/>
<text text-anchor="middle" x="1033" y="-1527.5" font-family="sans" font-size="10.00">interpolate_direction_vectors_isocortex_ccfv2</text>
</g>
<!-- 6&#45;&gt;27 -->
<g id="edge51" class="edge">
<title>6&#45;&gt;27</title>
<path fill="none" stroke="grey" stroke-width="2" d="M784.27,-1659.29C820.23,-1651.28 861.12,-1638.89 895,-1620 915.32,-1608.67 914.1,-1597.57 933,-1584 949.29,-1572.3 968.5,-1561.5 985.69,-1552.75"/>
<polygon fill="grey" stroke="grey" stroke-width="2" points="987.62,-1555.69 995.01,-1548.1 984.5,-1549.43 987.62,-1555.69"/>
</g>
<!-- 28 -->
<g id="node29" class="node">
<title>28</title>
<path fill="none" stroke="#d8bc56" stroke-width="2" d="M1112,-1620C1112,-1620 954,-1620 954,-1620 948,-1620 942,-1614 942,-1608 942,-1608 942,-1596 942,-1596 942,-1590 948,-1584 954,-1584 954,-1584 1112,-1584 1112,-1584 1118,-1584 1124,-1590 1124,-1596 1124,-1596 1124,-1608 1124,-1608 1124,-1614 1118,-1620 1112,-1620"/>
<text text-anchor="middle" x="1033" y="-1599.5" font-family="sans" font-size="10.00">direction_vectors_isocortex_ccfv2</text>
</g>
<!-- 6&#45;&gt;28 -->
<g id="edge55" class="edge">
<title>6&#45;&gt;28</title>
<path fill="none" stroke="grey" stroke-width="2" d="M777.25,-1655.97C826.62,-1645.74 889.55,-1632.71 940.62,-1622.13"/>
<polygon fill="grey" stroke="grey" stroke-width="2" points="941.59,-1625.51 950.67,-1620.05 940.17,-1618.65 941.59,-1625.51"/>
</g>
<!-- 7 -->
<g id="node8" class="node">
<title>7</title>
<path fill="none" stroke="#d8c356" stroke-width="2" d="M916,-828C916,-828 774,-828 774,-828 768,-828 762,-822 762,-816 762,-816 762,-804 762,-804 762,-798 768,-792 774,-792 774,-792 916,-792 916,-792 922,-792 928,-798 928,-804 928,-804 928,-816 928,-816 928,-822 922,-828 916,-828"/>
<text text-anchor="middle" x="845" y="-807.5" font-family="sans" font-size="10.00">fetch_brain_parcellation_ccfv3</text>
</g>
<!-- 7&#45;&gt;5 -->
<g id="edge17" class="edge">
<title>7&#45;&gt;5</title>
<path fill="none" stroke="grey" stroke-width="2" d="M854.3,-791.89C863.11,-773.17 873.32,-742.79 861,-720 854.18,-707.39 842.91,-697.3 830.92,-689.45"/>
<polygon fill="grey" stroke="grey" stroke-width="2" points="832.48,-686.3 822.11,-684.13 828.86,-692.29 832.48,-686.3"/>
</g>
<!-- 7&#45;&gt;8 -->
<g id="edge19" class="edge">
<title>7&#45;&gt;8</title>
<path fill="none" stroke="grey" stroke-width="2" d="M824.24,-791.7C813.76,-782.97 800.89,-772.24 789.5,-762.75"/>
<polygon fill="grey" stroke="grey" stroke-width="2" points="791.45,-759.82 781.53,-756.1 786.97,-765.19 791.45,-759.82"/>
</g>
<!-- 7&#45;&gt;13 -->
<g id="edge27" class="edge">
<title>7&#45;&gt;13</title>
<path fill="none" stroke="grey" stroke-width="2" d="M859.33,-791.57C866.45,-781.76 874.31,-768.92 878,-756 884.41,-733.59 875.53,-651.86 872,-648 808.65,-578.8 754.5,-636.74 664,-612 533.34,-576.29 507.33,-547.36 379,-504 344.12,-492.22 304.94,-480.4 272.24,-470.92"/>
<polygon fill="grey" stroke="grey" stroke-width="2" points="272.89,-467.47 262.31,-468.06 270.95,-474.19 272.89,-467.47"/>
</g>
<!-- 8&#45;&gt;5 -->
<g id="edge18" class="edge">
<title>8&#45;&gt;5</title>
<path fill="none" stroke="grey" stroke-width="2" d="M765.7,-719.7C767.81,-711.9 770.36,-702.51 772.72,-693.83"/>
<polygon fill="grey" stroke="grey" stroke-width="2" points="776.12,-694.67 775.36,-684.1 769.36,-692.84 776.12,-694.67"/>
</g>
<!-- 9 -->
<g id="node10" class="node">
<title>9</title>
<path fill="none" stroke="#56d8a2" stroke-width="2" d="M1131.5,-1404C1131.5,-1404 1030.5,-1404 1030.5,-1404 1024.5,-1404 1018.5,-1398 1018.5,-1392 1018.5,-1392 1018.5,-1380 1018.5,-1380 1018.5,-1374 1024.5,-1368 1030.5,-1368 1030.5,-1368 1131.5,-1368 1131.5,-1368 1137.5,-1368 1143.5,-1374 1143.5,-1380 1143.5,-1380 1143.5,-1392 1143.5,-1392 1143.5,-1398 1137.5,-1404 1131.5,-1404"/>
<text text-anchor="middle" x="1081" y="-1383.5" font-family="sans" font-size="10.00">fetch_barrel_positions</text>
</g>
<!-- 9&#45;&gt;3 -->
<g id="edge14" class="edge">
<title>9&#45;&gt;3</title>
<path fill="none" stroke="grey" stroke-width="2" d="M1050.1,-1367.82C1013.09,-1344.69 956,-1299.82 956,-1243 956,-1243 956,-1243 956,-665 956,-624.83 961.22,-578.53 965.05,-550.01"/>
<polygon fill="grey" stroke="grey" stroke-width="2" points="968.53,-550.39 966.43,-540 961.6,-549.43 968.53,-550.39"/>
</g>
<!-- 21 -->
<g id="node22" class="node">
<title>21</title>
<path fill="none" stroke="#56c9d8" stroke-width="2" d="M1519,-1332C1519,-1332 1399,-1332 1399,-1332 1393,-1332 1387,-1326 1387,-1320 1387,-1320 1387,-1308 1387,-1308 1387,-1302 1393,-1296 1399,-1296 1399,-1296 1519,-1296 1519,-1296 1525,-1296 1531,-1302 1531,-1308 1531,-1308 1531,-1320 1531,-1320 1531,-1326 1525,-1332 1519,-1332"/>
<text text-anchor="middle" x="1459" y="-1311.5" font-family="sans" font-size="10.00">split_barrel_ccfv2_l23split</text>
</g>
<!-- 9&#45;&gt;21 -->
<g id="edge43" class="edge">
<title>9&#45;&gt;21</title>
<path fill="none" stroke="grey" stroke-width="2" d="M1143.84,-1373.36C1207.67,-1361.54 1306.83,-1343.18 1376.85,-1330.21"/>
<polygon fill="grey" stroke="grey" stroke-width="2" points="1377.77,-1333.6 1386.96,-1328.34 1376.49,-1326.72 1377.77,-1333.6"/>
</g>
<!-- 10&#45;&gt;1 -->
<g id="edge6" class="edge">
<title>10&#45;&gt;1</title>
<path fill="none" stroke="grey" stroke-width="2" d="M814.95,-431.99C796.47,-422.4 773.81,-409.63 755,-396 735.9,-382.16 736.65,-371.39 716,-360 709.98,-356.68 638.87,-337.91 583.8,-323.64"/>
<polygon fill="grey" stroke="grey" stroke-width="2" points="584.62,-320.24 574.07,-321.12 582.87,-327.02 584.62,-320.24"/>
</g>
<!-- 10&#45;&gt;2 -->
<g id="edge12" class="edge">
<title>10&#45;&gt;2</title>
<path fill="none" stroke="grey" stroke-width="2" d="M842.83,-431.7C839.57,-423.81 835.63,-414.3 832,-405.55"/>
<polygon fill="grey" stroke="grey" stroke-width="2" points="835.15,-404 828.09,-396.1 828.68,-406.68 835.15,-404"/>
</g>
<!-- 11 -->
<g id="node12" class="node">
<title>11</title>
<path fill="none" stroke="#d6d856" stroke-width="2" d="M695.5,-396C695.5,-396 572.5,-396 572.5,-396 566.5,-396 560.5,-390 560.5,-384 560.5,-384 560.5,-372 560.5,-372 560.5,-366 566.5,-360 572.5,-360 572.5,-360 695.5,-360 695.5,-360 701.5,-360 707.5,-366 707.5,-372 707.5,-372 707.5,-384 707.5,-384 707.5,-390 701.5,-396 695.5,-396"/>
<text text-anchor="middle" x="634" y="-375.5" font-family="sans" font-size="10.00">create_hemispheres_ccfv3</text>
</g>
<!-- 10&#45;&gt;11 -->
<g id="edge22" class="edge">
<title>10&#45;&gt;11</title>
<path fill="none" stroke="grey" stroke-width="2" d="M797.44,-431.97C766.99,-422.1 728.49,-409.62 696.5,-399.25"/>
<polygon fill="grey" stroke="grey" stroke-width="2" points="697.39,-395.86 686.8,-396.11 695.23,-402.52 697.39,-395.86"/>
</g>
<!-- 10&#45;&gt;12 -->
<g id="edge23" class="edge">
<title>10&#45;&gt;12</title>
<path fill="none" stroke="grey" stroke-width="2" d="M784.38,-441.47C756.53,-438.37 723.7,-434.85 694,-432 504.19,-413.81 451.52,-430.86 260.3,-396.02"/>
<polygon fill="grey" stroke="grey" stroke-width="2" points="260.67,-392.53 250.2,-394.16 259.39,-399.41 260.67,-392.53"/>
</g>
<!-- 10&#45;&gt;19 -->
<g id="edge39" class="edge">
<title>10&#45;&gt;19</title>
<path fill="none" stroke="grey" stroke-width="2" d="M784.34,-438.67C715.8,-427.89 606.88,-410.76 523.29,-397.61"/>
<polygon fill="grey" stroke="grey" stroke-width="2" points="523.65,-394.12 513.23,-396.02 522.56,-401.04 523.65,-394.12"/>
</g>
<!-- 10&#45;&gt;44 -->
<g id="edge81" class="edge">
<title>10&#45;&gt;44</title>
<path fill="none" stroke="grey" stroke-width="2" d="M915.53,-434.67C963.63,-424.14 1029.47,-409.74 1082.13,-398.22"/>
<polygon fill="grey" stroke="grey" stroke-width="2" points="1083.12,-401.59 1092.14,-396.03 1081.62,-394.75 1083.12,-401.59"/>
</g>
<!-- 10&#45;&gt;59 -->
<g id="edge115" class="edge">
<title>10&#45;&gt;59</title>
<path fill="none" stroke="grey" stroke-width="2" d="M915.7,-441.9C1034.31,-429.09 1284,-402.12 1414.51,-388.02"/>
<polygon fill="grey" stroke="grey" stroke-width="2" points="1414.9,-391.5 1424.47,-386.94 1414.15,-384.54 1414.9,-391.5"/>
</g>
<!-- 10&#45;&gt;71 -->
<g id="edge138" class="edge">
<title>10&#45;&gt;71</title>
<path fill="none" stroke="grey" stroke-width="2" d="M915.61,-445.24C1041.99,-437.78 1328.22,-419.82 1579.31,-396.14"/>
<polygon fill="grey" stroke="grey" stroke-width="2" points="1579.72,-399.62 1589.35,-395.19 1579.06,-392.65 1579.72,-399.62"/>
</g>
<!-- 10&#45;&gt;74 -->
<g id="edge145" class="edge">
<title>10&#45;&gt;74</title>
<path fill="none" stroke="grey" stroke-width="2" d="M863.94,-431.61C871.48,-421.62 880.55,-408.58 887,-396 910.22,-350.72 886.65,-321.44 925,-288 996.62,-225.55 1257.25,-189.97 1414.05,-173.78"/>
<polygon fill="grey" stroke="grey" stroke-width="2" points="1414.63,-177.24 1424.22,-172.74 1413.92,-170.27 1414.63,-177.24"/>
</g>
<!-- 11&#45;&gt;1 -->
<g id="edge7" class="edge">
<title>11&#45;&gt;1</title>
<path fill="none" stroke="grey" stroke-width="2" d="M605.87,-359.88C590.83,-350.72 572.13,-339.34 555.94,-329.48"/>
<polygon fill="grey" stroke="grey" stroke-width="2" points="557.6,-326.4 547.24,-324.19 553.96,-332.38 557.6,-326.4"/>
</g>
<!-- 12&#45;&gt;1 -->
<g id="edge8" class="edge">
<title>12&#45;&gt;1</title>
<path fill="none" stroke="grey" stroke-width="2" d="M250.28,-362.25C253.23,-361.46 256.15,-360.71 259,-360 324.95,-343.64 401.21,-328.54 454.01,-318.68"/>
<polygon fill="grey" stroke="grey" stroke-width="2" points="454.73,-322.11 463.92,-316.84 453.45,-315.22 454.73,-322.11"/>
</g>
<!-- 13&#45;&gt;1 -->
<g id="edge9" class="edge">
<title>13&#45;&gt;1</title>
<path fill="none" stroke="grey" stroke-width="2" d="M176.66,-431.97C152.9,-413.3 123.04,-382.97 143,-360 182.48,-314.57 356.93,-306.98 453.73,-306.37"/>
<polygon fill="grey" stroke="grey" stroke-width="2" points="454,-309.87 463.99,-306.33 453.97,-302.87 454,-309.87"/>
</g>
<!-- 13&#45;&gt;12 -->
<g id="edge25" class="edge">
<title>13&#45;&gt;12</title>
<path fill="none" stroke="grey" stroke-width="2" d="M201,-431.7C201,-423.98 201,-414.71 201,-406.11"/>
<polygon fill="grey" stroke="grey" stroke-width="2" points="204.5,-406.1 201,-396.1 197.5,-406.1 204.5,-406.1"/>
</g>
<!-- 14 -->
<g id="node15" class="node">
<title>14</title>
<path fill="none" stroke="#56b9d8" stroke-width="2" d="M84,-396C84,-396 12,-396 12,-396 6,-396 0,-390 0,-384 0,-384 0,-372 0,-372 0,-366 6,-360 12,-360 12,-360 84,-360 84,-360 90,-360 96,-366 96,-372 96,-372 96,-384 96,-384 96,-390 90,-396 84,-396"/>
<text text-anchor="middle" x="48" y="-375.5" font-family="sans" font-size="10.00">orientation_field</text>
</g>
<!-- 13&#45;&gt;14 -->
<g id="edge28" class="edge">
<title>13&#45;&gt;14</title>
<path fill="none" stroke="grey" stroke-width="2" d="M163.57,-431.88C142.75,-422.35 116.65,-410.41 94.52,-400.28"/>
<polygon fill="grey" stroke="grey" stroke-width="2" points="95.86,-397.05 85.31,-396.07 92.94,-403.41 95.86,-397.05"/>
</g>
<!-- 14&#45;&gt;1 -->
<g id="edge10" class="edge">
<title>14&#45;&gt;1</title>
<path fill="none" stroke="grey" stroke-width="2" d="M96.25,-363.08C100.87,-361.95 105.51,-360.9 110,-360 230.16,-335.86 372.5,-320.31 453.63,-312.65"/>
<polygon fill="grey" stroke="grey" stroke-width="2" points="454.06,-316.12 463.69,-311.71 453.41,-309.15 454.06,-316.12"/>
</g>
<!-- 15&#45;&gt;0 -->
<g id="edge2" class="edge">
<title>15&#45;&gt;0</title>
<path fill="none" stroke="grey" stroke-width="2" d="M687.58,-143.87C704.3,-119.14 735.33,-73.24 754.75,-44.51"/>
<polygon fill="grey" stroke="grey" stroke-width="2" points="757.68,-46.43 760.38,-36.19 751.88,-42.51 757.68,-46.43"/>
</g>
<!-- 16 -->
<g id="node17" class="node">
<title>16</title>
<path fill="none" stroke="#567bd8" stroke-width="2" d="M865.5,-252C865.5,-252 744.5,-252 744.5,-252 738.5,-252 732.5,-246 732.5,-240 732.5,-240 732.5,-228 732.5,-228 732.5,-222 738.5,-216 744.5,-216 744.5,-216 865.5,-216 865.5,-216 871.5,-216 877.5,-222 877.5,-228 877.5,-228 877.5,-240 877.5,-240 877.5,-246 871.5,-252 865.5,-252"/>
<text text-anchor="middle" x="805" y="-231.5" font-family="sans" font-size="10.00">push_volumetric_datasets</text>
</g>
<!-- 16&#45;&gt;0 -->
<g id="edge3" class="edge">
<title>16&#45;&gt;0</title>
<path fill="none" stroke="grey" stroke-width="2" d="M802.36,-215.85C796.65,-178.83 783.13,-91.18 776.22,-46.39"/>
<polygon fill="grey" stroke="grey" stroke-width="2" points="779.64,-45.58 774.66,-36.23 772.72,-46.65 779.64,-45.58"/>
</g>
<!-- 17&#45;&gt;16 -->
<g id="edge30" class="edge">
<title>17&#45;&gt;16</title>
<path fill="none" stroke="grey" stroke-width="2" d="M830.6,-287.7C826.73,-279.73 822.05,-270.1 817.76,-261.26"/>
<polygon fill="grey" stroke="grey" stroke-width="2" points="820.83,-259.57 813.31,-252.1 814.53,-262.63 820.83,-259.57"/>
</g>
<!-- 18&#45;&gt;16 -->
<g id="edge31" class="edge">
<title>18&#45;&gt;16</title>
<path fill="none" stroke="grey" stroke-width="2" d="M730.22,-287.88C742.92,-278.89 758.66,-267.76 772.42,-258.03"/>
<polygon fill="grey" stroke="grey" stroke-width="2" points="774.54,-260.82 780.69,-252.19 770.5,-255.11 774.54,-260.82"/>
</g>
<!-- 19&#45;&gt;18 -->
<g id="edge35" class="edge">
<title>19&#45;&gt;18</title>
<path fill="none" stroke="grey" stroke-width="2" d="M478.25,-359.97C521.94,-349.8 577.55,-336.87 622.88,-326.33"/>
<polygon fill="grey" stroke="grey" stroke-width="2" points="623.74,-329.72 632.68,-324.05 622.15,-322.91 623.74,-329.72"/>
</g>
<!-- 20 -->
<g id="node21" class="node">
<title>20</title>
<path fill="none" stroke="#56d8b9" stroke-width="2" d="M1465.5,-1260C1465.5,-1260 1358.5,-1260 1358.5,-1260 1352.5,-1260 1346.5,-1254 1346.5,-1248 1346.5,-1248 1346.5,-1236 1346.5,-1236 1346.5,-1230 1352.5,-1224 1358.5,-1224 1358.5,-1224 1465.5,-1224 1465.5,-1224 1471.5,-1224 1477.5,-1230 1477.5,-1236 1477.5,-1236 1477.5,-1248 1477.5,-1248 1477.5,-1254 1471.5,-1260 1465.5,-1260"/>
<text text-anchor="middle" x="1412" y="-1239.5" font-family="sans" font-size="10.00">validate_annotation_v2</text>
</g>
<!-- 20&#45;&gt;19 -->
<g id="edge38" class="edge">
<title>20&#45;&gt;19</title>
<path fill="none" stroke="grey" stroke-width="2" d="M1346.27,-1234.68C1271.01,-1226.52 1153.2,-1210.62 1115,-1188 1026.61,-1135.66 1046.58,-1076.47 970,-1008 804.27,-859.8 604,-889.33 604,-667 604,-667 604,-667 604,-521 604,-457.61 536.26,-419.85 479.83,-399.39"/>
<polygon fill="grey" stroke="grey" stroke-width="2" points="480.75,-396.01 470.16,-396.01 478.45,-402.62 480.75,-396.01"/>
</g>
<!-- 30 -->
<g id="node31" class="node">
<title>30</title>
<path fill="none" stroke="#68d856" stroke-width="2" d="M1871.5,-972C1871.5,-972 1704.5,-972 1704.5,-972 1698.5,-972 1692.5,-966 1692.5,-960 1692.5,-960 1692.5,-948 1692.5,-948 1692.5,-942 1698.5,-936 1704.5,-936 1704.5,-936 1871.5,-936 1871.5,-936 1877.5,-936 1883.5,-942 1883.5,-948 1883.5,-948 1883.5,-960 1883.5,-960 1883.5,-966 1877.5,-972 1871.5,-972"/>
<text text-anchor="middle" x="1788" y="-951.5" font-family="sans" font-size="10.00">validate_neuron_glia_cell_densities</text>
</g>
<!-- 20&#45;&gt;30 -->
<g id="edge56" class="edge">
<title>20&#45;&gt;30</title>
<path fill="none" stroke="grey" stroke-width="2" d="M1434.39,-1223.97C1498.64,-1175.1 1683.63,-1034.39 1757.25,-978.39"/>
<polygon fill="grey" stroke="grey" stroke-width="2" points="1759.41,-981.15 1765.25,-972.31 1755.17,-975.57 1759.41,-981.15"/>
</g>
<!-- 31 -->
<g id="node32" class="node">
<title>31</title>
<path fill="none" stroke="#568ad8" stroke-width="2" d="M2535,-1044C2535,-1044 2379,-1044 2379,-1044 2373,-1044 2367,-1038 2367,-1032 2367,-1032 2367,-1020 2367,-1020 2367,-1014 2373,-1008 2379,-1008 2379,-1008 2535,-1008 2535,-1008 2541,-1008 2547,-1014 2547,-1020 2547,-1020 2547,-1032 2547,-1032 2547,-1038 2541,-1044 2535,-1044"/>
<text text-anchor="middle" x="2457" y="-1023.5" font-family="sans" font-size="10.00">glia_cell_densities_correctednissl</text>
</g>
<!-- 20&#45;&gt;31 -->
<g id="edge59" class="edge">
<title>20&#45;&gt;31</title>
<path fill="none" stroke="grey" stroke-width="2" d="M1473.25,-1223.98C1607.06,-1186.97 1922.21,-1100.82 2031,-1080 2046.84,-1076.97 2236.1,-1053.8 2356.97,-1039.11"/>
<polygon fill="grey" stroke="grey" stroke-width="2" points="2357.49,-1042.57 2366.99,-1037.89 2356.64,-1035.63 2357.49,-1042.57"/>
</g>
<!-- 32 -->
<g id="node33" class="node">
<title>32</title>
<path fill="none" stroke="#56a9d8" stroke-width="2" d="M1800,-1116C1800,-1116 1704,-1116 1704,-1116 1698,-1116 1692,-1110 1692,-1104 1692,-1104 1692,-1092 1692,-1092 1692,-1086 1698,-1080 1704,-1080 1704,-1080 1800,-1080 1800,-1080 1806,-1080 1812,-1086 1812,-1092 1812,-1092 1812,-1104 1812,-1104 1812,-1110 1806,-1116 1800,-1116"/>
<text text-anchor="middle" x="1752" y="-1095.5" font-family="sans" font-size="10.00">validate_cell_density</text>
</g>
<!-- 20&#45;&gt;32 -->
<g id="edge63" class="edge">
<title>20&#45;&gt;32</title>
<path fill="none" stroke="grey" stroke-width="2" d="M1459.11,-1223.99C1485.07,-1214.21 1517.68,-1201.26 1546,-1188 1576.26,-1173.83 1581.64,-1165.95 1612,-1152 1637.97,-1140.07 1667.45,-1128.61 1692.65,-1119.42"/>
<polygon fill="grey" stroke="grey" stroke-width="2" points="1693.86,-1122.7 1702.08,-1116.01 1691.48,-1116.12 1693.86,-1122.7"/>
</g>
<!-- 33 -->
<g id="node34" class="node">
<title>33</title>
<path fill="none" stroke="#d87d56" stroke-width="2" d="M2042.5,-1188C2042.5,-1188 1917.5,-1188 1917.5,-1188 1911.5,-1188 1905.5,-1182 1905.5,-1176 1905.5,-1176 1905.5,-1164 1905.5,-1164 1905.5,-1158 1911.5,-1152 1917.5,-1152 1917.5,-1152 2042.5,-1152 2042.5,-1152 2048.5,-1152 2054.5,-1158 2054.5,-1164 2054.5,-1164 2054.5,-1176 2054.5,-1176 2054.5,-1182 2048.5,-1188 2042.5,-1188"/>
<text text-anchor="middle" x="1980" y="-1167.5" font-family="sans" font-size="10.00">cell_density_correctednissl</text>
</g>
<!-- 20&#45;&gt;33 -->
<g id="edge66" class="edge">
<title>20&#45;&gt;33</title>
<path fill="none" stroke="grey" stroke-width="2" d="M1477.78,-1231C1494.77,-1228.56 1513.05,-1226.06 1530,-1224 1690.5,-1204.47 1732.01,-1211.36 1892,-1188 1893.08,-1187.84 1894.16,-1187.68 1895.25,-1187.52"/>
<polygon fill="grey" stroke="grey" stroke-width="2" points="1895.86,-1190.96 1905.19,-1185.94 1894.76,-1184.05 1895.86,-1190.96"/>
</g>
<!-- 36 -->
<g id="node37" class="node">
<title>36</title>
<path fill="none" stroke="#5673d8" stroke-width="2" d="M2497,-1188C2497,-1188 2417,-1188 2417,-1188 2411,-1188 2405,-1182 2405,-1176 2405,-1176 2405,-1164 2405,-1164 2405,-1158 2411,-1152 2417,-1152 2417,-1152 2497,-1152 2497,-1152 2503,-1152 2509,-1158 2509,-1164 2509,-1164 2509,-1176 2509,-1176 2509,-1182 2503,-1188 2497,-1188"/>
<text text-anchor="middle" x="2457" y="-1167.5" font-family="sans" font-size="10.00">combine_markers</text>
</g>
<!-- 20&#45;&gt;36 -->
<g id="edge76" class="edge">
<title>20&#45;&gt;36</title>
<path fill="none" stroke="grey" stroke-width="2" d="M1477.77,-1232.89C1504.49,-1229.79 1535.69,-1226.42 1564,-1224 1875.3,-1197.37 2248.79,-1179.87 2394.5,-1173.59"/>
<polygon fill="grey" stroke="grey" stroke-width="2" points="2394.75,-1177.08 2404.59,-1173.16 2394.45,-1170.09 2394.75,-1177.08"/>
</g>
<!-- 20&#45;&gt;44 -->
<g id="edge80" class="edge">
<title>20&#45;&gt;44</title>
<path fill="none" stroke="grey" stroke-width="2" d="M1346.34,-1233.89C1280.47,-1225.64 1184.64,-1210.26 1155,-1188 1119.23,-1161.14 1108,-1143.73 1108,-1099 1108,-1099 1108,-1099 1108,-1025 1108,-889.32 1108.45,-855.1 1121,-720 1131.89,-602.79 1155,-464.25 1165.1,-406.46"/>
<polygon fill="grey" stroke="grey" stroke-width="2" points="1168.6,-406.77 1166.88,-396.32 1161.7,-405.56 1168.6,-406.77"/>
</g>
<!-- 45 -->
<g id="node46" class="node">
<title>45</title>
<path fill="none" stroke="#d89c56" stroke-width="2" d="M2197,-684C2197,-684 2063,-684 2063,-684 2057,-684 2051,-678 2051,-672 2051,-672 2051,-660 2051,-660 2051,-654 2057,-648 2063,-648 2063,-648 2197,-648 2197,-648 2203,-648 2209,-654 2209,-660 2209,-660 2209,-672 2209,-672 2209,-678 2203,-684 2197,-684"/>
<text text-anchor="middle" x="2130" y="-663.5" font-family="sans" font-size="10.00">validate_inhibitory_densities</text>
</g>
<!-- 20&#45;&gt;45 -->
<g id="edge83" class="edge">
<title>20&#45;&gt;45</title>
<path fill="none" stroke="grey" stroke-width="2" d="M1384.98,-1223.96C1351.27,-1200.37 1298,-1154.33 1298,-1099 1298,-1099 1298,-1099 1298,-953 1298,-868.05 1329.54,-837.92 1401,-792 1505.74,-724.69 1870.08,-687.63 2040.64,-673.61"/>
<polygon fill="grey" stroke="grey" stroke-width="2" points="2041.17,-677.08 2050.85,-672.78 2040.6,-670.11 2041.17,-677.08"/>
</g>
<!-- 46 -->
<g id="node47" class="node">
<title>46</title>
<path fill="none" stroke="#569ad8" stroke-width="2" d="M1926,-756C1926,-756 1686,-756 1686,-756 1680,-756 1674,-750 1674,-744 1674,-744 1674,-732 1674,-732 1674,-726 1680,-720 1686,-720 1686,-720 1926,-720 1926,-720 1932,-720 1938,-726 1938,-732 1938,-732 1938,-744 1938,-744 1938,-750 1932,-756 1926,-756"/>
<text text-anchor="middle" x="1806" y="-735.5" font-family="sans" font-size="10.00">inhibitory_neuron_densities_linprog_correctednissl</text>
</g>
<!-- 20&#45;&gt;46 -->
<g id="edge89" class="edge">
<title>20&#45;&gt;46</title>
<path fill="none" stroke="grey" stroke-width="2" d="M1395.51,-1223.77C1373.16,-1198.53 1336,-1149.05 1336,-1099 1336,-1099 1336,-1099 1336,-953 1336,-807.37 1525.22,-760.39 1663.54,-745.5"/>
<polygon fill="grey" stroke="grey" stroke-width="2" points="1664.24,-748.95 1673.83,-744.44 1663.52,-741.98 1664.24,-748.95"/>
</g>
<!-- 47 -->
<g id="node48" class="node">
<title>47</title>
<path fill="none" stroke="#d85e56" stroke-width="2" d="M1891,-828C1891,-828 1721,-828 1721,-828 1715,-828 1709,-822 1709,-816 1709,-816 1709,-804 1709,-804 1709,-798 1715,-792 1721,-792 1721,-792 1891,-792 1891,-792 1897,-792 1903,-798 1903,-804 1903,-804 1903,-816 1903,-816 1903,-822 1897,-828 1891,-828"/>
<text text-anchor="middle" x="1806" y="-807.5" font-family="sans" font-size="10.00">fit_average_densities_correctednissl</text>
</g>
<!-- 20&#45;&gt;47 -->
<g id="edge96" class="edge">
<title>20&#45;&gt;47</title>
<path fill="none" stroke="grey" stroke-width="2" d="M1412,-1223.95C1412,-1197.29 1412,-1144.11 1412,-1099 1412,-1099 1412,-1099 1412,-953 1412,-912.46 1402.21,-891.49 1432,-864 1469.88,-829.05 1602.24,-817.04 1698.78,-812.97"/>
<polygon fill="grey" stroke="grey" stroke-width="2" points="1699.04,-816.46 1708.89,-812.57 1698.76,-809.47 1699.04,-816.46"/>
</g>
<!-- 55 -->
<g id="node56" class="node">
<title>55</title>
<path fill="none" stroke="#56d85b" stroke-width="2" d="M1883.5,-900C1883.5,-900 1728.5,-900 1728.5,-900 1722.5,-900 1716.5,-894 1716.5,-888 1716.5,-888 1716.5,-876 1716.5,-876 1716.5,-870 1722.5,-864 1728.5,-864 1728.5,-864 1883.5,-864 1883.5,-864 1889.5,-864 1895.5,-870 1895.5,-876 1895.5,-876 1895.5,-888 1895.5,-888 1895.5,-894 1889.5,-900 1883.5,-900"/>
<text text-anchor="middle" x="1806" y="-879.5" font-family="sans" font-size="10.00">average_densities_correctednissl</text>
</g>
<!-- 20&#45;&gt;55 -->
<g id="edge106" class="edge">
<title>20&#45;&gt;55</title>
<path fill="none" stroke="grey" stroke-width="2" d="M1419.69,-1223.91C1430.79,-1197.62 1450,-1145.45 1450,-1099 1450,-1099 1450,-1099 1450,-1025 1450,-981.81 1454.89,-962.49 1489,-936 1564.39,-877.44 1607.88,-913.9 1706.27,-900.14"/>
<polygon fill="grey" stroke="grey" stroke-width="2" points="1706.94,-903.58 1716.28,-898.6 1705.87,-896.66 1706.94,-903.58"/>
</g>
<!-- 20&#45;&gt;59 -->
<g id="edge114" class="edge">
<title>20&#45;&gt;59</title>
<path fill="none" stroke="grey" stroke-width="2" d="M1346.33,-1237.75C1301.09,-1232.58 1241.68,-1219.69 1199,-1188 1162.04,-1160.55 1146,-1145.04 1146,-1099 1146,-1099 1146,-1099 1146,-1025 1146,-823.9 1072.31,-729.69 1202,-576 1272.1,-492.92 1385.81,-430.93 1449.97,-400.32"/>
<polygon fill="grey" stroke="grey" stroke-width="2" points="1451.52,-403.46 1459.07,-396.03 1448.53,-397.13 1451.52,-403.46"/>
</g>
<!-- 60 -->
<g id="node61" class="node">
<title>60</title>
<path fill="none" stroke="#56c1d8" stroke-width="2" d="M2048.5,-468C2048.5,-468 1929.5,-468 1929.5,-468 1923.5,-468 1917.5,-462 1917.5,-456 1917.5,-456 1917.5,-444 1917.5,-444 1917.5,-438 1923.5,-432 1929.5,-432 1929.5,-432 2048.5,-432 2048.5,-432 2054.5,-432 2060.5,-438 2060.5,-444 2060.5,-444 2060.5,-456 2060.5,-456 2060.5,-462 2054.5,-468 2048.5,-468"/>
<text text-anchor="middle" x="1989" y="-447.5" font-family="sans" font-size="10.00">validate_all_ME_densities</text>
</g>
<!-- 20&#45;&gt;60 -->
<g id="edge117" class="edge">
<title>20&#45;&gt;60</title>
<path fill="none" stroke="grey" stroke-width="2" d="M1346.36,-1229.17C1279,-1212.8 1184,-1176.06 1184,-1099 1184,-1099 1184,-1099 1184,-881 1184,-743.1 1135.08,-664.3 1241,-576 1291.81,-533.65 1723.74,-480.76 1907.16,-459.98"/>
<polygon fill="grey" stroke="grey" stroke-width="2" points="1907.75,-463.43 1917.29,-458.83 1906.96,-456.48 1907.75,-463.43"/>
</g>
<!-- 61 -->
<g id="node62" class="node">
<title>61</title>
<path fill="none" stroke="#566bd8" stroke-width="2" d="M2103,-540C2103,-540 1875,-540 1875,-540 1869,-540 1863,-534 1863,-528 1863,-528 1863,-516 1863,-516 1863,-510 1869,-504 1875,-504 1875,-504 2103,-504 2103,-504 2109,-504 2115,-510 2115,-516 2115,-516 2115,-528 2115,-528 2115,-534 2109,-540 2103,-540"/>
<text text-anchor="middle" x="1989" y="-519.5" font-family="sans" font-size="10.00">create_mtypes_densities_from_probability_map</text>
</g>
<!-- 20&#45;&gt;61 -->
<g id="edge122" class="edge">
<title>20&#45;&gt;61</title>
<path fill="none" stroke="grey" stroke-width="2" d="M1365.96,-1223.96C1347.02,-1215.31 1325.85,-1203.34 1310,-1188 1277.4,-1156.45 1260,-1144.37 1260,-1099 1260,-1099 1260,-1099 1260,-953 1260,-785.33 1157.64,-696.73 1274,-576 1313.21,-535.31 1656.56,-525.68 1852.84,-523.52"/>
<polygon fill="grey" stroke="grey" stroke-width="2" points="1852.98,-527.02 1862.94,-523.41 1852.91,-520.02 1852.98,-527.02"/>
</g>
<!-- 69 -->
<g id="node70" class="node">
<title>69</title>
<path fill="none" stroke="#d6d856" stroke-width="2" d="M2646,-612C2646,-612 2578,-612 2578,-612 2572,-612 2566,-606 2566,-600 2566,-600 2566,-588 2566,-588 2566,-582 2572,-576 2578,-576 2578,-576 2646,-576 2646,-576 2652,-576 2658,-582 2658,-588 2658,-588 2658,-600 2658,-600 2658,-606 2652,-612 2646,-612"/>
<text text-anchor="middle" x="2612" y="-591.5" font-family="sans" font-size="10.00">excitatory_split</text>
</g>
<!-- 20&#45;&gt;69 -->
<g id="edge133" class="edge">
<title>20&#45;&gt;69</title>
<path fill="none" stroke="grey" stroke-width="2" d="M1474.16,-1223.9C1585.46,-1193.5 1826.28,-1128.67 2031,-1080 2104.87,-1062.44 2123.85,-1060.33 2198,-1044 2269.18,-1028.32 2286.17,-1020.36 2358,-1008 2424.17,-996.62 2604.34,-1012.35 2658,-972 2749.7,-903.04 2789.48,-806.4 2714,-720 2662.04,-660.53 2589.86,-745.24 2540,-684 2529.9,-671.59 2532.78,-662.28 2540,-648 2546.14,-635.86 2556.52,-625.82 2567.51,-617.86"/>
<polygon fill="grey" stroke="grey" stroke-width="2" points="2569.62,-620.66 2575.97,-612.19 2565.72,-614.85 2569.62,-620.66"/>
</g>
<!-- 20&#45;&gt;71 -->
<g id="edge137" class="edge">
<title>20&#45;&gt;71</title>
<path fill="none" stroke="grey" stroke-width="2" d="M1477.82,-1228.51C1571.03,-1210.92 1746.87,-1178.08 1897,-1152 2189.42,-1101.21 2274.71,-1138.68 2556,-1044 2779.11,-968.9 2837,-830.41 2837,-595 2837,-595 2837,-595 2837,-521 2837,-424.69 2172.2,-392.42 1870.65,-382.74"/>
<polygon fill="grey" stroke="grey" stroke-width="2" points="1870.62,-379.24 1860.52,-382.42 1870.4,-386.23 1870.62,-379.24"/>
</g>
<!-- 21&#45;&gt;20 -->
<g id="edge41" class="edge">
<title>21&#45;&gt;20</title>
<path fill="none" stroke="grey" stroke-width="2" d="M1447.38,-1295.7C1441.86,-1287.47 1435.15,-1277.48 1429.07,-1268.42"/>
<polygon fill="grey" stroke="grey" stroke-width="2" points="1431.96,-1266.46 1423.48,-1260.1 1426.15,-1270.36 1431.96,-1266.46"/>
</g>
<!-- 21&#45;&gt;31 -->
<g id="edge58" class="edge">
<title>21&#45;&gt;31</title>
<path fill="none" stroke="grey" stroke-width="2" d="M1531.1,-1312.58C1786.81,-1310.75 2637.23,-1301.54 2677,-1260 2751.17,-1182.53 2588.89,-1089.61 2504.2,-1048.44"/>
<polygon fill="grey" stroke="grey" stroke-width="2" points="2505.55,-1045.21 2495.02,-1044.03 2502.52,-1051.52 2505.55,-1045.21"/>
</g>
<!-- 21&#45;&gt;33 -->
<g id="edge65" class="edge">
<title>21&#45;&gt;33</title>
<path fill="none" stroke="grey" stroke-width="2" d="M1478.52,-1295.94C1507.48,-1270.71 1558.98,-1226.16 1564,-1224 1698.72,-1166.05 1747,-1209.93 1892,-1188 1893.08,-1187.84 1894.16,-1187.67 1895.25,-1187.5"/>
<polygon fill="grey" stroke="grey" stroke-width="2" points="1895.87,-1190.95 1905.18,-1185.88 1894.75,-1184.04 1895.87,-1190.95"/>
</g>
<!-- 21&#45;&gt;36 -->
<g id="edge75" class="edge">
<title>21&#45;&gt;36</title>
<path fill="none" stroke="grey" stroke-width="2" d="M1531.28,-1312.53C1784.59,-1310.52 2618.93,-1300.84 2658,-1260 2703.99,-1211.94 2594.17,-1188.06 2519.4,-1177.72"/>
<polygon fill="grey" stroke="grey" stroke-width="2" points="2519.47,-1174.2 2509.1,-1176.35 2518.55,-1181.14 2519.47,-1174.2"/>
</g>
<!-- 21&#45;&gt;45 -->
<g id="edge85" class="edge">
<title>21&#45;&gt;45</title>
<path fill="none" stroke="grey" stroke-width="2" d="M1386.87,-1308.14C1301.87,-1301.28 1166.77,-1286.56 1124,-1260 1001.36,-1183.84 1062.87,-1053.31 1147,-936 1251.99,-789.6 1316.66,-769.08 1490,-720 1591,-691.4 1889.67,-676.2 2040.58,-670.16"/>
<polygon fill="grey" stroke="grey" stroke-width="2" points="2040.89,-673.65 2050.75,-669.76 2040.62,-666.66 2040.89,-673.65"/>
</g>
<!-- 21&#45;&gt;46 -->
<g id="edge88" class="edge">
<title>21&#45;&gt;46</title>
<path fill="none" stroke="grey" stroke-width="2" d="M1386.65,-1311.6C1300.67,-1305.59 1160.49,-1281.06 1094,-1188 1066.09,-1148.95 1074.93,-1124.05 1094,-1080 1168.34,-908.32 1231.88,-871.99 1401,-792 1446.55,-770.45 1566.35,-756.5 1663.91,-748.34"/>
<polygon fill="grey" stroke="grey" stroke-width="2" points="1664.2,-751.83 1673.88,-747.52 1663.63,-744.85 1664.2,-751.83"/>
</g>
<!-- 21&#45;&gt;47 -->
<g id="edge95" class="edge">
<title>21&#45;&gt;47</title>
<path fill="none" stroke="grey" stroke-width="2" d="M1386.91,-1296.97C1367.81,-1289.09 1349.36,-1277.37 1338,-1260 1329.25,-1246.61 1336.56,-1239.93 1338,-1224 1346.03,-1135.36 1374,-1116.01 1374,-1027 1374,-1027 1374,-1027 1374,-953 1374,-910.81 1374.04,-890.33 1407,-864 1450.73,-829.08 1595.92,-817.11 1698.5,-813.04"/>
<polygon fill="grey" stroke="grey" stroke-width="2" points="1698.74,-816.53 1708.6,-812.66 1698.48,-809.54 1698.74,-816.53"/>
</g>
<!-- 21&#45;&gt;55 -->
<g id="edge105" class="edge">
<title>21&#45;&gt;55</title>
<path fill="none" stroke="grey" stroke-width="2" d="M1469.05,-1295.66C1480.27,-1277 1499.55,-1246.93 1520,-1224 1576.41,-1160.76 1664,-1183.75 1664,-1099 1664,-1099 1664,-1099 1664,-1025 1664,-984.46 1658.16,-967.24 1684,-936 1695.49,-922.11 1711.31,-911.76 1727.76,-904.09"/>
<polygon fill="grey" stroke="grey" stroke-width="2" points="1729.16,-907.3 1736.93,-900.1 1726.37,-900.88 1729.16,-907.3"/>
</g>
<!-- 21&#45;&gt;61 -->
<g id="edge121" class="edge">
<title>21&#45;&gt;61</title>
<path fill="none" stroke="grey" stroke-width="2" d="M1531.12,-1312.64C1790.01,-1311.01 2659.39,-1302.38 2700,-1260 2716.62,-1242.65 2855.75,-1159.01 2667,-792 2644.2,-747.67 2620.65,-750.22 2581,-720 2558.64,-702.96 2548.09,-704.63 2529,-684 2491.26,-643.21 2512.58,-606.3 2466,-576 2451.72,-566.71 2261.04,-547.66 2125.15,-535.11"/>
<polygon fill="grey" stroke="grey" stroke-width="2" points="2125.34,-531.62 2115.06,-534.18 2124.69,-538.59 2125.34,-531.62"/>
</g>
<!-- 21&#45;&gt;69 -->
<g id="edge132" class="edge">
<title>21&#45;&gt;69</title>
<path fill="none" stroke="grey" stroke-width="2" d="M1531.02,-1312.76C1788.12,-1311.52 2651.56,-1304.1 2767,-1260 2825.1,-1237.81 2875,-1233.2 2875,-1171 2875,-1171 2875,-1171 2875,-737 2875,-643.76 2745.43,-611.45 2668.18,-600.48"/>
<polygon fill="grey" stroke="grey" stroke-width="2" points="2668.49,-596.99 2658.11,-599.12 2667.56,-603.92 2668.49,-596.99"/>
</g>
<!-- 22 -->
<g id="node23" class="node">
<title>22</title>
<path fill="none" stroke="#d8cb56" stroke-width="2" d="M1510.5,-1404C1510.5,-1404 1283.5,-1404 1283.5,-1404 1277.5,-1404 1271.5,-1398 1271.5,-1392 1271.5,-1392 1271.5,-1380 1271.5,-1380 1271.5,-1374 1277.5,-1368 1283.5,-1368 1283.5,-1368 1510.5,-1368 1510.5,-1368 1516.5,-1368 1522.5,-1374 1522.5,-1380 1522.5,-1380 1522.5,-1392 1522.5,-1392 1522.5,-1398 1516.5,-1404 1510.5,-1404"/>
<text text-anchor="middle" x="1397" y="-1383.5" font-family="sans" font-size="10.00">create_leaves_only_hierarchy_annotation_ccfv2</text>
</g>
<!-- 22&#45;&gt;21 -->
<g id="edge42" class="edge">
<title>22&#45;&gt;21</title>
<path fill="none" stroke="grey" stroke-width="2" d="M1412.33,-1367.7C1419.76,-1359.3 1428.82,-1349.07 1436.98,-1339.86"/>
<polygon fill="grey" stroke="grey" stroke-width="2" points="1439.84,-1341.91 1443.85,-1332.1 1434.6,-1337.27 1439.84,-1341.91"/>
</g>
<!-- 23&#45;&gt;22 -->
<g id="edge44" class="edge">
<title>23&#45;&gt;22</title>
<path fill="none" stroke="grey" stroke-width="2" d="M1180.6,-1439.97C1221.86,-1429.87 1274.31,-1417.03 1317.24,-1406.52"/>
<polygon fill="grey" stroke="grey" stroke-width="2" points="1318.21,-1409.89 1327.09,-1404.11 1316.54,-1403.09 1318.21,-1409.89"/>
</g>
<!-- 24 -->
<g id="node25" class="node">
<title>24</title>
<path fill="none" stroke="#56d8b9" stroke-width="2" d="M1209.5,-1692C1209.5,-1692 1094.5,-1692 1094.5,-1692 1088.5,-1692 1082.5,-1686 1082.5,-1680 1082.5,-1680 1082.5,-1668 1082.5,-1668 1082.5,-1662 1088.5,-1656 1094.5,-1656 1094.5,-1656 1209.5,-1656 1209.5,-1656 1215.5,-1656 1221.5,-1662 1221.5,-1668 1221.5,-1668 1221.5,-1680 1221.5,-1680 1221.5,-1686 1215.5,-1692 1209.5,-1692"/>
<text text-anchor="middle" x="1152" y="-1671.5" font-family="sans" font-size="10.00">combine_v2_annotations</text>
</g>
<!-- 24&#45;&gt;23 -->
<g id="edge46" class="edge">
<title>24&#45;&gt;23</title>
<path fill="none" stroke="grey" stroke-width="2" d="M1157.98,-1655.76C1167.49,-1625.41 1183.03,-1561.02 1163,-1512 1158.51,-1501.02 1150.53,-1491.08 1142.15,-1482.86"/>
<polygon fill="grey" stroke="grey" stroke-width="2" points="1144.49,-1480.26 1134.75,-1476.09 1139.76,-1485.42 1144.49,-1480.26"/>
</g>
<!-- 24&#45;&gt;27 -->
<g id="edge50" class="edge">
<title>24&#45;&gt;27</title>
<path fill="none" stroke="grey" stroke-width="2" d="M1152.47,-1655.84C1152.14,-1636.51 1148.9,-1605.05 1133,-1584 1123,-1570.76 1108.71,-1560.48 1094.05,-1552.66"/>
<polygon fill="grey" stroke="grey" stroke-width="2" points="1095.42,-1549.43 1084.91,-1548.1 1092.3,-1555.7 1095.42,-1549.43"/>
</g>
<!-- 24&#45;&gt;28 -->
<g id="edge54" class="edge">
<title>24&#45;&gt;28</title>
<path fill="none" stroke="grey" stroke-width="2" d="M1122.89,-1655.88C1107.33,-1646.72 1087.98,-1635.34 1071.22,-1625.48"/>
<polygon fill="grey" stroke="grey" stroke-width="2" points="1072.62,-1622.24 1062.22,-1620.19 1069.07,-1628.28 1072.62,-1622.24"/>
</g>
<!-- 25 -->
<g id="node26" class="node">
<title>25</title>
<path fill="none" stroke="#d89556" stroke-width="2" d="M1131,-1764C1131,-1764 989,-1764 989,-1764 983,-1764 977,-1758 977,-1752 977,-1752 977,-1740 977,-1740 977,-1734 983,-1728 989,-1728 989,-1728 1131,-1728 1131,-1728 1137,-1728 1143,-1734 1143,-1740 1143,-1740 1143,-1752 1143,-1752 1143,-1758 1137,-1764 1131,-1764"/>
<text text-anchor="middle" x="1060" y="-1743.5" font-family="sans" font-size="10.00">fetch_brain_parcellation_ccfv2</text>
</g>
<!-- 25&#45;&gt;24 -->
<g id="edge48" class="edge">
<title>25&#45;&gt;24</title>
<path fill="none" stroke="grey" stroke-width="2" d="M1082.74,-1727.7C1094.44,-1718.8 1108.86,-1707.82 1121.51,-1698.2"/>
<polygon fill="grey" stroke="grey" stroke-width="2" points="1123.68,-1700.94 1129.52,-1692.1 1119.44,-1695.37 1123.68,-1700.94"/>
</g>
<!-- 26 -->
<g id="node27" class="node">
<title>26</title>
<path fill="none" stroke="#bed856" stroke-width="2" d="M1312.5,-1764C1312.5,-1764 1173.5,-1764 1173.5,-1764 1167.5,-1764 1161.5,-1758 1161.5,-1752 1161.5,-1752 1161.5,-1740 1161.5,-1740 1161.5,-1734 1167.5,-1728 1173.5,-1728 1173.5,-1728 1312.5,-1728 1312.5,-1728 1318.5,-1728 1324.5,-1734 1324.5,-1740 1324.5,-1740 1324.5,-1752 1324.5,-1752 1324.5,-1758 1318.5,-1764 1312.5,-1764"/>
<text text-anchor="middle" x="1243" y="-1743.5" font-family="sans" font-size="10.00">fetch_fiber_parcellation_ccfv2</text>
</g>
<!-- 26&#45;&gt;24 -->
<g id="edge49" class="edge">
<title>26&#45;&gt;24</title>
<path fill="none" stroke="grey" stroke-width="2" d="M1220.51,-1727.7C1209.04,-1718.88 1194.94,-1708.03 1182.52,-1698.47"/>
<polygon fill="grey" stroke="grey" stroke-width="2" points="1184.3,-1695.43 1174.24,-1692.1 1180.03,-1700.98 1184.3,-1695.43"/>
</g>
<!-- 27&#45;&gt;23 -->
<g id="edge47" class="edge">
<title>27&#45;&gt;23</title>
<path fill="none" stroke="grey" stroke-width="2" d="M1052.28,-1511.7C1061.92,-1503.05 1073.73,-1492.45 1084.23,-1483.03"/>
<polygon fill="grey" stroke="grey" stroke-width="2" points="1086.84,-1485.39 1091.94,-1476.1 1082.16,-1480.18 1086.84,-1485.39"/>
</g>
<!-- 28&#45;&gt;27 -->
<g id="edge52" class="edge">
<title>28&#45;&gt;27</title>
<path fill="none" stroke="grey" stroke-width="2" d="M1033,-1583.7C1033,-1575.98 1033,-1566.71 1033,-1558.11"/>
<polygon fill="grey" stroke="grey" stroke-width="2" points="1036.5,-1558.1 1033,-1548.1 1029.5,-1558.1 1036.5,-1558.1"/>
</g>
<!-- 29 -->
<g id="node30" class="node">
<title>29</title>
<path fill="none" stroke="#59d856" stroke-width="2" d="M874,-1620C874,-1620 754,-1620 754,-1620 748,-1620 742,-1614 742,-1608 742,-1608 742,-1596 742,-1596 742,-1590 748,-1584 754,-1584 754,-1584 874,-1584 874,-1584 880,-1584 886,-1590 886,-1596 886,-1596 886,-1608 886,-1608 886,-1614 880,-1620 874,-1620"/>
<text text-anchor="middle" x="814" y="-1599.5" font-family="sans" font-size="10.00">fetch_isocortex_metadata</text>
</g>
<!-- 29&#45;&gt;27 -->
<g id="edge53" class="edge">
<title>29&#45;&gt;27</title>
<path fill="none" stroke="grey" stroke-width="2" d="M867.29,-1583.97C898.16,-1574.1 937.2,-1561.62 969.63,-1551.25"/>
<polygon fill="grey" stroke="grey" stroke-width="2" points="971.01,-1554.49 979.47,-1548.11 968.88,-1547.82 971.01,-1554.49"/>
</g>
<!-- 30&#45;&gt;19 -->
<g id="edge40" class="edge">
<title>30&#45;&gt;19</title>
<path fill="none" stroke="grey" stroke-width="2" d="M1692.14,-941.59C1436.67,-911.17 758.43,-830.25 753,-828 672.68,-794.79 642,-753.91 642,-667 642,-667 642,-667 642,-521 642,-480.03 647.25,-460.68 618,-432 603.8,-418.07 565.76,-406.69 525.69,-398.1"/>
<polygon fill="grey" stroke="grey" stroke-width="2" points="526.25,-394.64 515.75,-396.03 524.82,-401.49 526.25,-394.64"/>
</g>
<!-- 30&#45;&gt;45 -->
<g id="edge87" class="edge">
<title>30&#45;&gt;45</title>
<path fill="none" stroke="grey" stroke-width="2" d="M1883.62,-937.51C1977.56,-922.25 2107.02,-901.05 2108,-900 2160.68,-843.5 2147.25,-742.41 2136.84,-694.12"/>
<polygon fill="grey" stroke="grey" stroke-width="2" points="2140.2,-693.09 2134.57,-684.12 2133.37,-694.64 2140.2,-693.09"/>
</g>
<!-- 30&#45;&gt;46 -->
<g id="edge90" class="edge">
<title>30&#45;&gt;46</title>
<path fill="none" stroke="grey" stroke-width="2" d="M1883.62,-937.53C1969.83,-923.37 2083.64,-904 2087,-900 2146.84,-828.62 2011.57,-782.21 1908.64,-758.33"/>
<polygon fill="grey" stroke="grey" stroke-width="2" points="1909.32,-754.9 1898.79,-756.09 1907.77,-761.72 1909.32,-754.9"/>
</g>
<!-- 30&#45;&gt;47 -->
<g id="edge97" class="edge">
<title>30&#45;&gt;47</title>
<path fill="none" stroke="grey" stroke-width="2" d="M1858.98,-935.92C1877.02,-928.04 1894.31,-916.59 1905,-900 1913.67,-886.55 1913.22,-877.73 1905,-864 1896.99,-850.62 1884.32,-840.43 1870.69,-832.74"/>
<polygon fill="grey" stroke="grey" stroke-width="2" points="1872.11,-829.54 1861.63,-828.04 1868.89,-835.75 1872.11,-829.54"/>
</g>
<!-- 30&#45;&gt;55 -->
<g id="edge108" class="edge">
<title>30&#45;&gt;55</title>
<path fill="none" stroke="grey" stroke-width="2" d="M1792.45,-935.7C1794.45,-927.9 1796.87,-918.51 1799.1,-909.83"/>
<polygon fill="grey" stroke="grey" stroke-width="2" points="1802.5,-910.66 1801.6,-900.1 1795.72,-908.92 1802.5,-910.66"/>
</g>
<!-- 30&#45;&gt;69 -->
<g id="edge134" class="edge">
<title>30&#45;&gt;69</title>
<path fill="none" stroke="grey" stroke-width="2" d="M1883.56,-937.48C1886.75,-936.98 1889.9,-936.48 1893,-936 1999.57,-919.38 2028.12,-925.17 2133,-900 2280.39,-864.62 2691.4,-806.99 2780,-684 2812.67,-638.65 2728.63,-614.36 2667.97,-603.1"/>
<polygon fill="grey" stroke="grey" stroke-width="2" points="2668.54,-599.65 2658.08,-601.34 2667.31,-606.54 2668.54,-599.65"/>
</g>
<!-- 31&#45;&gt;30 -->
<g id="edge57" class="edge">
<title>31&#45;&gt;30</title>
<path fill="none" stroke="grey" stroke-width="2" d="M2366.93,-1018.4C2257.55,-1009.97 2067.24,-993.94 1893.62,-972.03"/>
<polygon fill="grey" stroke="grey" stroke-width="2" points="1893.89,-968.53 1883.53,-970.74 1893.01,-975.48 1893.89,-968.53"/>
</g>
<!-- 32&#45;&gt;31 -->
<g id="edge60" class="edge">
<title>32&#45;&gt;31</title>
<path fill="none" stroke="grey" stroke-width="2" d="M1812.05,-1087.08C1828.83,-1084.53 1847.1,-1081.95 1864,-1080 2063.75,-1056.9 2114.91,-1063.96 2315,-1044 2328.52,-1042.65 2342.75,-1041.1 2356.76,-1039.5"/>
<polygon fill="grey" stroke="grey" stroke-width="2" points="2357.38,-1042.95 2366.92,-1038.33 2356.58,-1036 2357.38,-1042.95"/>
</g>
<!-- 32&#45;&gt;45 -->
<g id="edge86" class="edge">
<title>32&#45;&gt;45</title>
<path fill="none" stroke="grey" stroke-width="2" d="M1812.09,-1082.76C1816.79,-1081.78 1821.46,-1080.85 1826,-1080 2046.27,-1038.88 2102.81,-1036.97 2325,-1008 2393.55,-999.06 2582.87,-1018.52 2634,-972 2663.92,-944.78 2653,-923.45 2653,-883 2653,-883 2653,-883 2653,-809 2653,-720.19 2368.58,-685.14 2219.22,-672.86"/>
<polygon fill="grey" stroke="grey" stroke-width="2" points="2219.4,-669.36 2209.15,-672.05 2218.84,-676.34 2219.4,-669.36"/>
</g>
<!-- 32&#45;&gt;55 -->
<g id="edge107" class="edge">
<title>32&#45;&gt;55</title>
<path fill="none" stroke="grey" stroke-width="2" d="M1691.96,-1083.37C1601.39,-1060.1 1446.51,-1008.16 1507,-936 1507.83,-935.01 1619.69,-915.37 1706.33,-900.29"/>
<polygon fill="grey" stroke="grey" stroke-width="2" points="1706.98,-903.73 1716.23,-898.56 1705.78,-896.83 1706.98,-903.73"/>
</g>
<!-- 33&#45;&gt;32 -->
<g id="edge64" class="edge">
<title>33&#45;&gt;32</title>
<path fill="none" stroke="grey" stroke-width="2" d="M1924.52,-1151.97C1892.24,-1142.06 1851.39,-1129.51 1817.54,-1119.12"/>
<polygon fill="grey" stroke="grey" stroke-width="2" points="1818.32,-1115.7 1807.73,-1116.11 1816.26,-1122.39 1818.32,-1115.7"/>
</g>
<!-- 34 -->
<g id="node35" class="node">
<title>34</title>
<path fill="none" stroke="#56d86b" stroke-width="2" d="M1763.5,-1260C1763.5,-1260 1584.5,-1260 1584.5,-1260 1578.5,-1260 1572.5,-1254 1572.5,-1248 1572.5,-1248 1572.5,-1236 1572.5,-1236 1572.5,-1230 1578.5,-1224 1584.5,-1224 1584.5,-1224 1763.5,-1224 1763.5,-1224 1769.5,-1224 1775.5,-1230 1775.5,-1236 1775.5,-1236 1775.5,-1248 1775.5,-1248 1775.5,-1254 1769.5,-1260 1763.5,-1260"/>
<text text-anchor="middle" x="1674" y="-1239.5" font-family="sans" font-size="10.00">fetch_corrected_nissl_stained_volume</text>
</g>
<!-- 34&#45;&gt;33 -->
<g id="edge67" class="edge">
<title>34&#45;&gt;33</title>
<path fill="none" stroke="grey" stroke-width="2" d="M1748.46,-1223.97C1792.88,-1213.8 1849.42,-1200.87 1895.5,-1190.33"/>
<polygon fill="grey" stroke="grey" stroke-width="2" points="1896.5,-1193.69 1905.47,-1188.05 1894.94,-1186.87 1896.5,-1193.69"/>
</g>
<!-- 35 -->
<g id="node36" class="node">
<title>35</title>
<path fill="none" stroke="#bed856" stroke-width="2" d="M1898.5,-1260C1898.5,-1260 1805.5,-1260 1805.5,-1260 1799.5,-1260 1793.5,-1254 1793.5,-1248 1793.5,-1248 1793.5,-1236 1793.5,-1236 1793.5,-1230 1799.5,-1224 1805.5,-1224 1805.5,-1224 1898.5,-1224 1898.5,-1224 1904.5,-1224 1910.5,-1230 1910.5,-1236 1910.5,-1236 1910.5,-1248 1910.5,-1248 1910.5,-1254 1904.5,-1260 1898.5,-1260"/>
<text text-anchor="middle" x="1852" y="-1239.5" font-family="sans" font-size="10.00">fetch_regions_config</text>
</g>
<!-- 35&#45;&gt;31 -->
<g id="edge62" class="edge">
<title>35&#45;&gt;31</title>
<path fill="none" stroke="grey" stroke-width="2" d="M1910.69,-1226.33C1973.35,-1210.68 2063.76,-1188.08 2064,-1188 2192.57,-1145.84 2338.76,-1081.39 2411.24,-1048.27"/>
<polygon fill="grey" stroke="grey" stroke-width="2" points="2412.92,-1051.36 2420.55,-1044.01 2410,-1044.99 2412.92,-1051.36"/>
</g>
<!-- 35&#45;&gt;33 -->
<g id="edge68" class="edge">
<title>35&#45;&gt;33</title>
<path fill="none" stroke="grey" stroke-width="2" d="M1883.31,-1223.88C1900.2,-1214.64 1921.25,-1203.13 1939.38,-1193.21"/>
<polygon fill="grey" stroke="grey" stroke-width="2" points="1941.47,-1196.06 1948.57,-1188.19 1938.11,-1189.92 1941.47,-1196.06"/>
</g>
<!-- 35&#45;&gt;47 -->
<g id="edge100" class="edge">
<title>35&#45;&gt;47</title>
<path fill="none" stroke="grey" stroke-width="2" d="M1910.54,-1226.08C1913.74,-1225.36 1916.91,-1224.66 1920,-1224 2010.48,-1204.77 2035.33,-1210.72 2125,-1188 2369.7,-1126 2756.28,-1156.83 2634,-936 2604.79,-883.25 2576.3,-882.79 2519,-864 2409.5,-828.1 2083.76,-816.4 1913.06,-812.67"/>
<polygon fill="grey" stroke="grey" stroke-width="2" points="1913.12,-809.17 1903.05,-812.46 1912.97,-816.17 1913.12,-809.17"/>
</g>
<!-- 36&#45;&gt;31 -->
<g id="edge61" class="edge">
<title>36&#45;&gt;31</title>
<path fill="none" stroke="grey" stroke-width="2" d="M2457,-1151.87C2457,-1127.67 2457,-1083.21 2457,-1054.39"/>
<polygon fill="grey" stroke="grey" stroke-width="2" points="2460.5,-1054.19 2457,-1044.19 2453.5,-1054.19 2460.5,-1054.19"/>
</g>
<!-- 37 -->
<g id="node38" class="node">
<title>37</title>
<path fill="none" stroke="#d8c356" stroke-width="2" d="M2637,-1260C2637,-1260 2549,-1260 2549,-1260 2543,-1260 2537,-1254 2537,-1248 2537,-1248 2537,-1236 2537,-1236 2537,-1230 2543,-1224 2549,-1224 2549,-1224 2637,-1224 2637,-1224 2643,-1224 2649,-1230 2649,-1236 2649,-1236 2649,-1248 2649,-1248 2649,-1254 2643,-1260 2637,-1260"/>
<text text-anchor="middle" x="2593" y="-1239.5" font-family="sans" font-size="10.00">fetch_gene_aldh1l1</text>
</g>
<!-- 37&#45;&gt;36 -->
<g id="edge69" class="edge">
<title>37&#45;&gt;36</title>
<path fill="none" stroke="grey" stroke-width="2" d="M2559.73,-1223.88C2541.54,-1214.51 2518.81,-1202.81 2499.36,-1192.8"/>
<polygon fill="grey" stroke="grey" stroke-width="2" points="2500.89,-1189.65 2490.4,-1188.19 2497.69,-1195.88 2500.89,-1189.65"/>
</g>
<!-- 38 -->
<g id="node39" class="node">
<title>38</title>
<path fill="none" stroke="#5682d8" stroke-width="2" d="M2009.5,-1260C2009.5,-1260 1940.5,-1260 1940.5,-1260 1934.5,-1260 1928.5,-1254 1928.5,-1248 1928.5,-1248 1928.5,-1236 1928.5,-1236 1928.5,-1230 1934.5,-1224 1940.5,-1224 1940.5,-1224 2009.5,-1224 2009.5,-1224 2015.5,-1224 2021.5,-1230 2021.5,-1236 2021.5,-1236 2021.5,-1248 2021.5,-1248 2021.5,-1254 2015.5,-1260 2009.5,-1260"/>
<text text-anchor="middle" x="1975" y="-1239.5" font-family="sans" font-size="10.00">fetch_gene_cnp</text>
</g>
<!-- 38&#45;&gt;36 -->
<g id="edge70" class="edge">
<title>38&#45;&gt;36</title>
<path fill="none" stroke="grey" stroke-width="2" d="M2021.58,-1226.12C2024.75,-1225.33 2027.91,-1224.62 2031,-1224 2188.68,-1192.5 2232.68,-1216.14 2391,-1188 2392.28,-1187.77 2393.57,-1187.53 2394.87,-1187.28"/>
<polygon fill="grey" stroke="grey" stroke-width="2" points="2395.84,-1190.66 2404.92,-1185.2 2394.42,-1183.8 2395.84,-1190.66"/>
</g>
<!-- 39 -->
<g id="node40" class="node">
<title>39</title>
<path fill="none" stroke="#56b9d8" stroke-width="2" d="M2126,-1260C2126,-1260 2052,-1260 2052,-1260 2046,-1260 2040,-1254 2040,-1248 2040,-1248 2040,-1236 2040,-1236 2040,-1230 2046,-1224 2052,-1224 2052,-1224 2126,-1224 2126,-1224 2132,-1224 2138,-1230 2138,-1236 2138,-1236 2138,-1248 2138,-1248 2138,-1254 2132,-1260 2126,-1260"/>
<text text-anchor="middle" x="2089" y="-1239.5" font-family="sans" font-size="10.00">fetch_gene_mbp</text>
</g>
<!-- 39&#45;&gt;36 -->
<g id="edge71" class="edge">
<title>39&#45;&gt;36</title>
<path fill="none" stroke="grey" stroke-width="2" d="M2138.24,-1226.06C2141.19,-1225.32 2144.13,-1224.63 2147,-1224 2254.08,-1200.53 2283.55,-1209.7 2391,-1188 2392.27,-1187.74 2393.56,-1187.48 2394.85,-1187.2"/>
<polygon fill="grey" stroke="grey" stroke-width="2" points="2395.88,-1190.56 2404.88,-1184.97 2394.36,-1183.73 2395.88,-1190.56"/>
</g>
<!-- 40 -->
<g id="node41" class="node">
<title>40</title>
<path fill="none" stroke="#78d856" stroke-width="2" d="M2242,-1260C2242,-1260 2168,-1260 2168,-1260 2162,-1260 2156,-1254 2156,-1248 2156,-1248 2156,-1236 2156,-1236 2156,-1230 2162,-1224 2168,-1224 2168,-1224 2242,-1224 2242,-1224 2248,-1224 2254,-1230 2254,-1236 2254,-1236 2254,-1248 2254,-1248 2254,-1254 2248,-1260 2242,-1260"/>
<text text-anchor="middle" x="2205" y="-1239.5" font-family="sans" font-size="10.00">fetch_gene_gfap</text>
</g>
<!-- 40&#45;&gt;36 -->
<g id="edge72" class="edge">
<title>40&#45;&gt;36</title>
<path fill="none" stroke="grey" stroke-width="2" d="M2254.24,-1226.76C2257.54,-1225.82 2260.82,-1224.9 2264,-1224 2307.75,-1211.69 2357.19,-1198.12 2395.07,-1187.8"/>
<polygon fill="grey" stroke="grey" stroke-width="2" points="2396.21,-1191.11 2404.94,-1185.11 2394.37,-1184.36 2396.21,-1191.11"/>
</g>
<!-- 41 -->
<g id="node42" class="node">
<title>41</title>
<path fill="none" stroke="#56d892" stroke-width="2" d="M2365.5,-1260C2365.5,-1260 2284.5,-1260 2284.5,-1260 2278.5,-1260 2272.5,-1254 2272.5,-1248 2272.5,-1248 2272.5,-1236 2272.5,-1236 2272.5,-1230 2278.5,-1224 2284.5,-1224 2284.5,-1224 2365.5,-1224 2365.5,-1224 2371.5,-1224 2377.5,-1230 2377.5,-1236 2377.5,-1236 2377.5,-1248 2377.5,-1248 2377.5,-1254 2371.5,-1260 2365.5,-1260"/>
<text text-anchor="middle" x="2325" y="-1239.5" font-family="sans" font-size="10.00">fetch_gene_s100b</text>
</g>
<!-- 41&#45;&gt;36 -->
<g id="edge73" class="edge">
<title>41&#45;&gt;36</title>
<path fill="none" stroke="grey" stroke-width="2" d="M2357.29,-1223.88C2374.87,-1214.55 2396.81,-1202.92 2415.63,-1192.94"/>
<polygon fill="grey" stroke="grey" stroke-width="2" points="2417.39,-1195.97 2424.59,-1188.19 2414.11,-1189.78 2417.39,-1195.97"/>
</g>
<!-- 42 -->
<g id="node43" class="node">
<title>42</title>
<path fill="none" stroke="#567bd8" stroke-width="2" d="M2506.5,-1260C2506.5,-1260 2407.5,-1260 2407.5,-1260 2401.5,-1260 2395.5,-1254 2395.5,-1248 2395.5,-1248 2395.5,-1236 2395.5,-1236 2395.5,-1230 2401.5,-1224 2407.5,-1224 2407.5,-1224 2506.5,-1224 2506.5,-1224 2512.5,-1224 2518.5,-1230 2518.5,-1236 2518.5,-1236 2518.5,-1248 2518.5,-1248 2518.5,-1254 2512.5,-1260 2506.5,-1260"/>
<text text-anchor="middle" x="2457" y="-1239.5" font-family="sans" font-size="10.00">fetch_gene_tmem119</text>
</g>
<!-- 42&#45;&gt;36 -->
<g id="edge74" class="edge">
<title>42&#45;&gt;36</title>
<path fill="none" stroke="grey" stroke-width="2" d="M2457,-1223.7C2457,-1215.98 2457,-1206.71 2457,-1198.11"/>
<polygon fill="grey" stroke="grey" stroke-width="2" points="2460.5,-1198.1 2457,-1188.1 2453.5,-1198.1 2460.5,-1198.1"/>
</g>
<!-- 43&#45;&gt;16 -->
<g id="edge32" class="edge">
<title>43&#45;&gt;16</title>
<path fill="none" stroke="grey" stroke-width="2" d="M970.71,-287.97C939.84,-278.1 900.8,-265.62 868.37,-255.25"/>
<polygon fill="grey" stroke="grey" stroke-width="2" points="869.12,-251.82 858.53,-252.11 866.99,-258.49 869.12,-251.82"/>
</g>
<!-- 44&#45;&gt;43 -->
<g id="edge77" class="edge">
<title>44&#45;&gt;43</title>
<path fill="none" stroke="grey" stroke-width="2" d="M1134.28,-359.88C1114.5,-350.39 1089.73,-338.51 1068.67,-328.42"/>
<polygon fill="grey" stroke="grey" stroke-width="2" points="1070.13,-325.24 1059.6,-324.07 1067.1,-331.55 1070.13,-325.24"/>
</g>
<!-- 45&#45;&gt;44 -->
<g id="edge82" class="edge">
<title>45&#45;&gt;44</title>
<path fill="none" stroke="grey" stroke-width="2" d="M2050.91,-664.72C1851.01,-663.36 1336.89,-655.62 1274,-612 1238.02,-587.04 1195.59,-461.68 1178.13,-405.87"/>
<polygon fill="grey" stroke="grey" stroke-width="2" points="1181.47,-404.82 1175.16,-396.3 1174.78,-406.89 1181.47,-404.82"/>
</g>
<!-- 45&#45;&gt;61 -->
<g id="edge120" class="edge">
<title>45&#45;&gt;61</title>
<path fill="none" stroke="grey" stroke-width="2" d="M2130.77,-647.96C2130.74,-628.45 2127.81,-596.54 2111,-576 2099.59,-562.05 2083.8,-551.68 2067.35,-544"/>
<polygon fill="grey" stroke="grey" stroke-width="2" points="2068.74,-540.79 2058.18,-540.01 2065.95,-547.21 2068.74,-540.79"/>
</g>
<!-- 68 -->
<g id="node69" class="node">
<title>68</title>
<path fill="none" stroke="#d87556" stroke-width="2" d="M2283.5,-612C2283.5,-612 2170.5,-612 2170.5,-612 2164.5,-612 2158.5,-606 2158.5,-600 2158.5,-600 2158.5,-588 2158.5,-588 2158.5,-582 2164.5,-576 2170.5,-576 2170.5,-576 2283.5,-576 2283.5,-576 2289.5,-576 2295.5,-582 2295.5,-588 2295.5,-588 2295.5,-600 2295.5,-600 2295.5,-606 2289.5,-612 2283.5,-612"/>
<text text-anchor="middle" x="2227" y="-591.5" font-family="sans" font-size="10.00">compute_lamp5_density</text>
</g>
<!-- 45&#45;&gt;68 -->
<g id="edge130" class="edge">
<title>45&#45;&gt;68</title>
<path fill="none" stroke="grey" stroke-width="2" d="M2153.98,-647.7C2166.31,-638.8 2181.52,-627.82 2194.85,-618.2"/>
<polygon fill="grey" stroke="grey" stroke-width="2" points="2197.24,-620.79 2203.3,-612.1 2193.14,-615.12 2197.24,-620.79"/>
</g>
<!-- 45&#45;&gt;69 -->
<g id="edge131" class="edge">
<title>45&#45;&gt;69</title>
<path fill="none" stroke="grey" stroke-width="2" d="M2209.05,-653.52C2306.58,-639.36 2469.95,-615.63 2555.64,-603.18"/>
<polygon fill="grey" stroke="grey" stroke-width="2" points="2556.31,-606.63 2565.7,-601.72 2555.3,-599.7 2556.31,-606.63"/>
</g>
<!-- 46&#45;&gt;45 -->
<g id="edge84" class="edge">
<title>46&#45;&gt;45</title>
<path fill="none" stroke="grey" stroke-width="2" d="M1884.85,-719.97C1932.07,-709.76 1992.24,-696.76 2041.14,-686.2"/>
<polygon fill="grey" stroke="grey" stroke-width="2" points="2042.05,-689.58 2051.08,-684.05 2040.57,-682.74 2042.05,-689.58"/>
</g>
<!-- 47&#45;&gt;46 -->
<g id="edge91" class="edge">
<title>47&#45;&gt;46</title>
<path fill="none" stroke="grey" stroke-width="2" d="M1806,-791.7C1806,-783.98 1806,-774.71 1806,-766.11"/>
<polygon fill="grey" stroke="grey" stroke-width="2" points="1809.5,-766.1 1806,-756.1 1802.5,-766.1 1809.5,-766.1"/>
</g>
<!-- 48 -->
<g id="node49" class="node">
<title>48</title>
<path fill="none" stroke="#61d856" stroke-width="2" d="M2497.5,-900C2497.5,-900 2372.5,-900 2372.5,-900 2366.5,-900 2360.5,-894 2360.5,-888 2360.5,-888 2360.5,-876 2360.5,-876 2360.5,-870 2366.5,-864 2372.5,-864 2372.5,-864 2497.5,-864 2497.5,-864 2503.5,-864 2509.5,-870 2509.5,-876 2509.5,-876 2509.5,-888 2509.5,-888 2509.5,-894 2503.5,-900 2497.5,-900"/>
<text text-anchor="middle" x="2435" y="-879.5" font-family="sans" font-size="10.00">fetch_genes_correctednissl</text>
</g>
<!-- 48&#45;&gt;47 -->
<g id="edge92" class="edge">
<title>48&#45;&gt;47</title>
<path fill="none" stroke="grey" stroke-width="2" d="M2360.38,-872.7C2249.48,-860.35 2040.62,-837.11 1913.33,-822.94"/>
<polygon fill="grey" stroke="grey" stroke-width="2" points="1913.5,-819.44 1903.17,-821.81 1912.72,-826.4 1913.5,-819.44"/>
</g>
<!-- 49 -->
<g id="node50" class="node">
<title>49</title>
<path fill="none" stroke="#56d8c1" stroke-width="2" d="M2612.5,-972C2612.5,-972 2475.5,-972 2475.5,-972 2469.5,-972 2463.5,-966 2463.5,-960 2463.5,-960 2463.5,-948 2463.5,-948 2463.5,-942 2469.5,-936 2475.5,-936 2475.5,-936 2612.5,-936 2612.5,-936 2618.5,-936 2624.5,-942 2624.5,-948 2624.5,-948 2624.5,-960 2624.5,-960 2624.5,-966 2618.5,-972 2612.5,-972"/>
<text text-anchor="middle" x="2544" y="-951.5" font-family="sans" font-size="10.00">fetch_gene_pv_correctednissl</text>
</g>
<!-- 49&#45;&gt;48 -->
<g id="edge101" class="edge">
<title>49&#45;&gt;48</title>
<path fill="none" stroke="grey" stroke-width="2" d="M2517.34,-935.88C2503.22,-926.81 2485.69,-915.55 2470.44,-905.76"/>
<polygon fill="grey" stroke="grey" stroke-width="2" points="2472.07,-902.65 2461.77,-900.19 2468.29,-908.54 2472.07,-902.65"/>
</g>
<!-- 50 -->
<g id="node51" class="node">
<title>50</title>
<path fill="none" stroke="#56d87b" stroke-width="2" d="M2054,-972C2054,-972 1914,-972 1914,-972 1908,-972 1902,-966 1902,-960 1902,-960 1902,-948 1902,-948 1902,-942 1908,-936 1914,-936 1914,-936 2054,-936 2054,-936 2060,-936 2066,-942 2066,-948 2066,-948 2066,-960 2066,-960 2066,-966 2060,-972 2054,-972"/>
<text text-anchor="middle" x="1984" y="-951.5" font-family="sans" font-size="10.00">fetch_gene_sst_correctednissl</text>
</g>
<!-- 50&#45;&gt;48 -->
<g id="edge102" class="edge">
<title>50&#45;&gt;48</title>
<path fill="none" stroke="grey" stroke-width="2" d="M2066.31,-937.42C2069.24,-936.93 2072.14,-936.46 2075,-936 2195.42,-916.8 2226.64,-919.57 2347,-900 2348.08,-899.83 2349.16,-899.65 2350.25,-899.47"/>
<polygon fill="grey" stroke="grey" stroke-width="2" points="2350.89,-902.91 2360.16,-897.77 2349.71,-896.01 2350.89,-902.91"/>
</g>
<!-- 51 -->
<g id="node52" class="node">
<title>51</title>
<path fill="none" stroke="#afd856" stroke-width="2" d="M2236,-972C2236,-972 2096,-972 2096,-972 2090,-972 2084,-966 2084,-960 2084,-960 2084,-948 2084,-948 2084,-942 2090,-936 2096,-936 2096,-936 2236,-936 2236,-936 2242,-936 2248,-942 2248,-948 2248,-948 2248,-960 2248,-960 2248,-966 2242,-972 2236,-972"/>
<text text-anchor="middle" x="2166" y="-951.5" font-family="sans" font-size="10.00">fetch_gene_vip_correctednissl</text>
</g>
<!-- 51&#45;&gt;48 -->
<g id="edge103" class="edge">
<title>51&#45;&gt;48</title>
<path fill="none" stroke="grey" stroke-width="2" d="M2231.46,-935.97C2270.11,-925.91 2319.19,-913.14 2359.47,-902.65"/>
<polygon fill="grey" stroke="grey" stroke-width="2" points="2360.45,-906.02 2369.25,-900.11 2358.69,-899.24 2360.45,-906.02"/>
</g>
<!-- 52 -->
<g id="node53" class="node">
<title>52</title>
<path fill="none" stroke="#d8a456" stroke-width="2" d="M2433.5,-972C2433.5,-972 2278.5,-972 2278.5,-972 2272.5,-972 2266.5,-966 2266.5,-960 2266.5,-960 2266.5,-948 2266.5,-948 2266.5,-942 2272.5,-936 2278.5,-936 2278.5,-936 2433.5,-936 2433.5,-936 2439.5,-936 2445.5,-942 2445.5,-948 2445.5,-948 2445.5,-960 2445.5,-960 2445.5,-966 2439.5,-972 2433.5,-972"/>
<text text-anchor="middle" x="2356" y="-951.5" font-family="sans" font-size="10.00">fetch_gene_gad67_correctednissl</text>
</g>
<!-- 52&#45;&gt;48 -->
<g id="edge104" class="edge">
<title>52&#45;&gt;48</title>
<path fill="none" stroke="grey" stroke-width="2" d="M2375.53,-935.7C2385.38,-926.97 2397.49,-916.24 2408.2,-906.75"/>
<polygon fill="grey" stroke="grey" stroke-width="2" points="2410.53,-909.36 2415.7,-900.1 2405.89,-904.12 2410.53,-909.36"/>
</g>
<!-- 53 -->
<g id="node54" class="node">
<title>53</title>
<path fill="none" stroke="#56d8c9" stroke-width="2" d="M2065.5,-900C2065.5,-900 1964.5,-900 1964.5,-900 1958.5,-900 1952.5,-894 1952.5,-888 1952.5,-888 1952.5,-876 1952.5,-876 1952.5,-870 1958.5,-864 1964.5,-864 1964.5,-864 2065.5,-864 2065.5,-864 2071.5,-864 2077.5,-870 2077.5,-876 2077.5,-876 2077.5,-888 2077.5,-888 2077.5,-894 2071.5,-900 2065.5,-900"/>
<text text-anchor="middle" x="2015" y="-879.5" font-family="sans" font-size="10.00">fetch_realigned_slices</text>
</g>
<!-- 53&#45;&gt;47 -->
<g id="edge93" class="edge">
<title>53&#45;&gt;47</title>
<path fill="none" stroke="grey" stroke-width="2" d="M1964.14,-863.97C1934.81,-854.14 1897.75,-841.73 1866.88,-831.39"/>
<polygon fill="grey" stroke="grey" stroke-width="2" points="1867.68,-827.97 1857.09,-828.11 1865.46,-834.61 1867.68,-827.97"/>
</g>
<!-- 54 -->
<g id="node55" class="node">
<title>54</title>
<path fill="none" stroke="#afd856" stroke-width="2" d="M1517.5,-900C1517.5,-900 1452.5,-900 1452.5,-900 1446.5,-900 1440.5,-894 1440.5,-888 1440.5,-888 1440.5,-876 1440.5,-876 1440.5,-870 1446.5,-864 1452.5,-864 1452.5,-864 1517.5,-864 1517.5,-864 1523.5,-864 1529.5,-870 1529.5,-876 1529.5,-876 1529.5,-888 1529.5,-888 1529.5,-894 1523.5,-900 1517.5,-900"/>
<text text-anchor="middle" x="1485" y="-879.5" font-family="sans" font-size="10.00">fetch_std_cells</text>
</g>
<!-- 54&#45;&gt;47 -->
<g id="edge94" class="edge">
<title>54&#45;&gt;47</title>
<path fill="none" stroke="grey" stroke-width="2" d="M1529.68,-866.52C1532.82,-865.63 1535.95,-864.78 1539,-864 1591.15,-850.66 1649.75,-838.7 1698.74,-829.53"/>
<polygon fill="grey" stroke="grey" stroke-width="2" points="1699.53,-832.94 1708.72,-827.67 1698.25,-826.06 1699.53,-832.94"/>
</g>
<!-- 55&#45;&gt;47 -->
<g id="edge98" class="edge">
<title>55&#45;&gt;47</title>
<path fill="none" stroke="grey" stroke-width="2" d="M1806,-863.7C1806,-855.98 1806,-846.71 1806,-838.11"/>
<polygon fill="grey" stroke="grey" stroke-width="2" points="1809.5,-838.1 1806,-828.1 1802.5,-838.1 1809.5,-838.1"/>
</g>
<!-- 56 -->
<g id="node57" class="node">
<title>56</title>
<path fill="none" stroke="#59d856" stroke-width="2" d="M1624,-972C1624,-972 1528,-972 1528,-972 1522,-972 1516,-966 1516,-960 1516,-960 1516,-948 1516,-948 1516,-942 1522,-936 1528,-936 1528,-936 1624,-936 1624,-936 1630,-936 1636,-942 1636,-948 1636,-948 1636,-960 1636,-960 1636,-966 1630,-972 1624,-972"/>
<text text-anchor="middle" x="1576" y="-951.5" font-family="sans" font-size="10.00">fetch_measurements</text>
</g>
<!-- 56&#45;&gt;55 -->
<g id="edge109" class="edge">
<title>56&#45;&gt;55</title>
<path fill="none" stroke="grey" stroke-width="2" d="M1631.97,-935.97C1664.53,-926.06 1705.74,-913.51 1739.89,-903.12"/>
<polygon fill="grey" stroke="grey" stroke-width="2" points="1741.23,-906.37 1749.78,-900.11 1739.19,-899.67 1741.23,-906.37"/>
</g>
<!-- 57 -->
<g id="node58" class="node">
<title>57</title>
<path fill="none" stroke="#565bd8" stroke-width="2" d="M1686.5,-900C1686.5,-900 1559.5,-900 1559.5,-900 1553.5,-900 1547.5,-894 1547.5,-888 1547.5,-888 1547.5,-876 1547.5,-876 1547.5,-870 1553.5,-864 1559.5,-864 1559.5,-864 1686.5,-864 1686.5,-864 1692.5,-864 1698.5,-870 1698.5,-876 1698.5,-876 1698.5,-888 1698.5,-888 1698.5,-894 1692.5,-900 1686.5,-900"/>
<text text-anchor="middle" x="1623" y="-879.5" font-family="sans" font-size="10.00">fetch_homogenous_regions</text>
</g>
<!-- 57&#45;&gt;47 -->
<g id="edge99" class="edge">
<title>57&#45;&gt;47</title>
<path fill="none" stroke="grey" stroke-width="2" d="M1667.77,-863.88C1693.12,-854.18 1725.01,-841.98 1751.77,-831.74"/>
<polygon fill="grey" stroke="grey" stroke-width="2" points="1753.29,-834.91 1761.38,-828.07 1750.79,-828.37 1753.29,-834.91"/>
</g>
<!-- 58&#45;&gt;16 -->
<g id="edge33" class="edge">
<title>58&#45;&gt;16</title>
<path fill="none" stroke="grey" stroke-width="2" d="M1407.96,-296.17C1273.96,-282.58 1018.91,-256.7 887.62,-243.38"/>
<polygon fill="grey" stroke="grey" stroke-width="2" points="887.92,-239.89 877.62,-242.37 887.22,-246.86 887.92,-239.89"/>
</g>
<!-- 73 -->
<g id="node74" class="node">
<title>73</title>
<path fill="none" stroke="#d8b456" stroke-width="2" d="M1589,-252C1589,-252 1401,-252 1401,-252 1395,-252 1389,-246 1389,-240 1389,-240 1389,-228 1389,-228 1389,-222 1395,-216 1401,-216 1401,-216 1589,-216 1589,-216 1595,-216 1601,-222 1601,-228 1601,-228 1601,-240 1601,-240 1601,-246 1595,-252 1589,-252"/>
<text text-anchor="middle" x="1495" y="-231.5" font-family="sans" font-size="10.00">create_cellCompositionVolume_payload</text>
</g>
<!-- 58&#45;&gt;73 -->
<g id="edge143" class="edge">
<title>58&#45;&gt;73</title>
<path fill="none" stroke="grey" stroke-width="2" d="M1495,-287.7C1495,-279.98 1495,-270.71 1495,-262.11"/>
<polygon fill="grey" stroke="grey" stroke-width="2" points="1498.5,-262.1 1495,-252.1 1491.5,-262.1 1498.5,-262.1"/>
</g>
<!-- 59&#45;&gt;58 -->
<g id="edge110" class="edge">
<title>59&#45;&gt;58</title>
<path fill="none" stroke="grey" stroke-width="2" d="M1497.26,-359.7C1496.93,-351.98 1496.53,-342.71 1496.16,-334.11"/>
<polygon fill="grey" stroke="grey" stroke-width="2" points="1499.66,-333.95 1495.73,-324.1 1492.66,-334.25 1499.66,-333.95"/>
</g>
<!-- 60&#45;&gt;59 -->
<g id="edge116" class="edge">
<title>60&#45;&gt;59</title>
<path fill="none" stroke="grey" stroke-width="2" d="M1917.28,-441.28C1837.76,-432.37 1705.5,-416.47 1581.75,-396.06"/>
<polygon fill="grey" stroke="grey" stroke-width="2" points="1582.15,-392.58 1571.71,-394.39 1581,-399.48 1582.15,-392.58"/>
</g>
<!-- 60&#45;&gt;71 -->
<g id="edge139" class="edge">
<title>60&#45;&gt;71</title>
<path fill="none" stroke="grey" stroke-width="2" d="M1924.76,-431.97C1886.91,-421.93 1838.86,-409.19 1799.38,-398.72"/>
<polygon fill="grey" stroke="grey" stroke-width="2" points="1800.1,-395.29 1789.53,-396.11 1798.3,-402.06 1800.1,-395.29"/>
</g>
<!-- 61&#45;&gt;60 -->
<g id="edge118" class="edge">
<title>61&#45;&gt;60</title>
<path fill="none" stroke="grey" stroke-width="2" d="M1989,-503.7C1989,-495.98 1989,-486.71 1989,-478.11"/>
<polygon fill="grey" stroke="grey" stroke-width="2" points="1992.5,-478.1 1989,-468.1 1985.5,-478.1 1992.5,-478.1"/>
</g>
<!-- 62 -->
<g id="node63" class="node">
<title>62</title>
<path fill="none" stroke="#566bd8" stroke-width="2" d="M1761.5,-612C1761.5,-612 1642.5,-612 1642.5,-612 1636.5,-612 1630.5,-606 1630.5,-600 1630.5,-600 1630.5,-588 1630.5,-588 1630.5,-582 1636.5,-576 1642.5,-576 1642.5,-576 1761.5,-576 1761.5,-576 1767.5,-576 1773.5,-582 1773.5,-588 1773.5,-588 1773.5,-600 1773.5,-600 1773.5,-606 1767.5,-612 1761.5,-612"/>
<text text-anchor="middle" x="1702" y="-591.5" font-family="sans" font-size="10.00">fetch_probability_map_L1</text>
</g>
<!-- 62&#45;&gt;61 -->
<g id="edge123" class="edge">
<title>62&#45;&gt;61</title>
<path fill="none" stroke="grey" stroke-width="2" d="M1771.84,-575.97C1813.25,-565.87 1865.88,-553.03 1908.96,-542.52"/>
<polygon fill="grey" stroke="grey" stroke-width="2" points="1909.96,-545.88 1918.85,-540.11 1908.3,-539.08 1909.96,-545.88"/>
</g>
<!-- 63 -->
<g id="node64" class="node">
<title>63</title>
<path fill="none" stroke="#d86656" stroke-width="2" d="M1928.5,-612C1928.5,-612 1803.5,-612 1803.5,-612 1797.5,-612 1791.5,-606 1791.5,-600 1791.5,-600 1791.5,-588 1791.5,-588 1791.5,-582 1797.5,-576 1803.5,-576 1803.5,-576 1928.5,-576 1928.5,-576 1934.5,-576 1940.5,-582 1940.5,-588 1940.5,-588 1940.5,-600 1940.5,-600 1940.5,-606 1934.5,-612 1928.5,-612"/>
<text text-anchor="middle" x="1866" y="-591.5" font-family="sans" font-size="10.00">fetch_probability_map_L23</text>
</g>
<!-- 63&#45;&gt;61 -->
<g id="edge124" class="edge">
<title>63&#45;&gt;61</title>
<path fill="none" stroke="grey" stroke-width="2" d="M1896.09,-575.88C1912.32,-566.64 1932.54,-555.13 1949.97,-545.21"/>
<polygon fill="grey" stroke="grey" stroke-width="2" points="1951.84,-548.18 1958.8,-540.19 1948.37,-542.09 1951.84,-548.18"/>
</g>
<!-- 64 -->
<g id="node65" class="node">
<title>64</title>
<path fill="none" stroke="#d88556" stroke-width="2" d="M2089.5,-612C2089.5,-612 1970.5,-612 1970.5,-612 1964.5,-612 1958.5,-606 1958.5,-600 1958.5,-600 1958.5,-588 1958.5,-588 1958.5,-582 1964.5,-576 1970.5,-576 1970.5,-576 2089.5,-576 2089.5,-576 2095.5,-576 2101.5,-582 2101.5,-588 2101.5,-588 2101.5,-600 2101.5,-600 2101.5,-606 2095.5,-612 2089.5,-612"/>
<text text-anchor="middle" x="2030" y="-591.5" font-family="sans" font-size="10.00">fetch_probability_map_L4</text>
</g>
<!-- 64&#45;&gt;61 -->
<g id="edge125" class="edge">
<title>64&#45;&gt;61</title>
<path fill="none" stroke="grey" stroke-width="2" d="M2019.87,-575.7C2015.15,-567.64 2009.44,-557.89 2004.22,-548.98"/>
<polygon fill="grey" stroke="grey" stroke-width="2" points="2007.09,-546.96 1999.02,-540.1 2001.05,-550.5 2007.09,-546.96"/>
</g>
<!-- 65 -->
<g id="node66" class="node">
<title>65</title>
<path fill="none" stroke="#5692d8" stroke-width="2" d="M2444.5,-612C2444.5,-612 2325.5,-612 2325.5,-612 2319.5,-612 2313.5,-606 2313.5,-600 2313.5,-600 2313.5,-588 2313.5,-588 2313.5,-582 2319.5,-576 2325.5,-576 2325.5,-576 2444.5,-576 2444.5,-576 2450.5,-576 2456.5,-582 2456.5,-588 2456.5,-588 2456.5,-600 2456.5,-600 2456.5,-606 2450.5,-612 2444.5,-612"/>
<text text-anchor="middle" x="2385" y="-591.5" font-family="sans" font-size="10.00">fetch_probability_map_L5</text>
</g>
<!-- 65&#45;&gt;61 -->
<g id="edge126" class="edge">
<title>65&#45;&gt;61</title>
<path fill="none" stroke="grey" stroke-width="2" d="M2313.07,-577.56C2310.35,-577.03 2307.65,-576.5 2305,-576 2240.04,-563.66 2167.27,-551.35 2107.95,-541.7"/>
<polygon fill="grey" stroke="grey" stroke-width="2" points="2108.23,-538.2 2097.8,-540.06 2107.11,-545.11 2108.23,-538.2"/>
</g>
<!-- 66 -->
<g id="node67" class="node">
<title>66</title>
<path fill="none" stroke="#56b1d8" stroke-width="2" d="M1413.5,-612C1413.5,-612 1294.5,-612 1294.5,-612 1288.5,-612 1282.5,-606 1282.5,-600 1282.5,-600 1282.5,-588 1282.5,-588 1282.5,-582 1288.5,-576 1294.5,-576 1294.5,-576 1413.5,-576 1413.5,-576 1419.5,-576 1425.5,-582 1425.5,-588 1425.5,-588 1425.5,-600 1425.5,-600 1425.5,-606 1419.5,-612 1413.5,-612"/>
<text text-anchor="middle" x="1354" y="-591.5" font-family="sans" font-size="10.00">fetch_probability_map_L6</text>
</g>
<!-- 66&#45;&gt;61 -->
<g id="edge127" class="edge">
<title>66&#45;&gt;61</title>
<path fill="none" stroke="grey" stroke-width="2" d="M1425.91,-577.47C1428.98,-576.95 1432.02,-576.45 1435,-576 1576.75,-554.41 1740.31,-540.04 1852.78,-531.78"/>
<polygon fill="grey" stroke="grey" stroke-width="2" points="1853.1,-535.26 1862.82,-531.05 1852.59,-528.28 1853.1,-535.26"/>
</g>
<!-- 67 -->
<g id="node68" class="node">
<title>67</title>
<path fill="none" stroke="#56d86b" stroke-width="2" d="M1600,-612C1600,-612 1456,-612 1456,-612 1450,-612 1444,-606 1444,-600 1444,-600 1444,-588 1444,-588 1444,-582 1450,-576 1456,-576 1456,-576 1600,-576 1600,-576 1606,-576 1612,-582 1612,-588 1612,-588 1612,-600 1612,-600 1612,-606 1606,-612 1600,-612"/>
<text text-anchor="middle" x="1528" y="-591.5" font-family="sans" font-size="10.00">fetch_probability_map_TH_INH</text>
</g>
<!-- 67&#45;&gt;61 -->
<g id="edge128" class="edge">
<title>67&#45;&gt;61</title>
<path fill="none" stroke="grey" stroke-width="2" d="M1612.02,-577.65C1615.39,-577.09 1618.73,-576.53 1622,-576 1698.31,-563.59 1783.79,-551.16 1853.04,-541.46"/>
<polygon fill="grey" stroke="grey" stroke-width="2" points="1853.72,-544.9 1863.14,-540.05 1852.75,-537.97 1853.72,-544.9"/>
</g>
<!-- 68&#45;&gt;61 -->
<g id="edge129" class="edge">
<title>68&#45;&gt;61</title>
<path fill="none" stroke="grey" stroke-width="2" d="M2169.08,-575.97C2135.25,-566.01 2092.38,-553.41 2056.96,-542.99"/>
<polygon fill="grey" stroke="grey" stroke-width="2" points="2057.76,-539.57 2047.18,-540.11 2055.78,-546.29 2057.76,-539.57"/>
</g>
<!-- 69&#45;&gt;60 -->
<g id="edge119" class="edge">
<title>69&#45;&gt;60</title>
<path fill="none" stroke="grey" stroke-width="2" d="M2565.94,-582.5C2461.06,-558.6 2203.35,-499.86 2070.75,-469.63"/>
<polygon fill="grey" stroke="grey" stroke-width="2" points="2071.17,-466.14 2060.64,-467.33 2069.62,-472.96 2071.17,-466.14"/>
</g>
<!-- 70 -->
<g id="node71" class="node">
<title>70</title>
<path fill="none" stroke="#d89c56" stroke-width="2" d="M2759,-684C2759,-684 2561,-684 2561,-684 2555,-684 2549,-678 2549,-672 2549,-672 2549,-660 2549,-660 2549,-654 2555,-648 2561,-648 2561,-648 2759,-648 2759,-648 2765,-648 2771,-654 2771,-660 2771,-660 2771,-672 2771,-672 2771,-678 2765,-684 2759,-684"/>
<text text-anchor="middle" x="2660" y="-663.5" font-family="sans" font-size="10.00">fetch_mapping_cortex_all_to_exc_mtypes</text>
</g>
<!-- 70&#45;&gt;69 -->
<g id="edge135" class="edge">
<title>70&#45;&gt;69</title>
<path fill="none" stroke="grey" stroke-width="2" d="M2648.13,-647.7C2642.5,-639.47 2635.65,-629.48 2629.43,-620.42"/>
<polygon fill="grey" stroke="grey" stroke-width="2" points="2632.27,-618.37 2623.73,-612.1 2626.5,-622.33 2632.27,-618.37"/>
</g>
<!-- 71&#45;&gt;58 -->
<g id="edge111" class="edge">
<title>71&#45;&gt;58</title>
<path fill="none" stroke="grey" stroke-width="2" d="M1669.03,-359.97C1636.47,-350.06 1595.26,-337.51 1561.11,-327.12"/>
<polygon fill="grey" stroke="grey" stroke-width="2" points="1561.81,-323.67 1551.22,-324.11 1559.77,-330.37 1561.81,-323.67"/>
</g>
<!-- 72&#45;&gt;0 -->
<g id="edge4" class="edge">
<title>72&#45;&gt;0</title>
<path fill="none" stroke="grey" stroke-width="2" d="M1315.94,-81.94C1202.24,-68.78 958.87,-40.62 840.07,-26.88"/>
<polygon fill="grey" stroke="grey" stroke-width="2" points="840.34,-23.38 830,-25.71 839.53,-30.34 840.34,-23.38"/>
</g>
<!-- 73&#45;&gt;72 -->
<g id="edge141" class="edge">
<title>73&#45;&gt;72</title>
<path fill="none" stroke="grey" stroke-width="2" d="M1460.99,-215.97C1445.66,-206.96 1428.29,-194.7 1416,-180 1400.84,-161.87 1390.6,-136.94 1384.43,-118.08"/>
<polygon fill="grey" stroke="grey" stroke-width="2" points="1387.7,-116.82 1381.41,-108.3 1381.01,-118.89 1387.7,-116.82"/>
</g>
<!-- 73&#45;&gt;74 -->
<g id="edge146" class="edge">
<title>73&#45;&gt;74</title>
<path fill="none" stroke="grey" stroke-width="2" d="M1505.13,-215.7C1509.85,-207.64 1515.56,-197.89 1520.78,-188.98"/>
<polygon fill="grey" stroke="grey" stroke-width="2" points="1523.95,-190.5 1525.98,-180.1 1517.91,-186.96 1523.95,-190.5"/>
</g>
<!-- 74&#45;&gt;72 -->
<g id="edge142" class="edge">
<title>74&#45;&gt;72</title>
<path fill="none" stroke="grey" stroke-width="2" d="M1497.1,-143.88C1475.37,-134.31 1448.1,-122.3 1425.04,-112.15"/>
<polygon fill="grey" stroke="grey" stroke-width="2" points="1426.33,-108.89 1415.77,-108.07 1423.51,-115.3 1426.33,-108.89"/>
</g>
</g>
</svg>
