<?xml version="1.0" encoding="UTF-8" standalone="no"?>
<!DOCTYPE svg PUBLIC "-//W3C//DTD SVG 1.1//EN"
 "http://www.w3.org/Graphics/SVG/1.1/DTD/svg11.dtd">
<!-- Generated by graphviz version 9.0.0 (20230911.1827)
 -->
<!-- Title: snakemake_dag Pages: 1 -->
<svg width="2936pt" height="1772pt"
 viewBox="0.00 0.00 2936.38 1772.00" xmlns="http://www.w3.org/2000/svg" xmlns:xlink="http://www.w3.org/1999/xlink">
<g id="graph0" class="graph" transform="scale(1 1) rotate(0) translate(4 1768)">
<title>snakemake_dag</title>
<polygon fill="white" stroke="none" points="-4,4 -4,-1768 2932.38,-1768 2932.38,4 -4,4"/>
<!-- 0 -->
<g id="node1" class="node">
<title>0</title>
<path fill="none" stroke="#56d8b1" stroke-width="2" d="M418.38,-36C418.38,-36 336.38,-36 336.38,-36 330.38,-36 324.38,-30 324.38,-24 324.38,-24 324.38,-12 324.38,-12 324.38,-6 330.38,0 336.38,0 336.38,0 418.38,0 418.38,0 424.38,0 430.38,-6 430.38,-12 430.38,-12 430.38,-24 430.38,-24 430.38,-30 424.38,-36 418.38,-36"/>
<text text-anchor="middle" x="377.38" y="-14.12" font-family="sans" font-size="10.00">push_atlas_datasets</text>
</g>
<!-- 1 -->
<g id="node2" class="node">
<title>1</title>
<path fill="none" stroke="#d88d56" stroke-width="2" d="M340.38,-324C340.38,-324 264.38,-324 264.38,-324 258.38,-324 252.38,-318 252.38,-312 252.38,-312 252.38,-300 252.38,-300 252.38,-294 258.38,-288 264.38,-288 264.38,-288 340.38,-288 340.38,-288 346.38,-288 352.38,-294 352.38,-300 352.38,-300 352.38,-312 352.38,-312 352.38,-318 346.38,-324 340.38,-324"/>
<text text-anchor="middle" x="302.38" y="-302.12" font-family="sans" font-size="10.00">push_atlas_release</text>
</g>
<!-- 1&#45;&gt;0 -->
<g id="edge1" class="edge">
<title>1&#45;&gt;0</title>
<path fill="none" stroke="grey" stroke-width="2" d="M307.07,-287.11C319.56,-239.46 353.76,-109.05 369.39,-49.45"/>
<polygon fill="grey" stroke="grey" stroke-width="2" points="372.77,-50.37 371.92,-39.81 366,-48.6 372.77,-50.37"/>
</g>
<!-- 2 -->
<g id="node3" class="node">
<title>2</title>
<path fill="none" stroke="#d8d356" stroke-width="2" d="M88.75,-396C88.75,-396 12,-396 12,-396 6,-396 0,-390 0,-384 0,-384 0,-372 0,-372 0,-366 6,-360 12,-360 12,-360 88.75,-360 88.75,-360 94.75,-360 100.75,-366 100.75,-372 100.75,-372 100.75,-384 100.75,-384 100.75,-390 94.75,-396 88.75,-396"/>
<text text-anchor="middle" x="50.38" y="-374.12" font-family="sans" font-size="10.00">export_brain_region</text>
</g>
<!-- 2&#45;&gt;1 -->
<g id="edge5" class="edge">
<title>2&#45;&gt;1</title>
<path fill="none" stroke="grey" stroke-width="2" d="M101.67,-362.75C141.41,-351.71 196.65,-336.37 239.12,-324.57"/>
<polygon fill="grey" stroke="grey" stroke-width="2" points="239.96,-327.97 248.66,-321.92 238.09,-321.22 239.96,-327.97"/>
</g>
<!-- 15 -->
<g id="node16" class="node">
<title>15</title>
<path fill="none" stroke="#5673d8" stroke-width="2" d="M194.75,-180C194.75,-180 142,-180 142,-180 136,-180 130,-174 130,-168 130,-168 130,-156 130,-156 130,-150 136,-144 142,-144 142,-144 194.75,-144 194.75,-144 200.75,-144 206.75,-150 206.75,-156 206.75,-156 206.75,-168 206.75,-168 206.75,-174 200.75,-180 194.75,-180"/>
<text text-anchor="middle" x="168.38" y="-158.12" font-family="sans" font-size="10.00">push_meshes</text>
</g>
<!-- 2&#45;&gt;15 -->
<g id="edge29" class="edge">
<title>2&#45;&gt;15</title>
<path fill="none" stroke="grey" stroke-width="2" d="M60.23,-359.12C80.58,-322.22 127.39,-237.32 152.22,-192.29"/>
<polygon fill="grey" stroke="grey" stroke-width="2" points="155.24,-194.07 157,-183.63 149.11,-190.69 155.24,-194.07"/>
</g>
<!-- 17 -->
<g id="node18" class="node">
<title>17</title>
<path fill="none" stroke="#d8ac56" stroke-width="2" d="M201.12,-324C201.12,-324 153.62,-324 153.62,-324 147.62,-324 141.62,-318 141.62,-312 141.62,-312 141.62,-300 141.62,-300 141.62,-294 147.62,-288 153.62,-288 153.62,-288 201.12,-288 201.12,-288 207.12,-288 213.12,-294 213.12,-300 213.12,-300 213.12,-312 213.12,-312 213.12,-318 207.12,-324 201.12,-324"/>
<text text-anchor="middle" x="177.38" y="-302.12" font-family="sans" font-size="10.00">push_masks</text>
</g>
<!-- 2&#45;&gt;17 -->
<g id="edge34" class="edge">
<title>2&#45;&gt;17</title>
<path fill="none" stroke="grey" stroke-width="2" d="M82.75,-359.15C98.28,-350.6 117.1,-340.22 133.85,-330.99"/>
<polygon fill="grey" stroke="grey" stroke-width="2" points="135.34,-334.17 142.41,-326.27 131.96,-328.04 135.34,-334.17"/>
</g>
<!-- 3 -->
<g id="node4" class="node">
<title>3</title>
<path fill="none" stroke="#68d856" stroke-width="2" d="M1067.62,-540C1067.62,-540 963.12,-540 963.12,-540 957.12,-540 951.12,-534 951.12,-528 951.12,-528 951.12,-516 951.12,-516 951.12,-510 957.12,-504 963.12,-504 963.12,-504 1067.62,-504 1067.62,-504 1073.62,-504 1079.62,-510 1079.62,-516 1079.62,-516 1079.62,-528 1079.62,-528 1079.62,-534 1073.62,-540 1067.62,-540"/>
<text text-anchor="middle" x="1015.38" y="-518.12" font-family="sans" font-size="10.00">split_barrel_ccfv3_l23split</text>
</g>
<!-- 3&#45;&gt;2 -->
<g id="edge11" class="edge">
<title>3&#45;&gt;2</title>
<path fill="none" stroke="grey" stroke-width="2" d="M950.34,-520.07C757.62,-516.92 198.48,-504.68 125.38,-468 99.44,-454.99 79,-428.57 66.05,-407.87"/>
<polygon fill="grey" stroke="grey" stroke-width="2" points="69.13,-406.21 61.02,-399.4 63.11,-409.78 69.13,-406.21"/>
</g>
<!-- 10 -->
<g id="node11" class="node">
<title>10</title>
<path fill="none" stroke="#88d856" stroke-width="2" d="M689.25,-468C689.25,-468 597.5,-468 597.5,-468 591.5,-468 585.5,-462 585.5,-456 585.5,-456 585.5,-444 585.5,-444 585.5,-438 591.5,-432 597.5,-432 597.5,-432 689.25,-432 689.25,-432 695.25,-432 701.25,-438 701.25,-444 701.25,-444 701.25,-456 701.25,-456 701.25,-462 695.25,-468 689.25,-468"/>
<text text-anchor="middle" x="643.38" y="-446.12" font-family="sans" font-size="10.00">validate_annotation_v3</text>
</g>
<!-- 3&#45;&gt;10 -->
<g id="edge21" class="edge">
<title>3&#45;&gt;10</title>
<path fill="none" stroke="grey" stroke-width="2" d="M950.15,-508.73C884.28,-496.33 782.8,-477.24 714.8,-464.44"/>
<polygon fill="grey" stroke="grey" stroke-width="2" points="715.53,-461.02 705.06,-462.61 714.24,-467.9 715.53,-461.02"/>
</g>
<!-- 12 -->
<g id="node13" class="node">
<title>12</title>
<path fill="none" stroke="#d8c356" stroke-width="2" d="M334,-396C334,-396 270.75,-396 270.75,-396 264.75,-396 258.75,-390 258.75,-384 258.75,-384 258.75,-372 258.75,-372 258.75,-366 264.75,-360 270.75,-360 270.75,-360 334,-360 334,-360 340,-360 346,-366 346,-372 346,-372 346,-384 346,-384 346,-390 340,-396 334,-396"/>
<text text-anchor="middle" x="302.38" y="-374.12" font-family="sans" font-size="10.00">placement_hints</text>
</g>
<!-- 3&#45;&gt;12 -->
<g id="edge24" class="edge">
<title>3&#45;&gt;12</title>
<path fill="none" stroke="grey" stroke-width="2" d="M950.16,-512.45C926.34,-509.51 899.17,-506.36 874.38,-504 760.39,-493.14 459.08,-526.04 360.38,-468 337.86,-454.76 322.51,-428.94 313.28,-408.5"/>
<polygon fill="grey" stroke="grey" stroke-width="2" points="316.57,-407.3 309.49,-399.43 310.12,-410 316.57,-407.3"/>
</g>
<!-- 18 -->
<g id="node19" class="node">
<title>18</title>
<path fill="none" stroke="#d85e56" stroke-width="2" d="M979.12,-324C979.12,-324 901.62,-324 901.62,-324 895.62,-324 889.62,-318 889.62,-312 889.62,-312 889.62,-300 889.62,-300 889.62,-294 895.62,-288 901.62,-288 901.62,-288 979.12,-288 979.12,-288 985.12,-288 991.12,-294 991.12,-300 991.12,-300 991.12,-312 991.12,-312 991.12,-318 985.12,-324 979.12,-324"/>
<text text-anchor="middle" x="940.38" y="-302.12" font-family="sans" font-size="10.00">push_glia_densities</text>
</g>
<!-- 3&#45;&gt;18 -->
<g id="edge36" class="edge">
<title>3&#45;&gt;18</title>
<path fill="none" stroke="grey" stroke-width="2" d="M1005.98,-503.26C993.72,-479.44 972.3,-435.56 959.38,-396 953.14,-376.92 948.42,-354.86 945.24,-337.48"/>
<polygon fill="grey" stroke="grey" stroke-width="2" points="948.69,-336.92 943.54,-327.67 941.8,-338.12 948.69,-336.92"/>
</g>
<!-- 19 -->
<g id="node20" class="node">
<title>19</title>
<path fill="none" stroke="#78d856" stroke-width="2" d="M1166.12,-396C1166.12,-396 980.62,-396 980.62,-396 974.62,-396 968.62,-390 968.62,-384 968.62,-384 968.62,-372 968.62,-372 968.62,-366 974.62,-360 980.62,-360 980.62,-360 1166.12,-360 1166.12,-360 1172.12,-360 1178.12,-366 1178.12,-372 1178.12,-372 1178.12,-384 1178.12,-384 1178.12,-390 1172.12,-396 1166.12,-396"/>
<text text-anchor="middle" x="1073.38" y="-374.12" font-family="sans" font-size="10.00">transplant_glia_cell_densities_correctednissl</text>
</g>
<!-- 3&#45;&gt;19 -->
<g id="edge37" class="edge">
<title>3&#45;&gt;19</title>
<path fill="none" stroke="grey" stroke-width="2" d="M1022.72,-503.02C1032.4,-479.33 1049.54,-437.35 1061.18,-408.86"/>
<polygon fill="grey" stroke="grey" stroke-width="2" points="1064.4,-410.22 1064.94,-399.64 1057.92,-407.57 1064.4,-410.22"/>
</g>
<!-- 43 -->
<g id="node44" class="node">
<title>43</title>
<path fill="none" stroke="#c6d856" stroke-width="2" d="M527.25,-324C527.25,-324 435.5,-324 435.5,-324 429.5,-324 423.5,-318 423.5,-312 423.5,-312 423.5,-300 423.5,-300 423.5,-294 429.5,-288 435.5,-288 435.5,-288 527.25,-288 527.25,-288 533.25,-288 539.25,-294 539.25,-300 539.25,-300 539.25,-312 539.25,-312 539.25,-318 533.25,-324 527.25,-324"/>
<text text-anchor="middle" x="481.38" y="-302.12" font-family="sans" font-size="10.00">push_neuron_densities</text>
</g>
<!-- 3&#45;&gt;43 -->
<g id="edge78" class="edge">
<title>3&#45;&gt;43</title>
<path fill="none" stroke="grey" stroke-width="2" d="M950.18,-513.14C827.97,-498.4 576.65,-468.08 576.38,-468 507.44,-447.39 469.29,-457.15 431.38,-396 422.94,-382.4 425.47,-374.87 431.38,-360 435.18,-350.41 441.64,-341.55 448.67,-333.93"/>
<polygon fill="grey" stroke="grey" stroke-width="2" points="450.93,-336.63 455.58,-327.11 446,-331.65 450.93,-336.63"/>
</g>
<!-- 44 -->
<g id="node45" class="node">
<title>44</title>
<path fill="none" stroke="#d85656" stroke-width="2" d="M900.12,-396C900.12,-396 642.62,-396 642.62,-396 636.62,-396 630.62,-390 630.62,-384 630.62,-384 630.62,-372 630.62,-372 630.62,-366 636.62,-360 642.62,-360 642.62,-360 900.12,-360 900.12,-360 906.12,-360 912.12,-366 912.12,-372 912.12,-372 912.12,-384 912.12,-384 912.12,-390 906.12,-396 900.12,-396"/>
<text text-anchor="middle" x="771.38" y="-374.12" font-family="sans" font-size="10.00">transplant_inhibitory_neuron_densities_linprog_correctednissl</text>
</g>
<!-- 3&#45;&gt;44 -->
<g id="edge79" class="edge">
<title>3&#45;&gt;44</title>
<path fill="none" stroke="grey" stroke-width="2" d="M984.47,-503.02C941.02,-477.73 861.75,-431.6 813.1,-403.28"/>
<polygon fill="grey" stroke="grey" stroke-width="2" points="815.05,-400.37 804.64,-398.36 811.53,-406.42 815.05,-400.37"/>
</g>
<!-- 58 -->
<g id="node59" class="node">
<title>58</title>
<path fill="none" stroke="#97d856" stroke-width="2" d="M1319.12,-324C1319.12,-324 1187.62,-324 1187.62,-324 1181.62,-324 1175.62,-318 1175.62,-312 1175.62,-312 1175.62,-300 1175.62,-300 1175.62,-294 1181.62,-288 1187.62,-288 1187.62,-288 1319.12,-288 1319.12,-288 1325.12,-288 1331.12,-294 1331.12,-300 1331.12,-300 1331.12,-312 1331.12,-312 1331.12,-318 1325.12,-324 1319.12,-324"/>
<text text-anchor="middle" x="1253.38" y="-302.12" font-family="sans" font-size="10.00">push_metype_pipeline_datasets</text>
</g>
<!-- 3&#45;&gt;58 -->
<g id="edge112" class="edge">
<title>3&#45;&gt;58</title>
<path fill="none" stroke="grey" stroke-width="2" d="M1033.76,-503.33C1054,-484.39 1087.99,-454.07 1120.38,-432 1148.31,-412.97 1161.8,-418.11 1187.38,-396 1207.26,-378.81 1224.72,-354.61 1236.68,-335.79"/>
<polygon fill="grey" stroke="grey" stroke-width="2" points="1239.55,-337.8 1241.8,-327.45 1233.58,-334.14 1239.55,-337.8"/>
</g>
<!-- 59 -->
<g id="node60" class="node">
<title>59</title>
<path fill="none" stroke="#61d856" stroke-width="2" d="M1352.38,-396C1352.38,-396 1246.38,-396 1246.38,-396 1240.38,-396 1234.38,-390 1234.38,-384 1234.38,-384 1234.38,-372 1234.38,-372 1234.38,-366 1240.38,-360 1246.38,-360 1246.38,-360 1352.38,-360 1352.38,-360 1358.38,-360 1364.38,-366 1364.38,-372 1364.38,-372 1364.38,-384 1364.38,-384 1364.38,-390 1358.38,-396 1352.38,-396"/>
<text text-anchor="middle" x="1299.38" y="-374.12" font-family="sans" font-size="10.00">transplant_excitatory_split</text>
</g>
<!-- 3&#45;&gt;59 -->
<g id="edge113" class="edge">
<title>3&#45;&gt;59</title>
<path fill="none" stroke="grey" stroke-width="2" d="M1051.34,-503.02C1102.34,-477.52 1195.74,-430.82 1252.23,-402.57"/>
<polygon fill="grey" stroke="grey" stroke-width="2" points="1253.61,-405.79 1260.99,-398.19 1250.48,-399.53 1253.61,-405.79"/>
</g>
<!-- 70 -->
<g id="node71" class="node">
<title>70</title>
<path fill="none" stroke="#56d8a9" stroke-width="2" d="M1608.75,-396C1608.75,-396 1394,-396 1394,-396 1388,-396 1382,-390 1382,-384 1382,-384 1382,-372 1382,-372 1382,-366 1388,-360 1394,-360 1394,-360 1608.75,-360 1608.75,-360 1614.75,-360 1620.75,-366 1620.75,-372 1620.75,-372 1620.75,-384 1620.75,-384 1620.75,-390 1614.75,-396 1608.75,-396"/>
<text text-anchor="middle" x="1501.38" y="-374.12" font-family="sans" font-size="10.00">transplant_mtypes_densities_from_probability_map</text>
</g>
<!-- 3&#45;&gt;70 -->
<g id="edge135" class="edge">
<title>3&#45;&gt;70</title>
<path fill="none" stroke="grey" stroke-width="2" d="M1075.07,-503.09C1104.47,-493.68 1140.21,-481.33 1171.38,-468 1203.18,-454.4 1207.77,-443.56 1240.38,-432 1281.06,-417.58 1326.77,-406.63 1368.44,-398.54"/>
<polygon fill="grey" stroke="grey" stroke-width="2" points="1369.08,-401.98 1378.26,-396.68 1367.78,-395.1 1369.08,-401.98"/>
</g>
<!-- 71 -->
<g id="node72" class="node">
<title>71</title>
<path fill="none" stroke="#a7d856" stroke-width="2" d="M1296.25,-108C1296.25,-108 1210.5,-108 1210.5,-108 1204.5,-108 1198.5,-102 1198.5,-96 1198.5,-96 1198.5,-84 1198.5,-84 1198.5,-78 1204.5,-72 1210.5,-72 1210.5,-72 1296.25,-72 1296.25,-72 1302.25,-72 1308.25,-78 1308.25,-84 1308.25,-84 1308.25,-96 1308.25,-96 1308.25,-102 1302.25,-108 1296.25,-108"/>
<text text-anchor="middle" x="1253.38" y="-86.12" font-family="sans" font-size="10.00">push_cellcomposition</text>
</g>
<!-- 3&#45;&gt;71 -->
<g id="edge139" class="edge">
<title>3&#45;&gt;71</title>
<path fill="none" stroke="grey" stroke-width="2" d="M1080.59,-508.86C1134.55,-498.6 1213.12,-483.21 1281.38,-468 1346.61,-453.47 1361.88,-445.29 1427.38,-432 1526.62,-411.86 1573.77,-459.86 1652.38,-396 1685.24,-369.3 1686.38,-349.34 1686.38,-307 1686.38,-307 1686.38,-307 1686.38,-233 1686.38,-157.24 1444.03,-115.36 1321.94,-99.07"/>
<polygon fill="grey" stroke="grey" stroke-width="2" points="1322.47,-95.61 1312.1,-97.78 1321.56,-102.55 1322.47,-95.61"/>
</g>
<!-- 73 -->
<g id="node74" class="node">
<title>73</title>
<path fill="none" stroke="#56d8d8" stroke-width="2" d="M1404.88,-180C1404.88,-180 1229.88,-180 1229.88,-180 1223.88,-180 1217.88,-174 1217.88,-168 1217.88,-168 1217.88,-156 1217.88,-156 1217.88,-150 1223.88,-144 1229.88,-144 1229.88,-144 1404.88,-144 1404.88,-144 1410.88,-144 1416.88,-150 1416.88,-156 1416.88,-156 1416.88,-168 1416.88,-168 1416.88,-174 1410.88,-180 1404.88,-180"/>
<text text-anchor="middle" x="1317.38" y="-158.12" font-family="sans" font-size="10.00">create_cellCompositionSummary_payload</text>
</g>
<!-- 3&#45;&gt;73 -->
<g id="edge143" class="edge">
<title>3&#45;&gt;73</title>
<path fill="none" stroke="grey" stroke-width="2" d="M1080.62,-505.83C1120.9,-496.03 1173.47,-482.44 1219.38,-468 1263.24,-454.2 1271.65,-442.7 1316.38,-432 1384.47,-415.7 1582.78,-448.26 1629.38,-396 1713.02,-302.18 1510.61,-221.74 1393.52,-184.73"/>
<polygon fill="grey" stroke="grey" stroke-width="2" points="1394.91,-181.5 1384.32,-181.87 1392.82,-188.18 1394.91,-181.5"/>
</g>
<!-- 4 -->
<g id="node5" class="node">
<title>4</title>
<path fill="none" stroke="#56a9d8" stroke-width="2" d="M1100.62,-612C1100.62,-612 900.12,-612 900.12,-612 894.12,-612 888.12,-606 888.12,-600 888.12,-600 888.12,-588 888.12,-588 888.12,-582 894.12,-576 900.12,-576 900.12,-576 1100.62,-576 1100.62,-576 1106.62,-576 1112.62,-582 1112.62,-588 1112.62,-588 1112.62,-600 1112.62,-600 1112.62,-606 1106.62,-612 1100.62,-612"/>
<text text-anchor="middle" x="1000.38" y="-590.12" font-family="sans" font-size="10.00">create_leaves_only_hierarchy_annotation_ccfv3</text>
</g>
<!-- 4&#45;&gt;3 -->
<g id="edge13" class="edge">
<title>4&#45;&gt;3</title>
<path fill="none" stroke="grey" stroke-width="2" d="M1004.16,-575.34C1005.59,-568.67 1007.26,-560.89 1008.86,-553.39"/>
<polygon fill="grey" stroke="grey" stroke-width="2" points="1012.23,-554.37 1010.9,-543.86 1005.39,-552.91 1012.23,-554.37"/>
</g>
<!-- 5 -->
<g id="node6" class="node">
<title>5</title>
<path fill="none" stroke="#568ad8" stroke-width="2" d="M996.5,-684C996.5,-684 870.25,-684 870.25,-684 864.25,-684 858.25,-678 858.25,-672 858.25,-672 858.25,-660 858.25,-660 858.25,-654 864.25,-648 870.25,-648 870.25,-648 996.5,-648 996.5,-648 1002.5,-648 1008.5,-654 1008.5,-660 1008.5,-660 1008.5,-672 1008.5,-672 1008.5,-678 1002.5,-684 996.5,-684"/>
<text text-anchor="middle" x="933.38" y="-662.12" font-family="sans" font-size="10.00">split_isocortex_layer_23_ccfv3</text>
</g>
<!-- 5&#45;&gt;4 -->
<g id="edge15" class="edge">
<title>5&#45;&gt;4</title>
<path fill="none" stroke="grey" stroke-width="2" d="M950.28,-647.34C957.61,-639.69 966.34,-630.56 974.46,-622.08"/>
<polygon fill="grey" stroke="grey" stroke-width="2" points="976.76,-624.73 981.15,-615.09 971.7,-619.89 976.76,-624.73"/>
</g>
<!-- 6 -->
<g id="node7" class="node">
<title>6</title>
<path fill="none" stroke="#56d8c1" stroke-width="2" d="M1000,-1692C1000,-1692 864.75,-1692 864.75,-1692 858.75,-1692 852.75,-1686 852.75,-1680 852.75,-1680 852.75,-1668 852.75,-1668 852.75,-1662 858.75,-1656 864.75,-1656 864.75,-1656 1000,-1656 1000,-1656 1006,-1656 1012,-1662 1012,-1668 1012,-1668 1012,-1680 1012,-1680 1012,-1686 1006,-1692 1000,-1692"/>
<text text-anchor="middle" x="932.38" y="-1670.12" font-family="sans" font-size="10.00">fetch_ccf_brain_region_hierarchy</text>
</g>
<!-- 6&#45;&gt;5 -->
<g id="edge16" class="edge">
<title>6&#45;&gt;5</title>
<path fill="none" stroke="grey" stroke-width="2" d="M902.09,-1655.1C866.54,-1631.53 812.38,-1586.52 812.38,-1531 812.38,-1531 812.38,-1531 812.38,-809 812.38,-768.55 806.87,-752.18 831.38,-720 840.59,-707.91 853.35,-698.32 866.73,-690.81"/>
<polygon fill="grey" stroke="grey" stroke-width="2" points="868.07,-694.06 875.36,-686.38 864.86,-687.84 868.07,-694.06"/>
</g>
<!-- 8 -->
<g id="node9" class="node">
<title>8</title>
<path fill="none" stroke="#56d89a" stroke-width="2" d="M992.62,-756C992.62,-756 852.12,-756 852.12,-756 846.12,-756 840.12,-750 840.12,-744 840.12,-744 840.12,-732 840.12,-732 840.12,-726 846.12,-720 852.12,-720 852.12,-720 992.62,-720 992.62,-720 998.62,-720 1004.62,-726 1004.62,-732 1004.62,-732 1004.62,-744 1004.62,-744 1004.62,-750 998.62,-756 992.62,-756"/>
<text text-anchor="middle" x="922.38" y="-734.12" font-family="sans" font-size="10.00">direction_vectors_isocortex_ccfv3</text>
</g>
<!-- 6&#45;&gt;8 -->
<g id="edge20" class="edge">
<title>6&#45;&gt;8</title>
<path fill="none" stroke="grey" stroke-width="2" d="M928.44,-1655.17C922.87,-1628.36 913.38,-1576.02 913.38,-1531 913.38,-1531 913.38,-1531 913.38,-881 913.38,-842.58 916.7,-798.42 919.31,-769.69"/>
<polygon fill="grey" stroke="grey" stroke-width="2" points="922.77,-770.21 920.23,-759.92 915.8,-769.55 922.77,-770.21"/>
</g>
<!-- 13 -->
<g id="node14" class="node">
<title>13</title>
<path fill="none" stroke="#56d8b1" stroke-width="2" d="M296.5,-468C296.5,-468 146.25,-468 146.25,-468 140.25,-468 134.25,-462 134.25,-456 134.25,-456 134.25,-444 134.25,-444 134.25,-438 140.25,-432 146.25,-432 146.25,-432 296.5,-432 296.5,-432 302.5,-432 308.5,-438 308.5,-444 308.5,-444 308.5,-456 308.5,-456 308.5,-462 302.5,-468 296.5,-468"/>
<text text-anchor="middle" x="221.38" y="-446.12" font-family="sans" font-size="10.00">direction_vectors_placeholder_ccfv3</text>
</g>
<!-- 6&#45;&gt;13 -->
<g id="edge26" class="edge">
<title>6&#45;&gt;13</title>
<path fill="none" stroke="grey" stroke-width="2" d="M851.83,-1664.41C721.88,-1648.28 480.38,-1607.96 480.38,-1531 480.38,-1531 480.38,-1531 480.38,-593 480.38,-549.19 365,-500.61 288.26,-473.14"/>
<polygon fill="grey" stroke="grey" stroke-width="2" points="289.75,-469.95 279.16,-469.92 287.42,-476.55 289.75,-469.95"/>
</g>
<!-- 23 -->
<g id="node24" class="node">
<title>23</title>
<path fill="none" stroke="#56d87b" stroke-width="2" d="M1389.5,-1476C1389.5,-1476 1263.25,-1476 1263.25,-1476 1257.25,-1476 1251.25,-1470 1251.25,-1464 1251.25,-1464 1251.25,-1452 1251.25,-1452 1251.25,-1446 1257.25,-1440 1263.25,-1440 1263.25,-1440 1389.5,-1440 1389.5,-1440 1395.5,-1440 1401.5,-1446 1401.5,-1452 1401.5,-1452 1401.5,-1464 1401.5,-1464 1401.5,-1470 1395.5,-1476 1389.5,-1476"/>
<text text-anchor="middle" x="1326.38" y="-1454.12" font-family="sans" font-size="10.00">split_isocortex_layer_23_ccfv2</text>
</g>
<!-- 6&#45;&gt;23 -->
<g id="edge45" class="edge">
<title>6&#45;&gt;23</title>
<path fill="none" stroke="grey" stroke-width="2" d="M934.68,-1655.01C938.1,-1635.22 946.32,-1603.62 965.38,-1584 1037.63,-1509.59 1156.32,-1479.45 1237.75,-1467.25"/>
<polygon fill="grey" stroke="grey" stroke-width="2" points="1238.08,-1470.74 1247.49,-1465.87 1237.1,-1463.81 1238.08,-1470.74"/>
</g>
<!-- 27 -->
<g id="node28" class="node">
<title>27</title>
<path fill="none" stroke="#59d856" stroke-width="2" d="M1354.75,-1548C1354.75,-1548 1164,-1548 1164,-1548 1158,-1548 1152,-1542 1152,-1536 1152,-1536 1152,-1524 1152,-1524 1152,-1518 1158,-1512 1164,-1512 1164,-1512 1354.75,-1512 1354.75,-1512 1360.75,-1512 1366.75,-1518 1366.75,-1524 1366.75,-1524 1366.75,-1536 1366.75,-1536 1366.75,-1542 1360.75,-1548 1354.75,-1548"/>
<text text-anchor="middle" x="1259.38" y="-1526.12" font-family="sans" font-size="10.00">interpolate_direction_vectors_isocortex_ccfv2</text>
</g>
<!-- 6&#45;&gt;27 -->
<g id="edge51" class="edge">
<title>6&#45;&gt;27</title>
<path fill="none" stroke="grey" stroke-width="2" d="M942.51,-1655.23C955.19,-1634.71 978.85,-1601.54 1008.38,-1584 1047.41,-1560.81 1095.15,-1547.69 1138.48,-1540.29"/>
<polygon fill="grey" stroke="grey" stroke-width="2" points="1138.86,-1543.77 1148.18,-1538.74 1137.76,-1536.86 1138.86,-1543.77"/>
</g>
<!-- 28 -->
<g id="node29" class="node">
<title>28</title>
<path fill="none" stroke="#d87556" stroke-width="2" d="M1169.62,-1620C1169.62,-1620 1029.12,-1620 1029.12,-1620 1023.12,-1620 1017.12,-1614 1017.12,-1608 1017.12,-1608 1017.12,-1596 1017.12,-1596 1017.12,-1590 1023.12,-1584 1029.12,-1584 1029.12,-1584 1169.62,-1584 1169.62,-1584 1175.62,-1584 1181.62,-1590 1181.62,-1596 1181.62,-1596 1181.62,-1608 1181.62,-1608 1181.62,-1614 1175.62,-1620 1169.62,-1620"/>
<text text-anchor="middle" x="1099.38" y="-1598.12" font-family="sans" font-size="10.00">direction_vectors_isocortex_ccfv2</text>
</g>
<!-- 6&#45;&gt;28 -->
<g id="edge55" class="edge">
<title>6&#45;&gt;28</title>
<path fill="none" stroke="grey" stroke-width="2" d="M974.95,-1655.15C996.16,-1646.26 1022.06,-1635.41 1044.73,-1625.91"/>
<polygon fill="grey" stroke="grey" stroke-width="2" points="1045.93,-1629.2 1053.8,-1622.1 1043.22,-1622.74 1045.93,-1629.2"/>
</g>
<!-- 7 -->
<g id="node8" class="node">
<title>7</title>
<path fill="none" stroke="#56d8c9" stroke-width="2" d="M1094.38,-828C1094.38,-828 970.38,-828 970.38,-828 964.38,-828 958.38,-822 958.38,-816 958.38,-816 958.38,-804 958.38,-804 958.38,-798 964.38,-792 970.38,-792 970.38,-792 1094.38,-792 1094.38,-792 1100.38,-792 1106.38,-798 1106.38,-804 1106.38,-804 1106.38,-816 1106.38,-816 1106.38,-822 1100.38,-828 1094.38,-828"/>
<text text-anchor="middle" x="1032.38" y="-806.12" font-family="sans" font-size="10.00">fetch_brain_parcellation_ccfv3</text>
</g>
<!-- 7&#45;&gt;5 -->
<g id="edge17" class="edge">
<title>7&#45;&gt;5</title>
<path fill="none" stroke="grey" stroke-width="2" d="M1032.43,-791.08C1031.66,-771.92 1027.96,-741.41 1013.38,-720 1005.77,-708.84 994.96,-699.43 983.73,-691.78"/>
<polygon fill="grey" stroke="grey" stroke-width="2" points="985.82,-688.96 975.49,-686.6 982.1,-694.89 985.82,-688.96"/>
</g>
<!-- 7&#45;&gt;8 -->
<g id="edge19" class="edge">
<title>7&#45;&gt;8</title>
<path fill="none" stroke="grey" stroke-width="2" d="M1004.33,-791.15C991.27,-782.84 975.52,-772.82 961.33,-763.79"/>
<polygon fill="grey" stroke="grey" stroke-width="2" points="963.24,-760.85 952.92,-758.44 959.48,-766.76 963.24,-760.85"/>
</g>
<!-- 7&#45;&gt;13 -->
<g id="edge27" class="edge">
<title>7&#45;&gt;13</title>
<path fill="none" stroke="grey" stroke-width="2" d="M1037.14,-791.03C1044.77,-757.72 1055.29,-686.31 1017.38,-648 972.78,-602.95 940.56,-628.56 879.38,-612 707.83,-565.57 667.3,-544.97 494.38,-504 437.63,-490.56 373.65,-478 321.9,-468.49"/>
<polygon fill="grey" stroke="grey" stroke-width="2" points="322.81,-465.09 312.34,-466.74 321.55,-471.98 322.81,-465.09"/>
</g>
<!-- 8&#45;&gt;5 -->
<g id="edge18" class="edge">
<title>8&#45;&gt;5</title>
<path fill="none" stroke="grey" stroke-width="2" d="M925.15,-719.34C926.19,-712.75 927.39,-705.08 928.56,-697.67"/>
<polygon fill="grey" stroke="grey" stroke-width="2" points="932,-698.31 930.09,-687.89 925.08,-697.23 932,-698.31"/>
</g>
<!-- 9 -->
<g id="node10" class="node">
<title>9</title>
<path fill="none" stroke="#d86656" stroke-width="2" d="M1505,-1404C1505,-1404 1417.75,-1404 1417.75,-1404 1411.75,-1404 1405.75,-1398 1405.75,-1392 1405.75,-1392 1405.75,-1380 1405.75,-1380 1405.75,-1374 1411.75,-1368 1417.75,-1368 1417.75,-1368 1505,-1368 1505,-1368 1511,-1368 1517,-1374 1517,-1380 1517,-1380 1517,-1392 1517,-1392 1517,-1398 1511,-1404 1505,-1404"/>
<text text-anchor="middle" x="1461.38" y="-1382.12" font-family="sans" font-size="10.00">fetch_barrel_positions</text>
</g>
<!-- 9&#45;&gt;3 -->
<g id="edge14" class="edge">
<title>9&#45;&gt;3</title>
<path fill="none" stroke="grey" stroke-width="2" d="M1405.09,-1384.5C1313.03,-1380.38 1140.38,-1357.41 1140.38,-1243 1140.38,-1243 1140.38,-1243 1140.38,-665 1140.38,-624.55 1146.13,-607.98 1121.38,-576 1111.93,-563.8 1098.92,-554.2 1085.25,-546.72"/>
<polygon fill="grey" stroke="grey" stroke-width="2" points="1086.88,-543.62 1076.37,-542.28 1083.75,-549.88 1086.88,-543.62"/>
</g>
<!-- 21 -->
<g id="node22" class="node">
<title>21</title>
<path fill="none" stroke="#56b9d8" stroke-width="2" d="M2063.62,-1332C2063.62,-1332 1959.12,-1332 1959.12,-1332 1953.12,-1332 1947.12,-1326 1947.12,-1320 1947.12,-1320 1947.12,-1308 1947.12,-1308 1947.12,-1302 1953.12,-1296 1959.12,-1296 1959.12,-1296 2063.62,-1296 2063.62,-1296 2069.62,-1296 2075.62,-1302 2075.62,-1308 2075.62,-1308 2075.62,-1320 2075.62,-1320 2075.62,-1326 2069.62,-1332 2063.62,-1332"/>
<text text-anchor="middle" x="2011.38" y="-1310.12" font-family="sans" font-size="10.00">split_barrel_ccfv2_l23split</text>
</g>
<!-- 9&#45;&gt;21 -->
<g id="edge43" class="edge">
<title>9&#45;&gt;21</title>
<path fill="none" stroke="grey" stroke-width="2" d="M1517.91,-1377.81C1616.79,-1365.22 1821.28,-1339.19 1933.49,-1324.91"/>
<polygon fill="grey" stroke="grey" stroke-width="2" points="1933.89,-1328.39 1943.37,-1323.66 1933,-1321.45 1933.89,-1328.39"/>
</g>
<!-- 10&#45;&gt;1 -->
<g id="edge6" class="edge">
<title>10&#45;&gt;1</title>
<path fill="none" stroke="grey" stroke-width="2" d="M584.82,-440.2C541.17,-432.26 480.81,-418.34 431.38,-396 394.93,-379.53 357.8,-352.63 332.8,-332.71"/>
<polygon fill="grey" stroke="grey" stroke-width="2" points="335.18,-330.13 325.21,-326.55 330.77,-335.57 335.18,-330.13"/>
</g>
<!-- 10&#45;&gt;2 -->
<g id="edge12" class="edge">
<title>10&#45;&gt;2</title>
<path fill="none" stroke="grey" stroke-width="2" d="M584.81,-444.02C491.86,-435.84 304.95,-418.2 147.38,-396 136.67,-394.49 125.33,-392.69 114.33,-390.83"/>
<polygon fill="grey" stroke="grey" stroke-width="2" points="115.05,-387.41 104.6,-389.16 113.86,-394.31 115.05,-387.41"/>
</g>
<!-- 11 -->
<g id="node12" class="node">
<title>11</title>
<path fill="none" stroke="#b6d856" stroke-width="2" d="M561.88,-396C561.88,-396 452.88,-396 452.88,-396 446.88,-396 440.88,-390 440.88,-384 440.88,-384 440.88,-372 440.88,-372 440.88,-366 446.88,-360 452.88,-360 452.88,-360 561.88,-360 561.88,-360 567.88,-360 573.88,-366 573.88,-372 573.88,-372 573.88,-384 573.88,-384 573.88,-390 567.88,-396 561.88,-396"/>
<text text-anchor="middle" x="507.38" y="-374.12" font-family="sans" font-size="10.00">create_hemispheres_ccfv3</text>
</g>
<!-- 10&#45;&gt;11 -->
<g id="edge22" class="edge">
<title>10&#45;&gt;11</title>
<path fill="none" stroke="grey" stroke-width="2" d="M608.7,-431.15C591.92,-422.52 571.54,-412.02 553.46,-402.72"/>
<polygon fill="grey" stroke="grey" stroke-width="2" points="555.17,-399.66 544.67,-398.2 551.96,-405.89 555.17,-399.66"/>
</g>
<!-- 10&#45;&gt;12 -->
<g id="edge23" class="edge">
<title>10&#45;&gt;12</title>
<path fill="none" stroke="grey" stroke-width="2" d="M584.76,-436.97C521.73,-424.03 422.2,-403.6 359.69,-390.76"/>
<polygon fill="grey" stroke="grey" stroke-width="2" points="360.4,-387.34 349.9,-388.76 358.99,-394.2 360.4,-387.34"/>
</g>
<!-- 10&#45;&gt;19 -->
<g id="edge39" class="edge">
<title>10&#45;&gt;19</title>
<path fill="none" stroke="grey" stroke-width="2" d="M701.81,-439.49C766.62,-428.94 872.87,-411.64 955.18,-398.24"/>
<polygon fill="grey" stroke="grey" stroke-width="2" points="955.63,-401.71 964.93,-396.65 954.5,-394.81 955.63,-401.71"/>
</g>
<!-- 10&#45;&gt;44 -->
<g id="edge81" class="edge">
<title>10&#45;&gt;44</title>
<path fill="none" stroke="grey" stroke-width="2" d="M676.01,-431.15C691.65,-422.6 710.62,-412.22 727.51,-402.99"/>
<polygon fill="grey" stroke="grey" stroke-width="2" points="729.05,-406.13 736.15,-398.26 725.69,-399.99 729.05,-406.13"/>
</g>
<!-- 10&#45;&gt;59 -->
<g id="edge115" class="edge">
<title>10&#45;&gt;59</title>
<path fill="none" stroke="grey" stroke-width="2" d="M701.85,-444.34C801.62,-436.15 1011.05,-417.95 1187.38,-396 1198.22,-394.65 1209.64,-393.08 1220.87,-391.46"/>
<polygon fill="grey" stroke="grey" stroke-width="2" points="1221.04,-394.97 1230.43,-390.05 1220.02,-388.05 1221.04,-394.97"/>
</g>
<!-- 10&#45;&gt;70 -->
<g id="edge137" class="edge">
<title>10&#45;&gt;70</title>
<path fill="none" stroke="grey" stroke-width="2" d="M702.15,-445.92C824.24,-439.28 1114.51,-422.14 1368.32,-396.49"/>
<polygon fill="grey" stroke="grey" stroke-width="2" points="1368.54,-399.98 1378.13,-395.49 1367.83,-393.02 1368.54,-399.98"/>
</g>
<!-- 10&#45;&gt;73 -->
<g id="edge144" class="edge">
<title>10&#45;&gt;73</title>
<path fill="none" stroke="grey" stroke-width="2" d="M631.01,-431.2C619.25,-411.86 605.53,-380.95 621.38,-360 691.66,-267.06 1025.79,-205.34 1204.3,-178.42"/>
<polygon fill="grey" stroke="grey" stroke-width="2" points="1204.77,-181.89 1214.14,-176.95 1203.74,-174.97 1204.77,-181.89"/>
</g>
<!-- 11&#45;&gt;1 -->
<g id="edge7" class="edge">
<title>11&#45;&gt;1</title>
<path fill="none" stroke="grey" stroke-width="2" d="M454.85,-359.06C427.55,-349.74 393.99,-338.28 365.31,-328.49"/>
<polygon fill="grey" stroke="grey" stroke-width="2" points="366.81,-325.3 356.21,-325.38 364.55,-331.93 366.81,-325.3"/>
</g>
<!-- 12&#45;&gt;1 -->
<g id="edge8" class="edge">
<title>12&#45;&gt;1</title>
<path fill="none" stroke="grey" stroke-width="2" d="M302.38,-359.34C302.38,-352.75 302.38,-345.08 302.38,-337.67"/>
<polygon fill="grey" stroke="grey" stroke-width="2" points="305.88,-337.93 302.38,-327.93 298.88,-337.93 305.88,-337.93"/>
</g>
<!-- 13&#45;&gt;1 -->
<g id="edge9" class="edge">
<title>13&#45;&gt;1</title>
<path fill="none" stroke="grey" stroke-width="2" d="M182.81,-431.08C169.03,-422.55 155.03,-410.9 147.38,-396 140.06,-381.77 138.07,-373.02 147.38,-360 158.56,-344.36 201.17,-330.45 238.89,-320.82"/>
<polygon fill="grey" stroke="grey" stroke-width="2" points="239.63,-324.24 248.5,-318.44 237.95,-317.44 239.63,-324.24"/>
</g>
<!-- 13&#45;&gt;12 -->
<g id="edge25" class="edge">
<title>13&#45;&gt;12</title>
<path fill="none" stroke="grey" stroke-width="2" d="M241.81,-431.34C250.95,-423.44 261.92,-413.96 271.99,-405.26"/>
<polygon fill="grey" stroke="grey" stroke-width="2" points="274.09,-408.07 279.37,-398.88 269.52,-402.77 274.09,-408.07"/>
</g>
<!-- 14 -->
<g id="node15" class="node">
<title>14</title>
<path fill="none" stroke="#d8cb56" stroke-width="2" d="M228.5,-396C228.5,-396 168.25,-396 168.25,-396 162.25,-396 156.25,-390 156.25,-384 156.25,-384 156.25,-372 156.25,-372 156.25,-366 162.25,-360 168.25,-360 168.25,-360 228.5,-360 228.5,-360 234.5,-360 240.5,-366 240.5,-372 240.5,-372 240.5,-384 240.5,-384 240.5,-390 234.5,-396 228.5,-396"/>
<text text-anchor="middle" x="198.38" y="-374.12" font-family="sans" font-size="10.00">orientation_field</text>
</g>
<!-- 13&#45;&gt;14 -->
<g id="edge28" class="edge">
<title>13&#45;&gt;14</title>
<path fill="none" stroke="grey" stroke-width="2" d="M215.57,-431.34C213.35,-424.59 210.76,-416.69 208.27,-409.11"/>
<polygon fill="grey" stroke="grey" stroke-width="2" points="211.65,-408.19 205.2,-399.78 205,-410.37 211.65,-408.19"/>
</g>
<!-- 14&#45;&gt;1 -->
<g id="edge10" class="edge">
<title>14&#45;&gt;1</title>
<path fill="none" stroke="grey" stroke-width="2" d="M224.89,-359.15C237.11,-350.93 251.83,-341.02 265.15,-332.06"/>
<polygon fill="grey" stroke="grey" stroke-width="2" points="267.06,-334.99 273.4,-326.5 263.15,-329.18 267.06,-334.99"/>
</g>
<!-- 15&#45;&gt;0 -->
<g id="edge2" class="edge">
<title>15&#45;&gt;0</title>
<path fill="none" stroke="grey" stroke-width="2" d="M194.84,-143.02C231.75,-117.94 298.82,-72.37 340.57,-44"/>
<polygon fill="grey" stroke="grey" stroke-width="2" points="342.31,-47.05 348.62,-38.54 338.38,-41.26 342.31,-47.05"/>
</g>
<!-- 16 -->
<g id="node17" class="node">
<title>16</title>
<path fill="none" stroke="#56b1d8" stroke-width="2" d="M534.38,-252C534.38,-252 428.38,-252 428.38,-252 422.38,-252 416.38,-246 416.38,-240 416.38,-240 416.38,-228 416.38,-228 416.38,-222 422.38,-216 428.38,-216 428.38,-216 534.38,-216 534.38,-216 540.38,-216 546.38,-222 546.38,-228 546.38,-228 546.38,-240 546.38,-240 546.38,-246 540.38,-252 534.38,-252"/>
<text text-anchor="middle" x="481.38" y="-230.12" font-family="sans" font-size="10.00">push_volumetric_datasets</text>
</g>
<!-- 16&#45;&gt;0 -->
<g id="edge3" class="edge">
<title>16&#45;&gt;0</title>
<path fill="none" stroke="grey" stroke-width="2" d="M472.69,-215.12C454.79,-178.3 413.67,-93.69 391.75,-48.58"/>
<polygon fill="grey" stroke="grey" stroke-width="2" points="394.95,-47.16 387.43,-39.7 388.66,-50.22 394.95,-47.16"/>
</g>
<!-- 17&#45;&gt;16 -->
<g id="edge30" class="edge">
<title>17&#45;&gt;16</title>
<path fill="none" stroke="grey" stroke-width="2" d="M213.98,-295.34C223.53,-292.89 233.83,-290.29 243.38,-288 296.43,-275.26 356.38,-261.92 402.85,-251.81"/>
<polygon fill="grey" stroke="grey" stroke-width="2" points="403.59,-255.23 412.62,-249.68 402.1,-248.39 403.59,-255.23"/>
</g>
<!-- 18&#45;&gt;16 -->
<g id="edge31" class="edge">
<title>18&#45;&gt;16</title>
<path fill="none" stroke="grey" stroke-width="2" d="M889.06,-297.17C809.07,-284.98 654.1,-261.34 559.97,-246.99"/>
<polygon fill="grey" stroke="grey" stroke-width="2" points="560.51,-243.53 550.1,-245.48 559.46,-250.45 560.51,-243.53"/>
</g>
<!-- 19&#45;&gt;18 -->
<g id="edge35" class="edge">
<title>19&#45;&gt;18</title>
<path fill="none" stroke="grey" stroke-width="2" d="M1039.47,-359.15C1023.13,-350.56 1003.31,-340.12 985.7,-330.85"/>
<polygon fill="grey" stroke="grey" stroke-width="2" points="987.38,-327.78 976.9,-326.22 984.12,-333.98 987.38,-327.78"/>
</g>
<!-- 20 -->
<g id="node21" class="node">
<title>20</title>
<path fill="none" stroke="#56d873" stroke-width="2" d="M2100.25,-1260C2100.25,-1260 2008.5,-1260 2008.5,-1260 2002.5,-1260 1996.5,-1254 1996.5,-1248 1996.5,-1248 1996.5,-1236 1996.5,-1236 1996.5,-1230 2002.5,-1224 2008.5,-1224 2008.5,-1224 2100.25,-1224 2100.25,-1224 2106.25,-1224 2112.25,-1230 2112.25,-1236 2112.25,-1236 2112.25,-1248 2112.25,-1248 2112.25,-1254 2106.25,-1260 2100.25,-1260"/>
<text text-anchor="middle" x="2054.38" y="-1238.12" font-family="sans" font-size="10.00">validate_annotation_v2</text>
</g>
<!-- 20&#45;&gt;19 -->
<g id="edge38" class="edge">
<title>20&#45;&gt;19</title>
<path fill="none" stroke="grey" stroke-width="2" d="M1995.63,-1230.63C1980.58,-1228.21 1964.41,-1225.81 1949.38,-1224 1849.34,-1211.94 1588.41,-1231.2 1497.38,-1188 1336.55,-1111.68 1131.68,-546.94 1083.73,-409.22"/>
<polygon fill="grey" stroke="grey" stroke-width="2" points="1087.04,-408.08 1080.46,-399.78 1080.43,-410.37 1087.04,-408.08"/>
</g>
<!-- 30 -->
<g id="node31" class="node">
<title>30</title>
<path fill="none" stroke="#56d8b9" stroke-width="2" d="M1629.88,-972C1629.88,-972 1484.88,-972 1484.88,-972 1478.88,-972 1472.88,-966 1472.88,-960 1472.88,-960 1472.88,-948 1472.88,-948 1472.88,-942 1478.88,-936 1484.88,-936 1484.88,-936 1629.88,-936 1629.88,-936 1635.88,-936 1641.88,-942 1641.88,-948 1641.88,-948 1641.88,-960 1641.88,-960 1641.88,-966 1635.88,-972 1629.88,-972"/>
<text text-anchor="middle" x="1557.38" y="-950.12" font-family="sans" font-size="10.00">validate_neuron_glia_cell_densities</text>
</g>
<!-- 20&#45;&gt;30 -->
<g id="edge56" class="edge">
<title>20&#45;&gt;30</title>
<path fill="none" stroke="grey" stroke-width="2" d="M1995.89,-1227.12C1990.66,-1226.01 1985.43,-1224.95 1980.38,-1224 1873.53,-1203.81 1835.49,-1236.91 1738.38,-1188 1657.54,-1147.29 1644.71,-1119.22 1594.38,-1044 1582.17,-1025.76 1572.76,-1002.85 1566.48,-984.84"/>
<polygon fill="grey" stroke="grey" stroke-width="2" points="1569.89,-983.99 1563.42,-975.6 1563.24,-986.19 1569.89,-983.99"/>
</g>
<!-- 31 -->
<g id="node32" class="node">
<title>31</title>
<path fill="none" stroke="#56c1d8" stroke-width="2" d="M1753.12,-1044C1753.12,-1044 1615.62,-1044 1615.62,-1044 1609.62,-1044 1603.62,-1038 1603.62,-1032 1603.62,-1032 1603.62,-1020 1603.62,-1020 1603.62,-1014 1609.62,-1008 1615.62,-1008 1615.62,-1008 1753.12,-1008 1753.12,-1008 1759.12,-1008 1765.12,-1014 1765.12,-1020 1765.12,-1020 1765.12,-1032 1765.12,-1032 1765.12,-1038 1759.12,-1044 1753.12,-1044"/>
<text text-anchor="middle" x="1684.38" y="-1022.12" font-family="sans" font-size="10.00">glia_cell_densities_correctednissl</text>
</g>
<!-- 20&#45;&gt;31 -->
<g id="edge59" class="edge">
<title>20&#45;&gt;31</title>
<path fill="none" stroke="grey" stroke-width="2" d="M1995.89,-1226.9C1991.32,-1225.89 1986.78,-1224.91 1982.38,-1224 1892.64,-1205.46 1854.66,-1240.24 1779.38,-1188 1733.34,-1156.06 1706.19,-1093.97 1693.39,-1056.93"/>
<polygon fill="grey" stroke="grey" stroke-width="2" points="1696.85,-1056.25 1690.4,-1047.84 1690.2,-1058.43 1696.85,-1056.25"/>
</g>
<!-- 32 -->
<g id="node33" class="node">
<title>32</title>
<path fill="none" stroke="#d88d56" stroke-width="2" d="M2506.75,-1116C2506.75,-1116 2424,-1116 2424,-1116 2418,-1116 2412,-1110 2412,-1104 2412,-1104 2412,-1092 2412,-1092 2412,-1086 2418,-1080 2424,-1080 2424,-1080 2506.75,-1080 2506.75,-1080 2512.75,-1080 2518.75,-1086 2518.75,-1092 2518.75,-1092 2518.75,-1104 2518.75,-1104 2518.75,-1110 2512.75,-1116 2506.75,-1116"/>
<text text-anchor="middle" x="2465.38" y="-1094.12" font-family="sans" font-size="10.00">validate_cell_density</text>
</g>
<!-- 20&#45;&gt;32 -->
<g id="edge63" class="edge">
<title>20&#45;&gt;32</title>
<path fill="none" stroke="grey" stroke-width="2" d="M2113.06,-1235.25C2163.5,-1228.67 2237.23,-1215.09 2296.38,-1188 2320.62,-1176.89 2321.34,-1165.44 2344.38,-1152 2363.66,-1140.75 2385.77,-1130.39 2405.78,-1121.87"/>
<polygon fill="grey" stroke="grey" stroke-width="2" points="2406.92,-1125.19 2414.8,-1118.11 2404.22,-1118.73 2406.92,-1125.19"/>
</g>
<!-- 33 -->
<g id="node34" class="node">
<title>33</title>
<path fill="none" stroke="#56d85b" stroke-width="2" d="M2622.25,-1188C2622.25,-1188 2512.5,-1188 2512.5,-1188 2506.5,-1188 2500.5,-1182 2500.5,-1176 2500.5,-1176 2500.5,-1164 2500.5,-1164 2500.5,-1158 2506.5,-1152 2512.5,-1152 2512.5,-1152 2622.25,-1152 2622.25,-1152 2628.25,-1152 2634.25,-1158 2634.25,-1164 2634.25,-1164 2634.25,-1176 2634.25,-1176 2634.25,-1182 2628.25,-1188 2622.25,-1188"/>
<text text-anchor="middle" x="2567.38" y="-1166.12" font-family="sans" font-size="10.00">cell_density_correctednissl</text>
</g>
<!-- 20&#45;&gt;33 -->
<g id="edge66" class="edge">
<title>20&#45;&gt;33</title>
<path fill="none" stroke="grey" stroke-width="2" d="M2112.95,-1235.41C2196.22,-1227.09 2353.5,-1210.05 2486.38,-1188 2486.65,-1187.95 2486.92,-1187.91 2487.2,-1187.86"/>
<polygon fill="grey" stroke="grey" stroke-width="2" points="2487.62,-1191.34 2496.85,-1186.15 2486.4,-1184.45 2487.62,-1191.34"/>
</g>
<!-- 36 -->
<g id="node37" class="node">
<title>36</title>
<path fill="none" stroke="#d8b456" stroke-width="2" d="M1326,-1188C1326,-1188 1256.75,-1188 1256.75,-1188 1250.75,-1188 1244.75,-1182 1244.75,-1176 1244.75,-1176 1244.75,-1164 1244.75,-1164 1244.75,-1158 1250.75,-1152 1256.75,-1152 1256.75,-1152 1326,-1152 1326,-1152 1332,-1152 1338,-1158 1338,-1164 1338,-1164 1338,-1176 1338,-1176 1338,-1182 1332,-1188 1326,-1188"/>
<text text-anchor="middle" x="1291.38" y="-1166.12" font-family="sans" font-size="10.00">combine_markers</text>
</g>
<!-- 20&#45;&gt;36 -->
<g id="edge76" class="edge">
<title>20&#45;&gt;36</title>
<path fill="none" stroke="grey" stroke-width="2" d="M1995.65,-1230.43C1980.61,-1228.01 1964.43,-1225.67 1949.38,-1224 1685.18,-1194.72 1614.54,-1231.93 1352.38,-1188 1352.1,-1187.95 1351.82,-1187.91 1351.54,-1187.86"/>
<polygon fill="grey" stroke="grey" stroke-width="2" points="1352.24,-1184.43 1341.74,-1185.86 1350.84,-1191.29 1352.24,-1184.43"/>
</g>
<!-- 20&#45;&gt;44 -->
<g id="edge80" class="edge">
<title>20&#45;&gt;44</title>
<path fill="none" stroke="grey" stroke-width="2" d="M1995.64,-1230.54C1980.59,-1228.12 1964.42,-1225.75 1949.38,-1224 1837.84,-1211.01 1551.15,-1225.68 1445.38,-1188 1267.54,-1124.65 774.38,-855.78 774.38,-667 774.38,-667 774.38,-667 774.38,-521 774.38,-482.64 773.27,-438.48 772.4,-409.72"/>
<polygon fill="grey" stroke="grey" stroke-width="2" points="775.9,-409.84 772.09,-399.96 768.91,-410.06 775.9,-409.84"/>
</g>
<!-- 45 -->
<g id="node46" class="node">
<title>45</title>
<path fill="none" stroke="#56d0d8" stroke-width="2" d="M1873.5,-684C1873.5,-684 1759.25,-684 1759.25,-684 1753.25,-684 1747.25,-678 1747.25,-672 1747.25,-672 1747.25,-660 1747.25,-660 1747.25,-654 1753.25,-648 1759.25,-648 1759.25,-648 1873.5,-648 1873.5,-648 1879.5,-648 1885.5,-654 1885.5,-660 1885.5,-660 1885.5,-672 1885.5,-672 1885.5,-678 1879.5,-684 1873.5,-684"/>
<text text-anchor="middle" x="1816.38" y="-662.12" font-family="sans" font-size="10.00">validate_inhibitory_densities</text>
</g>
<!-- 20&#45;&gt;45 -->
<g id="edge83" class="edge">
<title>20&#45;&gt;45</title>
<path fill="none" stroke="grey" stroke-width="2" d="M1995.52,-1226.88C1990.41,-1225.83 1985.31,-1224.86 1980.38,-1224 1846.32,-1200.73 1798.51,-1247.95 1676.38,-1188 1555.62,-1128.73 1515.27,-1096.51 1464.38,-972 1406.31,-829.95 1627.79,-730.89 1746.25,-689.15"/>
<polygon fill="grey" stroke="grey" stroke-width="2" points="1747.26,-692.5 1755.57,-685.92 1744.97,-685.89 1747.26,-692.5"/>
</g>
<!-- 46 -->
<g id="node47" class="node">
<title>46</title>
<path fill="none" stroke="#56d88a" stroke-width="2" d="M2694.12,-756C2694.12,-756 2484.62,-756 2484.62,-756 2478.62,-756 2472.62,-750 2472.62,-744 2472.62,-744 2472.62,-732 2472.62,-732 2472.62,-726 2478.62,-720 2484.62,-720 2484.62,-720 2694.12,-720 2694.12,-720 2700.12,-720 2706.12,-726 2706.12,-732 2706.12,-732 2706.12,-744 2706.12,-744 2706.12,-750 2700.12,-756 2694.12,-756"/>
<text text-anchor="middle" x="2589.38" y="-734.12" font-family="sans" font-size="10.00">inhibitory_neuron_densities_linprog_correctednissl</text>
</g>
<!-- 20&#45;&gt;46 -->
<g id="edge89" class="edge">
<title>20&#45;&gt;46</title>
<path fill="none" stroke="grey" stroke-width="2" d="M2113.23,-1237.63C2171.53,-1232.54 2262.28,-1219.79 2334.38,-1188 2358.78,-1177.24 2358.29,-1163.44 2382.38,-1152 2442.35,-1123.51 2473.96,-1155.44 2527.38,-1116 2594.58,-1066.38 2624.38,-1038.54 2624.38,-955 2624.38,-955 2624.38,-955 2624.38,-881 2624.38,-841.15 2611.22,-796.78 2601.04,-768.42"/>
<polygon fill="grey" stroke="grey" stroke-width="2" points="2604.46,-767.57 2597.68,-759.43 2597.9,-770.02 2604.46,-767.57"/>
</g>
<!-- 47 -->
<g id="node48" class="node">
<title>47</title>
<path fill="none" stroke="#5663d8" stroke-width="2" d="M2248.5,-828C2248.5,-828 2098.25,-828 2098.25,-828 2092.25,-828 2086.25,-822 2086.25,-816 2086.25,-816 2086.25,-804 2086.25,-804 2086.25,-798 2092.25,-792 2098.25,-792 2098.25,-792 2248.5,-792 2248.5,-792 2254.5,-792 2260.5,-798 2260.5,-804 2260.5,-804 2260.5,-816 2260.5,-816 2260.5,-822 2254.5,-828 2248.5,-828"/>
<text text-anchor="middle" x="2173.38" y="-806.12" font-family="sans" font-size="10.00">fit_average_densities_correctednissl</text>
</g>
<!-- 20&#45;&gt;47 -->
<g id="edge96" class="edge">
<title>20&#45;&gt;47</title>
<path fill="none" stroke="grey" stroke-width="2" d="M2036.82,-1223.15C1994.73,-1181.12 1883.46,-1074.48 1774.38,-1008 1739.34,-986.65 1712.03,-1006.2 1689.38,-972 1680.54,-958.66 1682.61,-950.5 1689.38,-936 1710.47,-890.83 1729.75,-884.09 1775.38,-864 1827.02,-841.26 1972.53,-826.09 2072.52,-818"/>
<polygon fill="grey" stroke="grey" stroke-width="2" points="2072.69,-821.5 2082.38,-817.22 2072.13,-814.52 2072.69,-821.5"/>
</g>
<!-- 55 -->
<g id="node56" class="node">
<title>55</title>
<path fill="none" stroke="#d85e56" stroke-width="2" d="M2470.75,-900C2470.75,-900 2334,-900 2334,-900 2328,-900 2322,-894 2322,-888 2322,-888 2322,-876 2322,-876 2322,-870 2328,-864 2334,-864 2334,-864 2470.75,-864 2470.75,-864 2476.75,-864 2482.75,-870 2482.75,-876 2482.75,-876 2482.75,-888 2482.75,-888 2482.75,-894 2476.75,-900 2470.75,-900"/>
<text text-anchor="middle" x="2402.38" y="-878.12" font-family="sans" font-size="10.00">average_densities_correctednissl</text>
</g>
<!-- 20&#45;&gt;55 -->
<g id="edge106" class="edge">
<title>20&#45;&gt;55</title>
<path fill="none" stroke="grey" stroke-width="2" d="M2082.74,-1223.18C2142.53,-1184.33 2282.79,-1086.27 2365.38,-972 2378.23,-954.21 2387.63,-931.29 2393.73,-913.16"/>
<polygon fill="grey" stroke="grey" stroke-width="2" points="2397,-914.43 2396.69,-903.84 2390.33,-912.31 2397,-914.43"/>
</g>
<!-- 20&#45;&gt;59 -->
<g id="edge114" class="edge">
<title>20&#45;&gt;59</title>
<path fill="none" stroke="grey" stroke-width="2" d="M1995.61,-1230.74C1980.57,-1228.32 1964.4,-1225.89 1949.38,-1224 1861.05,-1212.88 1629.71,-1228.4 1550.38,-1188 1463.52,-1143.77 1330.38,-965.09 1330.38,-883 1330.38,-883 1330.38,-883 1330.38,-665 1330.38,-571.47 1313.79,-461.74 1304.88,-409.55"/>
<polygon fill="grey" stroke="grey" stroke-width="2" points="1308.38,-409.23 1303.21,-399.98 1301.48,-410.43 1308.38,-409.23"/>
</g>
<!-- 60 -->
<g id="node61" class="node">
<title>60</title>
<path fill="none" stroke="#569ad8" stroke-width="2" d="M1554,-468C1554,-468 1448.75,-468 1448.75,-468 1442.75,-468 1436.75,-462 1436.75,-456 1436.75,-456 1436.75,-444 1436.75,-444 1436.75,-438 1442.75,-432 1448.75,-432 1448.75,-432 1554,-432 1554,-432 1560,-432 1566,-438 1566,-444 1566,-444 1566,-456 1566,-456 1566,-462 1560,-468 1554,-468"/>
<text text-anchor="middle" x="1501.38" y="-446.12" font-family="sans" font-size="10.00">validate_all_ME_densities</text>
</g>
<!-- 20&#45;&gt;60 -->
<g id="edge117" class="edge">
<title>20&#45;&gt;60</title>
<path fill="none" stroke="grey" stroke-width="2" d="M2113.13,-1240.98C2185.69,-1239.02 2311.63,-1229.24 2410.38,-1188 2434.98,-1177.72 2434.29,-1163.44 2458.38,-1152 2518.35,-1123.51 2544.45,-1146.6 2603.38,-1116 2669.86,-1081.48 2852.38,-905.46 2852.38,-883 2852.38,-883 2852.38,-883 2852.38,-593 2852.38,-464.16 1868.04,-451.81 1579.78,-450.96"/>
<polygon fill="grey" stroke="grey" stroke-width="2" points="1580.03,-447.46 1570.02,-450.93 1580.01,-454.46 1580.03,-447.46"/>
</g>
<!-- 61 -->
<g id="node62" class="node">
<title>61</title>
<path fill="none" stroke="#80d856" stroke-width="2" d="M2318.88,-540C2318.88,-540 2119.88,-540 2119.88,-540 2113.88,-540 2107.88,-534 2107.88,-528 2107.88,-528 2107.88,-516 2107.88,-516 2107.88,-510 2113.88,-504 2119.88,-504 2119.88,-504 2318.88,-504 2318.88,-504 2324.88,-504 2330.88,-510 2330.88,-516 2330.88,-516 2330.88,-528 2330.88,-528 2330.88,-534 2324.88,-540 2318.88,-540"/>
<text text-anchor="middle" x="2219.38" y="-518.12" font-family="sans" font-size="10.00">create_mtypes_densities_from_probability_map</text>
</g>
<!-- 20&#45;&gt;61 -->
<g id="edge122" class="edge">
<title>20&#45;&gt;61</title>
<path fill="none" stroke="grey" stroke-width="2" d="M2112.98,-1239.51C2178.61,-1235.98 2286.96,-1224.55 2372.38,-1188 2396.89,-1177.51 2396.31,-1163.48 2420.38,-1152 2479.53,-1123.78 2507.75,-1150.66 2563.38,-1116 2695.27,-1033.81 2734.38,-966.41 2734.38,-811 2734.38,-811 2734.38,-811 2734.38,-665 2734.38,-612.4 2702.88,-600.56 2656.38,-576 2603.88,-548.28 2454.18,-534.68 2344.57,-528.28"/>
<polygon fill="grey" stroke="grey" stroke-width="2" points="2344.95,-524.8 2334.77,-527.72 2344.56,-531.78 2344.95,-524.8"/>
</g>
<!-- 68 -->
<g id="node69" class="node">
<title>68</title>
<path fill="none" stroke="#56a2d8" stroke-width="2" d="M1473.38,-612C1473.38,-612 1415.38,-612 1415.38,-612 1409.38,-612 1403.38,-606 1403.38,-600 1403.38,-600 1403.38,-588 1403.38,-588 1403.38,-582 1409.38,-576 1415.38,-576 1415.38,-576 1473.38,-576 1473.38,-576 1479.38,-576 1485.38,-582 1485.38,-588 1485.38,-588 1485.38,-600 1485.38,-600 1485.38,-606 1479.38,-612 1473.38,-612"/>
<text text-anchor="middle" x="1444.38" y="-590.12" font-family="sans" font-size="10.00">excitatory_split</text>
</g>
<!-- 20&#45;&gt;68 -->
<g id="edge132" class="edge">
<title>20&#45;&gt;68</title>
<path fill="none" stroke="grey" stroke-width="2" d="M1995.6,-1230.89C1980.55,-1228.46 1964.39,-1226 1949.38,-1224 1753.63,-1197.93 1646.94,-1265.9 1518.38,-1116 1393.61,-970.52 1423.63,-713.62 1438.54,-625.59"/>
<polygon fill="grey" stroke="grey" stroke-width="2" points="1441.95,-626.4 1440.25,-615.94 1435.06,-625.18 1441.95,-626.4"/>
</g>
<!-- 20&#45;&gt;70 -->
<g id="edge136" class="edge">
<title>20&#45;&gt;70</title>
<path fill="none" stroke="grey" stroke-width="2" d="M2113.09,-1237.12C2207.78,-1230.19 2389.57,-1213.94 2448.38,-1188 2471.18,-1177.94 2469.1,-1163.19 2491.38,-1152 2553.03,-1121.03 2578.96,-1143.18 2642.38,-1116 2763.16,-1064.23 2890.38,-1086.41 2890.38,-955 2890.38,-955 2890.38,-955 2890.38,-521 2890.38,-395.55 1982.08,-380.13 1634.48,-378.83"/>
<polygon fill="grey" stroke="grey" stroke-width="2" points="1634.64,-375.33 1624.63,-378.8 1634.62,-382.33 1634.64,-375.33"/>
</g>
<!-- 21&#45;&gt;20 -->
<g id="edge41" class="edge">
<title>21&#45;&gt;20</title>
<path fill="none" stroke="grey" stroke-width="2" d="M2022.23,-1295.34C2026.62,-1288.18 2031.81,-1279.73 2036.73,-1271.73"/>
<polygon fill="grey" stroke="grey" stroke-width="2" points="2039.54,-1273.83 2041.79,-1263.48 2033.58,-1270.17 2039.54,-1273.83"/>
</g>
<!-- 21&#45;&gt;31 -->
<g id="edge58" class="edge">
<title>21&#45;&gt;31</title>
<path fill="none" stroke="grey" stroke-width="2" d="M2004.07,-1295.06C1994.66,-1274.38 1976.24,-1241.06 1949.38,-1224 1869.06,-1173.01 1816,-1242.99 1738.38,-1188 1696.9,-1158.62 1686.8,-1095.79 1684.62,-1057.89"/>
<polygon fill="grey" stroke="grey" stroke-width="2" points="1688.12,-1057.82 1684.25,-1047.96 1681.13,-1058.09 1688.12,-1057.82"/>
</g>
<!-- 21&#45;&gt;33 -->
<g id="edge65" class="edge">
<title>21&#45;&gt;33</title>
<path fill="none" stroke="grey" stroke-width="2" d="M2076.51,-1310.82C2211.85,-1305.69 2513.82,-1290.89 2548.38,-1260 2564.47,-1245.61 2568.8,-1221.22 2569.33,-1201.61"/>
<polygon fill="grey" stroke="grey" stroke-width="2" points="2572.83,-1201.67 2569.22,-1191.71 2565.83,-1201.75 2572.83,-1201.67"/>
</g>
<!-- 21&#45;&gt;36 -->
<g id="edge75" class="edge">
<title>21&#45;&gt;36</title>
<path fill="none" stroke="grey" stroke-width="2" d="M1946.51,-1309.01C1850.91,-1302.32 1677.45,-1286.86 1621.38,-1260 1600.39,-1249.95 1604.26,-1234.25 1583.38,-1224 1490.11,-1178.2 1453.93,-1209.98 1352.38,-1188 1351.96,-1187.91 1351.55,-1187.82 1351.13,-1187.73"/>
<polygon fill="grey" stroke="grey" stroke-width="2" points="1352.34,-1184.42 1341.81,-1185.51 1350.73,-1191.23 1352.34,-1184.42"/>
</g>
<!-- 21&#45;&gt;45 -->
<g id="edge85" class="edge">
<title>21&#45;&gt;45</title>
<path fill="none" stroke="grey" stroke-width="2" d="M1946.42,-1313.51C1768.53,-1314.25 1283.45,-1311.47 1235.38,-1260 1137.18,-1154.87 1462.1,-781 1592.38,-720 1599.07,-716.86 1672.94,-699.63 1734.05,-685.65"/>
<polygon fill="grey" stroke="grey" stroke-width="2" points="1734.55,-689.13 1743.52,-683.49 1732.99,-682.3 1734.55,-689.13"/>
</g>
<!-- 21&#45;&gt;46 -->
<g id="edge88" class="edge">
<title>21&#45;&gt;46</title>
<path fill="none" stroke="grey" stroke-width="2" d="M2076.5,-1311.69C2252.04,-1307.71 2725.89,-1293.92 2787.38,-1260 2830.26,-1236.34 2852.38,-1219.98 2852.38,-1171 2852.38,-1171 2852.38,-1171 2852.38,-1097 2852.38,-946.25 2699.05,-817 2626.54,-764.3"/>
<polygon fill="grey" stroke="grey" stroke-width="2" points="2628.67,-761.52 2618.5,-758.56 2624.6,-767.22 2628.67,-761.52"/>
</g>
<!-- 21&#45;&gt;47 -->
<g id="edge95" class="edge">
<title>21&#45;&gt;47</title>
<path fill="none" stroke="grey" stroke-width="2" d="M2076.46,-1311.47C2246.03,-1307.05 2692.33,-1292.43 2750.38,-1260 2792.91,-1236.24 2814.38,-1219.72 2814.38,-1171 2814.38,-1171 2814.38,-1171 2814.38,-1097 2814.38,-863.42 2455.03,-819.29 2274.44,-811.86"/>
<polygon fill="grey" stroke="grey" stroke-width="2" points="2274.64,-808.36 2264.52,-811.49 2274.38,-815.36 2274.64,-808.36"/>
</g>
<!-- 21&#45;&gt;55 -->
<g id="edge105" class="edge">
<title>21&#45;&gt;55</title>
<path fill="none" stroke="grey" stroke-width="2" d="M2076.6,-1313.05C2243.54,-1312.5 2676.17,-1306.56 2719.38,-1260 2763.26,-1212.71 2859.27,-1180.86 2567.38,-936 2554.54,-925.24 2521.67,-913.81 2488.61,-904.34"/>
<polygon fill="grey" stroke="grey" stroke-width="2" points="2489.95,-901.08 2479.37,-901.75 2488.06,-907.82 2489.95,-901.08"/>
</g>
<!-- 21&#45;&gt;61 -->
<g id="edge121" class="edge">
<title>21&#45;&gt;61</title>
<path fill="none" stroke="grey" stroke-width="2" d="M2076.36,-1311.14C2257.09,-1305.65 2756.86,-1288.07 2825.38,-1260 2881.36,-1237.06 2928.38,-1231.5 2928.38,-1171 2928.38,-1171 2928.38,-1171 2928.38,-881 2928.38,-711.49 2846.62,-659.99 2699.38,-576 2640.78,-542.58 2466.17,-530.23 2344.56,-525.67"/>
<polygon fill="grey" stroke="grey" stroke-width="2" points="2345,-522.18 2334.88,-525.32 2344.75,-529.18 2345,-522.18"/>
</g>
<!-- 21&#45;&gt;68 -->
<g id="edge131" class="edge">
<title>21&#45;&gt;68</title>
<path fill="none" stroke="grey" stroke-width="2" d="M1946.3,-1313.64C1764.97,-1314.76 1263.94,-1312.97 1214.38,-1260 1032.61,-1065.75 1326.52,-720.77 1418.36,-622.06"/>
<polygon fill="grey" stroke="grey" stroke-width="2" points="1420.71,-624.67 1425.01,-614.99 1415.61,-619.88 1420.71,-624.67"/>
</g>
<!-- 22 -->
<g id="node23" class="node">
<title>22</title>
<path fill="none" stroke="#d88556" stroke-width="2" d="M1907.62,-1404C1907.62,-1404 1707.12,-1404 1707.12,-1404 1701.12,-1404 1695.12,-1398 1695.12,-1392 1695.12,-1392 1695.12,-1380 1695.12,-1380 1695.12,-1374 1701.12,-1368 1707.12,-1368 1707.12,-1368 1907.62,-1368 1907.62,-1368 1913.62,-1368 1919.62,-1374 1919.62,-1380 1919.62,-1380 1919.62,-1392 1919.62,-1392 1919.62,-1398 1913.62,-1404 1907.62,-1404"/>
<text text-anchor="middle" x="1807.38" y="-1382.12" font-family="sans" font-size="10.00">create_leaves_only_hierarchy_annotation_ccfv2</text>
</g>
<!-- 22&#45;&gt;21 -->
<g id="edge42" class="edge">
<title>22&#45;&gt;21</title>
<path fill="none" stroke="grey" stroke-width="2" d="M1859.65,-1367.06C1886.28,-1357.93 1918.9,-1346.73 1947.06,-1337.07"/>
<polygon fill="grey" stroke="grey" stroke-width="2" points="1948.05,-1340.43 1956.38,-1333.87 1945.78,-1333.81 1948.05,-1340.43"/>
</g>
<!-- 23&#45;&gt;22 -->
<g id="edge44" class="edge">
<title>23&#45;&gt;22</title>
<path fill="none" stroke="grey" stroke-width="2" d="M1402.33,-1445.95C1477.14,-1435.06 1592.77,-1418.23 1681.36,-1405.34"/>
<polygon fill="grey" stroke="grey" stroke-width="2" points="1681.84,-1408.81 1691.23,-1403.9 1680.83,-1401.88 1681.84,-1408.81"/>
</g>
<!-- 24 -->
<g id="node25" class="node">
<title>24</title>
<path fill="none" stroke="#d8b456" stroke-width="2" d="M1406.38,-1692C1406.38,-1692 1306.38,-1692 1306.38,-1692 1300.38,-1692 1294.38,-1686 1294.38,-1680 1294.38,-1680 1294.38,-1668 1294.38,-1668 1294.38,-1662 1300.38,-1656 1306.38,-1656 1306.38,-1656 1406.38,-1656 1406.38,-1656 1412.38,-1656 1418.38,-1662 1418.38,-1668 1418.38,-1668 1418.38,-1680 1418.38,-1680 1418.38,-1686 1412.38,-1692 1406.38,-1692"/>
<text text-anchor="middle" x="1356.38" y="-1670.12" font-family="sans" font-size="10.00">combine_v2_annotations</text>
</g>
<!-- 24&#45;&gt;23 -->
<g id="edge46" class="edge">
<title>24&#45;&gt;23</title>
<path fill="none" stroke="grey" stroke-width="2" d="M1363.77,-1655.39C1375.37,-1625 1394.66,-1561.27 1375.38,-1512 1371.62,-1502.4 1365.21,-1493.5 1358.26,-1485.83"/>
<polygon fill="grey" stroke="grey" stroke-width="2" points="1360.97,-1483.6 1351.43,-1478.98 1356.01,-1488.54 1360.97,-1483.6"/>
</g>
<!-- 24&#45;&gt;27 -->
<g id="edge50" class="edge">
<title>24&#45;&gt;27</title>
<path fill="none" stroke="grey" stroke-width="2" d="M1356.38,-1655.11C1355.57,-1635.98 1351.84,-1605.5 1337.38,-1584 1329.9,-1572.88 1319.23,-1563.46 1308.17,-1555.78"/>
<polygon fill="grey" stroke="grey" stroke-width="2" points="1310.4,-1553.05 1300.09,-1550.59 1306.61,-1558.94 1310.4,-1553.05"/>
</g>
<!-- 24&#45;&gt;28 -->
<g id="edge54" class="edge">
<title>24&#45;&gt;28</title>
<path fill="none" stroke="grey" stroke-width="2" d="M1293.51,-1655.88C1258.53,-1646.35 1214.68,-1634.41 1177.51,-1624.28"/>
<polygon fill="grey" stroke="grey" stroke-width="2" points="1178.67,-1620.97 1168.1,-1621.72 1176.83,-1627.72 1178.67,-1620.97"/>
</g>
<!-- 25 -->
<g id="node26" class="node">
<title>25</title>
<path fill="none" stroke="#d6d856" stroke-width="2" d="M1335.38,-1764C1335.38,-1764 1211.38,-1764 1211.38,-1764 1205.38,-1764 1199.38,-1758 1199.38,-1752 1199.38,-1752 1199.38,-1740 1199.38,-1740 1199.38,-1734 1205.38,-1728 1211.38,-1728 1211.38,-1728 1335.38,-1728 1335.38,-1728 1341.38,-1728 1347.38,-1734 1347.38,-1740 1347.38,-1740 1347.38,-1752 1347.38,-1752 1347.38,-1758 1341.38,-1764 1335.38,-1764"/>
<text text-anchor="middle" x="1273.38" y="-1742.12" font-family="sans" font-size="10.00">fetch_brain_parcellation_ccfv2</text>
</g>
<!-- 25&#45;&gt;24 -->
<g id="edge48" class="edge">
<title>25&#45;&gt;24</title>
<path fill="none" stroke="grey" stroke-width="2" d="M1294.32,-1727.34C1303.68,-1719.44 1314.92,-1709.96 1325.24,-1701.26"/>
<polygon fill="grey" stroke="grey" stroke-width="2" points="1327.45,-1703.98 1332.83,-1694.85 1322.93,-1698.62 1327.45,-1703.98"/>
</g>
<!-- 26 -->
<g id="node27" class="node">
<title>26</title>
<path fill="none" stroke="#56d86b" stroke-width="2" d="M1499.25,-1764C1499.25,-1764 1377.5,-1764 1377.5,-1764 1371.5,-1764 1365.5,-1758 1365.5,-1752 1365.5,-1752 1365.5,-1740 1365.5,-1740 1365.5,-1734 1371.5,-1728 1377.5,-1728 1377.5,-1728 1499.25,-1728 1499.25,-1728 1505.25,-1728 1511.25,-1734 1511.25,-1740 1511.25,-1740 1511.25,-1752 1511.25,-1752 1511.25,-1758 1505.25,-1764 1499.25,-1764"/>
<text text-anchor="middle" x="1438.38" y="-1742.12" font-family="sans" font-size="10.00">fetch_fiber_parcellation_ccfv2</text>
</g>
<!-- 26&#45;&gt;24 -->
<g id="edge49" class="edge">
<title>26&#45;&gt;24</title>
<path fill="none" stroke="grey" stroke-width="2" d="M1417.68,-1727.34C1408.43,-1719.44 1397.33,-1709.96 1387.14,-1701.26"/>
<polygon fill="grey" stroke="grey" stroke-width="2" points="1389.53,-1698.7 1379.65,-1694.87 1384.98,-1704.02 1389.53,-1698.7"/>
</g>
<!-- 27&#45;&gt;23 -->
<g id="edge47" class="edge">
<title>27&#45;&gt;23</title>
<path fill="none" stroke="grey" stroke-width="2" d="M1276.28,-1511.34C1283.61,-1503.69 1292.34,-1494.56 1300.46,-1486.08"/>
<polygon fill="grey" stroke="grey" stroke-width="2" points="1302.76,-1488.73 1307.15,-1479.09 1297.7,-1483.89 1302.76,-1488.73"/>
</g>
<!-- 28&#45;&gt;27 -->
<g id="edge52" class="edge">
<title>28&#45;&gt;27</title>
<path fill="none" stroke="grey" stroke-width="2" d="M1140.16,-1583.15C1160.4,-1574.3 1185.08,-1563.51 1206.72,-1554.04"/>
<polygon fill="grey" stroke="grey" stroke-width="2" points="1207.85,-1557.36 1215.61,-1550.15 1205.05,-1550.95 1207.85,-1557.36"/>
</g>
<!-- 29 -->
<g id="node30" class="node">
<title>29</title>
<path fill="none" stroke="#56d88a" stroke-width="2" d="M1316.62,-1620C1316.62,-1620 1212.12,-1620 1212.12,-1620 1206.12,-1620 1200.12,-1614 1200.12,-1608 1200.12,-1608 1200.12,-1596 1200.12,-1596 1200.12,-1590 1206.12,-1584 1212.12,-1584 1212.12,-1584 1316.62,-1584 1316.62,-1584 1322.62,-1584 1328.62,-1590 1328.62,-1596 1328.62,-1596 1328.62,-1608 1328.62,-1608 1328.62,-1614 1322.62,-1620 1316.62,-1620"/>
<text text-anchor="middle" x="1264.38" y="-1598.12" font-family="sans" font-size="10.00">fetch_isocortex_metadata</text>
</g>
<!-- 29&#45;&gt;27 -->
<g id="edge53" class="edge">
<title>29&#45;&gt;27</title>
<path fill="none" stroke="grey" stroke-width="2" d="M1263.11,-1583.34C1262.64,-1576.75 1262.09,-1569.08 1261.57,-1561.67"/>
<polygon fill="grey" stroke="grey" stroke-width="2" points="1265.07,-1561.65 1260.87,-1551.92 1258.09,-1562.15 1265.07,-1561.65"/>
</g>
<!-- 30&#45;&gt;19 -->
<g id="edge40" class="edge">
<title>30&#45;&gt;19</title>
<path fill="none" stroke="grey" stroke-width="2" d="M1539.59,-935.02C1492.55,-885.46 1368.38,-740.84 1368.38,-595 1368.38,-595 1368.38,-595 1368.38,-521 1368.38,-438.64 1273.86,-404.02 1191.82,-389.48"/>
<polygon fill="grey" stroke="grey" stroke-width="2" points="1192.47,-386.04 1182.03,-387.86 1191.32,-392.95 1192.47,-386.04"/>
</g>
<!-- 30&#45;&gt;45 -->
<g id="edge87" class="edge">
<title>30&#45;&gt;45</title>
<path fill="none" stroke="grey" stroke-width="2" d="M1557.27,-935.01C1557.93,-916.08 1561.23,-886.02 1574.38,-864 1621.94,-784.31 1714.22,-723.05 1770.07,-691.25"/>
<polygon fill="grey" stroke="grey" stroke-width="2" points="1771.74,-694.32 1778.76,-686.39 1768.32,-688.21 1771.74,-694.32"/>
</g>
<!-- 30&#45;&gt;46 -->
<g id="edge90" class="edge">
<title>30&#45;&gt;46</title>
<path fill="none" stroke="grey" stroke-width="2" d="M1562.85,-935.04C1570.15,-914.34 1585.18,-880.99 1610.38,-864 1746.14,-772.44 2224.92,-747.92 2458.82,-741.37"/>
<polygon fill="grey" stroke="grey" stroke-width="2" points="2458.89,-744.87 2468.8,-741.1 2458.7,-737.88 2458.89,-744.87"/>
</g>
<!-- 30&#45;&gt;47 -->
<g id="edge97" class="edge">
<title>30&#45;&gt;47</title>
<path fill="none" stroke="grey" stroke-width="2" d="M1574.88,-935.17C1598.4,-911.66 1639.43,-872.29 1658.38,-864 1730.32,-832.52 1944.01,-819.32 2072.41,-814.11"/>
<polygon fill="grey" stroke="grey" stroke-width="2" points="2072.45,-817.62 2082.31,-813.72 2072.18,-810.62 2072.45,-817.62"/>
</g>
<!-- 30&#45;&gt;55 -->
<g id="edge108" class="edge">
<title>30&#45;&gt;55</title>
<path fill="none" stroke="grey" stroke-width="2" d="M1642.84,-941.1C1658.31,-939.2 1674.31,-937.4 1689.38,-936 1961.79,-910.63 2035.47,-933.42 2308.7,-900.48"/>
<polygon fill="grey" stroke="grey" stroke-width="2" points="2308.93,-903.98 2318.44,-899.29 2308.08,-897.03 2308.93,-903.98"/>
</g>
<!-- 30&#45;&gt;68 -->
<g id="edge133" class="edge">
<title>30&#45;&gt;68</title>
<path fill="none" stroke="grey" stroke-width="2" d="M1551.77,-935.25C1533.66,-877.87 1476.56,-696.97 1453.84,-624.98"/>
<polygon fill="grey" stroke="grey" stroke-width="2" points="1457.27,-624.23 1450.92,-615.75 1450.6,-626.34 1457.27,-624.23"/>
</g>
<!-- 31&#45;&gt;30 -->
<g id="edge57" class="edge">
<title>31&#45;&gt;30</title>
<path fill="none" stroke="grey" stroke-width="2" d="M1652,-1007.15C1636.47,-998.6 1617.65,-988.22 1600.9,-978.99"/>
<polygon fill="grey" stroke="grey" stroke-width="2" points="1602.79,-976.04 1592.34,-974.27 1599.41,-982.17 1602.79,-976.04"/>
</g>
<!-- 32&#45;&gt;31 -->
<g id="edge60" class="edge">
<title>32&#45;&gt;31</title>
<path fill="none" stroke="grey" stroke-width="2" d="M2411.27,-1087.37C2394.95,-1084.7 2376.97,-1081.99 2360.38,-1080 2153.51,-1055.19 1909.58,-1039.35 1778.71,-1031.94"/>
<polygon fill="grey" stroke="grey" stroke-width="2" points="1779.22,-1028.46 1769.04,-1031.4 1778.82,-1035.45 1779.22,-1028.46"/>
</g>
<!-- 32&#45;&gt;45 -->
<g id="edge86" class="edge">
<title>32&#45;&gt;45</title>
<path fill="none" stroke="grey" stroke-width="2" d="M2486.76,-1079.34C2511.66,-1057.26 2551.4,-1016.86 2567.38,-972 2587.07,-916.71 2541.84,-893.97 2491.38,-864 2297.5,-748.83 2031.96,-697.3 1899.13,-677.53"/>
<polygon fill="grey" stroke="grey" stroke-width="2" points="1899.7,-674.07 1889.3,-676.09 1898.69,-681 1899.7,-674.07"/>
</g>
<!-- 32&#45;&gt;55 -->
<g id="edge107" class="edge">
<title>32&#45;&gt;55</title>
<path fill="none" stroke="grey" stroke-width="2" d="M2460.11,-1079.12C2449.34,-1042.54 2424.68,-958.77 2411.34,-913.45"/>
<polygon fill="grey" stroke="grey" stroke-width="2" points="2414.7,-912.49 2408.52,-903.88 2407.99,-914.46 2414.7,-912.49"/>
</g>
<!-- 33&#45;&gt;32 -->
<g id="edge64" class="edge">
<title>33&#45;&gt;32</title>
<path fill="none" stroke="grey" stroke-width="2" d="M2541.37,-1151.15C2529.38,-1142.93 2514.95,-1133.02 2501.89,-1124.06"/>
<polygon fill="grey" stroke="grey" stroke-width="2" points="2504.05,-1121.3 2493.83,-1118.53 2500.09,-1127.07 2504.05,-1121.3"/>
</g>
<!-- 34 -->
<g id="node35" class="node">
<title>34</title>
<path fill="none" stroke="#567bd8" stroke-width="2" d="M2527.62,-1260C2527.62,-1260 2369.12,-1260 2369.12,-1260 2363.12,-1260 2357.12,-1254 2357.12,-1248 2357.12,-1248 2357.12,-1236 2357.12,-1236 2357.12,-1230 2363.12,-1224 2369.12,-1224 2369.12,-1224 2527.62,-1224 2527.62,-1224 2533.62,-1224 2539.62,-1230 2539.62,-1236 2539.62,-1236 2539.62,-1248 2539.62,-1248 2539.62,-1254 2533.62,-1260 2527.62,-1260"/>
<text text-anchor="middle" x="2448.38" y="-1238.12" font-family="sans" font-size="10.00">fetch_corrected_nissl_stained_volume</text>
</g>
<!-- 34&#45;&gt;33 -->
<g id="edge67" class="edge">
<title>34&#45;&gt;33</title>
<path fill="none" stroke="grey" stroke-width="2" d="M2478.71,-1223.15C2493.12,-1214.68 2510.56,-1204.42 2526.14,-1195.25"/>
<polygon fill="grey" stroke="grey" stroke-width="2" points="2527.64,-1198.43 2534.48,-1190.35 2524.09,-1192.4 2527.64,-1198.43"/>
</g>
<!-- 35 -->
<g id="node36" class="node">
<title>35</title>
<path fill="none" stroke="#56d8c9" stroke-width="2" d="M2698.38,-1260C2698.38,-1260 2616.38,-1260 2616.38,-1260 2610.38,-1260 2604.38,-1254 2604.38,-1248 2604.38,-1248 2604.38,-1236 2604.38,-1236 2604.38,-1230 2610.38,-1224 2616.38,-1224 2616.38,-1224 2698.38,-1224 2698.38,-1224 2704.38,-1224 2710.38,-1230 2710.38,-1236 2710.38,-1236 2710.38,-1248 2710.38,-1248 2710.38,-1254 2704.38,-1260 2698.38,-1260"/>
<text text-anchor="middle" x="2657.38" y="-1238.12" font-family="sans" font-size="10.00">fetch_regions_config</text>
</g>
<!-- 35&#45;&gt;31 -->
<g id="edge62" class="edge">
<title>35&#45;&gt;31</title>
<path fill="none" stroke="grey" stroke-width="2" d="M2660.22,-1223.18C2662.35,-1202.93 2662.2,-1170.33 2643.38,-1152 2635.63,-1144.46 2018.88,-1068.05 1778.66,-1038.54"/>
<polygon fill="grey" stroke="grey" stroke-width="2" points="1779.14,-1035.08 1768.79,-1037.33 1778.29,-1042.02 1779.14,-1035.08"/>
</g>
<!-- 35&#45;&gt;33 -->
<g id="edge68" class="edge">
<title>35&#45;&gt;33</title>
<path fill="none" stroke="grey" stroke-width="2" d="M2634.66,-1223.34C2624.3,-1215.27 2611.82,-1205.57 2600.44,-1196.72"/>
<polygon fill="grey" stroke="grey" stroke-width="2" points="2602.82,-1194.14 2592.78,-1190.76 2598.53,-1199.66 2602.82,-1194.14"/>
</g>
<!-- 35&#45;&gt;47 -->
<g id="edge100" class="edge">
<title>35&#45;&gt;47</title>
<path fill="none" stroke="grey" stroke-width="2" d="M2662.12,-1223.08C2666.18,-1204.96 2670.62,-1176.26 2665.38,-1152 2643.09,-1048.96 2628.56,-1021.85 2567.38,-936 2560.62,-926.53 2501.79,-869.18 2491.38,-864 2423.73,-830.34 2339,-817.44 2274.01,-812.77"/>
<polygon fill="grey" stroke="grey" stroke-width="2" points="2274.51,-809.29 2264.31,-812.13 2274.06,-816.28 2274.51,-809.29"/>
</g>
<!-- 36&#45;&gt;31 -->
<g id="edge61" class="edge">
<title>36&#45;&gt;31</title>
<path fill="none" stroke="grey" stroke-width="2" d="M1321.76,-1151.06C1356.29,-1131.31 1414.8,-1099.75 1468.38,-1080 1507.52,-1065.57 1552.1,-1053.87 1590.56,-1045.18"/>
<polygon fill="grey" stroke="grey" stroke-width="2" points="1590.85,-1048.7 1599.86,-1043.12 1589.34,-1041.87 1590.85,-1048.7"/>
</g>
<!-- 37 -->
<g id="node38" class="node">
<title>37</title>
<path fill="none" stroke="#56d892" stroke-width="2" d="M1718.38,-1260C1718.38,-1260 1642.38,-1260 1642.38,-1260 1636.38,-1260 1630.38,-1254 1630.38,-1248 1630.38,-1248 1630.38,-1236 1630.38,-1236 1630.38,-1230 1636.38,-1224 1642.38,-1224 1642.38,-1224 1718.38,-1224 1718.38,-1224 1724.38,-1224 1730.38,-1230 1730.38,-1236 1730.38,-1236 1730.38,-1248 1730.38,-1248 1730.38,-1254 1724.38,-1260 1718.38,-1260"/>
<text text-anchor="middle" x="1680.38" y="-1238.12" font-family="sans" font-size="10.00">fetch_gene_aldh1l1</text>
</g>
<!-- 37&#45;&gt;36 -->
<g id="edge69" class="edge">
<title>37&#45;&gt;36</title>
<path fill="none" stroke="grey" stroke-width="2" d="M1629.51,-1226.88C1625.08,-1225.84 1620.66,-1224.86 1616.38,-1224 1500.26,-1200.75 1468.35,-1211.95 1352.38,-1188 1351.96,-1187.91 1351.55,-1187.83 1351.13,-1187.74"/>
<polygon fill="grey" stroke="grey" stroke-width="2" points="1352.32,-1184.42 1341.79,-1185.58 1350.75,-1191.24 1352.32,-1184.42"/>
</g>
<!-- 38 -->
<g id="node39" class="node">
<title>38</title>
<path fill="none" stroke="#70d856" stroke-width="2" d="M1821.88,-1260C1821.88,-1260 1760.88,-1260 1760.88,-1260 1754.88,-1260 1748.88,-1254 1748.88,-1248 1748.88,-1248 1748.88,-1236 1748.88,-1236 1748.88,-1230 1754.88,-1224 1760.88,-1224 1760.88,-1224 1821.88,-1224 1821.88,-1224 1827.88,-1224 1833.88,-1230 1833.88,-1236 1833.88,-1236 1833.88,-1248 1833.88,-1248 1833.88,-1254 1827.88,-1260 1821.88,-1260"/>
<text text-anchor="middle" x="1791.38" y="-1238.12" font-family="sans" font-size="10.00">fetch_gene_cnp</text>
</g>
<!-- 38&#45;&gt;36 -->
<g id="edge70" class="edge">
<title>38&#45;&gt;36</title>
<path fill="none" stroke="grey" stroke-width="2" d="M1748.16,-1226.07C1745.21,-1225.3 1742.26,-1224.6 1739.38,-1224 1570.23,-1188.94 1522.26,-1219.31 1352.38,-1188 1351.96,-1187.92 1351.54,-1187.85 1351.12,-1187.77"/>
<polygon fill="grey" stroke="grey" stroke-width="2" points="1352.27,-1184.43 1341.76,-1185.74 1350.8,-1191.28 1352.27,-1184.43"/>
</g>
<!-- 39 -->
<g id="node40" class="node">
<title>39</title>
<path fill="none" stroke="#5682d8" stroke-width="2" d="M1928.38,-1260C1928.38,-1260 1864.38,-1260 1864.38,-1260 1858.38,-1260 1852.38,-1254 1852.38,-1248 1852.38,-1248 1852.38,-1236 1852.38,-1236 1852.38,-1230 1858.38,-1224 1864.38,-1224 1864.38,-1224 1928.38,-1224 1928.38,-1224 1934.38,-1224 1940.38,-1230 1940.38,-1236 1940.38,-1236 1940.38,-1248 1940.38,-1248 1940.38,-1254 1934.38,-1260 1928.38,-1260"/>
<text text-anchor="middle" x="1896.38" y="-1238.12" font-family="sans" font-size="10.00">fetch_gene_mbp</text>
</g>
<!-- 39&#45;&gt;36 -->
<g id="edge71" class="edge">
<title>39&#45;&gt;36</title>
<path fill="none" stroke="grey" stroke-width="2" d="M1851.46,-1225.79C1848.74,-1225.12 1846.03,-1224.52 1843.38,-1224 1628.58,-1182.29 1567.94,-1225.56 1352.38,-1188 1351.96,-1187.93 1351.54,-1187.85 1351.12,-1187.78"/>
<polygon fill="grey" stroke="grey" stroke-width="2" points="1352.25,-1184.44 1341.75,-1185.81 1350.82,-1191.29 1352.25,-1184.44"/>
</g>
<!-- 40 -->
<g id="node41" class="node">
<title>40</title>
<path fill="none" stroke="#56d882" stroke-width="2" d="M1320.38,-1260C1320.38,-1260 1256.38,-1260 1256.38,-1260 1250.38,-1260 1244.38,-1254 1244.38,-1248 1244.38,-1248 1244.38,-1236 1244.38,-1236 1244.38,-1230 1250.38,-1224 1256.38,-1224 1256.38,-1224 1320.38,-1224 1320.38,-1224 1326.38,-1224 1332.38,-1230 1332.38,-1236 1332.38,-1236 1332.38,-1248 1332.38,-1248 1332.38,-1254 1326.38,-1260 1320.38,-1260"/>
<text text-anchor="middle" x="1288.38" y="-1238.12" font-family="sans" font-size="10.00">fetch_gene_gfap</text>
</g>
<!-- 40&#45;&gt;36 -->
<g id="edge72" class="edge">
<title>40&#45;&gt;36</title>
<path fill="none" stroke="grey" stroke-width="2" d="M1289.13,-1223.34C1289.41,-1216.75 1289.74,-1209.08 1290.06,-1201.67"/>
<polygon fill="grey" stroke="grey" stroke-width="2" points="1293.55,-1202.07 1290.48,-1191.93 1286.55,-1201.77 1293.55,-1202.07"/>
</g>
<!-- 41 -->
<g id="node42" class="node">
<title>41</title>
<path fill="none" stroke="#a7d856" stroke-width="2" d="M1434.12,-1260C1434.12,-1260 1362.62,-1260 1362.62,-1260 1356.62,-1260 1350.62,-1254 1350.62,-1248 1350.62,-1248 1350.62,-1236 1350.62,-1236 1350.62,-1230 1356.62,-1224 1362.62,-1224 1362.62,-1224 1434.12,-1224 1434.12,-1224 1440.12,-1224 1446.12,-1230 1446.12,-1236 1446.12,-1236 1446.12,-1248 1446.12,-1248 1446.12,-1254 1440.12,-1260 1434.12,-1260"/>
<text text-anchor="middle" x="1398.38" y="-1238.12" font-family="sans" font-size="10.00">fetch_gene_s100b</text>
</g>
<!-- 41&#45;&gt;36 -->
<g id="edge73" class="edge">
<title>41&#45;&gt;36</title>
<path fill="none" stroke="grey" stroke-width="2" d="M1371.1,-1223.15C1358.39,-1214.84 1343.07,-1204.82 1329.27,-1195.79"/>
<polygon fill="grey" stroke="grey" stroke-width="2" points="1331.42,-1193.02 1321.14,-1190.47 1327.59,-1198.87 1331.42,-1193.02"/>
</g>
<!-- 42 -->
<g id="node43" class="node">
<title>42</title>
<path fill="none" stroke="#d8cb56" stroke-width="2" d="M1562.25,-1260C1562.25,-1260 1476.5,-1260 1476.5,-1260 1470.5,-1260 1464.5,-1254 1464.5,-1248 1464.5,-1248 1464.5,-1236 1464.5,-1236 1464.5,-1230 1470.5,-1224 1476.5,-1224 1476.5,-1224 1562.25,-1224 1562.25,-1224 1568.25,-1224 1574.25,-1230 1574.25,-1236 1574.25,-1236 1574.25,-1248 1574.25,-1248 1574.25,-1254 1568.25,-1260 1562.25,-1260"/>
<text text-anchor="middle" x="1519.38" y="-1238.12" font-family="sans" font-size="10.00">fetch_gene_tmem119</text>
</g>
<!-- 42&#45;&gt;36 -->
<g id="edge74" class="edge">
<title>42&#45;&gt;36</title>
<path fill="none" stroke="grey" stroke-width="2" d="M1463.6,-1223.88C1429.55,-1213.42 1386.03,-1200.06 1351.25,-1189.38"/>
<polygon fill="grey" stroke="grey" stroke-width="2" points="1352.35,-1186.06 1341.76,-1186.47 1350.3,-1192.75 1352.35,-1186.06"/>
</g>
<!-- 43&#45;&gt;16 -->
<g id="edge32" class="edge">
<title>43&#45;&gt;16</title>
<path fill="none" stroke="grey" stroke-width="2" d="M481.38,-287.34C481.38,-280.75 481.38,-273.08 481.38,-265.67"/>
<polygon fill="grey" stroke="grey" stroke-width="2" points="484.88,-265.93 481.38,-255.93 477.88,-265.93 484.88,-265.93"/>
</g>
<!-- 44&#45;&gt;43 -->
<g id="edge77" class="edge">
<title>44&#45;&gt;43</title>
<path fill="none" stroke="grey" stroke-width="2" d="M697.07,-359.06C652.62,-348.34 596.44,-334.77 552.56,-324.18"/>
<polygon fill="grey" stroke="grey" stroke-width="2" points="553.43,-320.79 542.89,-321.85 551.79,-327.6 553.43,-320.79"/>
</g>
<!-- 45&#45;&gt;44 -->
<g id="edge82" class="edge">
<title>45&#45;&gt;44</title>
<path fill="none" stroke="grey" stroke-width="2" d="M1751.64,-647.03C1686.63,-629.01 1583.58,-600.48 1494.38,-576 1260.11,-511.71 982.94,-436.4 850.09,-400.35"/>
<polygon fill="grey" stroke="grey" stroke-width="2" points="851.17,-397.01 840.61,-397.77 849.34,-403.77 851.17,-397.01"/>
</g>
<!-- 45&#45;&gt;61 -->
<g id="edge120" class="edge">
<title>45&#45;&gt;61</title>
<path fill="none" stroke="grey" stroke-width="2" d="M1841.13,-647.17C1854.73,-637.15 1871.76,-624.23 1886.38,-612 1904.47,-596.86 1904.26,-586.51 1925.38,-576 1977.39,-550.11 2040.17,-536.73 2094.34,-529.87"/>
<polygon fill="grey" stroke="grey" stroke-width="2" points="2094.67,-533.35 2104.19,-528.7 2093.85,-526.4 2094.67,-533.35"/>
</g>
<!-- 67 -->
<g id="node68" class="node">
<title>67</title>
<path fill="none" stroke="#8fd856" stroke-width="2" d="M1865.25,-612C1865.25,-612 1767.5,-612 1767.5,-612 1761.5,-612 1755.5,-606 1755.5,-600 1755.5,-600 1755.5,-588 1755.5,-588 1755.5,-582 1761.5,-576 1767.5,-576 1767.5,-576 1865.25,-576 1865.25,-576 1871.25,-576 1877.25,-582 1877.25,-588 1877.25,-588 1877.25,-600 1877.25,-600 1877.25,-606 1871.25,-612 1865.25,-612"/>
<text text-anchor="middle" x="1816.38" y="-590.12" font-family="sans" font-size="10.00">compute_lamp5_density</text>
</g>
<!-- 45&#45;&gt;67 -->
<g id="edge129" class="edge">
<title>45&#45;&gt;67</title>
<path fill="none" stroke="grey" stroke-width="2" d="M1816.38,-647.34C1816.38,-640.75 1816.38,-633.08 1816.38,-625.67"/>
<polygon fill="grey" stroke="grey" stroke-width="2" points="1819.88,-625.93 1816.38,-615.93 1812.88,-625.93 1819.88,-625.93"/>
</g>
<!-- 45&#45;&gt;68 -->
<g id="edge130" class="edge">
<title>45&#45;&gt;68</title>
<path fill="none" stroke="grey" stroke-width="2" d="M1746.26,-649.49C1743.6,-648.98 1740.96,-648.48 1738.38,-648 1632.73,-628.55 1604.1,-635.93 1499.38,-612 1499.11,-611.94 1498.84,-611.88 1498.57,-611.81"/>
<polygon fill="grey" stroke="grey" stroke-width="2" points="1499.73,-608.5 1489.17,-609.4 1497.99,-615.28 1499.73,-608.5"/>
</g>
<!-- 46&#45;&gt;45 -->
<g id="edge84" class="edge">
<title>46&#45;&gt;45</title>
<path fill="none" stroke="grey" stroke-width="2" d="M2471.93,-721.49C2467.35,-720.97 2462.82,-720.47 2458.38,-720 2257.99,-698.74 2021.64,-681.15 1899.22,-672.6"/>
<polygon fill="grey" stroke="grey" stroke-width="2" points="1899.54,-669.11 1889.32,-671.91 1899.05,-676.09 1899.54,-669.11"/>
</g>
<!-- 47&#45;&gt;46 -->
<g id="edge91" class="edge">
<title>47&#45;&gt;46</title>
<path fill="none" stroke="grey" stroke-width="2" d="M2261.34,-794.2C2322.05,-783.98 2403.49,-770.28 2470.04,-759.08"/>
<polygon fill="grey" stroke="grey" stroke-width="2" points="2470.44,-762.56 2479.72,-757.45 2469.28,-755.66 2470.44,-762.56"/>
</g>
<!-- 48 -->
<g id="node49" class="node">
<title>48</title>
<path fill="none" stroke="#d89556" stroke-width="2" d="M1908,-900C1908,-900 1796.75,-900 1796.75,-900 1790.75,-900 1784.75,-894 1784.75,-888 1784.75,-888 1784.75,-876 1784.75,-876 1784.75,-870 1790.75,-864 1796.75,-864 1796.75,-864 1908,-864 1908,-864 1914,-864 1920,-870 1920,-876 1920,-876 1920,-888 1920,-888 1920,-894 1914,-900 1908,-900"/>
<text text-anchor="middle" x="1852.38" y="-878.12" font-family="sans" font-size="10.00">fetch_genes_correctednissl</text>
</g>
<!-- 48&#45;&gt;47 -->
<g id="edge92" class="edge">
<title>48&#45;&gt;47</title>
<path fill="none" stroke="grey" stroke-width="2" d="M1920.81,-865.88C1923.7,-865.24 1926.57,-864.62 1929.38,-864 1978.34,-853.28 2032.85,-841.43 2077.91,-831.66"/>
<polygon fill="grey" stroke="grey" stroke-width="2" points="2078.36,-835.14 2087.39,-829.6 2076.88,-828.3 2078.36,-835.14"/>
</g>
<!-- 49 -->
<g id="node50" class="node">
<title>49</title>
<path fill="none" stroke="#56d85b" stroke-width="2" d="M2344.25,-972C2344.25,-972 2222.5,-972 2222.5,-972 2216.5,-972 2210.5,-966 2210.5,-960 2210.5,-960 2210.5,-948 2210.5,-948 2210.5,-942 2216.5,-936 2222.5,-936 2222.5,-936 2344.25,-936 2344.25,-936 2350.25,-936 2356.25,-942 2356.25,-948 2356.25,-948 2356.25,-960 2356.25,-960 2356.25,-966 2350.25,-972 2344.25,-972"/>
<text text-anchor="middle" x="2283.38" y="-950.12" font-family="sans" font-size="10.00">fetch_gene_pv_correctednissl</text>
</g>
<!-- 49&#45;&gt;48 -->
<g id="edge101" class="edge">
<title>49&#45;&gt;48</title>
<path fill="none" stroke="grey" stroke-width="2" d="M2209.67,-937.45C2206.87,-936.95 2204.1,-936.46 2201.38,-936 2085.14,-916.29 2051.67,-920.82 1933.26,-900.59"/>
<polygon fill="grey" stroke="grey" stroke-width="2" points="1934.18,-897.2 1923.73,-898.93 1932.98,-904.09 1934.18,-897.2"/>
</g>
<!-- 50 -->
<g id="node51" class="node">
<title>50</title>
<path fill="none" stroke="#d8bc56" stroke-width="2" d="M1834.75,-972C1834.75,-972 1710,-972 1710,-972 1704,-972 1698,-966 1698,-960 1698,-960 1698,-948 1698,-948 1698,-942 1704,-936 1710,-936 1710,-936 1834.75,-936 1834.75,-936 1840.75,-936 1846.75,-942 1846.75,-948 1846.75,-948 1846.75,-960 1846.75,-960 1846.75,-966 1840.75,-972 1834.75,-972"/>
<text text-anchor="middle" x="1772.38" y="-950.12" font-family="sans" font-size="10.00">fetch_gene_sst_correctednissl</text>
</g>
<!-- 50&#45;&gt;48 -->
<g id="edge102" class="edge">
<title>50&#45;&gt;48</title>
<path fill="none" stroke="grey" stroke-width="2" d="M1792.56,-935.34C1801.59,-927.44 1812.42,-917.96 1822.36,-909.26"/>
<polygon fill="grey" stroke="grey" stroke-width="2" points="1824.42,-912.11 1829.64,-902.9 1819.81,-906.85 1824.42,-912.11"/>
</g>
<!-- 51 -->
<g id="node52" class="node">
<title>51</title>
<path fill="none" stroke="#8fd856" stroke-width="2" d="M2000.38,-972C2000.38,-972 1876.38,-972 1876.38,-972 1870.38,-972 1864.38,-966 1864.38,-960 1864.38,-960 1864.38,-948 1864.38,-948 1864.38,-942 1870.38,-936 1876.38,-936 1876.38,-936 2000.38,-936 2000.38,-936 2006.38,-936 2012.38,-942 2012.38,-948 2012.38,-948 2012.38,-960 2012.38,-960 2012.38,-966 2006.38,-972 2000.38,-972"/>
<text text-anchor="middle" x="1938.38" y="-950.12" font-family="sans" font-size="10.00">fetch_gene_vip_correctednissl</text>
</g>
<!-- 51&#45;&gt;48 -->
<g id="edge103" class="edge">
<title>51&#45;&gt;48</title>
<path fill="none" stroke="grey" stroke-width="2" d="M1916.67,-935.34C1906.87,-927.36 1895.09,-917.77 1884.31,-908.99"/>
<polygon fill="grey" stroke="grey" stroke-width="2" points="1886.68,-906.41 1876.72,-902.81 1882.26,-911.84 1886.68,-906.41"/>
</g>
<!-- 52 -->
<g id="node53" class="node">
<title>52</title>
<path fill="none" stroke="#56a9d8" stroke-width="2" d="M2180.12,-972C2180.12,-972 2042.62,-972 2042.62,-972 2036.62,-972 2030.62,-966 2030.62,-960 2030.62,-960 2030.62,-948 2030.62,-948 2030.62,-942 2036.62,-936 2042.62,-936 2042.62,-936 2180.12,-936 2180.12,-936 2186.12,-936 2192.12,-942 2192.12,-948 2192.12,-948 2192.12,-960 2192.12,-960 2192.12,-966 2186.12,-972 2180.12,-972"/>
<text text-anchor="middle" x="2111.38" y="-950.12" font-family="sans" font-size="10.00">fetch_gene_gad67_correctednissl</text>
</g>
<!-- 52&#45;&gt;48 -->
<g id="edge104" class="edge">
<title>52&#45;&gt;48</title>
<path fill="none" stroke="grey" stroke-width="2" d="M2045.01,-935.06C2010.14,-925.64 1967.17,-914.03 1930.67,-904.16"/>
<polygon fill="grey" stroke="grey" stroke-width="2" points="1932.05,-900.91 1921.49,-901.68 1930.23,-907.67 1932.05,-900.91"/>
</g>
<!-- 53 -->
<g id="node54" class="node">
<title>53</title>
<path fill="none" stroke="#61d856" stroke-width="2" d="M2038.75,-900C2038.75,-900 1950,-900 1950,-900 1944,-900 1938,-894 1938,-888 1938,-888 1938,-876 1938,-876 1938,-870 1944,-864 1950,-864 1950,-864 2038.75,-864 2038.75,-864 2044.75,-864 2050.75,-870 2050.75,-876 2050.75,-876 2050.75,-888 2050.75,-888 2050.75,-894 2044.75,-900 2038.75,-900"/>
<text text-anchor="middle" x="1994.38" y="-878.12" font-family="sans" font-size="10.00">fetch_realigned_slices</text>
</g>
<!-- 53&#45;&gt;47 -->
<g id="edge93" class="edge">
<title>53&#45;&gt;47</title>
<path fill="none" stroke="grey" stroke-width="2" d="M2040.01,-863.15C2062.96,-854.18 2091.02,-843.21 2115.47,-833.64"/>
<polygon fill="grey" stroke="grey" stroke-width="2" points="2116.66,-836.94 2124.7,-830.04 2114.11,-830.42 2116.66,-836.94"/>
</g>
<!-- 54 -->
<g id="node55" class="node">
<title>54</title>
<path fill="none" stroke="#56c1d8" stroke-width="2" d="M2138.38,-900C2138.38,-900 2080.38,-900 2080.38,-900 2074.38,-900 2068.38,-894 2068.38,-888 2068.38,-888 2068.38,-876 2068.38,-876 2068.38,-870 2074.38,-864 2080.38,-864 2080.38,-864 2138.38,-864 2138.38,-864 2144.38,-864 2150.38,-870 2150.38,-876 2150.38,-876 2150.38,-888 2150.38,-888 2150.38,-894 2144.38,-900 2138.38,-900"/>
<text text-anchor="middle" x="2109.38" y="-878.12" font-family="sans" font-size="10.00">fetch_std_cells</text>
</g>
<!-- 54&#45;&gt;47 -->
<g id="edge94" class="edge">
<title>54&#45;&gt;47</title>
<path fill="none" stroke="grey" stroke-width="2" d="M2125.52,-863.34C2132.44,-855.77 2140.69,-846.75 2148.37,-838.35"/>
<polygon fill="grey" stroke="grey" stroke-width="2" points="2150.8,-840.88 2154.97,-831.14 2145.63,-836.15 2150.8,-840.88"/>
</g>
<!-- 55&#45;&gt;47 -->
<g id="edge98" class="edge">
<title>55&#45;&gt;47</title>
<path fill="none" stroke="grey" stroke-width="2" d="M2343.7,-863.06C2313.4,-853.8 2276.19,-842.43 2244.29,-832.68"/>
<polygon fill="grey" stroke="grey" stroke-width="2" points="2245.38,-829.35 2234.79,-829.77 2243.33,-836.04 2245.38,-829.35"/>
</g>
<!-- 56 -->
<g id="node57" class="node">
<title>56</title>
<path fill="none" stroke="#56d8d0" stroke-width="2" d="M2546.12,-972C2546.12,-972 2462.62,-972 2462.62,-972 2456.62,-972 2450.62,-966 2450.62,-960 2450.62,-960 2450.62,-948 2450.62,-948 2450.62,-942 2456.62,-936 2462.62,-936 2462.62,-936 2546.12,-936 2546.12,-936 2552.12,-936 2558.12,-942 2558.12,-948 2558.12,-948 2558.12,-960 2558.12,-960 2558.12,-966 2552.12,-972 2546.12,-972"/>
<text text-anchor="middle" x="2504.38" y="-950.12" font-family="sans" font-size="10.00">fetch_measurements</text>
</g>
<!-- 56&#45;&gt;55 -->
<g id="edge109" class="edge">
<title>56&#45;&gt;55</title>
<path fill="none" stroke="grey" stroke-width="2" d="M2478.37,-935.15C2466.38,-926.93 2451.95,-917.02 2438.89,-908.06"/>
<polygon fill="grey" stroke="grey" stroke-width="2" points="2441.05,-905.3 2430.83,-902.53 2437.09,-911.07 2441.05,-905.3"/>
</g>
<!-- 57 -->
<g id="node58" class="node">
<title>57</title>
<path fill="none" stroke="#9fd856" stroke-width="2" d="M2292,-900C2292,-900 2180.75,-900 2180.75,-900 2174.75,-900 2168.75,-894 2168.75,-888 2168.75,-888 2168.75,-876 2168.75,-876 2168.75,-870 2174.75,-864 2180.75,-864 2180.75,-864 2292,-864 2292,-864 2298,-864 2304,-870 2304,-876 2304,-876 2304,-888 2304,-888 2304,-894 2298,-900 2292,-900"/>
<text text-anchor="middle" x="2236.38" y="-878.12" font-family="sans" font-size="10.00">fetch_homogenous_regions</text>
</g>
<!-- 57&#45;&gt;47 -->
<g id="edge99" class="edge">
<title>57&#45;&gt;47</title>
<path fill="none" stroke="grey" stroke-width="2" d="M2220.48,-863.34C2213.67,-855.77 2205.55,-846.75 2197.99,-838.35"/>
<polygon fill="grey" stroke="grey" stroke-width="2" points="2200.8,-836.24 2191.51,-831.15 2195.6,-840.93 2200.8,-836.24"/>
</g>
<!-- 58&#45;&gt;16 -->
<g id="edge33" class="edge">
<title>58&#45;&gt;16</title>
<path fill="none" stroke="grey" stroke-width="2" d="M1174.74,-297.87C1026.74,-284.45 708.37,-255.58 560.21,-242.15"/>
<polygon fill="grey" stroke="grey" stroke-width="2" points="560.56,-238.67 550.29,-241.25 559.93,-245.64 560.56,-238.67"/>
</g>
<!-- 72 -->
<g id="node73" class="node">
<title>72</title>
<path fill="none" stroke="#5692d8" stroke-width="2" d="M1336.38,-252C1336.38,-252 1170.38,-252 1170.38,-252 1164.38,-252 1158.38,-246 1158.38,-240 1158.38,-240 1158.38,-228 1158.38,-228 1158.38,-222 1164.38,-216 1170.38,-216 1170.38,-216 1336.38,-216 1336.38,-216 1342.38,-216 1348.38,-222 1348.38,-228 1348.38,-228 1348.38,-240 1348.38,-240 1348.38,-246 1342.38,-252 1336.38,-252"/>
<text text-anchor="middle" x="1253.38" y="-230.12" font-family="sans" font-size="10.00">create_cellCompositionVolume_payload</text>
</g>
<!-- 58&#45;&gt;72 -->
<g id="edge142" class="edge">
<title>58&#45;&gt;72</title>
<path fill="none" stroke="grey" stroke-width="2" d="M1253.38,-287.34C1253.38,-280.75 1253.38,-273.08 1253.38,-265.67"/>
<polygon fill="grey" stroke="grey" stroke-width="2" points="1256.88,-265.93 1253.38,-255.93 1249.88,-265.93 1256.88,-265.93"/>
</g>
<!-- 59&#45;&gt;58 -->
<g id="edge110" class="edge">
<title>59&#45;&gt;58</title>
<path fill="none" stroke="grey" stroke-width="2" d="M1287.77,-359.34C1283.06,-352.18 1277.51,-343.73 1272.25,-335.73"/>
<polygon fill="grey" stroke="grey" stroke-width="2" points="1275.22,-333.87 1266.8,-327.43 1269.37,-337.71 1275.22,-333.87"/>
</g>
<!-- 60&#45;&gt;59 -->
<g id="edge116" class="edge">
<title>60&#45;&gt;59</title>
<path fill="none" stroke="grey" stroke-width="2" d="M1449.62,-431.06C1423.24,-421.93 1390.94,-410.73 1363.05,-401.07"/>
<polygon fill="grey" stroke="grey" stroke-width="2" points="1364.45,-397.85 1353.86,-397.88 1362.16,-404.46 1364.45,-397.85"/>
</g>
<!-- 60&#45;&gt;70 -->
<g id="edge138" class="edge">
<title>60&#45;&gt;70</title>
<path fill="none" stroke="grey" stroke-width="2" d="M1501.38,-431.34C1501.38,-424.75 1501.38,-417.08 1501.38,-409.67"/>
<polygon fill="grey" stroke="grey" stroke-width="2" points="1504.88,-409.93 1501.38,-399.93 1497.88,-409.93 1504.88,-409.93"/>
</g>
<!-- 61&#45;&gt;60 -->
<g id="edge118" class="edge">
<title>61&#45;&gt;60</title>
<path fill="none" stroke="grey" stroke-width="2" d="M2107.19,-510.06C1960.38,-495.75 1706.85,-471.03 1579.36,-458.6"/>
<polygon fill="grey" stroke="grey" stroke-width="2" points="1579.98,-455.15 1569.69,-457.66 1579.3,-462.11 1579.98,-455.15"/>
</g>
<!-- 62 -->
<g id="node63" class="node">
<title>62</title>
<path fill="none" stroke="#5692d8" stroke-width="2" d="M2048.88,-612C2048.88,-612 1945.88,-612 1945.88,-612 1939.88,-612 1933.88,-606 1933.88,-600 1933.88,-600 1933.88,-588 1933.88,-588 1933.88,-582 1939.88,-576 1945.88,-576 1945.88,-576 2048.88,-576 2048.88,-576 2054.88,-576 2060.88,-582 2060.88,-588 2060.88,-588 2060.88,-600 2060.88,-600 2060.88,-606 2054.88,-612 2048.88,-612"/>
<text text-anchor="middle" x="1997.38" y="-590.12" font-family="sans" font-size="10.00">fetch_probability_map_L1</text>
</g>
<!-- 62&#45;&gt;61 -->
<g id="edge123" class="edge">
<title>62&#45;&gt;61</title>
<path fill="none" stroke="grey" stroke-width="2" d="M2054.26,-575.06C2083.63,-565.8 2119.7,-554.43 2150.62,-544.68"/>
<polygon fill="grey" stroke="grey" stroke-width="2" points="2151.27,-548.14 2159.75,-541.8 2149.16,-541.47 2151.27,-548.14"/>
</g>
<!-- 63 -->
<g id="node64" class="node">
<title>63</title>
<path fill="none" stroke="#ced856" stroke-width="2" d="M2199.5,-612C2199.5,-612 2091.25,-612 2091.25,-612 2085.25,-612 2079.25,-606 2079.25,-600 2079.25,-600 2079.25,-588 2079.25,-588 2079.25,-582 2085.25,-576 2091.25,-576 2091.25,-576 2199.5,-576 2199.5,-576 2205.5,-576 2211.5,-582 2211.5,-588 2211.5,-588 2211.5,-600 2211.5,-600 2211.5,-606 2205.5,-612 2199.5,-612"/>
<text text-anchor="middle" x="2145.38" y="-590.12" font-family="sans" font-size="10.00">fetch_probability_map_L23</text>
</g>
<!-- 63&#45;&gt;61 -->
<g id="edge124" class="edge">
<title>63&#45;&gt;61</title>
<path fill="none" stroke="grey" stroke-width="2" d="M2164.05,-575.34C2172.22,-567.6 2182,-558.36 2191.04,-549.81"/>
<polygon fill="grey" stroke="grey" stroke-width="2" points="2193.39,-552.4 2198.25,-542.98 2188.58,-547.31 2193.39,-552.4"/>
</g>
<!-- 64 -->
<g id="node65" class="node">
<title>64</title>
<path fill="none" stroke="#566bd8" stroke-width="2" d="M2344.88,-612C2344.88,-612 2241.88,-612 2241.88,-612 2235.88,-612 2229.88,-606 2229.88,-600 2229.88,-600 2229.88,-588 2229.88,-588 2229.88,-582 2235.88,-576 2241.88,-576 2241.88,-576 2344.88,-576 2344.88,-576 2350.88,-576 2356.88,-582 2356.88,-588 2356.88,-588 2356.88,-600 2356.88,-600 2356.88,-606 2350.88,-612 2344.88,-612"/>
<text text-anchor="middle" x="2293.38" y="-590.12" font-family="sans" font-size="10.00">fetch_probability_map_L4</text>
</g>
<!-- 64&#45;&gt;61 -->
<g id="edge125" class="edge">
<title>64&#45;&gt;61</title>
<path fill="none" stroke="grey" stroke-width="2" d="M2274.7,-575.34C2266.53,-567.6 2256.75,-558.36 2247.71,-549.81"/>
<polygon fill="grey" stroke="grey" stroke-width="2" points="2250.17,-547.31 2240.5,-542.98 2245.36,-552.4 2250.17,-547.31"/>
</g>
<!-- 65 -->
<g id="node66" class="node">
<title>65</title>
<path fill="none" stroke="#d8a456" stroke-width="2" d="M2489.88,-612C2489.88,-612 2386.88,-612 2386.88,-612 2380.88,-612 2374.88,-606 2374.88,-600 2374.88,-600 2374.88,-588 2374.88,-588 2374.88,-582 2380.88,-576 2386.88,-576 2386.88,-576 2489.88,-576 2489.88,-576 2495.88,-576 2501.88,-582 2501.88,-588 2501.88,-588 2501.88,-600 2501.88,-600 2501.88,-606 2495.88,-612 2489.88,-612"/>
<text text-anchor="middle" x="2438.38" y="-590.12" font-family="sans" font-size="10.00">fetch_probability_map_L5</text>
</g>
<!-- 65&#45;&gt;61 -->
<g id="edge126" class="edge">
<title>65&#45;&gt;61</title>
<path fill="none" stroke="grey" stroke-width="2" d="M2382.26,-575.06C2353.41,-565.84 2318.02,-554.53 2287.6,-544.81"/>
<polygon fill="grey" stroke="grey" stroke-width="2" points="2288.82,-541.52 2278.23,-541.81 2286.69,-548.19 2288.82,-541.52"/>
</g>
<!-- 66 -->
<g id="node67" class="node">
<title>66</title>
<path fill="none" stroke="#56d8a2" stroke-width="2" d="M2634.88,-612C2634.88,-612 2531.88,-612 2531.88,-612 2525.88,-612 2519.88,-606 2519.88,-600 2519.88,-600 2519.88,-588 2519.88,-588 2519.88,-582 2525.88,-576 2531.88,-576 2531.88,-576 2634.88,-576 2634.88,-576 2640.88,-576 2646.88,-582 2646.88,-588 2646.88,-588 2646.88,-600 2646.88,-600 2646.88,-606 2640.88,-612 2634.88,-612"/>
<text text-anchor="middle" x="2583.38" y="-590.12" font-family="sans" font-size="10.00">fetch_probability_map_L6</text>
</g>
<!-- 66&#45;&gt;61 -->
<g id="edge127" class="edge">
<title>66&#45;&gt;61</title>
<path fill="none" stroke="grey" stroke-width="2" d="M2519.04,-577.63C2516.45,-577.07 2513.89,-576.52 2511.38,-576 2454.76,-564.19 2391.65,-552.54 2338.63,-543.19"/>
<polygon fill="grey" stroke="grey" stroke-width="2" points="2339.52,-539.79 2329.06,-541.51 2338.31,-546.69 2339.52,-539.79"/>
</g>
<!-- 67&#45;&gt;61 -->
<g id="edge128" class="edge">
<title>67&#45;&gt;61</title>
<path fill="none" stroke="grey" stroke-width="2" d="M1878.11,-578.68C1882.59,-577.74 1887.05,-576.84 1891.38,-576 1958.12,-563.06 2032.93,-550.8 2094.24,-541.33"/>
<polygon fill="grey" stroke="grey" stroke-width="2" points="2094.76,-544.8 2104.12,-539.82 2093.7,-537.88 2094.76,-544.8"/>
</g>
<!-- 68&#45;&gt;60 -->
<g id="edge119" class="edge">
<title>68&#45;&gt;60</title>
<path fill="none" stroke="grey" stroke-width="2" d="M1451.59,-575.02C1461.1,-551.33 1477.95,-509.35 1489.39,-480.86"/>
<polygon fill="grey" stroke="grey" stroke-width="2" points="1492.61,-482.23 1493.09,-471.65 1486.11,-479.62 1492.61,-482.23"/>
</g>
<!-- 69 -->
<g id="node70" class="node">
<title>69</title>
<path fill="none" stroke="#d89c56" stroke-width="2" d="M1716.88,-684C1716.88,-684 1541.88,-684 1541.88,-684 1535.88,-684 1529.88,-678 1529.88,-672 1529.88,-672 1529.88,-660 1529.88,-660 1529.88,-654 1535.88,-648 1541.88,-648 1541.88,-648 1716.88,-648 1716.88,-648 1722.88,-648 1728.88,-654 1728.88,-660 1728.88,-660 1728.88,-672 1728.88,-672 1728.88,-678 1722.88,-684 1716.88,-684"/>
<text text-anchor="middle" x="1629.38" y="-662.12" font-family="sans" font-size="10.00">fetch_mapping_cortex_all_to_exc_mtypes</text>
</g>
<!-- 69&#45;&gt;68 -->
<g id="edge134" class="edge">
<title>69&#45;&gt;68</title>
<path fill="none" stroke="grey" stroke-width="2" d="M1582.21,-647.15C1556.5,-637.42 1524.57,-625.34 1497.92,-615.26"/>
<polygon fill="grey" stroke="grey" stroke-width="2" points="1499.51,-612.12 1488.92,-611.86 1497.04,-618.67 1499.51,-612.12"/>
</g>
<!-- 70&#45;&gt;58 -->
<g id="edge111" class="edge">
<title>70&#45;&gt;58</title>
<path fill="none" stroke="grey" stroke-width="2" d="M1437.83,-359.06C1404.73,-349.72 1364.01,-338.23 1329.26,-328.42"/>
<polygon fill="grey" stroke="grey" stroke-width="2" points="1330.24,-325.06 1319.67,-325.71 1328.34,-331.8 1330.24,-325.06"/>
</g>
<!-- 71&#45;&gt;0 -->
<g id="edge4" class="edge">
<title>71&#45;&gt;0</title>
<path fill="none" stroke="grey" stroke-width="2" d="M1197.58,-84.54C1043.2,-72.2 610.79,-37.65 444.08,-24.33"/>
<polygon fill="grey" stroke="grey" stroke-width="2" points="444.4,-20.84 434.15,-23.54 443.84,-27.82 444.4,-20.84"/>
</g>
<!-- 72&#45;&gt;71 -->
<g id="edge140" class="edge">
<title>72&#45;&gt;71</title>
<path fill="none" stroke="grey" stroke-width="2" d="M1233.44,-215.45C1224.22,-205.99 1214.25,-193.5 1209.38,-180 1203.94,-164.95 1203.94,-159.05 1209.38,-144 1212.73,-134.72 1218.49,-125.92 1224.75,-118.25"/>
<polygon fill="grey" stroke="grey" stroke-width="2" points="1227.35,-120.59 1231.42,-110.81 1222.14,-115.92 1227.35,-120.59"/>
</g>
<!-- 72&#45;&gt;73 -->
<g id="edge145" class="edge">
<title>72&#45;&gt;73</title>
<path fill="none" stroke="grey" stroke-width="2" d="M1269.52,-215.34C1276.44,-207.77 1284.69,-198.75 1292.37,-190.35"/>
<polygon fill="grey" stroke="grey" stroke-width="2" points="1294.8,-192.88 1298.97,-183.14 1289.63,-188.15 1294.8,-192.88"/>
</g>
<!-- 73&#45;&gt;71 -->
<g id="edge141" class="edge">
<title>73&#45;&gt;71</title>
<path fill="none" stroke="grey" stroke-width="2" d="M1301.23,-143.34C1294.31,-135.77 1286.06,-126.75 1278.38,-118.35"/>
<polygon fill="grey" stroke="grey" stroke-width="2" points="1281.12,-116.15 1271.78,-111.14 1275.95,-120.88 1281.12,-116.15"/>
</g>
</g>
</svg>
