<?xml version="1.0" encoding="UTF-8" standalone="no"?>
<!DOCTYPE svg PUBLIC "-//W3C//DTD SVG 1.1//EN"
 "http://www.w3.org/Graphics/SVG/1.1/DTD/svg11.dtd">
<!-- Generated by graphviz version 2.43.0 (0)
 -->
<!-- Title: snakemake_dag Pages: 1 -->
<svg width="3282pt" height="1772pt"
 viewBox="0.00 0.00 3282.00 1772.00" xmlns="http://www.w3.org/2000/svg" xmlns:xlink="http://www.w3.org/1999/xlink">
<g id="graph0" class="graph" transform="scale(1 1) rotate(0) translate(4 1768)">
<title>snakemake_dag</title>
<polygon fill="white" stroke="transparent" points="-4,4 -4,-1768 3278,-1768 3278,4 -4,4"/>
<!-- 0 -->
<g id="node1" class="node">
<title>0</title>
<path fill="none" stroke="#a7d856" stroke-width="2" d="M826,-36C826,-36 734,-36 734,-36 728,-36 722,-30 722,-24 722,-24 722,-12 722,-12 722,-6 728,0 734,0 734,0 826,0 826,0 832,0 838,-6 838,-12 838,-12 838,-24 838,-24 838,-30 832,-36 826,-36"/>
<text text-anchor="middle" x="780" y="-15.5" font-family="sans" font-size="10.00">push_atlas_datasets</text>
</g>
<!-- 1 -->
<g id="node2" class="node">
<title>1</title>
<path fill="none" stroke="#8fd856" stroke-width="2" d="M321,-324C321,-324 235,-324 235,-324 229,-324 223,-318 223,-312 223,-312 223,-300 223,-300 223,-294 229,-288 235,-288 235,-288 321,-288 321,-288 327,-288 333,-294 333,-300 333,-300 333,-312 333,-312 333,-318 327,-324 321,-324"/>
<text text-anchor="middle" x="278" y="-303.5" font-family="sans" font-size="10.00">push_atlas_release</text>
</g>
<!-- 1&#45;&gt;0 -->
<g id="edge1" class="edge">
<title>1&#45;&gt;0</title>
<path fill="none" stroke="grey" stroke-width="2" d="M307.9,-287.97C394.29,-238.75 644.26,-96.34 741.06,-41.18"/>
<polygon fill="grey" stroke="grey" stroke-width="2" points="742.98,-44.12 749.94,-36.13 739.52,-38.03 742.98,-44.12"/>
</g>
<!-- 2 -->
<g id="node3" class="node">
<title>2</title>
<path fill="none" stroke="#d85e56" stroke-width="2" d="M574,-396C574,-396 484,-396 484,-396 478,-396 472,-390 472,-384 472,-384 472,-372 472,-372 472,-366 478,-360 484,-360 484,-360 574,-360 574,-360 580,-360 586,-366 586,-372 586,-372 586,-384 586,-384 586,-390 580,-396 574,-396"/>
<text text-anchor="middle" x="529" y="-375.5" font-family="sans" font-size="10.00">export_brain_region</text>
</g>
<!-- 2&#45;&gt;1 -->
<g id="edge5" class="edge">
<title>2&#45;&gt;1</title>
<path fill="none" stroke="grey" stroke-width="2" d="M471.73,-361.03C433.45,-350.35 383,-336.28 343.18,-325.18"/>
<polygon fill="grey" stroke="grey" stroke-width="2" points="343.87,-321.74 333.3,-322.42 341.99,-328.48 343.87,-321.74"/>
</g>
<!-- 16 -->
<g id="node17" class="node">
<title>16</title>
<path fill="none" stroke="#9fd856" stroke-width="2" d="M713.5,-180C713.5,-180 654.5,-180 654.5,-180 648.5,-180 642.5,-174 642.5,-168 642.5,-168 642.5,-156 642.5,-156 642.5,-150 648.5,-144 654.5,-144 654.5,-144 713.5,-144 713.5,-144 719.5,-144 725.5,-150 725.5,-156 725.5,-156 725.5,-168 725.5,-168 725.5,-174 719.5,-180 713.5,-180"/>
<text text-anchor="middle" x="684" y="-159.5" font-family="sans" font-size="10.00">push_meshes</text>
</g>
<!-- 2&#45;&gt;16 -->
<g id="edge30" class="edge">
<title>2&#45;&gt;16</title>
<path fill="none" stroke="grey" stroke-width="2" d="M533.04,-359.68C541.13,-328.06 561.89,-260.19 600,-216 610.53,-203.79 624.58,-193.43 638.17,-185.19"/>
<polygon fill="grey" stroke="grey" stroke-width="2" points="640.08,-188.13 646.99,-180.09 636.58,-182.07 640.08,-188.13"/>
</g>
<!-- 18 -->
<g id="node19" class="node">
<title>18</title>
<path fill="none" stroke="#59d856" stroke-width="2" d="M728.5,-324C728.5,-324 675.5,-324 675.5,-324 669.5,-324 663.5,-318 663.5,-312 663.5,-312 663.5,-300 663.5,-300 663.5,-294 669.5,-288 675.5,-288 675.5,-288 728.5,-288 728.5,-288 734.5,-288 740.5,-294 740.5,-300 740.5,-300 740.5,-312 740.5,-312 740.5,-318 734.5,-324 728.5,-324"/>
<text text-anchor="middle" x="702" y="-303.5" font-family="sans" font-size="10.00">push_masks</text>
</g>
<!-- 2&#45;&gt;18 -->
<g id="edge35" class="edge">
<title>2&#45;&gt;18</title>
<path fill="none" stroke="grey" stroke-width="2" d="M571.32,-359.88C596.36,-349.75 628.14,-336.89 654.09,-326.38"/>
<polygon fill="grey" stroke="grey" stroke-width="2" points="655.41,-329.63 663.37,-322.63 652.78,-323.14 655.41,-329.63"/>
</g>
<!-- 3 -->
<g id="node4" class="node">
<title>3</title>
<path fill="none" stroke="#78d856" stroke-width="2" d="M1084,-540C1084,-540 964,-540 964,-540 958,-540 952,-534 952,-528 952,-528 952,-516 952,-516 952,-510 958,-504 964,-504 964,-504 1084,-504 1084,-504 1090,-504 1096,-510 1096,-516 1096,-516 1096,-528 1096,-528 1096,-534 1090,-540 1084,-540"/>
<text text-anchor="middle" x="1024" y="-519.5" font-family="sans" font-size="10.00">split_barrel_ccfv3_l23split</text>
</g>
<!-- 3&#45;&gt;2 -->
<g id="edge11" class="edge">
<title>3&#45;&gt;2</title>
<path fill="none" stroke="grey" stroke-width="2" d="M951.77,-518.66C879.09,-514.35 764.78,-502.19 672,-468 660.47,-463.75 602.47,-426.74 563.97,-401.8"/>
<polygon fill="grey" stroke="grey" stroke-width="2" points="565.41,-398.57 555.12,-396.06 561.6,-404.44 565.41,-398.57"/>
</g>
<!-- 10 -->
<g id="node11" class="node">
<title>10</title>
<path fill="none" stroke="#56d873" stroke-width="2" d="M799.5,-468C799.5,-468 692.5,-468 692.5,-468 686.5,-468 680.5,-462 680.5,-456 680.5,-456 680.5,-444 680.5,-444 680.5,-438 686.5,-432 692.5,-432 692.5,-432 799.5,-432 799.5,-432 805.5,-432 811.5,-438 811.5,-444 811.5,-444 811.5,-456 811.5,-456 811.5,-462 805.5,-468 799.5,-468"/>
<text text-anchor="middle" x="746" y="-447.5" font-family="sans" font-size="10.00">validate_annotation_v3</text>
</g>
<!-- 3&#45;&gt;10 -->
<g id="edge22" class="edge">
<title>3&#45;&gt;10</title>
<path fill="none" stroke="grey" stroke-width="2" d="M956.35,-503.97C915.58,-493.7 863.58,-480.61 821.48,-470"/>
<polygon fill="grey" stroke="grey" stroke-width="2" points="822.11,-466.55 811.55,-467.51 820.4,-473.34 822.11,-466.55"/>
</g>
<!-- 13 -->
<g id="node14" class="node">
<title>13</title>
<path fill="none" stroke="#566bd8" stroke-width="2" d="M238,-396C238,-396 164,-396 164,-396 158,-396 152,-390 152,-384 152,-384 152,-372 152,-372 152,-366 158,-360 164,-360 164,-360 238,-360 238,-360 244,-360 250,-366 250,-372 250,-372 250,-384 250,-384 250,-390 244,-396 238,-396"/>
<text text-anchor="middle" x="201" y="-375.5" font-family="sans" font-size="10.00">placement_hints</text>
</g>
<!-- 3&#45;&gt;13 -->
<g id="edge25" class="edge">
<title>3&#45;&gt;13</title>
<path fill="none" stroke="grey" stroke-width="2" d="M951.58,-520.25C841.35,-517.79 625.45,-507.79 447,-468 375.73,-452.11 296.95,-421.07 248.2,-400.18"/>
<polygon fill="grey" stroke="grey" stroke-width="2" points="249.43,-396.9 238.86,-396.15 246.65,-403.33 249.43,-396.9"/>
</g>
<!-- 19 -->
<g id="node20" class="node">
<title>19</title>
<path fill="none" stroke="#56d873" stroke-width="2" d="M1196,-324C1196,-324 1068,-324 1068,-324 1062,-324 1056,-318 1056,-312 1056,-312 1056,-300 1056,-300 1056,-294 1062,-288 1068,-288 1068,-288 1196,-288 1196,-288 1202,-288 1208,-294 1208,-300 1208,-300 1208,-312 1208,-312 1208,-318 1202,-324 1196,-324"/>
<text text-anchor="middle" x="1132" y="-303.5" font-family="sans" font-size="10.00">push_neuron_glia_densities</text>
</g>
<!-- 3&#45;&gt;19 -->
<g id="edge37" class="edge">
<title>3&#45;&gt;19</title>
<path fill="none" stroke="grey" stroke-width="2" d="M1030.3,-503.93C1043.67,-468.01 1074.89,-385.81 1090,-360 1095.66,-350.33 1102.94,-340.49 1109.85,-331.97"/>
<polygon fill="grey" stroke="grey" stroke-width="2" points="1112.57,-334.17 1116.29,-324.24 1107.2,-329.68 1112.57,-334.17"/>
</g>
<!-- 20 -->
<g id="node21" class="node">
<title>20</title>
<path fill="none" stroke="#56d85b" stroke-width="2" d="M1394,-396C1394,-396 1144,-396 1144,-396 1138,-396 1132,-390 1132,-384 1132,-384 1132,-372 1132,-372 1132,-366 1138,-360 1144,-360 1144,-360 1394,-360 1394,-360 1400,-360 1406,-366 1406,-372 1406,-372 1406,-384 1406,-384 1406,-390 1400,-396 1394,-396"/>
<text text-anchor="middle" x="1269" y="-375.5" font-family="sans" font-size="10.00">transplant_neuron_glia_cell_densities_correctednissl</text>
</g>
<!-- 3&#45;&gt;20 -->
<g id="edge38" class="edge">
<title>3&#45;&gt;20</title>
<path fill="none" stroke="grey" stroke-width="2" d="M1056.81,-503.86C1075.15,-493.95 1098.23,-480.91 1118,-468 1140.33,-453.42 1143.4,-446.15 1166,-432 1184,-420.73 1204.67,-409.74 1222.75,-400.72"/>
<polygon fill="grey" stroke="grey" stroke-width="2" points="1224.52,-403.75 1231.95,-396.19 1221.43,-397.47 1224.52,-403.75"/>
</g>
<!-- 44 -->
<g id="node45" class="node">
<title>44</title>
<path fill="none" stroke="#61d856" stroke-width="2" d="M947,-324C947,-324 791,-324 791,-324 785,-324 779,-318 779,-312 779,-312 779,-300 779,-300 779,-294 785,-288 791,-288 791,-288 947,-288 947,-288 953,-288 959,-294 959,-300 959,-300 959,-312 959,-312 959,-318 953,-324 947,-324"/>
<text text-anchor="middle" x="869" y="-303.5" font-family="sans" font-size="10.00">push_inhibitory_neuron_densities</text>
</g>
<!-- 3&#45;&gt;44 -->
<g id="edge79" class="edge">
<title>3&#45;&gt;44</title>
<path fill="none" stroke="grey" stroke-width="2" d="M1020.11,-503.93C1011.47,-467.22 989.97,-382.3 971,-360 959.71,-346.72 944.24,-336.33 928.77,-328.41"/>
<polygon fill="grey" stroke="grey" stroke-width="2" points="930.22,-325.22 919.69,-324.03 927.17,-331.53 930.22,-325.22"/>
</g>
<!-- 45 -->
<g id="node46" class="node">
<title>45</title>
<path fill="none" stroke="#d86656" stroke-width="2" d="M949.5,-396C949.5,-396 654.5,-396 654.5,-396 648.5,-396 642.5,-390 642.5,-384 642.5,-384 642.5,-372 642.5,-372 642.5,-366 648.5,-360 654.5,-360 654.5,-360 949.5,-360 949.5,-360 955.5,-360 961.5,-366 961.5,-372 961.5,-372 961.5,-384 961.5,-384 961.5,-390 955.5,-396 949.5,-396"/>
<text text-anchor="middle" x="802" y="-375.5" font-family="sans" font-size="10.00">transplant_inhibitory_neuron_densities_linprog_correctednissl</text>
</g>
<!-- 3&#45;&gt;45 -->
<g id="edge80" class="edge">
<title>3&#45;&gt;45</title>
<path fill="none" stroke="grey" stroke-width="2" d="M1008.82,-503.67C991.03,-484.18 959.89,-452.57 928,-432 908.11,-419.17 884.6,-408.29 863.3,-399.8"/>
<polygon fill="grey" stroke="grey" stroke-width="2" points="864.28,-396.42 853.69,-396.06 861.74,-402.95 864.28,-396.42"/>
</g>
<!-- 59 -->
<g id="node60" class="node">
<title>59</title>
<path fill="none" stroke="#568ad8" stroke-width="2" d="M1643,-324C1643,-324 1493,-324 1493,-324 1487,-324 1481,-318 1481,-312 1481,-312 1481,-300 1481,-300 1481,-294 1487,-288 1493,-288 1493,-288 1643,-288 1643,-288 1649,-288 1655,-294 1655,-300 1655,-300 1655,-312 1655,-312 1655,-318 1649,-324 1643,-324"/>
<text text-anchor="middle" x="1568" y="-303.5" font-family="sans" font-size="10.00">push_metype_pipeline_datasets</text>
</g>
<!-- 3&#45;&gt;59 -->
<g id="edge113" class="edge">
<title>3&#45;&gt;59</title>
<path fill="none" stroke="grey" stroke-width="2" d="M1038.42,-503.87C1046.64,-493.74 1056.89,-480.49 1065,-468 1094.66,-422.3 1077.98,-390.69 1123,-360 1177.84,-322.62 1357.21,-311.53 1470.79,-308.28"/>
<polygon fill="grey" stroke="grey" stroke-width="2" points="1470.98,-311.78 1480.88,-308.01 1470.79,-304.78 1470.98,-311.78"/>
</g>
<!-- 60 -->
<g id="node61" class="node">
<title>60</title>
<path fill="none" stroke="#56d8a2" stroke-width="2" d="M1886.5,-396C1886.5,-396 1763.5,-396 1763.5,-396 1757.5,-396 1751.5,-390 1751.5,-384 1751.5,-384 1751.5,-372 1751.5,-372 1751.5,-366 1757.5,-360 1763.5,-360 1763.5,-360 1886.5,-360 1886.5,-360 1892.5,-360 1898.5,-366 1898.5,-372 1898.5,-372 1898.5,-384 1898.5,-384 1898.5,-390 1892.5,-396 1886.5,-396"/>
<text text-anchor="middle" x="1825" y="-375.5" font-family="sans" font-size="10.00">transplant_excitatory_split</text>
</g>
<!-- 3&#45;&gt;60 -->
<g id="edge114" class="edge">
<title>3&#45;&gt;60</title>
<path fill="none" stroke="grey" stroke-width="2" d="M1096.09,-509.26C1223.98,-488.25 1499.18,-442.28 1741.22,-396.31"/>
<polygon fill="grey" stroke="grey" stroke-width="2" points="1742.1,-399.71 1751.27,-394.4 1740.79,-392.83 1742.1,-399.71"/>
</g>
<!-- 72 -->
<g id="node73" class="node">
<title>72</title>
<path fill="none" stroke="#56d88a" stroke-width="2" d="M1721.5,-396C1721.5,-396 1474.5,-396 1474.5,-396 1468.5,-396 1462.5,-390 1462.5,-384 1462.5,-384 1462.5,-372 1462.5,-372 1462.5,-366 1468.5,-360 1474.5,-360 1474.5,-360 1721.5,-360 1721.5,-360 1727.5,-360 1733.5,-366 1733.5,-372 1733.5,-372 1733.5,-384 1733.5,-384 1733.5,-390 1727.5,-396 1721.5,-396"/>
<text text-anchor="middle" x="1598" y="-375.5" font-family="sans" font-size="10.00">transplant_mtypes_densities_from_probability_map</text>
</g>
<!-- 3&#45;&gt;72 -->
<g id="edge137" class="edge">
<title>3&#45;&gt;72</title>
<path fill="none" stroke="grey" stroke-width="2" d="M1096.23,-506.76C1139.8,-497.41 1196.15,-483.97 1245,-468 1284.39,-455.13 1291.37,-444.09 1331,-432 1377.74,-417.74 1430.29,-406.35 1476.33,-397.84"/>
<polygon fill="grey" stroke="grey" stroke-width="2" points="1477.14,-401.25 1486.35,-396.01 1475.88,-394.36 1477.14,-401.25"/>
</g>
<!-- 73 -->
<g id="node74" class="node">
<title>73</title>
<path fill="none" stroke="#56d8a9" stroke-width="2" d="M1180,-108C1180,-108 1080,-108 1080,-108 1074,-108 1068,-102 1068,-96 1068,-96 1068,-84 1068,-84 1068,-78 1074,-72 1080,-72 1080,-72 1180,-72 1180,-72 1186,-72 1192,-78 1192,-84 1192,-84 1192,-96 1192,-96 1192,-102 1186,-108 1180,-108"/>
<text text-anchor="middle" x="1130" y="-87.5" font-family="sans" font-size="10.00">push_cellComposition</text>
</g>
<!-- 3&#45;&gt;73 -->
<g id="edge141" class="edge">
<title>3&#45;&gt;73</title>
<path fill="none" stroke="grey" stroke-width="2" d="M1024.79,-503.96C1025.96,-477.3 1028,-424.13 1028,-379 1028,-379 1028,-379 1028,-233 1028,-183.82 1068.86,-140.01 1098.85,-114.48"/>
<polygon fill="grey" stroke="grey" stroke-width="2" points="1101.12,-117.15 1106.6,-108.08 1096.66,-111.75 1101.12,-117.15"/>
</g>
<!-- 75 -->
<g id="node76" class="node">
<title>75</title>
<path fill="none" stroke="#afd856" stroke-width="2" d="M1332.5,-180C1332.5,-180 1133.5,-180 1133.5,-180 1127.5,-180 1121.5,-174 1121.5,-168 1121.5,-168 1121.5,-156 1121.5,-156 1121.5,-150 1127.5,-144 1133.5,-144 1133.5,-144 1332.5,-144 1332.5,-144 1338.5,-144 1344.5,-150 1344.5,-156 1344.5,-156 1344.5,-168 1344.5,-168 1344.5,-174 1338.5,-180 1332.5,-180"/>
<text text-anchor="middle" x="1233" y="-159.5" font-family="sans" font-size="10.00">create_cellCompositionSummary_payload</text>
</g>
<!-- 3&#45;&gt;75 -->
<g id="edge145" class="edge">
<title>3&#45;&gt;75</title>
<path fill="none" stroke="grey" stroke-width="2" d="M1066.52,-503.96C1092.39,-493.58 1126.11,-480.05 1156,-468 1195.58,-452.05 1204.19,-444.47 1245,-432 1318.86,-409.43 1366.37,-456 1415,-396 1476.98,-319.51 1343.93,-226.85 1273.3,-185.18"/>
<polygon fill="grey" stroke="grey" stroke-width="2" points="1275,-182.12 1264.6,-180.12 1271.48,-188.17 1275,-182.12"/>
</g>
<!-- 4 -->
<g id="node5" class="node">
<title>4</title>
<path fill="none" stroke="#5692d8" stroke-width="2" d="M803.5,-612C803.5,-612 576.5,-612 576.5,-612 570.5,-612 564.5,-606 564.5,-600 564.5,-600 564.5,-588 564.5,-588 564.5,-582 570.5,-576 576.5,-576 576.5,-576 803.5,-576 803.5,-576 809.5,-576 815.5,-582 815.5,-588 815.5,-588 815.5,-600 815.5,-600 815.5,-606 809.5,-612 803.5,-612"/>
<text text-anchor="middle" x="690" y="-591.5" font-family="sans" font-size="10.00">create_leaves_only_hierarchy_annotation_ccfv3</text>
</g>
<!-- 4&#45;&gt;3 -->
<g id="edge14" class="edge">
<title>4&#45;&gt;3</title>
<path fill="none" stroke="grey" stroke-width="2" d="M771.28,-575.97C823.07,-565.11 889.95,-551.09 941.9,-540.21"/>
<polygon fill="grey" stroke="grey" stroke-width="2" points="942.68,-543.62 951.75,-538.14 941.25,-536.77 942.68,-543.62"/>
</g>
<!-- 5 -->
<g id="node6" class="node">
<title>5</title>
<path fill="none" stroke="#d8c356" stroke-width="2" d="M467.5,-684C467.5,-684 324.5,-684 324.5,-684 318.5,-684 312.5,-678 312.5,-672 312.5,-672 312.5,-660 312.5,-660 312.5,-654 318.5,-648 324.5,-648 324.5,-648 467.5,-648 467.5,-648 473.5,-648 479.5,-654 479.5,-660 479.5,-660 479.5,-672 479.5,-672 479.5,-678 473.5,-684 467.5,-684"/>
<text text-anchor="middle" x="396" y="-663.5" font-family="sans" font-size="10.00">split_isocortex_layer_23_ccfv3</text>
</g>
<!-- 5&#45;&gt;4 -->
<g id="edge16" class="edge">
<title>5&#45;&gt;4</title>
<path fill="none" stroke="grey" stroke-width="2" d="M467.54,-647.97C510.13,-637.83 564.31,-624.93 608.54,-614.4"/>
<polygon fill="grey" stroke="grey" stroke-width="2" points="609.47,-617.77 618.39,-612.05 607.85,-610.96 609.47,-617.77"/>
</g>
<!-- 6 -->
<g id="node7" class="node">
<title>6</title>
<path fill="none" stroke="#56d89a" stroke-width="2" d="M429,-1692C429,-1692 275,-1692 275,-1692 269,-1692 263,-1686 263,-1680 263,-1680 263,-1668 263,-1668 263,-1662 269,-1656 275,-1656 275,-1656 429,-1656 429,-1656 435,-1656 441,-1662 441,-1668 441,-1668 441,-1680 441,-1680 441,-1686 435,-1692 429,-1692"/>
<text text-anchor="middle" x="352" y="-1671.5" font-family="sans" font-size="10.00">fetch_ccf_brain_region_hierarchy</text>
</g>
<!-- 6&#45;&gt;5 -->
<g id="edge17" class="edge">
<title>6&#45;&gt;5</title>
<path fill="none" stroke="grey" stroke-width="2" d="M329.76,-1655.92C300.85,-1631.6 254,-1584.02 254,-1531 254,-1531 254,-1531 254,-809 254,-768.55 247.34,-751.27 273,-720 284.45,-706.05 300.26,-695.68 316.74,-688.01"/>
<polygon fill="grey" stroke="grey" stroke-width="2" points="318.16,-691.21 325.95,-684.02 315.38,-684.79 318.16,-691.21"/>
</g>
<!-- 8 -->
<g id="node9" class="node">
<title>8</title>
<path fill="none" stroke="#d88d56" stroke-width="2" d="M452,-756C452,-756 294,-756 294,-756 288,-756 282,-750 282,-744 282,-744 282,-732 282,-732 282,-726 288,-720 294,-720 294,-720 452,-720 452,-720 458,-720 464,-726 464,-732 464,-732 464,-744 464,-744 464,-750 458,-756 452,-756"/>
<text text-anchor="middle" x="373" y="-735.5" font-family="sans" font-size="10.00">direction_vectors_isocortex_ccfv3</text>
</g>
<!-- 6&#45;&gt;8 -->
<g id="edge21" class="edge">
<title>6&#45;&gt;8</title>
<path fill="none" stroke="grey" stroke-width="2" d="M348.16,-1655.61C342.6,-1628.94 333,-1576.27 333,-1531 333,-1531 333,-1531 333,-881 333,-839.48 349.04,-793.61 360.8,-765.54"/>
<polygon fill="grey" stroke="grey" stroke-width="2" points="364.15,-766.62 364.91,-756.05 357.73,-763.84 364.15,-766.62"/>
</g>
<!-- 14 -->
<g id="node15" class="node">
<title>14</title>
<path fill="none" stroke="#5663d8" stroke-width="2" d="M275,-468C275,-468 127,-468 127,-468 121,-468 115,-462 115,-456 115,-456 115,-444 115,-444 115,-438 121,-432 127,-432 127,-432 275,-432 275,-432 281,-432 287,-438 287,-444 287,-444 287,-456 287,-456 287,-462 281,-468 275,-468"/>
<text text-anchor="middle" x="201" y="-447.5" font-family="sans" font-size="10.00">direction_vectors_default_ccfv3</text>
</g>
<!-- 6&#45;&gt;14 -->
<g id="edge27" class="edge">
<title>6&#45;&gt;14</title>
<path fill="none" stroke="grey" stroke-width="2" d="M312.73,-1655.99C268.88,-1634.04 204,-1591.36 204,-1531 204,-1531 204,-1531 204,-593 204,-552.99 202.79,-506.65 201.91,-478.08"/>
<polygon fill="grey" stroke="grey" stroke-width="2" points="205.41,-477.93 201.59,-468.05 198.41,-478.15 205.41,-477.93"/>
</g>
<!-- 24 -->
<g id="node25" class="node">
<title>24</title>
<path fill="none" stroke="#5663d8" stroke-width="2" d="M839.5,-1476C839.5,-1476 696.5,-1476 696.5,-1476 690.5,-1476 684.5,-1470 684.5,-1464 684.5,-1464 684.5,-1452 684.5,-1452 684.5,-1446 690.5,-1440 696.5,-1440 696.5,-1440 839.5,-1440 839.5,-1440 845.5,-1440 851.5,-1446 851.5,-1452 851.5,-1452 851.5,-1464 851.5,-1464 851.5,-1470 845.5,-1476 839.5,-1476"/>
<text text-anchor="middle" x="768" y="-1455.5" font-family="sans" font-size="10.00">split_isocortex_layer_23_ccfv2</text>
</g>
<!-- 6&#45;&gt;24 -->
<g id="edge46" class="edge">
<title>6&#45;&gt;24</title>
<path fill="none" stroke="grey" stroke-width="2" d="M354.19,-1655.73C357.55,-1636.01 365.75,-1603.9 385,-1584 461.25,-1505.17 587.77,-1476.02 674.38,-1465.25"/>
<polygon fill="grey" stroke="grey" stroke-width="2" points="674.95,-1468.71 684.47,-1464.06 674.13,-1461.76 674.95,-1468.71"/>
</g>
<!-- 28 -->
<g id="node29" class="node">
<title>28</title>
<path fill="none" stroke="#d87d56" stroke-width="2" d="M798.5,-1548C798.5,-1548 581.5,-1548 581.5,-1548 575.5,-1548 569.5,-1542 569.5,-1536 569.5,-1536 569.5,-1524 569.5,-1524 569.5,-1518 575.5,-1512 581.5,-1512 581.5,-1512 798.5,-1512 798.5,-1512 804.5,-1512 810.5,-1518 810.5,-1524 810.5,-1524 810.5,-1536 810.5,-1536 810.5,-1542 804.5,-1548 798.5,-1548"/>
<text text-anchor="middle" x="690" y="-1527.5" font-family="sans" font-size="10.00">interpolate_direction_vectors_isocortex_ccfv2</text>
</g>
<!-- 6&#45;&gt;28 -->
<g id="edge52" class="edge">
<title>6&#45;&gt;28</title>
<path fill="none" stroke="grey" stroke-width="2" d="M361.67,-1655.91C374.2,-1635.41 398.05,-1601.62 428,-1584 467.42,-1560.81 515.31,-1547.62 559.32,-1540.17"/>
<polygon fill="grey" stroke="grey" stroke-width="2" points="559.91,-1543.62 569.23,-1538.57 558.8,-1536.7 559.91,-1543.62"/>
</g>
<!-- 29 -->
<g id="node30" class="node">
<title>29</title>
<path fill="none" stroke="#d85e56" stroke-width="2" d="M769,-1620C769,-1620 611,-1620 611,-1620 605,-1620 599,-1614 599,-1608 599,-1608 599,-1596 599,-1596 599,-1590 605,-1584 611,-1584 611,-1584 769,-1584 769,-1584 775,-1584 781,-1590 781,-1596 781,-1596 781,-1608 781,-1608 781,-1614 775,-1620 769,-1620"/>
<text text-anchor="middle" x="690" y="-1599.5" font-family="sans" font-size="10.00">direction_vectors_isocortex_ccfv2</text>
</g>
<!-- 6&#45;&gt;29 -->
<g id="edge56" class="edge">
<title>6&#45;&gt;29</title>
<path fill="none" stroke="grey" stroke-width="2" d="M434.25,-1655.97C483.62,-1645.74 546.55,-1632.71 597.62,-1622.13"/>
<polygon fill="grey" stroke="grey" stroke-width="2" points="598.59,-1625.51 607.67,-1620.05 597.17,-1618.65 598.59,-1625.51"/>
</g>
<!-- 7 -->
<g id="node8" class="node">
<title>7</title>
<path fill="none" stroke="#d89c56" stroke-width="2" d="M563,-828C563,-828 421,-828 421,-828 415,-828 409,-822 409,-816 409,-816 409,-804 409,-804 409,-798 415,-792 421,-792 421,-792 563,-792 563,-792 569,-792 575,-798 575,-804 575,-804 575,-816 575,-816 575,-822 569,-828 563,-828"/>
<text text-anchor="middle" x="492" y="-807.5" font-family="sans" font-size="10.00">fetch_brain_parcellation_ccfv3</text>
</g>
<!-- 7&#45;&gt;5 -->
<g id="edge18" class="edge">
<title>7&#45;&gt;5</title>
<path fill="none" stroke="grey" stroke-width="2" d="M492.01,-791.82C491.24,-772.75 487.57,-741.81 473,-720 464.87,-707.84 452.92,-697.67 440.85,-689.6"/>
<polygon fill="grey" stroke="grey" stroke-width="2" points="442.42,-686.46 432.09,-684.1 438.7,-692.38 442.42,-686.46"/>
</g>
<!-- 7&#45;&gt;8 -->
<g id="edge20" class="edge">
<title>7&#45;&gt;8</title>
<path fill="none" stroke="grey" stroke-width="2" d="M462.89,-791.88C447.33,-782.72 427.98,-771.34 411.22,-761.48"/>
<polygon fill="grey" stroke="grey" stroke-width="2" points="412.62,-758.24 402.22,-756.19 409.07,-764.28 412.62,-758.24"/>
</g>
<!-- 7&#45;&gt;14 -->
<g id="edge28" class="edge">
<title>7&#45;&gt;14</title>
<path fill="none" stroke="grey" stroke-width="2" d="M499.69,-791.91C510.79,-765.62 530,-713.45 530,-667 530,-667 530,-667 530,-593 530,-540.22 385.48,-495.03 288,-470.55"/>
<polygon fill="grey" stroke="grey" stroke-width="2" points="288.68,-467.11 278.14,-468.1 287,-473.9 288.68,-467.11"/>
</g>
<!-- 8&#45;&gt;5 -->
<g id="edge19" class="edge">
<title>8&#45;&gt;5</title>
<path fill="none" stroke="grey" stroke-width="2" d="M378.69,-719.7C381.25,-711.9 384.33,-702.51 387.18,-693.83"/>
<polygon fill="grey" stroke="grey" stroke-width="2" points="390.58,-694.7 390.38,-684.1 383.93,-692.51 390.58,-694.7"/>
</g>
<!-- 9 -->
<g id="node10" class="node">
<title>9</title>
<path fill="none" stroke="#56d8c1" stroke-width="2" d="M1149.5,-1404C1149.5,-1404 1048.5,-1404 1048.5,-1404 1042.5,-1404 1036.5,-1398 1036.5,-1392 1036.5,-1392 1036.5,-1380 1036.5,-1380 1036.5,-1374 1042.5,-1368 1048.5,-1368 1048.5,-1368 1149.5,-1368 1149.5,-1368 1155.5,-1368 1161.5,-1374 1161.5,-1380 1161.5,-1380 1161.5,-1392 1161.5,-1392 1161.5,-1398 1155.5,-1404 1149.5,-1404"/>
<text text-anchor="middle" x="1099" y="-1383.5" font-family="sans" font-size="10.00">fetch_barrel_positions</text>
</g>
<!-- 9&#45;&gt;3 -->
<g id="edge15" class="edge">
<title>9&#45;&gt;3</title>
<path fill="none" stroke="grey" stroke-width="2" d="M1036.24,-1371.58C973.09,-1353.95 885,-1316.24 885,-1243 885,-1243 885,-1243 885,-665 885,-610.16 938.6,-568.67 979.24,-545.1"/>
<polygon fill="grey" stroke="grey" stroke-width="2" points="981.2,-548.01 988.2,-540.06 977.77,-541.91 981.2,-548.01"/>
</g>
<!-- 22 -->
<g id="node23" class="node">
<title>22</title>
<path fill="none" stroke="#56d89a" stroke-width="2" d="M1609,-1332C1609,-1332 1489,-1332 1489,-1332 1483,-1332 1477,-1326 1477,-1320 1477,-1320 1477,-1308 1477,-1308 1477,-1302 1483,-1296 1489,-1296 1489,-1296 1609,-1296 1609,-1296 1615,-1296 1621,-1302 1621,-1308 1621,-1308 1621,-1320 1621,-1320 1621,-1326 1615,-1332 1609,-1332"/>
<text text-anchor="middle" x="1549" y="-1311.5" font-family="sans" font-size="10.00">split_barrel_ccfv2_l23split</text>
</g>
<!-- 9&#45;&gt;22 -->
<g id="edge44" class="edge">
<title>9&#45;&gt;22</title>
<path fill="none" stroke="grey" stroke-width="2" d="M1161.57,-1375.27C1241.21,-1362.88 1379,-1341.44 1466.98,-1327.76"/>
<polygon fill="grey" stroke="grey" stroke-width="2" points="1467.58,-1331.21 1476.93,-1326.21 1466.51,-1324.29 1467.58,-1331.21"/>
</g>
<!-- 10&#45;&gt;1 -->
<g id="edge6" class="edge">
<title>10&#45;&gt;1</title>
<path fill="none" stroke="grey" stroke-width="2" d="M680.44,-440.6C658.39,-437.81 633.63,-434.72 611,-432 541.27,-423.61 348.99,-443.22 297,-396 280.15,-380.69 276.25,-354.42 276.06,-334.37"/>
<polygon fill="grey" stroke="grey" stroke-width="2" points="279.56,-334.34 276.26,-324.27 272.56,-334.2 279.56,-334.34"/>
</g>
<!-- 10&#45;&gt;2 -->
<g id="edge12" class="edge">
<title>10&#45;&gt;2</title>
<path fill="none" stroke="grey" stroke-width="2" d="M693.19,-431.97C662.61,-422.1 623.93,-409.62 591.79,-399.25"/>
<polygon fill="grey" stroke="grey" stroke-width="2" points="592.64,-395.85 582.04,-396.11 590.49,-402.51 592.64,-395.85"/>
</g>
<!-- 12 -->
<g id="node13" class="node">
<title>12</title>
<path fill="none" stroke="#d8c356" stroke-width="2" d="M441.5,-396C441.5,-396 318.5,-396 318.5,-396 312.5,-396 306.5,-390 306.5,-384 306.5,-384 306.5,-372 306.5,-372 306.5,-366 312.5,-360 318.5,-360 318.5,-360 441.5,-360 441.5,-360 447.5,-360 453.5,-366 453.5,-372 453.5,-372 453.5,-384 453.5,-384 453.5,-390 447.5,-396 441.5,-396"/>
<text text-anchor="middle" x="380" y="-375.5" font-family="sans" font-size="10.00">create_hemispheres_ccfv3</text>
</g>
<!-- 10&#45;&gt;12 -->
<g id="edge23" class="edge">
<title>10&#45;&gt;12</title>
<path fill="none" stroke="grey" stroke-width="2" d="M680.46,-437.05C625.31,-426.92 544.08,-411.83 463.57,-396.09"/>
<polygon fill="grey" stroke="grey" stroke-width="2" points="464.24,-392.66 453.75,-394.17 462.89,-399.53 464.24,-392.66"/>
</g>
<!-- 10&#45;&gt;13 -->
<g id="edge24" class="edge">
<title>10&#45;&gt;13</title>
<path fill="none" stroke="grey" stroke-width="2" d="M680.46,-440.45C658.4,-437.66 633.65,-434.6 611,-432 456.96,-414.31 416.45,-424.29 264,-396 262.72,-395.76 261.42,-395.51 260.11,-395.25"/>
<polygon fill="grey" stroke="grey" stroke-width="2" points="260.52,-391.75 250.01,-393.04 259.03,-398.59 260.52,-391.75"/>
</g>
<!-- 10&#45;&gt;20 -->
<g id="edge40" class="edge">
<title>10&#45;&gt;20</title>
<path fill="none" stroke="grey" stroke-width="2" d="M811.71,-440.21C891.56,-429.52 1028.4,-411.2 1131.64,-397.39"/>
<polygon fill="grey" stroke="grey" stroke-width="2" points="1132.39,-400.82 1141.84,-396.02 1131.46,-393.88 1132.39,-400.82"/>
</g>
<!-- 10&#45;&gt;45 -->
<g id="edge82" class="edge">
<title>10&#45;&gt;45</title>
<path fill="none" stroke="grey" stroke-width="2" d="M759.84,-431.7C766.49,-423.39 774.58,-413.28 781.89,-404.14"/>
<polygon fill="grey" stroke="grey" stroke-width="2" points="784.8,-406.1 788.32,-396.1 779.34,-401.73 784.8,-406.1"/>
</g>
<!-- 10&#45;&gt;60 -->
<g id="edge116" class="edge">
<title>10&#45;&gt;60</title>
<path fill="none" stroke="grey" stroke-width="2" d="M811.63,-448.94C970.11,-448.04 1386.23,-441.31 1741.37,-396.1"/>
<polygon fill="grey" stroke="grey" stroke-width="2" points="1741.86,-399.57 1751.33,-394.82 1740.97,-392.62 1741.86,-399.57"/>
</g>
<!-- 10&#45;&gt;72 -->
<g id="edge139" class="edge">
<title>10&#45;&gt;72</title>
<path fill="none" stroke="grey" stroke-width="2" d="M811.55,-444.1C931.39,-435.09 1193.87,-415.03 1415,-396 1427.04,-394.96 1439.52,-393.86 1452.06,-392.74"/>
<polygon fill="grey" stroke="grey" stroke-width="2" points="1452.46,-396.21 1462.11,-391.83 1451.83,-389.24 1452.46,-396.21"/>
</g>
<!-- 10&#45;&gt;75 -->
<g id="edge146" class="edge">
<title>10&#45;&gt;75</title>
<path fill="none" stroke="grey" stroke-width="2" d="M680.33,-432.33C662.22,-424.39 644.64,-412.81 634,-396 617.25,-369.55 652.59,-290.98 655,-288 697.22,-235.7 723.93,-236.34 788,-216 893.97,-182.36 1020.28,-169.77 1111.21,-165.2"/>
<polygon fill="grey" stroke="grey" stroke-width="2" points="1111.47,-168.69 1121.29,-164.72 1111.13,-161.7 1111.47,-168.69"/>
</g>
<!-- 11 -->
<g id="node12" class="node">
<title>11</title>
<path fill="none" stroke="#d8bc56" stroke-width="2" d="M589.5,-468C589.5,-468 468.5,-468 468.5,-468 462.5,-468 456.5,-462 456.5,-456 456.5,-456 456.5,-444 456.5,-444 456.5,-438 462.5,-432 468.5,-432 468.5,-432 589.5,-432 589.5,-432 595.5,-432 601.5,-438 601.5,-444 601.5,-444 601.5,-456 601.5,-456 601.5,-462 595.5,-468 589.5,-468"/>
<text text-anchor="middle" x="529" y="-447.5" font-family="sans" font-size="10.00">fetch_regions_layers_map</text>
</g>
<!-- 11&#45;&gt;2 -->
<g id="edge13" class="edge">
<title>11&#45;&gt;2</title>
<path fill="none" stroke="grey" stroke-width="2" d="M529,-431.7C529,-423.98 529,-414.71 529,-406.11"/>
<polygon fill="grey" stroke="grey" stroke-width="2" points="532.5,-406.1 529,-396.1 525.5,-406.1 532.5,-406.1"/>
</g>
<!-- 12&#45;&gt;1 -->
<g id="edge7" class="edge">
<title>12&#45;&gt;1</title>
<path fill="none" stroke="grey" stroke-width="2" d="M355.05,-359.88C341.96,-350.89 325.74,-339.76 311.56,-330.03"/>
<polygon fill="grey" stroke="grey" stroke-width="2" points="313.27,-326.96 303.05,-324.19 309.31,-332.73 313.27,-326.96"/>
</g>
<!-- 13&#45;&gt;1 -->
<g id="edge8" class="edge">
<title>13&#45;&gt;1</title>
<path fill="none" stroke="grey" stroke-width="2" d="M220.03,-359.7C229.54,-351.05 241.21,-340.45 251.57,-331.03"/>
<polygon fill="grey" stroke="grey" stroke-width="2" points="254.14,-333.42 259.19,-324.1 249.43,-328.24 254.14,-333.42"/>
</g>
<!-- 14&#45;&gt;1 -->
<g id="edge9" class="edge">
<title>14&#45;&gt;1</title>
<path fill="none" stroke="grey" stroke-width="2" d="M173.66,-431.77C161.89,-422.72 149.38,-410.48 143,-396 136.55,-381.36 133.99,-373.22 143,-360 158.85,-336.76 186.57,-323.71 212.8,-316.38"/>
<polygon fill="grey" stroke="grey" stroke-width="2" points="213.92,-319.7 222.74,-313.84 212.19,-312.92 213.92,-319.7"/>
</g>
<!-- 14&#45;&gt;13 -->
<g id="edge26" class="edge">
<title>14&#45;&gt;13</title>
<path fill="none" stroke="grey" stroke-width="2" d="M201,-431.7C201,-423.98 201,-414.71 201,-406.11"/>
<polygon fill="grey" stroke="grey" stroke-width="2" points="204.5,-406.1 201,-396.1 197.5,-406.1 204.5,-406.1"/>
</g>
<!-- 15 -->
<g id="node16" class="node">
<title>15</title>
<path fill="none" stroke="#d89c56" stroke-width="2" d="M84,-396C84,-396 12,-396 12,-396 6,-396 0,-390 0,-384 0,-384 0,-372 0,-372 0,-366 6,-360 12,-360 12,-360 84,-360 84,-360 90,-360 96,-366 96,-372 96,-372 96,-384 96,-384 96,-390 90,-396 84,-396"/>
<text text-anchor="middle" x="48" y="-375.5" font-family="sans" font-size="10.00">orientation_field</text>
</g>
<!-- 14&#45;&gt;15 -->
<g id="edge29" class="edge">
<title>14&#45;&gt;15</title>
<path fill="none" stroke="grey" stroke-width="2" d="M163.57,-431.88C142.75,-422.35 116.65,-410.41 94.52,-400.28"/>
<polygon fill="grey" stroke="grey" stroke-width="2" points="95.86,-397.05 85.31,-396.07 92.94,-403.41 95.86,-397.05"/>
</g>
<!-- 15&#45;&gt;1 -->
<g id="edge10" class="edge">
<title>15&#45;&gt;1</title>
<path fill="none" stroke="grey" stroke-width="2" d="M96.22,-362.33C130.19,-351.98 176.08,-338.02 213.24,-326.71"/>
<polygon fill="grey" stroke="grey" stroke-width="2" points="214.44,-330 222.98,-323.74 212.4,-323.31 214.44,-330"/>
</g>
<!-- 16&#45;&gt;0 -->
<g id="edge2" class="edge">
<title>16&#45;&gt;0</title>
<path fill="none" stroke="grey" stroke-width="2" d="M695.58,-143.87C712.3,-119.14 743.33,-73.24 762.75,-44.51"/>
<polygon fill="grey" stroke="grey" stroke-width="2" points="765.68,-46.43 768.38,-36.19 759.88,-42.51 765.68,-46.43"/>
</g>
<!-- 17 -->
<g id="node18" class="node">
<title>17</title>
<path fill="none" stroke="#97d856" stroke-width="2" d="M929.5,-252C929.5,-252 808.5,-252 808.5,-252 802.5,-252 796.5,-246 796.5,-240 796.5,-240 796.5,-228 796.5,-228 796.5,-222 802.5,-216 808.5,-216 808.5,-216 929.5,-216 929.5,-216 935.5,-216 941.5,-222 941.5,-228 941.5,-228 941.5,-240 941.5,-240 941.5,-246 935.5,-252 929.5,-252"/>
<text text-anchor="middle" x="869" y="-231.5" font-family="sans" font-size="10.00">push_volumetric_datasets</text>
</g>
<!-- 17&#45;&gt;0 -->
<g id="edge3" class="edge">
<title>17&#45;&gt;0</title>
<path fill="none" stroke="grey" stroke-width="2" d="M861.87,-215.85C846.37,-178.6 809.56,-90.07 791.04,-45.54"/>
<polygon fill="grey" stroke="grey" stroke-width="2" points="794.24,-44.12 787.17,-36.23 787.78,-46.81 794.24,-44.12"/>
</g>
<!-- 18&#45;&gt;17 -->
<g id="edge31" class="edge">
<title>18&#45;&gt;17</title>
<path fill="none" stroke="grey" stroke-width="2" d="M740.73,-288.76C764.06,-278.99 794,-266.44 819.09,-255.92"/>
<polygon fill="grey" stroke="grey" stroke-width="2" points="820.57,-259.09 828.44,-252 817.87,-252.64 820.57,-259.09"/>
</g>
<!-- 19&#45;&gt;17 -->
<g id="edge32" class="edge">
<title>19&#45;&gt;17</title>
<path fill="none" stroke="grey" stroke-width="2" d="M1068,-287.97C1030.29,-277.93 982.43,-265.19 943.09,-254.72"/>
<polygon fill="grey" stroke="grey" stroke-width="2" points="943.85,-251.3 933.29,-252.11 942.05,-258.07 943.85,-251.3"/>
</g>
<!-- 20&#45;&gt;19 -->
<g id="edge36" class="edge">
<title>20&#45;&gt;19</title>
<path fill="none" stroke="grey" stroke-width="2" d="M1235.49,-359.88C1217.16,-350.51 1194.26,-338.81 1174.67,-328.8"/>
<polygon fill="grey" stroke="grey" stroke-width="2" points="1176.14,-325.62 1165.64,-324.19 1172.96,-331.86 1176.14,-325.62"/>
</g>
<!-- 21 -->
<g id="node22" class="node">
<title>21</title>
<path fill="none" stroke="#567bd8" stroke-width="2" d="M2357.5,-1260C2357.5,-1260 2250.5,-1260 2250.5,-1260 2244.5,-1260 2238.5,-1254 2238.5,-1248 2238.5,-1248 2238.5,-1236 2238.5,-1236 2238.5,-1230 2244.5,-1224 2250.5,-1224 2250.5,-1224 2357.5,-1224 2357.5,-1224 2363.5,-1224 2369.5,-1230 2369.5,-1236 2369.5,-1236 2369.5,-1248 2369.5,-1248 2369.5,-1254 2363.5,-1260 2357.5,-1260"/>
<text text-anchor="middle" x="2304" y="-1239.5" font-family="sans" font-size="10.00">validate_annotation_v2</text>
</g>
<!-- 21&#45;&gt;20 -->
<g id="edge39" class="edge">
<title>21&#45;&gt;20</title>
<path fill="none" stroke="grey" stroke-width="2" d="M2238.36,-1230.46C2222.85,-1228.16 2206.36,-1225.86 2191,-1224 2103.71,-1213.46 1877.11,-1224.23 1797,-1188 1775.8,-1178.41 1779.86,-1162.3 1759,-1152 1668.6,-1107.34 1631.23,-1146.13 1535,-1116 1464.43,-1093.9 1446.44,-1085.15 1385,-1044 1345.26,-1017.38 1339.11,-1005.53 1305,-972 1235.25,-903.44 1155,-908.8 1155,-811 1155,-811 1155,-811 1155,-593 1155,-516.76 1212.06,-441.28 1245.44,-403.65"/>
<polygon fill="grey" stroke="grey" stroke-width="2" points="1248.06,-405.97 1252.18,-396.21 1242.87,-401.27 1248.06,-405.97"/>
</g>
<!-- 31 -->
<g id="node32" class="node">
<title>31</title>
<path fill="none" stroke="#56d882" stroke-width="2" d="M1642.5,-972C1642.5,-972 1475.5,-972 1475.5,-972 1469.5,-972 1463.5,-966 1463.5,-960 1463.5,-960 1463.5,-948 1463.5,-948 1463.5,-942 1469.5,-936 1475.5,-936 1475.5,-936 1642.5,-936 1642.5,-936 1648.5,-936 1654.5,-942 1654.5,-948 1654.5,-948 1654.5,-960 1654.5,-960 1654.5,-966 1648.5,-972 1642.5,-972"/>
<text text-anchor="middle" x="1559" y="-951.5" font-family="sans" font-size="10.00">validate_neuron_glia_cell_densities</text>
</g>
<!-- 21&#45;&gt;31 -->
<g id="edge57" class="edge">
<title>21&#45;&gt;31</title>
<path fill="none" stroke="grey" stroke-width="2" d="M2238.34,-1229.19C2228.51,-1227.44 2218.49,-1225.67 2209,-1224 2116.16,-1207.7 2076.87,-1242.55 2000,-1188 1955.22,-1156.22 1982.34,-1114.97 1940,-1080 1861.09,-1014.82 1747.15,-983.28 1664.44,-968.24"/>
<polygon fill="grey" stroke="grey" stroke-width="2" points="1664.97,-964.78 1654.52,-966.48 1663.76,-971.67 1664.97,-964.78"/>
</g>
<!-- 32 -->
<g id="node33" class="node">
<title>32</title>
<path fill="none" stroke="#d6d856" stroke-width="2" d="M1631,-1044C1631,-1044 1475,-1044 1475,-1044 1469,-1044 1463,-1038 1463,-1032 1463,-1032 1463,-1020 1463,-1020 1463,-1014 1469,-1008 1475,-1008 1475,-1008 1631,-1008 1631,-1008 1637,-1008 1643,-1014 1643,-1020 1643,-1020 1643,-1032 1643,-1032 1643,-1038 1637,-1044 1631,-1044"/>
<text text-anchor="middle" x="1553" y="-1023.5" font-family="sans" font-size="10.00">glia_cell_densities_correctednissl</text>
</g>
<!-- 21&#45;&gt;32 -->
<g id="edge60" class="edge">
<title>21&#45;&gt;32</title>
<path fill="none" stroke="grey" stroke-width="2" d="M2238.18,-1226.48C2233.39,-1225.58 2228.63,-1224.75 2224,-1224 2081.4,-1200.96 2035.67,-1240.22 1901,-1188 1850.27,-1168.33 1844.88,-1149.48 1802,-1116 1782.35,-1100.66 1781.17,-1091.39 1759,-1080 1726.34,-1063.23 1687.97,-1051.49 1653.25,-1043.4"/>
<polygon fill="grey" stroke="grey" stroke-width="2" points="1653.61,-1039.89 1643.09,-1041.11 1652.08,-1046.72 1653.61,-1039.89"/>
</g>
<!-- 33 -->
<g id="node34" class="node">
<title>33</title>
<path fill="none" stroke="#5692d8" stroke-width="2" d="M1919,-1116C1919,-1116 1823,-1116 1823,-1116 1817,-1116 1811,-1110 1811,-1104 1811,-1104 1811,-1092 1811,-1092 1811,-1086 1817,-1080 1823,-1080 1823,-1080 1919,-1080 1919,-1080 1925,-1080 1931,-1086 1931,-1092 1931,-1092 1931,-1104 1931,-1104 1931,-1110 1925,-1116 1919,-1116"/>
<text text-anchor="middle" x="1871" y="-1095.5" font-family="sans" font-size="10.00">validate_cell_density</text>
</g>
<!-- 21&#45;&gt;33 -->
<g id="edge64" class="edge">
<title>21&#45;&gt;33</title>
<path fill="none" stroke="grey" stroke-width="2" d="M2238.16,-1226.57C2233.38,-1225.65 2228.62,-1224.79 2224,-1224 2100.75,-1202.99 2054.56,-1248.24 1945,-1188 1918.62,-1173.49 1897.77,-1145.48 1885.01,-1124.74"/>
<polygon fill="grey" stroke="grey" stroke-width="2" points="1887.99,-1122.91 1879.89,-1116.08 1881.97,-1126.47 1887.99,-1122.91"/>
</g>
<!-- 34 -->
<g id="node35" class="node">
<title>34</title>
<path fill="none" stroke="#56d87b" stroke-width="2" d="M1667.5,-1188C1667.5,-1188 1542.5,-1188 1542.5,-1188 1536.5,-1188 1530.5,-1182 1530.5,-1176 1530.5,-1176 1530.5,-1164 1530.5,-1164 1530.5,-1158 1536.5,-1152 1542.5,-1152 1542.5,-1152 1667.5,-1152 1667.5,-1152 1673.5,-1152 1679.5,-1158 1679.5,-1164 1679.5,-1164 1679.5,-1176 1679.5,-1176 1679.5,-1182 1673.5,-1188 1667.5,-1188"/>
<text text-anchor="middle" x="1605" y="-1167.5" font-family="sans" font-size="10.00">cell_density_correctednissl</text>
</g>
<!-- 21&#45;&gt;34 -->
<g id="edge67" class="edge">
<title>21&#45;&gt;34</title>
<path fill="none" stroke="grey" stroke-width="2" d="M2238.38,-1230.32C2222.87,-1228.02 2206.37,-1225.76 2191,-1224 1987.25,-1200.73 1934.92,-1209.72 1731,-1188 1717.58,-1186.57 1703.38,-1184.85 1689.54,-1183.07"/>
<polygon fill="grey" stroke="grey" stroke-width="2" points="1689.91,-1179.59 1679.54,-1181.76 1689,-1186.53 1689.91,-1179.59"/>
</g>
<!-- 37 -->
<g id="node38" class="node">
<title>37</title>
<path fill="none" stroke="#56a2d8" stroke-width="2" d="M1395,-1188C1395,-1188 1315,-1188 1315,-1188 1309,-1188 1303,-1182 1303,-1176 1303,-1176 1303,-1164 1303,-1164 1303,-1158 1309,-1152 1315,-1152 1315,-1152 1395,-1152 1395,-1152 1401,-1152 1407,-1158 1407,-1164 1407,-1164 1407,-1176 1407,-1176 1407,-1182 1401,-1188 1395,-1188"/>
<text text-anchor="middle" x="1355" y="-1167.5" font-family="sans" font-size="10.00">combine_markers</text>
</g>
<!-- 21&#45;&gt;37 -->
<g id="edge77" class="edge">
<title>21&#45;&gt;37</title>
<path fill="none" stroke="grey" stroke-width="2" d="M2238.41,-1230.05C2222.9,-1227.76 2206.39,-1225.57 2191,-1224 1894.77,-1193.82 1818.87,-1211.08 1522,-1188 1487.41,-1185.31 1448.88,-1181.45 1417.55,-1178.08"/>
<polygon fill="grey" stroke="grey" stroke-width="2" points="1417.54,-1174.56 1407.22,-1176.96 1416.78,-1181.52 1417.54,-1174.56"/>
</g>
<!-- 21&#45;&gt;45 -->
<g id="edge81" class="edge">
<title>21&#45;&gt;45</title>
<path fill="none" stroke="grey" stroke-width="2" d="M2238.37,-1230.38C2222.86,-1228.07 2206.37,-1225.79 2191,-1224 1999.63,-1201.66 1944.21,-1241.07 1759,-1188 1725.37,-1178.36 1722.33,-1162.64 1689,-1152 1582.06,-1117.86 1545.93,-1150.18 1439,-1116 1157.07,-1025.89 847,-1106.98 847,-811 847,-811 847,-811 847,-521 847,-479.13 829,-433.42 815.77,-405.48"/>
<polygon fill="grey" stroke="grey" stroke-width="2" points="818.85,-403.82 811.32,-396.37 812.56,-406.89 818.85,-403.82"/>
</g>
<!-- 46 -->
<g id="node47" class="node">
<title>46</title>
<path fill="none" stroke="#56b1d8" stroke-width="2" d="M1457,-684C1457,-684 1323,-684 1323,-684 1317,-684 1311,-678 1311,-672 1311,-672 1311,-660 1311,-660 1311,-654 1317,-648 1323,-648 1323,-648 1457,-648 1457,-648 1463,-648 1469,-654 1469,-660 1469,-660 1469,-672 1469,-672 1469,-678 1463,-684 1457,-684"/>
<text text-anchor="middle" x="1390" y="-663.5" font-family="sans" font-size="10.00">validate_inhibitory_densities</text>
</g>
<!-- 21&#45;&gt;46 -->
<g id="edge84" class="edge">
<title>21&#45;&gt;46</title>
<path fill="none" stroke="grey" stroke-width="2" d="M2304,-1223.95C2304,-1197.29 2304,-1144.11 2304,-1099 2304,-1099 2304,-1099 2304,-1025 2304,-952.65 2315.9,-926.81 2280,-864 2254.75,-819.83 2236.25,-815.25 2191,-792 2083.97,-737 2048.31,-741.96 1930,-720 1772.98,-690.86 1587.11,-677.07 1479.46,-671.08"/>
<polygon fill="grey" stroke="grey" stroke-width="2" points="1479.47,-667.58 1469.29,-670.53 1479.09,-674.57 1479.47,-667.58"/>
</g>
<!-- 47 -->
<g id="node48" class="node">
<title>47</title>
<path fill="none" stroke="#56b9d8" stroke-width="2" d="M1909,-756C1909,-756 1669,-756 1669,-756 1663,-756 1657,-750 1657,-744 1657,-744 1657,-732 1657,-732 1657,-726 1663,-720 1669,-720 1669,-720 1909,-720 1909,-720 1915,-720 1921,-726 1921,-732 1921,-732 1921,-744 1921,-744 1921,-750 1915,-756 1909,-756"/>
<text text-anchor="middle" x="1789" y="-735.5" font-family="sans" font-size="10.00">inhibitory_neuron_densities_linprog_correctednissl</text>
</g>
<!-- 21&#45;&gt;47 -->
<g id="edge90" class="edge">
<title>21&#45;&gt;47</title>
<path fill="none" stroke="grey" stroke-width="2" d="M2296.31,-1223.91C2285.21,-1197.62 2266,-1145.45 2266,-1099 2266,-1099 2266,-1099 2266,-881 2266,-810.44 2071.84,-772.11 1931.26,-753.61"/>
<polygon fill="grey" stroke="grey" stroke-width="2" points="1931.6,-750.13 1921.24,-752.31 1930.71,-757.07 1931.6,-750.13"/>
</g>
<!-- 48 -->
<g id="node49" class="node">
<title>48</title>
<path fill="none" stroke="#569ad8" stroke-width="2" d="M1874,-828C1874,-828 1704,-828 1704,-828 1698,-828 1692,-822 1692,-816 1692,-816 1692,-804 1692,-804 1692,-798 1698,-792 1704,-792 1704,-792 1874,-792 1874,-792 1880,-792 1886,-798 1886,-804 1886,-804 1886,-816 1886,-816 1886,-822 1880,-828 1874,-828"/>
<text text-anchor="middle" x="1789" y="-807.5" font-family="sans" font-size="10.00">fit_average_densities_correctednissl</text>
</g>
<!-- 21&#45;&gt;48 -->
<g id="edge97" class="edge">
<title>21&#45;&gt;48</title>
<path fill="none" stroke="grey" stroke-width="2" d="M2276.98,-1223.96C2243.27,-1200.37 2190,-1154.33 2190,-1099 2190,-1099 2190,-1099 2190,-1025 2190,-952.95 2256.65,-918.04 2209,-864 2188.57,-840.83 2013.88,-825.24 1896.32,-817.26"/>
<polygon fill="grey" stroke="grey" stroke-width="2" points="1896.4,-813.76 1886.19,-816.58 1895.93,-820.74 1896.4,-813.76"/>
</g>
<!-- 56 -->
<g id="node57" class="node">
<title>56</title>
<path fill="none" stroke="#d8ac56" stroke-width="2" d="M2187.5,-900C2187.5,-900 2032.5,-900 2032.5,-900 2026.5,-900 2020.5,-894 2020.5,-888 2020.5,-888 2020.5,-876 2020.5,-876 2020.5,-870 2026.5,-864 2032.5,-864 2032.5,-864 2187.5,-864 2187.5,-864 2193.5,-864 2199.5,-870 2199.5,-876 2199.5,-876 2199.5,-888 2199.5,-888 2199.5,-894 2193.5,-900 2187.5,-900"/>
<text text-anchor="middle" x="2110" y="-879.5" font-family="sans" font-size="10.00">average_densities_correctednissl</text>
</g>
<!-- 21&#45;&gt;56 -->
<g id="edge107" class="edge">
<title>21&#45;&gt;56</title>
<path fill="none" stroke="grey" stroke-width="2" d="M2241.43,-1223.91C2156.18,-1198.74 2014,-1149.24 2014,-1099 2014,-1099 2014,-1099 2014,-1025 2014,-984.55 2010.53,-969.63 2033,-936 2041.13,-923.84 2053.08,-913.67 2065.15,-905.6"/>
<polygon fill="grey" stroke="grey" stroke-width="2" points="2067.3,-908.38 2073.91,-900.1 2063.58,-902.46 2067.3,-908.38"/>
</g>
<!-- 21&#45;&gt;60 -->
<g id="edge115" class="edge">
<title>21&#45;&gt;60</title>
<path fill="none" stroke="grey" stroke-width="2" d="M2369.68,-1239.24C2541.38,-1234.25 2994.58,-1218.32 3055,-1188 3195.88,-1117.29 3236,-1040.63 3236,-883 3236,-883 3236,-883 3236,-521 3236,-386.8 2212.58,-378.19 1908.94,-378.59"/>
<polygon fill="grey" stroke="grey" stroke-width="2" points="1908.87,-375.09 1898.87,-378.61 1908.88,-382.09 1908.87,-375.09"/>
</g>
<!-- 61 -->
<g id="node62" class="node">
<title>61</title>
<path fill="none" stroke="#56d8b9" stroke-width="2" d="M1917.5,-468C1917.5,-468 1798.5,-468 1798.5,-468 1792.5,-468 1786.5,-462 1786.5,-456 1786.5,-456 1786.5,-444 1786.5,-444 1786.5,-438 1792.5,-432 1798.5,-432 1798.5,-432 1917.5,-432 1917.5,-432 1923.5,-432 1929.5,-438 1929.5,-444 1929.5,-444 1929.5,-456 1929.5,-456 1929.5,-462 1923.5,-468 1917.5,-468"/>
<text text-anchor="middle" x="1858" y="-447.5" font-family="sans" font-size="10.00">validate_all_ME_densities</text>
</g>
<!-- 21&#45;&gt;61 -->
<g id="edge118" class="edge">
<title>21&#45;&gt;61</title>
<path fill="none" stroke="grey" stroke-width="2" d="M2369.55,-1229.92C2573.84,-1193.83 3180.84,-1073.96 3103,-936 2863.33,-511.24 2177.57,-457.04 1940.11,-451.24"/>
<polygon fill="grey" stroke="grey" stroke-width="2" points="1939.9,-447.73 1929.82,-451.01 1939.74,-454.73 1939.9,-447.73"/>
</g>
<!-- 62 -->
<g id="node63" class="node">
<title>62</title>
<path fill="none" stroke="#88d856" stroke-width="2" d="M1972,-540C1972,-540 1744,-540 1744,-540 1738,-540 1732,-534 1732,-528 1732,-528 1732,-516 1732,-516 1732,-510 1738,-504 1744,-504 1744,-504 1972,-504 1972,-504 1978,-504 1984,-510 1984,-516 1984,-516 1984,-528 1984,-528 1984,-534 1978,-540 1972,-540"/>
<text text-anchor="middle" x="1858" y="-519.5" font-family="sans" font-size="10.00">create_mtypes_densities_from_probability_map</text>
</g>
<!-- 21&#45;&gt;62 -->
<g id="edge123" class="edge">
<title>21&#45;&gt;62</title>
<path fill="none" stroke="grey" stroke-width="2" d="M2311.69,-1223.91C2322.79,-1197.62 2342,-1145.45 2342,-1099 2342,-1099 2342,-1099 2342,-1025 2342,-816.23 2621.22,-729.76 2480,-576 2447.83,-540.98 2167.44,-529.07 1994.28,-525.04"/>
<polygon fill="grey" stroke="grey" stroke-width="2" points="1994.14,-521.53 1984.06,-524.81 1993.98,-528.53 1994.14,-521.53"/>
</g>
<!-- 70 -->
<g id="node71" class="node">
<title>70</title>
<path fill="none" stroke="#d86e56" stroke-width="2" d="M3068,-612C3068,-612 3000,-612 3000,-612 2994,-612 2988,-606 2988,-600 2988,-600 2988,-588 2988,-588 2988,-582 2994,-576 3000,-576 3000,-576 3068,-576 3068,-576 3074,-576 3080,-582 3080,-588 3080,-588 3080,-600 3080,-600 3080,-606 3074,-612 3068,-612"/>
<text text-anchor="middle" x="3034" y="-591.5" font-family="sans" font-size="10.00">excitatory_split</text>
</g>
<!-- 21&#45;&gt;70 -->
<g id="edge134" class="edge">
<title>21&#45;&gt;70</title>
<path fill="none" stroke="grey" stroke-width="2" d="M2369.76,-1236.25C2546.79,-1223.43 3020.28,-1189.08 3022,-1188 3088.28,-1146.4 3198,-961.25 3198,-883 3198,-883 3198,-883 3198,-737 3198,-696.55 3205.53,-678.53 3179,-648 3156.65,-622.28 3120.74,-609.03 3090.25,-602.22"/>
<polygon fill="grey" stroke="grey" stroke-width="2" points="3090.64,-598.72 3080.14,-600.14 3089.24,-605.58 3090.64,-598.72"/>
</g>
<!-- 21&#45;&gt;72 -->
<g id="edge138" class="edge">
<title>21&#45;&gt;72</title>
<path fill="none" stroke="grey" stroke-width="2" d="M2238.44,-1228.56C2228.59,-1226.9 2218.54,-1225.31 2209,-1224 2044.89,-1201.39 1990.02,-1253.83 1838,-1188 1815.75,-1178.36 1818.13,-1163.9 1797,-1152 1657.73,-1073.59 1593.96,-1121.17 1454,-1044 1367.29,-996.19 1336.85,-983.74 1284,-900 1207.13,-778.21 1193.8,-684.06 1289,-576 1362.86,-492.17 1480.79,-430.65 1547.58,-400.28"/>
<polygon fill="grey" stroke="grey" stroke-width="2" points="1549.36,-403.31 1557.05,-396.02 1546.49,-396.93 1549.36,-403.31"/>
</g>
<!-- 22&#45;&gt;21 -->
<g id="edge42" class="edge">
<title>22&#45;&gt;21</title>
<path fill="none" stroke="grey" stroke-width="2" d="M1621.27,-1310.43C1745.17,-1305.34 2005.87,-1291.6 2224,-1260 2225.3,-1259.81 2226.62,-1259.61 2227.94,-1259.41"/>
<polygon fill="grey" stroke="grey" stroke-width="2" points="2228.91,-1262.79 2238.2,-1257.7 2227.76,-1255.89 2228.91,-1262.79"/>
</g>
<!-- 22&#45;&gt;32 -->
<g id="edge59" class="edge">
<title>22&#45;&gt;32</title>
<path fill="none" stroke="grey" stroke-width="2" d="M1621.09,-1312.42C1780.73,-1310.39 2153.03,-1301.24 2191,-1260 2201.84,-1248.23 2201.72,-1235.87 2191,-1224 2138.15,-1165.48 1913.14,-1211.9 1838,-1188 1737.92,-1156.17 1633.81,-1086.39 1583.64,-1050.04"/>
<polygon fill="grey" stroke="grey" stroke-width="2" points="1585.63,-1047.16 1575.49,-1044.08 1581.5,-1052.81 1585.63,-1047.16"/>
</g>
<!-- 22&#45;&gt;34 -->
<g id="edge66" class="edge">
<title>22&#45;&gt;34</title>
<path fill="none" stroke="grey" stroke-width="2" d="M1621.21,-1313.76C1720.56,-1313.1 1891.65,-1305.19 1931,-1260 2049.16,-1124.32 2149.88,-1266.65 1693,-1188 1691.93,-1187.82 1690.85,-1187.63 1689.76,-1187.44"/>
<polygon fill="grey" stroke="grey" stroke-width="2" points="1690.31,-1183.98 1679.85,-1185.68 1689.09,-1190.87 1690.31,-1183.98"/>
</g>
<!-- 22&#45;&gt;37 -->
<g id="edge76" class="edge">
<title>22&#45;&gt;37</title>
<path fill="none" stroke="grey" stroke-width="2" d="M1476.98,-1313.74C1377.88,-1313.03 1207.24,-1305.08 1168,-1260 1127.72,-1213.73 1224.19,-1189.61 1293.02,-1178.66"/>
<polygon fill="grey" stroke="grey" stroke-width="2" points="1293.6,-1182.11 1302.95,-1177.14 1292.54,-1175.19 1293.6,-1182.11"/>
</g>
<!-- 22&#45;&gt;46 -->
<g id="edge86" class="edge">
<title>22&#45;&gt;46</title>
<path fill="none" stroke="grey" stroke-width="2" d="M1476.75,-1311.21C1336.62,-1306.99 1038.91,-1294.08 1008,-1260 984.45,-1234.03 1030.88,-1163.05 1037,-1152 1050.84,-1127.02 1300.24,-788.62 1371.27,-692.37"/>
<polygon fill="grey" stroke="grey" stroke-width="2" points="1374.26,-694.21 1377.38,-684.08 1368.63,-690.05 1374.26,-694.21"/>
</g>
<!-- 22&#45;&gt;47 -->
<g id="edge89" class="edge">
<title>22&#45;&gt;47</title>
<path fill="none" stroke="grey" stroke-width="2" d="M1621,-1313.35C1804.37,-1313.44 2303.62,-1308.8 2716,-1260 2915.86,-1236.35 3160,-1372.26 3160,-1171 3160,-1171 3160,-1171 3160,-1025 3160,-775.95 2282.09,-742.35 1931.3,-738.86"/>
<polygon fill="grey" stroke="grey" stroke-width="2" points="1931.11,-735.36 1921.08,-738.77 1931.05,-742.36 1931.11,-735.36"/>
</g>
<!-- 22&#45;&gt;48 -->
<g id="edge96" class="edge">
<title>22&#45;&gt;48</title>
<path fill="none" stroke="grey" stroke-width="2" d="M1476.89,-1311.06C1339.06,-1306.6 1049.15,-1293.32 1019,-1260 1008.26,-1248.14 1011.77,-1238.28 1019,-1224 1080.02,-1103.45 1157.23,-1126.81 1264,-1044 1363.83,-966.57 1369.11,-916.54 1484,-864 1545.91,-835.69 1621.23,-822.42 1681.53,-816.24"/>
<polygon fill="grey" stroke="grey" stroke-width="2" points="1682.23,-819.68 1691.84,-815.23 1681.55,-812.72 1682.23,-819.68"/>
</g>
<!-- 22&#45;&gt;56 -->
<g id="edge106" class="edge">
<title>22&#45;&gt;56</title>
<path fill="none" stroke="grey" stroke-width="2" d="M1621.23,-1310.15C1925.1,-1297.72 3084,-1245.41 3084,-1171 3084,-1171 3084,-1171 3084,-1097 3084,-934.17 2519.55,-1013.15 2362,-972 2290.94,-953.44 2211.4,-923.8 2161.05,-903.89"/>
<polygon fill="grey" stroke="grey" stroke-width="2" points="2162.27,-900.6 2151.68,-900.16 2159.68,-907.11 2162.27,-900.6"/>
</g>
<!-- 22&#45;&gt;62 -->
<g id="edge122" class="edge">
<title>22&#45;&gt;62</title>
<path fill="none" stroke="grey" stroke-width="2" d="M1476.93,-1311.37C1334.66,-1307.4 1028.68,-1294.87 997,-1260 986.24,-1248.16 995.25,-1239.9 997,-1224 1000.58,-1191.42 1002.29,-1182.98 1013,-1152 1036.18,-1084.92 1230.77,-616.56 1289,-576 1323.7,-551.83 1564.59,-536.34 1721.62,-528.7"/>
<polygon fill="grey" stroke="grey" stroke-width="2" points="1722.02,-532.18 1731.84,-528.21 1721.68,-525.19 1722.02,-532.18"/>
</g>
<!-- 22&#45;&gt;70 -->
<g id="edge133" class="edge">
<title>22&#45;&gt;70</title>
<path fill="none" stroke="grey" stroke-width="2" d="M1621.25,-1312.42C1869.53,-1310.1 2686.72,-1299.57 2946,-1260 3095.32,-1237.21 3274,-1322.05 3274,-1171 3274,-1171 3274,-1171 3274,-737 3274,-652.09 3161.37,-616.88 3090.42,-603.12"/>
<polygon fill="grey" stroke="grey" stroke-width="2" points="3090.74,-599.62 3080.27,-601.24 3089.47,-606.5 3090.74,-599.62"/>
</g>
<!-- 23 -->
<g id="node24" class="node">
<title>23</title>
<path fill="none" stroke="#56d882" stroke-width="2" d="M1633.5,-1404C1633.5,-1404 1406.5,-1404 1406.5,-1404 1400.5,-1404 1394.5,-1398 1394.5,-1392 1394.5,-1392 1394.5,-1380 1394.5,-1380 1394.5,-1374 1400.5,-1368 1406.5,-1368 1406.5,-1368 1633.5,-1368 1633.5,-1368 1639.5,-1368 1645.5,-1374 1645.5,-1380 1645.5,-1380 1645.5,-1392 1645.5,-1392 1645.5,-1398 1639.5,-1404 1633.5,-1404"/>
<text text-anchor="middle" x="1520" y="-1383.5" font-family="sans" font-size="10.00">create_leaves_only_hierarchy_annotation_ccfv2</text>
</g>
<!-- 23&#45;&gt;22 -->
<g id="edge43" class="edge">
<title>23&#45;&gt;22</title>
<path fill="none" stroke="grey" stroke-width="2" d="M1527.17,-1367.7C1530.43,-1359.81 1534.37,-1350.3 1538,-1341.55"/>
<polygon fill="grey" stroke="grey" stroke-width="2" points="1541.32,-1342.68 1541.91,-1332.1 1534.85,-1340 1541.32,-1342.68"/>
</g>
<!-- 24&#45;&gt;23 -->
<g id="edge45" class="edge">
<title>24&#45;&gt;23</title>
<path fill="none" stroke="grey" stroke-width="2" d="M851.71,-1449.21C980.67,-1437.2 1229.21,-1414.07 1384.17,-1399.64"/>
<polygon fill="grey" stroke="grey" stroke-width="2" points="1384.6,-1403.12 1394.24,-1398.71 1383.95,-1396.15 1384.6,-1403.12"/>
</g>
<!-- 25 -->
<g id="node26" class="node">
<title>25</title>
<path fill="none" stroke="#bed856" stroke-width="2" d="M866.5,-1692C866.5,-1692 751.5,-1692 751.5,-1692 745.5,-1692 739.5,-1686 739.5,-1680 739.5,-1680 739.5,-1668 739.5,-1668 739.5,-1662 745.5,-1656 751.5,-1656 751.5,-1656 866.5,-1656 866.5,-1656 872.5,-1656 878.5,-1662 878.5,-1668 878.5,-1668 878.5,-1680 878.5,-1680 878.5,-1686 872.5,-1692 866.5,-1692"/>
<text text-anchor="middle" x="809" y="-1671.5" font-family="sans" font-size="10.00">combine_v2_annotations</text>
</g>
<!-- 25&#45;&gt;24 -->
<g id="edge47" class="edge">
<title>25&#45;&gt;24</title>
<path fill="none" stroke="grey" stroke-width="2" d="M814.98,-1655.76C824.49,-1625.41 840.03,-1561.02 820,-1512 815.51,-1501.02 807.53,-1491.08 799.15,-1482.86"/>
<polygon fill="grey" stroke="grey" stroke-width="2" points="801.49,-1480.26 791.75,-1476.09 796.76,-1485.42 801.49,-1480.26"/>
</g>
<!-- 25&#45;&gt;28 -->
<g id="edge51" class="edge">
<title>25&#45;&gt;28</title>
<path fill="none" stroke="grey" stroke-width="2" d="M809.47,-1655.84C809.14,-1636.51 805.9,-1605.05 790,-1584 780,-1570.76 765.71,-1560.48 751.05,-1552.66"/>
<polygon fill="grey" stroke="grey" stroke-width="2" points="752.42,-1549.43 741.91,-1548.1 749.3,-1555.7 752.42,-1549.43"/>
</g>
<!-- 25&#45;&gt;29 -->
<g id="edge55" class="edge">
<title>25&#45;&gt;29</title>
<path fill="none" stroke="grey" stroke-width="2" d="M779.89,-1655.88C764.33,-1646.72 744.98,-1635.34 728.22,-1625.48"/>
<polygon fill="grey" stroke="grey" stroke-width="2" points="729.62,-1622.24 719.22,-1620.19 726.07,-1628.28 729.62,-1622.24"/>
</g>
<!-- 26 -->
<g id="node27" class="node">
<title>26</title>
<path fill="none" stroke="#afd856" stroke-width="2" d="M789,-1764C789,-1764 647,-1764 647,-1764 641,-1764 635,-1758 635,-1752 635,-1752 635,-1740 635,-1740 635,-1734 641,-1728 647,-1728 647,-1728 789,-1728 789,-1728 795,-1728 801,-1734 801,-1740 801,-1740 801,-1752 801,-1752 801,-1758 795,-1764 789,-1764"/>
<text text-anchor="middle" x="718" y="-1743.5" font-family="sans" font-size="10.00">fetch_brain_parcellation_ccfv2</text>
</g>
<!-- 26&#45;&gt;25 -->
<g id="edge49" class="edge">
<title>26&#45;&gt;25</title>
<path fill="none" stroke="grey" stroke-width="2" d="M740.49,-1727.7C751.96,-1718.88 766.06,-1708.03 778.48,-1698.47"/>
<polygon fill="grey" stroke="grey" stroke-width="2" points="780.97,-1700.98 786.76,-1692.1 776.7,-1695.43 780.97,-1700.98"/>
</g>
<!-- 27 -->
<g id="node28" class="node">
<title>27</title>
<path fill="none" stroke="#d89556" stroke-width="2" d="M970.5,-1764C970.5,-1764 831.5,-1764 831.5,-1764 825.5,-1764 819.5,-1758 819.5,-1752 819.5,-1752 819.5,-1740 819.5,-1740 819.5,-1734 825.5,-1728 831.5,-1728 831.5,-1728 970.5,-1728 970.5,-1728 976.5,-1728 982.5,-1734 982.5,-1740 982.5,-1740 982.5,-1752 982.5,-1752 982.5,-1758 976.5,-1764 970.5,-1764"/>
<text text-anchor="middle" x="901" y="-1743.5" font-family="sans" font-size="10.00">fetch_fiber_parcellation_ccfv2</text>
</g>
<!-- 27&#45;&gt;25 -->
<g id="edge50" class="edge">
<title>27&#45;&gt;25</title>
<path fill="none" stroke="grey" stroke-width="2" d="M878.26,-1727.7C866.56,-1718.8 852.14,-1707.82 839.49,-1698.2"/>
<polygon fill="grey" stroke="grey" stroke-width="2" points="841.56,-1695.37 831.48,-1692.1 837.32,-1700.94 841.56,-1695.37"/>
</g>
<!-- 28&#45;&gt;24 -->
<g id="edge48" class="edge">
<title>28&#45;&gt;24</title>
<path fill="none" stroke="grey" stroke-width="2" d="M709.28,-1511.7C718.92,-1503.05 730.73,-1492.45 741.23,-1483.03"/>
<polygon fill="grey" stroke="grey" stroke-width="2" points="743.84,-1485.39 748.94,-1476.1 739.16,-1480.18 743.84,-1485.39"/>
</g>
<!-- 29&#45;&gt;28 -->
<g id="edge53" class="edge">
<title>29&#45;&gt;28</title>
<path fill="none" stroke="grey" stroke-width="2" d="M690,-1583.7C690,-1575.98 690,-1566.71 690,-1558.11"/>
<polygon fill="grey" stroke="grey" stroke-width="2" points="693.5,-1558.1 690,-1548.1 686.5,-1558.1 693.5,-1558.1"/>
</g>
<!-- 30 -->
<g id="node31" class="node">
<title>30</title>
<path fill="none" stroke="#9fd856" stroke-width="2" d="M569,-1620C569,-1620 449,-1620 449,-1620 443,-1620 437,-1614 437,-1608 437,-1608 437,-1596 437,-1596 437,-1590 443,-1584 449,-1584 449,-1584 569,-1584 569,-1584 575,-1584 581,-1590 581,-1596 581,-1596 581,-1608 581,-1608 581,-1614 575,-1620 569,-1620"/>
<text text-anchor="middle" x="509" y="-1599.5" font-family="sans" font-size="10.00">fetch_isocortex_metadata</text>
</g>
<!-- 30&#45;&gt;28 -->
<g id="edge54" class="edge">
<title>30&#45;&gt;28</title>
<path fill="none" stroke="grey" stroke-width="2" d="M553.28,-1583.88C578.35,-1574.18 609.9,-1561.98 636.37,-1551.74"/>
<polygon fill="grey" stroke="grey" stroke-width="2" points="637.8,-1554.94 645.87,-1548.07 635.28,-1548.41 637.8,-1554.94"/>
</g>
<!-- 31&#45;&gt;20 -->
<g id="edge41" class="edge">
<title>31&#45;&gt;20</title>
<path fill="none" stroke="grey" stroke-width="2" d="M1463.24,-945.32C1378.77,-932.69 1269,-899.29 1269,-811 1269,-811 1269,-811 1269,-521 1269,-481 1269,-434.65 1269,-406.08"/>
<polygon fill="grey" stroke="grey" stroke-width="2" points="1272.5,-406.05 1269,-396.05 1265.5,-406.05 1272.5,-406.05"/>
</g>
<!-- 31&#45;&gt;46 -->
<g id="edge88" class="edge">
<title>31&#45;&gt;46</title>
<path fill="none" stroke="grey" stroke-width="2" d="M1526.08,-935.9C1511.29,-926.87 1494.6,-914.62 1483,-900 1432.14,-835.91 1405.84,-740.4 1395.45,-694.11"/>
<polygon fill="grey" stroke="grey" stroke-width="2" points="1398.84,-693.25 1393.3,-684.22 1392,-694.74 1398.84,-693.25"/>
</g>
<!-- 31&#45;&gt;47 -->
<g id="edge91" class="edge">
<title>31&#45;&gt;47</title>
<path fill="none" stroke="grey" stroke-width="2" d="M1556.01,-935.87C1553.62,-916.86 1552.58,-885.95 1566,-864 1598.79,-810.37 1663.55,-777.83 1714.87,-759.45"/>
<polygon fill="grey" stroke="grey" stroke-width="2" points="1716.31,-762.65 1724.61,-756.07 1714.02,-756.04 1716.31,-762.65"/>
</g>
<!-- 31&#45;&gt;48 -->
<g id="edge98" class="edge">
<title>31&#45;&gt;48</title>
<path fill="none" stroke="grey" stroke-width="2" d="M1560.93,-935.64C1564.09,-915.53 1572.26,-882.74 1593,-864 1617.47,-841.88 1650.23,-828.85 1681.96,-821.22"/>
<polygon fill="grey" stroke="grey" stroke-width="2" points="1682.78,-824.63 1691.77,-819.02 1681.24,-817.8 1682.78,-824.63"/>
</g>
<!-- 31&#45;&gt;56 -->
<g id="edge109" class="edge">
<title>31&#45;&gt;56</title>
<path fill="none" stroke="grey" stroke-width="2" d="M1654.65,-943.36C1744.13,-933.99 1881.77,-918.66 2010.29,-900.21"/>
<polygon fill="grey" stroke="grey" stroke-width="2" points="2010.91,-903.66 2020.31,-898.76 2009.91,-896.73 2010.91,-903.66"/>
</g>
<!-- 31&#45;&gt;70 -->
<g id="edge135" class="edge">
<title>31&#45;&gt;70</title>
<path fill="none" stroke="grey" stroke-width="2" d="M1545.85,-935.69C1527.65,-909.95 1497,-859.42 1497,-811 1497,-811 1497,-811 1497,-737 1497,-661.14 2699.79,-608.37 2977.34,-597.21"/>
<polygon fill="grey" stroke="grey" stroke-width="2" points="2977.73,-600.69 2987.58,-596.8 2977.45,-593.7 2977.73,-600.69"/>
</g>
<!-- 32&#45;&gt;31 -->
<g id="edge58" class="edge">
<title>32&#45;&gt;31</title>
<path fill="none" stroke="grey" stroke-width="2" d="M1554.48,-1007.7C1555.14,-999.98 1555.94,-990.71 1556.68,-982.11"/>
<polygon fill="grey" stroke="grey" stroke-width="2" points="1560.17,-982.37 1557.53,-972.1 1553.19,-981.77 1560.17,-982.37"/>
</g>
<!-- 33&#45;&gt;32 -->
<g id="edge61" class="edge">
<title>33&#45;&gt;32</title>
<path fill="none" stroke="grey" stroke-width="2" d="M1810.84,-1083.12C1806.16,-1082.05 1801.5,-1081.01 1797,-1080 1745.86,-1068.57 1688.61,-1056.12 1642.43,-1046.16"/>
<polygon fill="grey" stroke="grey" stroke-width="2" points="1642.96,-1042.69 1632.45,-1044.01 1641.49,-1049.54 1642.96,-1042.69"/>
</g>
<!-- 33&#45;&gt;46 -->
<g id="edge87" class="edge">
<title>33&#45;&gt;46</title>
<path fill="none" stroke="grey" stroke-width="2" d="M1835.39,-1079.87C1792.7,-1059.97 1718.59,-1027.39 1652,-1008 1566.54,-983.11 1520.32,-1032.46 1455,-972 1375.7,-898.6 1380.54,-754.27 1386.52,-694.22"/>
<polygon fill="grey" stroke="grey" stroke-width="2" points="1390.03,-694.34 1387.64,-684.02 1383.07,-693.59 1390.03,-694.34"/>
</g>
<!-- 33&#45;&gt;56 -->
<g id="edge108" class="edge">
<title>33&#45;&gt;56</title>
<path fill="none" stroke="grey" stroke-width="2" d="M1881.07,-1079.87C1900.53,-1047.97 1946.19,-978.82 2000,-936 2016.03,-923.24 2035.64,-912.56 2053.83,-904.21"/>
<polygon fill="grey" stroke="grey" stroke-width="2" points="2055.47,-907.31 2063.19,-900.06 2052.63,-900.91 2055.47,-907.31"/>
</g>
<!-- 34&#45;&gt;33 -->
<g id="edge65" class="edge">
<title>34&#45;&gt;33</title>
<path fill="none" stroke="grey" stroke-width="2" d="M1669.73,-1151.97C1709.51,-1141.5 1760.47,-1128.09 1801.16,-1117.38"/>
<polygon fill="grey" stroke="grey" stroke-width="2" points="1802.22,-1120.72 1811,-1114.79 1800.44,-1113.95 1802.22,-1120.72"/>
</g>
<!-- 35 -->
<g id="node36" class="node">
<title>35</title>
<path fill="none" stroke="#56d863" stroke-width="2" d="M2169.5,-1260C2169.5,-1260 1990.5,-1260 1990.5,-1260 1984.5,-1260 1978.5,-1254 1978.5,-1248 1978.5,-1248 1978.5,-1236 1978.5,-1236 1978.5,-1230 1984.5,-1224 1990.5,-1224 1990.5,-1224 2169.5,-1224 2169.5,-1224 2175.5,-1224 2181.5,-1230 2181.5,-1236 2181.5,-1236 2181.5,-1248 2181.5,-1248 2181.5,-1254 2175.5,-1260 2169.5,-1260"/>
<text text-anchor="middle" x="2080" y="-1239.5" font-family="sans" font-size="10.00">fetch_corrected_nissl_stained_volume</text>
</g>
<!-- 35&#45;&gt;34 -->
<g id="edge68" class="edge">
<title>35&#45;&gt;34</title>
<path fill="none" stroke="grey" stroke-width="2" d="M1978.48,-1226.04C1973.58,-1225.35 1968.74,-1224.66 1964,-1224 1843.67,-1207.19 1812.92,-1207.53 1693,-1188 1691.92,-1187.82 1690.84,-1187.65 1689.76,-1187.47"/>
<polygon fill="grey" stroke="grey" stroke-width="2" points="1690.29,-1184.01 1679.84,-1185.77 1689.1,-1190.91 1690.29,-1184.01"/>
</g>
<!-- 36 -->
<g id="node37" class="node">
<title>36</title>
<path fill="none" stroke="#56d8d0" stroke-width="2" d="M1909.5,-1260C1909.5,-1260 1816.5,-1260 1816.5,-1260 1810.5,-1260 1804.5,-1254 1804.5,-1248 1804.5,-1248 1804.5,-1236 1804.5,-1236 1804.5,-1230 1810.5,-1224 1816.5,-1224 1816.5,-1224 1909.5,-1224 1909.5,-1224 1915.5,-1224 1921.5,-1230 1921.5,-1236 1921.5,-1236 1921.5,-1248 1921.5,-1248 1921.5,-1254 1915.5,-1260 1909.5,-1260"/>
<text text-anchor="middle" x="1863" y="-1239.5" font-family="sans" font-size="10.00">fetch_regions_config</text>
</g>
<!-- 36&#45;&gt;32 -->
<g id="edge63" class="edge">
<title>36&#45;&gt;32</title>
<path fill="none" stroke="grey" stroke-width="2" d="M1804.49,-1225.92C1801.29,-1225.24 1798.11,-1224.59 1795,-1224 1734.89,-1212.56 1562.34,-1234.01 1522,-1188 1488.93,-1150.28 1516.09,-1088.18 1536.22,-1053.16"/>
<polygon fill="grey" stroke="grey" stroke-width="2" points="1539.29,-1054.83 1541.4,-1044.45 1533.28,-1051.25 1539.29,-1054.83"/>
</g>
<!-- 36&#45;&gt;34 -->
<g id="edge69" class="edge">
<title>36&#45;&gt;34</title>
<path fill="none" stroke="grey" stroke-width="2" d="M1804.46,-1225.12C1766.82,-1214.91 1717.65,-1201.56 1677.54,-1190.68"/>
<polygon fill="grey" stroke="grey" stroke-width="2" points="1678.39,-1187.28 1667.82,-1188.04 1676.55,-1194.04 1678.39,-1187.28"/>
</g>
<!-- 36&#45;&gt;48 -->
<g id="edge101" class="edge">
<title>36&#45;&gt;48</title>
<path fill="none" stroke="grey" stroke-width="2" d="M1804.49,-1225.89C1801.29,-1225.21 1798.11,-1224.58 1795,-1224 1666.44,-1200.1 1616.44,-1253.03 1503,-1188 1459.81,-1163.24 1435,-1148.78 1435,-1099 1435,-1099 1435,-1099 1435,-1025 1435,-984.46 1431.83,-969.27 1455,-936 1488.6,-887.74 1511.94,-887.14 1566,-864 1602.44,-848.41 1644.28,-836.92 1681.8,-828.71"/>
<polygon fill="grey" stroke="grey" stroke-width="2" points="1682.7,-832.1 1691.75,-826.59 1681.24,-825.25 1682.7,-832.1"/>
</g>
<!-- 37&#45;&gt;32 -->
<g id="edge62" class="edge">
<title>37&#45;&gt;32</title>
<path fill="none" stroke="grey" stroke-width="2" d="M1378.88,-1151.87C1414.34,-1126.44 1480.98,-1078.65 1520.74,-1050.14"/>
<polygon fill="grey" stroke="grey" stroke-width="2" points="1522.95,-1052.86 1529.03,-1044.19 1518.87,-1047.17 1522.95,-1052.86"/>
</g>
<!-- 38 -->
<g id="node39" class="node">
<title>38</title>
<path fill="none" stroke="#d88556" stroke-width="2" d="M1774,-1260C1774,-1260 1686,-1260 1686,-1260 1680,-1260 1674,-1254 1674,-1248 1674,-1248 1674,-1236 1674,-1236 1674,-1230 1680,-1224 1686,-1224 1686,-1224 1774,-1224 1774,-1224 1780,-1224 1786,-1230 1786,-1236 1786,-1236 1786,-1248 1786,-1248 1786,-1254 1780,-1260 1774,-1260"/>
<text text-anchor="middle" x="1730" y="-1239.5" font-family="sans" font-size="10.00">fetch_gene_aldh1l1</text>
</g>
<!-- 38&#45;&gt;37 -->
<g id="edge70" class="edge">
<title>38&#45;&gt;37</title>
<path fill="none" stroke="grey" stroke-width="2" d="M1673.72,-1225.88C1670.78,-1225.21 1667.86,-1224.58 1665,-1224 1557.59,-1202.1 1528.45,-1209.7 1421,-1188 1419.73,-1187.74 1418.44,-1187.48 1417.15,-1187.2"/>
<polygon fill="grey" stroke="grey" stroke-width="2" points="1417.64,-1183.73 1407.12,-1184.97 1416.12,-1190.56 1417.64,-1183.73"/>
</g>
<!-- 39 -->
<g id="node40" class="node">
<title>39</title>
<path fill="none" stroke="#d8cb56" stroke-width="2" d="M1108.5,-1260C1108.5,-1260 1039.5,-1260 1039.5,-1260 1033.5,-1260 1027.5,-1254 1027.5,-1248 1027.5,-1248 1027.5,-1236 1027.5,-1236 1027.5,-1230 1033.5,-1224 1039.5,-1224 1039.5,-1224 1108.5,-1224 1108.5,-1224 1114.5,-1224 1120.5,-1230 1120.5,-1236 1120.5,-1236 1120.5,-1248 1120.5,-1248 1120.5,-1254 1114.5,-1260 1108.5,-1260"/>
<text text-anchor="middle" x="1074" y="-1239.5" font-family="sans" font-size="10.00">fetch_gene_cnp</text>
</g>
<!-- 39&#45;&gt;37 -->
<g id="edge71" class="edge">
<title>39&#45;&gt;37</title>
<path fill="none" stroke="grey" stroke-width="2" d="M1120.58,-1227.84C1125.44,-1226.52 1130.32,-1225.22 1135,-1224 1188.09,-1210.21 1248.71,-1195.7 1292.86,-1185.35"/>
<polygon fill="grey" stroke="grey" stroke-width="2" points="1293.92,-1188.7 1302.86,-1183.01 1292.33,-1181.88 1293.92,-1188.7"/>
</g>
<!-- 40 -->
<g id="node41" class="node">
<title>40</title>
<path fill="none" stroke="#ced856" stroke-width="2" d="M1263,-1260C1263,-1260 1189,-1260 1189,-1260 1183,-1260 1177,-1254 1177,-1248 1177,-1248 1177,-1236 1177,-1236 1177,-1230 1183,-1224 1189,-1224 1189,-1224 1263,-1224 1263,-1224 1269,-1224 1275,-1230 1275,-1236 1275,-1236 1275,-1248 1275,-1248 1275,-1254 1269,-1260 1263,-1260"/>
<text text-anchor="middle" x="1226" y="-1239.5" font-family="sans" font-size="10.00">fetch_gene_mbp</text>
</g>
<!-- 40&#45;&gt;37 -->
<g id="edge72" class="edge">
<title>40&#45;&gt;37</title>
<path fill="none" stroke="grey" stroke-width="2" d="M1257.56,-1223.88C1274.66,-1214.6 1295.98,-1203.03 1314.32,-1193.08"/>
<polygon fill="grey" stroke="grey" stroke-width="2" points="1316.2,-1196.04 1323.32,-1188.19 1312.86,-1189.88 1316.2,-1196.04"/>
</g>
<!-- 41 -->
<g id="node42" class="node">
<title>41</title>
<path fill="none" stroke="#5682d8" stroke-width="2" d="M1379,-1260C1379,-1260 1305,-1260 1305,-1260 1299,-1260 1293,-1254 1293,-1248 1293,-1248 1293,-1236 1293,-1236 1293,-1230 1299,-1224 1305,-1224 1305,-1224 1379,-1224 1379,-1224 1385,-1224 1391,-1230 1391,-1236 1391,-1236 1391,-1248 1391,-1248 1391,-1254 1385,-1260 1379,-1260"/>
<text text-anchor="middle" x="1342" y="-1239.5" font-family="sans" font-size="10.00">fetch_gene_gfap</text>
</g>
<!-- 41&#45;&gt;37 -->
<g id="edge73" class="edge">
<title>41&#45;&gt;37</title>
<path fill="none" stroke="grey" stroke-width="2" d="M1345.21,-1223.7C1346.65,-1215.98 1348.37,-1206.71 1349.96,-1198.11"/>
<polygon fill="grey" stroke="grey" stroke-width="2" points="1353.44,-1198.58 1351.82,-1188.1 1346.56,-1197.3 1353.44,-1198.58"/>
</g>
<!-- 42 -->
<g id="node43" class="node">
<title>42</title>
<path fill="none" stroke="#56d8c9" stroke-width="2" d="M1502.5,-1260C1502.5,-1260 1421.5,-1260 1421.5,-1260 1415.5,-1260 1409.5,-1254 1409.5,-1248 1409.5,-1248 1409.5,-1236 1409.5,-1236 1409.5,-1230 1415.5,-1224 1421.5,-1224 1421.5,-1224 1502.5,-1224 1502.5,-1224 1508.5,-1224 1514.5,-1230 1514.5,-1236 1514.5,-1236 1514.5,-1248 1514.5,-1248 1514.5,-1254 1508.5,-1260 1502.5,-1260"/>
<text text-anchor="middle" x="1462" y="-1239.5" font-family="sans" font-size="10.00">fetch_gene_s100b</text>
</g>
<!-- 42&#45;&gt;37 -->
<g id="edge74" class="edge">
<title>42&#45;&gt;37</title>
<path fill="none" stroke="grey" stroke-width="2" d="M1435.82,-1223.88C1421.96,-1214.81 1404.76,-1203.55 1389.79,-1193.76"/>
<polygon fill="grey" stroke="grey" stroke-width="2" points="1391.56,-1190.74 1381.28,-1188.19 1387.73,-1196.59 1391.56,-1190.74"/>
</g>
<!-- 43 -->
<g id="node44" class="node">
<title>43</title>
<path fill="none" stroke="#d87556" stroke-width="2" d="M1643.5,-1260C1643.5,-1260 1544.5,-1260 1544.5,-1260 1538.5,-1260 1532.5,-1254 1532.5,-1248 1532.5,-1248 1532.5,-1236 1532.5,-1236 1532.5,-1230 1538.5,-1224 1544.5,-1224 1544.5,-1224 1643.5,-1224 1643.5,-1224 1649.5,-1224 1655.5,-1230 1655.5,-1236 1655.5,-1236 1655.5,-1248 1655.5,-1248 1655.5,-1254 1649.5,-1260 1643.5,-1260"/>
<text text-anchor="middle" x="1594" y="-1239.5" font-family="sans" font-size="10.00">fetch_gene_tmem119</text>
</g>
<!-- 43&#45;&gt;37 -->
<g id="edge75" class="edge">
<title>43&#45;&gt;37</title>
<path fill="none" stroke="grey" stroke-width="2" d="M1535.84,-1223.97C1499.97,-1213.46 1453.99,-1199.99 1417.36,-1189.27"/>
<polygon fill="grey" stroke="grey" stroke-width="2" points="1417.88,-1185.77 1407.3,-1186.32 1415.91,-1192.49 1417.88,-1185.77"/>
</g>
<!-- 44&#45;&gt;17 -->
<g id="edge33" class="edge">
<title>44&#45;&gt;17</title>
<path fill="none" stroke="grey" stroke-width="2" d="M869,-287.7C869,-279.98 869,-270.71 869,-262.11"/>
<polygon fill="grey" stroke="grey" stroke-width="2" points="872.5,-262.1 869,-252.1 865.5,-262.1 872.5,-262.1"/>
</g>
<!-- 45&#45;&gt;44 -->
<g id="edge78" class="edge">
<title>45&#45;&gt;44</title>
<path fill="none" stroke="grey" stroke-width="2" d="M818.56,-359.7C826.68,-351.22 836.59,-340.86 845.47,-331.58"/>
<polygon fill="grey" stroke="grey" stroke-width="2" points="848.24,-333.75 852.63,-324.1 843.19,-328.91 848.24,-333.75"/>
</g>
<!-- 46&#45;&gt;45 -->
<g id="edge83" class="edge">
<title>46&#45;&gt;45</title>
<path fill="none" stroke="grey" stroke-width="2" d="M1310.91,-658.23C1216.23,-646.87 1056.29,-617.01 943,-540 893.16,-506.12 901.82,-476.34 861,-432 851.65,-421.85 840.58,-411.52 830.57,-402.72"/>
<polygon fill="grey" stroke="grey" stroke-width="2" points="832.68,-399.91 822.82,-396.01 828.09,-405.2 832.68,-399.91"/>
</g>
<!-- 46&#45;&gt;62 -->
<g id="edge121" class="edge">
<title>46&#45;&gt;62</title>
<path fill="none" stroke="grey" stroke-width="2" d="M1407.25,-647.96C1432.85,-622.75 1478.4,-578.23 1483,-576 1524.33,-555.94 1632.31,-541.98 1721.83,-533.45"/>
<polygon fill="grey" stroke="grey" stroke-width="2" points="1722.19,-536.93 1731.82,-532.51 1721.54,-529.96 1722.19,-536.93"/>
</g>
<!-- 69 -->
<g id="node70" class="node">
<title>69</title>
<path fill="none" stroke="#56d8d0" stroke-width="2" d="M1422.5,-612C1422.5,-612 1309.5,-612 1309.5,-612 1303.5,-612 1297.5,-606 1297.5,-600 1297.5,-600 1297.5,-588 1297.5,-588 1297.5,-582 1303.5,-576 1309.5,-576 1309.5,-576 1422.5,-576 1422.5,-576 1428.5,-576 1434.5,-582 1434.5,-588 1434.5,-588 1434.5,-600 1434.5,-600 1434.5,-606 1428.5,-612 1422.5,-612"/>
<text text-anchor="middle" x="1366" y="-591.5" font-family="sans" font-size="10.00">compute_lamp5_density</text>
</g>
<!-- 46&#45;&gt;69 -->
<g id="edge131" class="edge">
<title>46&#45;&gt;69</title>
<path fill="none" stroke="grey" stroke-width="2" d="M1384.07,-647.7C1381.39,-639.9 1378.17,-630.51 1375.2,-621.83"/>
<polygon fill="grey" stroke="grey" stroke-width="2" points="1378.42,-620.43 1371.86,-612.1 1371.8,-622.7 1378.42,-620.43"/>
</g>
<!-- 46&#45;&gt;70 -->
<g id="edge132" class="edge">
<title>46&#45;&gt;70</title>
<path fill="none" stroke="grey" stroke-width="2" d="M1469.03,-649.74C1473.75,-649.08 1478.43,-648.49 1483,-648 1558.59,-639.84 2706.82,-604.86 2977.26,-596.71"/>
<polygon fill="grey" stroke="grey" stroke-width="2" points="2977.73,-600.19 2987.62,-596.39 2977.52,-593.2 2977.73,-600.19"/>
</g>
<!-- 47&#45;&gt;46 -->
<g id="edge85" class="edge">
<title>47&#45;&gt;46</title>
<path fill="none" stroke="grey" stroke-width="2" d="M1691.9,-719.97C1626.98,-708.58 1542.21,-693.7 1479.03,-682.62"/>
<polygon fill="grey" stroke="grey" stroke-width="2" points="1479.53,-679.15 1469.08,-680.87 1478.32,-686.05 1479.53,-679.15"/>
</g>
<!-- 48&#45;&gt;47 -->
<g id="edge92" class="edge">
<title>48&#45;&gt;47</title>
<path fill="none" stroke="grey" stroke-width="2" d="M1789,-791.7C1789,-783.98 1789,-774.71 1789,-766.11"/>
<polygon fill="grey" stroke="grey" stroke-width="2" points="1792.5,-766.1 1789,-756.1 1785.5,-766.1 1792.5,-766.1"/>
</g>
<!-- 49 -->
<g id="node50" class="node">
<title>49</title>
<path fill="none" stroke="#56c9d8" stroke-width="2" d="M2694.5,-900C2694.5,-900 2569.5,-900 2569.5,-900 2563.5,-900 2557.5,-894 2557.5,-888 2557.5,-888 2557.5,-876 2557.5,-876 2557.5,-870 2563.5,-864 2569.5,-864 2569.5,-864 2694.5,-864 2694.5,-864 2700.5,-864 2706.5,-870 2706.5,-876 2706.5,-876 2706.5,-888 2706.5,-888 2706.5,-894 2700.5,-900 2694.5,-900"/>
<text text-anchor="middle" x="2632" y="-879.5" font-family="sans" font-size="10.00">fetch_genes_correctednissl</text>
</g>
<!-- 49&#45;&gt;48 -->
<g id="edge93" class="edge">
<title>49&#45;&gt;48</title>
<path fill="none" stroke="grey" stroke-width="2" d="M2557.19,-874.79C2407.35,-862.35 2069.98,-834.33 1896.49,-819.93"/>
<polygon fill="grey" stroke="grey" stroke-width="2" points="1896.58,-816.42 1886.33,-819.08 1896,-823.4 1896.58,-816.42"/>
</g>
<!-- 50 -->
<g id="node51" class="node">
<title>50</title>
<path fill="none" stroke="#56c1d8" stroke-width="2" d="M2519.5,-972C2519.5,-972 2382.5,-972 2382.5,-972 2376.5,-972 2370.5,-966 2370.5,-960 2370.5,-960 2370.5,-948 2370.5,-948 2370.5,-942 2376.5,-936 2382.5,-936 2382.5,-936 2519.5,-936 2519.5,-936 2525.5,-936 2531.5,-942 2531.5,-948 2531.5,-948 2531.5,-960 2531.5,-960 2531.5,-966 2525.5,-972 2519.5,-972"/>
<text text-anchor="middle" x="2451" y="-951.5" font-family="sans" font-size="10.00">fetch_gene_pv_correctednissl</text>
</g>
<!-- 50&#45;&gt;49 -->
<g id="edge102" class="edge">
<title>50&#45;&gt;49</title>
<path fill="none" stroke="grey" stroke-width="2" d="M2495.28,-935.88C2520.35,-926.18 2551.9,-913.98 2578.37,-903.74"/>
<polygon fill="grey" stroke="grey" stroke-width="2" points="2579.8,-906.94 2587.87,-900.07 2577.28,-900.41 2579.8,-906.94"/>
</g>
<!-- 51 -->
<g id="node52" class="node">
<title>51</title>
<path fill="none" stroke="#56d892" stroke-width="2" d="M2702,-972C2702,-972 2562,-972 2562,-972 2556,-972 2550,-966 2550,-960 2550,-960 2550,-948 2550,-948 2550,-942 2556,-936 2562,-936 2562,-936 2702,-936 2702,-936 2708,-936 2714,-942 2714,-948 2714,-948 2714,-960 2714,-960 2714,-966 2708,-972 2702,-972"/>
<text text-anchor="middle" x="2632" y="-951.5" font-family="sans" font-size="10.00">fetch_gene_sst_correctednissl</text>
</g>
<!-- 51&#45;&gt;49 -->
<g id="edge103" class="edge">
<title>51&#45;&gt;49</title>
<path fill="none" stroke="grey" stroke-width="2" d="M2632,-935.7C2632,-927.98 2632,-918.71 2632,-910.11"/>
<polygon fill="grey" stroke="grey" stroke-width="2" points="2635.5,-910.1 2632,-900.1 2628.5,-910.1 2635.5,-910.1"/>
</g>
<!-- 52 -->
<g id="node53" class="node">
<title>52</title>
<path fill="none" stroke="#d8ac56" stroke-width="2" d="M2884,-972C2884,-972 2744,-972 2744,-972 2738,-972 2732,-966 2732,-960 2732,-960 2732,-948 2732,-948 2732,-942 2738,-936 2744,-936 2744,-936 2884,-936 2884,-936 2890,-936 2896,-942 2896,-948 2896,-948 2896,-960 2896,-960 2896,-966 2890,-972 2884,-972"/>
<text text-anchor="middle" x="2814" y="-951.5" font-family="sans" font-size="10.00">fetch_gene_vip_correctednissl</text>
</g>
<!-- 52&#45;&gt;49 -->
<g id="edge104" class="edge">
<title>52&#45;&gt;49</title>
<path fill="none" stroke="grey" stroke-width="2" d="M2769.48,-935.88C2744.27,-926.18 2712.55,-913.98 2685.93,-903.74"/>
<polygon fill="grey" stroke="grey" stroke-width="2" points="2686.97,-900.39 2676.38,-900.07 2684.45,-906.92 2686.97,-900.39"/>
</g>
<!-- 53 -->
<g id="node54" class="node">
<title>53</title>
<path fill="none" stroke="#d8d356" stroke-width="2" d="M3081.5,-972C3081.5,-972 2926.5,-972 2926.5,-972 2920.5,-972 2914.5,-966 2914.5,-960 2914.5,-960 2914.5,-948 2914.5,-948 2914.5,-942 2920.5,-936 2926.5,-936 2926.5,-936 3081.5,-936 3081.5,-936 3087.5,-936 3093.5,-942 3093.5,-948 3093.5,-948 3093.5,-960 3093.5,-960 3093.5,-966 3087.5,-972 3081.5,-972"/>
<text text-anchor="middle" x="3004" y="-951.5" font-family="sans" font-size="10.00">fetch_gene_gad67_correctednissl</text>
</g>
<!-- 53&#45;&gt;49 -->
<g id="edge105" class="edge">
<title>53&#45;&gt;49</title>
<path fill="none" stroke="grey" stroke-width="2" d="M2914.42,-936.14C2854.37,-924.84 2775.78,-910.05 2716.75,-898.95"/>
<polygon fill="grey" stroke="grey" stroke-width="2" points="2717.19,-895.47 2706.71,-897.06 2715.89,-902.35 2717.19,-895.47"/>
</g>
<!-- 54 -->
<g id="node55" class="node">
<title>54</title>
<path fill="none" stroke="#565bd8" stroke-width="2" d="M1714.5,-900C1714.5,-900 1613.5,-900 1613.5,-900 1607.5,-900 1601.5,-894 1601.5,-888 1601.5,-888 1601.5,-876 1601.5,-876 1601.5,-870 1607.5,-864 1613.5,-864 1613.5,-864 1714.5,-864 1714.5,-864 1720.5,-864 1726.5,-870 1726.5,-876 1726.5,-876 1726.5,-888 1726.5,-888 1726.5,-894 1720.5,-900 1714.5,-900"/>
<text text-anchor="middle" x="1664" y="-879.5" font-family="sans" font-size="10.00">fetch_realigned_slices</text>
</g>
<!-- 54&#45;&gt;48 -->
<g id="edge94" class="edge">
<title>54&#45;&gt;48</title>
<path fill="none" stroke="grey" stroke-width="2" d="M1694.58,-863.88C1711.07,-854.64 1731.62,-843.13 1749.34,-833.21"/>
<polygon fill="grey" stroke="grey" stroke-width="2" points="1751.29,-836.13 1758.3,-828.19 1747.87,-830.02 1751.29,-836.13"/>
</g>
<!-- 55 -->
<g id="node56" class="node">
<title>55</title>
<path fill="none" stroke="#56a9d8" stroke-width="2" d="M1821.5,-900C1821.5,-900 1756.5,-900 1756.5,-900 1750.5,-900 1744.5,-894 1744.5,-888 1744.5,-888 1744.5,-876 1744.5,-876 1744.5,-870 1750.5,-864 1756.5,-864 1756.5,-864 1821.5,-864 1821.5,-864 1827.5,-864 1833.5,-870 1833.5,-876 1833.5,-876 1833.5,-888 1833.5,-888 1833.5,-894 1827.5,-900 1821.5,-900"/>
<text text-anchor="middle" x="1789" y="-879.5" font-family="sans" font-size="10.00">fetch_std_cells</text>
</g>
<!-- 55&#45;&gt;48 -->
<g id="edge95" class="edge">
<title>55&#45;&gt;48</title>
<path fill="none" stroke="grey" stroke-width="2" d="M1789,-863.7C1789,-855.98 1789,-846.71 1789,-838.11"/>
<polygon fill="grey" stroke="grey" stroke-width="2" points="1792.5,-838.1 1789,-828.1 1785.5,-838.1 1792.5,-838.1"/>
</g>
<!-- 56&#45;&gt;48 -->
<g id="edge99" class="edge">
<title>56&#45;&gt;48</title>
<path fill="none" stroke="grey" stroke-width="2" d="M2031.89,-863.97C1985.09,-853.76 1925.49,-840.76 1877.03,-830.2"/>
<polygon fill="grey" stroke="grey" stroke-width="2" points="1877.7,-826.76 1867.19,-828.05 1876.21,-833.6 1877.7,-826.76"/>
</g>
<!-- 57 -->
<g id="node58" class="node">
<title>57</title>
<path fill="none" stroke="#d8a456" stroke-width="2" d="M2150,-972C2150,-972 2054,-972 2054,-972 2048,-972 2042,-966 2042,-960 2042,-960 2042,-948 2042,-948 2042,-942 2048,-936 2054,-936 2054,-936 2150,-936 2150,-936 2156,-936 2162,-942 2162,-948 2162,-948 2162,-960 2162,-960 2162,-966 2156,-972 2150,-972"/>
<text text-anchor="middle" x="2102" y="-951.5" font-family="sans" font-size="10.00">fetch_measurements</text>
</g>
<!-- 57&#45;&gt;56 -->
<g id="edge110" class="edge">
<title>57&#45;&gt;56</title>
<path fill="none" stroke="grey" stroke-width="2" d="M2103.98,-935.7C2104.86,-927.98 2105.92,-918.71 2106.9,-910.11"/>
<polygon fill="grey" stroke="grey" stroke-width="2" points="2110.39,-910.44 2108.05,-900.1 2103.43,-909.64 2110.39,-910.44"/>
</g>
<!-- 58 -->
<g id="node59" class="node">
<title>58</title>
<path fill="none" stroke="#56d0d8" stroke-width="2" d="M1990.5,-900C1990.5,-900 1863.5,-900 1863.5,-900 1857.5,-900 1851.5,-894 1851.5,-888 1851.5,-888 1851.5,-876 1851.5,-876 1851.5,-870 1857.5,-864 1863.5,-864 1863.5,-864 1990.5,-864 1990.5,-864 1996.5,-864 2002.5,-870 2002.5,-876 2002.5,-876 2002.5,-888 2002.5,-888 2002.5,-894 1996.5,-900 1990.5,-900"/>
<text text-anchor="middle" x="1927" y="-879.5" font-family="sans" font-size="10.00">fetch_homogenous_regions</text>
</g>
<!-- 58&#45;&gt;48 -->
<g id="edge100" class="edge">
<title>58&#45;&gt;48</title>
<path fill="none" stroke="grey" stroke-width="2" d="M1893.24,-863.88C1874.78,-854.51 1851.72,-842.81 1831.98,-832.8"/>
<polygon fill="grey" stroke="grey" stroke-width="2" points="1833.39,-829.59 1822.89,-828.19 1830.22,-835.83 1833.39,-829.59"/>
</g>
<!-- 59&#45;&gt;17 -->
<g id="edge34" class="edge">
<title>59&#45;&gt;17</title>
<path fill="none" stroke="grey" stroke-width="2" d="M1480.88,-296.28C1345.08,-282.68 1084.71,-256.6 951.68,-243.28"/>
<polygon fill="grey" stroke="grey" stroke-width="2" points="951.84,-239.78 941.54,-242.26 951.14,-246.74 951.84,-239.78"/>
</g>
<!-- 74 -->
<g id="node75" class="node">
<title>74</title>
<path fill="none" stroke="#56b9d8" stroke-width="2" d="M1662,-252C1662,-252 1474,-252 1474,-252 1468,-252 1462,-246 1462,-240 1462,-240 1462,-228 1462,-228 1462,-222 1468,-216 1474,-216 1474,-216 1662,-216 1662,-216 1668,-216 1674,-222 1674,-228 1674,-228 1674,-240 1674,-240 1674,-246 1668,-252 1662,-252"/>
<text text-anchor="middle" x="1568" y="-231.5" font-family="sans" font-size="10.00">create_cellCompositionVolume_payload</text>
</g>
<!-- 59&#45;&gt;74 -->
<g id="edge144" class="edge">
<title>59&#45;&gt;74</title>
<path fill="none" stroke="grey" stroke-width="2" d="M1568,-287.7C1568,-279.98 1568,-270.71 1568,-262.11"/>
<polygon fill="grey" stroke="grey" stroke-width="2" points="1571.5,-262.1 1568,-252.1 1564.5,-262.1 1571.5,-262.1"/>
</g>
<!-- 60&#45;&gt;59 -->
<g id="edge111" class="edge">
<title>60&#45;&gt;59</title>
<path fill="none" stroke="grey" stroke-width="2" d="M1762.46,-359.97C1725.77,-349.97 1679.24,-337.3 1640.89,-326.85"/>
<polygon fill="grey" stroke="grey" stroke-width="2" points="1641.39,-323.36 1630.82,-324.11 1639.55,-330.12 1641.39,-323.36"/>
</g>
<!-- 61&#45;&gt;60 -->
<g id="edge117" class="edge">
<title>61&#45;&gt;60</title>
<path fill="none" stroke="grey" stroke-width="2" d="M1849.84,-431.7C1846.09,-423.73 1841.55,-414.1 1837.38,-405.26"/>
<polygon fill="grey" stroke="grey" stroke-width="2" points="1840.49,-403.66 1833.06,-396.1 1834.16,-406.64 1840.49,-403.66"/>
</g>
<!-- 61&#45;&gt;72 -->
<g id="edge140" class="edge">
<title>61&#45;&gt;72</title>
<path fill="none" stroke="grey" stroke-width="2" d="M1794.73,-431.97C1757.45,-421.93 1710.14,-409.19 1671.25,-398.72"/>
<polygon fill="grey" stroke="grey" stroke-width="2" points="1672.12,-395.33 1661.55,-396.11 1670.3,-402.09 1672.12,-395.33"/>
</g>
<!-- 62&#45;&gt;61 -->
<g id="edge119" class="edge">
<title>62&#45;&gt;61</title>
<path fill="none" stroke="grey" stroke-width="2" d="M1858,-503.7C1858,-495.98 1858,-486.71 1858,-478.11"/>
<polygon fill="grey" stroke="grey" stroke-width="2" points="1861.5,-478.1 1858,-468.1 1854.5,-478.1 1861.5,-478.1"/>
</g>
<!-- 63 -->
<g id="node64" class="node">
<title>63</title>
<path fill="none" stroke="#d8b456" stroke-width="2" d="M1622.5,-612C1622.5,-612 1503.5,-612 1503.5,-612 1497.5,-612 1491.5,-606 1491.5,-600 1491.5,-600 1491.5,-588 1491.5,-588 1491.5,-582 1497.5,-576 1503.5,-576 1503.5,-576 1622.5,-576 1622.5,-576 1628.5,-576 1634.5,-582 1634.5,-588 1634.5,-588 1634.5,-600 1634.5,-600 1634.5,-606 1628.5,-612 1622.5,-612"/>
<text text-anchor="middle" x="1563" y="-591.5" font-family="sans" font-size="10.00">fetch_probability_map_L1</text>
</g>
<!-- 63&#45;&gt;62 -->
<g id="edge124" class="edge">
<title>63&#45;&gt;62</title>
<path fill="none" stroke="grey" stroke-width="2" d="M1634.79,-575.97C1677.52,-565.83 1731.88,-552.93 1776.26,-542.4"/>
<polygon fill="grey" stroke="grey" stroke-width="2" points="1777.22,-545.76 1786.15,-540.05 1775.61,-538.95 1777.22,-545.76"/>
</g>
<!-- 64 -->
<g id="node65" class="node">
<title>64</title>
<path fill="none" stroke="#56d8c1" stroke-width="2" d="M1789.5,-612C1789.5,-612 1664.5,-612 1664.5,-612 1658.5,-612 1652.5,-606 1652.5,-600 1652.5,-600 1652.5,-588 1652.5,-588 1652.5,-582 1658.5,-576 1664.5,-576 1664.5,-576 1789.5,-576 1789.5,-576 1795.5,-576 1801.5,-582 1801.5,-588 1801.5,-588 1801.5,-600 1801.5,-600 1801.5,-606 1795.5,-612 1789.5,-612"/>
<text text-anchor="middle" x="1727" y="-591.5" font-family="sans" font-size="10.00">fetch_probability_map_L23</text>
</g>
<!-- 64&#45;&gt;62 -->
<g id="edge125" class="edge">
<title>64&#45;&gt;62</title>
<path fill="none" stroke="grey" stroke-width="2" d="M1759.05,-575.88C1776.49,-566.55 1798.27,-554.92 1816.94,-544.94"/>
<polygon fill="grey" stroke="grey" stroke-width="2" points="1818.66,-547.99 1825.83,-540.19 1815.36,-541.82 1818.66,-547.99"/>
</g>
<!-- 65 -->
<g id="node66" class="node">
<title>65</title>
<path fill="none" stroke="#56d8b1" stroke-width="2" d="M1950.5,-612C1950.5,-612 1831.5,-612 1831.5,-612 1825.5,-612 1819.5,-606 1819.5,-600 1819.5,-600 1819.5,-588 1819.5,-588 1819.5,-582 1825.5,-576 1831.5,-576 1831.5,-576 1950.5,-576 1950.5,-576 1956.5,-576 1962.5,-582 1962.5,-588 1962.5,-588 1962.5,-600 1962.5,-600 1962.5,-606 1956.5,-612 1950.5,-612"/>
<text text-anchor="middle" x="1891" y="-591.5" font-family="sans" font-size="10.00">fetch_probability_map_L4</text>
</g>
<!-- 65&#45;&gt;62 -->
<g id="edge126" class="edge">
<title>65&#45;&gt;62</title>
<path fill="none" stroke="grey" stroke-width="2" d="M1882.84,-575.7C1879.09,-567.73 1874.55,-558.1 1870.38,-549.26"/>
<polygon fill="grey" stroke="grey" stroke-width="2" points="1873.49,-547.66 1866.06,-540.1 1867.16,-550.64 1873.49,-547.66"/>
</g>
<!-- 66 -->
<g id="node67" class="node">
<title>66</title>
<path fill="none" stroke="#c6d856" stroke-width="2" d="M2111.5,-612C2111.5,-612 1992.5,-612 1992.5,-612 1986.5,-612 1980.5,-606 1980.5,-600 1980.5,-600 1980.5,-588 1980.5,-588 1980.5,-582 1986.5,-576 1992.5,-576 1992.5,-576 2111.5,-576 2111.5,-576 2117.5,-576 2123.5,-582 2123.5,-588 2123.5,-588 2123.5,-600 2123.5,-600 2123.5,-606 2117.5,-612 2111.5,-612"/>
<text text-anchor="middle" x="2052" y="-591.5" font-family="sans" font-size="10.00">fetch_probability_map_L5</text>
</g>
<!-- 66&#45;&gt;62 -->
<g id="edge127" class="edge">
<title>66&#45;&gt;62</title>
<path fill="none" stroke="grey" stroke-width="2" d="M2004.54,-575.88C1977.43,-566.09 1943.26,-553.77 1914.74,-543.47"/>
<polygon fill="grey" stroke="grey" stroke-width="2" points="1915.9,-540.17 1905.3,-540.07 1913.52,-546.75 1915.9,-540.17"/>
</g>
<!-- 67 -->
<g id="node68" class="node">
<title>67</title>
<path fill="none" stroke="#d85656" stroke-width="2" d="M2272.5,-612C2272.5,-612 2153.5,-612 2153.5,-612 2147.5,-612 2141.5,-606 2141.5,-600 2141.5,-600 2141.5,-588 2141.5,-588 2141.5,-582 2147.5,-576 2153.5,-576 2153.5,-576 2272.5,-576 2272.5,-576 2278.5,-576 2284.5,-582 2284.5,-588 2284.5,-588 2284.5,-600 2284.5,-600 2284.5,-606 2278.5,-612 2272.5,-612"/>
<text text-anchor="middle" x="2213" y="-591.5" font-family="sans" font-size="10.00">fetch_probability_map_L6</text>
</g>
<!-- 67&#45;&gt;62 -->
<g id="edge128" class="edge">
<title>67&#45;&gt;62</title>
<path fill="none" stroke="grey" stroke-width="2" d="M2141.48,-577.73C2138.62,-577.14 2135.78,-576.56 2133,-576 2075.36,-564.32 2010.8,-551.85 1958.72,-541.94"/>
<polygon fill="grey" stroke="grey" stroke-width="2" points="1959.29,-538.48 1948.81,-540.05 1957.98,-545.36 1959.29,-538.48"/>
</g>
<!-- 68 -->
<g id="node69" class="node">
<title>68</title>
<path fill="none" stroke="#80d856" stroke-width="2" d="M2459,-612C2459,-612 2315,-612 2315,-612 2309,-612 2303,-606 2303,-600 2303,-600 2303,-588 2303,-588 2303,-582 2309,-576 2315,-576 2315,-576 2459,-576 2459,-576 2465,-576 2471,-582 2471,-588 2471,-588 2471,-600 2471,-600 2471,-606 2465,-612 2459,-612"/>
<text text-anchor="middle" x="2387" y="-591.5" font-family="sans" font-size="10.00">fetch_probability_map_TH_INH</text>
</g>
<!-- 68&#45;&gt;62 -->
<g id="edge129" class="edge">
<title>68&#45;&gt;62</title>
<path fill="none" stroke="grey" stroke-width="2" d="M2302.89,-577.39C2299.89,-576.91 2296.92,-576.44 2294,-576 2193.93,-560.79 2080.41,-547.1 1994.29,-537.45"/>
<polygon fill="grey" stroke="grey" stroke-width="2" points="1994.52,-533.95 1984.2,-536.32 1993.75,-540.91 1994.52,-533.95"/>
</g>
<!-- 69&#45;&gt;62 -->
<g id="edge130" class="edge">
<title>69&#45;&gt;62</title>
<path fill="none" stroke="grey" stroke-width="2" d="M1434.77,-578.51C1439.58,-577.62 1444.36,-576.78 1449,-576 1539.58,-560.88 1642.07,-547.6 1721.79,-538.12"/>
<polygon fill="grey" stroke="grey" stroke-width="2" points="1722.37,-541.58 1731.89,-536.93 1721.55,-534.63 1722.37,-541.58"/>
</g>
<!-- 70&#45;&gt;61 -->
<g id="edge120" class="edge">
<title>70&#45;&gt;61</title>
<path fill="none" stroke="grey" stroke-width="2" d="M3021.02,-575.8C3003.8,-554.51 2971.21,-519.22 2934,-504 2843.01,-466.78 2175.7,-454.95 1940.1,-451.91"/>
<polygon fill="grey" stroke="grey" stroke-width="2" points="1939.92,-448.4 1929.88,-451.78 1939.83,-455.4 1939.92,-448.4"/>
</g>
<!-- 71 -->
<g id="node72" class="node">
<title>71</title>
<path fill="none" stroke="#56d85b" stroke-width="2" d="M3158,-684C3158,-684 2960,-684 2960,-684 2954,-684 2948,-678 2948,-672 2948,-672 2948,-660 2948,-660 2948,-654 2954,-648 2960,-648 2960,-648 3158,-648 3158,-648 3164,-648 3170,-654 3170,-660 3170,-660 3170,-672 3170,-672 3170,-678 3164,-684 3158,-684"/>
<text text-anchor="middle" x="3059" y="-663.5" font-family="sans" font-size="10.00">fetch_mapping_cortex_all_to_exc_mtypes</text>
</g>
<!-- 71&#45;&gt;70 -->
<g id="edge136" class="edge">
<title>71&#45;&gt;70</title>
<path fill="none" stroke="grey" stroke-width="2" d="M3052.82,-647.7C3050,-639.81 3046.61,-630.3 3043.48,-621.55"/>
<polygon fill="grey" stroke="grey" stroke-width="2" points="3046.77,-620.34 3040.11,-612.1 3040.18,-622.7 3046.77,-620.34"/>
</g>
<!-- 72&#45;&gt;59 -->
<g id="edge112" class="edge">
<title>72&#45;&gt;59</title>
<path fill="none" stroke="grey" stroke-width="2" d="M1590.58,-359.7C1587.21,-351.81 1583.13,-342.3 1579.38,-333.55"/>
<polygon fill="grey" stroke="grey" stroke-width="2" points="1582.49,-331.92 1575.33,-324.1 1576.05,-334.67 1582.49,-331.92"/>
</g>
<!-- 73&#45;&gt;0 -->
<g id="edge4" class="edge">
<title>73&#45;&gt;0</title>
<path fill="none" stroke="grey" stroke-width="2" d="M1067.83,-76.57C1006.11,-64.22 911.75,-45.35 848.05,-32.61"/>
<polygon fill="grey" stroke="grey" stroke-width="2" points="848.6,-29.15 838.1,-30.62 847.22,-36.01 848.6,-29.15"/>
</g>
<!-- 74&#45;&gt;73 -->
<g id="edge142" class="edge">
<title>74&#45;&gt;73</title>
<path fill="none" stroke="grey" stroke-width="2" d="M1531.95,-215.89C1489.95,-196.46 1418.12,-164.77 1354,-144 1303.99,-127.8 1246.22,-114.26 1201.88,-104.91"/>
<polygon fill="grey" stroke="grey" stroke-width="2" points="1202.57,-101.48 1192.06,-102.87 1201.14,-108.33 1202.57,-101.48"/>
</g>
<!-- 74&#45;&gt;75 -->
<g id="edge147" class="edge">
<title>74&#45;&gt;75</title>
<path fill="none" stroke="grey" stroke-width="2" d="M1486.48,-215.97C1437.55,-205.74 1375.18,-192.71 1324.56,-182.13"/>
<polygon fill="grey" stroke="grey" stroke-width="2" points="1325.1,-178.67 1314.6,-180.05 1323.67,-185.52 1325.1,-178.67"/>
</g>
<!-- 75&#45;&gt;73 -->
<g id="edge143" class="edge">
<title>75&#45;&gt;73</title>
<path fill="none" stroke="grey" stroke-width="2" d="M1207.8,-143.88C1194.59,-134.89 1178.21,-123.76 1163.89,-114.03"/>
<polygon fill="grey" stroke="grey" stroke-width="2" points="1165.53,-110.92 1155.29,-108.19 1161.6,-116.71 1165.53,-110.92"/>
</g>
</g>
</svg>
