<?xml version="1.0" encoding="UTF-8" standalone="no"?>
<!DOCTYPE svg PUBLIC "-//W3C//DTD SVG 1.1//EN"
 "http://www.w3.org/Graphics/SVG/1.1/DTD/svg11.dtd">
<!-- Generated by graphviz version 2.43.0 (0)
 -->
<!-- Title: snakemake_dag Pages: 1 -->
<svg width="2586pt" height="1556pt"
 viewBox="0.00 0.00 2586.18 1556.00" xmlns="http://www.w3.org/2000/svg" xmlns:xlink="http://www.w3.org/1999/xlink">
<g id="graph0" class="graph" transform="scale(1 1) rotate(0) translate(4 1552)">
<title>snakemake_dag</title>
<polygon fill="white" stroke="transparent" points="-4,4 -4,-1552 2582.18,-1552 2582.18,4 -4,4"/>
<!-- 0 -->
<g id="node1" class="node">
<title>0</title>
<path fill="none" stroke="#56d8d8" stroke-width="2" d="M2336.18,-36C2336.18,-36 2244.18,-36 2244.18,-36 2238.18,-36 2232.18,-30 2232.18,-24 2232.18,-24 2232.18,-12 2232.18,-12 2232.18,-6 2238.18,0 2244.18,0 2244.18,0 2336.18,0 2336.18,0 2342.18,0 2348.18,-6 2348.18,-12 2348.18,-12 2348.18,-24 2348.18,-24 2348.18,-30 2342.18,-36 2336.18,-36"/>
<text text-anchor="middle" x="2290.18" y="-15.5" font-family="sans" font-size="10.00">push_atlas_datasets</text>
</g>
<!-- 1 -->
<g id="node2" class="node">
<title>1</title>
<path fill="none" stroke="#afd856" stroke-width="2" d="M2420.18,-1044C2420.18,-1044 2334.18,-1044 2334.18,-1044 2328.18,-1044 2322.18,-1038 2322.18,-1032 2322.18,-1032 2322.18,-1020 2322.18,-1020 2322.18,-1014 2328.18,-1008 2334.18,-1008 2334.18,-1008 2420.18,-1008 2420.18,-1008 2426.18,-1008 2432.18,-1014 2432.18,-1020 2432.18,-1020 2432.18,-1032 2432.18,-1032 2432.18,-1038 2426.18,-1044 2420.18,-1044"/>
<text text-anchor="middle" x="2377.18" y="-1023.5" font-family="sans" font-size="10.00">push_atlas_release</text>
</g>
<!-- 1&#45;&gt;0 -->
<g id="edge1" class="edge">
<title>1&#45;&gt;0</title>
<path fill="none" stroke="grey" stroke-width="2" d="M2380.62,-1007.59C2385.59,-980.9 2394.18,-928.19 2394.18,-883 2394.18,-883 2394.18,-883 2394.18,-161 2394.18,-111.63 2352.76,-68.02 2322.2,-42.56"/>
<polygon fill="grey" stroke="grey" stroke-width="2" points="2324.28,-39.74 2314.3,-36.18 2319.88,-45.19 2324.28,-39.74"/>
</g>
<!-- 2 -->
<g id="node3" class="node">
<title>2</title>
<path fill="none" stroke="#d86656" stroke-width="2" d="M2298.18,-1116C2298.18,-1116 2208.18,-1116 2208.18,-1116 2202.18,-1116 2196.18,-1110 2196.18,-1104 2196.18,-1104 2196.18,-1092 2196.18,-1092 2196.18,-1086 2202.18,-1080 2208.18,-1080 2208.18,-1080 2298.18,-1080 2298.18,-1080 2304.18,-1080 2310.18,-1086 2310.18,-1092 2310.18,-1092 2310.18,-1104 2310.18,-1104 2310.18,-1110 2304.18,-1116 2298.18,-1116"/>
<text text-anchor="middle" x="2253.18" y="-1095.5" font-family="sans" font-size="10.00">export_brain_region</text>
</g>
<!-- 2&#45;&gt;1 -->
<g id="edge5" class="edge">
<title>2&#45;&gt;1</title>
<path fill="none" stroke="grey" stroke-width="2" d="M2283.51,-1079.88C2299.88,-1070.64 2320.26,-1059.13 2337.83,-1049.21"/>
<polygon fill="grey" stroke="grey" stroke-width="2" points="2339.74,-1052.15 2346.73,-1044.19 2336.3,-1046.06 2339.74,-1052.15"/>
</g>
<!-- 16 -->
<g id="node17" class="node">
<title>16</title>
<path fill="none" stroke="#d89c56" stroke-width="2" d="M2353.68,-972C2353.68,-972 2294.68,-972 2294.68,-972 2288.68,-972 2282.68,-966 2282.68,-960 2282.68,-960 2282.68,-948 2282.68,-948 2282.68,-942 2288.68,-936 2294.68,-936 2294.68,-936 2353.68,-936 2353.68,-936 2359.68,-936 2365.68,-942 2365.68,-948 2365.68,-948 2365.68,-960 2365.68,-960 2365.68,-966 2359.68,-972 2353.68,-972"/>
<text text-anchor="middle" x="2324.18" y="-951.5" font-family="sans" font-size="10.00">push_meshes</text>
</g>
<!-- 2&#45;&gt;16 -->
<g id="edge30" class="edge">
<title>2&#45;&gt;16</title>
<path fill="none" stroke="grey" stroke-width="2" d="M2261.75,-1079.87C2274.01,-1055.35 2296.67,-1010.03 2311.05,-981.26"/>
<polygon fill="grey" stroke="grey" stroke-width="2" points="2314.24,-982.7 2315.59,-972.19 2307.98,-979.57 2314.24,-982.7"/>
</g>
<!-- 18 -->
<g id="node19" class="node">
<title>18</title>
<path fill="none" stroke="#56d8a9" stroke-width="2" d="M2279.68,-756C2279.68,-756 2226.68,-756 2226.68,-756 2220.68,-756 2214.68,-750 2214.68,-744 2214.68,-744 2214.68,-732 2214.68,-732 2214.68,-726 2220.68,-720 2226.68,-720 2226.68,-720 2279.68,-720 2279.68,-720 2285.68,-720 2291.68,-726 2291.68,-732 2291.68,-732 2291.68,-744 2291.68,-744 2291.68,-750 2285.68,-756 2279.68,-756"/>
<text text-anchor="middle" x="2253.18" y="-735.5" font-family="sans" font-size="10.00">push_masks</text>
</g>
<!-- 2&#45;&gt;18 -->
<g id="edge35" class="edge">
<title>2&#45;&gt;18</title>
<path fill="none" stroke="grey" stroke-width="2" d="M2254.39,-1079.7C2257.32,-1037 2264.71,-923.13 2267.18,-828 2267.6,-812.01 2269.24,-807.87 2267.18,-792 2266.08,-783.51 2264.02,-774.43 2261.82,-766.24"/>
<polygon fill="grey" stroke="grey" stroke-width="2" points="2265.13,-765.09 2259,-756.44 2258.4,-767.02 2265.13,-765.09"/>
</g>
<!-- 3 -->
<g id="node4" class="node">
<title>3</title>
<path fill="none" stroke="#56b1d8" stroke-width="2" d="M1354.18,-1260C1354.18,-1260 1234.18,-1260 1234.18,-1260 1228.18,-1260 1222.18,-1254 1222.18,-1248 1222.18,-1248 1222.18,-1236 1222.18,-1236 1222.18,-1230 1228.18,-1224 1234.18,-1224 1234.18,-1224 1354.18,-1224 1354.18,-1224 1360.18,-1224 1366.18,-1230 1366.18,-1236 1366.18,-1236 1366.18,-1248 1366.18,-1248 1366.18,-1254 1360.18,-1260 1354.18,-1260"/>
<text text-anchor="middle" x="1294.18" y="-1239.5" font-family="sans" font-size="10.00">split_barrel_ccfv3_l23split</text>
</g>
<!-- 3&#45;&gt;2 -->
<g id="edge11" class="edge">
<title>3&#45;&gt;2</title>
<path fill="none" stroke="grey" stroke-width="2" d="M1366.4,-1239.2C1559.79,-1233.99 2079.56,-1217.41 2151.18,-1188 2155.73,-1186.13 2197.88,-1148.71 2226.55,-1122.99"/>
<polygon fill="grey" stroke="grey" stroke-width="2" points="2229.14,-1125.37 2234.24,-1116.09 2224.46,-1120.16 2229.14,-1125.37"/>
</g>
<!-- 10 -->
<g id="node11" class="node">
<title>10</title>
<path fill="none" stroke="#5682d8" stroke-width="2" d="M1168.68,-1188C1168.68,-1188 1061.68,-1188 1061.68,-1188 1055.68,-1188 1049.68,-1182 1049.68,-1176 1049.68,-1176 1049.68,-1164 1049.68,-1164 1049.68,-1158 1055.68,-1152 1061.68,-1152 1061.68,-1152 1168.68,-1152 1168.68,-1152 1174.68,-1152 1180.68,-1158 1180.68,-1164 1180.68,-1164 1180.68,-1176 1180.68,-1176 1180.68,-1182 1174.68,-1188 1168.68,-1188"/>
<text text-anchor="middle" x="1115.18" y="-1167.5" font-family="sans" font-size="10.00">validate_annotation_v3</text>
</g>
<!-- 3&#45;&gt;10 -->
<g id="edge22" class="edge">
<title>3&#45;&gt;10</title>
<path fill="none" stroke="grey" stroke-width="2" d="M1250.39,-1223.88C1225.6,-1214.18 1194.4,-1201.98 1168.22,-1191.74"/>
<polygon fill="grey" stroke="grey" stroke-width="2" points="1169.42,-1188.45 1158.83,-1188.07 1166.87,-1194.97 1169.42,-1188.45"/>
</g>
<!-- 13 -->
<g id="node14" class="node">
<title>13</title>
<path fill="none" stroke="#56d882" stroke-width="2" d="M2414.18,-1116C2414.18,-1116 2340.18,-1116 2340.18,-1116 2334.18,-1116 2328.18,-1110 2328.18,-1104 2328.18,-1104 2328.18,-1092 2328.18,-1092 2328.18,-1086 2334.18,-1080 2340.18,-1080 2340.18,-1080 2414.18,-1080 2414.18,-1080 2420.18,-1080 2426.18,-1086 2426.18,-1092 2426.18,-1092 2426.18,-1104 2426.18,-1104 2426.18,-1110 2420.18,-1116 2414.18,-1116"/>
<text text-anchor="middle" x="2377.18" y="-1095.5" font-family="sans" font-size="10.00">placement_hints</text>
</g>
<!-- 3&#45;&gt;13 -->
<g id="edge25" class="edge">
<title>3&#45;&gt;13</title>
<path fill="none" stroke="grey" stroke-width="2" d="M1366.43,-1239.8C1599.79,-1235.61 2320.44,-1220.12 2358.18,-1188 2375.62,-1173.16 2379.4,-1146.59 2379.4,-1126.33"/>
<polygon fill="grey" stroke="grey" stroke-width="2" points="2382.89,-1126.02 2379.09,-1116.13 2375.9,-1126.23 2382.89,-1126.02"/>
</g>
<!-- 19 -->
<g id="node20" class="node">
<title>19</title>
<path fill="none" stroke="#78d856" stroke-width="2" d="M2246.18,-828C2246.18,-828 2118.18,-828 2118.18,-828 2112.18,-828 2106.18,-822 2106.18,-816 2106.18,-816 2106.18,-804 2106.18,-804 2106.18,-798 2112.18,-792 2118.18,-792 2118.18,-792 2246.18,-792 2246.18,-792 2252.18,-792 2258.18,-798 2258.18,-804 2258.18,-804 2258.18,-816 2258.18,-816 2258.18,-822 2252.18,-828 2246.18,-828"/>
<text text-anchor="middle" x="2182.18" y="-807.5" font-family="sans" font-size="10.00">push_neuron_glia_densities</text>
</g>
<!-- 3&#45;&gt;19 -->
<g id="edge37" class="edge">
<title>3&#45;&gt;19</title>
<path fill="none" stroke="grey" stroke-width="2" d="M1366.44,-1241.05C1555.86,-1240.53 2056.13,-1234.71 2113.18,-1188 2144.88,-1162.05 2137.18,-1139.97 2137.18,-1099 2137.18,-1099 2137.18,-1099 2137.18,-953 2137.18,-911.13 2155.18,-865.42 2168.41,-837.48"/>
<polygon fill="grey" stroke="grey" stroke-width="2" points="2171.62,-838.89 2172.86,-828.37 2165.33,-835.82 2171.62,-838.89"/>
</g>
<!-- 21 -->
<g id="node22" class="node">
<title>21</title>
<path fill="none" stroke="#d8a456" stroke-width="2" d="M1662.18,-972C1662.18,-972 1506.18,-972 1506.18,-972 1500.18,-972 1494.18,-966 1494.18,-960 1494.18,-960 1494.18,-948 1494.18,-948 1494.18,-942 1500.18,-936 1506.18,-936 1506.18,-936 1662.18,-936 1662.18,-936 1668.18,-936 1674.18,-942 1674.18,-948 1674.18,-948 1674.18,-960 1674.18,-960 1674.18,-966 1668.18,-972 1662.18,-972"/>
<text text-anchor="middle" x="1584.18" y="-951.5" font-family="sans" font-size="10.00">glia_cell_densities_correctednissl</text>
</g>
<!-- 3&#45;&gt;21 -->
<g id="edge40" class="edge">
<title>3&#45;&gt;21</title>
<path fill="none" stroke="grey" stroke-width="2" d="M1366.22,-1240.71C1531.35,-1239.3 1926.09,-1231.37 1966.18,-1188 1977.38,-1175.88 1980.94,-1103.95 1963.18,-1080 1899.2,-993.73 1773.73,-966.1 1684.7,-957.73"/>
<polygon fill="grey" stroke="grey" stroke-width="2" points="1684.84,-954.23 1674.57,-956.85 1684.23,-961.21 1684.84,-954.23"/>
</g>
<!-- 23 -->
<g id="node24" class="node">
<title>23</title>
<path fill="none" stroke="#68d856" stroke-width="2" d="M1075.68,-1116C1075.68,-1116 950.68,-1116 950.68,-1116 944.68,-1116 938.68,-1110 938.68,-1104 938.68,-1104 938.68,-1092 938.68,-1092 938.68,-1086 944.68,-1080 950.68,-1080 950.68,-1080 1075.68,-1080 1075.68,-1080 1081.68,-1080 1087.68,-1086 1087.68,-1092 1087.68,-1092 1087.68,-1104 1087.68,-1104 1087.68,-1110 1081.68,-1116 1075.68,-1116"/>
<text text-anchor="middle" x="1013.18" y="-1095.5" font-family="sans" font-size="10.00">cell_density_correctednissl</text>
</g>
<!-- 3&#45;&gt;23 -->
<g id="edge47" class="edge">
<title>3&#45;&gt;23</title>
<path fill="none" stroke="grey" stroke-width="2" d="M1222.11,-1241.95C1121.4,-1241.55 946.36,-1234.04 906.18,-1188 895.66,-1175.94 897.74,-1165.59 906.18,-1152 914.57,-1138.49 927.53,-1128.32 941.58,-1120.7"/>
<polygon fill="grey" stroke="grey" stroke-width="2" points="943.53,-1123.63 950.93,-1116.05 940.42,-1117.37 943.53,-1123.63"/>
</g>
<!-- 26 -->
<g id="node27" class="node">
<title>26</title>
<path fill="none" stroke="#56d0d8" stroke-width="2" d="M1942.18,-1116C1942.18,-1116 1862.18,-1116 1862.18,-1116 1856.18,-1116 1850.18,-1110 1850.18,-1104 1850.18,-1104 1850.18,-1092 1850.18,-1092 1850.18,-1086 1856.18,-1080 1862.18,-1080 1862.18,-1080 1942.18,-1080 1942.18,-1080 1948.18,-1080 1954.18,-1086 1954.18,-1092 1954.18,-1092 1954.18,-1104 1954.18,-1104 1954.18,-1110 1948.18,-1116 1942.18,-1116"/>
<text text-anchor="middle" x="1902.18" y="-1095.5" font-family="sans" font-size="10.00">combine_markers</text>
</g>
<!-- 3&#45;&gt;26 -->
<g id="edge57" class="edge">
<title>3&#45;&gt;26</title>
<path fill="none" stroke="grey" stroke-width="2" d="M1366.39,-1224.37C1394.95,-1215.97 1427.31,-1204.07 1454.18,-1188 1474.15,-1176.06 1471.05,-1161.73 1492.18,-1152 1631.83,-1087.73 1684.89,-1143.25 1836.18,-1116 1837.46,-1115.77 1838.75,-1115.53 1840.04,-1115.28"/>
<polygon fill="grey" stroke="grey" stroke-width="2" points="1841.03,-1118.65 1850.1,-1113.17 1839.59,-1111.8 1841.03,-1118.65"/>
</g>
<!-- 33 -->
<g id="node34" class="node">
<title>33</title>
<path fill="none" stroke="#d8d356" stroke-width="2" d="M2144.18,-540C2144.18,-540 1988.18,-540 1988.18,-540 1982.18,-540 1976.18,-534 1976.18,-528 1976.18,-528 1976.18,-516 1976.18,-516 1976.18,-510 1982.18,-504 1988.18,-504 1988.18,-504 2144.18,-504 2144.18,-504 2150.18,-504 2156.18,-510 2156.18,-516 2156.18,-516 2156.18,-528 2156.18,-528 2156.18,-534 2150.18,-540 2144.18,-540"/>
<text text-anchor="middle" x="2066.18" y="-519.5" font-family="sans" font-size="10.00">push_inhibitory_neuron_densities</text>
</g>
<!-- 3&#45;&gt;33 -->
<g id="edge60" class="edge">
<title>3&#45;&gt;33</title>
<path fill="none" stroke="grey" stroke-width="2" d="M1366.37,-1240.23C1541.79,-1237.73 1979.92,-1227.57 2032.18,-1188 2115.36,-1125.03 2078.18,-833.07 2078.18,-739 2078.18,-739 2078.18,-739 2078.18,-665 2078.18,-624.85 2073.36,-578.55 2069.83,-550.02"/>
<polygon fill="grey" stroke="grey" stroke-width="2" points="2073.29,-549.49 2068.55,-540.01 2066.35,-550.37 2073.29,-549.49"/>
</g>
<!-- 34 -->
<g id="node35" class="node">
<title>34</title>
<path fill="none" stroke="#5663d8" stroke-width="2" d="M1639.18,-612C1639.18,-612 1505.18,-612 1505.18,-612 1499.18,-612 1493.18,-606 1493.18,-600 1493.18,-600 1493.18,-588 1493.18,-588 1493.18,-582 1499.18,-576 1505.18,-576 1505.18,-576 1639.18,-576 1639.18,-576 1645.18,-576 1651.18,-582 1651.18,-588 1651.18,-588 1651.18,-600 1651.18,-600 1651.18,-606 1645.18,-612 1639.18,-612"/>
<text text-anchor="middle" x="1572.18" y="-591.5" font-family="sans" font-size="10.00">validate_inhibitory_densities</text>
</g>
<!-- 3&#45;&gt;34 -->
<g id="edge63" class="edge">
<title>3&#45;&gt;34</title>
<path fill="none" stroke="grey" stroke-width="2" d="M1366.26,-1240.87C1534.67,-1239.82 1942.83,-1232.65 1984.18,-1188 1995.22,-1176.08 2064.46,-1020.72 1978.18,-864 1903.87,-729.01 1729.61,-649.89 1635.36,-615.51"/>
<polygon fill="grey" stroke="grey" stroke-width="2" points="1636.54,-612.21 1625.94,-612.12 1634.17,-618.8 1636.54,-612.21"/>
</g>
<!-- 35 -->
<g id="node36" class="node">
<title>35</title>
<path fill="none" stroke="#5692d8" stroke-width="2" d="M1411.18,-684C1411.18,-684 1171.18,-684 1171.18,-684 1165.18,-684 1159.18,-678 1159.18,-672 1159.18,-672 1159.18,-660 1159.18,-660 1159.18,-654 1165.18,-648 1171.18,-648 1171.18,-648 1411.18,-648 1411.18,-648 1417.18,-648 1423.18,-654 1423.18,-660 1423.18,-660 1423.18,-672 1423.18,-672 1423.18,-678 1417.18,-684 1411.18,-684"/>
<text text-anchor="middle" x="1291.18" y="-663.5" font-family="sans" font-size="10.00">inhibitory_neuron_densities_linprog_correctednissl</text>
</g>
<!-- 3&#45;&gt;35 -->
<g id="edge66" class="edge">
<title>3&#45;&gt;35</title>
<path fill="none" stroke="grey" stroke-width="2" d="M1221.9,-1241.72C1037.82,-1242.75 555.32,-1240.23 405.18,-1188 352.43,-1169.65 333,-1162.58 302.18,-1116 261.83,-1055 268.18,-1028.13 268.18,-955 268.18,-955 268.18,-955 268.18,-809 268.18,-721.16 867.56,-684.6 1148.74,-672.27"/>
<polygon fill="grey" stroke="grey" stroke-width="2" points="1149.17,-675.76 1159.01,-671.83 1148.87,-668.77 1149.17,-675.76"/>
</g>
<!-- 36 -->
<g id="node37" class="node">
<title>36</title>
<path fill="none" stroke="#56d87b" stroke-width="2" d="M1161.18,-756C1161.18,-756 991.18,-756 991.18,-756 985.18,-756 979.18,-750 979.18,-744 979.18,-744 979.18,-732 979.18,-732 979.18,-726 985.18,-720 991.18,-720 991.18,-720 1161.18,-720 1161.18,-720 1167.18,-720 1173.18,-726 1173.18,-732 1173.18,-732 1173.18,-744 1173.18,-744 1173.18,-750 1167.18,-756 1161.18,-756"/>
<text text-anchor="middle" x="1076.18" y="-735.5" font-family="sans" font-size="10.00">fit_average_densities_correctednissl</text>
</g>
<!-- 3&#45;&gt;36 -->
<g id="edge73" class="edge">
<title>3&#45;&gt;36</title>
<path fill="none" stroke="grey" stroke-width="2" d="M1221.93,-1238.22C994.17,-1228.52 306.18,-1191.55 306.18,-1099 306.18,-1099 306.18,-1099 306.18,-881 306.18,-822.27 15.54,-906.83 522.18,-792 674.93,-757.38 856.38,-745.35 968.92,-741.19"/>
<polygon fill="grey" stroke="grey" stroke-width="2" points="969.05,-744.68 978.92,-740.83 968.8,-737.69 969.05,-744.68"/>
</g>
<!-- 44 -->
<g id="node45" class="node">
<title>44</title>
<path fill="none" stroke="#56d8a2" stroke-width="2" d="M1325.68,-828C1325.68,-828 1170.68,-828 1170.68,-828 1164.68,-828 1158.68,-822 1158.68,-816 1158.68,-816 1158.68,-804 1158.68,-804 1158.68,-798 1164.68,-792 1170.68,-792 1170.68,-792 1325.68,-792 1325.68,-792 1331.68,-792 1337.68,-798 1337.68,-804 1337.68,-804 1337.68,-816 1337.68,-816 1337.68,-822 1331.68,-828 1325.68,-828"/>
<text text-anchor="middle" x="1248.18" y="-807.5" font-family="sans" font-size="10.00">average_densities_correctednissl</text>
</g>
<!-- 3&#45;&gt;44 -->
<g id="edge83" class="edge">
<title>3&#45;&gt;44</title>
<path fill="none" stroke="grey" stroke-width="2" d="M1222.03,-1240.48C1061.23,-1238.57 684.57,-1229.66 646.18,-1188 635.34,-1176.23 638.12,-1165.82 646.18,-1152 678.26,-1096.96 1070.63,-898.94 1204.08,-832.73"/>
<polygon fill="grey" stroke="grey" stroke-width="2" points="1205.83,-835.78 1213.24,-828.2 1202.72,-829.5 1205.83,-835.78"/>
</g>
<!-- 47 -->
<g id="node48" class="node">
<title>47</title>
<path fill="none" stroke="#56d873" stroke-width="2" d="M440.18,-324C440.18,-324 290.18,-324 290.18,-324 284.18,-324 278.18,-318 278.18,-312 278.18,-312 278.18,-300 278.18,-300 278.18,-294 284.18,-288 290.18,-288 290.18,-288 440.18,-288 440.18,-288 446.18,-288 452.18,-294 452.18,-300 452.18,-300 452.18,-312 452.18,-312 452.18,-318 446.18,-324 440.18,-324"/>
<text text-anchor="middle" x="365.18" y="-303.5" font-family="sans" font-size="10.00">push_metype_pipeline_datasets</text>
</g>
<!-- 3&#45;&gt;47 -->
<g id="edge89" class="edge">
<title>3&#45;&gt;47</title>
<path fill="none" stroke="grey" stroke-width="2" d="M1221.99,-1241.58C982.9,-1242.99 226.73,-1242.99 133.18,-1188 93.1,-1164.44 78.18,-1145.5 78.18,-1099 78.18,-1099 78.18,-1099 78.18,-953 78.18,-856.4 116.18,-835.6 116.18,-739 116.18,-739 116.18,-739 116.18,-449 116.18,-375.81 198.37,-339.84 268.32,-322.49"/>
<polygon fill="grey" stroke="grey" stroke-width="2" points="269.17,-325.89 278.09,-320.17 267.55,-319.08 269.17,-325.89"/>
</g>
<!-- 49 -->
<g id="node50" class="node">
<title>49</title>
<path fill="none" stroke="#56a2d8" stroke-width="2" d="M730.18,-468C730.18,-468 502.18,-468 502.18,-468 496.18,-468 490.18,-462 490.18,-456 490.18,-456 490.18,-444 490.18,-444 490.18,-438 496.18,-432 502.18,-432 502.18,-432 730.18,-432 730.18,-432 736.18,-432 742.18,-438 742.18,-444 742.18,-444 742.18,-456 742.18,-456 742.18,-462 736.18,-468 730.18,-468"/>
<text text-anchor="middle" x="616.18" y="-447.5" font-family="sans" font-size="10.00">create_mtypes_densities_from_probability_map</text>
</g>
<!-- 3&#45;&gt;49 -->
<g id="edge94" class="edge">
<title>3&#45;&gt;49</title>
<path fill="none" stroke="grey" stroke-width="2" d="M1221.94,-1240.23C1027.81,-1237.64 498.11,-1227.1 328.18,-1188 228.59,-1165.09 116.18,-1201.19 116.18,-1099 116.18,-1099 116.18,-1099 116.18,-1025 116.18,-924.07 192.18,-911.93 192.18,-811 192.18,-811 192.18,-811 192.18,-593 192.18,-552.55 181.46,-531.43 211.18,-504 249.57,-468.57 377.94,-456.37 479.98,-452.39"/>
<polygon fill="grey" stroke="grey" stroke-width="2" points="480.22,-455.88 490.09,-452.02 479.96,-448.89 480.22,-455.88"/>
</g>
<!-- 57 -->
<g id="node58" class="node">
<title>57</title>
<path fill="none" stroke="#d87556" stroke-width="2" d="M1789.18,-540C1789.18,-540 1721.18,-540 1721.18,-540 1715.18,-540 1709.18,-534 1709.18,-528 1709.18,-528 1709.18,-516 1709.18,-516 1709.18,-510 1715.18,-504 1721.18,-504 1721.18,-504 1789.18,-504 1789.18,-504 1795.18,-504 1801.18,-510 1801.18,-516 1801.18,-516 1801.18,-528 1801.18,-528 1801.18,-534 1795.18,-540 1789.18,-540"/>
<text text-anchor="middle" x="1755.18" y="-519.5" font-family="sans" font-size="10.00">excitatory_split</text>
</g>
<!-- 3&#45;&gt;57 -->
<g id="edge105" class="edge">
<title>3&#45;&gt;57</title>
<path fill="none" stroke="grey" stroke-width="2" d="M1366.46,-1240.18C1537.61,-1237.6 1957.01,-1227.3 2006.18,-1188 2082.84,-1126.73 2040.18,-845.49 2040.18,-739 2040.18,-739 2040.18,-739 2040.18,-665 2040.18,-563.77 1894.37,-534.71 1811.33,-526.36"/>
<polygon fill="grey" stroke="grey" stroke-width="2" points="1811.57,-522.87 1801.29,-525.42 1810.92,-529.84 1811.57,-522.87"/>
</g>
<!-- 59 -->
<g id="node60" class="node">
<title>59</title>
<path fill="none" stroke="#d88d56" stroke-width="2" d="M262.18,-108C262.18,-108 162.18,-108 162.18,-108 156.18,-108 150.18,-102 150.18,-96 150.18,-96 150.18,-84 150.18,-84 150.18,-78 156.18,-72 162.18,-72 162.18,-72 262.18,-72 262.18,-72 268.18,-72 274.18,-78 274.18,-84 274.18,-84 274.18,-96 274.18,-96 274.18,-102 268.18,-108 262.18,-108"/>
<text text-anchor="middle" x="212.18" y="-87.5" font-family="sans" font-size="10.00">push_cellComposition</text>
</g>
<!-- 3&#45;&gt;59 -->
<g id="edge109" class="edge">
<title>3&#45;&gt;59</title>
<path fill="none" stroke="grey" stroke-width="2" d="M1221.86,-1239.94C963.2,-1235.88 96.73,-1219.94 47.18,-1188 9.93,-1163.99 2.18,-1143.32 2.18,-1099 2.18,-1099 2.18,-1099 2.18,-233 2.18,-192.55 -6.54,-173.45 21.18,-144 51.52,-111.78 99.57,-98.55 139.89,-93.37"/>
<polygon fill="grey" stroke="grey" stroke-width="2" points="140.42,-96.83 149.96,-92.22 139.63,-89.88 140.42,-96.83"/>
</g>
<!-- 61 -->
<g id="node62" class="node">
<title>61</title>
<path fill="none" stroke="#56a2d8" stroke-width="2" d="M241.68,-180C241.68,-180 42.68,-180 42.68,-180 36.68,-180 30.68,-174 30.68,-168 30.68,-168 30.68,-156 30.68,-156 30.68,-150 36.68,-144 42.68,-144 42.68,-144 241.68,-144 241.68,-144 247.68,-144 253.68,-150 253.68,-156 253.68,-156 253.68,-168 253.68,-168 253.68,-174 247.68,-180 241.68,-180"/>
<text text-anchor="middle" x="142.18" y="-159.5" font-family="sans" font-size="10.00">create_cellCompositionSummary_payload</text>
</g>
<!-- 3&#45;&gt;61 -->
<g id="edge113" class="edge">
<title>3&#45;&gt;61</title>
<path fill="none" stroke="grey" stroke-width="2" d="M1222.02,-1239.8C969.08,-1235.35 135.25,-1218.43 87.18,-1188 49.39,-1164.07 40.18,-1143.73 40.18,-1099 40.18,-1099 40.18,-1099 40.18,-305 40.18,-255.82 81.04,-212.01 111.04,-186.48"/>
<polygon fill="grey" stroke="grey" stroke-width="2" points="113.3,-189.15 118.78,-180.08 108.84,-183.75 113.3,-189.15"/>
</g>
<!-- 4 -->
<g id="node5" class="node">
<title>4</title>
<path fill="none" stroke="#566bd8" stroke-width="2" d="M2445.68,-1332C2445.68,-1332 2218.68,-1332 2218.68,-1332 2212.68,-1332 2206.68,-1326 2206.68,-1320 2206.68,-1320 2206.68,-1308 2206.68,-1308 2206.68,-1302 2212.68,-1296 2218.68,-1296 2218.68,-1296 2445.68,-1296 2445.68,-1296 2451.68,-1296 2457.68,-1302 2457.68,-1308 2457.68,-1308 2457.68,-1320 2457.68,-1320 2457.68,-1326 2451.68,-1332 2445.68,-1332"/>
<text text-anchor="middle" x="2332.18" y="-1311.5" font-family="sans" font-size="10.00">create_leaves_only_hierarchy_annotation_ccfv3</text>
</g>
<!-- 4&#45;&gt;3 -->
<g id="edge14" class="edge">
<title>4&#45;&gt;3</title>
<path fill="none" stroke="grey" stroke-width="2" d="M2206.46,-1304.52C1991.12,-1290 1557.46,-1260.75 1376.46,-1248.55"/>
<polygon fill="grey" stroke="grey" stroke-width="2" points="1376.69,-1245.06 1366.47,-1247.88 1376.21,-1252.04 1376.69,-1245.06"/>
</g>
<!-- 5 -->
<g id="node6" class="node">
<title>5</title>
<path fill="none" stroke="#5663d8" stroke-width="2" d="M2404.68,-1404C2404.68,-1404 2261.68,-1404 2261.68,-1404 2255.68,-1404 2249.68,-1398 2249.68,-1392 2249.68,-1392 2249.68,-1380 2249.68,-1380 2249.68,-1374 2255.68,-1368 2261.68,-1368 2261.68,-1368 2404.68,-1368 2404.68,-1368 2410.68,-1368 2416.68,-1374 2416.68,-1380 2416.68,-1380 2416.68,-1392 2416.68,-1392 2416.68,-1398 2410.68,-1404 2404.68,-1404"/>
<text text-anchor="middle" x="2333.18" y="-1383.5" font-family="sans" font-size="10.00">split_isocortex_layer_23_ccfv3</text>
</g>
<!-- 5&#45;&gt;4 -->
<g id="edge16" class="edge">
<title>5&#45;&gt;4</title>
<path fill="none" stroke="grey" stroke-width="2" d="M2332.93,-1367.7C2332.82,-1359.98 2332.69,-1350.71 2332.57,-1342.11"/>
<polygon fill="grey" stroke="grey" stroke-width="2" points="2336.07,-1342.05 2332.43,-1332.1 2329.07,-1342.15 2336.07,-1342.05"/>
</g>
<!-- 6 -->
<g id="node7" class="node">
<title>6</title>
<path fill="none" stroke="#56c9d8" stroke-width="2" d="M2530.18,-1548C2530.18,-1548 2376.18,-1548 2376.18,-1548 2370.18,-1548 2364.18,-1542 2364.18,-1536 2364.18,-1536 2364.18,-1524 2364.18,-1524 2364.18,-1518 2370.18,-1512 2376.18,-1512 2376.18,-1512 2530.18,-1512 2530.18,-1512 2536.18,-1512 2542.18,-1518 2542.18,-1524 2542.18,-1524 2542.18,-1536 2542.18,-1536 2542.18,-1542 2536.18,-1548 2530.18,-1548"/>
<text text-anchor="middle" x="2453.18" y="-1527.5" font-family="sans" font-size="10.00">fetch_ccf_brain_region_hierarchy</text>
</g>
<!-- 6&#45;&gt;5 -->
<g id="edge17" class="edge">
<title>6&#45;&gt;5</title>
<path fill="none" stroke="grey" stroke-width="2" d="M2453.67,-1511.83C2453.35,-1492.49 2450.13,-1461.02 2434.18,-1440 2424.12,-1426.74 2409.78,-1416.47 2395.05,-1408.66"/>
<polygon fill="grey" stroke="grey" stroke-width="2" points="2396.38,-1405.42 2385.87,-1404.11 2393.27,-1411.69 2396.38,-1405.42"/>
</g>
<!-- 8 -->
<g id="node9" class="node">
<title>8</title>
<path fill="none" stroke="#56d8c1" stroke-width="2" d="M2413.18,-1476C2413.18,-1476 2255.18,-1476 2255.18,-1476 2249.18,-1476 2243.18,-1470 2243.18,-1464 2243.18,-1464 2243.18,-1452 2243.18,-1452 2243.18,-1446 2249.18,-1440 2255.18,-1440 2255.18,-1440 2413.18,-1440 2413.18,-1440 2419.18,-1440 2425.18,-1446 2425.18,-1452 2425.18,-1452 2425.18,-1464 2425.18,-1464 2425.18,-1470 2419.18,-1476 2413.18,-1476"/>
<text text-anchor="middle" x="2334.18" y="-1455.5" font-family="sans" font-size="10.00">direction_vectors_isocortex_ccfv3</text>
</g>
<!-- 6&#45;&gt;8 -->
<g id="edge21" class="edge">
<title>6&#45;&gt;8</title>
<path fill="none" stroke="grey" stroke-width="2" d="M2424.07,-1511.88C2408.51,-1502.72 2389.16,-1491.34 2372.41,-1481.48"/>
<polygon fill="grey" stroke="grey" stroke-width="2" points="2373.8,-1478.24 2363.4,-1476.19 2370.25,-1484.28 2373.8,-1478.24"/>
</g>
<!-- 14 -->
<g id="node15" class="node">
<title>14</title>
<path fill="none" stroke="#5692d8" stroke-width="2" d="M2565.18,-1188C2565.18,-1188 2417.18,-1188 2417.18,-1188 2411.18,-1188 2405.18,-1182 2405.18,-1176 2405.18,-1176 2405.18,-1164 2405.18,-1164 2405.18,-1158 2411.18,-1152 2417.18,-1152 2417.18,-1152 2565.18,-1152 2565.18,-1152 2571.18,-1152 2577.18,-1158 2577.18,-1164 2577.18,-1164 2577.18,-1176 2577.18,-1176 2577.18,-1182 2571.18,-1188 2565.18,-1188"/>
<text text-anchor="middle" x="2491.18" y="-1167.5" font-family="sans" font-size="10.00">direction_vectors_default_ccfv3</text>
</g>
<!-- 6&#45;&gt;14 -->
<g id="edge27" class="edge">
<title>6&#45;&gt;14</title>
<path fill="none" stroke="grey" stroke-width="2" d="M2460.87,-1511.91C2471.97,-1485.62 2491.18,-1433.45 2491.18,-1387 2491.18,-1387 2491.18,-1387 2491.18,-1313 2491.18,-1273 2491.18,-1226.65 2491.18,-1198.08"/>
<polygon fill="grey" stroke="grey" stroke-width="2" points="2494.68,-1198.05 2491.18,-1188.05 2487.68,-1198.05 2494.68,-1198.05"/>
</g>
<!-- 7 -->
<g id="node8" class="node">
<title>7</title>
<path fill="none" stroke="#c6d856" stroke-width="2" d="M2286.18,-1548C2286.18,-1548 2144.18,-1548 2144.18,-1548 2138.18,-1548 2132.18,-1542 2132.18,-1536 2132.18,-1536 2132.18,-1524 2132.18,-1524 2132.18,-1518 2138.18,-1512 2144.18,-1512 2144.18,-1512 2286.18,-1512 2286.18,-1512 2292.18,-1512 2298.18,-1518 2298.18,-1524 2298.18,-1524 2298.18,-1536 2298.18,-1536 2298.18,-1542 2292.18,-1548 2286.18,-1548"/>
<text text-anchor="middle" x="2215.18" y="-1527.5" font-family="sans" font-size="10.00">fetch_brain_parcellation_ccfv3</text>
</g>
<!-- 7&#45;&gt;5 -->
<g id="edge18" class="edge">
<title>7&#45;&gt;5</title>
<path fill="none" stroke="grey" stroke-width="2" d="M2214.72,-1511.85C2215.07,-1492.54 2218.32,-1461.09 2234.18,-1440 2244.13,-1426.77 2258.36,-1416.49 2272.95,-1408.66"/>
<polygon fill="grey" stroke="grey" stroke-width="2" points="2274.67,-1411.7 2282.04,-1404.09 2271.53,-1405.45 2274.67,-1411.7"/>
</g>
<!-- 7&#45;&gt;8 -->
<g id="edge20" class="edge">
<title>7&#45;&gt;8</title>
<path fill="none" stroke="grey" stroke-width="2" d="M2244.29,-1511.88C2259.85,-1502.72 2279.2,-1491.34 2295.96,-1481.48"/>
<polygon fill="grey" stroke="grey" stroke-width="2" points="2298.11,-1484.28 2304.96,-1476.19 2294.56,-1478.24 2298.11,-1484.28"/>
</g>
<!-- 7&#45;&gt;14 -->
<g id="edge28" class="edge">
<title>7&#45;&gt;14</title>
<path fill="none" stroke="grey" stroke-width="2" d="M2207.49,-1511.91C2196.39,-1485.62 2177.18,-1433.45 2177.18,-1387 2177.18,-1387 2177.18,-1387 2177.18,-1313 2177.18,-1261.86 2317.2,-1215.7 2410.24,-1190.67"/>
<polygon fill="grey" stroke="grey" stroke-width="2" points="2411.16,-1194.05 2419.93,-1188.1 2409.37,-1187.28 2411.16,-1194.05"/>
</g>
<!-- 8&#45;&gt;5 -->
<g id="edge19" class="edge">
<title>8&#45;&gt;5</title>
<path fill="none" stroke="grey" stroke-width="2" d="M2333.93,-1439.7C2333.82,-1431.98 2333.69,-1422.71 2333.57,-1414.11"/>
<polygon fill="grey" stroke="grey" stroke-width="2" points="2337.07,-1414.05 2333.43,-1404.1 2330.07,-1414.15 2337.07,-1414.05"/>
</g>
<!-- 9 -->
<g id="node10" class="node">
<title>9</title>
<path fill="none" stroke="#d8b456" stroke-width="2" d="M1344.68,-1332C1344.68,-1332 1243.68,-1332 1243.68,-1332 1237.68,-1332 1231.68,-1326 1231.68,-1320 1231.68,-1320 1231.68,-1308 1231.68,-1308 1231.68,-1302 1237.68,-1296 1243.68,-1296 1243.68,-1296 1344.68,-1296 1344.68,-1296 1350.68,-1296 1356.68,-1302 1356.68,-1308 1356.68,-1308 1356.68,-1320 1356.68,-1320 1356.68,-1326 1350.68,-1332 1344.68,-1332"/>
<text text-anchor="middle" x="1294.18" y="-1311.5" font-family="sans" font-size="10.00">fetch_barrel_positions</text>
</g>
<!-- 9&#45;&gt;3 -->
<g id="edge15" class="edge">
<title>9&#45;&gt;3</title>
<path fill="none" stroke="grey" stroke-width="2" d="M1294.18,-1295.7C1294.18,-1287.98 1294.18,-1278.71 1294.18,-1270.11"/>
<polygon fill="grey" stroke="grey" stroke-width="2" points="1297.68,-1270.1 1294.18,-1260.1 1290.68,-1270.1 1297.68,-1270.1"/>
</g>
<!-- 10&#45;&gt;1 -->
<g id="edge6" class="edge">
<title>10&#45;&gt;1</title>
<path fill="none" stroke="grey" stroke-width="2" d="M1180.92,-1153.46C1184.04,-1152.92 1187.14,-1152.43 1190.18,-1152 1325.29,-1132.85 1677.95,-1170.21 1803.18,-1116 1824.53,-1106.76 1820.02,-1089.67 1841.18,-1080 1923.5,-1042.4 2187.75,-1031.36 2311.76,-1028.21"/>
<polygon fill="grey" stroke="grey" stroke-width="2" points="2311.97,-1031.71 2321.88,-1027.96 2311.8,-1024.71 2311.97,-1031.71"/>
</g>
<!-- 10&#45;&gt;2 -->
<g id="edge12" class="edge">
<title>10&#45;&gt;2</title>
<path fill="none" stroke="grey" stroke-width="2" d="M1180.91,-1153.41C1184.04,-1152.89 1187.14,-1152.41 1190.18,-1152 1530.99,-1105.81 1619.73,-1134.06 1963.18,-1116 2039.44,-1111.99 2126.93,-1106.78 2185.7,-1103.19"/>
<polygon fill="grey" stroke="grey" stroke-width="2" points="2186.2,-1106.66 2195.97,-1102.56 2185.77,-1099.68 2186.2,-1106.66"/>
</g>
<!-- 12 -->
<g id="node13" class="node">
<title>12</title>
<path fill="none" stroke="#56d882" stroke-width="2" d="M1781.68,-1116C1781.68,-1116 1658.68,-1116 1658.68,-1116 1652.68,-1116 1646.68,-1110 1646.68,-1104 1646.68,-1104 1646.68,-1092 1646.68,-1092 1646.68,-1086 1652.68,-1080 1658.68,-1080 1658.68,-1080 1781.68,-1080 1781.68,-1080 1787.68,-1080 1793.68,-1086 1793.68,-1092 1793.68,-1092 1793.68,-1104 1793.68,-1104 1793.68,-1110 1787.68,-1116 1781.68,-1116"/>
<text text-anchor="middle" x="1720.18" y="-1095.5" font-family="sans" font-size="10.00">create_hemispheres_ccfv3</text>
</g>
<!-- 10&#45;&gt;12 -->
<g id="edge23" class="edge">
<title>10&#45;&gt;12</title>
<path fill="none" stroke="grey" stroke-width="2" d="M1180.93,-1153.54C1184.05,-1152.98 1187.15,-1152.47 1190.18,-1152 1385,-1122.14 1436.91,-1142.73 1632.18,-1116 1633.48,-1115.82 1634.79,-1115.64 1636.11,-1115.45"/>
<polygon fill="grey" stroke="grey" stroke-width="2" points="1636.98,-1118.85 1646.34,-1113.87 1635.92,-1111.93 1636.98,-1118.85"/>
</g>
<!-- 10&#45;&gt;13 -->
<g id="edge24" class="edge">
<title>10&#45;&gt;13</title>
<path fill="none" stroke="grey" stroke-width="2" d="M1180.9,-1153.36C1184.03,-1152.85 1187.14,-1152.39 1190.18,-1152 1684.86,-1088.64 1821.64,-1193.83 2318.08,-1115.91"/>
<polygon fill="grey" stroke="grey" stroke-width="2" points="2318.69,-1119.35 2328.01,-1114.33 2317.59,-1112.44 2318.69,-1119.35"/>
</g>
<!-- 20 -->
<g id="node21" class="node">
<title>20</title>
<path fill="none" stroke="#56d8d0" stroke-width="2" d="M1658.68,-900C1658.68,-900 1491.68,-900 1491.68,-900 1485.68,-900 1479.68,-894 1479.68,-888 1479.68,-888 1479.68,-876 1479.68,-876 1479.68,-870 1485.68,-864 1491.68,-864 1491.68,-864 1658.68,-864 1658.68,-864 1664.68,-864 1670.68,-870 1670.68,-876 1670.68,-876 1670.68,-888 1670.68,-888 1670.68,-894 1664.68,-900 1658.68,-900"/>
<text text-anchor="middle" x="1575.18" y="-879.5" font-family="sans" font-size="10.00">validate_neuron_glia_cell_densities</text>
</g>
<!-- 10&#45;&gt;20 -->
<g id="edge38" class="edge">
<title>10&#45;&gt;20</title>
<path fill="none" stroke="grey" stroke-width="2" d="M1180.88,-1153.81C1243.35,-1139.29 1328.88,-1119.13 1336.18,-1116 1390.22,-1092.81 1410.81,-1090.21 1447.18,-1044 1478.65,-1004.02 1452.85,-975.29 1485.18,-936 1495.58,-923.36 1509.83,-913.05 1523.92,-904.99"/>
<polygon fill="grey" stroke="grey" stroke-width="2" points="1525.98,-907.86 1533.12,-900.02 1522.66,-901.7 1525.98,-907.86"/>
</g>
<!-- 10&#45;&gt;21 -->
<g id="edge41" class="edge">
<title>10&#45;&gt;21</title>
<path fill="none" stroke="grey" stroke-width="2" d="M1180.96,-1153.7C1184.07,-1153.1 1187.16,-1152.53 1190.18,-1152 1254.15,-1140.81 1425.17,-1150.52 1480.18,-1116 1530.42,-1084.48 1561.12,-1018.8 1575.13,-981.81"/>
<polygon fill="grey" stroke="grey" stroke-width="2" points="1578.5,-982.79 1578.64,-972.19 1571.93,-980.39 1578.5,-982.79"/>
</g>
<!-- 22 -->
<g id="node23" class="node">
<title>22</title>
<path fill="none" stroke="#b6d856" stroke-width="2" d="M1426.18,-1044C1426.18,-1044 1330.18,-1044 1330.18,-1044 1324.18,-1044 1318.18,-1038 1318.18,-1032 1318.18,-1032 1318.18,-1020 1318.18,-1020 1318.18,-1014 1324.18,-1008 1330.18,-1008 1330.18,-1008 1426.18,-1008 1426.18,-1008 1432.18,-1008 1438.18,-1014 1438.18,-1020 1438.18,-1020 1438.18,-1032 1438.18,-1032 1438.18,-1038 1432.18,-1044 1426.18,-1044"/>
<text text-anchor="middle" x="1378.18" y="-1023.5" font-family="sans" font-size="10.00">validate_cell_density</text>
</g>
<!-- 10&#45;&gt;22 -->
<g id="edge45" class="edge">
<title>10&#45;&gt;22</title>
<path fill="none" stroke="grey" stroke-width="2" d="M1180.8,-1152.65C1231.04,-1139.78 1293.51,-1122.92 1304.18,-1116 1329.04,-1099.88 1349.81,-1072.81 1362.95,-1052.75"/>
<polygon fill="grey" stroke="grey" stroke-width="2" points="1366.04,-1054.41 1368.44,-1044.09 1360.13,-1050.66 1366.04,-1054.41"/>
</g>
<!-- 10&#45;&gt;23 -->
<g id="edge48" class="edge">
<title>10&#45;&gt;23</title>
<path fill="none" stroke="grey" stroke-width="2" d="M1090.23,-1151.88C1077.14,-1142.89 1060.92,-1131.76 1046.75,-1122.03"/>
<polygon fill="grey" stroke="grey" stroke-width="2" points="1048.45,-1118.96 1038.23,-1116.19 1044.49,-1124.73 1048.45,-1118.96"/>
</g>
<!-- 10&#45;&gt;26 -->
<g id="edge58" class="edge">
<title>10&#45;&gt;26</title>
<path fill="none" stroke="grey" stroke-width="2" d="M1180.92,-1153.45C1184.04,-1152.91 1187.14,-1152.43 1190.18,-1152 1474.95,-1112.08 1552.02,-1160.08 1836.18,-1116 1837.46,-1115.8 1838.76,-1115.59 1840.06,-1115.36"/>
<polygon fill="grey" stroke="grey" stroke-width="2" points="1840.99,-1118.75 1850.14,-1113.41 1839.66,-1111.88 1840.99,-1118.75"/>
</g>
<!-- 10&#45;&gt;34 -->
<g id="edge61" class="edge">
<title>10&#45;&gt;34</title>
<path fill="none" stroke="grey" stroke-width="2" d="M1180.95,-1153.66C1184.06,-1153.07 1187.15,-1152.51 1190.18,-1152 1332.62,-1128 1380.53,-1173.16 1513.18,-1116 1635.64,-1063.23 1702.18,-1016.34 1702.18,-883 1702.18,-883 1702.18,-883 1702.18,-809 1702.18,-787.58 1625.12,-672.29 1589.66,-620.37"/>
<polygon fill="grey" stroke="grey" stroke-width="2" points="1592.48,-618.3 1583.95,-612.03 1586.71,-622.26 1592.48,-618.3"/>
</g>
<!-- 10&#45;&gt;35 -->
<g id="edge67" class="edge">
<title>10&#45;&gt;35</title>
<path fill="none" stroke="grey" stroke-width="2" d="M1143.27,-1151.95C1158.59,-1142.16 1177.55,-1129.21 1193.18,-1116 1285.03,-1038.36 1318.36,-1014.16 1356.18,-900 1371.37,-854.16 1381.34,-838.47 1368.18,-792 1357.37,-753.83 1331.24,-715.87 1312.42,-691.97"/>
<polygon fill="grey" stroke="grey" stroke-width="2" points="1315.1,-689.72 1306.1,-684.12 1309.65,-694.11 1315.1,-689.72"/>
</g>
<!-- 10&#45;&gt;36 -->
<g id="edge74" class="edge">
<title>10&#45;&gt;36</title>
<path fill="none" stroke="grey" stroke-width="2" d="M1131.87,-1151.65C1141.52,-1141.45 1153.77,-1128.2 1164.18,-1116 1243.49,-1023.08 1284.06,-1011.41 1334.18,-900 1354.01,-855.91 1377.91,-829.32 1347.18,-792 1326.28,-766.61 1249.93,-753.21 1183.58,-746.24"/>
<polygon fill="grey" stroke="grey" stroke-width="2" points="1183.75,-742.74 1173.45,-745.22 1183.05,-749.71 1183.75,-742.74"/>
</g>
<!-- 10&#45;&gt;44 -->
<g id="edge84" class="edge">
<title>10&#45;&gt;44</title>
<path fill="none" stroke="grey" stroke-width="2" d="M1122.94,-1151.78C1142.09,-1110.67 1195.03,-1005.09 1263.18,-936 1283.7,-915.2 1304.29,-925.7 1318.18,-900 1325.79,-885.93 1325.3,-878.33 1318.18,-864 1312.18,-851.93 1301.97,-841.87 1291.17,-833.88"/>
<polygon fill="grey" stroke="grey" stroke-width="2" points="1293.09,-830.95 1282.86,-828.17 1289.12,-836.71 1293.09,-830.95"/>
</g>
<!-- 48 -->
<g id="node49" class="node">
<title>48</title>
<path fill="none" stroke="#70d856" stroke-width="2" d="M508.68,-396C508.68,-396 389.68,-396 389.68,-396 383.68,-396 377.68,-390 377.68,-384 377.68,-384 377.68,-372 377.68,-372 377.68,-366 383.68,-360 389.68,-360 389.68,-360 508.68,-360 508.68,-360 514.68,-360 520.68,-366 520.68,-372 520.68,-372 520.68,-384 520.68,-384 520.68,-390 514.68,-396 508.68,-396"/>
<text text-anchor="middle" x="449.18" y="-375.5" font-family="sans" font-size="10.00">validate_all_ME_densities</text>
</g>
<!-- 10&#45;&gt;48 -->
<g id="edge90" class="edge">
<title>10&#45;&gt;48</title>
<path fill="none" stroke="grey" stroke-width="2" d="M1049.48,-1153.59C1046.68,-1153.03 1043.9,-1152.5 1041.18,-1152 868.86,-1120.35 401.39,-1147.72 260.18,-1044 231.24,-1022.74 154.18,-886.58 154.18,-811 154.18,-811 154.18,-811 154.18,-521 154.18,-426 279.92,-394.52 367.21,-384.11"/>
<polygon fill="grey" stroke="grey" stroke-width="2" points="367.84,-387.56 377.39,-382.97 367.07,-380.61 367.84,-387.56"/>
</g>
<!-- 10&#45;&gt;49 -->
<g id="edge95" class="edge">
<title>10&#45;&gt;49</title>
<path fill="none" stroke="grey" stroke-width="2" d="M1117.05,-1151.85C1118.2,-1131.62 1116.66,-1098.41 1097.18,-1080 955.71,-946.29 230.18,-1149.66 230.18,-955 230.18,-955 230.18,-955 230.18,-809 230.18,-620.12 433.57,-681.06 559.18,-540 576.4,-520.66 591.96,-495.59 602.46,-476.99"/>
<polygon fill="grey" stroke="grey" stroke-width="2" points="605.56,-478.62 607.33,-468.17 599.43,-475.23 605.56,-478.62"/>
</g>
<!-- 10&#45;&gt;57 -->
<g id="edge106" class="edge">
<title>10&#45;&gt;57</title>
<path fill="none" stroke="grey" stroke-width="2" d="M1180.94,-1153.6C1184.06,-1153.03 1187.15,-1152.49 1190.18,-1152 1354.61,-1125.54 1402.75,-1160.72 1563.18,-1116 1598.8,-1106.07 1604.22,-1094.63 1638.18,-1080 1780.69,-1018.6 1964.18,-1110.17 1964.18,-955 1964.18,-955 1964.18,-955 1964.18,-665 1964.18,-624.55 1972.89,-605.47 1945.18,-576 1911.05,-539.7 1854.34,-527.54 1811.74,-523.81"/>
<polygon fill="grey" stroke="grey" stroke-width="2" points="1811.74,-520.3 1801.51,-523.05 1811.23,-527.28 1811.74,-520.3"/>
</g>
<!-- 10&#45;&gt;61 -->
<g id="edge114" class="edge">
<title>10&#45;&gt;61</title>
<path fill="none" stroke="grey" stroke-width="2" d="M1049.52,-1153.29C1046.71,-1152.82 1043.92,-1152.38 1041.18,-1152 886.03,-1130.38 486.11,-1164.58 337.18,-1116 143.92,-1052.96 78.18,-942.29 78.18,-739 78.18,-739 78.18,-739 78.18,-305 78.18,-261.08 103.94,-215.73 122.78,-188.44"/>
<polygon fill="grey" stroke="grey" stroke-width="2" points="125.67,-190.42 128.61,-180.24 119.96,-186.37 125.67,-190.42"/>
</g>
<!-- 11 -->
<g id="node12" class="node">
<title>11</title>
<path fill="none" stroke="#d88556" stroke-width="2" d="M2336.68,-1188C2336.68,-1188 2215.68,-1188 2215.68,-1188 2209.68,-1188 2203.68,-1182 2203.68,-1176 2203.68,-1176 2203.68,-1164 2203.68,-1164 2203.68,-1158 2209.68,-1152 2215.68,-1152 2215.68,-1152 2336.68,-1152 2336.68,-1152 2342.68,-1152 2348.68,-1158 2348.68,-1164 2348.68,-1164 2348.68,-1176 2348.68,-1176 2348.68,-1182 2342.68,-1188 2336.68,-1188"/>
<text text-anchor="middle" x="2276.18" y="-1167.5" font-family="sans" font-size="10.00">fetch_regions_layers_map</text>
</g>
<!-- 11&#45;&gt;2 -->
<g id="edge13" class="edge">
<title>11&#45;&gt;2</title>
<path fill="none" stroke="grey" stroke-width="2" d="M2270.5,-1151.7C2267.93,-1143.9 2264.85,-1134.51 2262,-1125.83"/>
<polygon fill="grey" stroke="grey" stroke-width="2" points="2265.25,-1124.51 2258.8,-1116.1 2258.6,-1126.7 2265.25,-1124.51"/>
</g>
<!-- 12&#45;&gt;1 -->
<g id="edge7" class="edge">
<title>12&#45;&gt;1</title>
<path fill="none" stroke="grey" stroke-width="2" d="M1794.03,-1082.19C1798.81,-1081.4 1803.56,-1080.66 1808.18,-1080 1989.73,-1054.07 2205.75,-1037.96 2311.82,-1031"/>
<polygon fill="grey" stroke="grey" stroke-width="2" points="2312.29,-1034.48 2322.04,-1030.33 2311.84,-1027.49 2312.29,-1034.48"/>
</g>
<!-- 13&#45;&gt;1 -->
<g id="edge8" class="edge">
<title>13&#45;&gt;1</title>
<path fill="none" stroke="grey" stroke-width="2" d="M2377.18,-1079.7C2377.18,-1071.98 2377.18,-1062.71 2377.18,-1054.11"/>
<polygon fill="grey" stroke="grey" stroke-width="2" points="2380.68,-1054.1 2377.18,-1044.1 2373.68,-1054.1 2380.68,-1054.1"/>
</g>
<!-- 14&#45;&gt;1 -->
<g id="edge9" class="edge">
<title>14&#45;&gt;1</title>
<path fill="none" stroke="grey" stroke-width="2" d="M2482.12,-1151.68C2471.96,-1133.04 2454.38,-1102.98 2435.18,-1080 2426.55,-1069.68 2415.97,-1059.44 2406.21,-1050.76"/>
<polygon fill="grey" stroke="grey" stroke-width="2" points="2408.46,-1048.07 2398.61,-1044.15 2403.86,-1053.36 2408.46,-1048.07"/>
</g>
<!-- 14&#45;&gt;13 -->
<g id="edge26" class="edge">
<title>14&#45;&gt;13</title>
<path fill="none" stroke="grey" stroke-width="2" d="M2463.29,-1151.88C2448.39,-1142.72 2429.85,-1131.34 2413.8,-1121.48"/>
<polygon fill="grey" stroke="grey" stroke-width="2" points="2415.53,-1118.44 2405.18,-1116.19 2411.87,-1124.41 2415.53,-1118.44"/>
</g>
<!-- 15 -->
<g id="node16" class="node">
<title>15</title>
<path fill="none" stroke="#97d856" stroke-width="2" d="M2566.18,-1116C2566.18,-1116 2494.18,-1116 2494.18,-1116 2488.18,-1116 2482.18,-1110 2482.18,-1104 2482.18,-1104 2482.18,-1092 2482.18,-1092 2482.18,-1086 2488.18,-1080 2494.18,-1080 2494.18,-1080 2566.18,-1080 2566.18,-1080 2572.18,-1080 2578.18,-1086 2578.18,-1092 2578.18,-1092 2578.18,-1104 2578.18,-1104 2578.18,-1110 2572.18,-1116 2566.18,-1116"/>
<text text-anchor="middle" x="2530.18" y="-1095.5" font-family="sans" font-size="10.00">orientation_field</text>
</g>
<!-- 14&#45;&gt;15 -->
<g id="edge29" class="edge">
<title>14&#45;&gt;15</title>
<path fill="none" stroke="grey" stroke-width="2" d="M2500.82,-1151.7C2505.31,-1143.64 2510.74,-1133.89 2515.71,-1124.98"/>
<polygon fill="grey" stroke="grey" stroke-width="2" points="2518.84,-1126.54 2520.65,-1116.1 2512.73,-1123.14 2518.84,-1126.54"/>
</g>
<!-- 15&#45;&gt;1 -->
<g id="edge10" class="edge">
<title>15&#45;&gt;1</title>
<path fill="none" stroke="grey" stroke-width="2" d="M2492.75,-1079.88C2471.93,-1070.35 2445.83,-1058.41 2423.7,-1048.28"/>
<polygon fill="grey" stroke="grey" stroke-width="2" points="2425.04,-1045.05 2414.49,-1044.07 2422.12,-1051.41 2425.04,-1045.05"/>
</g>
<!-- 16&#45;&gt;0 -->
<g id="edge2" class="edge">
<title>16&#45;&gt;0</title>
<path fill="none" stroke="grey" stroke-width="2" d="M2324.18,-935.95C2324.18,-909.29 2324.18,-856.11 2324.18,-811 2324.18,-811 2324.18,-811 2324.18,-161 2324.18,-119.91 2310.55,-73.92 2300.55,-45.72"/>
<polygon fill="grey" stroke="grey" stroke-width="2" points="2303.78,-44.36 2297.06,-36.17 2297.21,-46.76 2303.78,-44.36"/>
</g>
<!-- 17 -->
<g id="node18" class="node">
<title>17</title>
<path fill="none" stroke="#56d88a" stroke-width="2" d="M2244.68,-252C2244.68,-252 2123.68,-252 2123.68,-252 2117.68,-252 2111.68,-246 2111.68,-240 2111.68,-240 2111.68,-228 2111.68,-228 2111.68,-222 2117.68,-216 2123.68,-216 2123.68,-216 2244.68,-216 2244.68,-216 2250.68,-216 2256.68,-222 2256.68,-228 2256.68,-228 2256.68,-240 2256.68,-240 2256.68,-246 2250.68,-252 2244.68,-252"/>
<text text-anchor="middle" x="2184.18" y="-231.5" font-family="sans" font-size="10.00">push_volumetric_datasets</text>
</g>
<!-- 17&#45;&gt;0 -->
<g id="edge3" class="edge">
<title>17&#45;&gt;0</title>
<path fill="none" stroke="grey" stroke-width="2" d="M2192.68,-215.85C2211.17,-178.52 2255.16,-89.69 2277.17,-45.26"/>
<polygon fill="grey" stroke="grey" stroke-width="2" points="2280.34,-46.75 2281.65,-36.23 2274.07,-43.64 2280.34,-46.75"/>
</g>
<!-- 18&#45;&gt;17 -->
<g id="edge31" class="edge">
<title>18&#45;&gt;17</title>
<path fill="none" stroke="grey" stroke-width="2" d="M2250.61,-720C2246.82,-693.4 2240.18,-640.3 2240.18,-595 2240.18,-595 2240.18,-595 2240.18,-377 2240.18,-333.91 2217.58,-288.26 2201.1,-260.7"/>
<polygon fill="grey" stroke="grey" stroke-width="2" points="2204.01,-258.75 2195.78,-252.07 2198.05,-262.42 2204.01,-258.75"/>
</g>
<!-- 19&#45;&gt;17 -->
<g id="edge32" class="edge">
<title>19&#45;&gt;17</title>
<path fill="none" stroke="grey" stroke-width="2" d="M2182.58,-791.95C2183.16,-765.29 2184.18,-712.12 2184.18,-667 2184.18,-667 2184.18,-667 2184.18,-377 2184.18,-337 2184.18,-290.65 2184.18,-262.08"/>
<polygon fill="grey" stroke="grey" stroke-width="2" points="2187.68,-262.05 2184.18,-252.05 2180.68,-262.05 2187.68,-262.05"/>
</g>
<!-- 20&#45;&gt;19 -->
<g id="edge36" class="edge">
<title>20&#45;&gt;19</title>
<path fill="none" stroke="grey" stroke-width="2" d="M1670.69,-869.99C1787.53,-856.51 1983.59,-833.9 2096,-820.94"/>
<polygon fill="grey" stroke="grey" stroke-width="2" points="2096.41,-824.41 2105.95,-819.79 2095.61,-817.46 2096.41,-824.41"/>
</g>
<!-- 20&#45;&gt;34 -->
<g id="edge65" class="edge">
<title>20&#45;&gt;34</title>
<path fill="none" stroke="grey" stroke-width="2" d="M1575,-863.97C1574.5,-816.29 1573.09,-681.18 1572.47,-622.63"/>
<polygon fill="grey" stroke="grey" stroke-width="2" points="1575.97,-622.27 1572.36,-612.31 1568.97,-622.34 1575.97,-622.27"/>
</g>
<!-- 20&#45;&gt;35 -->
<g id="edge68" class="edge">
<title>20&#45;&gt;35</title>
<path fill="none" stroke="grey" stroke-width="2" d="M1563.34,-863.56C1540.52,-831.13 1487.36,-761.13 1427.18,-720 1407.41,-706.49 1383.7,-695.73 1361.65,-687.53"/>
<polygon fill="grey" stroke="grey" stroke-width="2" points="1362.59,-684.15 1351.99,-684.06 1360.22,-690.73 1362.59,-684.15"/>
</g>
<!-- 20&#45;&gt;36 -->
<g id="edge75" class="edge">
<title>20&#45;&gt;36</title>
<path fill="none" stroke="grey" stroke-width="2" d="M1545.95,-863.84C1510.18,-843.6 1447.19,-810.39 1389.18,-792 1322.37,-770.82 1244.7,-757.6 1183.44,-749.66"/>
<polygon fill="grey" stroke="grey" stroke-width="2" points="1183.73,-746.17 1173.37,-748.39 1182.85,-753.12 1183.73,-746.17"/>
</g>
<!-- 20&#45;&gt;44 -->
<g id="edge86" class="edge">
<title>20&#45;&gt;44</title>
<path fill="none" stroke="grey" stroke-width="2" d="M1495.61,-863.97C1447.94,-853.76 1387.22,-840.76 1337.86,-830.2"/>
<polygon fill="grey" stroke="grey" stroke-width="2" points="1338.34,-826.72 1327.83,-828.05 1336.87,-833.57 1338.34,-826.72"/>
</g>
<!-- 20&#45;&gt;57 -->
<g id="edge107" class="edge">
<title>20&#45;&gt;57</title>
<path fill="none" stroke="grey" stroke-width="2" d="M1580.16,-863.77C1594.56,-815.58 1639.45,-676.41 1705.18,-576 1711.83,-565.85 1720.51,-555.87 1728.77,-547.35"/>
<polygon fill="grey" stroke="grey" stroke-width="2" points="1731.25,-549.81 1735.86,-540.27 1726.31,-544.86 1731.25,-549.81"/>
</g>
<!-- 21&#45;&gt;20 -->
<g id="edge39" class="edge">
<title>21&#45;&gt;20</title>
<path fill="none" stroke="grey" stroke-width="2" d="M1581.96,-935.7C1580.96,-927.98 1579.77,-918.71 1578.67,-910.11"/>
<polygon fill="grey" stroke="grey" stroke-width="2" points="1582.13,-909.58 1577.38,-900.1 1575.18,-910.47 1582.13,-909.58"/>
</g>
<!-- 22&#45;&gt;21 -->
<g id="edge42" class="edge">
<title>22&#45;&gt;21</title>
<path fill="none" stroke="grey" stroke-width="2" d="M1428.31,-1007.97C1457.22,-998.14 1493.75,-985.73 1524.18,-975.39"/>
<polygon fill="grey" stroke="grey" stroke-width="2" points="1525.48,-978.64 1533.83,-972.11 1523.23,-972.01 1525.48,-978.64"/>
</g>
<!-- 22&#45;&gt;34 -->
<g id="edge64" class="edge">
<title>22&#45;&gt;34</title>
<path fill="none" stroke="grey" stroke-width="2" d="M1388.33,-1007.92C1408.39,-972.51 1451.18,-887.94 1451.18,-811 1451.18,-811 1451.18,-811 1451.18,-737 1451.18,-685.05 1498.69,-642.45 1534.17,-617.88"/>
<polygon fill="grey" stroke="grey" stroke-width="2" points="1536.54,-620.5 1542.89,-612.03 1532.64,-614.69 1536.54,-620.5"/>
</g>
<!-- 22&#45;&gt;44 -->
<g id="edge85" class="edge">
<title>22&#45;&gt;44</title>
<path fill="none" stroke="grey" stroke-width="2" d="M1324.71,-1007.93C1277.2,-989.59 1210.7,-955.36 1180.18,-900 1172.46,-885.99 1173.16,-878.38 1180.18,-864 1185.99,-852.11 1195.89,-842.12 1206.36,-834.12"/>
<polygon fill="grey" stroke="grey" stroke-width="2" points="1208.68,-836.78 1214.82,-828.14 1204.64,-831.06 1208.68,-836.78"/>
</g>
<!-- 23&#45;&gt;22 -->
<g id="edge46" class="edge">
<title>23&#45;&gt;22</title>
<path fill="none" stroke="grey" stroke-width="2" d="M1087.93,-1082.67C1152.46,-1070.29 1245.02,-1052.54 1308.14,-1040.43"/>
<polygon fill="grey" stroke="grey" stroke-width="2" points="1308.85,-1043.86 1318.01,-1038.54 1307.53,-1036.99 1308.85,-1043.86"/>
</g>
<!-- 24 -->
<g id="node25" class="node">
<title>24</title>
<path fill="none" stroke="#d85656" stroke-width="2" d="M845.68,-1188C845.68,-1188 666.68,-1188 666.68,-1188 660.68,-1188 654.68,-1182 654.68,-1176 654.68,-1176 654.68,-1164 654.68,-1164 654.68,-1158 660.68,-1152 666.68,-1152 666.68,-1152 845.68,-1152 845.68,-1152 851.68,-1152 857.68,-1158 857.68,-1164 857.68,-1164 857.68,-1176 857.68,-1176 857.68,-1182 851.68,-1188 845.68,-1188"/>
<text text-anchor="middle" x="756.18" y="-1167.5" font-family="sans" font-size="10.00">fetch_corrected_nissl_stained_volume</text>
</g>
<!-- 24&#45;&gt;23 -->
<g id="edge49" class="edge">
<title>24&#45;&gt;23</title>
<path fill="none" stroke="grey" stroke-width="2" d="M818.72,-1151.97C855.41,-1141.97 901.94,-1129.3 940.29,-1118.85"/>
<polygon fill="grey" stroke="grey" stroke-width="2" points="941.63,-1122.12 950.36,-1116.11 939.79,-1115.36 941.63,-1122.12"/>
</g>
<!-- 25 -->
<g id="node26" class="node">
<title>25</title>
<path fill="none" stroke="#9fd856" stroke-width="2" d="M1019.68,-1188C1019.68,-1188 926.68,-1188 926.68,-1188 920.68,-1188 914.68,-1182 914.68,-1176 914.68,-1176 914.68,-1164 914.68,-1164 914.68,-1158 920.68,-1152 926.68,-1152 926.68,-1152 1019.68,-1152 1019.68,-1152 1025.68,-1152 1031.68,-1158 1031.68,-1164 1031.68,-1164 1031.68,-1176 1031.68,-1176 1031.68,-1182 1025.68,-1188 1019.68,-1188"/>
<text text-anchor="middle" x="973.18" y="-1167.5" font-family="sans" font-size="10.00">fetch_regions_config</text>
</g>
<!-- 25&#45;&gt;21 -->
<g id="edge44" class="edge">
<title>25&#45;&gt;21</title>
<path fill="none" stroke="grey" stroke-width="2" d="M1031.72,-1154.09C1154.22,-1122.82 1427.9,-1052.54 1447.18,-1044 1486.73,-1026.48 1527.77,-998.25 1554.5,-978.29"/>
<polygon fill="grey" stroke="grey" stroke-width="2" points="1556.79,-980.95 1562.65,-972.12 1552.57,-975.36 1556.79,-980.95"/>
</g>
<!-- 25&#45;&gt;23 -->
<g id="edge50" class="edge">
<title>25&#45;&gt;23</title>
<path fill="none" stroke="grey" stroke-width="2" d="M983.07,-1151.7C987.67,-1143.64 993.24,-1133.89 998.33,-1124.98"/>
<polygon fill="grey" stroke="grey" stroke-width="2" points="1001.48,-1126.52 1003.41,-1116.1 995.41,-1123.05 1001.48,-1126.52"/>
</g>
<!-- 25&#45;&gt;36 -->
<g id="edge78" class="edge">
<title>25&#45;&gt;36</title>
<path fill="none" stroke="grey" stroke-width="2" d="M954.14,-1151.84C945.01,-1142.3 935.01,-1129.62 930.18,-1116 924.83,-1100.92 925.09,-1095.17 930.18,-1080 973.86,-949.75 1072.65,-960.43 1109.18,-828 1113.44,-812.58 1113.58,-807.38 1109.18,-792 1106.47,-782.51 1101.51,-773.06 1096.25,-764.83"/>
<polygon fill="grey" stroke="grey" stroke-width="2" points="1099.04,-762.72 1090.51,-756.43 1093.26,-766.67 1099.04,-762.72"/>
</g>
<!-- 26&#45;&gt;21 -->
<g id="edge43" class="edge">
<title>26&#45;&gt;21</title>
<path fill="none" stroke="grey" stroke-width="2" d="M1863.82,-1079.87C1805.69,-1053.91 1695.35,-1004.64 1632.04,-976.37"/>
<polygon fill="grey" stroke="grey" stroke-width="2" points="1633.23,-973.07 1622.68,-972.19 1630.38,-979.46 1633.23,-973.07"/>
</g>
<!-- 27 -->
<g id="node28" class="node">
<title>27</title>
<path fill="none" stroke="#56d8c1" stroke-width="2" d="M1601.18,-1188C1601.18,-1188 1513.18,-1188 1513.18,-1188 1507.18,-1188 1501.18,-1182 1501.18,-1176 1501.18,-1176 1501.18,-1164 1501.18,-1164 1501.18,-1158 1507.18,-1152 1513.18,-1152 1513.18,-1152 1601.18,-1152 1601.18,-1152 1607.18,-1152 1613.18,-1158 1613.18,-1164 1613.18,-1164 1613.18,-1176 1613.18,-1176 1613.18,-1182 1607.18,-1188 1601.18,-1188"/>
<text text-anchor="middle" x="1557.18" y="-1167.5" font-family="sans" font-size="10.00">fetch_gene_aldh1l1</text>
</g>
<!-- 27&#45;&gt;26 -->
<g id="edge51" class="edge">
<title>27&#45;&gt;26</title>
<path fill="none" stroke="grey" stroke-width="2" d="M1613.27,-1154.21C1616.62,-1153.43 1619.94,-1152.69 1623.18,-1152 1717.09,-1132.01 1742.28,-1135.99 1836.18,-1116 1837.45,-1115.73 1838.73,-1115.45 1840.02,-1115.17"/>
<polygon fill="grey" stroke="grey" stroke-width="2" points="1841.08,-1118.52 1850.04,-1112.87 1839.51,-1111.69 1841.08,-1118.52"/>
</g>
<!-- 28 -->
<g id="node29" class="node">
<title>28</title>
<path fill="none" stroke="#56d892" stroke-width="2" d="M1712.68,-1188C1712.68,-1188 1643.68,-1188 1643.68,-1188 1637.68,-1188 1631.68,-1182 1631.68,-1176 1631.68,-1176 1631.68,-1164 1631.68,-1164 1631.68,-1158 1637.68,-1152 1643.68,-1152 1643.68,-1152 1712.68,-1152 1712.68,-1152 1718.68,-1152 1724.68,-1158 1724.68,-1164 1724.68,-1164 1724.68,-1176 1724.68,-1176 1724.68,-1182 1718.68,-1188 1712.68,-1188"/>
<text text-anchor="middle" x="1678.18" y="-1167.5" font-family="sans" font-size="10.00">fetch_gene_cnp</text>
</g>
<!-- 28&#45;&gt;26 -->
<g id="edge52" class="edge">
<title>28&#45;&gt;26</title>
<path fill="none" stroke="grey" stroke-width="2" d="M1724.87,-1154.41C1758.41,-1143.93 1803.97,-1129.69 1840.51,-1118.27"/>
<polygon fill="grey" stroke="grey" stroke-width="2" points="1841.57,-1121.61 1850.07,-1115.28 1839.48,-1114.93 1841.57,-1121.61"/>
</g>
<!-- 29 -->
<g id="node30" class="node">
<title>29</title>
<path fill="none" stroke="#78d856" stroke-width="2" d="M1829.18,-1188C1829.18,-1188 1755.18,-1188 1755.18,-1188 1749.18,-1188 1743.18,-1182 1743.18,-1176 1743.18,-1176 1743.18,-1164 1743.18,-1164 1743.18,-1158 1749.18,-1152 1755.18,-1152 1755.18,-1152 1829.18,-1152 1829.18,-1152 1835.18,-1152 1841.18,-1158 1841.18,-1164 1841.18,-1164 1841.18,-1176 1841.18,-1176 1841.18,-1182 1835.18,-1188 1829.18,-1188"/>
<text text-anchor="middle" x="1792.18" y="-1167.5" font-family="sans" font-size="10.00">fetch_gene_mbp</text>
</g>
<!-- 29&#45;&gt;26 -->
<g id="edge53" class="edge">
<title>29&#45;&gt;26</title>
<path fill="none" stroke="grey" stroke-width="2" d="M1819.09,-1151.88C1833.34,-1142.81 1851.03,-1131.55 1866.42,-1121.76"/>
<polygon fill="grey" stroke="grey" stroke-width="2" points="1868.61,-1124.51 1875.17,-1116.19 1864.85,-1118.61 1868.61,-1124.51"/>
</g>
<!-- 30 -->
<g id="node31" class="node">
<title>30</title>
<path fill="none" stroke="#88d856" stroke-width="2" d="M1945.18,-1188C1945.18,-1188 1871.18,-1188 1871.18,-1188 1865.18,-1188 1859.18,-1182 1859.18,-1176 1859.18,-1176 1859.18,-1164 1859.18,-1164 1859.18,-1158 1865.18,-1152 1871.18,-1152 1871.18,-1152 1945.18,-1152 1945.18,-1152 1951.18,-1152 1957.18,-1158 1957.18,-1164 1957.18,-1164 1957.18,-1176 1957.18,-1176 1957.18,-1182 1951.18,-1188 1945.18,-1188"/>
<text text-anchor="middle" x="1908.18" y="-1167.5" font-family="sans" font-size="10.00">fetch_gene_gfap</text>
</g>
<!-- 30&#45;&gt;26 -->
<g id="edge54" class="edge">
<title>30&#45;&gt;26</title>
<path fill="none" stroke="grey" stroke-width="2" d="M1906.7,-1151.7C1906.04,-1143.98 1905.24,-1134.71 1904.51,-1126.11"/>
<polygon fill="grey" stroke="grey" stroke-width="2" points="1907.99,-1125.77 1903.65,-1116.1 1901.01,-1126.37 1907.99,-1125.77"/>
</g>
<!-- 31 -->
<g id="node32" class="node">
<title>31</title>
<path fill="none" stroke="#8fd856" stroke-width="2" d="M1291.68,-1188C1291.68,-1188 1210.68,-1188 1210.68,-1188 1204.68,-1188 1198.68,-1182 1198.68,-1176 1198.68,-1176 1198.68,-1164 1198.68,-1164 1198.68,-1158 1204.68,-1152 1210.68,-1152 1210.68,-1152 1291.68,-1152 1291.68,-1152 1297.68,-1152 1303.68,-1158 1303.68,-1164 1303.68,-1164 1303.68,-1176 1303.68,-1176 1303.68,-1182 1297.68,-1188 1291.68,-1188"/>
<text text-anchor="middle" x="1251.18" y="-1167.5" font-family="sans" font-size="10.00">fetch_gene_s100b</text>
</g>
<!-- 31&#45;&gt;26 -->
<g id="edge55" class="edge">
<title>31&#45;&gt;26</title>
<path fill="none" stroke="grey" stroke-width="2" d="M1303.79,-1153.81C1306.95,-1153.14 1310.1,-1152.52 1313.18,-1152 1542.89,-1113 1606.18,-1153.21 1836.18,-1116 1837.46,-1115.79 1838.75,-1115.57 1840.06,-1115.34"/>
<polygon fill="grey" stroke="grey" stroke-width="2" points="1841,-1118.72 1850.13,-1113.35 1839.64,-1111.85 1841,-1118.72"/>
</g>
<!-- 32 -->
<g id="node33" class="node">
<title>32</title>
<path fill="none" stroke="#d88556" stroke-width="2" d="M1432.68,-1188C1432.68,-1188 1333.68,-1188 1333.68,-1188 1327.68,-1188 1321.68,-1182 1321.68,-1176 1321.68,-1176 1321.68,-1164 1321.68,-1164 1321.68,-1158 1327.68,-1152 1333.68,-1152 1333.68,-1152 1432.68,-1152 1432.68,-1152 1438.68,-1152 1444.68,-1158 1444.68,-1164 1444.68,-1164 1444.68,-1176 1444.68,-1176 1444.68,-1182 1438.68,-1188 1432.68,-1188"/>
<text text-anchor="middle" x="1383.18" y="-1167.5" font-family="sans" font-size="10.00">fetch_gene_tmem119</text>
</g>
<!-- 32&#45;&gt;26 -->
<g id="edge56" class="edge">
<title>32&#45;&gt;26</title>
<path fill="none" stroke="grey" stroke-width="2" d="M1444.86,-1154.53C1449.69,-1153.6 1454.51,-1152.74 1459.18,-1152 1625.41,-1125.58 1670.39,-1145.08 1836.18,-1116 1837.46,-1115.78 1838.75,-1115.54 1840.05,-1115.29"/>
<polygon fill="grey" stroke="grey" stroke-width="2" points="1841.02,-1118.67 1850.11,-1113.22 1839.61,-1111.81 1841.02,-1118.67"/>
</g>
<!-- 33&#45;&gt;17 -->
<g id="edge33" class="edge">
<title>33&#45;&gt;17</title>
<path fill="none" stroke="grey" stroke-width="2" d="M2073.21,-503.97C2092.96,-456.09 2149.09,-320.06 2173.08,-261.9"/>
<polygon fill="grey" stroke="grey" stroke-width="2" points="2176.46,-262.89 2177.04,-252.31 2169.99,-260.22 2176.46,-262.89"/>
</g>
<!-- 34&#45;&gt;33 -->
<g id="edge59" class="edge">
<title>34&#45;&gt;33</title>
<path fill="none" stroke="grey" stroke-width="2" d="M1651.28,-581.79C1736.75,-569.68 1873.15,-550.35 1966.04,-537.19"/>
<polygon fill="grey" stroke="grey" stroke-width="2" points="1966.61,-540.64 1976.02,-535.78 1965.63,-533.71 1966.61,-540.64"/>
</g>
<!-- 34&#45;&gt;49 -->
<g id="edge93" class="edge">
<title>34&#45;&gt;49</title>
<path fill="none" stroke="grey" stroke-width="2" d="M1493.09,-591.12C1273.02,-585.54 667.54,-567.73 635.18,-540 617.79,-525.1 614,-498.54 613.99,-478.3"/>
<polygon fill="grey" stroke="grey" stroke-width="2" points="617.49,-478.2 614.29,-468.11 610.5,-478 617.49,-478.2"/>
</g>
<!-- 56 -->
<g id="node57" class="node">
<title>56</title>
<path fill="none" stroke="#567bd8" stroke-width="2" d="M769.68,-540C769.68,-540 656.68,-540 656.68,-540 650.68,-540 644.68,-534 644.68,-528 644.68,-528 644.68,-516 644.68,-516 644.68,-510 650.68,-504 656.68,-504 656.68,-504 769.68,-504 769.68,-504 775.68,-504 781.68,-510 781.68,-516 781.68,-516 781.68,-528 781.68,-528 781.68,-534 775.68,-540 769.68,-540"/>
<text text-anchor="middle" x="713.18" y="-519.5" font-family="sans" font-size="10.00">compute_lamp5_density</text>
</g>
<!-- 34&#45;&gt;56 -->
<g id="edge103" class="edge">
<title>34&#45;&gt;56</title>
<path fill="none" stroke="grey" stroke-width="2" d="M1493.07,-591.46C1353.39,-587.91 1053.88,-576.53 792.07,-539.99"/>
<polygon fill="grey" stroke="grey" stroke-width="2" points="792.38,-536.5 781.99,-538.57 791.4,-543.43 792.38,-536.5"/>
</g>
<!-- 34&#45;&gt;57 -->
<g id="edge104" class="edge">
<title>34&#45;&gt;57</title>
<path fill="none" stroke="grey" stroke-width="2" d="M1616.95,-575.88C1642.3,-566.18 1674.19,-553.98 1700.95,-543.74"/>
<polygon fill="grey" stroke="grey" stroke-width="2" points="1702.47,-546.91 1710.56,-540.07 1699.97,-540.37 1702.47,-546.91"/>
</g>
<!-- 35&#45;&gt;34 -->
<g id="edge62" class="edge">
<title>35&#45;&gt;34</title>
<path fill="none" stroke="grey" stroke-width="2" d="M1359.56,-647.97C1400.02,-637.89 1451.42,-625.08 1493.55,-614.59"/>
<polygon fill="grey" stroke="grey" stroke-width="2" points="1494.64,-617.92 1503.49,-612.11 1492.94,-611.13 1494.64,-617.92"/>
</g>
<!-- 36&#45;&gt;35 -->
<g id="edge69" class="edge">
<title>36&#45;&gt;35</title>
<path fill="none" stroke="grey" stroke-width="2" d="M1128.5,-719.97C1158.8,-710.1 1197.13,-697.62 1228.97,-687.25"/>
<polygon fill="grey" stroke="grey" stroke-width="2" points="1230.2,-690.53 1238.63,-684.11 1228.03,-683.88 1230.2,-690.53"/>
</g>
<!-- 37 -->
<g id="node38" class="node">
<title>37</title>
<path fill="none" stroke="#567bd8" stroke-width="2" d="M668.68,-828C668.68,-828 543.68,-828 543.68,-828 537.68,-828 531.68,-822 531.68,-816 531.68,-816 531.68,-804 531.68,-804 531.68,-798 537.68,-792 543.68,-792 543.68,-792 668.68,-792 668.68,-792 674.68,-792 680.68,-798 680.68,-804 680.68,-804 680.68,-816 680.68,-816 680.68,-822 674.68,-828 668.68,-828"/>
<text text-anchor="middle" x="606.18" y="-807.5" font-family="sans" font-size="10.00">fetch_genes_correctednissl</text>
</g>
<!-- 37&#45;&gt;36 -->
<g id="edge70" class="edge">
<title>37&#45;&gt;36</title>
<path fill="none" stroke="grey" stroke-width="2" d="M680.79,-793.48C683.62,-792.96 686.43,-792.47 689.18,-792 783.22,-775.95 890.78,-761.53 968.6,-751.8"/>
<polygon fill="grey" stroke="grey" stroke-width="2" points="969.4,-755.23 978.89,-750.52 968.54,-748.28 969.4,-755.23"/>
</g>
<!-- 38 -->
<g id="node39" class="node">
<title>38</title>
<path fill="none" stroke="#61d856" stroke-width="2" d="M862.68,-900C862.68,-900 725.68,-900 725.68,-900 719.68,-900 713.68,-894 713.68,-888 713.68,-888 713.68,-876 713.68,-876 713.68,-870 719.68,-864 725.68,-864 725.68,-864 862.68,-864 862.68,-864 868.68,-864 874.68,-870 874.68,-876 874.68,-876 874.68,-888 874.68,-888 874.68,-894 868.68,-900 862.68,-900"/>
<text text-anchor="middle" x="794.18" y="-879.5" font-family="sans" font-size="10.00">fetch_gene_pv_correctednissl</text>
</g>
<!-- 38&#45;&gt;37 -->
<g id="edge79" class="edge">
<title>38&#45;&gt;37</title>
<path fill="none" stroke="grey" stroke-width="2" d="M748.19,-863.88C722.03,-854.14 689.1,-841.87 661.53,-831.61"/>
<polygon fill="grey" stroke="grey" stroke-width="2" points="662.61,-828.28 652.02,-828.07 660.17,-834.84 662.61,-828.28"/>
</g>
<!-- 39 -->
<g id="node40" class="node">
<title>39</title>
<path fill="none" stroke="#d8c356" stroke-width="2" d="M1045.18,-900C1045.18,-900 905.18,-900 905.18,-900 899.18,-900 893.18,-894 893.18,-888 893.18,-888 893.18,-876 893.18,-876 893.18,-870 899.18,-864 905.18,-864 905.18,-864 1045.18,-864 1045.18,-864 1051.18,-864 1057.18,-870 1057.18,-876 1057.18,-876 1057.18,-888 1057.18,-888 1057.18,-894 1051.18,-900 1045.18,-900"/>
<text text-anchor="middle" x="975.18" y="-879.5" font-family="sans" font-size="10.00">fetch_gene_sst_correctednissl</text>
</g>
<!-- 39&#45;&gt;37 -->
<g id="edge80" class="edge">
<title>39&#45;&gt;37</title>
<path fill="none" stroke="grey" stroke-width="2" d="M892.84,-865.61C889.92,-865.07 887.03,-864.53 884.18,-864 800.66,-848.49 777.35,-845.08 690.83,-828.3"/>
<polygon fill="grey" stroke="grey" stroke-width="2" points="691.31,-824.83 680.82,-826.36 689.97,-831.7 691.31,-824.83"/>
</g>
<!-- 40 -->
<g id="node41" class="node">
<title>40</title>
<path fill="none" stroke="#bed856" stroke-width="2" d="M486.18,-900C486.18,-900 346.18,-900 346.18,-900 340.18,-900 334.18,-894 334.18,-888 334.18,-888 334.18,-876 334.18,-876 334.18,-870 340.18,-864 346.18,-864 346.18,-864 486.18,-864 486.18,-864 492.18,-864 498.18,-870 498.18,-876 498.18,-876 498.18,-888 498.18,-888 498.18,-894 492.18,-900 486.18,-900"/>
<text text-anchor="middle" x="416.18" y="-879.5" font-family="sans" font-size="10.00">fetch_gene_vip_correctednissl</text>
</g>
<!-- 40&#45;&gt;37 -->
<g id="edge81" class="edge">
<title>40&#45;&gt;37</title>
<path fill="none" stroke="grey" stroke-width="2" d="M462.66,-863.88C489.1,-854.14 522.38,-841.87 550.24,-831.61"/>
<polygon fill="grey" stroke="grey" stroke-width="2" points="551.68,-834.81 559.85,-828.07 549.26,-828.24 551.68,-834.81"/>
</g>
<!-- 41 -->
<g id="node42" class="node">
<title>41</title>
<path fill="none" stroke="#afd856" stroke-width="2" d="M683.68,-900C683.68,-900 528.68,-900 528.68,-900 522.68,-900 516.68,-894 516.68,-888 516.68,-888 516.68,-876 516.68,-876 516.68,-870 522.68,-864 528.68,-864 528.68,-864 683.68,-864 683.68,-864 689.68,-864 695.68,-870 695.68,-876 695.68,-876 695.68,-888 695.68,-888 695.68,-894 689.68,-900 683.68,-900"/>
<text text-anchor="middle" x="606.18" y="-879.5" font-family="sans" font-size="10.00">fetch_gene_gad67_correctednissl</text>
</g>
<!-- 41&#45;&gt;37 -->
<g id="edge82" class="edge">
<title>41&#45;&gt;37</title>
<path fill="none" stroke="grey" stroke-width="2" d="M606.18,-863.7C606.18,-855.98 606.18,-846.71 606.18,-838.11"/>
<polygon fill="grey" stroke="grey" stroke-width="2" points="609.68,-838.1 606.18,-828.1 602.68,-838.1 609.68,-838.1"/>
</g>
<!-- 42 -->
<g id="node43" class="node">
<title>42</title>
<path fill="none" stroke="#56b9d8" stroke-width="2" d="M811.68,-828C811.68,-828 710.68,-828 710.68,-828 704.68,-828 698.68,-822 698.68,-816 698.68,-816 698.68,-804 698.68,-804 698.68,-798 704.68,-792 710.68,-792 710.68,-792 811.68,-792 811.68,-792 817.68,-792 823.68,-798 823.68,-804 823.68,-804 823.68,-816 823.68,-816 823.68,-822 817.68,-828 811.68,-828"/>
<text text-anchor="middle" x="761.18" y="-807.5" font-family="sans" font-size="10.00">fetch_realigned_slices</text>
</g>
<!-- 42&#45;&gt;36 -->
<g id="edge71" class="edge">
<title>42&#45;&gt;36</title>
<path fill="none" stroke="grey" stroke-width="2" d="M824,-794.1C827.1,-793.39 830.18,-792.68 833.18,-792 883.88,-780.49 940.65,-768.08 986.56,-758.16"/>
<polygon fill="grey" stroke="grey" stroke-width="2" points="987.45,-761.55 996.49,-756.02 985.97,-754.71 987.45,-761.55"/>
</g>
<!-- 43 -->
<g id="node44" class="node">
<title>43</title>
<path fill="none" stroke="#56c9d8" stroke-width="2" d="M918.68,-828C918.68,-828 853.68,-828 853.68,-828 847.68,-828 841.68,-822 841.68,-816 841.68,-816 841.68,-804 841.68,-804 841.68,-798 847.68,-792 853.68,-792 853.68,-792 918.68,-792 918.68,-792 924.68,-792 930.68,-798 930.68,-804 930.68,-804 930.68,-816 930.68,-816 930.68,-822 924.68,-828 918.68,-828"/>
<text text-anchor="middle" x="886.18" y="-807.5" font-family="sans" font-size="10.00">fetch_std_cells</text>
</g>
<!-- 43&#45;&gt;36 -->
<g id="edge72" class="edge">
<title>43&#45;&gt;36</title>
<path fill="none" stroke="grey" stroke-width="2" d="M930.73,-792.59C957.53,-782.71 991.88,-770.06 1020.47,-759.52"/>
<polygon fill="grey" stroke="grey" stroke-width="2" points="1021.76,-762.78 1029.93,-756.04 1019.34,-756.21 1021.76,-762.78"/>
</g>
<!-- 44&#45;&gt;36 -->
<g id="edge76" class="edge">
<title>44&#45;&gt;36</title>
<path fill="none" stroke="grey" stroke-width="2" d="M1206.11,-791.88C1182.38,-782.22 1152.57,-770.09 1127.48,-759.88"/>
<polygon fill="grey" stroke="grey" stroke-width="2" points="1128.7,-756.6 1118.12,-756.07 1126.06,-763.08 1128.7,-756.6"/>
</g>
<!-- 45 -->
<g id="node46" class="node">
<title>45</title>
<path fill="none" stroke="#56c1d8" stroke-width="2" d="M1297.18,-900C1297.18,-900 1201.18,-900 1201.18,-900 1195.18,-900 1189.18,-894 1189.18,-888 1189.18,-888 1189.18,-876 1189.18,-876 1189.18,-870 1195.18,-864 1201.18,-864 1201.18,-864 1297.18,-864 1297.18,-864 1303.18,-864 1309.18,-870 1309.18,-876 1309.18,-876 1309.18,-888 1309.18,-888 1309.18,-894 1303.18,-900 1297.18,-900"/>
<text text-anchor="middle" x="1249.18" y="-879.5" font-family="sans" font-size="10.00">fetch_measurements</text>
</g>
<!-- 45&#45;&gt;44 -->
<g id="edge87" class="edge">
<title>45&#45;&gt;44</title>
<path fill="none" stroke="grey" stroke-width="2" d="M1248.93,-863.7C1248.82,-855.98 1248.69,-846.71 1248.57,-838.11"/>
<polygon fill="grey" stroke="grey" stroke-width="2" points="1252.07,-838.05 1248.43,-828.1 1245.07,-838.15 1252.07,-838.05"/>
</g>
<!-- 46 -->
<g id="node47" class="node">
<title>46</title>
<path fill="none" stroke="#d85e56" stroke-width="2" d="M1087.68,-828C1087.68,-828 960.68,-828 960.68,-828 954.68,-828 948.68,-822 948.68,-816 948.68,-816 948.68,-804 948.68,-804 948.68,-798 954.68,-792 960.68,-792 960.68,-792 1087.68,-792 1087.68,-792 1093.68,-792 1099.68,-798 1099.68,-804 1099.68,-804 1099.68,-816 1099.68,-816 1099.68,-822 1093.68,-828 1087.68,-828"/>
<text text-anchor="middle" x="1024.18" y="-807.5" font-family="sans" font-size="10.00">fetch_homogenous_regions</text>
</g>
<!-- 46&#45;&gt;36 -->
<g id="edge77" class="edge">
<title>46&#45;&gt;36</title>
<path fill="none" stroke="grey" stroke-width="2" d="M1037.04,-791.7C1043.21,-783.39 1050.72,-773.28 1057.51,-764.14"/>
<polygon fill="grey" stroke="grey" stroke-width="2" points="1060.32,-766.22 1063.48,-756.1 1054.7,-762.04 1060.32,-766.22"/>
</g>
<!-- 47&#45;&gt;17 -->
<g id="edge34" class="edge">
<title>47&#45;&gt;17</title>
<path fill="none" stroke="grey" stroke-width="2" d="M452.3,-301.65C760.81,-289.78 1799.01,-249.82 2101.08,-238.2"/>
<polygon fill="grey" stroke="grey" stroke-width="2" points="2101.66,-241.68 2111.51,-237.8 2101.39,-234.68 2101.66,-241.68"/>
</g>
<!-- 60 -->
<g id="node61" class="node">
<title>60</title>
<path fill="none" stroke="#56d8a9" stroke-width="2" d="M376.18,-252C376.18,-252 188.18,-252 188.18,-252 182.18,-252 176.18,-246 176.18,-240 176.18,-240 176.18,-228 176.18,-228 176.18,-222 182.18,-216 188.18,-216 188.18,-216 376.18,-216 376.18,-216 382.18,-216 388.18,-222 388.18,-228 388.18,-228 388.18,-240 388.18,-240 388.18,-246 382.18,-252 376.18,-252"/>
<text text-anchor="middle" x="282.18" y="-231.5" font-family="sans" font-size="10.00">create_cellCompositionVolume_payload</text>
</g>
<!-- 47&#45;&gt;60 -->
<g id="edge112" class="edge">
<title>47&#45;&gt;60</title>
<path fill="none" stroke="grey" stroke-width="2" d="M344.66,-287.7C334.31,-278.97 321.59,-268.24 310.34,-258.75"/>
<polygon fill="grey" stroke="grey" stroke-width="2" points="312.36,-255.88 302.46,-252.1 307.85,-261.23 312.36,-255.88"/>
</g>
<!-- 48&#45;&gt;47 -->
<g id="edge88" class="edge">
<title>48&#45;&gt;47</title>
<path fill="none" stroke="grey" stroke-width="2" d="M428.42,-359.7C417.94,-350.97 405.07,-340.24 393.68,-330.75"/>
<polygon fill="grey" stroke="grey" stroke-width="2" points="395.63,-327.82 385.71,-324.1 391.15,-333.19 395.63,-327.82"/>
</g>
<!-- 49&#45;&gt;48 -->
<g id="edge91" class="edge">
<title>49&#45;&gt;48</title>
<path fill="none" stroke="grey" stroke-width="2" d="M575.33,-431.88C552.4,-422.26 523.6,-410.19 499.31,-400.01"/>
<polygon fill="grey" stroke="grey" stroke-width="2" points="500.48,-396.71 489.9,-396.07 497.77,-403.16 500.48,-396.71"/>
</g>
<!-- 50 -->
<g id="node51" class="node">
<title>50</title>
<path fill="none" stroke="#56d89a" stroke-width="2" d="M930.68,-540C930.68,-540 811.68,-540 811.68,-540 805.68,-540 799.68,-534 799.68,-528 799.68,-528 799.68,-516 799.68,-516 799.68,-510 805.68,-504 811.68,-504 811.68,-504 930.68,-504 930.68,-504 936.68,-504 942.68,-510 942.68,-516 942.68,-516 942.68,-528 942.68,-528 942.68,-534 936.68,-540 930.68,-540"/>
<text text-anchor="middle" x="871.18" y="-519.5" font-family="sans" font-size="10.00">fetch_probability_map_L1</text>
</g>
<!-- 50&#45;&gt;49 -->
<g id="edge96" class="edge">
<title>50&#45;&gt;49</title>
<path fill="none" stroke="grey" stroke-width="2" d="M809.13,-503.97C772.72,-493.97 726.55,-481.3 688.51,-470.85"/>
<polygon fill="grey" stroke="grey" stroke-width="2" points="689.08,-467.38 678.51,-468.11 687.23,-474.13 689.08,-467.38"/>
</g>
<!-- 51 -->
<g id="node52" class="node">
<title>51</title>
<path fill="none" stroke="#88d856" stroke-width="2" d="M1097.68,-540C1097.68,-540 972.68,-540 972.68,-540 966.68,-540 960.68,-534 960.68,-528 960.68,-528 960.68,-516 960.68,-516 960.68,-510 966.68,-504 972.68,-504 972.68,-504 1097.68,-504 1097.68,-504 1103.68,-504 1109.68,-510 1109.68,-516 1109.68,-516 1109.68,-528 1109.68,-528 1109.68,-534 1103.68,-540 1097.68,-540"/>
<text text-anchor="middle" x="1035.18" y="-519.5" font-family="sans" font-size="10.00">fetch_probability_map_L23</text>
</g>
<!-- 51&#45;&gt;49 -->
<g id="edge97" class="edge">
<title>51&#45;&gt;49</title>
<path fill="none" stroke="grey" stroke-width="2" d="M960.56,-505.55C957.73,-505.02 954.93,-504.5 952.18,-504 883.1,-491.48 805.71,-479.16 742.63,-469.55"/>
<polygon fill="grey" stroke="grey" stroke-width="2" points="743.05,-466.08 732.64,-468.03 742,-473 743.05,-466.08"/>
</g>
<!-- 52 -->
<g id="node53" class="node">
<title>52</title>
<path fill="none" stroke="#56d85b" stroke-width="2" d="M1258.68,-540C1258.68,-540 1139.68,-540 1139.68,-540 1133.68,-540 1127.68,-534 1127.68,-528 1127.68,-528 1127.68,-516 1127.68,-516 1127.68,-510 1133.68,-504 1139.68,-504 1139.68,-504 1258.68,-504 1258.68,-504 1264.68,-504 1270.68,-510 1270.68,-516 1270.68,-516 1270.68,-528 1270.68,-528 1270.68,-534 1264.68,-540 1258.68,-540"/>
<text text-anchor="middle" x="1199.18" y="-519.5" font-family="sans" font-size="10.00">fetch_probability_map_L4</text>
</g>
<!-- 52&#45;&gt;49 -->
<g id="edge98" class="edge">
<title>52&#45;&gt;49</title>
<path fill="none" stroke="grey" stroke-width="2" d="M1127.29,-505.35C1124.56,-504.88 1121.85,-504.42 1119.18,-504 995.59,-484.41 853.73,-470.21 752.24,-461.46"/>
<polygon fill="grey" stroke="grey" stroke-width="2" points="752.5,-457.97 742.24,-460.61 751.9,-464.95 752.5,-457.97"/>
</g>
<!-- 53 -->
<g id="node54" class="node">
<title>53</title>
<path fill="none" stroke="#d6d856" stroke-width="2" d="M1419.68,-540C1419.68,-540 1300.68,-540 1300.68,-540 1294.68,-540 1288.68,-534 1288.68,-528 1288.68,-528 1288.68,-516 1288.68,-516 1288.68,-510 1294.68,-504 1300.68,-504 1300.68,-504 1419.68,-504 1419.68,-504 1425.68,-504 1431.68,-510 1431.68,-516 1431.68,-516 1431.68,-528 1431.68,-528 1431.68,-534 1425.68,-540 1419.68,-540"/>
<text text-anchor="middle" x="1360.18" y="-519.5" font-family="sans" font-size="10.00">fetch_probability_map_L5</text>
</g>
<!-- 53&#45;&gt;49 -->
<g id="edge99" class="edge">
<title>53&#45;&gt;49</title>
<path fill="none" stroke="grey" stroke-width="2" d="M1288.3,-505.27C1285.56,-504.81 1282.85,-504.39 1280.18,-504 1098.8,-477.6 887.49,-463.58 752.84,-456.72"/>
<polygon fill="grey" stroke="grey" stroke-width="2" points="752.64,-453.21 742.48,-456.2 752.29,-460.2 752.64,-453.21"/>
</g>
<!-- 54 -->
<g id="node55" class="node">
<title>54</title>
<path fill="none" stroke="#56d85b" stroke-width="2" d="M351.68,-540C351.68,-540 232.68,-540 232.68,-540 226.68,-540 220.68,-534 220.68,-528 220.68,-528 220.68,-516 220.68,-516 220.68,-510 226.68,-504 232.68,-504 232.68,-504 351.68,-504 351.68,-504 357.68,-504 363.68,-510 363.68,-516 363.68,-516 363.68,-528 363.68,-528 363.68,-534 357.68,-540 351.68,-540"/>
<text text-anchor="middle" x="292.18" y="-519.5" font-family="sans" font-size="10.00">fetch_probability_map_L6</text>
</g>
<!-- 54&#45;&gt;49 -->
<g id="edge100" class="edge">
<title>54&#45;&gt;49</title>
<path fill="none" stroke="grey" stroke-width="2" d="M363.69,-505.55C412.01,-495.11 476.14,-481.26 527.68,-470.12"/>
<polygon fill="grey" stroke="grey" stroke-width="2" points="528.45,-473.54 537.48,-468 526.97,-466.69 528.45,-473.54"/>
</g>
<!-- 55 -->
<g id="node56" class="node">
<title>55</title>
<path fill="none" stroke="#56d8c9" stroke-width="2" d="M538.18,-540C538.18,-540 394.18,-540 394.18,-540 388.18,-540 382.18,-534 382.18,-528 382.18,-528 382.18,-516 382.18,-516 382.18,-510 388.18,-504 394.18,-504 394.18,-504 538.18,-504 538.18,-504 544.18,-504 550.18,-510 550.18,-516 550.18,-516 550.18,-528 550.18,-528 550.18,-534 544.18,-540 538.18,-540"/>
<text text-anchor="middle" x="466.18" y="-519.5" font-family="sans" font-size="10.00">fetch_probability_map_TH_INH</text>
</g>
<!-- 55&#45;&gt;49 -->
<g id="edge101" class="edge">
<title>55&#45;&gt;49</title>
<path fill="none" stroke="grey" stroke-width="2" d="M502.88,-503.88C523.2,-494.39 548.65,-482.51 570.28,-472.42"/>
<polygon fill="grey" stroke="grey" stroke-width="2" points="572.02,-475.47 579.61,-468.07 569.06,-469.13 572.02,-475.47"/>
</g>
<!-- 56&#45;&gt;49 -->
<g id="edge102" class="edge">
<title>56&#45;&gt;49</title>
<path fill="none" stroke="grey" stroke-width="2" d="M689.2,-503.7C676.87,-494.8 661.66,-483.82 648.33,-474.2"/>
<polygon fill="grey" stroke="grey" stroke-width="2" points="650.04,-471.12 639.88,-468.1 645.94,-476.79 650.04,-471.12"/>
</g>
<!-- 57&#45;&gt;48 -->
<g id="edge92" class="edge">
<title>57&#45;&gt;48</title>
<path fill="none" stroke="grey" stroke-width="2" d="M1709.08,-515.99C1516.98,-495.1 778.62,-414.82 530.81,-387.88"/>
<polygon fill="grey" stroke="grey" stroke-width="2" points="531.11,-384.39 520.79,-386.79 530.36,-391.35 531.11,-384.39"/>
</g>
<!-- 58 -->
<g id="node59" class="node">
<title>58</title>
<path fill="none" stroke="#d89c56" stroke-width="2" d="M1924.18,-612C1924.18,-612 1726.18,-612 1726.18,-612 1720.18,-612 1714.18,-606 1714.18,-600 1714.18,-600 1714.18,-588 1714.18,-588 1714.18,-582 1720.18,-576 1726.18,-576 1726.18,-576 1924.18,-576 1924.18,-576 1930.18,-576 1936.18,-582 1936.18,-588 1936.18,-588 1936.18,-600 1936.18,-600 1936.18,-606 1930.18,-612 1924.18,-612"/>
<text text-anchor="middle" x="1825.18" y="-591.5" font-family="sans" font-size="10.00">fetch_mapping_cortex_all_to_exc_mtypes</text>
</g>
<!-- 58&#45;&gt;57 -->
<g id="edge108" class="edge">
<title>58&#45;&gt;57</title>
<path fill="none" stroke="grey" stroke-width="2" d="M1807.88,-575.7C1799.32,-567.14 1788.84,-556.66 1779.49,-547.3"/>
<polygon fill="grey" stroke="grey" stroke-width="2" points="1781.83,-544.7 1772.29,-540.1 1776.88,-549.65 1781.83,-544.7"/>
</g>
<!-- 59&#45;&gt;0 -->
<g id="edge4" class="edge">
<title>59&#45;&gt;0</title>
<path fill="none" stroke="grey" stroke-width="2" d="M274.37,-86.91C578.02,-76.68 1903.03,-32.04 2221.27,-21.32"/>
<polygon fill="grey" stroke="grey" stroke-width="2" points="2221.85,-24.8 2231.73,-20.97 2221.61,-17.81 2221.85,-24.8"/>
</g>
<!-- 60&#45;&gt;59 -->
<g id="edge110" class="edge">
<title>60&#45;&gt;59</title>
<path fill="none" stroke="grey" stroke-width="2" d="M281.01,-215.66C279.15,-197.01 274.37,-166.93 262.18,-144 256.63,-133.57 248.48,-123.69 240.36,-115.36"/>
<polygon fill="grey" stroke="grey" stroke-width="2" points="242.58,-112.64 232.98,-108.16 237.7,-117.65 242.58,-112.64"/>
</g>
<!-- 60&#45;&gt;61 -->
<g id="edge115" class="edge">
<title>60&#45;&gt;61</title>
<path fill="none" stroke="grey" stroke-width="2" d="M247.93,-215.88C229.12,-206.47 205.6,-194.71 185.52,-184.67"/>
<polygon fill="grey" stroke="grey" stroke-width="2" points="187.07,-181.53 176.56,-180.19 183.94,-187.79 187.07,-181.53"/>
</g>
<!-- 61&#45;&gt;59 -->
<g id="edge111" class="edge">
<title>61&#45;&gt;59</title>
<path fill="none" stroke="grey" stroke-width="2" d="M159.48,-143.7C168.05,-135.14 178.52,-124.66 187.88,-115.3"/>
<polygon fill="grey" stroke="grey" stroke-width="2" points="190.48,-117.65 195.08,-108.1 185.53,-112.7 190.48,-117.65"/>
</g>
</g>
</svg>
